<svg width="20" height="20" viewBox="0 0 20 20" fill="none" xmlns="http://www.w3.org/2000/svg">
<rect x="7" y="14" width="6" height="2" fill="#C8B9F2"/>
<path d="M14 3C15.1045 3 16 3.86187 16 4.925V15.075C16 16.1381 15.1045 17 14 17H6C4.89545 17 4 16.1381 4 15.075V4.925C4 3.86187 4.89545 3 6 3H14ZM11.4545 14.375H8.54545C8.40079 14.375 8.26205 14.4303 8.15976 14.5288C8.05747 14.6272 8 14.7608 8 14.9C8 15.0392 8.05747 15.1728 8.15976 15.2712C8.26205 15.3697 8.40079 15.425 8.54545 15.425H11.4545C11.5992 15.425 11.7379 15.3697 11.8402 15.2712C11.9425 15.1728 12 15.0392 12 14.9C12 14.7608 11.9425 14.6272 11.8402 14.5288C11.7379 14.4303 11.5992 14.375 11.4545 14.375ZM14 4.05H6C5.88062 4.05 5.7624 4.07263 5.65211 4.11661C5.54181 4.16058 5.44159 4.22503 5.35718 4.30628C5.27276 4.38753 5.2058 4.48399 5.16011 4.59015C5.11442 4.69631 5.09091 4.81009 5.09091 4.925V12.8H14.9091V4.925C14.9091 4.81009 14.8856 4.69631 14.8399 4.59015C14.7942 4.48399 14.7272 4.38753 14.6428 4.30628C14.5584 4.22503 14.4582 4.16058 14.3479 4.11661C14.2376 4.07263 14.1194 4.05 14 4.05Z" fill="#5334AB"/>
<path d="M6.59584 10C6.50976 10 6.48167 9.95398 6.51155 9.86192L7.39027 7.16946C7.42733 7.05649 7.48352 7 7.55883 7H7.8099C7.88521 7 7.9414 7.05649 7.97846 7.16946L8.85718 9.86192C8.88706 9.95398 8.85897 10 8.77289 10H8.48776C8.40885 10 8.35386 9.95188 8.32278 9.85565L8.13986 9.29289H7.22887L7.04595 9.85565C7.01487 9.95188 6.95988 10 6.88097 10H6.59584ZM7.39565 8.77406H7.97308L7.75251 8.10879C7.72621 8.03068 7.71007 7.9742 7.70409 7.93933C7.69931 7.90307 7.69393 7.85007 7.68795 7.78033H7.68078C7.6748 7.85007 7.66882 7.90307 7.66285 7.93933C7.65806 7.9742 7.64252 8.03068 7.61622 8.10879L7.39565 8.77406Z" fill="#5334AB"/>
<path d="M9.30191 10C9.21823 10 9.17638 9.9477 9.17638 9.8431V7.1569C9.17638 7.0523 9.21823 7 9.30191 7H9.9726C10.403 7 10.7013 7.08159 10.8675 7.24477C11.0348 7.40795 11.1185 7.63947 11.1185 7.93933C11.1185 8.23919 11.0348 8.47071 10.8675 8.63389C10.7013 8.79707 10.403 8.87866 9.9726 8.87866H9.70002V9.8431C9.70002 9.9477 9.65818 10 9.57449 10H9.30191ZM9.70002 8.3682H9.97081C10.2099 8.3682 10.3725 8.33543 10.4586 8.26987C10.5447 8.20293 10.5877 8.09275 10.5877 7.93933C10.5877 7.78591 10.5447 7.67643 10.4586 7.61088C10.3725 7.54393 10.2099 7.51046 9.97081 7.51046H9.70002V8.3682Z" fill="#5334AB"/>
<path d="M11.6834 10C11.5997 10 11.5579 9.9477 11.5579 9.8431V7.1569C11.5579 7.0523 11.5997 7 11.6834 7H12.3541C12.7845 7 13.0828 7.08159 13.2489 7.24477C13.4163 7.40795 13.5 7.63947 13.5 7.93933C13.5 8.23919 13.4163 8.47071 13.2489 8.63389C13.0828 8.79707 12.7845 8.87866 12.3541 8.87866H12.0815V9.8431C12.0815 9.9477 12.0397 10 11.956 10H11.6834ZM12.0815 8.3682H12.3523C12.5914 8.3682 12.754 8.33543 12.8401 8.26987C12.9261 8.20293 12.9692 8.09275 12.9692 7.93933C12.9692 7.78591 12.9261 7.67643 12.8401 7.61088C12.754 7.54393 12.5914 7.51046 12.3523 7.51046H12.0815V8.3682Z" fill="#5334AB"/>
</svg>
