<svg width="35" height="18" viewBox="0 0 35 18" fill="none" xmlns="http://www.w3.org/2000/svg">
<g clip-path="url(#clip0_6895_11126)">
<mask id="path-1-inside-1_6895_11126" fill="white">
<path d="M35 0.5C35 2.79813 34.5473 5.07376 33.6679 7.19696C32.7884 9.32016 31.4994 11.2493 29.8744 12.8744C28.2493 14.4994 26.3202 15.7884 24.197 16.6679C22.0738 17.5473 19.7981 18 17.5 18C15.2019 18 12.9262 17.5473 10.803 16.6679C8.67984 15.7884 6.75066 14.4994 5.12563 12.8744C3.50061 11.2493 2.21156 9.32016 1.33211 7.19696C0.45265 5.07376 -2.00909e-07 2.79813 0 0.499998L17.5 0.5H35Z"/>
</mask>
<path d="M35 0.5C35 2.79813 34.5473 5.07376 33.6679 7.19696C32.7884 9.32016 31.4994 11.2493 29.8744 12.8744C28.2493 14.4994 26.3202 15.7884 24.197 16.6679C22.0738 17.5473 19.7981 18 17.5 18C15.2019 18 12.9262 17.5473 10.803 16.6679C8.67984 15.7884 6.75066 14.4994 5.12563 12.8744C3.50061 11.2493 2.21156 9.32016 1.33211 7.19696C0.45265 5.07376 -2.00909e-07 2.79813 0 0.499998L17.5 0.5H35Z" fill="white" stroke="#E3E3E3" stroke-width="2" mask="url(#path-1-inside-1_6895_11126)"/>
<path d="M1 -0.5H34V1.5H1V-0.5Z" fill="white"/>
<path d="M17 11C16.8332 11 16.6734 10.9302 16.5567 10.8063L11.1774 5.09747C10.9374 4.84285 10.9414 4.4341 11.1862 4.18454C11.4311 3.935 11.8241 3.9391 12.064 4.19374L17 9.43211L21.936 4.19374C22.1759 3.93908 22.5689 3.93492 22.8137 4.18454C23.0586 4.43413 23.0625 4.84285 22.8226 5.09747L17.4433 10.8063C17.3266 10.9302 17.1668 11 17 11Z" fill="#1D1D1D"/>
</g>
<defs>
<clipPath id="clip0_6895_11126">
<rect width="35" height="17.5" fill="white" transform="translate(0 0.5)"/>
</clipPath>
</defs>
</svg>
