<svg width="20" height="20" viewBox="0 0 20 20" fill="none" xmlns="http://www.w3.org/2000/svg">
<path d="M3.74261 11.4441C3.53416 11.4441 3.35828 11.3592 3.21497 11.1893C3.07166 11.0194 3 10.807 3 10.5522V9.35769C3 9.10286 3.07166 8.88785 3.21497 8.71265C3.35828 8.53746 3.53416 8.44986 3.74261 8.44986H13.1751C13.0188 8.56666 12.8928 8.70469 12.7973 8.86396C12.7017 9.02323 12.654 9.1825 12.654 9.34176V9.97884L12.667 10.4726C12.6149 10.4832 12.5411 10.4885 12.4455 10.4885H11.5596C10.8561 10.4885 10.4696 10.807 10.4001 11.4441H3.74261ZM5.35812 7.43054C5.15836 7.43054 4.98465 7.34294 4.83699 7.16775C4.68934 6.99255 4.61551 6.77754 4.61551 6.52271V5.42376C4.61551 5.17955 4.68934 4.96453 4.83699 4.77872C4.98465 4.59291 5.15836 4.5 5.35812 4.5H15.2857C15.4855 4.5 15.657 4.59291 15.8003 4.77872C15.9436 4.96453 16.0153 5.17955 16.0153 5.42376V6.52271C16.0153 6.77754 15.9436 6.99255 15.8003 7.16775C15.657 7.34294 15.4855 7.43054 15.2857 7.43054H5.35812ZM12.1328 14.4702C12.2892 14.4702 12.4086 14.4596 12.4911 14.4384C12.5736 14.4171 12.6344 14.4224 12.6735 14.4543C12.7126 14.4861 12.7365 14.5605 12.7452 14.6773C12.7539 14.7941 12.7582 14.9905 12.7582 15.2666V15.378C12.7582 15.4205 12.7625 15.4577 12.7712 15.4895H3.74261C3.53416 15.4895 3.35828 15.3993 3.21497 15.2188C3.07166 15.0383 3 14.8259 3 14.5817V13.3872C3 13.143 3.07166 12.9306 3.21497 12.7501C3.35828 12.5696 3.53416 12.4794 3.74261 12.4794H10.374V12.8457C10.374 13.3129 10.4804 13.6978 10.6932 14.0004C10.906 14.303 11.1557 14.4543 11.4423 14.4543H11.7029C11.7376 14.4543 11.7637 14.4569 11.7811 14.4622C11.7984 14.4676 11.8288 14.4702 11.8723 14.4702H12.1328Z" fill="#5334AB"/>
<path d="M16.8101 11.89C16.8709 11.9537 16.9165 12.0281 16.9469 12.113C16.9773 12.198 16.9946 12.2882 16.999 12.3838C17.0033 12.4793 16.9946 12.5669 16.9729 12.6466C16.9512 12.7262 16.9143 12.7872 16.8622 12.8297C16.7232 12.9784 16.5343 13.1429 16.2955 13.3234C16.0566 13.504 15.8047 13.6924 15.5398 13.8889C15.2749 14.0853 15.0165 14.2791 14.7646 14.4702C14.5127 14.6613 14.3086 14.8312 14.1523 14.9798C13.9525 15.1922 13.8402 15.2998 13.7093 15.3143C13.6138 15.3249 13.566 15.1763 13.566 14.8684V14.072C13.566 13.8597 13.5291 13.711 13.4553 13.6261C13.3815 13.5411 13.2751 13.4986 13.1361 13.4986H11.5727C11.4511 13.4986 11.3447 13.4588 11.2535 13.3792C11.1623 13.2996 11.1167 13.1642 11.1167 12.9731V12.1767C11.1167 11.8476 11.158 11.6485 11.2405 11.5795C11.323 11.5104 11.4728 11.4759 11.6899 11.4759H11.9375C11.9983 11.4759 12.0721 11.4786 12.159 11.4839C12.2458 11.4892 12.3544 11.4919 12.4847 11.4919H13.0449C13.2447 11.4919 13.3815 11.4096 13.4553 11.245C13.5291 11.0804 13.566 10.8973 13.566 10.6955V9.94695C13.566 9.7346 13.566 9.62842 13.6702 9.54082C13.7397 9.48242 13.8483 9.52755 13.996 9.6762C14.1523 9.81423 14.3564 9.97881 14.6083 10.1699C14.8602 10.3611 15.1251 10.5575 15.403 10.7592C15.6809 10.961 15.9459 11.1601 16.1977 11.3565C16.4496 11.5529 16.6537 11.7308 16.8101 11.89Z" fill="#C8B9F2"/>
</svg>
