<svg width="18" height="18" viewBox="0 0 18 18" fill="none" xmlns="http://www.w3.org/2000/svg">
<g id="&#230;&#156;&#170;&#231;&#130;&#185;&#229;&#135;&#187;-OVERVIEW">
<g id="&#231;&#188;&#150;&#231;&#187;&#132; 7">
<path id="&#232;&#183;&#175;&#229;&#190;&#132;" d="M2.13222 1.99805H6.62951C7.24873 2.00625 7.74639 2.51059 7.74634 3.12986V7.62715C7.74634 8.25638 7.23625 8.76646 6.60702 8.76646H2.10974C1.80754 8.75862 1.52085 8.63099 1.31278 8.41168C1.10472 8.19237 0.992348 7.89936 1.00041 7.59717V3.09988C1.01666 2.48654 1.51866 1.99783 2.13222 1.99805Z" fill="#C3C3C3"/>
<path id="&#232;&#183;&#175;&#229;&#190;&#132;_2" d="M2.13231 10.2432H6.6146C7.36915 10.2432 7.74642 10.6204 7.74642 11.375V15.8573C7.74642 16.6118 7.36915 16.9891 6.6146 16.9891H2.13231C1.37776 16.9891 1.00049 16.6118 1.00049 15.8573V11.375C1.00049 10.6204 1.37776 10.2432 2.13231 10.2432V10.2432Z" fill="#C3C3C3"/>
<path id="&#232;&#183;&#175;&#229;&#190;&#132;_3" d="M10.3774 10.2432H15.1221C15.3527 10.2432 15.5738 10.3348 15.7369 10.4978C15.8999 10.6609 15.9915 10.882 15.9915 11.1126V16.1196C15.9915 16.3502 15.8999 16.5714 15.7369 16.7344C15.5738 16.8975 15.3527 16.9891 15.1221 16.9891H10.1151C9.88448 16.9891 9.66333 16.8975 9.50027 16.7344C9.33721 16.5714 9.24561 16.3502 9.24561 16.1196V11.375C9.24561 10.7499 9.75234 10.2432 10.3774 10.2432V10.2432Z" fill="#C3C3C3"/>
<path id="&#232;&#183;&#175;&#229;&#190;&#132;_4" opacity="0.4" d="M8.6482 4.56962L11.8177 1.40016C12.3512 0.866614 12.8848 0.866614 13.4183 1.40016L16.5878 4.56962C17.1213 5.10316 17.1213 5.63671 16.5878 6.17025L13.4183 9.33971C12.8848 9.87326 12.3512 9.87326 11.8177 9.33971L8.6482 6.17025C8.11466 5.63671 8.11466 5.10316 8.6482 4.56962Z" fill="#C3C3C3"/>
</g>
</g>
</svg>
