<svg width="20" height="20" viewBox="0 0 20 20" fill="none" xmlns="http://www.w3.org/2000/svg">
<path d="M17 10C17 13.866 13.866 17 10 17C6.13401 17 3 13.866 3 10C3 6.13401 6.13401 3 10 3C13.866 3 17 6.13401 17 10Z" fill="#C8B9F2"/>
<path fill-rule="evenodd" clip-rule="evenodd" d="M10 15.8333C13.2217 15.8333 15.8333 13.2217 15.8333 10C15.8333 6.77834 13.2217 4.16667 10 4.16667C6.77834 4.16667 4.16667 6.77834 4.16667 10C4.16667 13.2217 6.77834 15.8333 10 15.8333ZM10 17C13.866 17 17 13.866 17 10C17 6.13401 13.866 3 10 3C6.13401 3 3 6.13401 3 10C3 13.866 6.13401 17 10 17Z" fill="#5334AB"/>
<path fill-rule="evenodd" clip-rule="evenodd" d="M11.75 14.0834H8.25V12.9167H11.75V14.0834Z" fill="#5334AB"/>
<path fill-rule="evenodd" clip-rule="evenodd" d="M7.66663 11.575H5.91663V10.7583H7.66663V11.575Z" fill="#5334AB" fill-opacity="0.5"/>
<path fill-rule="evenodd" clip-rule="evenodd" d="M14.0834 11.575H12.3334V10.7583H14.0834V11.575Z" fill="#5334AB" fill-opacity="0.5"/>
<path d="M11.1667 11.1667C11.1667 11.811 10.6444 12.3333 10 12.3333C9.35571 12.3333 8.83337 11.811 8.83337 11.1667C8.83337 10.5223 9.35571 10 10 10C10.6444 10 11.1667 10.5223 11.1667 11.1667Z" fill="white"/>
<path fill-rule="evenodd" clip-rule="evenodd" d="M10 11.75C10.3222 11.75 10.5834 11.4888 10.5834 11.1667C10.5834 10.8445 10.3222 10.5833 10 10.5833C9.67787 10.5833 9.41671 10.8445 9.41671 11.1667C9.41671 11.4888 9.67787 11.75 10 11.75ZM10 12.3333C10.6444 12.3333 11.1667 11.811 11.1667 11.1667C11.1667 10.5223 10.6444 10 10 10C9.35571 10 8.83337 10.5223 8.83337 11.1667C8.83337 11.811 9.35571 12.3333 10 12.3333Z" fill="#5334AB"/>
<path fill-rule="evenodd" clip-rule="evenodd" d="M9.70837 10.5834V7.66675H10.2917V10.5834H9.70837Z" fill="#5334AB"/>
<path fill-rule="evenodd" clip-rule="evenodd" d="M15.8333 10.2917H14.8611V9.70841H15.8333V10.2917Z" fill="#5334AB"/>
<path fill-rule="evenodd" clip-rule="evenodd" d="M15.503 8.03813L14.6047 8.41016L14.3815 7.87122L15.2797 7.49919L15.503 8.03813Z" fill="#5334AB"/>
<path fill-rule="evenodd" clip-rule="evenodd" d="M14.331 6.08133L13.6436 6.7688L13.2311 6.35632L13.9185 5.66885L14.331 6.08133Z" fill="#5334AB"/>
<path fill-rule="evenodd" clip-rule="evenodd" d="M12.5033 4.72256L12.1279 5.61938L11.5898 5.39415L11.9652 4.49733L12.5033 4.72256Z" fill="#5334AB"/>
<path fill-rule="evenodd" clip-rule="evenodd" d="M10.2687 4.16548L10.2725 5.1377L9.68913 5.13995L9.68538 4.16773L10.2687 4.16548Z" fill="#5334AB"/>
<path fill-rule="evenodd" clip-rule="evenodd" d="M8.01524 4.50551L8.39062 5.40234L7.85253 5.62757L7.47714 4.73074L8.01524 4.50551Z" fill="#5334AB"/>
<path fill-rule="evenodd" clip-rule="evenodd" d="M6.0648 5.68393L6.75476 6.3689L6.34378 6.78287L5.65383 6.09791L6.0648 5.68393Z" fill="#5334AB"/>
<path fill-rule="evenodd" clip-rule="evenodd" d="M4.71701 7.50712L5.61523 7.87915L5.39202 8.41809L4.49379 8.04606L4.71701 7.50712Z" fill="#5334AB"/>
<path fill-rule="evenodd" clip-rule="evenodd" d="M4.16465 9.75433L5.13684 9.74683L5.14134 10.3301L4.16915 10.3376L4.16465 9.75433Z" fill="#5334AB"/>
</svg>
