<svg width="18" height="18" viewBox="0 0 18 18" fill="none" xmlns="http://www.w3.org/2000/svg">
<path d="M4.19672 17.9986L4.13888 17.9254L1 13.9454L2.88799 10.8588L3.14697 10.4219L5.35783 13.3213L5.41567 13.3962L5.15064 14.3948L4.19672 17.9986ZM4.49282 17.9986H4.41426L5.36387 14.3867L5.62285 13.3962H12.3875C12.3872 13.4158 12.3895 13.4353 12.3944 13.4542L12.6534 14.4527L13.5814 17.9986H4.49282ZM13.8853 17.8907L13.799 17.9986L12.8494 14.3948L12.5843 13.3962L12.6646 13.291L14.853 10.4219L15.112 10.8588L17 13.9454L13.8853 17.8907Z" fill="#C3C3C3"/>
<path d="M12.3957 12.3638L11.6006 9.3529L11.3537 8.41406L11.3477 8.41942L11.6066 9.40997L12.4017 12.42C12.402 12.401 12.3997 12.3821 12.3948 12.3638" fill="#C3C3C3"/>
<path d="M6.66952 8.4155L6.66348 8.41016L6.41745 9.34899L5.62237 12.3634C5.62237 12.375 5.62237 12.3866 5.61719 12.3982L6.40795 9.40962L6.66952 8.4155Z" fill="#C3C3C3"/>
<path d="M11.4061 9.46379L12.183 12.4185H12.1908L11.3957 9.40673L11.1367 8.41797C11.1368 8.43662 11.1392 8.45518 11.1436 8.47325L11.4061 9.46379Z" fill="#C3C3C3"/>
<path d="M6.87615 8.47503C6.88104 8.45644 6.88337 8.43723 6.88305 8.41797L6.62407 9.40762L5.82812 12.4194H5.83244L6.60939 9.46558L6.87615 8.47503Z" fill="#C3C3C3"/>
<path d="M6.88114 8.42309H11.1371L11.3961 9.40383L12.1903 12.4102H5.8288L6.62302 9.40383L6.88114 8.42309ZM3.51953 9.61781L4.83948 7.30682L5.09847 6.86995L6.66791 8.41239L6.67395 8.41773L6.41497 9.40828L5.6242 12.3969L5.61816 12.4201L3.51953 9.61781ZM12.4035 12.4201L11.6084 9.41007L11.3495 8.41952L11.3555 8.41417L12.9405 6.84766L13.1779 7.30861L14.497 9.61959L12.4035 12.4201Z" fill="#C3C3C3"/>
<path d="M7.64633 4.728L7.64029 4.72266L7.20865 6.34712L6.87801 7.60603C6.87323 7.62404 6.87091 7.64264 6.87111 7.66131L7.19915 6.40418L7.64633 4.728Z" fill="#C3C3C3"/>
<path d="M11.1351 7.59924L10.8045 6.35102L10.3771 4.72656L10.3711 4.73191L10.8122 6.40809L11.142 7.6563C11.1422 7.63764 11.1399 7.61903 11.1351 7.60103" fill="#C3C3C3"/>
<path d="M10.6082 6.46014L10.9233 7.65397H10.9319L10.6004 6.40576L10.1602 4.73047C10.1599 4.74973 10.1622 4.76893 10.1671 4.78753L10.6082 6.46014Z" fill="#C3C3C3"/>
<path d="M7.85039 4.78753C7.85551 4.76897 7.85813 4.74977 7.85816 4.73047L7.41703 6.40576L7.08984 7.66467H7.09761L7.41185 6.46193L7.85039 4.78753Z" fill="#C3C3C3"/>
<path d="M7.85871 4.72926H10.1593L10.5996 6.40455L10.9277 7.64564L7.08953 7.65366L7.41758 6.40544L7.85871 4.72926ZM5.46484 6.20484L6.15547 5.00388L6.78566 3.88672L7.63771 4.72302L7.64462 4.72837L7.20176 6.40455L6.87285 7.66168L5.46484 6.20484ZM11.1426 7.65634L10.8129 6.40812L10.3717 4.73194L10.3778 4.72658L11.222 3.89028L11.8583 5.00743L12.5377 6.20037L11.1426 7.65634Z" fill="#C3C3C3"/>
<path d="M10.1284 3.90228L9.95489 4.08506L9.95316 4.07703H9.73302H8.28444H8.06431L7.89251 3.89604L7.37109 3.34683L8.60386 1.20613L8.85938 0.762125L9.00959 0.5L9.15981 0.763909L9.41965 1.2204L10.6403 3.36377L10.1284 3.90228Z" fill="#C3C3C3"/>
<path fill-rule="evenodd" clip-rule="evenodd" d="M13.8006 17.9986L13.8869 17.8907L17.0016 13.9454L15.1136 10.8588L14.8546 10.4219L12.6662 13.291L12.5859 13.3962L12.851 14.3948L13.8006 17.9986Z" fill="#C3C3C3"/>
<path fill-rule="evenodd" clip-rule="evenodd" d="M11.6066 9.41007L12.4017 12.4201L14.4952 9.61959L13.1761 7.30861L12.9387 6.84766L11.3537 8.41417L11.3477 8.41952L11.6066 9.41007Z" fill="#C3C3C3"/>
<path fill-rule="evenodd" clip-rule="evenodd" d="M10.8122 6.40847L11.142 7.65668L12.5371 6.20072L11.8577 5.00778L11.2214 3.89062L10.3771 4.72693L10.3711 4.73229L10.8122 6.40847Z" fill="#C3C3C3"/>
</svg>
