<svg width="20" height="20" viewBox="0 0 20 20" fill="none" xmlns="http://www.w3.org/2000/svg">
<path d="M5.91732 4.90947L5.09749 13.9276C5.05897 14.3513 5.53361 14.6265 5.88217 14.3825L9.69932 11.7105C9.87826 11.5852 10.1178 11.5906 10.2909 11.7238L15.6951 15.8809C16.024 16.1338 16.5 15.8994 16.5 15.4846V5C16.5 4.44772 16.0523 4 15.5 4H6.91321C6.39601 4 5.96415 4.39439 5.91732 4.90947Z" fill="#C8B9F2" fill-opacity="0.3"/>
<path d="M4.5 4.29154V15.477C4.5 15.85 4.89369 16.0917 5.2263 15.9229L9.77369 13.6147C9.91593 13.5426 10.0841 13.5426 10.2263 13.6147L14.7737 15.9229C15.1063 16.0917 15.5 15.85 15.5 15.477V4.29154C15.5 3.73926 15.0523 3.29154 14.5 3.29154H5.5C4.94772 3.29154 4.5 3.73926 4.5 4.29154Z" fill="#5334AB"/>
<path d="M10.3857 5.26612L10.3857 5.26611L10.3846 5.26379C10.3431 5.17948 10.2765 5.10937 10.193 5.06549C10.09 5.01096 9.96944 5.00159 9.85922 5.04038L9.909 5.18184L9.85966 5.04022C9.74917 5.07871 9.66129 5.16191 9.61251 5.26635C9.61247 5.26645 9.61242 5.26655 9.61237 5.26665L8.80106 6.98968C8.80103 6.98975 8.80099 6.98982 8.80096 6.9899C8.77978 7.03424 8.74214 7.06126 8.70214 7.06824L6.88403 7.34545L6.88401 7.34537L6.87901 7.3463C6.79015 7.36296 6.70926 7.40554 6.64441 7.46753L6.64428 7.4674L6.63916 7.47281C6.63652 7.4756 6.63426 7.47819 6.6324 7.48045C6.47542 7.65297 6.47836 7.9238 6.6395 8.0928L6.63948 8.09282L6.6412 8.09456L7.966 9.43949C7.96609 9.43958 7.96618 9.43967 7.96626 9.43976C7.99703 9.47156 8.01298 9.52042 8.00481 9.56949L8.0048 9.56952L7.68906 11.4688L7.68905 11.4688L7.6888 11.4704C7.6743 11.5639 7.6887 11.6602 7.73119 11.7455L7.73115 11.7455L7.73275 11.7485C7.84367 11.959 8.10015 12.048 8.31429 11.9329L8.31429 11.9329L8.31581 11.9321L9.94786 11.0306L9.94787 11.0306L9.94994 11.0294C9.98512 11.0093 10.0259 11.0093 10.061 11.0294L10.061 11.0295L10.063 11.0306L11.6831 11.9272L11.6831 11.9273L11.6864 11.929C11.7708 11.973 11.8666 11.9889 11.9608 11.9737L11.9608 11.9737L11.9621 11.9735C12.1981 11.933 12.3464 11.7049 12.3141 11.4744L12.3141 11.4744L12.3135 11.4706L11.9978 9.57137L11.9978 9.57137L11.9973 9.56879C11.9885 9.5208 12.004 9.4734 12.0349 9.44268L12.0349 9.44269L12.0362 9.44131L13.3538 8.09618C13.5081 7.94296 13.5263 7.69546 13.3986 7.51992C13.3307 7.42664 13.2293 7.36296 13.1139 7.34645L11.2959 7.06919C11.2959 7.06919 11.2958 7.06919 11.2958 7.06918C11.2569 7.06315 11.2192 7.03643 11.1984 6.99205L11.1982 6.99169L10.3857 5.26612Z" fill="#C8B9F2" stroke="white" stroke-width="0.3" stroke-linecap="round" stroke-linejoin="round"/>
</svg>
