<svg width="24" height="24" viewBox="0 0 24 24" fill="none" xmlns="http://www.w3.org/2000/svg">
<path d="M6.63102 16.493L5.31827 17.8057C5.07731 18.0467 5.07731 18.4408 5.31827 18.6817C5.55924 18.9227 5.95331 18.9227 6.19428 18.6817L7.50703 17.369C7.74799 17.128 7.74799 16.7339 7.50703 16.493C7.26606 16.252 6.87199 16.252 6.63102 16.493ZM6.25452 7.13805C6.49799 7.38153 6.89458 7.38153 7.13805 7.13805C7.38153 6.89458 7.38153 6.49799 7.13805 6.25452L5.81275 4.92922C5.56928 4.68574 5.17269 4.68574 4.92922 4.92922C4.68574 5.17269 4.68574 5.56928 4.92922 5.81275L6.25452 7.13805ZM4.5 11.375H2.625C2.27861 11.375 2 11.6536 2 12C2 12.3464 2.28112 12.625 2.625 12.625H4.5C4.84639 12.625 5.125 12.3464 5.125 12C5.125 11.6561 4.84388 11.375 4.5 11.375ZM12 5.125C12.3464 5.125 12.625 4.84639 12.625 4.5V2.625C12.625 2.27861 12.3464 2 12 2C11.6536 2 11.375 2.27861 11.375 2.625V4.5C11.375 4.84639 11.6561 5.125 12 5.125ZM18.0141 6.86195L19.3268 5.5492C19.5678 5.30823 19.5678 4.91416 19.3268 4.67319C19.0858 4.43223 18.6918 4.43223 18.4508 4.67319L17.1381 5.98594C16.8971 6.22691 16.8971 6.62098 17.1381 6.86195C17.379 7.10542 17.7731 7.10542 18.0141 6.86195ZM21.375 11.375H19.5C19.1536 11.375 18.875 11.6536 18.875 12C18.875 12.3464 19.1536 12.625 19.5 12.625H21.375C21.7214 12.625 22 12.3464 22 12C22 11.6561 21.7214 11.375 21.375 11.375ZM17.7455 16.8619C17.502 16.6185 17.1054 16.6185 16.8619 16.8619C16.6185 17.1054 16.6185 17.502 16.8619 17.7455L18.1872 19.0708C18.4307 19.3143 18.8273 19.3143 19.0708 19.0708C19.3143 18.8273 19.3143 18.4307 19.0708 18.1873L17.7455 16.8619ZM12 6.37249C8.89006 6.37249 6.36998 8.89257 6.36998 12.0025C6.36998 15.1125 8.89006 17.6325 12 17.6325C15.1099 17.6325 17.63 15.1125 17.63 12.0025C17.63 8.89257 15.1099 6.37249 12 6.37249ZM12 18.875C11.6536 18.875 11.375 19.1536 11.375 19.5V21.375C11.375 21.7214 11.6536 22 12 22C12.3464 22 12.625 21.7214 12.625 21.375V19.5C12.625 19.1561 12.3464 18.875 12 18.875Z" fill="white"/>
</svg>
