<svg width="20" height="20" viewBox="0 0 20 20" fill="none" xmlns="http://www.w3.org/2000/svg">
<path d="M17.0909 4.90909H15.8182V2.90909C15.8179 2.66807 15.722 2.43699 15.5516 2.26657C15.3812 2.09614 15.1501 2.00027 14.9091 2H2.90909C2.66807 2.00027 2.43699 2.09614 2.26657 2.26657C2.09614 2.43699 2.00027 2.66807 2 2.90909V17.0909C2.00027 17.3319 2.09614 17.563 2.26657 17.7334C2.43699 17.9039 2.66807 17.9997 2.90909 18H16.5455C16.9311 17.9996 17.3008 17.8462 17.5735 17.5735C17.8462 17.3008 17.9996 16.9311 18 16.5455V5.81818C17.9997 5.57716 17.9039 5.34609 17.7334 5.17566C17.563 5.00523 17.3319 4.90936 17.0909 4.90909V4.90909ZM4.90909 5.27273C4.90903 5.19733 4.93241 5.12378 4.97599 5.06226C5.01957 5.00074 5.08119 4.95428 5.15233 4.92932C5.22347 4.90435 5.30062 4.90212 5.37308 4.92293C5.44555 4.94374 5.50976 4.98655 5.55682 5.04545L7.81818 7.8725V5.27273C7.81818 5.17629 7.85649 5.08379 7.92469 5.0156C7.99288 4.9474 8.08538 4.90909 8.18182 4.90909C8.27826 4.90909 8.37075 4.9474 8.43895 5.0156C8.50714 5.08379 8.54545 5.17629 8.54545 5.27273V8.90909C8.54551 8.98449 8.52214 9.05803 8.47856 9.11956C8.43498 9.18108 8.37336 9.22754 8.30221 9.2525C8.23107 9.27747 8.15393 9.2797 8.08146 9.25889C8.009 9.23808 7.94479 9.19527 7.89773 9.13636L5.63636 6.30932V8.90909C5.63636 9.00553 5.59805 9.09803 5.52986 9.16622C5.46166 9.23442 5.36917 9.27273 5.27273 9.27273C5.17629 9.27273 5.08379 9.23442 5.0156 9.16622C4.9474 9.09803 4.90909 9.00553 4.90909 8.90909V5.27273ZM12.5455 15.0909H5.27273C5.17629 15.0909 5.08379 15.0526 5.0156 14.9844C4.9474 14.9162 4.90909 14.8237 4.90909 14.7273C4.90909 14.6308 4.9474 14.5383 5.0156 14.4701C5.08379 14.4019 5.17629 14.3636 5.27273 14.3636H12.5455C12.6419 14.3636 12.7344 14.4019 12.8026 14.4701C12.8708 14.5383 12.9091 14.6308 12.9091 14.7273C12.9091 14.8237 12.8708 14.9162 12.8026 14.9844C12.7344 15.0526 12.6419 15.0909 12.5455 15.0909V15.0909ZM12.5455 12.1818H5.27273C5.17629 12.1818 5.08379 12.1435 5.0156 12.0753C4.9474 12.0071 4.90909 11.9146 4.90909 11.8182C4.90909 11.7217 4.9474 11.6292 5.0156 11.5611C5.08379 11.4929 5.17629 11.4545 5.27273 11.4545H12.5455C12.6419 11.4545 12.7344 11.4929 12.8026 11.5611C12.8708 11.6292 12.9091 11.7217 12.9091 11.8182C12.9091 11.9146 12.8708 12.0071 12.8026 12.0753C12.7344 12.1435 12.6419 12.1818 12.5455 12.1818V12.1818ZM12.5455 8.54545H10.3636C10.2672 8.54545 10.1747 8.50714 10.1065 8.43895C10.0383 8.37075 10 8.27826 10 8.18182C10 8.08538 10.0383 7.99288 10.1065 7.92469C10.1747 7.85649 10.2672 7.81818 10.3636 7.81818H12.5455C12.6419 7.81818 12.7344 7.85649 12.8026 7.92469C12.8708 7.99288 12.9091 8.08538 12.9091 8.18182C12.9091 8.27826 12.8708 8.37075 12.8026 8.43895C12.7344 8.50714 12.6419 8.54545 12.5455 8.54545V8.54545ZM12.5455 5.63636H10.3636C10.2672 5.63636 10.1747 5.59805 10.1065 5.52986C10.0383 5.46166 10 5.36917 10 5.27273C10 5.17629 10.0383 5.08379 10.1065 5.0156C10.1747 4.9474 10.2672 4.90909 10.3636 4.90909H12.5455C12.6419 4.90909 12.7344 4.9474 12.8026 5.0156C12.8708 5.08379 12.9091 5.17629 12.9091 5.27273C12.9091 5.36917 12.8708 5.46166 12.8026 5.52986C12.7344 5.59805 12.6419 5.63636 12.5455 5.63636V5.63636ZM17.2727 16.5455C17.2727 16.7383 17.1961 16.9233 17.0597 17.0597C16.9233 17.1961 16.7383 17.2727 16.5455 17.2727C16.3526 17.2727 16.1676 17.1961 16.0312 17.0597C15.8948 16.9233 15.8182 16.7383 15.8182 16.5455V5.63636H17.0909C17.1391 5.63636 17.1854 5.65552 17.2195 5.68962C17.2536 5.72371 17.2727 5.76996 17.2727 5.81818V16.5455Z" fill="white"/>
</svg>
