<svg width="18" height="10" viewBox="0 0 18 10" fill="none" xmlns="http://www.w3.org/2000/svg">
<path d="M0 5C0 2.23858 2.23858 0 5 0H13C15.7614 0 18 2.23858 18 5C18 7.76142 15.7614 10 13 10H5C2.23858 10 0 7.76142 0 5Z" fill="#F53E33"/>
<path d="M0 4.54688H6V10.0014H0V4.54688Z" fill="#F53E33"/>
<path d="M6.78809 2.73438V7H6.21973L4.07227 3.70996V7H3.50684V2.73438H4.07227L6.22852 6.0332V2.73438H6.78809ZM9.02344 7.05859C8.80273 7.05859 8.60254 7.02148 8.42285 6.94727C8.24512 6.87109 8.0918 6.76465 7.96289 6.62793C7.83594 6.49121 7.73828 6.3291 7.66992 6.1416C7.60156 5.9541 7.56738 5.74902 7.56738 5.52637V5.40332C7.56738 5.14551 7.60547 4.91602 7.68164 4.71484C7.75781 4.51172 7.86133 4.33984 7.99219 4.19922C8.12305 4.05859 8.27148 3.95215 8.4375 3.87988C8.60352 3.80762 8.77539 3.77148 8.95312 3.77148C9.17969 3.77148 9.375 3.81055 9.53906 3.88867C9.70508 3.9668 9.84082 4.07617 9.94629 4.2168C10.0518 4.35547 10.1299 4.51953 10.1807 4.70898C10.2314 4.89648 10.2568 5.10156 10.2568 5.32422V5.56738H7.88965V5.125H9.71484V5.08398C9.70703 4.94336 9.67773 4.80664 9.62695 4.67383C9.57812 4.54102 9.5 4.43164 9.39258 4.3457C9.28516 4.25977 9.13867 4.2168 8.95312 4.2168C8.83008 4.2168 8.7168 4.24316 8.61328 4.2959C8.50977 4.34668 8.4209 4.42285 8.34668 4.52441C8.27246 4.62598 8.21484 4.75 8.17383 4.89648C8.13281 5.04297 8.1123 5.21191 8.1123 5.40332V5.52637C8.1123 5.67676 8.13281 5.81836 8.17383 5.95117C8.2168 6.08203 8.27832 6.19727 8.3584 6.29688C8.44043 6.39648 8.53906 6.47461 8.6543 6.53125C8.77148 6.58789 8.9043 6.61621 9.05273 6.61621C9.24414 6.61621 9.40625 6.57715 9.53906 6.49902C9.67188 6.4209 9.78809 6.31641 9.8877 6.18555L10.2158 6.44629C10.1475 6.5498 10.0605 6.64844 9.95508 6.74219C9.84961 6.83594 9.71973 6.91211 9.56543 6.9707C9.41309 7.0293 9.23242 7.05859 9.02344 7.05859ZM11.6924 6.4375L12.5068 3.83008H12.8643L12.7939 4.34863L11.9648 7H11.6162L11.6924 6.4375ZM11.1445 3.83008L11.8389 6.4668L11.8887 7H11.5225L10.6025 3.83008H11.1445ZM13.6436 6.44629L14.3057 3.83008H14.8447L13.9248 7H13.5615L13.6436 6.44629ZM12.9434 3.83008L13.7402 6.39355L13.8311 7H13.4854L12.6328 4.34277L12.5625 3.83008H12.9434Z" fill="white"/>
</svg>
