<svg width="20" height="21" viewBox="0 0 20 21" fill="none" xmlns="http://www.w3.org/2000/svg">
<g id="&#230;&#156;&#170;&#231;&#130;&#185;&#229;&#135;&#187;-github">
<path id="Ellipse 575" d="M20 10C20 15.5228 15.5228 20.5 10 20.5C4.47715 20.5 0 15.5228 0 10C0 4.47715 4.47715 0 10 0C15.5228 0 20 4.47715 20 10Z" fill="white"/>
<path id="&#232;&#183;&#175;&#229;&#190;&#132;" d="M9.99938 0C4.4775 0 0 4.59015 0 10.253C0 14.7836 2.865 18.6259 6.83875 19.9819C7.33875 20.0761 7.52125 19.7595 7.52125 19.4878C7.52125 19.2443 7.51313 18.5996 7.50813 17.7442C4.72688 18.3632 4.13937 16.3696 4.13937 16.3696C3.68437 15.1847 3.02875 14.8701 3.02875 14.8701C2.12125 14.2338 3.0975 14.2466 3.0975 14.2466C4.10125 14.319 4.62937 15.3033 4.62937 15.3033C5.52125 16.8701 6.97 16.417 7.54 16.1549C7.63063 15.493 7.88938 15.0406 8.17438 14.7849C5.95438 14.526 3.61937 13.6461 3.61937 9.71731C3.61937 8.59781 4.00938 7.68208 4.64875 6.96565C4.54563 6.70676 4.2025 5.66352 4.7475 4.25244C4.7475 4.25244 5.58625 3.97689 7.49688 5.30338C8.31272 5.07546 9.15441 4.95932 10 4.95798C10.85 4.96247 11.705 5.07589 12.5037 5.30402C14.4131 3.97689 15.2506 4.25244 15.2506 4.25244C15.7969 5.66352 15.4538 6.70676 15.3506 6.96565C15.9919 7.68208 16.3788 8.59781 16.3788 9.71731C16.3788 13.6558 14.0406 14.5228 11.8131 14.7765C12.1719 15.0931 12.4913 15.7185 12.4913 16.6746C12.4913 18.046 12.4788 19.1514 12.4788 19.4878C12.4788 19.7621 12.66 20.0812 13.1663 19.9812C17.1375 18.6221 20 14.7823 20 10.253C20 4.58951 15.5225 0 9.99938 0" fill="#182359"/>
</g>
</svg>
