<svg width="20" height="20" viewBox="0 0 20 20" fill="none" xmlns="http://www.w3.org/2000/svg">
<g id="&#230;&#142;&#168;&#231;&#137;&#185;">
<circle id="&#230;&#164;&#173;&#229;&#156;&#134;&#229;&#189;&#162;" cx="10" cy="10" r="10" fill="#5DD7FC"/>
<g id="14">
<path id="&#232;&#183;&#175;&#229;&#190;&#132;" d="M6.58258 7.136C8.47331 8.09552 10.0699 8.03889 10.0699 8.03889C10.0699 8.03889 9.46429 5.9185 11.3361 4.97786C13.208 4.03721 14.4963 5.62278 14.4963 5.62278C14.4963 5.62278 14.8235 5.53312 15.0657 5.44346C15.3095 5.3538 15.6603 5.19336 15.6603 5.19336L15.083 6.22838L15.9717 6.134C15.9717 6.134 15.8616 6.29445 15.5061 6.62163C15.1506 6.94881 15.0043 7.11869 15.0043 7.11869C15.0043 7.11869 15.1318 9.67165 13.7931 11.6363C12.4545 13.601 10.7258 14.7807 8.21376 15.0292C5.7017 15.2778 4.0658 14.2553 4.0658 14.2553C4.0658 14.2553 5.16374 14.1924 5.86372 13.9234C6.5637 13.6545 7.57041 12.9466 7.57041 12.9466C7.57041 12.9466 6.13899 12.5046 5.62463 12.006C5.11026 11.5089 4.98285 11.2132 4.98285 11.2132L6.39539 11.1943C6.39539 11.1943 4.90892 10.4015 4.48736 9.77389C4.0658 9.14627 4.01074 8.5391 4.01074 8.5391L5.09768 8.97954C5.09768 8.97954 4.19478 7.74631 4.0658 6.78679C3.93681 5.82727 4.23096 5.31133 4.23096 5.31133C4.23096 5.31133 4.69185 6.17647 6.58258 7.136Z" fill="white"/>
</g>
</g>
</svg>
