<svg width="20" height="20" viewBox="0 0 20 20" fill="none" xmlns="http://www.w3.org/2000/svg">
<path d="M16.3818 10.7065C16.6027 10.7065 16.7831 10.8857 16.7694 11.1062C16.6989 12.2348 16.3312 13.3273 15.7004 14.2714C14.9953 15.3266 13.9932 16.149 12.8207 16.6347C11.6482 17.1203 10.358 17.2474 9.11332 16.9998C7.86861 16.7522 6.72527 16.1411 5.82788 15.2437C4.93049 14.3463 4.31936 13.203 4.07178 11.9583C3.82419 10.7136 3.95126 9.4234 4.43692 8.25091C4.92258 7.07842 5.74502 6.07627 6.80024 5.3712C7.74434 4.74037 8.83685 4.37269 9.96539 4.30226C10.1859 4.2885 10.3651 4.46888 10.3651 4.68979V10.3065C10.3651 10.5274 10.5442 10.7065 10.7651 10.7065H16.3818Z" fill="#C8B9F2" fill-opacity="0.3"/>
<path d="M15.4333 10.5832C15.6542 10.5832 15.8346 10.7624 15.8209 10.9829C15.7504 12.1115 15.3828 13.204 14.7519 14.1481C14.0469 15.2033 13.0447 16.0257 11.8722 16.5114C10.6997 16.9971 9.40955 17.1241 8.16484 16.8765C6.92013 16.629 5.77679 16.0178 4.8794 15.1204C3.98201 14.2231 3.37088 13.0797 3.12329 11.835C2.87571 10.5903 3.00278 9.30011 3.48844 8.12762C3.9741 6.95513 4.79654 5.95298 5.85176 5.24791C6.79586 4.61708 7.88837 4.2494 9.01691 4.17897C9.23739 4.1652 9.41667 4.34559 9.41667 4.5665V10.1832C9.41667 10.4041 9.59575 10.5832 9.81667 10.5832H15.4333Z" fill="#5334AB"/>
<path d="M10 3.4C10 3.17909 10.1792 2.99881 10.3998 3.01143C11.1824 3.05619 11.9528 3.23215 12.6788 3.53284C13.5281 3.88463 14.2997 4.40024 14.9497 5.05025C15.5998 5.70026 16.1154 6.47194 16.4672 7.32122C16.7678 8.04715 16.9438 8.81764 16.9886 9.60021C17.0012 9.82076 16.8209 10 16.6 10L10.4 10C10.1791 10 10 9.82091 10 9.6V3.4Z" fill="#C8B9F2"/>
</svg>
