<svg width="20" height="20" viewBox="0 0 20 20" fill="none" xmlns="http://www.w3.org/2000/svg">
<g clip-path="url(#clip0_25099_34684)">
<path d="M8.72104 10.1073C10.5467 10.1073 11.9791 8.73952 11.9791 6.94258C11.9791 5.19929 10.4905 3.77783 8.72104 3.77783C6.89543 3.77783 5.40684 5.22611 5.40684 6.94258C5.40684 8.73952 6.89543 10.1073 8.72104 10.1073ZM11.951 11.4483C11.3331 11.0192 10.5186 10.8315 9.76024 10.8315H7.85036C7.09203 10.8315 6.27752 11.0192 5.65962 11.4215C4.53617 12.1456 3.77783 13.3794 3.77783 14.774V15.0154C3.77783 16.1955 5.57536 16.2223 7.87845 16.2223H9.78833C12.0914 16.2223 13.8889 16.2223 13.8889 15.0154V14.774C13.8889 13.3794 13.1025 12.1456 11.951 11.4483Z" fill="#5334AB"/>
<path d="M14.5853 10.7682C14.2529 10.569 13.6788 10.1991 13.1651 10.1422C14.0112 9.74382 14.676 8.94707 14.676 7.92268C14.676 6.52837 13.6183 5.33325 12.1981 5.33325C12.1981 5.33325 12.2887 5.33325 12.1981 5.33325C12.742 5.8739 12.8931 6.75602 12.7722 7.52431C12.5909 8.77634 11.8052 9.71537 10.7778 10.1991C11.4124 10.256 12.1074 10.6828 12.6211 11.0243C13.7694 11.7072 14.5249 12.9308 14.5249 14.2967V14.6666C15.5523 14.6097 16.2171 14.382 16.2171 13.756V13.5568C16.3077 12.5324 15.1897 11.1097 14.5853 10.7682Z" fill="#C8B9F2"/>
</g>
<defs>
<clipPath id="clip0_25099_34684">
<rect width="14" height="14" fill="white" transform="translate(3 3)"/>
</clipPath>
</defs>
</svg>
