<svg width="18" height="18" viewBox="0 0 18 18" fill="none" xmlns="http://www.w3.org/2000/svg">
<g clip-path="url(#clip0_16197_36980)">
<path d="M10.2943 11.6078H10.1529C9.82633 11.5051 9.47614 11.5051 9.14961 11.6078C9.10314 11.5963 9.05459 11.5963 9.00812 11.6078V9.60128C9.00812 9.43072 8.94037 9.26714 8.81976 9.14653C8.69915 9.02593 8.53558 8.95817 8.36501 8.95817H6.31992C6.47471 8.5434 6.47471 8.08672 6.31992 7.67195C6.19067 7.29361 5.94634 6.96516 5.62114 6.7326C5.29594 6.50004 4.90614 6.375 4.50634 6.375C4.10654 6.375 3.71674 6.50004 3.39154 6.7326C3.06633 6.96516 2.82201 7.29361 2.69276 7.67195C2.53797 8.08672 2.53797 8.5434 2.69276 8.95817H0.711979C0.524359 8.95817 0.344423 9.0327 0.211755 9.16537C0.0790876 9.29804 0.0045557 9.47797 0.0045557 9.66559V11.6078C0.209995 11.53 0.428006 11.4908 0.647668 11.492C0.904312 11.492 1.15839 11.5431 1.39502 11.6425C1.63164 11.7419 1.84607 11.8874 2.02574 12.0707C2.20541 12.254 2.34671 12.4712 2.44137 12.7098C2.53602 12.9483 2.58214 13.2034 2.577 13.46C2.58045 13.7459 2.51423 14.0285 2.38407 14.2831C2.23116 14.6146 1.98617 14.8951 1.67831 15.0912C1.37045 15.2873 1.01269 15.3908 0.647668 15.3893C0.428006 15.3905 0.209995 15.3513 0.0045557 15.2735V17.3186C-0.00151857 17.3396 -0.00151857 17.3619 0.0045557 17.3829C0.0136809 17.53 0.076236 17.6688 0.180457 17.773C0.284679 17.8772 0.423386 17.9397 0.570494 17.9489H8.36501C8.53558 17.9489 8.69915 17.8811 8.81976 17.7605C8.94037 17.6399 9.00812 17.4763 9.00812 17.3058V15.2735C9.42289 15.4283 9.87958 15.4283 10.2943 15.2735C10.687 15.1536 11.0307 14.9108 11.2749 14.5808C11.5191 14.2508 11.6509 13.8512 11.6509 13.4407C11.6509 13.0301 11.5191 12.6305 11.2749 12.3005C11.0307 11.9705 10.687 11.7277 10.2943 11.6078Z" fill="#C3C3C3"/>
<path d="M16.0822 5.17615C15.8631 5.18109 15.6462 5.22015 15.4391 5.29191V3.24681C15.4391 3.07625 15.3714 2.91267 15.2508 2.79206C15.1301 2.67145 14.9666 2.6037 14.796 2.6037H12.7509C12.8287 2.39826 12.8679 2.18025 12.8667 1.96059C12.8667 1.44889 12.6634 0.95816 12.3016 0.596339C11.9398 0.234519 11.449 0.03125 10.9373 0.03125C10.4256 0.03125 9.9349 0.234519 9.57308 0.596339C9.21126 0.95816 9.00799 1.44889 9.00799 1.96059C9.01294 2.17967 9.052 2.39664 9.12375 2.6037H7.14297C6.95535 2.6037 6.77541 2.67823 6.64275 2.8109C6.51008 2.94357 6.43555 3.1235 6.43555 3.31112V5.29191C6.64099 5.21414 6.859 5.1749 7.07866 5.17615C7.59035 5.17615 8.08108 5.37941 8.4429 5.74124C8.80473 6.10306 9.00799 6.59379 9.00799 7.10548C9.01052 7.29788 8.98007 7.4893 8.91796 7.67142H9.56107C9.65783 7.66968 9.75395 7.68745 9.84368 7.72368C9.93342 7.7599 10.0149 7.81384 10.0834 7.88227C10.1518 7.9507 10.2057 8.03222 10.242 8.12195C10.2782 8.21169 10.296 8.30781 10.2942 8.40457V10.977C10.7209 11.0826 11.1116 11.3002 11.4261 11.6073H14.796C14.9666 11.6073 15.1301 11.5395 15.2508 11.4189C15.3714 11.2983 15.4391 11.1347 15.4391 10.9642V8.91906C15.6462 8.99082 15.8631 9.02987 16.0822 9.03482C16.5939 9.03477 17.0846 8.83148 17.4464 8.46966C17.8081 8.10785 18.0114 7.61714 18.0114 7.10548C18.0114 6.59382 17.8081 6.10312 17.4464 5.7413C17.0846 5.37949 16.5939 5.17619 16.0822 5.17615Z" fill="#C3C3C3"/>
</g>
<defs>
<clipPath id="clip0_16197_36980">
<rect width="18" height="18" fill="white"/>
</clipPath>
</defs>
</svg>
