<svg width="20" height="20" viewBox="0 0 20 20" fill="none" xmlns="http://www.w3.org/2000/svg">
<path d="M9.98997 14.781C9.94365 14.3887 10.0318 14.2466 10.0801 14.1483C10.1838 13.9376 10.5293 13.722 10.5489 13.7117C10.5686 13.7014 10.5993 13.6787 10.6194 13.6704C10.9267 13.5327 11.2794 13.4789 11.6265 13.5168C12.0656 13.5618 12.5057 13.5994 12.9448 13.6407C13.3739 13.682 13.8009 13.7233 14.2314 13.7646C14.6619 13.8059 15.095 13.8447 15.5265 13.8856C15.6605 13.898 15.7969 13.905 15.9183 13.9608C16.1489 14.0661 16.2824 14.2247 16.294 14.4436C16.3005 14.5737 16.298 14.7038 16.294 14.8343C16.294 14.8756 16.3045 14.8934 16.3609 14.8983C16.5385 14.912 16.7032 14.9804 16.8218 15.0897C16.9404 15.199 17.004 15.3411 16.9999 15.4873C16.9939 15.6112 16.9999 15.7393 16.9999 15.8653C16.9954 16.0049 16.9285 16.1384 16.8121 16.2404C16.6956 16.3424 16.5376 16.4058 16.368 16.4187C16.3136 16.4224 16.2587 16.4224 16.2043 16.4224C14.5537 16.4224 12.903 16.4224 11.2524 16.4224C11.1763 16.4224 11.133 16.4315 11.1048 16.5005C11.0372 16.6519 10.9126 16.7818 10.749 16.8714C10.5854 16.9609 10.3914 17.0055 10.1949 16.9986C10.0605 16.9941 9.92602 16.9961 9.79208 16.9986C9.59608 17.002 9.40377 16.9547 9.24236 16.8634C9.08095 16.7722 8.95863 16.6416 8.89273 16.4902C8.88736 16.4679 8.87152 16.4482 8.84864 16.4354C8.82575 16.4225 8.79765 16.4176 8.77037 16.4216C7.10092 16.4216 5.43198 16.4216 3.76354 16.4216C3.58679 16.4216 3.42213 16.3956 3.28063 16.3039C3.19534 16.2529 3.12569 16.1862 3.07719 16.1093C3.02869 16.0324 3.00266 15.9473 3.00116 15.8607C3.00116 15.7368 3.00519 15.6088 3.00116 15.4832C2.99717 15.3388 3.05926 15.1983 3.1752 15.0895C3.29113 14.9808 3.45252 14.9115 3.62758 14.8955C3.69505 14.8893 3.70664 14.8686 3.70512 14.8199C3.7016 14.7026 3.7021 14.5853 3.70512 14.468C3.70219 14.3255 3.76527 14.1874 3.88164 14.0816C3.998 13.9758 4.15897 13.9102 4.33205 13.898C4.88243 13.8443 5.43282 13.7947 5.9832 13.7423C6.49481 13.6935 7.00642 13.6423 7.51753 13.5932C7.83577 13.5626 8.15351 13.5304 8.47428 13.506C8.79504 13.4817 9.10875 13.5246 9.33032 13.6531L9.49901 13.7567C9.85149 14.0074 9.94818 14.2681 9.98192 14.6501L9.98997 14.781Z" fill="#5334AB"/>
<path d="M6.58652 14.8923C5.81105 14.8923 5.03557 14.8923 4.2601 14.8923C4.18709 14.8923 4.16694 14.8762 4.16997 14.8172C4.1755 14.7044 4.16997 14.5912 4.16997 14.4781C4.16997 14.3649 4.24298 14.2934 4.38196 14.2794C4.68409 14.2488 4.99126 14.2216 5.29591 14.1922C5.72494 14.1509 6.15195 14.1096 6.58199 14.0683C6.93044 14.0349 7.27941 14.0031 7.62837 13.9705C7.89928 13.9453 8.1717 13.9246 8.44161 13.8932C8.72627 13.8625 9.01477 13.9187 9.25226 14.051C9.48975 14.1834 9.65966 14.3827 9.7297 14.6111C9.78005 14.7841 9.76192 14.9592 9.76444 15.1335C9.76444 15.1856 9.72819 15.1604 9.70452 15.1447C9.5714 15.056 9.41874 14.9891 9.25485 14.9477C9.10575 14.9095 8.9503 14.8905 8.79409 14.8915L6.58652 14.8923Z" fill="#F4F4F4"/>
<path d="M15.827 14.4434C15.8248 14.4067 15.8079 14.3717 15.7791 14.3435C15.7503 14.3154 15.7111 14.2958 15.6674 14.2877C15.5189 14.2683 15.3688 14.2575 15.2193 14.2431C15.1472 14.2348 15.0752 14.2257 15.0032 14.2187C14.6467 14.1857 14.2902 14.1534 13.9337 14.12C13.4976 14.0787 13.0615 14.0374 12.6244 13.9961C12.272 13.9626 11.9164 13.9316 11.563 13.897C11.373 13.8745 11.1793 13.891 10.9991 13.9452C10.8189 13.9993 10.6579 14.0893 10.5307 14.2071C10.2255 14.4744 10.219 14.8073 10.2356 15.1439C10.2356 15.1757 10.2598 15.1712 10.2829 15.1567C10.3162 15.136 10.3484 15.1154 10.3836 15.0952C10.5392 15.0102 10.7119 14.9485 10.8937 14.913C11.0206 14.9085 11.1455 14.8948 11.2744 14.8948C12.5988 14.8948 13.9233 14.8948 15.248 14.8948C15.4197 14.8948 15.5914 14.8948 15.7631 14.8948C15.7968 14.8948 15.8331 14.9002 15.8326 14.8535C15.8296 14.7164 15.8326 14.5801 15.827 14.4434Z" fill="#F4F4F4"/>
<path d="M16.5354 15.5148C16.5459 15.3665 16.4382 15.274 16.2448 15.274C14.5478 15.274 12.8507 15.274 11.1534 15.274C11.1016 15.27 11.0495 15.2773 11.0023 15.2951C10.8982 15.302 10.7979 15.3304 10.7108 15.3777C10.572 15.4399 10.4554 15.5306 10.3723 15.641C10.2892 15.7513 10.2426 15.8775 10.2369 16.0071C10.2319 16.072 10.2248 16.1364 10.1599 16.1818C10.129 16.2067 10.09 16.2236 10.0476 16.2305C10.0052 16.2374 9.96126 16.234 9.92118 16.2207C9.8767 16.2079 9.8382 16.184 9.81111 16.1524C9.78402 16.1208 9.76968 16.083 9.77012 16.0443C9.76858 15.9352 9.73961 15.8275 9.68502 15.7279C9.50223 15.4198 9.19304 15.2765 8.78265 15.2761C7.11152 15.2761 5.44023 15.2761 3.76877 15.2761C3.74545 15.275 3.72209 15.275 3.69877 15.2761C3.63555 15.278 3.57584 15.3005 3.53278 15.3385C3.48973 15.3765 3.46684 15.427 3.46915 15.4789C3.46915 15.6028 3.46915 15.7308 3.46915 15.8568C3.46988 15.9042 3.49274 15.9495 3.53303 15.9835C3.57332 16.0175 3.62795 16.0375 3.68568 16.0394C3.72949 16.0418 3.7738 16.0394 3.81812 16.0394H9.00472C9.20261 16.0394 9.27865 16.0947 9.3008 16.2533C9.32749 16.4445 9.46949 16.5796 9.69156 16.6102C9.81061 16.6214 9.93076 16.6225 10.0501 16.6135C10.1004 16.6135 10.1483 16.6135 10.1971 16.6135C10.5108 16.6135 10.7047 16.4511 10.7062 16.1901C10.7133 16.1075 10.7893 16.079 10.8633 16.0476C10.9278 16.0447 10.9927 16.0389 11.0572 16.0389H15.8666C16.0101 16.0389 16.1532 16.0389 16.2962 16.036C16.3281 16.0373 16.3601 16.0329 16.3899 16.0233C16.4196 16.0137 16.4466 15.9991 16.469 15.9803C16.4914 15.9615 16.5087 15.9391 16.5198 15.9145C16.5309 15.8898 16.5355 15.8636 16.5333 15.8374C16.5349 15.7304 16.5278 15.621 16.5354 15.5148Z" fill="#C8B9F2"/>
<path d="M14.8993 7.89504C14.9001 8.86798 14.6112 9.81912 14.0696 10.6273C13.5279 11.4354 12.7579 12.064 11.8577 12.4329C10.9575 12.8017 9.96794 12.8942 9.01502 12.6985C8.0621 12.5029 7.189 12.0279 6.50698 11.3341C5.82496 10.6403 5.3649 9.75918 5.18542 8.80294C5.00594 7.8467 5.11518 6.85867 5.4992 5.96475C5.88322 5.07083 6.52465 4.3115 7.34175 3.78351C8.15884 3.25551 9.11461 2.98277 10.0873 3.00004C11.3702 3.02402 12.5927 3.55001 13.4923 4.46515C14.3919 5.38029 14.8971 6.61166 14.8993 7.89504Z" fill="#5334AB"/>
<path d="M9.99936 7.6242C9.48949 7.6242 8.97962 7.6242 8.4721 7.6242C8.39515 7.6242 8.37576 7.60305 8.3787 7.52726C8.39425 6.99424 8.45557 6.46355 8.56197 5.94103C8.58194 5.84644 8.60544 5.75185 8.62071 5.65609C8.63128 5.58794 8.66359 5.57326 8.72586 5.58794C8.98751 5.64719 9.25347 5.6855 9.52121 5.7025C9.96937 5.73622 10.4198 5.72283 10.8652 5.66256C11.0062 5.64258 11.1472 5.62261 11.2864 5.58971C11.3363 5.57796 11.3669 5.58266 11.3815 5.64846C11.4627 5.99714 11.5237 6.35023 11.5642 6.70594C11.5954 6.98383 11.6177 7.26171 11.6271 7.54077C11.6271 7.6148 11.6059 7.63125 11.536 7.63125C11.0232 7.62302 10.5098 7.6242 9.99936 7.6242Z" fill="#C8B9F2"/>
<path d="M10.0035 8.17023C10.5134 8.17023 11.0232 8.17023 11.5308 8.17023C11.6083 8.17023 11.6271 8.19315 11.6242 8.26776C11.6086 8.80078 11.5473 9.33147 11.4409 9.85399C11.4197 9.95504 11.3951 10.0549 11.378 10.156C11.3686 10.2094 11.3428 10.2182 11.2958 10.2094C11.1437 10.1806 10.9921 10.1507 10.8382 10.1336C10.3839 10.0735 9.92443 10.0627 9.46779 10.1013C9.21691 10.1202 8.96752 10.1553 8.72119 10.2065C8.65305 10.2218 8.62603 10.2018 8.61076 10.1331C8.53388 9.79311 8.47505 9.44934 8.43453 9.10317C8.4034 8.82588 8.38049 8.54799 8.37109 8.26893C8.37109 8.18668 8.39224 8.16788 8.47154 8.16847C8.98376 8.17023 9.49363 8.17023 10.0035 8.17023Z" fill="#C8B9F2"/>
<path d="M6.74256 7.62421C6.41772 7.62421 6.09288 7.62068 5.76805 7.62421C5.67582 7.62421 5.65644 7.59777 5.66525 7.51082C5.73065 6.80575 5.96498 6.12683 6.34841 5.53156C6.49628 5.30572 6.66333 5.09304 6.84771 4.89589C6.90234 4.83714 6.93875 4.84243 6.99867 4.8859C7.30152 5.10919 7.63883 5.28144 7.99727 5.39584C8.07246 5.41993 8.10476 5.45459 8.0842 5.53861C7.95786 6.06687 7.87922 6.60541 7.84924 7.14775C7.8416 7.27759 7.83338 7.4086 7.83397 7.53843C7.83397 7.60717 7.81282 7.62656 7.74527 7.62597C7.41103 7.62245 7.0768 7.62421 6.74256 7.62421Z" fill="#C8B9F2"/>
<path d="M6.74596 8.16995C7.07667 8.16995 7.40738 8.16995 7.73809 8.16995C7.80741 8.16995 7.83149 8.1864 7.83267 8.25984C7.84457 8.93251 7.92746 9.60205 8.07997 10.2573C8.09348 10.3161 8.10111 10.3672 8.02122 10.3913C7.65061 10.506 7.30206 10.6826 6.99032 10.9135C6.93158 10.9576 6.89751 10.9523 6.84817 10.9C6.30061 10.3241 5.92184 9.60871 5.75324 8.83206C5.71094 8.64758 5.69038 8.4637 5.66512 8.2757C5.65455 8.19756 5.67159 8.16407 5.76263 8.16584C6.09041 8.16995 6.41583 8.16995 6.74596 8.16995Z" fill="#C8B9F2"/>
<path d="M9.9564 10.6196C10.3468 10.6185 10.7364 10.6527 11.1206 10.7218C11.1864 10.733 11.214 10.7495 11.1853 10.827C11.0302 11.2471 10.8498 11.6524 10.5332 11.9791C10.3764 12.1412 10.1943 12.2687 9.95111 12.2458C9.73964 12.2264 9.57987 12.1042 9.44241 11.955C9.13461 11.6207 8.95428 11.2153 8.80449 10.7941C8.7804 10.7283 8.83562 10.7312 8.8691 10.7254C9.01889 10.7001 9.16809 10.6713 9.31847 10.6572C9.53 10.6301 9.74315 10.6175 9.9564 10.6196Z" fill="#C8B9F2"/>
<path d="M9.98966 5.17055C9.61109 5.17413 9.23309 5.14009 8.86125 5.06891C8.81014 5.06068 8.78782 5.04659 8.80956 4.98549C8.94349 4.60655 9.10914 4.24524 9.36231 3.928C9.44341 3.82639 9.53924 3.73748 9.64662 3.66421C9.88158 3.50676 10.1066 3.50383 10.3415 3.65775C10.521 3.78322 10.6719 3.94518 10.7844 4.13303C10.9509 4.39685 11.0856 4.67944 11.1856 4.97491C11.2091 5.04071 11.1944 5.05951 11.131 5.07067C10.7548 5.14133 10.3725 5.17478 9.98966 5.17055Z" fill="#C8B9F2"/>
<path d="M14.2972 7.21294C14.2179 6.72827 14.0591 6.26001 13.8273 5.82704C13.6413 5.48286 13.4095 5.16547 13.1383 4.88352C13.1083 4.85239 13.0795 4.82889 13.0378 4.8612C12.955 4.91995 12.8698 4.9787 12.7852 5.03745C12.5361 5.18977 12.2699 5.31241 11.9922 5.40287C11.9082 5.42813 11.903 5.47337 11.9212 5.54387C11.9917 5.82175 12.0357 6.10551 12.0786 6.38927C12.0771 6.40117 12.0771 6.41321 12.0786 6.42511C12.1308 6.80352 12.1609 7.18468 12.1685 7.56661C12.1685 7.62536 12.199 7.62947 12.2437 7.62888C12.9203 7.62888 13.5972 7.62888 14.2743 7.62888C14.3266 7.62888 14.346 7.61067 14.3401 7.55956C14.3231 7.44206 14.316 7.32632 14.2972 7.21294ZM12.1138 6.58843C12.1138 6.56904 12.1097 6.54966 12.1085 6.52968C12.1138 6.54907 12.1138 6.56904 12.1138 6.58843Z" fill="#C8B9F2"/>
<path d="M14.2504 8.17022C14.0659 8.17434 13.8803 8.16552 13.6953 8.16494C13.2253 8.16494 12.7554 8.16494 12.2855 8.16494C12.2532 8.16494 12.2185 8.15377 12.1891 8.17786C12.1598 8.20195 12.1715 8.24542 12.1704 8.2795C12.1585 8.71834 12.1182 9.15595 12.0499 9.58961C12.0135 9.81638 11.9742 10.0426 11.9189 10.2658C11.9048 10.3246 11.906 10.368 11.9777 10.3904C12.2534 10.4803 12.5181 10.6007 12.7672 10.7493C12.8441 10.8016 12.9246 10.8498 12.9968 10.9085C13.0691 10.9673 13.1008 10.9596 13.1601 10.895C13.5942 10.432 13.9232 9.88069 14.1247 9.27882C14.2317 8.95032 14.3024 8.61107 14.3355 8.26716C14.3426 8.19784 14.3303 8.16552 14.2504 8.17022Z" fill="#C8B9F2"/>
<path d="M8.81797 3.73752C8.75218 3.84679 8.6858 3.95371 8.62295 4.0624C8.48021 4.30844 8.3646 4.56925 8.27814 4.84024C8.26052 4.89547 8.24172 4.91074 8.18122 4.89018C7.90909 4.79746 7.64899 4.67261 7.40642 4.5183C7.3424 4.47776 7.34357 4.4525 7.4029 4.40902C7.80035 4.11555 8.24382 3.89021 8.71517 3.74222C8.73106 3.7344 8.74839 3.72995 8.76608 3.72914C8.78377 3.72833 8.80143 3.73118 8.81797 3.73752Z" fill="#C8B9F2"/>
<path d="M8.8117 12.0722C8.6818 12.0481 8.55522 12.0087 8.43459 11.9547C8.06803 11.8124 7.72212 11.6217 7.40603 11.3878C7.33848 11.3379 7.34729 11.3167 7.41073 11.2762C7.64515 11.1261 7.89606 11.0035 8.15851 10.9108C8.23017 10.8849 8.26071 10.9014 8.28656 10.9795C8.40462 11.3389 8.57165 11.6803 8.78292 11.9941C8.79443 12.0118 8.80483 12.0303 8.81405 12.0493C8.8164 12.0534 8.81288 12.0605 8.8117 12.0722Z" fill="#C8B9F2"/>
<path d="M12.6215 11.2966C12.548 11.2433 12.4693 11.1977 12.3865 11.1603C12.207 11.0533 12.0156 10.9677 11.8162 10.9053C11.7745 10.8912 11.741 10.8871 11.7239 10.9412C11.6126 11.2809 11.4616 11.6063 11.274 11.9106C11.2282 11.9521 11.1942 12.005 11.1753 12.0639C11.1964 12.0809 11.2135 12.0721 11.2305 12.0674C11.4683 11.9981 11.6994 11.9078 11.9213 11.7978C12.1645 11.6766 12.3965 11.5341 12.6144 11.3718C12.6503 11.3471 12.6644 11.3207 12.6215 11.2966Z" fill="#C8B9F2"/>
<path d="M12.5873 4.4022C12.2935 4.18293 11.9727 4.00245 11.6327 3.86523C11.4873 3.80086 11.3358 3.75146 11.1804 3.71777C11.1889 3.77129 11.2162 3.82003 11.2574 3.85525C11.4287 4.1293 11.5718 4.42003 11.6844 4.72298C11.7555 4.91802 11.7561 4.91802 11.9505 4.84047C12.0218 4.80384 12.0961 4.77338 12.1726 4.74941L12.4075 4.62134C12.4705 4.59591 12.5298 4.56212 12.5837 4.52088C12.6666 4.47212 12.6648 4.45978 12.5873 4.4022Z" fill="#C8B9F2"/>
</svg>
