<svg width="18" height="18" viewBox="0 0 18 18" fill="none" xmlns="http://www.w3.org/2000/svg">
<path d="M7.35556 9.13793C9.70278 9.13793 11.5444 7.37931 11.5444 5.06897C11.5444 2.82759 9.63056 1 7.35556 1C5.00833 1 3.09444 2.86207 3.09444 5.06897C3.09444 7.37931 5.00833 9.13793 7.35556 9.13793ZM11.5083 10.8621C10.7139 10.3103 9.66667 10.069 8.69167 10.069H6.23611C5.26111 10.069 4.21389 10.3103 3.41944 10.8276C1.975 11.7586 1 13.3448 1 15.1379V15.4483C1 16.9655 3.31111 17 6.27222 17H8.72778C11.6889 17 14 17 14 15.4483V15.1379C14 13.3448 12.9889 11.7586 11.5083 10.8621Z" fill="#C3C3C3"/>
<path d="M14.8953 9.98781C14.468 9.73171 13.7298 9.2561 13.0693 9.18293C14.1571 8.67073 15.0119 7.64634 15.0119 6.32927C15.0119 4.53659 13.6521 3 11.826 3C11.826 3 11.9426 3 11.826 3C12.5254 3.69512 12.7196 4.82927 12.5642 5.81707C12.3311 7.42683 11.321 8.63415 10 9.2561C10.8159 9.32927 11.7095 9.87805 12.37 10.3171C13.8463 11.1951 14.8176 12.7683 14.8176 14.5244V15C16.1386 14.9268 16.9933 14.6341 16.9933 13.8293V13.5732C17.1099 12.2561 15.6724 10.4268 14.8953 9.98781Z" fill="#C3C3C3"/>
</svg>
