<svg width="20" height="20" viewBox="0 0 20 20" fill="none" xmlns="http://www.w3.org/2000/svg">
<path d="M12.2994 17.1976H4.25412C3.54424 17.1976 3 16.6297 3 15.9435V8.48973C3 7.80352 3.54424 7.25928 4.25412 7.25928H12.2994C12.9856 7.25928 13.5535 7.82718 13.5535 8.5134V15.9671C13.5062 16.6297 12.962 17.1976 12.2994 17.1976Z" fill="#C8B9F2"/>
<path d="M17.1975 6.21812V15.8725C17.1975 16.606 16.606 17.1739 15.8724 17.1739H6.69132C5.95778 17.1739 5.36621 16.5823 5.36621 15.8725V4.30144C5.36621 3.5679 5.95778 3 6.69132 3H13.9321" fill="#5334AB"/>
<path d="M15.0206 6.2891C14.429 6.2891 13.9321 5.79219 13.9321 5.20062V3L17.1976 6.2891H15.0206Z" fill="#C8B9F2"/>
<path d="M11.3529 14.8076H8.11116C7.75622 14.8076 7.47227 14.5237 7.47227 14.1688C7.47227 13.8138 7.75622 13.5299 8.11116 13.5299H11.3529C11.7079 13.5299 11.9918 13.8138 11.9918 14.1688C11.9918 14.5237 11.7079 14.8076 11.3529 14.8076ZM13.9322 14.8313H13.2696C12.9147 14.8313 12.6071 14.5474 12.6071 14.1688C12.6071 13.8138 12.891 13.5062 13.2696 13.5062H13.9322C14.2871 13.5062 14.5947 13.7902 14.5947 14.1688C14.5947 14.5237 14.2871 14.8313 13.9322 14.8313ZM10.0278 6.71504H8.0875C7.73256 6.71504 7.44861 6.43109 7.44861 6.07615C7.44861 5.72121 7.73256 5.43726 8.0875 5.43726H10.0278C10.3828 5.43726 10.6667 5.72121 10.6667 6.07615C10.6667 6.43109 10.3828 6.71504 10.0278 6.71504ZM13.7429 11.8971H8.13482C7.77988 11.8971 7.47227 11.5895 7.47227 11.2346V8.82101C7.47227 8.44241 7.77988 8.15846 8.13482 8.15846H13.7429C14.1215 8.15846 14.4054 8.44241 14.4054 8.82101V11.2346C14.4054 11.5895 14.0978 11.8971 13.7429 11.8971Z" fill="white"/>
</svg>
