<svg width="240" height="43" viewBox="0 0 240 43" fill="none" xmlns="http://www.w3.org/2000/svg">
<g clip-path="url(#clip0_429_5499)">
<path d="M4.32 25.8L0 21.5L21.6 0L25.92 4.3L4.32 25.8Z" fill="url(#paint0_linear_429_5499)"/>
<path d="M38.8803 25.8L17.2803 4.3L21.6003 0L43.2003 21.5L38.8803 25.8Z" fill="url(#paint1_linear_429_5499)"/>
<path d="M21.5996 42.9998L8.63965 30.0998L12.9596 25.7998L25.9196 38.6998L21.5996 42.9998Z" fill="url(#paint2_linear_429_5499)"/>
<path d="M12.9596 34.4002L8.63965 30.1002L21.5996 17.2002L25.9196 21.5002L12.9596 34.4002Z" fill="url(#paint3_linear_429_5499)"/>
<path d="M21.6003 43.0002L17.2803 38.7002L38.8803 17.2002L43.2003 21.5002L21.6003 43.0002Z" fill="url(#paint4_linear_429_5499)"/>
<path d="M61.5899 30.4285H56.6499V15.0998H50.8799V11.2676H67.3499V15.0998H61.5799V30.4285H61.5899Z" fill="white"/>
<path d="M83.1198 26.318C83.1198 27.6916 82.7298 28.7567 81.9498 29.5331C81.1698 30.3095 80.0998 30.6976 78.7198 30.6976H72.4098C71.0398 30.6976 69.9598 30.3095 69.1798 29.5331C68.3998 28.7567 68.0098 27.6817 68.0098 26.318V20.0173C68.0098 18.6437 68.3998 17.5787 69.1798 16.8023C69.9598 16.0259 71.0298 15.6377 72.4098 15.6377H78.7198C80.0898 15.6377 81.1698 16.0259 81.9498 16.8023C82.7298 17.5787 83.1198 18.6537 83.1198 20.0173V26.318ZM78.3198 20.4354C78.3198 19.7088 77.9498 19.3405 77.2198 19.3405H73.9298C73.1998 19.3405 72.8298 19.7088 72.8298 20.4354V25.9099C72.8298 26.6365 73.1998 27.0048 73.9298 27.0048H77.2198C77.9498 27.0048 78.3198 26.6365 78.3198 25.9099V20.4354Z" fill="white"/>
<path d="M91.0695 24.6754V30.4286H86.2695V11.2578H91.0695V20.9726H93.2695L96.2895 15.9062H101.37L97.2495 22.8937L101.37 30.4187H96.2895L93.1295 24.6655H91.0695V24.6754Z" fill="white"/>
<path d="M116.59 30.1502C113.06 30.5185 109.85 30.6976 106.98 30.6976C105.74 30.6976 104.74 30.3194 103.99 29.5729C103.24 28.8264 102.86 27.831 102.86 26.5868V20.0173C102.86 18.6437 103.25 17.5787 104.03 16.8023C104.81 16.0259 105.88 15.6377 107.26 15.6377H112.75C114.12 15.6377 115.2 16.0259 115.98 16.8023C116.76 17.5787 117.15 18.6537 117.15 20.0173V25.0838H107.68V26.1787C107.68 26.4474 107.77 26.6764 107.95 26.8655C108.13 27.0446 108.36 27.1342 108.64 27.1342C110.45 27.1342 113.11 26.9949 116.6 26.7261V30.1502H116.59ZM108.76 19.0618C108.03 19.0618 107.66 19.4301 107.66 20.1567V21.6597H112.33V20.1567C112.33 19.4301 111.96 19.0618 111.23 19.0618H108.76Z" fill="white"/>
<path d="M128.37 19.609C127.4 19.609 126.3 19.7882 125.08 20.1565V30.4188H120.28V15.9162H124.54L124.81 17.2898C125.67 16.7225 126.55 16.3044 127.46 16.0456C128.37 15.7769 129.13 15.6475 129.75 15.6475H130.99C132.23 15.6475 133.23 16.0257 133.98 16.7722C134.73 17.5188 135.11 18.5141 135.11 19.7583V30.4387H130.31V20.5845C130.31 20.3058 130.22 20.0868 130.04 19.8977C129.86 19.7185 129.63 19.619 129.35 19.619H128.37V19.609Z" fill="white"/>
<path d="M147.58 30.4285H137.7V26.5963H140.17V15.0998H137.7V11.2676H147.58V15.0998H145.11V26.5963H147.58V30.4285Z" fill="white"/>
<path d="M158.54 19.609C157.57 19.609 156.47 19.7882 155.25 20.1565V30.4188H150.45V15.9162H154.71L154.98 17.2898C155.84 16.7225 156.72 16.3044 157.63 16.0456C158.54 15.7769 159.3 15.6475 159.92 15.6475H161.16C162.4 15.6475 163.4 16.0257 164.15 16.7722C164.9 17.5188 165.28 18.5141 165.28 19.7583V30.4387H160.48V20.5845C160.48 20.3058 160.39 20.0868 160.21 19.8977C160.03 19.7185 159.8 19.619 159.52 19.619H158.54V19.609Z" fill="white"/>
<path d="M167.86 26.5963C171.58 26.875 174.5 27.0044 176.65 27.0044C176.92 27.0044 177.15 26.9149 177.34 26.7357C177.52 26.5565 177.61 26.3276 177.61 26.0489V25.0933H171.71C170.46 25.0933 169.47 24.7151 168.72 23.9686C167.97 23.222 167.59 22.2267 167.59 20.9825V20.0269C167.59 18.7827 167.96 17.7873 168.72 17.0408C169.47 16.2943 170.47 15.916 171.71 15.916H181.04V19.4794H173.35C173.08 19.4794 172.85 19.569 172.66 19.7482C172.48 19.9274 172.39 20.1563 172.39 20.435C172.39 20.7137 172.48 20.9327 172.66 21.1218C172.84 21.301 173.07 21.4005 173.35 21.4005H178.29C179.53 21.4005 180.53 21.7787 181.28 22.5253C182.03 23.2718 182.41 24.2672 182.41 25.5114V26.6063C182.41 27.8505 182.03 28.8459 181.28 29.5924C180.53 30.3389 179.53 30.7172 178.29 30.7172C175.05 30.7172 171.57 30.538 167.86 30.1697V26.5963Z" fill="white"/>
<path d="M190.77 16.4638V30.4288H185.97V20.1566H183.91V16.4638H190.77ZM185.96 10.9893H190.76V14.8214H185.96V10.9893Z" fill="white"/>
<path d="M203.66 29.3336C201.88 29.7019 200.33 29.8811 198.99 29.8811H198.03C196.79 29.8811 195.79 29.5028 195.04 28.7563C194.29 28.0098 193.91 27.0144 193.91 25.7702V20.2956C193.91 18.922 194.3 17.857 195.08 17.0806C195.86 16.3042 196.93 15.916 198.31 15.916H208.47V31.2447C208.47 32.4889 208.09 33.4843 207.34 34.2308C206.59 34.9774 205.59 35.3556 204.35 35.3556C201.48 35.3556 198.27 35.1764 194.74 34.8081V31.2447C198.24 31.5234 200.89 31.6528 202.7 31.6528C202.97 31.6528 203.2 31.5632 203.39 31.3741C203.57 31.195 203.66 30.966 203.66 30.6873V29.3336ZM200.36 26.1882C201.51 26.1882 202.61 26.0987 203.65 25.9095V19.6088H199.81C199.08 19.6088 198.71 19.9771 198.71 20.7037V25.2227C198.71 25.5014 198.8 25.7204 198.98 25.9095C199.16 26.0887 199.39 26.1882 199.67 26.1882H200.36Z" fill="white"/>
<path d="M216.68 16.1948C218.46 15.8266 220.01 15.6474 221.35 15.6474H222.59C223.83 15.6474 224.83 16.0256 225.58 16.7722C226.33 17.5187 226.71 18.5141 226.71 19.7583V30.4386H221.91V20.2958C221.91 20.027 221.82 19.7981 221.64 19.609C221.46 19.4298 221.23 19.3402 220.95 19.3402H219.99C219.29 19.3402 218.66 19.38 218.08 19.4497C217.5 19.5194 217.04 19.5791 216.69 19.6189V30.4286H211.89V11.2578H216.69V16.1948H216.68Z" fill="white"/>
<path d="M240 30.4291C238.22 30.6082 236.49 30.6978 234.78 30.6978C233.54 30.6978 232.54 30.3196 231.79 29.573C231.04 28.8265 230.66 27.8311 230.66 26.5869V19.6094H229.01V15.9166H230.66L231.21 12.6318H235.47V15.9166H238.9V19.6094H235.47V25.9101C235.47 26.1888 235.56 26.4078 235.74 26.5969C235.92 26.776 236.15 26.8756 236.43 26.8756H240V30.4291Z" fill="white"/>
</g>
<defs>
<linearGradient id="paint0_linear_429_5499" x1="2.16" y1="23.65" x2="23.6598" y2="2.05023" gradientUnits="userSpaceOnUse">
<stop stop-color="white"/>
<stop offset="1" stop-color="white" stop-opacity="0"/>
</linearGradient>
<linearGradient id="paint1_linear_429_5499" x1="17.2803" y1="12.9" x2="43.2003" y2="12.9" gradientUnits="userSpaceOnUse">
<stop stop-color="white"/>
<stop offset="1" stop-color="white" stop-opacity="0"/>
</linearGradient>
<linearGradient id="paint2_linear_429_5499" x1="17.2796" y1="42.9998" x2="17.2796" y2="25.7998" gradientUnits="userSpaceOnUse">
<stop stop-color="white"/>
<stop offset="1" stop-color="white" stop-opacity="0"/>
</linearGradient>
<linearGradient id="paint3_linear_429_5499" x1="17.2796" y1="34.4002" x2="17.2796" y2="17.2002" gradientUnits="userSpaceOnUse">
<stop stop-color="white"/>
<stop offset="1" stop-color="white" stop-opacity="0.46"/>
</linearGradient>
<linearGradient id="paint4_linear_429_5499" x1="30.2403" y1="17.2002" x2="30.2403" y2="43.0002" gradientUnits="userSpaceOnUse">
<stop stop-color="white"/>
<stop offset="1" stop-color="white" stop-opacity="0"/>
</linearGradient>
<clipPath id="clip0_429_5499">
<rect width="240" height="43" fill="white"/>
</clipPath>
</defs>
</svg>
