<svg width="18" height="18" viewBox="0 0 18 18" fill="none" xmlns="http://www.w3.org/2000/svg">
<path d="M13.4521 10.7149H13.42C13.42 7.26444 10.6936 4.45277 7.28344 4.39782H7.24213C3.7998 4.38637 1.00921 7.20033 1.00004 10.6829C0.988561 14.1654 3.76767 16.9885 7.21 17C10.6523 17.0114 13.4406 14.1975 13.4521 10.7149ZM9.53014 8.15969C9.48194 8.2673 9.42457 8.37262 9.36031 8.47337L8.12337 10.5111H8.66726C9.07116 10.5111 9.27311 10.6417 9.27311 10.905C9.27311 11.1728 9.07116 11.3079 8.66726 11.3079H7.69652V11.9261H8.66726C9.07116 11.9261 9.27311 12.0612 9.27311 12.3291C9.27311 12.5924 9.07116 12.7229 8.66726 12.7229H7.69652V13.0664C7.69652 13.6479 7.50145 13.9364 7.11591 13.9364C6.72349 13.9364 6.52613 13.6457 6.52613 13.0664V12.7229H5.55998C5.15378 12.7229 4.94954 12.5924 4.94954 12.3291C4.94954 12.0612 5.15378 11.9261 5.55998 11.9261H6.52613V11.3079H5.55998C5.15378 11.3079 4.94954 11.1728 4.94954 10.905C4.94954 10.6417 5.15378 10.5111 5.55998 10.5111H6.10616L4.82103 8.50084C4.74529 8.39094 4.67874 8.27646 4.61678 8.1574C4.58465 8.08642 4.56859 8.00857 4.56859 7.93072C4.5617 7.79792 4.61219 7.6697 4.70399 7.57354C4.79808 7.48195 4.92429 7.43158 5.0551 7.43845C5.18591 7.43387 5.31443 7.48196 5.40852 7.57125C5.53015 7.70176 5.63571 7.84601 5.72521 7.99941L7.11362 10.17L8.35745 8.12305C8.40335 8.04291 8.45154 7.96049 8.50432 7.87119C8.55022 7.79334 8.59841 7.72008 8.65578 7.6491C8.70627 7.58728 8.76823 7.53462 8.83937 7.49798C8.9197 7.45448 9.0092 7.43616 9.0987 7.43845C9.22951 7.43387 9.35572 7.47967 9.44981 7.56896C9.53702 7.65139 9.58751 7.76816 9.58521 7.88951C9.58521 7.9811 9.56685 8.07268 9.53014 8.15969ZM4.55941 3.43388H15.5588L15.5703 3.41327C15.7011 3.41099 15.8044 3.30566 15.8044 3.17515V1.23812C15.8044 1.10761 15.7011 1.00229 15.5703 1H4.55941C4.43089 1 4.32533 1.11906 4.32533 1.24728V3.19576C4.32533 3.32627 4.4286 3.43159 4.55941 3.43388ZM14.3287 10.1952H16.7453C16.8761 10.1929 16.9816 10.0876 16.9816 9.95705V8.01086C16.9816 7.88035 16.8784 7.77503 16.7476 7.77274H13.6334C13.996 8.53748 14.2324 9.35488 14.3287 10.1952ZM16.7544 14.5661H13.2479C12.6397 15.5712 11.7837 16.3932 10.7786 16.9885H16.7659C16.8944 16.9885 17 16.8695 17 16.7389V14.8019C17 14.6737 16.883 14.5661 16.7544 14.5661Z" fill="#C3C3C3"/>
</svg>
