<svg width="26" height="26" viewBox="0 0 26 26" fill="none" xmlns="http://www.w3.org/2000/svg">
<path fill-rule="evenodd" clip-rule="evenodd" d="M13.5626 6.26297L15.3908 9.9298C15.4823 10.1148 15.6592 10.2438 15.8644 10.2737L19.9572 10.8632C20.123 10.8853 20.2722 10.9718 20.374 11.1041C20.565 11.352 20.5358 11.703 20.3069 11.9163L17.3405 14.7764C17.1897 14.9181 17.1226 15.1259 17.1621 15.3281L17.8725 19.3641C17.9223 19.6986 17.6933 20.0118 17.3579 20.0661C17.2189 20.0874 17.0768 20.0653 16.9506 20.0032L13.3053 18.0977C13.1222 17.9986 12.9027 17.9986 12.7196 18.0977L9.04748 20.0134C8.74042 20.1692 8.36469 20.0535 8.19734 19.7537C8.13341 19.6325 8.1113 19.4947 8.13341 19.3601L8.84383 15.3242C8.87935 15.1227 8.81225 14.9157 8.66543 14.7733L5.68323 11.9139C5.44011 11.6731 5.43853 11.2811 5.68087 11.0387C5.68165 11.038 5.68244 11.0364 5.68323 11.0356C5.78348 10.9451 5.90662 10.8845 6.04002 10.8609L10.1336 10.2714C10.3381 10.2391 10.5141 10.1116 10.6073 9.92665L12.4338 6.26297C12.5072 6.11422 12.6375 6.0001 12.7954 5.94815C12.954 5.89542 13.1277 5.90801 13.2769 5.98278C13.3992 6.04338 13.4995 6.14176 13.5626 6.26297Z" fill="#F3BA2F"/>
</svg>
