<svg width="20" height="20" viewBox="0 0 20 20" fill="none" xmlns="http://www.w3.org/2000/svg">
<path d="M5.03162 6.68937L5.03162 10.4778C5.03162 10.7676 5.29582 11 5.62198 11L6.77932 11C6.85657 11.0007 6.9332 10.9877 7.00479 10.9617C7.07639 10.9358 7.14152 10.8974 7.19641 10.8489C7.25131 10.8003 7.29489 10.7425 7.32463 10.6788C7.35437 10.6151 7.36968 10.5468 7.36967 10.4778L7.36967 6.68937L8.53344 6.68937C9.18049 6.68937 9.39384 6.31549 9.00689 5.85388L6.90206 3.34739C6.51161 2.88264 5.88677 2.88577 5.49923 3.34739L3.39499 5.85388C3.00453 6.31862 3.21963 6.68937 3.86786 6.68937L5.03162 6.68937Z" fill="#5334AB"/>
<circle cx="6.19995" cy="14.5" r="2.5" fill="#C8B9F2"/>
<path d="M4.94995 14.5001C4.94995 14.7302 5.1365 14.9167 5.36662 14.9167H7.03328C7.2634 14.9167 7.44995 14.7302 7.44995 14.5001C7.44995 14.27 7.2634 14.0834 7.03328 14.0834H5.36662C5.1365 14.0834 4.94995 14.27 4.94995 14.5001Z" fill="white"/>
<path d="M6.2 13.25C5.96988 13.25 5.78333 13.4365 5.78333 13.6667L5.78333 15.3333C5.78333 15.5635 5.96988 15.75 6.2 15.75C6.43012 15.75 6.61667 15.5635 6.61667 15.3333L6.61667 13.6667C6.61667 13.4365 6.43012 13.25 6.2 13.25Z" fill="white"/>
<path d="M12.6317 13.3106L12.6317 9.52221C12.6317 9.2324 12.8959 9.00003 13.2221 9.00003L14.3794 9.00003C14.4567 8.99934 14.5333 9.01233 14.6049 9.03827C14.6765 9.0642 14.7416 9.10255 14.7965 9.15111C14.8514 9.19967 14.895 9.25747 14.9247 9.32117C14.9545 9.38486 14.9698 9.4532 14.9698 9.52221L14.9698 13.3106L16.1335 13.3106C16.7806 13.3106 16.9939 13.6845 16.607 14.1461L14.5022 16.6526C14.1117 17.1174 13.4869 17.1142 13.0993 16.6526L10.9951 14.1461C10.6046 13.6814 10.8197 13.3106 11.468 13.3106L12.6317 13.3106Z" fill="#5334AB"/>
<circle cx="13.8" cy="5.5" r="2.5" fill="#C8B9F2"/>
<path d="M12.55 5.49984C12.55 5.72996 12.7366 5.9165 12.9667 5.9165H14.6334C14.8635 5.9165 15.05 5.72996 15.05 5.49984C15.05 5.26972 14.8635 5.08317 14.6334 5.08317H12.9667C12.7366 5.08317 12.55 5.26972 12.55 5.49984Z" fill="white"/>
</svg>
