<svg width="14" height="14" viewBox="0 0 14 14" fill="none" xmlns="http://www.w3.org/2000/svg">
<path d="M4.10362 3.46381H7.99562C8.22662 3.46381 8.38762 3.61781 8.38762 3.85581C8.38762 4.08681 8.23362 4.24781 7.99562 4.24781H4.10362C3.87262 4.24781 3.71162 4.09381 3.71162 3.85581C3.71162 3.61781 3.86562 3.46381 4.10362 3.46381ZM4.10362 5.79481H7.99562C8.22662 5.79481 8.38762 5.94881 8.38762 6.18681C8.38762 6.41781 8.23362 6.57881 7.99562 6.57881H4.10362C3.87262 6.57881 3.71162 6.42481 3.71162 6.18681C3.71162 5.95581 3.86562 5.79481 4.10362 5.79481ZM4.10362 8.13281H6.44162C6.67262 8.13281 6.83362 8.28681 6.83362 8.52481C6.83362 8.75581 6.67962 8.91681 6.44162 8.91681H4.10362C3.87262 8.91681 3.71162 8.76281 3.71162 8.52481C3.71162 8.28681 3.86562 8.13281 4.10362 8.13281ZM10.2216 6.45981V2.67981C10.2216 2.25281 9.87162 1.90281 9.44462 1.90281H2.44462C2.01762 1.90281 1.66762 2.25281 1.66762 2.67981V11.5138C1.66762 11.9408 2.01762 12.2908 2.44462 12.2908H5.94462C6.15462 12.2908 6.33662 12.4588 6.33662 12.6688C6.34362 12.9068 6.18262 13.0678 5.94462 13.0678H2.44462C1.59062 13.0678 0.890625 12.3678 0.890625 11.5138V2.68681C0.890625 1.83281 1.59062 1.13281 2.44462 1.13281H9.43762C10.2916 1.13281 10.9916 1.83281 10.9916 2.68681V6.46681C10.9916 6.67681 10.8236 6.85181 10.6066 6.85881C10.3966 6.85181 10.2216 6.67681 10.2216 6.45981Z" fill="white"/>
<path d="M12.2165 10.8777H7.37247C7.15547 10.8777 6.98047 10.7027 6.98047 10.4857C6.98047 10.2687 7.15547 10.0938 7.37247 10.0938H12.2165C12.4335 10.0938 12.6085 10.2687 12.6085 10.4857C12.6155 10.7027 12.4335 10.8777 12.2165 10.8777Z" fill="white"/>
<path d="M10.5361 12.7117C10.4311 12.7117 10.3331 12.6697 10.2561 12.5997C10.1021 12.4457 10.1021 12.1937 10.2561 12.0397L11.8101 10.4857L10.2561 8.91769C10.1021 8.76369 10.1021 8.51169 10.2561 8.35769C10.4101 8.20369 10.6621 8.20369 10.8161 8.35769L12.6431 10.2057C12.7971 10.3597 12.7971 10.6117 12.6431 10.7657L10.8161 12.5997C10.7461 12.6697 10.6411 12.7117 10.5361 12.7117Z" fill="white"/>
</svg>
