<svg width="20" height="20" viewBox="0 0 20 20" fill="none" xmlns="http://www.w3.org/2000/svg">
<g id="&#230;&#156;&#170;&#231;&#130;&#185;&#229;&#135;&#187;raddit">
<circle id="&#230;&#164;&#173;&#229;&#156;&#134;&#229;&#189;&#162;" cx="10" cy="10" r="10" fill="#EA574E"/>
<path id="&#229;&#189;&#162;&#231;&#138;&#182;" fill-rule="evenodd" clip-rule="evenodd" d="M15.12 8.68929C15.9038 8.68929 16.5524 9.33794 16.5524 10.1217C16.5524 10.7163 16.2011 11.2028 15.6876 11.392C15.7146 11.5271 15.7146 11.6893 15.7146 11.8244C15.7146 14.0406 13.147 15.8244 9.98488 15.8244C6.82271 15.8244 4.25515 14.0136 4.25515 11.8244C4.25515 11.6623 4.25515 11.5271 4.28217 11.392C3.79569 11.1758 3.44434 10.6893 3.44434 10.0947C3.44434 9.31092 4.09298 8.66227 4.87677 8.66227C5.25515 8.66227 5.6065 8.82443 5.87677 9.06767C6.87677 8.36497 8.25515 7.90551 9.76866 7.85146L10.4984 4.41902C10.5254 4.33794 10.5524 4.28389 10.6065 4.25686C10.6606 4.22984 10.7146 4.22984 10.7957 4.22984L13.1741 4.74335C13.3362 4.41902 13.6876 4.17578 14.093 4.17578C14.6606 4.17578 15.12 4.63524 15.12 5.20281C15.12 5.77038 14.6606 6.22984 14.093 6.22984C13.5254 6.22984 13.093 5.7974 13.066 5.25686L10.9308 4.7974L10.2822 7.87848C11.7957 7.93254 13.147 8.392 14.12 9.0947C14.3903 8.85146 14.7416 8.68929 15.12 8.68929ZM7.76824 10.1221C7.20067 10.1221 6.74121 10.5815 6.74121 11.1491C6.74121 11.6896 7.20067 12.1761 7.76824 12.1761C8.33581 12.1761 8.79527 11.7167 8.79527 11.1491C8.79527 10.5815 8.33581 10.1221 7.76824 10.1221ZM12.444 13.8511C11.7413 14.5538 10.417 14.6078 10.0116 14.6078C9.60616 14.6078 8.28183 14.5538 7.57913 13.8511C7.47102 13.743 7.47102 13.5808 7.57913 13.4727C7.68724 13.3646 7.8494 13.3646 7.95751 13.4727C8.38994 13.9051 9.33589 14.0673 10.0116 14.0673C10.6872 14.0673 11.6332 13.9051 12.0656 13.4727C12.1737 13.3646 12.3359 13.3646 12.444 13.4727C12.5251 13.5808 12.5251 13.743 12.444 13.8511ZM11.2285 11.1491C11.2285 11.7167 11.688 12.1761 12.2555 12.1761C12.8231 12.1761 13.2826 11.6896 13.2826 11.1491C13.2826 10.5815 12.8231 10.1221 12.2555 10.1221C11.688 10.1221 11.2285 10.5815 11.2285 11.1491Z" fill="white"/>
</g>
</svg>
