<svg width="18" height="18" viewBox="0 0 18 18" fill="none" xmlns="http://www.w3.org/2000/svg">
<path d="M15.49 10.5227C14.6861 10.0729 13.7565 9.94937 12.8737 10.1751C11.9909 10.4009 11.2149 10.9606 10.6896 11.7503C10.1643 12.54 9.92541 13.5062 10.0173 14.4696C10.1091 15.4329 10.5254 16.328 11.189 16.9888H2.5C2.23478 16.9888 1.98043 16.8764 1.79289 16.6764C1.60536 16.4763 1.5 16.205 1.5 15.9221V2.06667C1.5 1.78377 1.60536 1.51246 1.79289 1.31242C1.98043 1.11238 2.23478 1 2.5 1H14.49C14.7552 1 15.0096 1.11238 15.1971 1.31242C15.3846 1.51246 15.49 1.78377 15.49 2.06667V10.5227ZM4.498 4.73067C4.43104 4.72841 4.36434 4.74052 4.30186 4.7663C4.23938 4.79207 4.18238 4.83097 4.13427 4.88069C4.08616 4.93042 4.0479 4.98995 4.02178 5.05575C3.99565 5.12155 3.98219 5.19228 3.98219 5.26373C3.98219 5.33519 3.99565 5.40592 4.02178 5.47172C4.0479 5.53752 4.08616 5.59705 4.13427 5.64677C4.18238 5.6965 4.23938 5.7354 4.30186 5.76117C4.36434 5.78694 4.43104 5.79906 4.498 5.7968H10.494C10.561 5.79906 10.6277 5.78694 10.6901 5.76117C10.7526 5.7354 10.8096 5.6965 10.8577 5.64677C10.9058 5.59705 10.9441 5.53752 10.9702 5.47172C10.9963 5.40592 11.0098 5.33519 11.0098 5.26373C11.0098 5.19228 10.9963 5.12155 10.9702 5.05575C10.9441 4.98995 10.9058 4.93042 10.8577 4.88069C10.8096 4.83097 10.7526 4.79207 10.6901 4.7663C10.6277 4.74052 10.561 4.72841 10.494 4.73067H4.498ZM4.498 7.92853C4.43104 7.92627 4.36434 7.93839 4.30186 7.96416C4.23938 7.98993 4.18239 8.02884 4.13427 8.07856C4.08616 8.12828 4.0479 8.18781 4.02178 8.25361C3.99565 8.31941 3.98219 8.39014 3.98219 8.4616C3.98219 8.53306 3.99565 8.60379 4.02178 8.66959C4.0479 8.73539 4.08616 8.79492 4.13427 8.84464C4.18239 8.89436 4.23938 8.93326 4.30186 8.95904C4.36434 8.98481 4.43104 8.99693 4.498 8.99467H8.495C8.56196 8.99693 8.62866 8.98481 8.69114 8.95904C8.75363 8.93326 8.81062 8.89436 8.85873 8.84464C8.90684 8.79492 8.9451 8.73539 8.97122 8.66959C8.99735 8.60379 9.01081 8.53306 9.01081 8.4616C9.01081 8.39014 8.99735 8.31941 8.97122 8.25361C8.9451 8.18781 8.90684 8.12828 8.85873 8.07856C8.81062 8.02884 8.75363 7.98993 8.69114 7.96416C8.62866 7.93839 8.56196 7.92627 8.495 7.92853H4.498ZM14 13.8V12.4667C14 12.3959 13.9737 12.3281 13.9268 12.2781C13.8799 12.2281 13.8163 12.2 13.75 12.2C13.6837 12.2 13.6201 12.2281 13.5732 12.2781C13.5263 12.3281 13.5 12.3959 13.5 12.4667V14.0667C13.4999 14.1017 13.5062 14.1365 13.5188 14.1689C13.5313 14.2013 13.5497 14.2308 13.5729 14.2555C13.5962 14.2803 13.6238 14.3 13.6542 14.3133C13.6846 14.3267 13.7171 14.3335 13.75 14.3333H15.25C15.2828 14.3333 15.3154 14.3265 15.3457 14.3131C15.376 14.2997 15.4036 14.28 15.4268 14.2553C15.45 14.2305 15.4685 14.2011 15.481 14.1687C15.4936 14.1364 15.5001 14.1017 15.5001 14.0667C15.5001 14.0316 15.4936 13.997 15.481 13.9646C15.4685 13.9322 15.45 13.9028 15.4268 13.8781C15.4036 13.8533 15.376 13.8337 15.3457 13.8203C15.3154 13.8069 15.2828 13.8 15.25 13.8H14ZM13.75 17C13.0207 17 12.3212 16.691 11.8055 16.1408C11.2897 15.5907 11 14.8446 11 14.0667C11 13.2887 11.2897 12.5426 11.8055 11.9925C12.3212 11.4424 13.0207 11.1333 13.75 11.1333C14.4793 11.1333 15.1788 11.4424 15.6945 11.9925C16.2103 12.5426 16.5 13.2887 16.5 14.0667C16.5 14.8446 16.2103 15.5907 15.6945 16.1408C15.1788 16.691 14.4793 17 13.75 17Z" fill="#808080"/>
</svg>
