<svg width="20" height="20" viewBox="0 0 20 20" fill="none" xmlns="http://www.w3.org/2000/svg">
<path d="M12 4H14L14.5 5.5L14 7H12V4Z" fill="#C8B9F2"/>
<path d="M14 9H16.4L17 10L16.4 11H14V9Z" fill="#C8B9F2"/>
<path d="M12 13H13.6L14 14.5L13.6 16H12L11.5 14L12 13Z" fill="#C8B9F2"/>
<path d="M17 10.7669C17 11.3192 16.5523 11.7669 16 11.7669H14.1661C13.6138 11.7669 13.1661 11.3191 13.1661 10.7669V9.35898C13.1661 8.80669 13.6138 8.35898 14.1661 8.35898H16C16.5523 8.35898 17 8.80669 17 9.35898V10.7669ZM14.1673 10.3271C14.1673 10.6032 14.3912 10.8271 14.6673 10.8271H15.4988C15.7749 10.8271 15.9988 10.6032 15.9988 10.3271V9.79876C15.9988 9.52262 15.7749 9.29876 15.4988 9.29876H14.6673C14.3912 9.29876 14.1673 9.52262 14.1673 9.79876V10.3271ZM15.0252 6.40789C15.0252 6.96017 14.5775 7.40789 14.0252 7.40789H12.1924C11.6401 7.40789 11.1924 6.96017 11.1924 6.40789V5C11.1924 4.44771 11.6401 4 12.1924 4H14.0252C14.5775 4 15.0252 4.44772 15.0252 5V6.40789ZM12.1936 5.9681C12.1936 6.24425 12.4175 6.4681 12.6936 6.4681H13.524C13.8001 6.4681 14.024 6.24425 14.024 5.9681V5.43978C14.024 5.16364 13.8001 4.93978 13.524 4.93978H12.6936C12.4175 4.93978 12.1936 5.16364 12.1936 5.43978V5.9681ZM14.5027 15C14.5027 15.5523 14.055 16 13.5027 16H11.6689C11.1167 16 10.6689 15.5523 10.6689 15V13.5921C10.6689 13.0398 11.1167 12.5921 11.6689 12.5921H13.5027C14.055 12.5921 14.5027 13.0398 14.5027 13.5921V15ZM11.6702 14.5602C11.6702 14.8364 11.894 15.0602 12.1702 15.0602H13.0015C13.2776 15.0602 13.5015 14.8364 13.5015 14.5602V14.0319C13.5015 13.7558 13.2776 13.5319 13.0015 13.5319H12.1702C11.894 13.5319 11.6702 13.7558 11.6702 14.0319V14.5602Z" fill="#5334AB"/>
<path d="M3 9.81403C3 9.70357 3.08954 9.61403 3.2 9.61403H13.8083V10.5538H3.2C3.08954 10.5538 3 10.4643 3 10.3538V9.81403Z" fill="#5334AB"/>
<path d="M4.87089 10.3942L4.1608 9.73165L8.50809 5.62679C8.69371 5.45152 8.93934 5.35387 9.19463 5.35387H11.8973V6.29366H9.61123C9.35594 6.29366 9.11032 6.39129 8.9247 6.56656L4.87089 10.3942ZM11.1694 14.7659H9.81062C9.49425 14.7659 9.19653 14.6162 9.00787 14.3623L6.02934 10.3526L6.85067 9.8152L9.53039 13.4225C9.71905 13.6765 10.0168 13.8262 10.3331 13.8262H11.1694V14.7659Z" fill="#5334AB"/>
</svg>
