<svg width="20" height="20" viewBox="0 0 20 20" fill="none" xmlns="http://www.w3.org/2000/svg">
<path d="M5.96517 14.8238V5.32828C5.97447 5.11375 6.01169 4.7593 6.23499 4.53544C6.39316 4.37687 6.62577 4.30225 6.93281 4.30225C7.56551 4.30225 7.88185 4.77795 7.88185 5.72004V7.46431C7.88185 7.67884 8.05863 7.86539 8.28194 7.86539H15.6323V14.3854C15.6323 15.4767 14.9345 16.3628 13.8459 16.3628H13.6598L5.41621 16.3535C5.76047 16.0084 5.96517 15.4767 5.96517 14.8238ZM8.2075 13.2008H13.3807C13.6412 13.2008 13.8552 12.9862 13.8552 12.7251C13.8552 12.4639 13.6412 12.2494 13.3807 12.2494H8.2075C7.94698 12.2494 7.73298 12.4639 7.73298 12.7251C7.73298 12.9862 7.94698 13.2008 8.2075 13.2008ZM8.2075 10.6637H13.3807C13.6412 10.6637 13.8552 10.4491 13.8552 10.188C13.8552 9.92679 13.6412 9.71226 13.3807 9.71226H8.2075C7.94698 9.71226 7.73298 9.92679 7.73298 10.188C7.73298 10.4491 7.94698 10.6637 8.2075 10.6637ZM5.165 14.8238C5.165 15.1782 5.07196 16.0177 4.23457 16.0177C3.89031 16.0177 3.67631 15.8778 3.53675 15.7006C3.44371 15.5513 3.36927 15.3834 3.33205 15.2062V15.1876C3.33205 15.1689 3.32275 15.1409 3.32275 15.1223C3.31345 15.029 3.30414 14.945 3.30414 14.8891V12.5292C3.30414 12.38 3.41579 12.2587 3.57397 12.2587H5.165V14.8238Z" fill="#5334AB"/>
<path d="M16.7302 7.07247H8.67266V5.7293C8.67266 4.42343 8.09579 3.61193 7.10954 3.52798C7.20258 3.50933 7.30493 3.5 7.39797 3.5H15.5578C16.3487 3.5 17 4.09697 17 4.83385V6.86727C17 6.96054 16.8883 7.07247 16.7302 7.07247Z" fill="#C8B9F2"/>
</svg>
