<svg width="20" height="20" viewBox="0 0 20 20" fill="none" xmlns="http://www.w3.org/2000/svg">
<g clip-path="url(#clip0_25184_4968)">
<path d="M3.96436 6.28568L4.42864 4.89282H14.6429V15.1071H5.35721L4.42864 14.6428L3.96436 13.25L4.89293 11.8571L4.42864 10.9285L3.96436 9.53568L4.89293 8.14282L3.96436 6.28568Z" fill="#C8B9F2"/>
<path d="M5.50197 12.0605H5.94397C6.14547 12.0605 6.30797 11.8915 6.30797 11.69C6.30797 11.4885 6.14547 11.3195 5.94397 11.3195H5.50197C4.87147 11.3195 4.35797 10.7995 4.35797 10.1625V9.72703C4.35797 9.09003 4.87147 8.57003 5.50197 8.57003H5.94397C6.14547 8.57003 6.30797 8.40103 6.30797 8.19953C6.30797 7.99803 6.14547 7.82903 5.94397 7.82903H5.50197C4.87147 7.82903 4.35797 7.30903 4.35797 6.67203V6.23003C4.35797 5.59303 4.87147 5.07303 5.50197 5.07303H14.576C14.3225 5.40453 14.186 5.80753 14.186 6.23003V6.66553C14.186 7.08803 14.3225 7.49753 14.576 7.82253H9.85697C9.65547 7.82253 9.49297 7.99153 9.49297 8.19303C9.49297 8.39453 9.65547 8.56353 9.85697 8.56353H14.576C14.3225 8.89503 14.186 9.29803 14.186 9.72053V10.156C14.186 10.5785 14.3225 10.988 14.576 11.313H9.81797C9.61647 11.313 9.45397 11.482 9.45397 11.6835C9.45397 11.885 9.61647 12.054 9.81797 12.054H14.576C14.3225 12.3855 14.186 12.7885 14.186 13.211V13.6465C14.186 14.0755 14.3225 14.4785 14.576 14.8035H5.50197C4.87147 14.8035 4.35797 14.2835 4.35797 13.6465V13.211C4.36447 12.5805 4.87147 12.0605 5.50197 12.0605ZM16.0645 12.0605H16.136C16.3375 12.0605 16.5 11.8915 16.5 11.69C16.5 11.4885 16.3375 11.3195 16.136 11.3195H16.0645C15.434 11.3195 14.9205 10.7995 14.9205 10.1625V9.72703C14.9205 9.09003 15.434 8.57003 16.0645 8.57003C16.266 8.57003 16.4285 8.40103 16.4285 8.19953C16.4285 7.99803 16.266 7.82903 16.0645 7.82903C15.434 7.82903 14.9205 7.30903 14.9205 6.67203V6.23003C14.9205 5.59303 15.434 5.07303 16.0645 5.07303C16.266 5.07303 16.4285 4.90403 16.4285 4.70253C16.4285 4.50103 16.266 4.33203 16.0645 4.33203H5.50847C4.47497 4.33203 3.63647 5.18353 3.63647 6.23003V6.66553C3.63647 7.27653 3.92247 7.84203 4.40347 8.19303C3.92247 8.55053 3.63647 9.10953 3.63647 9.72053V10.156C3.63647 10.767 3.92247 11.3325 4.40347 11.6835C3.92247 12.041 3.63647 12.6 3.63647 13.211V13.6465C3.63647 14.693 4.47497 15.5445 5.50847 15.5445H16.071C16.2725 15.5445 16.435 15.3755 16.435 15.174C16.435 14.9725 16.2725 14.8035 16.071 14.8035C15.4405 14.8035 14.927 14.2835 14.927 13.6465V13.211C14.9205 12.5805 15.434 12.0605 16.0645 12.0605Z" fill="#5334AB"/>
<path d="M6.75 13.25V6.75H8.60714V13.25L7.67857 12.3214L6.75 13.25Z" fill="white"/>
<path d="M7.17893 12.4439V6.96439H8.49843V12.4439L8.09543 12.0409C7.95893 11.8979 7.71843 11.8979 7.58193 12.0409L7.17893 12.4439ZM6.67193 13.6789C6.71093 13.6984 6.76293 13.7049 6.81493 13.7049C6.86693 13.7049 6.91243 13.6919 6.95793 13.6789C7.00343 13.6594 7.04243 13.6334 7.07493 13.6009L7.84193 12.8274L8.60893 13.6009C8.66093 13.6529 8.71943 13.6854 8.79093 13.6984C8.77143 13.6984 8.81693 13.7049 8.86893 13.7049C8.91443 13.7049 8.96643 13.6984 9.00543 13.6789C9.09643 13.6399 9.16793 13.5684 9.20043 13.4774C9.21993 13.4384 9.22643 13.3864 9.22643 13.3344V6.59389C9.22643 6.39239 9.06393 6.22339 8.86243 6.22339H6.81493C6.61343 6.22339 6.45093 6.39239 6.45093 6.59389V13.3409C6.45093 13.3864 6.45743 13.4384 6.47693 13.4839C6.50943 13.5684 6.58093 13.6399 6.67193 13.6789Z" fill="#5334AB"/>
</g>
<defs>
<clipPath id="clip0_25184_4968">
<rect width="13" height="13" fill="white" transform="translate(3.5 3.5)"/>
</clipPath>
</defs>
</svg>
