<svg width="26" height="26" viewBox="0 0 26 26" fill="none" xmlns="http://www.w3.org/2000/svg">
<rect x="0.5" y="0.5" width="25" height="25" rx="4.5" stroke="#ECECEC"/>
<path fill-rule="evenodd" clip-rule="evenodd" d="M10.5276 8.77389C10.3425 8.58597 10.3251 8.29133 10.4758 8.08336L10.5261 8.02377L12.5484 5.953C12.7332 5.76376 13.0231 5.74655 13.2271 5.90139L13.2295 5.90351C13.2487 5.91828 13.2669 5.93437 13.284 5.95167L13.2855 5.953L15.3078 8.02377C15.5105 8.23133 15.5098 8.56718 15.3063 8.77389C15.1213 8.96182 14.8323 8.97833 14.6289 8.82383L14.5707 8.77235L13.4372 7.61256L13.4372 14.8434C13.4372 15.1363 13.2043 15.3738 12.9171 15.3738C12.6537 15.3738 12.4361 15.1742 12.4017 14.9153L12.3969 14.8434L12.3969 7.6119L11.2632 8.77235C11.0789 8.96105 10.7899 8.97877 10.586 8.82513L10.5276 8.77389ZM16.9266 19.997C18.5547 19.9201 19.851 18.5501 19.851 16.8709V13.9027L19.8477 13.755C19.7721 12.0909 18.4261 10.7661 16.7759 10.7661H16.1289L16.0583 10.771C15.8044 10.8061 15.6087 11.028 15.6087 11.2965C15.6087 11.5895 15.8416 11.827 16.1289 11.827H16.7759L16.8955 11.8305C17.964 11.8936 18.8107 12.7968 18.8107 13.9027L18.8107 16.8709L18.8073 16.9925C18.7456 18.0786 17.8627 18.9396 16.7822 18.9396L9.05626 18.9396L8.93668 18.936C7.86826 18.8729 7.02076 17.9692 7.02076 16.8638V13.8949L7.02421 13.7734C7.08592 12.6881 7.96926 11.827 9.04933 11.827H9.70263L9.77321 11.8221C10.0271 11.787 10.2228 11.5651 10.2228 11.2965C10.2228 11.0036 9.9899 10.7661 9.70263 10.7661H9.04933L8.90067 10.7697C7.27515 10.8488 5.98047 12.2179 5.98047 13.8949V16.8638L5.98382 17.0115C6.05943 18.6751 7.4062 20.0004 9.05626 20.0004H16.7822L16.9266 19.997Z" fill="#171717"/>
</svg>
