/* XPM */
static char *_02bp_gxu1f[] = {
/* columns rows colors chars-per-pixel */
"32 32 189 2 ",
"   c None",
".  c #121212",
"X  c #141414",
"o  c #151515",
"O  c #161616",
"+  c #191919",
"@  c #1B1B1B",
"#  c #1D1D1D",
"$  c #1F1F1F",
"%  c #212121",
"&  c #222222",
"*  c #262626",
"=  c #272727",
"-  c #292929",
";  c #2B2B2B",
":  c #2D2D2D",
">  c #2E2E2E",
",  c #303030",
"<  c #313131",
"1  c #333333",
"2  c #343434",
"3  c #363636",
"4  c #373737",
"5  c #383838",
"6  c #393939",
"7  c #3A3A3A",
"8  c #3B3B3B",
"9  c #3C3C3C",
"0  c #3D3D3D",
"q  c #3E3E3E",
"w  c #3F3F3F",
"e  c #404040",
"r  c #414141",
"t  c #424242",
"y  c #434343",
"u  c #444444",
"i  c #454545",
"p  c #464646",
"a  c #474747",
"s  c #484848",
"d  c #494949",
"f  c #4A4A4A",
"g  c #4B4B4B",
"h  c #4C4C4C",
"j  c #4D4D4D",
"k  c #4F4F4F",
"l  c #505050",
"z  c #515151",
"x  c #525252",
"c  c #535353",
"v  c #545454",
"b  c #555555",
"n  c #565656",
"m  c #575757",
"M  c #585858",
"N  c #595959",
"B  c #5A5A5A",
"V  c #5B5B5B",
"C  c #5C5C5C",
"Z  c #5D5D5D",
"A  c #5E5E5E",
"S  c #5F5F5F",
"D  c #606060",
"F  c #616161",
"G  c #626262",
"H  c #636363",
"J  c #646464",
"K  c #656565",
"L  c #666666",
"P  c #676767",
"I  c #686868",
"U  c #696969",
"Y  c #6A6A6A",
"T  c #6B6B6B",
"R  c #6C6C6C",
"E  c #6D6D6D",
"W  c #6E6E6E",
"Q  c #707070",
"!  c #717171",
"~  c #727272",
"^  c #737373",
"/  c #747474",
"(  c #757575",
")  c #767676",
"_  c #777777",
"`  c #787878",
"'  c #797979",
"]  c gray48",
"[  c #7B7B7B",
"{  c #7C7C7C",
"}  c #7D7D7D",
"|  c #7E7E7E",
" . c #7F7F7F",
".. c #808080",
"X. c #818181",
"o. c #828282",
"O. c #838383",
"+. c #848484",
"@. c #858585",
"#. c #868686",
"$. c #878787",
"%. c #888888",
"&. c #898989",
"*. c #8A8A8A",
"=. c #8D8D8D",
"-. c #8E8E8E",
";. c #8F8F8F",
":. c #909090",
">. c #919191",
",. c #939393",
"<. c #949494",
"1. c #959595",
"2. c #969696",
"3. c #979797",
"4. c #989898",
"5. c #9A9A9A",
"6. c #9B9B9B",
"7. c #9C9C9C",
"8. c #9D9D9D",
"9. c #9E9E9E",
"0. c #9F9F9F",
"q. c #A2A2A2",
"w. c #A3A3A3",
"e. c #A4A4A4",
"r. c #A5A5A5",
"t. c #A6A6A6",
"y. c #A7A7A7",
"u. c #A8A8A8",
"i. c #A9A9A9",
"p. c #ABABAB",
"a. c #ACACAC",
"s. c #ADADAD",
"d. c #AEAEAE",
"f. c #AFAFAF",
"g. c #B0B0B0",
"h. c #B1B1B1",
"j. c #B2B2B2",
"k. c #B4B4B4",
"l. c #B5B5B5",
"z. c #B6B6B6",
"x. c #B7B7B7",
"c. c #B8B8B8",
"v. c #BABABA",
"b. c #BBBBBB",
"n. c #BCBCBC",
"m. c #BDBDBD",
"M. c #BEBEBE",
"N. c #BFBFBF",
"B. c #C0C0C0",
"V. c #C1C1C1",
"C. c #C2C2C2",
"Z. c #C3C3C3",
"A. c #C4C4C4",
"S. c #C5C5C5",
"D. c #C6C6C6",
"F. c #C7C7C7",
"G. c #C8C8C8",
"H. c #C9C9C9",
"J. c #CACACA",
"K. c #CBCBCB",
"L. c #CCCCCC",
"P. c #CDCDCD",
"I. c #CECECE",
"U. c #CFCFCF",
"Y. c #D0D0D0",
"T. c #D1D1D1",
"R. c #D2D2D2",
"E. c #D3D3D3",
"W. c #D4D4D4",
"Q. c #D5D5D5",
"!. c #D6D6D6",
"~. c #D7D7D7",
"^. c #D8D8D8",
"/. c #D9D9D9",
"(. c #DADADA",
"). c #DBDBDB",
"_. c gainsboro",
"`. c #DDDDDD",
"'. c #DEDEDE",
"]. c #DFDFDF",
"[. c #E0E0E0",
"{. c #E1E1E1",
"}. c #E2E2E2",
"|. c #E3E3E3",
" X c #E4E4E4",
".X c #E5E5E5",
"XX c #E6E6E6",
"oX c #E7E7E7",
"OX c #F1F1F1",
/* pixels */
"                                                                ",
"                                                                ",
"                      B x h s p p s j n H                       ",
"                  z s r e j x M N z p q e f Z                   ",
"                a t j T ;.t.c.v.u.j.0...Y p q h L               ",
"            a y g [ f.H.E.W.).(.m.!.Q.W.V.4.U u u A             ",
"          t t M 9.W.).R._./.(.].`.!.'.`.I./.F.$.f t Z           ",
"          t c e.Y.I.n.(.{.{.Q._..XT.Q.U.m.U.J.c.-.k u F         ",
"        w k >.L.Y..XQ.oX(.v.-.,.).L.J.L.r.&./ ~ _ [ a d         ",
"      5 a *.H.Y.C.oXOX~.+.P K } !.^.c.[ R F M n v %./ e v       ",
"      q P H. XB.l.oXV./ V %.{ [ [.W.[ n n E ;.s.Q &.k.M p       ",
"    , p w.^.~.M.`.s.R R y.n.R ,.{.j.K R 4.Y.{.Q.| $.P.o.r v     ",
"    4 N N.XXW.H.;.m Y M.).{ R F.Q.>.J 5.G.'.}.t.B >.{.j.k f     ",
"    7 / R.!.P.:.l F 0.G.u.V 7.(.!.#.E &.a.K.q.N N y.}.F.F i     ",
"    0 =.|.^.5.z U x.^.n.E ) P.{. XZ.R.!.j.) M L g.~._.A.! y     ",
"    e 3.^.M.I F k./.[.*.L f._.[.[.(.~.q.H l I f.|.^.^.I.O.y     ",
"    e 7.oXi.m { b.p.1.D A _ 9.)..X).2.B c ! Z.E.].'.T.A.o.u     ",
"    0 4.R.7.A x J N b S H M *.(.!.2.S J 9.I..X/.).P.H.I.X.t     ",
"    6 #.U.d.T K B C C c F W v./.=.F R f.oX/./.H.Q.(.U.R.[ r     ",
"    < U U.R.6.;.<.) M @.M.H.).j.D  .x.M.i.=.( <./.'.(.S.F w     ",
"    * l V.[.R.[. X&.N p.'./._.4.V _ J n B N Z p.(.!._.g.l 8     ",
"    o 9 >.H.N.!.U.^ k 3.).[./.i.B b v V V m ' C./.E.Y.-.t       ",
"      ; M h.M.J.I.] ] B._./.'.J.X.G E _  .2.C.{.!.).n.B 7       ",
"      X 7 ` F.~.).D.m.l.C.^.'./.K.N.C.Z.K.W.'.~.H.N.' r         ",
"        % u <.^.Q.oXY.g.b.I.Y.}.XX].^.{.{.`.Q.`.I.:.s 1         ",
"          - d 4._._.J.P.K.S.Z.J.^.). X~.(.}.{.W.6.j 3           ",
"            - p @.A.!./.G.Z.V.m.Z.Q.'..X(.'.P.*.g 2             ",
"              & 9 C ;.B.`.Q.S.Z.K.`.).Q.v.7.K r >               ",
"                o > e N +.8.a.h.c.z.r.+.B y 1 $                 ",
"                    O = 2 0 p h h a w 4 : #                     ",
"                          . + # # @ o                           ",
"                                                                "
};
