/* XPM */
static char *c8127399dd8e4aa0bf76b0bb12d170df[] = {
/* columns rows colors chars-per-pixel */
"32 32 195 2 ",
"   c gray7",
".  c gray8",
"X  c #151515",
"o  c #161616",
"O  c #191919",
"+  c #1B1B1B",
"@  c #1D1D1D",
"#  c gray12",
"$  c gray13",
"%  c #222222",
"&  c gray15",
"*  c #272727",
"=  c gray16",
"-  c gray17",
";  c #2D2D2D",
":  c gray18",
">  c gray19",
",  c #313131",
"<  c gray20",
"1  c #343434",
"2  c gray21",
"3  c #373737",
"4  c gray22",
"5  c #393939",
"6  c #3A3A3A",
"7  c gray23",
"8  c #3C3C3C",
"9  c gray24",
"0  c #3E3E3E",
"q  c #3F3F3F",
"w  c gray25",
"e  c #414141",
"r  c gray26",
"t  c #434343",
"y  c #444444",
"u  c gray27",
"i  c #464646",
"p  c gray28",
"a  c #484848",
"s  c #494949",
"d  c gray29",
"f  c #4B4B4B",
"g  c #4C4C4C",
"h  c gray30",
"j  c gray31",
"k  c #505050",
"l  c #515151",
"z  c gray32",
"x  c #535353",
"c  c gray33",
"v  c #555555",
"b  c #565656",
"n  c gray34",
"m  c #585858",
"M  c gray35",
"N  c #5A5A5A",
"B  c #5B5B5B",
"V  c gray36",
"C  c #5D5D5D",
"Z  c gray37",
"A  c #5F5F5F",
"S  c #606060",
"D  c gray38",
"F  c #626262",
"G  c gray39",
"H  c #646464",
"J  c #656565",
"K  c gray40",
"L  c #676767",
"P  c #686868",
"I  c DimGray",
"U  c #6A6A6A",
"Y  c #6C6C6C",
"T  c #6D6D6D",
"R  c gray43",
"E  c gray44",
"W  c #717171",
"Q  c #727272",
"!  c gray45",
"~  c #747474",
"^  c gray46",
"/  c #767676",
"(  c #777777",
")  c gray47",
"_  c #797979",
"`  c gray48",
"'  c #7B7B7B",
"]  c #7C7C7C",
"[  c gray49",
"{  c #7E7E7E",
"}  c gray50",
"|  c #808080",
" . c #818181",
".. c gray51",
"X. c #838383",
"o. c #848484",
"O. c gray52",
"+. c #868686",
"@. c gray53",
"#. c #888888",
"$. c #898989",
"%. c gray54",
"&. c #8B8B8B",
"*. c #8D8D8D",
"=. c #8E8E8E",
"-. c gray56",
";. c #909090",
":. c gray57",
">. c #939393",
",. c gray58",
"<. c #959595",
"1. c gray59",
"2. c #979797",
"3. c #989898",
"4. c gray60",
"5. c #9A9A9A",
"6. c #9B9B9B",
"7. c gray61",
"8. c #9D9D9D",
"9. c gray62",
"0. c #9F9F9F",
"q. c #A0A0A0",
"w. c #A2A2A2",
"e. c gray64",
"r. c #A5A5A5",
"t. c gray65",
"y. c #A7A7A7",
"u. c gray66",
"i. c #A9A9A9",
"p. c #AAAAAA",
"a. c gray67",
"s. c #ACACAC",
"d. c gray68",
"f. c #AEAEAE",
"g. c #AFAFAF",
"h. c gray69",
"j. c #B1B1B1",
"k. c #B2B2B2",
"l. c gray70",
"z. c #B4B4B4",
"x. c gray71",
"c. c #B6B6B6",
"v. c #B7B7B7",
"b. c gray72",
"n. c #B9B9B9",
"m. c gray73",
"M. c #BBBBBB",
"N. c #BCBCBC",
"B. c gray74",
"V. c gray",
"C. c gray75",
"Z. c #C0C0C0",
"A. c #C1C1C1",
"S. c gray76",
"D. c #C3C3C3",
"F. c gray77",
"G. c #C5C5C5",
"H. c #C6C6C6",
"J. c gray78",
"K. c #C8C8C8",
"L. c gray79",
"P. c #CACACA",
"I. c #CBCBCB",
"U. c gray80",
"Y. c #CDCDCD",
"T. c #CECECE",
"R. c gray81",
"E. c #D0D0D0",
"W. c gray82",
"Q. c #D2D2D2",
"!. c LightGray",
"~. c gray83",
"^. c #D5D5D5",
"/. c gray84",
"(. c #D7D7D7",
"). c #D8D8D8",
"_. c gray85",
"`. c #DADADA",
"'. c gray86",
"]. c gainsboro",
"[. c #DDDDDD",
"{. c gray87",
"}. c #DFDFDF",
"|. c gray88",
" X c #E1E1E1",
".X c #E2E2E2",
"XX c gray89",
"oX c #E4E4E4",
"OX c gray90",
"+X c #E6E6E6",
"@X c #E7E7E7",
"#X c #E9E9E9",
"$X c #EFEFEF",
"%X c gray95",
"&X c None",
/* pixels */
"&X&X&X&X&X&X&X&X&X&X&X&X&X&X&X&X&X&X&X&X&X&X&X&X&X&X&X&X&X&X&X&X",
"&X&X&X&X&X&X&X&X&X&X&X&X&X&X&X&X&X&X&X&X&X&X&X&X&X&X&X&X&X&X&X&X",
"&X&X&X&X&X&X&X&X&X&X&Xm x a a p p p j n D &X&X&X&X&X&X&X&X&X&X&X",
"&X&X&X&X&X&X&X&X&Xx a t 0 j n n m j p 0 t a C &X&X&X&X&X&X&X&X&X",
"&X&X&X&X&X&X&X&Xp t j T >.r.b.b.r.k.w.] P a 0 j J &X&X&X&X&X&X&X",
"&X&X&X&X&X&Xp t j ` k.R.Q.^.].).V.^.^.Q.Z.5.P p p C &X&X&X&X&X&X",
"&X&X&X&X&Xt t m w.^.).Q.].).).XX].).].].R.).F.#.a t C &X&X&X&X&X",
"&X&X&X&X&Xt x r.Q.R.V.).XXXX^.].oXQ.).Q.V.R.L.b.*.j p D &X&X&X&X",
"&X&X&X&X0 j >.^.Q.oX^.#X].V.*.1.).R.L.R.r.#.! ! ( ] p a &X&X&X&X",
"&X&X&X4 p #.^.].Z.#X%X).>.P J ] ^.).b.` P D n n n #.! t n &X&X&X",
"&X&X&X0 J R.$XF.z.#XF.( m #.` ` XXQ.` n m T *.g.T *.z.n p &X&X&X",
"&X&X: p r.].].V.XXz.T T r.V.T 1.XXk.J T 1.Q.XX^.] #.R. .t n &X&X",
"&X&X4 m Z.#X^.Q.1.n P Z.].] P L.^.>.D 7.F.].oXp.m >.XXk.j a &X&X",
"&X&X4 ! Q.^.R.1.x D w.F.p.m 7.).^.O.T #.g.L.w.m m r.XXL.C p &X&X",
"&X&X0 *.XX).5.x P b.).V.T ( R.XXoXF.Q.^.k.( m J k.^.].F.! t &X&X",
"&X&Xt 1.).V.P D z.).XX#.P g.).XXXX).).w.D x P g.oX).^.R. .t &X&X",
"&X&Xt 7.oXp.n ] b.p.1.D C ` w.].oX].1.m n ! Z.^.XX].Q.F. .p &X&X",
"&X&X0 5.^.7.C x J m n C D m #.].^.1.D J 7.R.oX).).R.L.R. .t &X&X",
"&X&X4 O.R.g.T J m C C n D T b.).*.D T g.oX).).L.^.].Q.Q.` t &X&X",
"&X&X> P R.Q.7.*.1.` m O.V.L.).k.D  .z.V.p.*.( >.).].).F.D 0 &X&X",
"&X&X& x Z.].Q.XXXX#.m g.XX).].5.m ` J n m m C g.).^.].k.x 4 &X&X",
"&X&XX 4 >.L.Z.^.R.! j 1.).XX).p.m n n m m m ` Z.).Q.Q.*.t &X&X&X",
"&X&X&X: m k.Z.L.R.` ` V.].).].L. .D T `  .1.Z.XX^.].V.m 4 &X&X&X",
"&X&X&X. 4 ` L.^.].F.V.z.F.).].).L.Z.Z.F.R.Q.].).L.Z.` t &X&X&X&X",
"&X&X&X&X$ p >.^.^.oXQ.k.b.R.Q.XXoXXX).XXXX].^.].R.>.a 1 &X&X&X&X",
"&X&X&X&X&X= a 5.].].L.R.L.F.F.L.).].oX).).XXXXQ.7.a 1 &X&X&X&X&X",
"&X&X&X&X&X&X= p O.F.).).L.F.Z.V.Z.^.].oX).].R.#.a 1 &X&X&X&X&X&X",
"&X&X&X&X&X&X&X$ 0 C *.Z.].^.F.F.R.].).^.V.7.J t > &X&X&X&X&X&X&X",
"&X&X&X&X&X&X&X&XX : 0 m O.7.p.k.b.z.r. .m p > # &X&X&X&X&X&X&X&X",
"&X&X&X&X&X&X&X&X&X&XX = > 0 p a j p t 1 : # &X&X&X&X&X&X&X&X&X&X",
"&X&X&X&X&X&X&X&X&X&X&X&X&X. + # # + X &X&X&X&X&X&X&X&X&X&X&X&X&X",
"&X&X&X&X&X&X&X&X&X&X&X&X&X&X&X&X&X&X&X&X&X&X&X&X&X&X&X&X&X&X&X&X"
};
