/* XPM */
static char *cgd6b_gj3dd[] = {
/* columns rows colors chars-per-pixel */
"80 80 243 2 ",
"   c None",
".  c black",
"X  c #010101",
"o  c #020202",
"O  c gray1",
"+  c #040404",
"@  c gray2",
"#  c #060606",
"$  c #070707",
"%  c gray3",
"&  c #090909",
"*  c #0B0B0B",
"=  c #0C0C0C",
"-  c gray5",
";  c #0E0E0E",
":  c #111111",
">  c gray7",
",  c #131313",
"<  c gray8",
"1  c #161616",
"2  c gray9",
"3  c #181818",
"4  c #191919",
"5  c gray10",
"6  c #1B1B1B",
"7  c #1D1D1D",
"8  c #1E1E1E",
"9  c gray12",
"0  c #202020",
"q  c gray13",
"w  c #222222",
"e  c #232323",
"r  c #252525",
"t  c #272727",
"y  c #282828",
"u  c gray16",
"i  c #2A2A2A",
"p  c gray17",
"a  c #2C2C2C",
"s  c #2D2D2D",
"d  c gray18",
"f  c #2F2F2F",
"g  c gray19",
"h  c #313131",
"j  c #323232",
"k  c gray20",
"l  c #343434",
"z  c #353535",
"x  c gray21",
"c  c #373737",
"v  c gray22",
"b  c #393939",
"n  c #3A3A3A",
"m  c gray23",
"M  c #3C3C3C",
"N  c gray24",
"B  c #3E3E3E",
"V  c #3F3F3F",
"C  c gray25",
"Z  c #414141",
"A  c gray26",
"S  c #434343",
"D  c #444444",
"F  c gray27",
"G  c #464646",
"H  c gray28",
"J  c #484848",
"K  c #494949",
"L  c gray29",
"P  c #4B4B4B",
"I  c #4C4C4C",
"U  c gray30",
"Y  c #4E4E4E",
"T  c gray31",
"R  c #505050",
"E  c #515151",
"W  c gray32",
"Q  c #535353",
"!  c gray33",
"~  c #555555",
"^  c #565656",
"/  c gray34",
"(  c #585858",
")  c gray35",
"_  c #5A5A5A",
"`  c #5B5B5B",
"'  c gray36",
"]  c #5D5D5D",
"[  c gray37",
"{  c #5F5F5F",
"}  c #606060",
"|  c gray38",
" . c #626262",
".. c gray39",
"X. c #646464",
"o. c #656565",
"O. c gray40",
"+. c #676767",
"@. c #686868",
"#. c DimGray",
"$. c #6A6A6A",
"%. c gray42",
"&. c #6C6C6C",
"*. c #6D6D6D",
"=. c gray43",
"-. c #6F6F6F",
";. c gray44",
":. c #717171",
">. c #727272",
",. c gray45",
"<. c #747474",
"1. c gray46",
"2. c #767676",
"3. c #777777",
"4. c gray47",
"5. c #797979",
"6. c gray48",
"7. c #7B7B7B",
"8. c #7C7C7C",
"9. c gray49",
"0. c #7E7E7E",
"q. c gray50",
"w. c #808080",
"e. c #818181",
"r. c gray51",
"t. c #838383",
"y. c #848484",
"u. c gray52",
"i. c #868686",
"p. c gray53",
"a. c #888888",
"s. c #898989",
"d. c gray54",
"f. c #8B8B8B",
"g. c gray55",
"h. c #8D8D8D",
"j. c #8E8E8E",
"k. c gray56",
"l. c #909090",
"z. c gray57",
"x. c #929292",
"c. c #939393",
"v. c gray58",
"b. c #959595",
"n. c gray59",
"m. c #979797",
"M. c #989898",
"N. c gray60",
"B. c #9A9A9A",
"V. c #9B9B9B",
"C. c gray61",
"Z. c #9D9D9D",
"A. c gray62",
"S. c #9F9F9F",
"D. c #A0A0A0",
"F. c gray63",
"G. c #A2A2A2",
"H. c gray64",
"J. c #A4A4A4",
"K. c #A5A5A5",
"L. c gray65",
"P. c #A7A7A7",
"I. c gray66",
"U. c #A9A9A9",
"Y. c #AAAAAA",
"T. c gray67",
"R. c #ACACAC",
"E. c gray68",
"W. c #AEAEAE",
"Q. c #AFAFAF",
"!. c gray69",
"~. c #B1B1B1",
"^. c #B2B2B2",
"/. c gray70",
"(. c #B4B4B4",
"). c gray71",
"_. c #B6B6B6",
"`. c #B7B7B7",
"'. c gray72",
"]. c #B9B9B9",
"[. c gray73",
"{. c #BBBBBB",
"}. c #BCBCBC",
"|. c gray74",
" X c gray",
".X c gray75",
"XX c #C0C0C0",
"oX c #C1C1C1",
"OX c gray76",
"+X c #C3C3C3",
"@X c gray77",
"#X c #C5C5C5",
"$X c #C6C6C6",
"%X c gray78",
"&X c #C8C8C8",
"*X c gray79",
"=X c #CACACA",
"-X c #CBCBCB",
";X c gray80",
":X c #CDCDCD",
">X c #CECECE",
",X c gray81",
"<X c #D0D0D0",
"1X c gray82",
"2X c #D2D2D2",
"3X c LightGray",
"4X c gray83",
"5X c #D5D5D5",
"6X c gray84",
"7X c #D7D7D7",
"8X c #D8D8D8",
"9X c gray85",
"0X c #DADADA",
"qX c gray86",
"wX c gainsboro",
"eX c #DDDDDD",
"rX c gray87",
"tX c #DFDFDF",
"yX c gray88",
"uX c #E1E1E1",
"iX c #E2E2E2",
"pX c gray89",
"aX c #E4E4E4",
"sX c gray90",
"dX c #E6E6E6",
"fX c #E7E7E7",
"gX c gray91",
"hX c #E9E9E9",
"jX c #EAEAEA",
"kX c gray92",
"lX c #ECECEC",
"zX c gray93",
"xX c #EEEEEE",
"cX c #EFEFEF",
"vX c gray94",
"bX c #F1F1F1",
"nX c gray95",
"mX c #F3F3F3",
"MX c #F4F4F4",
"NX c gray96",
"BX c #F6F6F6",
"VX c #F8F8F8",
"CX c #F9F9F9",
/* pixels */
"                                                                                                                                                                ",
"                                                                                                                                                                ",
"                                                                                                                                                                ",
"                                                                                                                                                                ",
"                                                                        y.q.7.5.5.8.e.a.                                                                        ",
"                                                              1.#.{ / E U L K J J K L U E / } &.9.z.                                                            ",
"                                                        %.' E K F S S S S S S S S S S S S S S D J R { <.j.                                                      ",
"                                                  =.] T H D S S S A Z C B M n n n n m M B C A S S S S G T ..w.                                                  ",
"                                              #.( L D S S S Z B b c v l x A m N A V M n v x h k n V A S S S L ' 8.                                              ",
"                                            / L D S S A B b l m H ] @.] +.,.<.1.8.1.=.%.+.o.Y k M c z b V S S S K [ y.                                          ",
"                                        ` I D S S A M n S Y U O.d.l.A.Y.P.K.P.`.[.I.z.V.c.j.d.;. .| ! V k x B A S S U $.                                        ",
"                                      E H S S A N b L { 1.y.N.K.!.L.oX@X@X5X=X<XOXF.(.2X|.OXE.f.i.0.a.-.( A g x V S S F ) y.                                    ",
"                                  ~ I D S S V n J O.7.p.H.E.,X6X5X|._.@XuXlXXX'.D.q.3XxX,X:X<X~.-XU.E.D.i.-.Y C z v Z S S T 2.                                  ",
"                                R J D S A N V [ w.j.E.2X0X<X-X$XdXkX&X$XlXjX6X<XE.V.1XjX;X#XjX-XrXeX].$X/.A.>.%.] m j B S S L &.                                ",
"                              I H S S Z M ~ q.D.{.+XiXwX:X,XtX;X+XkXuX#XdXkXrXbXaX].+X0X9X3XcX1XqXbX1X%X=X`.H.A.e.*.I z n A S J +.                              ",
"                            J G S S C A  .t./.,XpXzXaX%X:X<XMXeX;X5X9X5X2XtXqXdXcX8X0XjX*XXXdXeX7XnXlX;X2X8X8X<XL.b.9.) z v A S H O.                            ",
"                          D F S S C D 1.G.'.qXuXlXgX|.sXOX1XdX<XtX8X5XeX4XuX7X3X0X<XlXuX+XwXbXfX9XpX<X}.-XzXhXgX6X~.Z.5.' v x A S H #.                          ",
"                        M F S S C H *.K.].wX*X'.2X8X<XyX(.lX9XrXeXiX8XtX3XzXyX9X0XiXkX6X X9XnXzX*XoX].{.@XeX3XdX5XqX!.n.y.| B x A S K -.                        ",
"                        S S S Z A %.F.|.7X6XQ.uXwX4XOXU.eXnX0X0XlXfXtX2X#XrX2XsXgX9X8X6X|.,XiXgX%X+X@X X[.7X1XpX&X.X/.I.P.2.[ V c A S I 4.                      ",
"                      C D S A C X.d.XX-XgX&X+XrX).z.c.[.cXxXeXqXjXyXrX=XwX8XrXkXbXlXaX5X=X[.oXsX4X{.oX(.).-XqX;X`.&X$XaX1XI.x.$.B b S S Q u.                    ",
"                    v S S A C X.d.K.OX<X6X_.3XMXuX!.J.fXdXxXsXeXaXqX7X&X*XS.P.2XfXcXzXOX<X+X%XzXtX.X.X.X_.`.].M.r.p.g.l.c.g.j.w.} n M S D {                     ",
"                    Z S S Z ( h.T.].#X1X=XY.0XmXMXnXyXgX8X6XtXqXyXqXF.,.o.) ^ d.>XkXpX].<X:X+X*XsX;X].U.1.) { { ! T W ) [ ! 5.G.8./ c C S K ;.                  ",
"                  n S S Z T p.P.+X=X5XqXL.@XtXVXMXNXgX8XwX5XuX7X+Xe.X.3._ ] K s.qX;XXX[.$XXXOX+X$XK.d.e.[ @.0.@.! J E ^ ) U ! k.A.*.F z A S Q                   ",
"                p Z S A A o.J.7XpX<X%X`.}.6XtXcXNXxXsX9XyX6XgXoXz.:.w.0.<.+. .}.<X0X1XiXwXqX:XJ.>.O.3.1.=.@.X.:.) | *.] W ~ o.p.V.7.] h M S G O.                ",
"                n S S Z %.J.XX2XfXsX<X/. XXXJ.hXbXdXhXyX6X].0.^ K U R T @.` ' G.4XbXmXjX XeX'.) J ~ [ ` | W } ^ T W U E U ( ) ;.oXI.a.( l Z S R                 ",
"              t Z S A T Z.,X9X8X2XtXgXE..Xh./.sXxXvXvXwXY.&./ [ ` +. .,.i. .{ v.cXpX3XyXdXR.+.] X.+.O.` Q { +.A [ *.;.,._ ^ ( >.>X|.R.,.C m S G X.              ",
"              x S S Z } Q.yXrXiX=X=X=XW.A.T.iXMXmXlX X2. .( W ..( 3.(.*X*.J T f.vXfX*XyXdX>.H T G H S D ~ }  .%.Q..XuXfXI.E Y X.oX8XoXf...c Z S W               ",
"              B S A P k.XX*XsXeXXX+X#XI.F.dXMXCXkXC.R o.' ' ( -.n.,XbX).@.| 3.Q.zXvXdX2X'.<.>.0.#.*.....#.v.&X7XsXgXpXdX2X+.R } .XaX XY.4.S N S J #.            ",
"            a A S Z -.+XwX>XjXiX&X>X*XC.wXVXNXpXB.7. .E [ W ] V.<XrXoX( I U ~ B.aXxX9X$X1.! &.! _ ..O.x.,XpXjXwXgX8XOX:X).T ..| _.XX[.W.g.) v A D )             ",
"            c S S G n.5XhXpXgX7X1X9XH.@XbXVX|.1.{ } 0.,.6.k.,XhXqX1Xt.*.:.3.B.dXaX2X0X7Xs.` ] / ( %.k.$XsX6XkX8XkX4X6X>XV.| >.#.#XwXhX=XD.&.x C S U             ",
"            N S A ! G.wXjXxXbX6X%X!.^.xXMX%X%.R  .{ R X.C.,XlXgXjXC.E Y R y.:X6X=XqXfX|.| } >.t.{.sXwX0XeX0XaX5XzX0XlXG.L I Y T #XuXlX8XoXt.F M S H X.          ",
"          r Z S A <.`..X,XcXzXdX=X|.<XnXJ.[ _ ^ } ~ U k.hXeXhX3XP.( #.*.( D.iX6X@X0XaXu.Y ] +.6._.:X:X2XpXaXqX:XvXwX|.%.X.] &.,.4XyXpX.X%XP.@.m A D )           ",
"          d S S G d.}.&X2XiX1XtXsXdXjXa.D C Z H ^ ^ m.OX6X5XkXiXv.E P ! 3.}.zX<X#X;X0X=./ } | @.X.;.-.W.4XqX1XrXbX$X;.R ( R ] w.3XyXzXeX0X`.9.B Z S E           ",
"          z S S I V.7X9X@XuX=X*X;X1X/.{ H F A L =.j.Q.^./.>XkXE.o.} T &.%X$XsXjX%X>X4X3.O.*.X.o.,.>.=.Z. X:XhXhX_.2.W C Z F Y m.@XtXcXcXaX[.3.N V S P           ",
"          n S A [ }.:XtXhXeXXX+XqXE.#.4.4.&.R ^ d.L.!.].`.=X3XX.A ( Y l.,XQ.3XvXkXeX>X7.I Q } 7.L.Q.E.>X2X{.).7.` U Z G J =.M.^..XrXyX2X;XP.d.! N S J {         ",
"        1 N S A #.`.tXbXbXuX$X4X}.O.R O.~ T O.K.].[..XXX|.+Xb.-.o.X.<.:X8X%X:XjXbXaX%X=XS. XrXzXbX&X8X&X2X'.7.` O.+.{ <.-.l.+X|.XXyXfX}.XX*Xc.X.M S G _         ",
"        6 V S S 1.<XkXqXlX<X%X3X9.D G G C Q W.=XyXxXzXcXzXY.) @.' ' s.`.uXnX9XqXbXxX3X-XrXmXsXyXgX}.0X`.e._ T E / ' R ! B.pXcXxXlXcXrX<X8X~.f.` B S F ~         ",
"        9 C S D r.,XfX;XfX-X7X.XU F G T / N.@X.XtXgXiXdX].t.` ( o.;.[.;XgXbXgX5XvXxX@XXX9XlX7X9XtX%X|.@.C Z U Y U  .&.G.pXtXlX-X8XcX,X@XwX;XC.;.C A D W         ",
"        q Z S F n.%X,XuXiX+X=Xa.` o.` | n.$X4XqXcXkXtX0X-.! ) ' :.R.cX7X2XlXvXaXhXcX5X,XaX;X9XlX@Xd.~ H R W ..#._ 3.Y.fXnXrXfX].$XxX5X<X=XtX'.>.B A D T         ",
"        e Z S H B.%X:X:X+X[.V.` Y G A 1.pX3X.X+XuXgXtX%X@.-.7.:.q.@XgX0X9X:XdX;X[.vXkXsXuX*X3X+X0.T X.=.O.` _ ( ` F.`.9XsXuXfX:X1XkX;X<X%X6X(.q.S A S Y         ",
"        w Z S H w.%XcXaX1X5X-.C U ..o.#XMX8X*X*X}.iX:Xw.=.1.>.{ r.Q.~.N.:XsXtXoX}.bXbX2X XlX+X=.#.~ _ ( A Z F y.>X&X=X X=XaXsXkXjXfX+X:X&X#XC.&.D A S I         ",
"        0 Z S H z.wXcXvXnX3X:.#.' O.+.|.0X&X{.|.].E.3.K P L K G U I ' >.0.8XmXrXaXvXvXgXwX[.@.H Q G H F Z U j.dXxX,X9XyXkXgXuXiXkXpX%X,X;X`.~.u.F A S P         ",
"        7 C S G x.uXsX0XbX).+.9.U Z D @.$.O.;.( E ) { [ / ] ! ^ } ^ P R { -XcXeXpXcXbXfXE.o. .' %. .+.{ e.W.%XbXhX8X0X7X5XjX4XXX-X*X+XOX+X'.F.<.A A D L         ",
"        4 V S F 6.8XqXW.4X~.` [ #.T Z J | ..] K F R ` ( +.O.-.X.;.) X.X.2.rX8X5XtXwXfXJ.{ +.#.U ( I ( c.8XqX#XbXiXqX1X,X4XjX*X&XoXOX*X;X<X%XQ.<.Z A D K         ",
"        , M S S 9.qXqXL._.*X/ | ( { K Z O.%._ #.~ R ] E @.>.5.-.O.) ..<.L.sX;X;XwX>XZ.1.:.;.X.' o.0./.yXyX9X@XvXjX0XqXpX0XjX1X2X2XqX=X$XpXuX(.{ V S D H         ",
"        = v S S =.:XjX#X|.8Xu.-.>.3.,.} o.] ] /  .} E Z L W ^ E L H J +.;X9X9XiXjXz.) ^ ) Y C H w.qXvXpXtX9X&XvXvX,X9XwX=X<X7X7X<X1X{.2XjXqX).X.V S D S         ",
"        @ k S A [ XX8X3X+X[.Y.*.} <.;.X.` @. .[  .@.-.~ H A Q ! &.+.,.Y.wXyXwXbX[.( #.[ -.:.' a.).8XnXpXtX7X%XbXyX1X>X2XOX3XzXlX9X+X/.7XrX$X_.O.C S D N         ",
"          i S S T !.tX$X|.-X].#.W ..:.+.K P I K ..$.I ) *.~ ;.0.h.h.H.@XwXzX<X!.{ I E :.>.-.(.).1XOXzXsXiXwX&X2X|.(.z.`.pX8X8X:X3XuXxXsX#XT.m.W Z S D           ",
"          9 Z S J f.:XrX=XxXOXM.;.' *.-.@.-.:.,.' #.I L @.`.1X3XgXeXoX&XjXzX#X6.! ~ / O.=.U.aX&XhX8X1X7X_.J.l.1.] T ..G.uX0XyXsXpXrX5XgXqX(.8.H A S Z           ",
"          , M S D <.5XhX&XvXyX=X,X3X).&X3XfX3XF.+.] [ %.a.:X;X#X3XlX1XXXjXjX$Xq.5.$.&.j.;X3XpX|.[.L.=.;.T G ^ _ ( W 6.8X6X;XjXfX0X=X#X-X8X.X;.Z S S M           ",
"          # k S S ' XXhX&XlXbX>X>X4X-XfXwXpXnXf.L I K K v.dXkXqX$XdXgX2XeXzXU.E X.R } R.F.7.o.} ) W ) ( Q ( *.+. .^ r.zXuX+X5X4XtXgXhX@X-X'.+.C S S k           ",
"            r A S L H.jX,XgXxXqX%XuXcXcXlX5XiXt.X.] #.{ G.bXzX2X3X1X:X5X<X0X~.J ` O...&.#.J V A A R ....^ ..} W ] X.R.iX4XhX4X;XuXnXtX=X.Xl.U A S C             ",
"            < M S S 5.uXyX4X$X'.`.9XyXjXkXgX;X;.} ] #.8.M.4XwXqXtXqX9XpX7XxXOXU ~ { R } ] L A A Z C Y O.W ^ [ ` +.2.OX9XtX3X4X-X|.pX4X8X}.8.S S S b             ",
"            @ g S S Q .X8X}.#X X.X=X4XeX6XrX$X<.J C G R 7._.*XwXpXhXqX8X=XfX&X` L Y L E ] _ @.[ ..) o...W T ~ ` *.M.$X_.0XqXwX1XW.oX4X;X).{ Z S Z a             ",
"              7 V S D u.8XoXOX}.`.{.qX6X;X{.T.X.D C T ' ;.=X1XwXxXpXyX:X;X8X<Xh.-.,.=.Q R R ' X.7.>.1.~ P ( X.X.g.(.|.9XtX{.tXcX9X-X3X%Xb.H S S M               ",
"              & l S S Q '.#X}.|.)._.5X3X[.$X}.;.^ } } O.N.aX<XqXaXeXqX-XpXqXaX`.( { ' P I ^ U ! ] S H @.:.*.=.p.(.3X6XbXzXrXtXfXbX6X&XE.X.Z S A d               ",
"              . 8 C S D 4.#X[.#X X].oX%X1XuX3X$.( | e.XXyXlX0X5X4XwX1X5XgXjX-X-Xu.2.5.'  .;.;.7.=.*.=.i.s.b.^.;X6XlXvXzX9X[.[.4X9XrX'.y.F S S m                 ",
"                % j S S U N.$X X+XXX4X5XjXaX}.:./ j.>X|.!.qXjXeX-XqX<XqXkXlX$X:X*XC.w.;.1.q.D.G.(.oX'.+XXX;X8XeXxX,X0XyX9X4X7XrX6X:XE.! A S Z p                 ",
"                . 4 N S S [ _.,X7X^.uXzXzXrX3X<X5XhX+XL.E. X`.3XeX8XyX7XhXgX4X*X0X=X].=X1X$X XXX].OX;X0X X*XxXlXhX1XuX7XqX,X@X X.XA.,.S S S c                   ",
"                  O i A S F 3.9X5X/.aXiX XsXeXrXgX>XB.E.).J.B.A.;XjX6X-X8XfXkX8X%XjXkXjX>XsXaX0X|.].iXsX`.:XxX@X6XaX8X}.'.(.(.'.T.9.H S S B q                   ",
"                    - z S S L s.<XiXaX;X&X1X>XpXgXjX+X.XW.G.S.K.rX6X$X3X4X9X0X8XsXzXjXhX;X*X>XbXlXsXOX<X0XjX6X@X5X#XuX3X2X$X&X#XD.~ A S Z s                     ",
"                    . 4 M S S Y G.pX3X9X9X<X>XnXbXcX<X=X~.H.C.5X0X$X%X&X0XyXgXcXnXtX+XqXxX<X>XeXcXxXgXzXxX0X5X0XqX.XkXjX4X0X+XI.` A S S z                       ",
"                      o w V S S Q D.wXpX8XsX4XBXBXOX_.8X|.P.#XiX#X:X+X$XOX,XpXkXcXvX0XyXuXhX3XXXyXgXbXvXeXqXpXrXuXeXzXvXaX=XD.[ S S S n 3                       ",
"                        @ u Z S S ! K.pX7XcX5X-XiXU._.tX.X5X0X&X4X:X XOX{.#X%X%X5XeXxX>X-XhXgXhX*X^.wXtXwXjXsXeXdXiX,X,X:XE.o.S S S M 9                         ",
"                          % a Z S S W B.4XkXtXwX<X8X-X3X1XaX@X+X%X{.#X&X X&X X}.%X:XqXuX6XkXvXvXpX X#X;XgXtXlX0XhX2XXXoX^. .S S S N w                           ",
"                          . & s Z S S I s.2XqXzX>X4X7XyXrX@X+X%X{..X@X$X@X`._..X$X.X2X2XqX5XzXbXvXxX,X2XuX5XfX7XjX2X2XC.( S S S N w                             ",
"                            . & i C S S H &.'.wX%X6XfX>X5XgX#XXX[.%X#X@XoXXX+X|.#X$X+X;XyX0X5XeXkXbXiX0XtXwXuX,XsX Xu.T S S S m 0                               ",
"                              . # r B S S D / f.'.|.qXeX9X9XiX7XOX&X-X+X).oX|.[..X).*X4XfXiX%XXXgXiXeX3XqXaX,X}.R.+.F S S A c 5                                 ",
"                                  O 7 b A S S H ..d.^.].@X9XwX9XuX7X$XXX|. X$X X{.+XpX8XuX1XuX*X0X2X X}.%X%XJ.2.Y S S S C h >                                   ",
"                                    . : f C S S S L o.d.R.3XcXgX;XaXuX&X{.$X$X*X*XyX2XwX0XfX0X7X5X8X).T.x.2.E S S S S m r &                                     ",
"                                      . $ 0 v A S S S J _ 0.!.9XpX9X:XeX6X+XoX+XrX>X>XaXfX5XyXfX3XR.0.X.I S S S S V g 1                                         ",
"                                          X ; t n A S S S S L _ 1.v.B.H.=X6XXX&X6X&X>X2X).Q.S.e.X.T F S S S S C l 8 $                                           ",
"                                            . o : t v Z S S S A S D L R ( ..@.&.%.%.X.' Q I F S A S S S A B j 8 &                                               ",
"                                                . X = 9 g M Z S S S S S A A A A A A A A S S S S S A V v i 3 #                                                   ",
"                                                    . . @ : 9 s x M C A S S S S S S S S A Z V n j y 5 * X                                                       ",
"                                                          . . o & > 5 w y a f g h g d i r 9 2 ; # X                                                             ",
"                                                                  . . . . X O + + O o X . .                                                                     ",
"                                                                                                                                                                ",
"                                                                                                                                                                ",
"                                                                                                                                                                "
};
