/* XPM */
static char *_ea0ac925a4f4febae3025bad6a6b67e[] = {
/* columns rows colors chars-per-pixel */
"80 80 247 2 ",
"   c black",
".  c #010101",
"X  c #020202",
"o  c gray1",
"O  c #040404",
"+  c gray2",
"@  c #060606",
"#  c #070707",
"$  c gray3",
"%  c #090909",
"&  c #0B0B0B",
"*  c #0C0C0C",
"=  c gray5",
"-  c #0E0E0E",
";  c #111111",
":  c gray7",
">  c #131313",
",  c gray8",
"<  c #161616",
"1  c gray9",
"2  c #181818",
"3  c #191919",
"4  c gray10",
"5  c #1B1B1B",
"6  c #1D1D1D",
"7  c #1E1E1E",
"8  c gray12",
"9  c #202020",
"0  c gray13",
"q  c #222222",
"w  c #232323",
"e  c #252525",
"r  c #272727",
"t  c #282828",
"y  c gray16",
"u  c #2A2A2A",
"i  c gray17",
"p  c #2C2C2C",
"a  c #2D2D2D",
"s  c gray18",
"d  c #2F2F2F",
"f  c gray19",
"g  c #313131",
"h  c #323232",
"j  c gray20",
"k  c #343434",
"l  c #353535",
"z  c gray21",
"x  c #373737",
"c  c gray22",
"v  c #393939",
"b  c #3A3A3A",
"n  c gray23",
"m  c #3C3C3C",
"M  c gray24",
"N  c #3E3E3E",
"B  c #3F3F3F",
"V  c gray25",
"C  c #414141",
"Z  c gray26",
"A  c #434343",
"S  c #444444",
"D  c gray27",
"F  c #464646",
"G  c gray28",
"H  c #484848",
"J  c #494949",
"K  c gray29",
"L  c #4B4B4B",
"P  c #4C4C4C",
"I  c gray30",
"U  c #4E4E4E",
"Y  c gray31",
"T  c #505050",
"R  c #515151",
"E  c gray32",
"W  c #535353",
"Q  c gray33",
"!  c #555555",
"~  c #565656",
"^  c gray34",
"/  c #585858",
"(  c gray35",
")  c #5A5A5A",
"_  c #5B5B5B",
"`  c gray36",
"'  c #5D5D5D",
"]  c gray37",
"[  c #5F5F5F",
"{  c #606060",
"}  c gray38",
"|  c #626262",
" . c gray39",
".. c #646464",
"X. c #656565",
"o. c gray40",
"O. c #676767",
"+. c #686868",
"@. c DimGray",
"#. c #6A6A6A",
"$. c gray42",
"%. c #6C6C6C",
"&. c #6D6D6D",
"*. c gray43",
"=. c #6F6F6F",
"-. c gray44",
";. c #717171",
":. c #727272",
">. c gray45",
",. c #747474",
"<. c gray46",
"1. c #767676",
"2. c #777777",
"3. c gray47",
"4. c #797979",
"5. c gray48",
"6. c #7B7B7B",
"7. c #7C7C7C",
"8. c gray49",
"9. c #7E7E7E",
"0. c gray50",
"q. c #808080",
"w. c #818181",
"e. c gray51",
"r. c #838383",
"t. c #848484",
"y. c gray52",
"u. c #868686",
"i. c gray53",
"p. c #888888",
"a. c #898989",
"s. c gray54",
"d. c #8B8B8B",
"f. c gray55",
"g. c #8D8D8D",
"h. c #8E8E8E",
"j. c gray56",
"k. c #909090",
"l. c gray57",
"z. c #929292",
"x. c #939393",
"c. c gray58",
"v. c #959595",
"b. c gray59",
"n. c #979797",
"m. c #989898",
"M. c gray60",
"N. c #9A9A9A",
"B. c #9B9B9B",
"V. c gray61",
"C. c #9D9D9D",
"Z. c gray62",
"A. c #9F9F9F",
"S. c #A0A0A0",
"D. c gray63",
"F. c #A2A2A2",
"G. c gray64",
"H. c #A4A4A4",
"J. c #A5A5A5",
"K. c gray65",
"L. c #A7A7A7",
"P. c gray66",
"I. c #A9A9A9",
"U. c #AAAAAA",
"Y. c gray67",
"T. c #ACACAC",
"R. c gray68",
"E. c #AEAEAE",
"W. c #AFAFAF",
"Q. c gray69",
"!. c #B1B1B1",
"~. c #B2B2B2",
"^. c gray70",
"/. c #B4B4B4",
"(. c gray71",
"). c #B6B6B6",
"_. c #B7B7B7",
"`. c gray72",
"'. c #B9B9B9",
"]. c gray73",
"[. c #BBBBBB",
"{. c #BCBCBC",
"}. c gray74",
"|. c gray",
" X c gray75",
".X c #C0C0C0",
"XX c #C1C1C1",
"oX c gray76",
"OX c #C3C3C3",
"+X c gray77",
"@X c #C5C5C5",
"#X c #C6C6C6",
"$X c gray78",
"%X c #C8C8C8",
"&X c gray79",
"*X c #CACACA",
"=X c #CBCBCB",
"-X c gray80",
";X c #CDCDCD",
":X c #CECECE",
">X c gray81",
",X c #D0D0D0",
"<X c gray82",
"1X c #D2D2D2",
"2X c LightGray",
"3X c gray83",
"4X c #D5D5D5",
"5X c gray84",
"6X c #D7D7D7",
"7X c #D8D8D8",
"8X c gray85",
"9X c #DADADA",
"0X c gray86",
"qX c gainsboro",
"wX c #DDDDDD",
"eX c gray87",
"rX c #DFDFDF",
"tX c gray88",
"yX c #E1E1E1",
"uX c #E2E2E2",
"iX c gray89",
"pX c #E4E4E4",
"aX c gray90",
"sX c #E6E6E6",
"dX c #E7E7E7",
"fX c gray91",
"gX c #E9E9E9",
"hX c #EAEAEA",
"jX c gray92",
"kX c #ECECEC",
"lX c gray93",
"zX c #EEEEEE",
"xX c #EFEFEF",
"cX c gray94",
"vX c #F1F1F1",
"bX c gray95",
"nX c #F3F3F3",
"mX c #F4F4F4",
"MX c gray96",
"NX c #F6F6F6",
"BX c gray97",
"VX c #F8F8F8",
"CX c #F9F9F9",
"ZX c gray98",
"AX c gray99",
"SX c #FDFDFD",
"DX c None",
/* pixels */
"DXDXDXDXDXDXDXDXDXDXDXDXDXDXDXDXDXDXDXDXDXDXDXDXDXDXDXDXDXDXDXDXDXDXDXDXDXDXDXDXDXDXDXDXDXDXDXDXDXDXDXDXDXDXDXDXDXDXDXDXDXDXDXDXDXDXDXDXDXDXDXDXDXDXDXDXDXDXDXDX",
"DXDXDXDXDXDXDXDXDXDXDXDXDXDXDXDXDXDXDXDXDXDXDXDXDXDXDXDXDXDXDXDXDXDXDXDXDXDXDXDXDXDXDXDXDXDXDXDXDXDXDXDXDXDXDXDXDXDXDXDXDXDXDXDXDXDXDXDXDXDXDXDXDXDXDXDXDXDXDXDX",
"DXDXDXDXDXDXDXDXDXDXDXDXDXDXDXDXDXDXDXDXDXDXDXDXDXDXDXDXDXDXDXDXDXDXDXDXDXDXDXDXDXDXDXDXDXDXDXDXDXDXDXDXDXDXDXDXDXDXDXDXDXDXDXDXDXDXDXDXDXDXDXDXDXDXDXDXDXDXDXDX",
"DXDXDXDXDXDXDXDXDXDXDXDXDXDXDXDXDXDXDXDXDXDXDXDXDXDXDXDXDXDXDXDXDXDXDXDXDXDXDXDXDXDXDXDXDXDXDXDXDXDXDXDXDXDXDXDXDXDXDXDXDXDXDXDXDXDXDXDXDXDXDXDXDXDXDXDXDXDXDXDX",
"DXDXDXDXDXDXDXDXDXDXDXDXDXDXDXDXDXDXDXDXDXDXDXDXDXDXDXDXDXDXDXDXDXDXDXDXi.8.8.6.6.6.w.p.DXDXDXDXDXDXDXDXDXDXDXDXDXDXDXDXDXDXDXDXDXDXDXDXDXDXDXDXDXDXDXDXDXDXDXDX",
"DXDXDXDXDXDXDXDXDXDXDXDXDXDXDXDXDXDXDXDXDXDXDXDXDXDXDXDXDXDXDX<.$.] ) T P H H F H H H P T ! } $.8.k.DXDXDXDXDXDXDXDXDXDXDXDXDXDXDXDXDXDXDXDXDXDXDXDXDXDXDXDXDXDX",
"DXDXDXDXDXDXDXDXDXDXDXDXDXDXDXDXDXDXDXDXDXDXDXDXDXDXDXDX=.] T H F C F C C F F C C F F C F C F F H T } <.j.DXDXDXDXDXDXDXDXDXDXDXDXDXDXDXDXDXDXDXDXDXDXDXDXDXDXDX",
"DXDXDXDXDXDXDXDXDXDXDXDXDXDXDXDXDXDXDXDXDXDXDXDXDX=.] P F C C F C C C C M M c c M c c M M C C C F C C F P X.w.DXDXDXDXDXDXDXDXDXDXDXDXDXDXDXDXDXDXDXDXDXDXDXDXDX",
"DXDXDXDXDXDXDXDXDXDXDXDXDXDXDXDXDXDXDXDXDXDXDX$.) H C F F C C M c c c x x C c M C M M c c x h h c M C F C F H ] 8.DXDXDXDXDXDXDXDXDXDXDXDXDXDXDXDXDXDXDXDXDXDXDX",
"DXDXDXDXDXDXDXDXDXDXDXDXDXDXDXDXDXDXDXDXDXDX) H F C F C M x x M H ] X.] $.-.<.<.8.<.=.=.X.X.P x M x x c M C F C H ] i.DXDXDXDXDXDXDXDXDXDXDXDXDXDXDXDXDXDXDXDXDX",
"DXDXDXDXDXDXDXDXDXDXDXDXDXDXDXDXDXDXDXDX) P F F C C M M C P P X.p.k.Z.U.U.H.H._.[.H.k.B.k.j.j.-.} } ! M x x M C C F P $.DXDXDXDXDXDXDXDXDXDXDXDXDXDXDXDXDXDXDXDX",
"DXDXDXDXDXDXDXDXDXDXDXDXDXDXDXDXDXDXDXT H C C C M c H } <.i.B.H.~.H.OX+X+X4X*X<XOXF._.<X[.OXE.p.p.8.p.-.! C h x C C C F ) i.DXDXDXDXDXDXDXDXDXDXDXDXDXDXDXDXDXDX",
"DXDXDXDXDXDXDXDXDXDXDXDXDXDXDXDXDX! P F F C M c H X.i.k.E._.;X9X4X X_.+XuXfXOX_.Z.8.4XzX;X;X<X~.;XU.E.F.i.=.P M x c C C C P <.DXDXDXDXDXDXDXDXDXDXDXDXDXDXDXDXDX",
"DXDXDXDXDXDXDXDXDXDXDXDXDXDXDXDXT F F C C M C ] w.B.[.4XqXqX<X+XdXfX*X+XzXfX4X<XE.Z.<XfX;X+XfX*XqXqX[.+X~.Z.-.=.] M h M C F H =.DXDXDXDXDXDXDXDXDXDXDXDXDXDXDXDX",
"DXDXDXDXDXDXDXDXDXDXDXDXDXDXDXP F F F C M ! 8.F. X*XuXqX;X<XdX;XOXfXuX+XdXfXqXvXuX[.OX9X9X<XzX<X9XvX<X+X*X[.H.Z.w.=.H x M C F H X.DXDXDXDXDXDXDXDXDXDXDXDXDXDXDX",
"DXDXDXDXDXDXDXDXDXDXDXDXDXDXH F C F M C X.p.[.;XuXzXuX*X;X<XvXqX;X4X9X4X<XuXqXfXzX9X9XfX*XOXdXqX4XvXzX;X<X4X9X<XH.k.8.) x c C C H X.DXDXDXDXDXDXDXDXDXDXDXDXDXDX",
"DXDXDXDXDXDXDXDXDXDXDXDXDXF F C F M C <.H.OXqXuXzXdX XdXOX;XdX<XqX9X4XqX4XqX9X<X9X<XfXuXOXqXzXdX9XuX<X[.*XzXfXfX4X~.Z.6.) c x C C F $.DXDXDXDXDXDXDXDXDXDXDXDXDX",
"DXDXDXDXDXDXDXDXDXDXDXDXc F C F C H =.H. XqX*X_.<X9X;XuX~.zX9XqXqXuX9XqX<XzXuX9X9XuXzX4X X9XvXzX*XOX[.[.+XqX<XdX4XqX~.b.i.] M x F C H =.DXDXDXDXDXDXDXDXDXDXDXDX",
"DXDXDXDXDXDXDXDXDXDXDXDXF C F C C =.F. X9X4XE.uX9X<XOXH.qXvX9X9XzXfXuX<X+XuX<XdXdX9X9X4X X;XuXdX+XOXOX X[.4X<XuX*XOX~.H.U.<.] M x C F H 6.DXDXDXDXDXDXDXDXDXDXDX",
"DXDXDXDXDXDXDXDXDXDXDXM C F C M X.p. X;XfX*XOXqX_.k.b.[.vXzX9X9XfXuXqX*X9X9XqXzXvXfXuX4X*X[.OXdX4X[.OX~._.;X9X*X_.+X+XdX<XU.k.$.C c C F T i.DXDXDXDXDXDXDXDXDXDX",
"DXDXDXDXDXDXDXDXDXDXc F F C C X.p.F.+XqXfX[.4XvXuX~.F.dXfXmXqXqX9X9X9X*X*XF.H.<XfXvXzXOX;X+X+XzXqXOX X X_._.[.B.i.p.j.k.k.j.j.w.] c M C F ] DXDXDXDXDXDXDXDXDXDX",
"DXDXDXDXDXDXDXDXDXDXC F C C ! j.U._.<XvX<X[.9XmXmXvXuXzXqXVXvXqX<X9XF.-.X.) ) p.<XfXuX[.<X;X+X*XdX*X[.U.<.) ] ] T T T ) ] ! 6.F.8.! c C C H -.DXDXDXDXDXDXDXDXDX",
"DXDXDXDXDXDXDXDXDXc C F C T p.H.OX;XmXmX~.+XqXVXmXVXzXuX9XmXzX9XU.<.X.6.) ] H p.9X*X X[.+XOXOXOX+XH.p.w.] X.8.$.! H T ! ) P T k.Z.=.F x C F ! DXDXDXDXDXDXDXDXDX",
"DXDXDXDXDXDXDXDXt C F C C X.H.4XqX9XmX*XOX4XqXvXmXvXfXzXvXmX;Xi.<.=.8.8.-.$.}  X<X9X<XuX9X9X;XF.-.$.6.<.=.X.X.-.) } =.] T ! X.p.B.6.) h M C H X.DXDXDXDXDXDXDXDX",
"DXDXDXDXDXDXDXDXc C F C $.H.OX*XdXVXSXU. X XF.fXvXdXfXmXfXE.) C F P T P $.] ] F.4XvXvXfX XqX[.) H ! ] ] } T } ! P T P T P ) ) -.OXU.i.) x C F P DXDXDXDXDXDXDXDX",
"DXDXDXDXDXDXDXt C F C P Z.<X4X4XmXmXzXZ. Xj.~.dXzXvXVXqXB.] ! ] ) $.X.-.i.} } k.zXuX4XuXdXE.$.] X.X.X.) ! } X.C ] =.-.<.) ! ) <.;X XU.-.C c C F X.DXDXDXDXDXDXDX",
"DXDXDXDXDXDXDXx F C C } E.qXzXVXSXzXOXH.Z.U.dXmXmXzXOX=.] ! T } ! 6.~.*X=.H P j.vXdX*XuXdX<.F T F F C F ! } } =.~. XuXdXU.T P X. X4XOXp.} c C F T DXDXDXDXDXDXDX",
"DXDXDXDXDXDXDXM C F H k. XOXdXSXmX+X[.U.F.fXmXVXzXF.T X.] ) ) =.b.<XvX_.$.} <.E.zXzXdX<X_.-.-.8.$.=.} X.$.k.*X4XdXdXuXdX<X$.P }  XdX XU.6.C M C H $.DXDXDXDXDXDX",
"DXDXDXDXDXDXp C C C =.OXqX[.<XmX4X+X;XB.qXVXmXdXZ.8.} T } T ] Z.<XqXOX) H P ! B.dXzX4X+X<.T $.! ) } X.k.<XuXfX9XfX9XOX;X_.P X.} [. X[.E.p.) c C F ) DXDXDXDXDXDX",
"DXDXDXDXDXDXc C F F b.4XfXfXdXuX9X9XF.+XvXVX;X6.] } 8.<.6.k.<XfXqX;Xi.=.-.6.B.dXdX<X9X9Xp.) ] ) ! =.k.*XdX4XzX9XfX4X4X;XZ.} -.$.+XqXfX*XF.$.x C C P DXDXDXDXDXDX",
"DXDXDXDXDXDXM F C ! F.qXfXvXvX4X+XE.~.vXmX*X-.T } ] T X.Z.<XzXfXfXZ.P P T w.;X4X*X9XdX XX.} -.w. XdXqX9XqX9XdX4XzX9XfXF.H H P T +XuXfX9XOXw.C M C F X.DXDXDXDXDX",
"DXDXDXDXDXe C C C <._. X<XvXvXdX*X X<XmX[.] ) ! } ! P k.fXqXfX<XU.) $.=.) F.uX4X+X9XuXi.P ] X.6._.;X;X<XuXuX9X;XvXqX X=.X.] =.<.4XqXdX X*XH.$.M C F ) DXDXDXDXDX",
"DXDXDXDXDXp F C F p. X*X<XuX<XuXfXfXzX~.P C C F ! ! b.OX4X4XfXuXb.T P ! 6. XzX;X+X;X9X=.! } } $.} -.-.~.<X9X<XqXvX*X-.T ) P ] w.<XuXzXqX9X[.8.M C C T DXDXDXDXDX",
"DXDXDXDXDXx C F P B.4X9X+XuX*X*X<X<X_.} H F C H -.j.E.~._.;XzXE.X.] P =.+X+XdXfX*X<X<X6.X.=.} X.<.-.=.Z. X;XfXfX_.<.T C C F P b.OXuXzXzXuX[.<.M C F P DXDXDXDXDX",
"DXDXDXDXDXc C C ]  X;XqXfXqXOXOXqXE.$.6.6.$.T ) j.H.E.[._.*X<XX.C ) P k.<XE.<XvXfXqX;X8.H ! } 8.H.~.E.;X<X X_.8.) P C F H =.B.~. XqXqX<X*XU.p.! M C H ] DXDXDXDX",
"DXDXDXDX1 M F C $._.uXvXvXuX+X4X XX.T X.! P X.H.[.[. X X XOXb.=.X.X.<.;X9X*X;XfXvXdX+X*XF. XqXzXvX*X4X*X<X_.6.] X.$.] <.=.k.OX X XuXfX XOX+Xb.} M F F ) DXDXDXDX",
"DXDXDXDX5 M F C <.<XfXqXzX;X+X<X8.F F F C T ~.*XqXvXzXzXzXU.) $.) ] p.[.uXvX9X9XvXzX<X*XqXvXdXqXfX X9X_.w.) P T ! ] T T B.dXzXzXfXvXqX<X9X~.p.) M C F T DXDXDXDX",
"DXDXDXDX8 M C F w.;XdX;XdX*X9X XP F F P ! B.+X XqXfXuXdX[.w.) ! X.-.[.*XdXvXdX4XvXzX+XOX9XzX4X9XuX+X[.$.C C P P P } =.F.uXqXzX*X9XzX<X+X9X;XZ.-.C C F ! DXDXDXDX",
"DXDXDXDXw C C F b.+X;XuXuXOX*Xp.) X.] } b.+X4X9XzXzXqXqX=.! ) ] -.E.vX9X<XfXvXuXfXzX4X;XdX;X9XzXOXp.) F P T X.$.) 6.U.dXvXqXdX[.*XzX4X<X*XqX[.-.M C F T DXDXDXDX",
"DXDXDXDXw C F F B.*X;X;XOX[.Z.) P F C <.dX<X XOXuXfXqX*X$.=.8.-.w.+XfX9X9X;XdX;X[.zXzXuXuX*X<XOX8.T X.=.X.] ) ) ] F._.9XdXuXdX;X<XfX*X<X*X4X~.8.F C C P DXDXDXDX",
"DXDXDXDXw C C F w.+XvXuX<X4X=.C P X.X.+XmX4X*X*X XuX;Xw.=.<.-.} w.~.~.B.;XdXqXOX XvXvX<X XzXOX=.$.! ) ! C C F i.;X*X*X X*XdXdXfXfXfX+X;X*X+XB.=.F C F P DXDXDXDX",
"DXDXDXDXw C F F k.9XvXvXvX<X=.$.] X.X. X9X*X[. X[.E.<.H P H H F P P ] <.w.4XvXqXdXzXvXfXqX[.X.H T F H F C P j.dXzX;X9XqXfXfXuXuXfXuX*X;X;X_.~.i.F C C H DXDXDXDX",
"DXDXDXDX8 C C F k.uXdX9XvX_.$.8.P C F $.=.X.=.) T ) ] ] ) ] ! ! } ! H T ] *XvXqXuXzXvXdXE.X.} ] =.} X.} w.~.+XvXfX9X9X9X4XfX4XOX*X*XOXOXOX[.F.<.C C F H DXDXDXDX",
"DXDXDXDX1 C C F 6.9X9XE.4X~.) ] $.P C H } } ] H F T ) ) X.X.=.X.=.) X.X.6.qX9X4XuXqXdXH.] X.$.P ) H ) k.9X9X+XvXuX9X<X;X4XfX*X+X XOX*X;X<X+XE.-.C C F H DXDXDXDX",
"DXDXDXDX: M C C 8.9X9XU._.*X! } ) } H C X.$.) $.! T ] T $.-.6.-.X.) } <.H.dX*X*X9X;XZ.<.-.-.X.] X.8._.qXuX9XOXvXfX9XqXuX9XfX<X4X<XqX*X+XuXuX_.} C F C H DXDXDXDX",
"DXDXDXDX* c C F =.;XfX+X[.9Xi.=.-.<.<.} X.] ] ! } } T C H T ! T H F F $.;X9X9XuXzXk.) ! ) T M F w.qXzXdXqX9X*XzXvX;X9XqX*X<X9X4X;X<X X<XfX9X~.} C C F C DXDXDXDX",
"DXDXDXDX@ h F C ] OX9X<XOX[.U.=.} -.-.X.) $.} ] } $.=.! H C ! ! =.X.-.E.qXuX9XvX[.) $.] =.-.] i._.4XvXuXqX9X+XvXuX<X;X4XOX<XzXfX9XOX_.4XqX*X_.X.C C F M DXDXDXDX",
"DXDXDXDXDXt F C P ~.qX+X X*X[.$.T X.-.X.H P H H } $.P ) =.! -.8.j.j.H.+XqXzX<X~.} P P -.-.-._._.<XOXzXdXuXqX*X<X X_.k.[.uX9X9X;X<XuXzXdX+XU.B.T C C F DXDXDXDXDX",
"DXDXDXDXDX8 C C H j.;XqX;XzXOXb.-.] =.-.$.=.-.<.] X.P H $._.<X<XfXqXOX+XzXzX+X8.T ! ! X.=.U.uX*XfX9X<X4X_.H.k.<.] P } H.uX9XuXdXuXqX4XfXqX_.8.F C C C DXDXDXDXDX",
"DXDXDXDXDX1 M C C <.4XfX*XvXuX*X;X4X_.+X<XdX<XF.$.] ] =.p.;X;X+X<XzX<XOXfXfX+Xw.6.$.=.j.;X4XuX X[.H.=.-.P F ) ) ) ! 6.4X4X;XfXdX9X;X+X;X4X X-.C C F M DXDXDXDXDX",
"DXDXDXDXDX@ h F F ] OXfX+XzXvX;X;X4X*XfXqXuXvXj.H H H H k.dXzXqX+XfXfX<XqXzXU.T X.T } E.F.6.X.} ) T ) ! ! ) =.$.} ! w.zXuXOX4X<XqXfXfXOX;X[.X.C F C h DXDXDXDXDX",
"DXDXDXDXDXDXe C C H F.fX<XfXzX9X+XuXvXvXzX4XuXw.X.] $.] F.vXzX<X4X<X;X4X<X9X~.H ) X.} $.$.F M C C T } X.! } ] T ] X.E.uX4XfX4X;XuXmXqX*X Xk.P C C C DXDXDXDXDXDX",
"DXDXDXDXDXDX1 c C F 6.uXuX<X+X[._.9XqXfXzXfX;X-.} ] $.8.B.<XqX9XqX9X9XuX4XzXOXP ! } T } ] H C C C C P X.! ! ] ) X.<.OX9XqX<X4X;X[.uX4X9X X8.C F F c DXDXDXDXDXDX",
"DXDXDXDXDXDX@ p C C T  X4X X+X X X*X4XqX4XqX+X<.H C F T 6._.*XqXdXfX9X9X*XdX*X] H T H T ] ) $.] X.) X.} T T ! ) =.B.+X_.9XqXqX<XE.OX<X;X~.] C C C p DXDXDXDXDXDX",
"DXDXDXDXDXDXDX8 C C C i.9XOXOX X_.[.9X4X;X[.U.X.F M T ] =.*X<XqXzXuXuX;X*X9X;Xj.=.<.=.T T T ] } 6.-.<.! P ) } X.j.~. X9XqX[.qXvX9X*X4X+Xb.F C F M DXDXDXDXDXDXDX",
"DXDXDXDXDXDXDX% x F F T [.+X[.[._._.4X4X[.+X X-.! } } X.B.uX<X9XdXqX9X*XuX9XdX_.) ] ] P P ! P ! ] C H $.-.=.=.i._.<X4XvXzXuXqXdXvX4X*XE.X.C F C p DXDXDXDXDXDXDX",
"DXDXDXDXDXDXDX  8 M C F 6.+X[.+X X[. X+X<XuX4X$.) } w. XuXzX9X4X<XqX<X4XdXfX;X*Xi.<.6.) } -.=.6.=.=.=.i.p.b.~.*X4XfXzXzX9X[.[.<X9XqX[.w.F F F c DXDXDXDXDXDXDXDX",
"DXDXDXDXDXDXDXDX@ h C F P B.+X XOXOX<X4XfXdX X-.) j.;X XE.qXfXqX*XqX<X9XfXzX+X;X*XZ.w.-.<.w.F.F.~. X_.OXOX;X9XqXzX<X9XuX9X<X9XqX4X;XU.! C C C t DXDXDXDXDXDXDXDX",
"DXDXDXDXDXDXDXDX  5 M C F ] [.;X4X~.uXzXzXqX<X4X4XfXOXH.E. X_.<XqX9XuX9XfXfX4X*X9X*X[.;X<X+X X X[.OX*X9X X+XzXzXfX<XuX4XqX;X+X X XZ.<.C F F x DXDXDXDXDXDXDXDXDX",
"DXDXDXDXDXDXDXDXDX  t F C C 6.9X4X~.uXuX XdXqXqXfX;XB.E._.F.B.Z.;XfX4X*X9XfXfX9X*XfXfXfX;XdXdX9X X_.uXdX[.;XzX+X4XdX4X X[.~.~.[.E.8.F C C M w DXDXDXDXDXDXDXDXDX",
"DXDXDXDXDXDXDXDXDXDX* x C C H p.;XuXdX;X*X<X;XdXfXfX+XOXE.F.Z.H.qX4X+X<X4X9X9X4XdXzXfXfX;X*X;XvXfXdXOX;X9XfX9X+X4X+XuX4X<X+X*X+XZ.! C F C p DXDXDXDXDXDXDXDXDXDX",
"DXDXDXDXDXDXDXDXDXDX  5 M F F T F.uX<X9X9X<X;XvXvXzX;X*X~.F.Z.4XqX+X*X*X9XuXfXzXmXqXOX9XzX<X;XqXzXzXfXzXzX9X4X9X9XOXfXfX4X9XOXU.] C F C x DXDXDXDXDXDXDXDXDXDXDX",
"DXDXDXDXDXDXDXDXDXDXDX  w C C F ! F.9XdX4XdX4XmXmXOX_.9X XH.+XuX+X;XOX+XOX;XuXzXzXvX9XuXuXfX<XOXuXfXvXvXqX9XdXqXuXqXzXvXdX*XZ.] F C F c 1 DXDXDXDXDXDXDXDXDXDXDX",
"DXDXDXDXDXDXDXDXDXDXDXDX@ t C C C ! H.uX4XzX4X*XuXU._.qXOX4X9X*X4X;X XOX[.+X*X+X4XqXzX;X*XfXfXfX*X~.qXqX9XfXdXqXdXuX;X;X;XE.X.C C F c 8 DXDXDXDXDXDXDXDXDXDXDXDX",
"DXDXDXDXDXDXDXDXDXDXDXDXDX% p C F C T Z.<XzXqXqX<X4X;X<X<XdX+XOX+X X+X*X X*X X[.+X;X9XuX4XzXzXvXuX X+X;XfXqXzX9XfX<XOXOX~.} C F C M w DXDXDXDXDXDXDXDXDXDXDXDXDX",
"DXDXDXDXDXDXDXDXDXDXDXDXDX  % p C C C P p.<XqXzX;X4X4XuXqX+X+X+X[. X+X+XOX_._. X+XOX<X<X9X4XzXvXzXzX<X<XuX4XfX4XfX<X<XB.) C F C M w DXDXDXDXDXDXDXDXDXDXDXDXDXDX",
"DXDXDXDXDXDXDXDXDXDXDXDXDXDX  % t M F C F =.[.9X*X4XdX;X4XfX+XOX[.+X+X+XOX XOX[.+X+XOX;XuX9X4X9XfXvXuX9XqX9XuX;XdX Xi.P C C F c 8 DXDXDXDXDXDXDXDXDXDXDXDXDXDXDX",
"DXDXDXDXDXDXDXDXDXDXDXDXDXDXDX  % e M F F C ! j._. X9XqX9X9XuX4XOX*X*XOX~.OX X[.OX_.*X<XfXuX+XOXfXdXqX<XqXdX;X XE.X.F F F C x 5 DXDXDXDXDXDXDXDXDXDXDXDXDXDXDXDX",
"DXDXDXDXDXDXDXDXDXDXDXDXDXDXDXDXDX@ 8 c C C C H X.p.~.[.+X9XqX9XuX4X+X X X X+X X[.OXdX4XuX<XuX*X9X<X X X*X*XH.<.P F C C M h : DXDXDXDXDXDXDXDXDXDXDXDXDXDXDXDXDX",
"DXDXDXDXDXDXDXDXDXDXDXDXDXDXDXDXDXDX  : p C C F F H X.p.E.<XzXdX*XdXuX*X[.+X+X*X*XqX<X9X9XdX9X4X4X4X_.U.k.<.T C F C C M e % DXDXDXDXDXDXDXDXDXDXDXDXDXDXDXDXDXDX",
"DXDXDXDXDXDXDXDXDXDXDXDXDXDXDXDXDXDXDX  % w c C C F C H ) 8.~.9XuX9X;XqX4XOXOXOXqX;X;XdXdX4XqXdX<XE.8.X.P C F C F M h 1 DXDXDXDXDXDXDXDXDXDXDXDXDXDXDXDXDXDXDXDX",
"DXDXDXDXDXDXDXDXDXDXDXDXDXDXDXDXDXDXDXDXDX  * t c C F C F C H ) <.b.B.F.*X4XOX+X4X*X<X<X_.E.F.w.X.P F C F C F C h 8 @ DXDXDXDXDXDXDXDXDXDXDXDXDXDXDXDXDXDXDXDXDX",
"DXDXDXDXDXDXDXDXDXDXDXDXDXDXDXDXDXDXDXDXDXDX    : e c C C C C C F C H T ) } $.$.$.$.X.] T P F C C C F C C M x 8 % DXDXDXDXDXDXDXDXDXDXDXDXDXDXDXDXDXDXDXDXDXDXDX",
"DXDXDXDXDXDXDXDXDXDXDXDXDXDXDXDXDXDXDXDXDXDXDXDX    * w h M C F C F F C F C C C C C C C F C F F F C C c t 5 @ DXDXDXDXDXDXDXDXDXDXDXDXDXDXDXDXDXDXDXDXDXDXDXDXDX",
"DXDXDXDXDXDXDXDXDXDXDXDXDXDXDXDXDXDXDXDXDXDXDXDXDXDX    @ : 8 p x c C C C F C F F C F C C C M c h t 5 %   DXDXDXDXDXDXDXDXDXDXDXDXDXDXDXDXDXDXDXDXDXDXDXDXDXDXDX",
"DXDXDXDXDXDXDXDXDXDXDXDXDXDXDXDXDXDXDXDXDXDXDXDXDXDXDXDXDX      % : 5 e t p p h h h p t e w 1 : @   DXDXDXDXDXDXDXDXDXDXDXDXDXDXDXDXDXDXDXDXDXDXDXDXDXDXDXDXDXDX",
"DXDXDXDXDXDXDXDXDXDXDXDXDXDXDXDXDXDXDXDXDXDXDXDXDXDXDXDXDXDXDXDXDX            @   @         DXDXDXDXDXDXDXDXDXDXDXDXDXDXDXDXDXDXDXDXDXDXDXDXDXDXDXDXDXDXDXDXDXDX",
"DXDXDXDXDXDXDXDXDXDXDXDXDXDXDXDXDXDXDXDXDXDXDXDXDXDXDXDXDXDXDXDXDXDXDXDXDXDXDXDXDXDXDXDXDXDXDXDXDXDXDXDXDXDXDXDXDXDXDXDXDXDXDXDXDXDXDXDXDXDXDXDXDXDXDXDXDXDXDXDX",
"DXDXDXDXDXDXDXDXDXDXDXDXDXDXDXDXDXDXDXDXDXDXDXDXDXDXDXDXDXDXDXDXDXDXDXDXDXDXDXDXDXDXDXDXDXDXDXDXDXDXDXDXDXDXDXDXDXDXDXDXDXDXDXDXDXDXDXDXDXDXDXDXDXDXDXDXDXDXDXDX",
"DXDXDXDXDXDXDXDXDXDXDXDXDXDXDXDXDXDXDXDXDXDXDXDXDXDXDXDXDXDXDXDXDXDXDXDXDXDXDXDXDXDXDXDXDXDXDXDXDXDXDXDXDXDXDXDXDXDXDXDXDXDXDXDXDXDXDXDXDXDXDXDXDXDXDXDXDXDXDXDX"
};
