/* XPM */
static char *_bdeea4e82be4e04f6d11e278cf71fb9[] = {
/* columns rows colors chars-per-pixel */
"128 128 87 1 ",
"  c #1666AE",
". c #1C69B0",
"X c #216BB1",
"o c #236CB2",
"O c #246CB2",
"+ c #276EB3",
"@ c #286EB3",
"# c #296FB4",
"$ c #2570B3",
"% c #2D70B5",
"& c #2E71B5",
"* c #3273B6",
"= c #3875B8",
"- c #3379B8",
"; c #3D78B9",
": c #4079BA",
"> c #437BBB",
", c #467CBC",
"< c #497DBD",
"1 c #4C7FBE",
"2 c #4D7FBE",
"3 c #4283BD",
"4 c #4785BF",
"5 c #4E80BE",
"6 c #4F80BF",
"7 c #5482C0",
"8 c #5683C1",
"9 c #5787C2",
"0 c #5A85C2",
"q c #5C86C2",
"w c #5F87C3",
"e c #5589C2",
"r c #508CC2",
"t c #568FC4",
"y c #5F96C7",
"u c #658AC5",
"i c #608EC5",
"p c #6A8CC6",
"a c #688EC7",
"s c #708FC8",
"d c #6194C7",
"f c #6797C9",
"g c #6995C9",
"h c #6C99CA",
"j c #6D9FCC",
"k c #729CCC",
"l c #7C9ACD",
"z c #789ECE",
"x c #7DA1CF",
"c c #79A5D0",
"v c #7CA9D1",
"b c #83A3D1",
"n c #89A6D3",
"m c #84AAD3",
"M c #8CAAD4",
"N c #94ABD6",
"B c #8BB3D7",
"V c #90B5D8",
"C c #96B8DA",
"Z c #9BBADB",
"A c #9EB8DB",
"S c #99BCDC",
"D c #A6B9DD",
"F c #A1BDDD",
"G c #A7BFDF",
"H c #ACC2E0",
"J c #A8C6E1",
"K c #B3CBE4",
"L c #B6CFE6",
"P c #C0CEE7",
"I c #C4D2E9",
"U c #C7D7EB",
"Y c #C9D5EA",
"T c #C5D9EB",
"R c #CADBEC",
"E c #D2DCEE",
"W c #D0DEEE",
"Q c #D3E2F0",
"! c #D6E0F0",
"~ c #DBE3F1",
"^ c #E4EAF5",
"/ c #E2ECF5",
"( c #EDF1F8",
") c #F0F5FA",
"_ c #F6F8FC",
"` c gray100",
"' c None",
/* pixels */
"''''''''''''''''''''''''''''''''''''''''''''''''''''''                    ''''''''''''''''''''''''''''''''''''''''''''''''''''''",
"'''''''''''''''''''''''''''''''''''''''''''''''''>                             '''''''''''''''''''''''''''''''''''''''''''''''''",
"''''''''''''''''''''''''''''''''''''''''''''''  %>                                ''''''''''''''''''''''''''''''''''''''''''''''",
"'''''''''''''''''''''''''''''''''''''''''''     %>                                   '''''''''''''''''''''''''''''''''''''''''''",
"''''''''''''''''''''''''''''''''''''''''        %>                                      ''''''''''''''''''''''''''''''''''''''''",
"''''''''''''''''''''''''''''''''''''''          %>   +75.                                 ''''''''''''''''''''''''''''''''''''''",
"'''''''''''''''''''''''''''''''''''             %>   wss5                                    '''''''''''''''''''''''''''''''''''",
"'''''''''''''''''''''''''''''''''s2             %>   uss7                                      '''''''''''''''''''''''''''''''''",
"''''''''''''''''''''''''''''''''  55            %>   =uww.                                      ''''''''''''''''''''''''''''''''",
"''''''''''''''''''''''''''''''     55           %>      =w.                                       ''''''''''''''''''''''''''''''",
"''''''''''''''''''''''''''''        55          %>       =w.                         <0>            ''''''''''''''''''''''''''''",
"'''''''''''''''''''''''''''2>>>>+    55         %>        =u005>>>>>>>>>>>>+        %sss+            '''''''''''''''''''''''''''",
"''''''''''''''''''''''''''@%%%%*u+    57<%      %p+           +%%%%%%%%%%%*w.       %sss+             ''''''''''''''''''''''''''",
"''''''''''''''''''''''''        +w.   =ssp.     %7uX                       ><        <p<                ''''''''''''''''''''''''",
"'''''''''''''''''''''''          *w.  >sss+     %>+0.                       ps<       0                  '''''''''''''''''''''''",
"''''''''''''''''''''''            =5%%.ws5      %> =w.          .%.        %sss%      0                   ''''''''''''''''''''''",
"'''''''''''''''''''''              wss>         %>  =w.        .uspX       +sss+      0                    '''''''''''''''''''''",
"''''''''''''''''''''               0ss0         %>   =000000000wsss%        >0*       0              5s<    ''''''''''''''''''''",
"'''''''''''''''''''                <ss>         %>             XpssX                  0             %sss5>>>>'''''''''''''''''''",
"''''''''''''''''''                  %+          %>              X;X                   0             %sss=%%%%%''''''''''''''''''",
"'''''''''''''''''                               %>                                    0              >0=       '''''''''''''''''",
"''''''''''''''''@%>>>>>>>>>>>>>*                %>                                    0                         ''''''''''''''''",
"'''''''''''''''<%X%%%%%%%%%%%%%0>               %>                                    0                          '''''''''''''''",
"'''''''''''''' >%               57.             %>                                    0                      **   ''''''''''''''",
"'''''''''''''  >%                =wX            +0                                    w.                    <ss<   '''''''''''''",
"'''''''''''''  >%                 %u00+          <<                                   =0             X>=    0ssp000'''''''''''''",
"''''''''''''   >*                  0ss7           0*                                   <>            uss=   <ss>    ''''''''''''",
"'''''''''''   ;ss=  =pu+    >suX   0ss7           .uX                                   w%           sss>    ++      '''''''''''",
"''''''''''    0ss0  ussw>>>>sss>   +77+            %w.                                  .uX          5ss7             ''''''''''",
"''''''''''w.  5ss5  wss7%%%%pss;                    ;<                                   %w           +.<7.           ''''''''''",
"''''''''' =7  .;;   +55.    +7>.                     0                                    0              =w+           '''''''''",
"'''''''''  0                                         0                                    0               +u%          '''''''''",
"''''''''   0                                         0                                    0                X700000000007''''''''",
"'''''''    0                        %;X              0                                    0                              '''''''",
"'''''''    0                       *ssu              0                                    0                              '''''''",
"''''''    .0            .w000000000usss              0                  %ps<              0          >suX                 ''''''",
"''''''   Xpsw          .w=         +ps0              0       %;.        7sss>>>>>>>>>>.   0          sss>                 ''''''",
"''''''   >sss+        .w=           .+               0      *ssw        >ssu%%%%%%%%%;w.  0          pss>                 ''''''",
"'''''    *ssp        .w=                             0      >sss         ;>X          =7  0       >0*+5>w.                 '''''",
"'''''     %>X        0=         X4rrryBBBBBBBBBBBBBBBHBBBBBBmss0            -rrrrrrrrrrzkrbrrrrrrfNNNtrrkbrrrrrr$          '''''",
"''''                5=      -vL/````````````````````````````TX%u.           B```````````````````````````````````r          7''''",
"''''>>>>>>>>>>>>>>>7w>>>>>cT````````````````````````````````T  *7           B```````````````````````````````````r          0''''",
"''''%%%%%%%%%%%%%%%%%%%%m(``````````````````````````````````T   <0000000000wH```````````````````````````````````b00000000000''''",
"'''                   3Q````````````````````````````````````T               B```````````````````````````````````r            '''",
"'''                  B``````````````````````````````````````T               B```````````````````````````````````r           +'''",
"'''                $L```````````````````````````````````````T               B```````````````````````````````````r          *s'''",
"''                $Q````````````````````````````````````````T               B```````````````````````````````````b0000000000pss''",
"''               $Q`````````````````````````````````````````T               B```````````````````````````````````r          >ss''",
"''               L``````````````````````````````````````````T               B```````````````````````````````````r           %*''",
"'               v```````````````)UZjfkrrrrrrrrrrrrrrrrrrrrrr3      rBBjrrrrrJ```````````````````````````````````r              '",
"'#%%%@         3``````````````Kx0u* +7                             B````````````````````````````````````````````r              '",
"'>>>>w=        T````````````T-   Xw>w*                             B`````````T            0           ``````````r              '",
"'    .w=      j````````````v      X%+                              B`````````T            0           ``````````r              '",
"'     .w=     /```````````j                                        B`````````T            +           ``````````r              '",
"       .w=   y```````````j                                         B`````````T                        ``````````r               ",
"        .w=  L``````````L                                          B`````````T                        ``````````r               ",
"         .w=$``````````)$                                          B`````````T                        ``````````r               ",
"          .0M``````````B                                           B`````````T                        ``````````r               ",
"            S`````````)$                                           B`````````T                        ``````````r               ",
"            T`````````J            STTTTTTTTTTTTTTTTTTTTTTTTS      B`````````T                        ``````````r               ",
"            )`````````y            T````````````````````````T      B`````````T                        ``````````r               ",
"            ``````````             T````````````````````````T      B`````````T                        ``````````r               ",
"           $`````````/             T````````````````````````T      V`````````T                        ``````````r               ",
"           r`````````T             T````````````````````````T      F`````````T                        ``````````r               ",
"           r`````````T             T````````````````````````T      G`````````T           5000000000000``````````r               ",
"000wp00=   $`````````(             T````````````````````````T     5G`````````T          5=            ``````````r               ",
"    5=      ``````````$            T````````````````````````T    5=B`````````T         5=             ``````````r               ",
"     5=     )`````````y            T````````````````````````T   5= B`````````T        5=              ``````````r               ",
"      5=    T`````````J            STTTTTTTTTTTR~~~`````````!000=  B`````````T     %+5=    =0000000000``````````b0000000000=    ",
"       5=   B`````````)$                       <;  `````````T      B`````````T    w5w5    +w.         ``````````r               ",
"        5=  y``````````AX                   .><0   `````````T      B`````````T   %5  w   +uX          ``````````r               ",
"         5=  ``````````_lX                  w;>w   `````````T      B`````````T   X0.+u  .0+           ``````````r    +%         ",
"          500I``````````W%                  0  0   `````````T      B`````````T    =ww=uuu=            ``````````r   >ss<        ",
"             r```````````v                  w=*w   `````````R%%%%%%C`````````T       7+ 7+            ``````````r   0ssu        ",
"'             /```````````j                 .>>X   `````````W>>>>>>F`````````T       0. <%            ``````````r   >ss<       '",
"'             y````````````B                       `````````T      B`````````T       *u5w             ``````````r    ;5        '",
"'              T````````````T3                     `````````T      B`````````T        X+              ``````````r    %>        '",
"'              -)`````````````Ly                   `````````T      B`````````)TTTTTTTTTTTTTTTTTTTTTTTT``````````r    %>        '",
"'               v````````````````TBByrrrrrrrrrr-   `````````T      B````````````````````````````````````````````r    %>        '",
"''               J`````````````````````````````B  <`````````T      B````````````````````````````````````````````r    %>       ''",
"''>>>>>>>>>>>>>>>>^````````````````````````````B  0`````````T      B````````````````````````````````````````````r    %>       ''",
"''%%%%%%%%%%%%%%%%9^```````````````````````````B  7`````````T      B````````````````````````````````````````````r    %>       ''",
"'''                5Y``````````````````````````B  .`````````T      B````````````````````````````````````````````r    5;      '''",
"'''      =>+        5A)````````````````````````B   `````````T      B````````````````````````````````````````````r   55       '''",
"'''     =ssp         7eT```````````````````````B   `````````T      B````````````````````````````````````````````r .w;        '''",
"''''    >sss         .w=rQ`````````````````````B   `````````T      B````````````````````````````````````````````r.w=        ''''",
"''''    Xps5          .w= rJ```````````````````B   `````````T      B````````````````````````````````````````````d0=         ''''",
"''''      0            .w000pDL~```````````````B   `````````T      B````````````````````````````````````````````x*          ''''",
"'''''     0                       gzhntrrrrrrrr-   dkrrrrrrr3      rBBFCBBBBBBBBBBBBBBBBBBBBBBBBBBBBBBBBBBBBBBBBi%         '''''",
"'''''     0                       .;>+             %>                 >%                                        >%         '''''",
"''''''    0                                        %>                 >%             +07+                       >%        ''''''",
"''''''    0                                        %>                 >%             wss0%%%%%%%%%+             >%        ''''''",
"''''''   <<  .>;.  +07.    *05.                    %>                 >%             wssw>>>>>>>>>w=           .0<        ''''''",
"''''''' 55   7ss5  uss7%%%%sss;                    5;                 >%             +07+         .w=          0ss>      '''''''",
"'''''''05    uss0  pss0>>>>sss;   %00+            =7                  >%                           .w=         sss0      '''''''",
"''''''''     =sp*  *07+    =07.   uss7           +w.                  >%                            .w=        >sp*     ''''''''",
"'''''''''     >%                  uss7          .w+                   >%                  .%         .w=               '''''''''",
"'''''''''     >%                 =w07.          7=                   =uu+                Xpsw         .w=              '''''''''",
"''''''''''    >%                <0.            =5                    uss7                >sssw000000000ws0000000000000''''''''''",
"''''''''''    >%              .7<              >%                    wss7                %ssp.                        ''''''''''",
"'''''''''''   >%X%%%%%%%%%%%%*w=               >%                    +75.                 +;X                        '''''''''''",
"''''''''''''  >%%>>>>>>>>>>>>>+                >%                                                                   ''''''''''''",
"''''''''''''' >%                               >%                                                                  '''''''''''''",
"''''''''''''' >%                   **          >%              %>%                                                 '''''''''''''",
"''''''''''''''2%                  7ss>         >%             XsssX                                               ''''''''''''''",
"'''''''''''''''o                  sss0         >%   5w00000000wsss%        <0>         <07.                      '''''''''''''''",
"''''''''''''''''                  wss=         >%  >5         .wsw.       =sss+       +sss7>>>>>>>>>>+          ''''''''''''''''",
"'''''''''''''''''                5<++Xps5      >% =0            %         =sss+       Xsss>%%%%%%%%%*u+        '''''''''''''''''",
"''''''''''''''''''              =5   >sss      >%=w.                      .p0>         =0<           +u+      ''''''''''''''''''",
"'''''''''''''''''''            *w.   =ssp      ><w.                       <;                          +u+    '''''''''''''''''''",
"''''''''''''''''''''>>>>>>>>>>>w.   .w<>+      >u.        +%%%%%%%%%%%;>><0                            +u+  ''''''''''''''''''''",
"'''''''''''''''''''''%%%%%%%%%%X   .w=         >*        =7>>>>>>>>>>>=%%%.                             +u@'''''''''''''''''''''",
"''''''''''''''''''''''            .w=          >%       =5                                       .57@    #''''''''''''''''''''''",
"'''''''''''''''''''''''          .w=           >%      =5                                        5ssw%%#+'''''''''''''''''''''''",
"'''''''''''''''''''''''' %%%%%%%%w=            >%   =sp7                                         7ssp>>w''''''''''''''''''''''''",
"'''''''''''''''''''''''''',>>>>>>*             >%   pss7                                         +up= ''''''''''''''''''''''''''",
"'''''''''''''''''''''''''''                    >%   uss<                                             '''''''''''''''''''''''''''",
"''''''''''''''''''''''''''''                   >%   +<;.                                            ''''''''''''''''''''''''''''",
"''''''''''''''''''''''''''''''                 >%                                                 ''''''''''''''''''''''''''''''",
"''''''''''''''''''''''''''''''''               >%                                               ''''''''''''''''''''''''''''''''",
"'''''''''''''''''''''''''''''''''              >%                                              '''''''''''''''''''''''''''''''''",
"'''''''''''''''''''''''''''''''''''            =+                                            '''''''''''''''''''''''''''''''''''",
"''''''''''''''''''''''''''''''''''''''                                                    ''''''''''''''''''''''''''''''''''''''",
"''''''''''''''''''''''''''''''''''''''''                                                ''''''''''''''''''''''''''''''''''''''''",
"'''''''''''''''''''''''''''''''''''''''''''                                          '''''''''''''''''''''''''''''''''''''''''''",
"''''''''''''''''''''''''''''''''''''''''''''''                                    ''''''''''''''''''''''''''''''''''''''''''''''",
"'''''''''''''''''''''''''''''''''''''''''''''''''                              '''''''''''''''''''''''''''''''''''''''''''''''''",
"''''''''''''''''''''''''''''''''''''''''''''''''''''''                    ''''''''''''''''''''''''''''''''''''''''''''''''''''''"
};
