/* XPM */
static char *_14378c9fad24092c9266b74b9603498[] = {
/* columns rows colors chars-per-pixel */
"16 16 53 1 ",
"  c #1666AE",
". c #1C69B0",
"X c #1E69B0",
"o c #216BB1",
"O c #276EB3",
"+ c #286EB3",
"@ c #2B6FB4",
"# c #2570B3",
"$ c #2D70B5",
"% c #2E71B5",
"& c #3273B6",
"* c #3875B8",
"= c #3A76B8",
"- c #3B7ABA",
"; c #3D78B9",
": c #4079BA",
"> c #437BBB",
", c #417CBB",
"< c #467CBC",
"1 c #497DBD",
"2 c #4283BD",
"3 c #4E80BE",
"4 c #4D88C0",
"5 c #5A85C2",
"6 c #538AC2",
"7 c #508CC2",
"8 c #568FC4",
"9 c #588DC4",
"0 c #5C91C6",
"q c #608EC5",
"w c #6194C7",
"e c #6797C9",
"r c #6C99CA",
"t c #729CCC",
"y c #789ECE",
"u c #84AAD3",
"i c #8BB3D7",
"p c #90B5D8",
"a c #96B8DA",
"s c #99BCDC",
"d c #9FBFDD",
"f c #A1BDDD",
"g c #A7BFDF",
"h c #A8C6E1",
"j c #B6CFE6",
"k c #C5D9EB",
"l c #CADBEC",
"z c #D0DEEE",
"x c #E2ECF5",
"c c #F0F5FA",
"v c #F6F8FC",
"b c gray100",
"n c None",
/* pixels */
"nnnnn ;.   nnnnn",
"nnn@>O=%&*&o nnn",
"nn%%; *%@O% ==nn",
"n;1>= *   oo&>@n",
"n>o%y7w6 qewew-n",
"$%fvbbbl%abbbbt5",
"$0bjw772kxiphb7.",
" fb#skkskk  7b7 ",
"*db#szcllk=>tbro",
" 9bj7ekllxgahbt ",
"@3uvbbkkkbbbbbr ",
"n,>;479264ere0,n",
"n&%%=@o &. ;%&&n",
"nnO%1*&1;1O=$.nn",
"nnn&O%&     <nnn",
"nnnnn.     nnnnn"
};
