/* XPM */
static char *_e34784e6fac48049923d2359f9da6ee[] = {
/* columns rows colors chars-per-pixel */
"32 32 2 1 ",
"  c #93014A",
". c None",
/* pixels */
"................................",
"................................",
"................................",
"................................",
"................................",
"................................",
"...... . .......................",
"......   .......................",
"....        ........        ....",
"...           ....           ...",
"..      .     ...             ..",
".    ....... ....    ......    .",
".   ............    ........   .",
"    ............   .........    ",
"   .............   .........    ",
"   ........   ..   .........    ",
"    .......   ..   .........    ",
".   .......   ..    ........   .",
".    ......   ...   .......    .",
"..    ....    ...     ....    ..",
"..            ....            ..",
"....         ......         ....",
"......    ............    ......",
"...... . .......................",
"................................",
"................................",
"................................",
"................................",
"................................",
"................................",
"................................",
"................................"
};
