/* XPM */
static char *_000e5185bdf4ca0d53bdcad212e2bab[] = {
/* columns rows colors chars-per-pixel */
"64 64 63 1 ",
"  c #1666AE",
". c #1C69B0",
"X c #1D69B0",
"o c #1E69B0",
"O c #216BB1",
"+ c #276EB3",
"@ c #286EB3",
"# c #2B6FB4",
"$ c #2570B3",
"% c #2D70B5",
"& c #2E71B5",
"* c #3172B6",
"= c #3273B6",
"- c #3577B8",
"; c #3875B8",
": c #3379B8",
"> c #3B7ABA",
", c #3D78B9",
"< c #3E78BA",
"1 c #437BBB",
"2 c #497DBD",
"3 c #4283BD",
"4 c #4E80BE",
"5 c #5482C0",
"6 c #5A85C2",
"7 c #5F87C3",
"8 c #508CC2",
"9 c #568FC4",
"0 c #5F96C7",
"q c #6088C3",
"w c #658AC5",
"e c #6A8CC6",
"r c #708FC8",
"t c #6194C7",
"y c #6797C9",
"u c #6C99CA",
"i c #6D9FCC",
"p c #7195CA",
"a c #729CCC",
"s c #709ECC",
"d c #75A0CE",
"f c #7BA3CF",
"g c #8EA8D4",
"h c #8BB3D7",
"j c #90B5D8",
"k c #96B8DA",
"l c #99BCDC",
"z c #A1BDDD",
"x c #A8C6E1",
"c c #ADC8E2",
"v c #B6CFE6",
"b c #BCD2E7",
"n c #C4D2E9",
"m c #C5D9EB",
"M c #CADBEC",
"N c #CDD9EC",
"B c #D3E2F0",
"V c #DFE7F3",
"C c #E2ECF5",
"Z c #F0F5FA",
"A c #F6F8FC",
"S c gray100",
"D c None",
/* pixels */
"DDDDDDDDDDDDDDDDDDDDDDDDD              DDDDDDDDDDDDDDDDDDDDDDDDD",
"DDDDDDDDDDDDDDDDDDDDDD  %                 DDDDDDDDDDDDDDDDDDDDDD",
"DDDDDDDDDDDDDDDDDDD     % o,.                DDDDDDDDDDDDDDDDDDD",
"DDDDDDDDDDDDDDDDDo      % 1r;                  DDDDDDDDDDDDDDDDD",
"DDDDDDDDDDDDDDD  ,.     % O1,                    DDDDDDDDDDDDDDD",
"DDDDDDDDDDDDDD%%. ,.    %   .,%%%%%%%+    2eO     DDDDDDDDDDDDDD",
"DDDDDDDDDDDD    ,  57.  ,+           %O   2eO       DDDDDDDDDDDD",
"DDDDDDDDDDD     .,%5e.  %=+     +o   Or2   %         DDDDDDDDDDD",
"DDDDDDDDDD       ,r,    % *%%%%;r5   ow1   %      +,  DDDDDDDDDD",
"DDDDDDDDD        +6+    %      o5;         %      6r,%%DDDDDDDDD",
"DDDDDDDDo%%%%%%+        %                  %      +,    DDDDDDDD",
"DDDDDDD=       +;       %                  %          OO DDDDDDD",
"DDDDDD %        .,1.    =.                 ,      o%  ee%=DDDDDD",
"DDDDDD 21 ,=  ,= 1r1     ,                 O=     1r% 22  DDDDDD",
"DDDDD@ ee re%%r6 .1.     .;                 %+    +2>      DDDDD",
"DDDD = OO %%  %+          %                  %      o>o     DDDD",
"DDDD %            %.      %                  %        %%%%%%DDDD",
"DDD  =      +%%%%,r1      %         *,       %    +1.        DDD",
"DDD +r2    +=    .5%      %   15    qr%%%%*@ %    1r%        DDD",
"DD  O6=   +=    :888888888t888pr    O+38888u9t889guuu888$     DD",
"DD%%%%%%%*2%%ivSSSSSSSSSSSSSSSj;+     mSSSSSSSSSSSSSSSSS8    %DD",
"DD         0CSSSSSSSSSSSSSSSSSh +%%%%*MSSSSSSSSSSSSSSSSSt%%%%%DD",
"D        $xSSSSSSSSSSSSSSSSSSSh       mSSSSSSSSSSSSSSSSS8    OqD",
"D       $BSSSSSSSSSSSSSSSSSSSSh       mSSSSSSSSSSSSSSSSSt%%%%1rD",
"D       xSSSSSSSSMMmmmmmmmmmmmi  $8888BSSSSSSSSSSSSSSSSS8     %D",
"%%=o   0SSSSSSB0*,;              8SSSSShhhhhhkhhhhhSSSSS8       ",
"   ,.  CSSSSSx                   8SSSSS      +     SSSSS8       ",
"    ,.iSSSSSx                    8SSSSS            SSSSS8       ",
"     ,bSSSSZ$                    8SSSSS            SSSSS8       ",
"      ZSSSSh     8hhhhhhhhhhhh8  8SSSSS            SSSSS8       ",
"      SSSSS3     hSSSSSSSSSSSSh  8SSSSS            SSSSS8       ",
"     3SSSSS      hSSSSSSSSSSSSh  8SSSSS            SSSSS8       ",
"%=*+ 3SSSSS      hSSSSSSSSSSSSh  uSSSSS     ,%%%%%%SSSSS8       ",
"  ,.  SSSSS3     hSSSSSSSSSSSSh ,9SSSSS    ,.      SSSSS8       ",
"   ,o ZSSSSh     8hhhhhkjmSSSSk%o8SSSSS  =1o =%%%%%SSSSSt%%%%+  ",
"    ,.xSSSSZ;         ;2 hSSSSh  8SSSSS  =; +%     SSSSS8 OO    ",
"     *iSSSSSc         ;; hSSSSh  8SSSSS  %;;,      SSSSS8 ee    ",
"       CSSSSSx        OO hSSSSk%%tSSSSS   +**      SSSSS8 24    ",
"       0SSSSSSBi         hSSSSh  8SSSSShhhhhhhhhhhhSSSSS8  %    ",
"D       xSSSSSSSSmmmmmml kSSSSh  8SSSSSSSSSSSSSSSSSSSSSS8  %   D",
"D%%%%%%%%VSSSSSSSSSSSSSm zSSSSh  8SSSSSSSSSSSSSSSSSSSSSS8  %   D",
"D   O+   +nSSSSSSSSSSSSm hSSSSh  8SSSSSSSSSSSSSSSSSSSSSS8 ;O   D",
"DD  6r    +fCSSSSSSSSSSm hSSSSh  8SSSSSSSSSSSSSSSSSSSSSS8,.   DD",
"DD  =2     +;dNASSSSSSSm hSSSSh  8SSSSSSSSSSSSSSSSSSSSSSao    DD",
"DD   %           yu88883 :t888:  $8t88888888888888888888>     DD",
"DDD  %                    %        %      =r=           %    DDD",
"DDD ;O=6%=r% ;e+         O+        %      *r;%%%%,o    =7O   DDD",
"DDDDo ,r;*r;%2r+ 76      ,         %              ,.   ,r*  DDDD",
"DDDD   %        .e6     ,.        .4.       .5%    ,o       DDDD",
"DDDDD  %       +;      +O         1r1       %r5%%%%%;%%%%%%DDDDD",
"DDDDDD %+%%%%%%=       %          .;.        %o           DDDDDD",
"DDDDDD %         OO    %       .+                         DDDDDD",
"DDDDDDD#         ew    %  %%%%%6r+   +,    +,            DDDDDDD",
"DDDDDDDD        O521+  % =+    =4.   6r+   4r,%%%%;     DDDDDDDD",
"DDDDDDDDD      o, %r1  %=+           ,,    +,     .,   DDDDDDDDD",
"DDDDDDDDDD=%%%%=  ,%.  %+   .=%%%%%=%+             ., DDDDDDDDDD",
"DDDDDDDDDDD      ,.    %   o,                   %w= oDDDDDDDDDDD",
"DDDDDDDDDDDD@%%%;o     %  ew                    %r2,DDDDDDDDDDDD",
"DDDDDDDDDDDDDD         %  64                      DDDDDDDDDDDDDD",
"DDDDDDDDDDDDDDD        %                         DDDDDDDDDDDDDDD",
"DDDDDDDDDDDDDDDDD      %                       DDDDDDDDDDDDDDDDD",
"DDDDDDDDDDDDDDDDDDD                          DDDDDDDDDDDDDDDDDDD",
"DDDDDDDDDDDDDDDDDDDDDD                    DDDDDDDDDDDDDDDDDDDDDD",
"DDDDDDDDDDDDDDDDDDDDDDDDD              DDDDDDDDDDDDDDDDDDDDDDDDD"
};
