/* XPM */
static char *bitcoin64[] = {
/* columns rows colors chars-per-pixel */
"64 64 161 2 ",
"   c #F79319",
".  c #F6921A",
"X  c #F7921A",
"o  c #F6931A",
"O  c #F7931A",
"+  c #F7931B",
"@  c #F79419",
"#  c #F6941A",
"$  c #F7941A",
"%  c #F7941B",
"&  c #F7941C",
"*  c #F7941D",
"=  c #F7951E",
"-  c #F7961F",
";  c #F8921A",
":  c #F8931A",
">  c #F8931B",
",  c #F89419",
"<  c #F79621",
"1  c #F79722",
"2  c #F79723",
"3  c #F79824",
"4  c #F79825",
"5  c #F79927",
"6  c #F79A28",
"7  c #F89A29",
"8  c #F89B2A",
"9  c #F89B2B",
"0  c #F89B2C",
"q  c #F89C2D",
"w  c #F89C2E",
"e  c #F89D2F",
"r  c #F89E30",
"t  c #F89E31",
"y  c #F89E32",
"u  c #F8A035",
"i  c #F8A137",
"p  c #F8A138",
"a  c #F8A139",
"s  c #F8A23A",
"d  c #F8A33B",
"f  c #F8A43D",
"g  c #F8A43E",
"h  c #F8A540",
"j  c #F8A541",
"k  c #F8A642",
"l  c #F8A744",
"z  c #F9A745",
"x  c #F9A847",
"c  c #F9A948",
"v  c #F9A949",
"b  c #F9A94A",
"n  c #F9AA4B",
"m  c #F9AB4D",
"M  c #F9AC4F",
"N  c #F9AE53",
"B  c #F9AF54",
"V  c #F9AF55",
"C  c #F9AF56",
"Z  c #F9B159",
"A  c #F9B15A",
"S  c #F9B15B",
"D  c #F9B35E",
"F  c #F9B45F",
"G  c #F9B460",
"H  c #F9B461",
"J  c #FAB562",
"K  c #FAB563",
"L  c #FAB665",
"P  c #FAB765",
"I  c #FAB766",
"U  c #FAB767",
"Y  c #FAB868",
"T  c #FAB96A",
"R  c #FABB6E",
"E  c #FABD72",
"W  c #FABD73",
"Q  c #FABD74",
"!  c #FABF76",
"~  c #FAC079",
"^  c #FAC07A",
"/  c #FAC17B",
"(  c #FAC17C",
")  c #FAC27E",
"_  c #FBC482",
"`  c #FBC583",
"'  c #FBC686",
"]  c #FBC788",
"[  c #FBC889",
"{  c #FBC88A",
"}  c #FBC88B",
"|  c #FBC98D",
" . c #FBCB91",
".. c #FBCC92",
"X. c #FBCD94",
"o. c #FBCE97",
"O. c #FBCF99",
"+. c #FBCF9A",
"@. c #FBD09A",
"#. c #FCD19D",
"$. c #FCD2A0",
"%. c #FCD3A2",
"&. c #FCD4A4",
"*. c #FCD5A5",
"=. c #FCD6A8",
"-. c #FCD8AB",
";. c #FCD8AD",
":. c #FCD9AE",
">. c #FCD9AF",
",. c #FCDAB0",
"<. c #FCDBB2",
"1. c #FCDBB3",
"2. c #FCDBB4",
"3. c #FCDCB4",
"4. c #FCDCB5",
"5. c #FCDDB6",
"6. c #FDDEB9",
"7. c #FDDEBA",
"8. c #FDE3C4",
"9. c #FDE4C6",
"0. c #FDE5C7",
"q. c #FDE7CD",
"w. c #FDE8CF",
"e. c #FDE9CF",
"r. c #FDE9D1",
"t. c #FDEAD2",
"y. c #FDEAD3",
"u. c #FDEBD4",
"i. c #FEECD7",
"p. c #FEEDD8",
"a. c #FEEEDA",
"s. c #FEEEDB",
"d. c #FEEEDC",
"f. c #FEEFDD",
"g. c #FEF0DF",
"h. c #FEF0E0",
"j. c #FEF1E0",
"k. c #FEF1E2",
"l. c #FEF2E4",
"z. c #FEF3E5",
"x. c #FEF3E6",
"c. c #FEF4E9",
"v. c #FEF5EA",
"b. c #FEF6EB",
"n. c #FEF6EC",
"m. c #FEF7ED",
"M. c #FEF7EF",
"N. c #FEF8F0",
"B. c #FEF8F1",
"V. c #FFF9F2",
"C. c #FFFAF4",
"Z. c #FFFAF5",
"A. c #FFFBF6",
"S. c #FFFBF7",
"D. c #FFFCF9",
"F. c #FFFDFB",
"G. c #FFFEFC",
"H. c #FFFEFD",
"J. c #FFFFFE",
"K. c white",
"L. c None",
/* pixels */
"L.L.L.L.L.L.L.L.L.L.L.L.L.L.L.L.L.L.L.L.L.L.L.L.L.L.O : O O : O O O + % , L.L.L.L.L.L.L.L.L.L.L.L.L.L.L.L.L.L.L.L.L.L.L.L.L.L.L.",
"L.L.L.L.L.L.L.L.L.L.L.L.L.L.L.L.L.L.L.L.L.L.+ O O O O O O O O O O O O O O O O O : O L.L.L.L.L.L.L.L.L.L.L.L.L.L.L.L.L.L.L.L.L.L.",
"L.L.L.L.L.L.L.L.L.L.L.L.L.L.L.L.L.L.L.L.O O O O O O O O O O O O O O O O O O O O O O O O L.L.L.L.L.L.L.L.L.L.L.L.L.L.L.L.L.L.L.L.",
"L.L.L.L.L.L.L.L.L.L.L.L.L.L.L.L.L.L.O O O O O O O O O O O O O O O O O O O O O O O O O O O O L.L.L.L.L.L.L.L.L.L.L.L.L.L.L.L.L.L.",
"L.L.L.L.L.L.L.L.L.L.L.L.L.L.L.L.O O O O O O O O O O O O O O O O O O O O O O O O O O O O O O O O L.L.L.L.L.L.L.L.L.L.L.L.L.L.L.L.",
"L.L.L.L.L.L.L.L.L.L.L.L.L.L.O O O O O O O O O O O O O O O O O O O O O O O O O O O O O O O O O O O O L.L.L.L.L.L.L.L.L.L.L.L.L.L.",
"L.L.L.L.L.L.L.L.L.L.L.L.L.O O O O O O O O O O O O O O O O O O O O O O O O O O O O O O O O O O O O O % L.L.L.L.L.L.L.L.L.L.L.L.L.",
"L.L.L.L.L.L.L.L.L.L.L.O O O O O O O O O O O O O O O O O O O O O O O O O O O O O O O O O O O O O O O O O % L.L.L.L.L.L.L.L.L.L.L.",
"L.L.L.L.L.L.L.L.L.L.: O O O O O O O O O O O O O O O O O O O O O O O O O O O O O O O O O O O O O O O O O O , L.L.L.L.L.L.L.L.L.L.",
"L.L.L.L.L.L.L.L.L.: O O O O O O O O O O O O O O O O O O O O O O O O O O O O O O O O O O O O O O O O O O O O : L.L.L.L.L.L.L.L.L.",
"L.L.L.L.L.L.L.L.: O O O O O O O O O O O O O O O O O O O O O O O O O O O O O O O O O O O O O O O O O O O O O O O L.L.L.L.L.L.L.L.",
"L.L.L.L.L.L.L.: O O O O O O O O O O O O O O O O O O O O O O T -.! d O O O O O O O O O O O O O O O O O O O O O O % L.L.L.L.L.L.L.",
"L.L.L.L.L.L.L.O O O O O O O O O O O O O O O O O O O O O O O ,.K.K.K.0 O + g O O O O O O O O O O O O O O O O O O O L.L.L.L.L.L.L.",
"L.L.L.L.L.L.% O O O O O O O O O O O O O O O O O O O O O O O b.K.K.u.O O c K.b.>.c O O O O O O O O O O O O O O O O O L.L.L.L.L.L.",
"L.L.L.L.L.+ O O O O O O O O O O O O O O O O O O O O O O O g K.K.K.#.O O _ K.K.K.S O O O O O O O O O O O O O O O O O O L.L.L.L.L.",
"L.L.L.L.L.O O O O O O O O O O O O O O O O O 6.| N < O O O ! K.K.K.L O O 6.K.K.F.4 O O O O O O O O O O O O O O O O O O L.L.L.L.L.",
"L.L.L.L.O O O O O O O O O O O O O O O O O k K.K.K.F.9.{ B 4.K.K.K.0 O = N.K.K.w.O O O O O O O O O O O O O O O O O O O O L.L.L.L.",
"L.L.L.O O O O O O O O O O O O O O O O O O ^ K.K.K.K.K.K.K.K.K.K.b.f O x K.K.K...O O O O O O O O O O O O O O O O O O O O L.L.L.L.",
"L.L.L.% O O O O O O O O O O O O O O O O O ,.K.K.K.K.K.K.K.K.K.K.K.K.b.i.K.K.K.S O O O O O O O O O O O O O O O O O O O O O L.L.L.",
"L.L.L.O O O O O O O O O O O O O O O O O O = M ] f.K.K.K.K.K.K.K.K.K.K.K.K.K.K.{ 6 O O O O O O O O O O O O O O O O O O O O L.L.L.",
"L.L.O O O O O O O O O O O O O O O O O O O O O O 2 s.K.K.K.K.K.K.K.K.K.K.K.K.K.K.Z.%.d O O O O O O O O O O O O O O O O O O O L.L.",
"L.L.O O O O O O O O O O O O O O O O O O O O O O % =.K.K.K.K.K.F.Z.K.K.K.K.K.K.K.K.K.Z.( O O O O O O O O O O O O O O O O O O L.L.",
"L.O O O O O O O O O O O O O O O O O O O O O O O O r.K.K.K.K.K.,.= c ' q.K.K.K.K.K.K.K.K.+.O O O O O O O O O O O O O O O O O O L.",
"L.O O O O O O O O O O O O O O O O O O O O O O O 7 K.K.K.K.K.K.! O O O O x 8.K.K.K.K.K.K.K.L O O O O O O O O O O O O O O O O O L.",
"L.O O O O O O O O O O O O O O O O O O O O O O O G K.K.K.K.K.K.k O O O O O + *.K.K.K.K.K.K.i.% O O O O O O O O O O O O O O O O L.",
"L.O O O O O O O O O O O O O O O O O O O O O O O @.K.K.K.K.K.b.O O O O O O O 5 N.K.K.K.K.K.K.7 O O O O O O O O O O O O O O O O L.",
"L.O O O O O O O O O O O O O O O O O O O O O O O u.K.K.K.K.K.,.O O O O O O O O 8.K.K.K.K.K.K.d O O O O O O O O O O O O O O O O L.",
", O O O O O O O O O O O O O O O O O O O O O O 7 K.K.K.K.K.K.^ O O O O O O O O x.K.K.K.K.K.K.7 O O O O O O O O O O O O O O O O O ",
"O O O O O O O O O O O O O O O O O O O O O O O G K.K.K.K.K.K.m O O O O O O O ^ K.K.K.K.K.K.u.O O O O O O O O O O O O O O O O O O ",
"O O O O O O O O O O O O O O O O O O O O O O O @.K.K.K.K.K.K.K.r.#.E S N T ,.K.K.K.K.K.K.K.] O O O O O O O O O O O O O O O O O O ",
"O O O O O O O O O O O O O O O O O O O O O O O r.K.K.K.K.K.K.K.K.K.K.K.K.K.K.K.K.K.K.K.K.h.5 O O O O O O O O O O O O O O O O O O ",
"O O O O O O O O O O O O O O O O O O O O O O 6 K.K.K.K.K.K.K.K.K.K.K.K.K.K.K.K.K.K.K.K.w.i O O O O O O O O O O O O O O O O O O O ",
"O O O O O O O O O O O O O O O O O O O O O O G K.K.K.K.K.K. .2.b.K.K.K.K.K.K.K.K.K.M.D O O O O O O O O O O O O O O O O O O O O O ",
"O O O O O O O O O O O O O O O O O O O O O O +.K.K.K.K.K.M.O O O l { j.K.K.K.K.K.K.K.f.k O O O O O O O O O O O O O O O O O O O % ",
"O O O O O O O O O O O O O O O O O O O O O O r.K.K.K.K.K.,.O O O O O O T x.K.K.K.K.K.K.N.k O O O O O O O O O O O O O O O O O O O ",
"% O O O O O O O O O O O O O O O O O O O O 7 K.K.K.K.K.K.( O O O O O O O q r.K.K.K.K.K.K.q.+ O O O O O O O O O O O O O O O O O O ",
": O O O O O O O O O O O O O O O O O O O O F K.K.K.K.K.K.k O O O O O O O O d K.K.K.K.K.K.K.l O O O O O O O O O O O O O O O O O O ",
"O O O O O O O O O O O O O O O O O B i O O >.K.K.K.K.K.M.O O O O O O O O O O s.K.K.K.K.K.K.R O O O O O O O O O O O O O O O O O L.",
"L.O O O O O O O O O O O O O O O y F.K.j.r.K.K.K.K.K.K.,.O O O O O O O O O O c.K.K.K.K.K.K.E O O O O O O O O O O O O O O O O O L.",
"L.O O O O O O O O O O O O O O O  .K.K.K.K.K.K.K.K.K.K.( O O O O O O O O O S K.K.K.K.K.K.K.B O O O O O O O O O O O O O O O O O L.",
"L.O O O O O O O O O O O O O O < M.K.K.K.K.K.K.K.K.K.K.g.%.Y d O O : O = G M.K.K.K.K.K.K.F.< % O O O O O O O O O O O O O O O : L.",
"L.O O O O O O O O O O O O O O x s.K.K.K.K.K.K.K.K.K.K.K.K.K.K.N.u.8.r.Z.K.K.K.K.K.K.K.K.,.O O O O O O O O O O O O O O O O O O L.",
"L.L.O O O O O O O O O O O O O O O q L %.s.K.K.K.K.K.K.K.K.K.K.K.K.K.K.K.K.K.K.K.K.K.K.K.c O O O O O O O O O O O O O O O O O L.L.",
"L.L.O O O O O O O O O O O O O O O O % O O y %.K.K.K.K.K.K.K.K.K.K.K.K.K.K.K.K.K.K.K.K.+.O O O O O O O O O O O O O O O O O O L.L.",
"L.L.L.O O O O O O O O O O O O O O O O O O O -.K.K.K._ 3.M.K.K.K.K.K.K.K.K.K.K.K.K.K.-.= O O O O O O O O O O O O O O O O O L.L.L.",
"L.L.L.O O O O O O O O O O O O O O O O O O O x.K.K.s.O O x K.K.K.N.K.K.K.K.K.K.K.r.L O O O O O O O O O O O O O O O O O O O L.L.L.",
"L.L.L.L.O O O O O O O O O O O O O O O O O d K.K.K.%.O O ^ K.K.K.F = k N L G B 7 % O O O O O O O O O O O O O O O O O O O L.L.L.L.",
"L.L.L.L.O O O O O O O O O O O O O O O O O E K.K.K.T O O 3.K.K.F.6 : O O % O : O O O O O O O O O O O O O O O O O O O O O L.L.L.L.",
"L.L.L.L.L.O O O O O O O O O O O O O O O O >.K.K.K.q % % b.K.K.r.O O O O O O O O O O O O O O O O O O O O O O O O O O O L.L.L.L.L.",
"L.L.L.L.L.O O O O O O O O O O O O O O O O N +.r.i.% O k K.K.K.+.O O O O O O O O O O O O O O O O O O O O O O O O O O O L.L.L.L.L.",
"L.L.L.L.L.L.% O O O O O O O O O O O O O O O O O = O O T K.K.K.F O O O O O O O O O O O O O O O O O O O O O O O O O O L.L.L.L.L.L.",
"L.L.L.L.L.L.L.O O O O O O O O O O O O O O O O O O O O O 5 D o.6 O O O O O O O O O O O O O O O O O O O O O O O O O L.L.L.L.L.L.L.",
"L.L.L.L.L.L.L.% O O O O O O O O O O O O O O O O O O O O O O O O O O O O O O O O O O O O O O O O O O O O O O O O O L.L.L.L.L.L.L.",
"L.L.L.L.L.L.L.L.: O O O O O O O O O O O O O O O O O O O O O O O O O O O O O O O O O O O O O O O O O O O O O O O L.L.L.L.L.L.L.L.",
"L.L.L.L.L.L.L.L.L.O O O O O O O O O O O O O O O O O O O O O O O O O O O O O O O O O O O O O O O O O O O O O , L.L.L.L.L.L.L.L.L.",
"L.L.L.L.L.L.L.L.L.L.: O O O O O O O O O O O O O O O O O O O O O O O O O O O O O O O O O O O O O O O O O O O L.L.L.L.L.L.L.L.L.L.",
"L.L.L.L.L.L.L.L.L.L.L.O O O O O O O O O O O O O O O O O O O O O O O O O O O O O O O O O O O O O O O O O : L.L.L.L.L.L.L.L.L.L.L.",
"L.L.L.L.L.L.L.L.L.L.L.L.L.% O O O O O O O O O O O O O O O O O O O O O O O O O O O O O O O O O O O O O L.L.L.L.L.L.L.L.L.L.L.L.L.",
"L.L.L.L.L.L.L.L.L.L.L.L.L.L.O O O O O O O O O O O O O O O O O O O O O O O O O O O O O O O O O O O O L.L.L.L.L.L.L.L.L.L.L.L.L.L.",
"L.L.L.L.L.L.L.L.L.L.L.L.L.L.L.L.O O O O O O O O O O O O O O O O O O O O O O O O O O O O O O O O L.L.L.L.L.L.L.L.L.L.L.L.L.L.L.L.",
"L.L.L.L.L.L.L.L.L.L.L.L.L.L.L.L.L.L.O O O O O O O O O O O O O O O O O O O O O O O O O O O O L.L.L.L.L.L.L.L.L.L.L.L.L.L.L.L.L.L.",
"L.L.L.L.L.L.L.L.L.L.L.L.L.L.L.L.L.L.L.L.O O O O O O O O O O O O O O O O O O O O O O O O L.L.L.L.L.L.L.L.L.L.L.L.L.L.L.L.L.L.L.L.",
"L.L.L.L.L.L.L.L.L.L.L.L.L.L.L.L.L.L.L.L.L.L.O : O O O O O O O O O O O O O O O O O O L.L.L.L.L.L.L.L.L.L.L.L.L.L.L.L.L.L.L.L.L.L.",
"L.L.L.L.L.L.L.L.L.L.L.L.L.L.L.L.L.L.L.L.L.L.L.L.L.L.L.O O O O : : : O O O L.L.L.L.L.L.L.L.L.L.L.L.L.L.L.L.L.L.L.L.L.L.L.L.L.L.L."
};
