/* XPM */
static char *graphic[] = {
/* width height num_colors chars_per_pixel */
"64 64 541 2", 
/* colors */
"   c None",
".  c None",
"X  c #444444",
"o  c None",
"O  c #404040",
"+  c #666666",
"@  c #565656",
"#  c #474747",
"$  c #888888",
"%  c #4A4A4A",
"&  c None",
"*  c #404040",
"=  c #AAAAAA",
"-  c #CCCCCC",
";  c None",
":  c #EEEEEE",
">  c #474747",
",  c #4A4A4A",
"<  c None",
"1  c #404040",
"2  c #434343",
"3  c #404040",
"4  c None",
"5  c None",
"6  c None",
"7  c #535353",
"8  c #404040",
"9  c #404040",
"0  c #757575",
"q  c #404040",
"w  c #979797",
"e  c #B9B9B9",
"r  c #404040",
"t  c None",
"y  c #DBDBDB",
"u  c #404040",
"i  c None",
"p  c #404040",
"a  c #FDFDFD",
"s  c #404040",
"d  c #474747",
"f  c #4A4A4A",
"g  c #404040",
"h  c #626262",
"j  c #848484",
"k  c None",
"l  c #515151",
"z  c None",
"x  c #A6A6A6",
"c  c #C8C8C8",
"v  c None",
"b  c None",
"n  c #EAEAEA",
"m  c #515151",
"M  c None",
"N  c #4F4F4F",
"B  c #434343",
"V  c None",
"C  c None",
"Z  c #717171",
"A  c None",
"S  c #939393",
"D  c None",
"F  c #B5B5B5",
"G  c #4A4A4A",
"H  c #474747",
"J  c #D7D7D7",
"K  c #434343",
"L  c #525252",
"P  c #474747",
"I  c #F9F9F9",
"U  c None",
"Y  c #3C3C3C",
"T  c #5E5E5E",
"R  c #808080",
"E  c #4D4D4D",
"W  c #555555",
"Q  c None",
"!  c #A2A2A2",
"~  c None",
"^  c #525252",
"/  c #C4C4C4",
"(  c None",
")  c #E6E6E6",
"_  c None",
"`  c None",
"'  c None",
"]  c None",
"[  c #4B4B4B",
"{  c #4D4D4D",
"}  c #6D6D6D",
"|  c #8F8F8F",
" . c #464646",
".. c None",
"X. c None",
"o. c #B1B1B1",
"O. c None",
"+. c #D3D3D3",
"@. c #F5F5F5",
"#. c None",
"$. c None",
"%. c None",
"&. c None",
"*. c #383838",
"=. c #434343",
"-. c #5A5A5A",
";. c #434343",
":. c #7C7C7C",
">. c None",
",. c None",
"<. c #9E9E9E",
"1. c #464646",
"2. c #515151",
"3. c #4E4E4E",
"4. c #C0C0C0",
"5. c None",
"6. c #E2E2E2",
"7. c #474747",
"8. c #3F3F3F",
"9. c #474747",
"0. c #464646",
"q. c #474747",
"w. c #696969",
"e. c None",
"r. c #4A4A4A",
"t. c None",
"y. c None",
"u. c #464646",
"i. c #8B8B8B",
"p. c None",
"a. c #ADADAD",
"s. c None",
"d. c #CFCFCF",
"f. c #494949",
"g. c #464646",
"h. c #515151",
"j. c #F1F1F1",
"k. c None",
"l. c #434343",
"z. c None",
"x. c #515151",
"c. c None",
"v. c #343434",
"b. c #565656",
"n. c #787878",
"m. c None",
"M. c None",
"N. c #9A9A9A",
"B. c #4A4A4A",
"V. c #434343",
"C. c #BCBCBC",
"Z. c #3F3F3F",
"A. c #DEDEDE",
"S. c #3F3F3F",
"D. c #434343",
"F. c #3F3F3F",
"G. c None",
"H. c #4D4D4D",
"J. c #434343",
"K. c None",
"L. c #3F3F3F",
"P. c None",
"I. c #434343",
"U. c #3F3F3F",
"Y. c #656565",
"T. c None",
"R. c #3F3F3F",
"E. c #878787",
"W. c #424242",
"Q. c None",
"!. c #A9A9A9",
"~. c #464646",
"^. c #CBCBCB",
"/. c #3F3F3F",
"(. c #4D4D4D",
"). c #EDEDED",
"_. c None",
"`. c #464646",
"'. c None",
"]. c #3F3F3F",
"[. c #525252",
"{. c #464646",
"}. c None",
"|. c #747474",
" X c #3F3F3F",
".X c #969696",
"XX c #3F3F3F",
"oX c #4D4D4D",
"OX c #B8B8B8",
"+X c #555555",
"@X c #DADADA",
"#X c #545454",
"$X c #3F3F3F",
"%X c #3F3F3F",
"&X c #FCFCFC",
"*X c None",
"=X c None",
"-X c #464646",
";X c #3F3F3F",
":X c #616161",
">X c #545454",
",X c None",
"<X c #838383",
"1X c #494949",
"2X c #464646",
"3X c #A5A5A5",
"4X c None",
"5X c #C7C7C7",
"6X c #E9E9E9",
"7X c None",
"8X c None",
"9X c None",
"0X c #4E4E4E",
"qX c #707070",
"wX c #494949",
"eX c #494949",
"rX c #929292",
"tX c #424242",
"yX c #B4B4B4",
"uX c #D6D6D6",
"iX c None",
"pX c #F8F8F8",
"aX c #3B3B3B",
"sX c #424242",
"dX c #5D5D5D",
"fX c #545454",
"gX c #424242",
"hX c #7F7F7F",
"jX c #A1A1A1",
"kX c #545454",
"lX c None",
"zX c #C3C3C3",
"xX c #E5E5E5",
"cX c None",
"vX c #4D4D4D",
"bX c #545454",
"nX c None",
"mX c #4A4A4A",
"MX c None",
"NX c None",
"BX c None",
"VX c #6C6C6C",
"CX c None",
"ZX c #4D4D4D",
"AX c None",
"SX c #4C4C4C",
"DX c #8E8E8E",
"FX c #B0B0B0",
"GX c #D2D2D2",
"HX c None",
"JX c None",
"KX c #F4F4F4",
"LX c #454545",
"PX c None",
"IX c None",
"UX c #595959",
"YX c #424242",
"TX c #454545",
"RX c #7B7B7B",
"EX c #9D9D9D",
"WX c None",
"QX c #BFBFBF",
"!X c #E1E1E1",
"~X c #464646",
"^X c #505050",
"/X c None",
"(X c #464646",
")X c #464646",
"_X c None",
"`X c #464646",
"'X c #686868",
"]X c #424242",
"[X c #8A8A8A",
"{X c #ACACAC",
"}X c #505050",
"|X c #424242",
" o c #484848",
".o c #CECECE",
"Xo c #F0F0F0",
"oo c #494949",
"Oo c #424242",
"+o c #424242",
"@o c #555555",
"#o c #777777",
"$o c None",
"%o c #454545",
"&o c #999999",
"*o c #3E3E3E",
"=o c #4C4C4C",
"-o c #BBBBBB",
";o c None",
":o c #424242",
">o c #DDDDDD",
",o c #424242",
"<o c None",
"1o c #424242",
"2o c None",
"3o c #3E3E3E",
"4o c #4C4C4C",
"5o c #424242",
"6o c #494949",
"7o c #3E3E3E",
"8o c #424242",
"9o c None",
"0o c #646464",
"qo c None",
"wo c #868686",
"eo c None",
"ro c #A8A8A8",
"to c #CACACA",
"yo c #414141",
"uo c #ECECEC",
"io c #4C4C4C",
"po c #454545",
"ao c None",
"so c #3E3E3E",
"do c #454545",
"fo c #515151",
"go c #3E3E3E",
"ho c #737373",
"jo c #3E3E3E",
"ko c #959595",
"lo c None",
"zo c #B7B7B7",
"xo c #3E3E3E",
"co c #505050",
"vo c #454545",
"bo c #D9D9D9",
"no c #3E3E3E",
"mo c #FBFBFB",
"Mo c None",
"No c #3E3E3E",
"Bo c None",
"Vo c None",
"Co c None",
"Zo c #414141",
"Ao c #606060",
"So c #828282",
"Do c #575757",
"Fo c #A4A4A4",
"Go c #454545",
"Ho c #C6C6C6",
"Jo c #E8E8E8",
"Ko c None",
"Lo c #484848",
"Po c #4F4F4F",
"Io c None",
"Uo c None",
"Yo c None",
"To c #4D4D4D",
"Ro c #6F6F6F",
"Eo c None",
"Wo c #919191",
"Qo c None",
"!o c #B3B3B3",
"~o c #D5D5D5",
"^o c #484848",
"/o c None",
"(o c #F7F7F7",
")o c #454545",
"_o c #535353",
"`o c #5C5C5C",
"'o c None",
"]o c #7E7E7E",
"[o c None",
"{o c #414141",
"}o c #535353",
"|o c #A0A0A0",
" O c None",
".O c #484848",
"XO c #C2C2C2",
"oO c #454545",
"OO c #414141",
"+O c #E4E4E4",
"@O c None",
"#O c #414141",
"$O c #4C4C4C",
"%O c #494949",
"&O c #494949",
"*O c #414141",
"=O c #6B6B6B",
"-O c #8D8D8D",
";O c None",
":O c #4C4C4C",
">O c #AFAFAF",
",O c #535353",
"<O c #D1D1D1",
"1O c None",
"2O c #F3F3F3",
"3O c #444444",
"4O c None",
"5O c None",
"6O c None",
"7O c #585858",
"8O c #7A7A7A",
"9O c #414141",
"0O c None",
"qO c #9C9C9C",
"wO c #4C4C4C",
"eO c #BEBEBE",
"rO c #E0E0E0",
"tO c #454545",
"yO c #575757",
"uO c #454545",
"iO c #454545",
"pO c #676767",
"aO c None",
"sO c #898989",
"dO c #4F4F4F",
"fO c None",
"gO c #ABABAB",
"hO c #5A5A5A",
"jO c #CDCDCD",
"kO c #444444",
"lO c #EFEFEF",
"zO c #414141",
"xO c None",
"cO c #414141",
"vO c #545454",
"bO c #767676",
"nO c #414141",
"mO c #414141",
"MO c #989898",
"NO c None",
"BO c #414141",
"VO c #BABABA",
"CO c #575757",
"ZO c #DCDCDC",
"AO c #414141",
"SO c #414141",
"DO c #FEFEFE",
"FO c #535353",
"GO c #4B4B4B",
"HO c None",
"JO c #484848",
"KO c #414141",
"LO c None",
"PO c None",
"IO c #565656",
"UO c None",
"YO c #636363",
"TO c #535353",
"RO c None",
"EO c #858585",
"WO c #A7A7A7",
"QO c None",
"!O c #C9C9C9",
"~O c #4B4B4B",
"^O c None",
"/O c #EBEBEB",
"(O c #505050",
")O c #444444",
"_O c #727272",
"`O c #949494",
"'O c #B6B6B6",
"]O c None",
"[O c #535353",
"{O c #484848",
"}O c #D8D8D8",
"|O c #484848",
" + c #FAFAFA",
".+ c None",
"X+ c #484848",
"o+ c None",
"O+ c #404040",
"++ c #3D3D3D",
"@+ c #5F5F5F",
"#+ c None",
"$+ c #818181",
"%+ c #444444",
"&+ c #535353",
"*+ c #A3A3A3",
"=+ c None",
"-+ c None",
";+ c #C5C5C5",
":+ c #E7E7E7",
">+ c None",
",+ c #4E4E4E",
"<+ c None",
"1+ c #4C4C4C",
"2+ c None",
"3+ c #6E6E6E",
"4+ c None",
"5+ c #909090",
"6+ c None",
"7+ c #B2B2B2",
"8+ c None",
"9+ c #D4D4D4",
"0+ c #F6F6F6",
"q+ c None",
"w+ c #404040",
"e+ c None",
"r+ c #474747",
"t+ c #404040",
"y+ c #444444",
"u+ c #5B5B5B",
"i+ c #444444",
"p+ c #7D7D7D",
"a+ c #4F4F4F",
"s+ c #474747",
"d+ c None",
"f+ c #9F9F9F",
"g+ c #4F4F4F",
"h+ c None",
"j+ c #C1C1C1",
"k+ c #444444",
"l+ c None",
"z+ c #E3E3E3",
"x+ c #474747",
"c+ c #404040",
"v+ c None",
"b+ c #484848",
"n+ c None",
"m+ c #484848",
"M+ c #404040",
"N+ c #6A6A6A",
"B+ c None",
"V+ c #444444",
"C+ c #8C8C8C",
"Z+ c None",
"A+ c #AEAEAE",
"S+ c #525252",
"D+ c None",
"F+ c #D0D0D0",
"G+ c #F2F2F2",
"H+ c #474747",
"J+ c #525252",
"K+ c #353535",
"L+ c #434343",
"P+ c #575757",
"I+ c #797979",
"U+ c #9B9B9B",
"Y+ c #4B4B4B",
"T+ c #BDBDBD",
"R+ c #444444",
"E+ c #DFDFDF",
"W+ c None",
"Q+ c #404040",
"!+ c #444444",
"~+ c None",
"^+ c #404040",
/* pixels */
"                                                o <o>.loD+4+l+T.t.lXC D+y.>.cX                                                  ",
"                                          cXi ,XEoO.{ GO0.~.d Go2XJO# x+=o,+9X_ o+( 9o                                          ",
"                                      AXc.K.SXu.OOO mOD.q.mX1+ToTo1+&OiO1oq L.gX.Ol h+t 4                                       ",
"                                  >.s.HOr+M+9 )XN 7O:X'XqX|.n.]op+n.hoRo+ @+@o[ J.so*OeXq+UOAX                                  ",
"                              MXP.RO2 U.uOfo@+} p+| jXa.zoT+QXzXXOQXT+zogOf+-ORXw.-.1+SOF.0.,.@O5                               ",
"                          o >+D L+7o)XP+w.]ow o.XO- +.uX}O@Xy ZOZOy boJ ~o<O^.j+A+`OI+YO(O1oF.^oQ.z o                           ",
"                        MX;  o8.R+b.N+<XFo4.d.uXy E+6.xX:+6Xn /O/O6XJo) +O!X>obo9+- T+jXhX0o0XBOgXPoP.<o                        ",
"                      6+$o3O/.0XY.hX3X/ GXboE+xX6X: G+KX0+(o(o(o(o(o0+@.KXXo/O:+z+>oJ F+j+jXI+`o`XR.wXBXAX                      ",
"                    Uo1OO+V.7OqX.XT+<O@X!X:+).2O0+@.: z+~o5XeOzozoeO5XuX+OlO@.0+j./OxXA.J .oe Wow.0Xjo%o'.(                     ",
"                  y.z.t+~X@+p+!.^.J E+JolO@.@.6X.oa.rXR bOZ } N+'XpOpO=ObOC+A++.uo@.2OuoxX>o~o5XFobOvOp B Q .                   ",
"                Uoz.c+%O0oEOzo<Oy +O).@.0+6.OX5+:.RXR <X<XSohX:.I+0 Z } } n.DX&o! j+) 0+G+n !X}OjOo.hXUXp K -+(                 ",
"              6+#.t+%OY.-OT+9+E+Joj.0+:+e -O<Xi.rXWo-O$ j $+p+8O#o0 n.sO*+VO5Xc -o3X|oXOn KX: xXy F+zoj -.SO)O6 AX              ",
"            <o$oZo7.YOC+j+uX!X/OKXKXd..XwokoEXqOMO| RXw.YOAoT dXT w.I+E.DXMO!o- +.<Oj+*+FouXKXj.:+ZO<OVOj 7O%X%o;O<o            ",
"          o v LXV.AoEOT+~o!Xuo0+lO-oi.koFo3X! <.&owoP+X `X`XiOq.1+(Ofo[.fovO| ;++.~oJ <OA+i.C.XoG+:+ZO<Ozo]ovOjoioP.o           ",
"          _.f.* UXp+zo9+rO/O0+uo>O-O*+A+gOroFo|oMOI+1+<.5XHoHo5X5X5X5X!O7+-.DXHo<O<OHoA+DXVX+ gO).2O:+ZOd.FX|.1+U.m y.          ",
"        MXQo8.N qX!.F+A./O@.uoa.rXA+F o.a.!.3X|o`O=Ou++.+.jO.od.<OGX+.+OQXdX<.XOOXf+wobORo} Y.YOro: j.xXbo- ! + X %+v+cX        ",
"        _X3OtO0o`Otoy JoKXlOFXkoF VOzo!oA+WO! jX&oY.n.>oXOQXj+zX/ Ho!O!X&ou+DXWo$+n.0 hoqXRo=O0oYO>Oj.lOz+uX/ -O7Oxo~O'o        ",
"      AXHO3oP+p+-oJ +Oj.@.eOkoe j+T+'Oa.x Fo!.{X.XUXU+>ozXzX;+5X!OtoF+!XZ fo0 RX8On.bO|.Z Ro} N+YO'XXOKXuoE+GXF 0 mX9OIoMX      ",
"      B+kO9.N+*+d.E+).0++.w OX;+T+FXWOFoWO= {X!.E.@oT+J Ho5X!O^.jO.obo<O[.u+8Op+RXI+#o|._OqX3+3+n.wokoZO2O:+@XtoqOT %XG 'o      ",
"    4 p.S.UXSoXObo:+@.6X|o{XeOFX3X! Fox ro!.gOFo|.h J <Oto- jOd.<O+.z+!o`X'Xp+]o:.8On.0 |.bOEO! 4.GXF = ).lO6.9+-o8OmXYXQO5     ",
"    iX .(Xw.! <OrO: @.C.-Ox |o<.|o! Fox WO!.!.U+h ]o6.d..oF+GX+.~oboJoC+&O_OR hXp+8OI+R S >O5X9+boy +.*+!OKX6X@X^.U+`o%XdOV     ",
"  9om.#O7 p+eO}O) KX+Oi.C+N.qO<.f+! *+3XWOroWO| @o*+z+<OGX9+uXJ boE+6.pOvO8O$+hXR [X|oe toGX~oJ bo@Xy zXFo6XlO!X+.zo_O`X-XYoo   ",
"  HXE 3 AokojOA.uo@.VOp+ko&oqO<.f+jX! Fox x f+n.[.HorO~ouX}O@XZOA.:+.o(Oh hXE.`OgOQX^.d.F+GX9+uX}O@XZOJ 3Xc 2O:+}OHoi.fo/.Z+eo  ",
"  iXTXb+} a.9+z+G+/OWowow &oU+EX<.|ojXjX|o|o&o=OpOE+>oboy >oA.rO6.).a.q._O.XA+4.c ^.jOd.F+<O+.~oJ }OJ toN.w : uoA..o3XAo%X(.xO  ",
"  ~ w+fo:.4.boJo@.GX:.| w MON.qOEXEX|ox gOa.U+T E.6X>o>oE+!Xz+xXJo: <X&ORXWo3XC.5Xto- .od.<OGX+..oC.f+$+=O} }OXo6.+.OXqXI.> M.  ",
"cX[oQ+-.C+to>ouo0+7+RXrX.Xw &oEX3Xa.yX'OyXA+5+b.{X/OrO6.+OxX:+6X).6.P+v.fo} |.*+zX!O^.jO.o- XO{X5+8ORo=O'X@+zo2O) J zXSomX;.4O9o",
"AX#+nOYOEXF+rOXoXo.X$+rXMO! A+OXeOT+-oOXF gO$+UXjOn +O) Jon /O).2OF+u+n.'O!o@+w j+c !O/ yXqOEOn.hoqX3+VXN+@+.Xj.n @XtoS [.1 e.MX",
". , !+w.!.9+6.2O) E.Wo= -o;+5X;+XOQXC.e 'OWOqX} xXn 6X/O).lOXoG+pX).ZO2O +WOu+|oQXe x Wo$+8O#o0 |.Z Ro} =OYOp+6X).>o.of+-.r >X( ",
"fO1.m+qX!ouXxXKX@X`O4.d.F+jO!OHozX4.T+VO'O<.@+DXlOuo).lOj.2O@.(omoa a DOKX$+YOMOMOsO$+]o:.8On.bO|._OqX3+VXpOqXA.XorOF+gO:Xs x.%.",
"<+yo1+|.-o}O) 0+F+*+<O+.F+.o^.5X/ j+eOzo= <X(OyX2OXoG+KX@.(oI mo&XDOmo).QXUXAoR j <XSohXp+RXI+#o0 hoZ Z I+i.E.~oj.!XGXFX+ KOTO2o",
"/o{.0XbOT+boJo(o!Ox 9+~o<Od.- c / -o!.Wo#o@ovO~o@.KX0+pX +&Xa DO@.9+*+qX(O[.hoEOwoEO<X$+]o:.8On.bO#oj f+eO.of+d.G+6.+.yX=O8oL n+",
"l+d N 8OeOboJo0+/ WO~ouX+.F+^.4.>O`ORo@o[.VX= G+(opX +&Xa DOa moa.(OmXUXVX:.wo$ E.EO<X$+hX:.RXhX5+= / +.bo9+jXtoG+6.+.zoqX8og+` ",
"lXd N I+eOboJo0+;+WOuXJ d.4.A+|ow bO[.$ zX6XpXmo&Xa a DOa &XmoXo|.[ 0 woC+-OC+[X$ woj So$+E.&oo./ .o<O~o}OGXjXtoG+6.+.zoRo8oa+Ko",
"]O`.To0 C.bo:+0+to3XjOT+roU+MON.rX0o3+:+momo&Xa DODO&X&X +I I ZOUXY.DXS rX5+-Oi.$ wowo| jXyXj+5Xto.oF++.J +.|oF+G+!X+.!oN+8o[O7X",
"< W.mXhoVOJ ) 0+F+-OEX.X.Xw MO&o[X7OrX(o&XmoDOa &XmoI pX0+0+(oC.1+bO`OkoS 5+DXi.i.ko3XyXC.4.XOHo!O- d.GX~oGX|ouXj.rO<O>OY.KOFO;o",
"fOs+q.3+7+~o+OKXy p+C+S ko.XMOMOE.dXzo) T+4.I  +I pX0+@.2OG+KX`ON j w .XrXDX| MOx FXF e -oeOj+/ 5X^..oF+- 'O| rOlOA.d.= @+s }X_.",
"Uo% ,o+ ro+.6.j.:+woE.S `O.Xw w i.Z -O0o*.&o(o(o0+@.2OG+XoXon Ro`o-O`OWorXN.Fo= A+o.yXzoe C.QXXO;+HoQX= -O3+$+6XuoZOjOEXP+q #XHX",
"AXBo8 AoU+d.A.: j.&oR rXS kow MOko$ 0 P+I.4.pXKXG+j.Xo: ).Xo9+foAo<XsO| .XN.EXf+! 3XWO= a.>O7+yXa.N.So_ON+T &oXoJoboc 5+N zO] 5 ",
"cX.+Z.b.[Xc y n @.F 8O5+S .XEX!.zoT+FXRX+ E+KXj.lO: )./On XoFXK+`Xu+:X0oY.+ pOw.=OVX3+RoZ qXVX=OZ _OqX} w.Ao-oG++O~o4.]oq.)o..9o",
"  VotXToI+T+J ) KXuXp+5+*+F / - jO!OF _Oj : Xo: uo/On JoJo2OOXqX|.n.I+I+8O8ORX8ORXRXRX:.RXn.UXKOYOZ Z 3++ Roy lOrO<OF VXKOr.$.  ",
"  8+^oJ.w.= GX!XlO).qOgO<O~o+.<O.o!O= 0oroG+uo/O6XJo:+xXxXXo).:+:+) ) xXxXxX+O+Oz+6.6.6.6.:+E.8opOhoZ 3+:XkolOn y - jX-.$X^X_.  ",
"  >.*X].u+5+toy n @.Hox 9+}O~oGXd.5XU+h tolOJo:+) xXz+6.!XrOrOA.>oZOy @X}OJ uX~o+.GX<OF++.!X'XmX3+|._OVXpO5XG++OuXzXwo[ ]X=+4   ",
"  9oJX{oTo#oVOuXz+G+Jo*+XO}OuX+.F+zX$ qXz+n xX+Oz+6.rOE+A.ZOy @X}OJ uX9++.GXF+d..ojO^.to~ojOToP+hobO0 =ODX/OuoA.F+7+=O8oB.T.o   ",
"    CX1XAOYOEX.oZO/O@.5X! <OJ 9+^.{X0oE.).+O6.!XrOA.>oZO@Xbo}OuX~o9++.<OF+d.jO- ^.toc 5Xy {X8oYO:.C+qO[X- G+xXJ c kovOBOW _.    ",
"    MXnXZ.fop+T+uXz+j.uoWO!o^.F `OVXiO!.2Ouo/On 6XJo:+:+) xX+O+O6.6.!XrOE+E+A.>oZOy @Xy xXwomX$ 'O^.>OA+: uoA.F+zo_OiOH d+<o    ",
"      @Ox+1oYOEX- y JoKXbo| p+_ON+P+;XsOgOgOgOgO= = gOgOgO{X{X{X{X{XgOgOgOgOgOgO= = = gOFodXbOj+@XXOjXE+Xoz+uX5X.Xb.$X}XiX      ",
"      eo5O*o0Xn.'O+.rO).@.4.+ YOpOUX;XaXY Y ++++;X8om+To(O(ON 0XTo1+[ mX&Om+q.`XiOiO&ON 7 Y.f+- c jXd.G+:+y .oFX} I.P G.MX      ",
"        0OLor `oDX;+J z+Xoj.>O0oYOY.dXu+`o@+YO3+R 5+MOMOkoS 5+DXi.sOwoj $+]o8On.:.EODX`O&oWOeO4.f+zXXo/OA.GX4.woN 9 }oD+        ",
"        <o~+sX`X'XjX^.@X) j.lOgOY.YO=ORoI+DXroC.Ho;+j+eOVOzoyXFXa.= x jXN.`O`OqOFo= FXF -oQXzoN.T+lO).!X~oHoN.`os Y+MocX        ",
"          A Bo3o0X|.>OF+ZO:+G+lO7+N+Z U+T+F+9+<O.o^.5XXOQXC.e F FXroqOS 5+koU+jXx gOo.F OX!..Xj+lO).6.J torow.X k+e+Uo          ",
"          o W+f  XvO:.F <OZO) j.G+Ho`OFX+.@XJ +.F+- c / j+T+'O!.w [XE.i.5+koN.f+Fo!.a.gOw w jOXo).6.}O- A+hom+cO_oo+            ",
"            cX_ g.u 7OSoe <Oy xXlO@.>ogO! 4.GX+.<OjOto/ e 3XDXhXp+R EOsODXrXw qOjXjX.Xi.roE+G+/O!XJ - 7+n.1+$XcoLOcX            ",
"              4 k pop UXSoF d.boz+uo2O: !O*+! zoHo5XOXqO$+ho_O0 8O]oSoE.i.5+S Wo[Xj N.- : j.6XE+uX^.>On.To$X$O O4               ",
"                6+=Xvop b.:.>O^.uXE+:+lOKXn !Ox w j } 0oY.w.} Z bOI+p+hXhXp+8OSof+^./O2Ouo+OZOGX5Xro_O[ $X:Ok.>.                ",
"                  6OCodo$Xfo_O|o/ GXy 6.6XXoKXlOy e w p+Ro+ Y.Y.'X=O_ORXsOf+T+ZOlOG+).) A.J d.4.N.w.m+$XvXk.^O                  ",
"                    6+& H+gomX0oC+F - 9+y !X:+).G+KXG+n E++.^.;+Ho- 9+rO/OG+2OXo/OxXE+bo<Oc o.wou+I.+oco OAX                    ",
"                      qoM 4o^+5ob.hoU+C.- 9+boA.z+Jo/O: Xo2O2O2O2OG+j.Xo).n ) !X>oJ <O!OOX.XVX0Xs oOfXLOMX                      ",
"                        cX5.NOvoXXq.u+#oN.zo5Xd.9+}Oy A.!X6.z++Oz+z+6.rO>o@XJ +.jO/ !o`OZ 7 I.nOwOe+o+cX                        ",
"                          o . WXH.=.Nom+7ORo[X3XOX/ ^.d.GX+.9+~o9+9++.<O.otoXO'OjXEOw.[.I.no|OkXU Uo                            ",
"                              <o&.b oXy+$XX 0XdX3+R S f+gOFXyXOXzo!oFX= EXWop+w.P+&OKOBO{Oh.G.t cX                              ",
"                                  MX'oPO2.6o|X%X8oq.N b.T h 'X} VXpO:X`ovO1+iOg $XV+3.Dod+iX8X                                  ",
"                                      <o>+M X.S+ooi+Oor s g KOKOKOg g s :ol.X+ZXbX4XaO_.<o                                      ",
"                                          o 4 xO}.PXNXIOJ+@ +X^ &+COyO,OhO2+..$._.4                                             ",
"                                                  9oMX( %./XaoKoKo' ;o_.IXMX9o                                                  "
};
