/* XPM */
static char *_____________[] = {
/* columns rows colors chars-per-pixel */
"32 32 74 1",
"  c #0F6DB8",
". c #106DB8",
"X c #106EB8",
"o c #106EB9",
"O c #116EB9",
"+ c #126FB9",
"@ c #136FB9",
"# c #1370B9",
"$ c #1470BA",
"% c #1571BA",
"& c #1671BA",
"* c #1772BA",
"= c #1772BB",
"- c #1873BB",
"; c #1973BB",
": c #1A73BB",
"> c #1A74BB",
", c #1B74BC",
"< c #1B75BC",
"1 c #1C75BC",
"2 c #1D76BC",
"3 c #1E76BD",
"4 c #2379BE",
"5 c #267BBF",
"6 c #287DC0",
"7 c #2E80C1",
"8 c #3483C3",
"9 c #3986C5",
"0 c #3F8AC6",
"q c #428CC7",
"w c #438DC8",
"e c #4C92CA",
"r c #4C93CA",
"t c #4E93CB",
"y c #4F94CB",
"u c #5296CC",
"i c #5598CD",
"p c #5698CD",
"a c #589ACE",
"s c #62A0D1",
"d c #71A9D5",
"f c #72A9D5",
"g c #77ACD7",
"h c #85B5DB",
"j c #87B6DB",
"k c #8CB9DD",
"l c #8EBADE",
"z c #8FBBDE",
"x c #95BFE0",
"c c #9EC4E2",
"v c #9FC5E3",
"b c #A4C8E4",
"n c #A8CAE5",
"m c #ABCCE6",
"M c #ACCDE7",
"N c #AECEE7",
"B c #BDD7EC",
"V c #C2DAED",
"C c #C5DCEE",
"Z c #C9DEEF",
"A c #DCEAF5",
"S c #DDEAF5",
"D c #DDEBF5",
"F c #E0EDF6",
"G c #E8F1F8",
"H c #E9F2F8",
"J c #F0F6FB",
"K c #F2F7FB",
"L c #F8FAFD",
"P c #F8FBFD",
"I c #FCFDFE",
"U c #FDFEFF",
"Y c #FFFFFF",
"T c None",
/* pixels */
"TTT11111111111111111111111111TTT",
"TT1111111111111111111111111111TT",
"T111111111111111111111111111111T",
"11111111111111111111111111111111",
"11111111111111111111111111111111",
"11111111111111111111111111111111",
"11111111111111111111111111111111",
"111111111111111-1111111111111111",
"111111111OO.            O.=11111",
"11111111OFYYYYYIYIYIYYYYYYV41111",
"111111118YYYYYYYYYYYYYYYYYYB=111",
"1111111<hYYYYYYYYYYYYYYYYYYL 111",
"1111111=lNNNNNNNNNNNNNZYYYYAO111",
"11111111--------==--==bYYYYl1111",
"1111-glllllllh=111111OLYYYY91111",
"11111YYYYYYYYn-11111>eYYYYHO1111",
"1111fYYYYYYYYu111111>vYYYYx11111",
"111=mDSSSDSSSO111111.KYYYYq11111",
"1111=#####=O@1,11111wYYYYH#11111",
"1111>4apppppppiiiiiinYYYYv111111",
"11111fYYYYYYYYYYYYYYYYYYY8111111",
"1111=CYYYYYYYYYYYYYYYYYYs-111111",
"11111YYYYYYYYYYYYYYYYYHt--111111",
"11115ytttttttttuttttt0O111111111",
"11111111111111111111111111111111",
"11111111111111111111111111111111",
"11111111111111111111111111111111",
"11111111111111111111111111111111",
"11111111111111111111111111111111",
"T111111111111111111111111111111T",
"TT1111111111111111111111111111TT",
"TTT11111111111111111111111111TTT"
};
