/* XPM */
static char *bitcoin___[] = {
/* columns rows colors chars-per-pixel */
"128 128 2 1",
"  c #2D98CE",
". c None",
/* pixels */
"................................................................................................................................",
"................................................................................................................................",
"................................................................................................................................",
"................................................................................................................................",
"................................................................................................................................",
"................................................................................................................................",
"................................................................................................................................",
"................................................................................................................................",
"................................................................................................................................",
"................................................................................................................................",
"................................................................................................................................",
"................................................................................................................................",
"................................................................................................................................",
"................................................................................................................................",
"................................................................................................................................",
"................................................................................................................................",
"................................................................................................................................",
"................................................................................................................................",
"................................................................................................................................",
"................................................................................................................................",
"................................................................................................................................",
"................................................................................................................................",
"................................................................................................................................",
"................................................................................................................................",
"................................................................................................................................",
"................................................................................................................................",
"................................................................................................................................",
"................................................................................................................................",
"................................................................................................................................",
"....................                                                                                      ......................",
"....................                                                                                            ................",
".....................                                                                                              .............",
"......................                                                                                                ..........",
".......................                                                                                                .........",
"........................                                                                                                 .......",
"........................                                                                                                  ......",
".........................                                                                                                  .....",
"..........................                                                                                                  ....",
"...........................                                                                                                 ....",
"............................                                                                                                 ...",
"............................                                                                                                 ...",
".............................                                                                                                 ..",
"..............................                                                                                                ..",
"...............................                                                                                               ..",
"...............................                                                                                                .",
"................................                                                                                               .",
".................................                                                                                              .",
"..................................                     .............................................                           .",
"...................................                    ...............................................                         .",
".                         .........                    ................................................                        .",
"..                         .........                   .................................................                        ",
"..                         ..........                  .................................................                        ",
"...                         ..........                 ..................................................                       ",
"....                         .........                 ..................................................                       ",
".....                         .........                ..................................................                       ",
"......                        ..........               ...................................................                      ",
"......                         ..........              ...................................................                      ",
".......                         ..........             ...................................................                      ",
"........                         .........             ...................................................                      ",
".........                         .........            ...................................................                      ",
".........                         ..........           ...................................................                      ",
"..........                         ..........          ...................................................                      ",
"...........                         .........          ...................................................                      ",
"............                         .........         ...................................................                      ",
".............                        ..........        ...................................................                      ",
".............                         ..........       ...................................................                      ",
"..............                         ..........      ...................................................                      ",
"...............                         .........      ...................................................                      ",
"................                         .........     ...................................................                      ",
"................                         ..........    ...................................................                      ",
".................                         ..........   ...................................................                      ",
"..................                         .........   ...................................................                      ",
"...................                         .........  ...................................................                      ",
"....................                        .......... ...................................................                      ",
"....................                         ............................................................                       ",
".....................                         ...........................................................                       ",
"......................                         ..........................................................                       ",
".......................                         ........................................................                        ",
".......................                         .......................................................                         ",
"........................                         .....................................................                         .",
".........................                         ..................................................                           .",
"..........................                         ............................................                                .",
"...........................                                                                                                    .",
"...........................                                                                                                    .",
"............................                                                                                                   .",
".............................                                                                                                 ..",
"..............................                                                                                                ..",
"..............................                                                                                                ..",
"...............................                                                                                              ...",
"................................                                                                                             ...",
".................................                                                                                           ....",
"..................................                                                                                          ....",
"..................................                                                                                         .....",
"...................................                                                                                       ......",
"....................................                                                                                     .......",
".....................................                                                                                  .........",
".....................................                                                                                ...........",
"......................................                                                                             .............",
".......................................                                                                         ................",
"........................................                                                                  ......................",
"................................................................................................................................",
"................................................................................................................................",
"................................................................................................................................",
"................................................................................................................................",
"................................................................................................................................",
"................................................................................................................................",
"................................................................................................................................",
"................................................................................................................................",
"................................................................................................................................",
"................................................................................................................................",
"................................................................................................................................",
"................................................................................................................................",
"................................................................................................................................",
"................................................................................................................................",
"................................................................................................................................",
"................................................................................................................................",
"................................................................................................................................",
"................................................................................................................................",
"................................................................................................................................",
"................................................................................................................................",
"................................................................................................................................",
"................................................................................................................................",
"................................................................................................................................",
"................................................................................................................................",
"................................................................................................................................",
"................................................................................................................................",
"................................................................................................................................",
"................................................................................................................................"
};
