/* XPM */
static char * bitcoin32_xpm[] = {
"32 32 77 1",
" 	c None",
".	c #A2A1A1",
"+	c #A1A1A1",
"@	c #A1A0A0",
"#	c #9F9F9F",
"$	c #A7A7A7",
"%	c #A9A9A9",
"&	c #AEAEAE",
"*	c #B0B0B0",
"=	c #B1B1B1",
"-	c #A8A8A8",
";	c #A4A4A4",
">	c #ACACAC",
",	c #B2B2B2",
"'	c #AAAAAA",
")	c #ABABAB",
"!	c #A6A6A6",
"~	c #A3A3A3",
"{	c #A8A7A7",
"]	c #A5A5A5",
"^	c #ADADAD",
"/	c #9E9E9E",
"(	c #ADACAC",
"_	c #A2A2A2",
":	c #A0A0A0",
"<	c #9D9D9D",
"[	c #A5A4A4",
"}	c #9C9C9C",
"|	c #9B9B9B",
"1	c #979797",
"2	c #8C8C8C",
"3	c #848484",
"4	c #838383",
"5	c #878787",
"6	c #929292",
"7	c #9A9A9A",
"8	c #AFAFAF",
"9	c #8B8B8B",
"0	c #7F7F7F",
"a	c #808080",
"b	c #7E7E7E",
"c	c #828282",
"d	c #969696",
"e	c #939292",
"f	c #999999",
"g	c #898989",
"h	c #8A8A8A",
"i	c #888888",
"j	c #959595",
"k	c #939393",
"l	c #909090",
"m	c #8D8D8D",
"n	c #9D9C9C",
"o	c #B4B4B4",
"p	c #B6B6B6",
"q	c #919090",
"r	c #A9A8A8",
"s	c #B8B8B8",
"t	c #BCBCBC",
"u	c #B5B5B5",
"v	c #C5C5C5",
"w	c #C1C1C1",
"x	c #B3B3B3",
"y	c #C8C8C8",
"z	c #BFBFBF",
"A	c #B9B9B9",
"B	c #AAA9A9",
"C	c #9E9D9D",
"D	c #949494",
"E	c #919191",
"F	c #8E8E8E",
"G	c #858585",
"H	c #B7B7B7",
"I	c #818181",
"J	c #989898",
"K	c #949393",
"L	c #989797",
"                                ",
"              .+@               ",
"          #$%&*==*&-;           ",
"        +>,')'!;~!%%)={         ",
"       -*)&'!;+##+~]%^%*/       ",
"      ()&'$;_:/<</#+~!%>'[      ",
"     ^%'!~+#/<}|||}/#+~!%-]     ",
"    '));_:/<}1234567<<#+~'%#    ",
"   _&8$_/<}}790aabcd<}</+!>&e   ",
"   *,);:/}</f2ghi3bj#<}<#~%>%   ",
"  ]88$_/}<#+fkllmi47_:<}<+!^8j  ",
"  ^,);:<}<+;}7djkmh;!_/}<#~%>~  ",
" no8$_/<<#_]#:}|fk18';#<}/+!^=  ",
" %^);:<}<:]]_]~_:}$p^!+/}<#~%=q ",
" r%$_#<<#_-!!%''%]st,';:/}/+]$# ",
" ;-;:<}<:;)!'^8,u&vwp&$+/}<#~~+ ",
" ]']+/}<:;-~-*=xuxyzu^]+/}<:~]+ ",
" ;>-~#<</__<-*,=-xvA=%~#<}/_!$+ ",
" B^>]+<}<:}f'=*)<^s8-~#<}<:;%)C ",
" !=*%~#<}/dD8=8+jEF2i9d}}/_$&u  ",
"  ou>]+<}|kD,**#|1DlmG57<:;'x*  ",
"  BH*%~#<7k<=*8&>%;+/gI7/+$^8+  ",
"  :xu>]+<}1-=*8&^%]_:a4|#;',x9  ",
"   (p*-~#/<~~_+_+#<fjIF/+$^8[   ",
"   f=p>]~+:/}fJJfJ1dk6}_;'==    ",
"    +&=>-]_+#/<<<<<#:_;$)8&K    ",
"     [&u*^-]~+#<</+_]-)8x&|     ",
"      _*su8>%]~+:_;$)8oo=L      ",
"       L*,Au*>-]]$)&oH,>2       ",
"         #*p,o=^)8,8p)f         ",
"           D:]^=*>_#m           ",
"                                "};
