/* XPM */
static char *graphic[] = {
/* width height num_colors chars_per_pixel */
"16 16 144 2", 
/* colors */
"   c None",
".  c #888888",
"X  c #AAAAAA",
"o  c #CCCCCC",
"O  c #979797",
"+  c #B9B9B9",
"@  c #DBDBDB",
"#  c None",
"$  c #848484",
"%  c #A6A6A6",
"&  c #C8C8C8",
"*  c #8F8F8F",
"=  c #747474",
"-  c #939393",
";  c #B5B5B5",
":  c None",
">  c #F9F9F9",
",  c None",
"<  c None",
"1  c #A2A2A2",
"2  c #C4C4C4",
"3  c #707070",
"4  c #707070",
"5  c #9E9E9E",
"6  c #8F8F8F",
"7  c #B1B1B1",
"8  c #D3D3D3",
"9  c #686868",
"0  c #686868",
"q  c #6C6C6C",
"w  c #C0C0C0",
"e  c #9E9E9E",
"r  c #C0C0C0",
"t  c #9A9A9A",
"y  c None",
"u  c #5C5C5C",
"i  c #8B8B8B",
"p  c #ADADAD",
"a  c #CFCFCF",
"s  c #9A9A9A",
"d  c #BCBCBC",
"f  c None",
"g  c #969696",
"h  c #878787",
"j  c #A9A9A9",
"k  c #CBCBCB",
"l  c #969696",
"z  c #B8B8B8",
"x  c #B8B8B8",
"c  c #DADADA",
"v  c #C7C7C7",
"b  c #E9E9E9",
"n  c #A1A1A1",
"m  c #929292",
"M  c None",
"N  c #B4B4B4",
"B  c None",
"V  c None",
"C  c #7F7F7F",
"Z  c #A1A1A1",
"A  c None",
"S  c #8A8A8A",
"D  c #C3C3C3",
"F  c #8A8A8A",
"G  c None",
"H  c #9D9D9D",
"J  c #8E8E8E",
"K  c None",
"L  c #B0B0B0",
"P  c #5F5F5F",
"I  c #5F5F5F",
"U  c #BFBFBF",
"Y  c #BFBFBF",
"T  c None",
"R  c #5B5B5B",
"E  c #CECECE",
"W  c #999999",
"Q  c #DDDDDD",
"!  c None",
"~  c #868686",
"^  c #A8A8A8",
"/  c #CACACA",
"(  c #737373",
")  c #959595",
"_  c #B7B7B7",
"`  c #B7B7B7",
"'  c None",
"]  c #828282",
"[  c #A4A4A4",
"{  c #C6C6C6",
"}  c #A0A0A0",
"|  c #919191",
" . c None",
".. c #B3B3B3",
"X. c None",
"o. c #6A6A6A",
"O. c #A0A0A0",
"+. c #6E6E6E",
"@. c #C2C2C2",
"#. c #6E6E6E",
"$. c #898989",
"%. c None",
"&. c #8D8D8D",
"*. c #AFAFAF",
"=. c #D1D1D1",
"-. c #F3F3F3",
";. c #5E5E5E",
":. c #5E5E5E",
">. c #BEBEBE",
",. c #9C9C9C",
"<. c #858585",
"1. c #989898",
"2. c #898989",
"3. c #EFEFEF",
"4. c #989898",
"5. c #A7A7A7",
"6. c None",
"7. c #C9C9C9",
"8. c #EBEBEB",
"9. c #909090",
"0. c #949494",
"q. c #B6B6B6",
"w. c #B6B6B6",
"e. c #D8D8D8",
"r. c #818181",
"t. c #A3A3A3",
"y. c #C5C5C5",
"u. c #B2B2B2",
"i. c None",
"p. c #D4D4D4",
"a. c None",
"s. c None",
"d. c #7D7D7D",
"f. c #9F9F9F",
"g. c #C1C1C1",
"h. c #E3E3E3",
"j. c None",
"k. c #656565",
"l. c None",
"z. c #AEAEAE",
"x. c #656565",
"c. c #BDBDBD",
"v. c #9B9B9B",
"b. c #BDBDBD",
/* pixels */
"      G y A I o.0 :.< # G       ",
"    6.V = n w / 7.>.5 4 X.6.    ",
"  6.s.9.o 7.j | 6 ..8 / F K 6.  ",
"G V * p.d 1 ~ | l s u.^ o F X.G ",
"' = o r z.t.e 7.@.] C C ; & #.f ",
", } & f.t.s N e.x $ 5.@.v E t X.",
"P U N ^ 7 ,.a b b.0.w.5.. O.z u ",
"9 / v { X Z 8.-.g.2.. r.&.p 2 x.",
"9 / ` 1 ) @ > Q h J 4.*.2 2 2 k.",
";.c.L 1 4.7.3.y.~ - ,.W i % q.R ",
"V H =.{ X p.h.c o 7.v - d.r g a.",
"# 3 7.u.( 0.t.t.e W v.s g.2 q %.",
"G : S k j ..+ [ | m 1 Y E <. .! ",
"  M l.$.& 8 x ) O z.7.2 <.j.i.  ",
"    i.a.+.1.z D D _ g q  .i.    ",
"      G T B u x.x.R a.T G       "
};
