/* XPM */
static char *crowncoin__[] = {
/* columns rows colors chars-per-pixel */
"16 16 148 2",
"   c #000000",
".  c #010000",
"X  c #010100",
"o  c #000001",
"O  c #010101",
"+  c #030100",
"@  c #020101",
"#  c #020201",
"$  c #030301",
"%  c #000002",
"&  c #010102",
"*  c #000103",
"=  c #010203",
"-  c #020202",
";  c #030202",
":  c #030303",
">  c #040302",
",  c #060400",
"<  c #040402",
"1  c #070502",
"2  c #050603",
"3  c #020306",
"4  c #0A0500",
"5  c #080701",
"6  c #080602",
"7  c #0B0801",
"8  c #090902",
"9  c #0C0900",
"0  c #0D0A00",
"q  c #0B0904",
"w  c #0E0C07",
"e  c #020408",
"r  c #05070E",
"t  c #0B0A08",
"y  c #0F0D08",
"u  c #0A0B0C",
"i  c #120F04",
"p  c #110E07",
"a  c #110E0A",
"s  c #131007",
"d  c #1B1200",
"f  c #191204",
"g  c #1E1605",
"h  c #1D1607",
"j  c #131009",
"k  c #171208",
"l  c #181409",
"z  c #0F1117",
"x  c #1A1B1F",
"c  c #1B1C1E",
"v  c #2B1E03",
"b  c #221E0A",
"n  c #2F2003",
"m  c #29200A",
"M  c #2B220D",
"N  c #29250F",
"B  c #2C240F",
"V  c #30250D",
"C  c #3C2E0D",
"Z  c #262112",
"A  c #292212",
"S  c #2C2416",
"D  c #2B2618",
"F  c #2B2A1C",
"G  c #332912",
"H  c #322A16",
"J  c #352C15",
"K  c #332D1E",
"L  c #382F1F",
"P  c #3C3619",
"I  c #1E2024",
"U  c #202022",
"Y  c #262523",
"T  c #232325",
"R  c #2F2D21",
"E  c #262628",
"W  c #312E25",
"Q  c #312F25",
"!  c #312E28",
"~  c #363323",
"^  c #333125",
"/  c #383423",
"(  c #40310D",
")  c #40320F",
"_  c #463612",
"`  c #463315",
"'  c #443414",
"]  c #463916",
"[  c #4B3E1F",
"{  c #413D22",
"}  c #403B29",
"|  c #4E401E",
" . c #534012",
".. c #584614",
"X. c #50411F",
"o. c #57421C",
"O. c #785D16",
"+. c #4B4126",
"@. c #4F4225",
"#. c #534820",
"$. c #534B2D",
"%. c #554A2E",
"&. c #494536",
"*. c #4B473A",
"=. c #544C3B",
"-. c #6D5F37",
";. c #7F6A2F",
":. c #6B633F",
">. c #5A5445",
",. c #5B5648",
"<. c #6A6140",
"1. c #716744",
"2. c #716943",
"3. c #7A6947",
"4. c #7A6E55",
"5. c #706C5D",
"6. c #7D7257",
"7. c #846B24",
"8. c #866830",
"9. c #847630",
"0. c #8C7F3D",
"q. c #80704F",
"w. c #8B7C54",
"e. c #83775A",
"r. c #807A68",
"t. c #AF9D3F",
"y. c #9B8D4E",
"u. c #99895E",
"i. c #9E9154",
"p. c #A08749",
"a. c #908367",
"s. c #938564",
"d. c #968963",
"f. c #878271",
"g. c #AE9C71",
"h. c #ACA079",
"j. c #ACA27E",
"k. c #D7BE58",
"l. c #DAC27C",
"z. c #B2A683",
"x. c #B1A78B",
"c. c #B4AB8E",
"v. c #BFB391",
"b. c #B7B19A",
"n. c #B8B198",
"m. c #BCB59D",
"M. c #C4BFAA",
"N. c None",
/* pixels */
"N.N.N.N.N.w.%.*.*.5.b.N.N.N.N.N.",
"N.N.N.q.h             A s.N.N.N.",
"N.N.e.  :     > < 2       6.N.N.",
"N.x.      >           > =   M.N.",
"N.A   >   N >     7 j   :   } N.",
"4.9 l     9.b ~ F C '   6 ..< n.",
"@.  _ p > k.t.2.y.J v   7.O.  r.",
"+.  k  .g.l.0.^ :.i.o.y.8.v   >.",
"%.    t W Y T E I <.8.L j f   ,.",
"1.  2 a = u c c U z r e a <   f.",
"j.<   n A ! / ^ ^ K S D a     c.",
"N.V   d ' =.#.P { | ` [ b   M N.",
"N.s.  =                   6 z.N.",
"N.N.d.p           > >   w m.N.N.",
"N.N.N.h.G 0 7 2 < 7 0 H v.N.N.N.",
"N.N.N.N.N.3.@.C ] -.u.N.N.N.N.N."
};
