/* XPM */
static char *bitcoin32[] = {
/* columns rows colors chars-per-pixel */
"32 32 102 2 ",
"   c #F79319",
".  c #F7921A",
"X  c #F7931A",
"o  c #F7921B",
"O  c #F7931B",
"+  c #F79419",
"@  c #F7941A",
"#  c #F7951E",
"$  c #F8921A",
"%  c #F8931A",
"&  c #F8941A",
"*  c #F79620",
"=  c #F79621",
"-  c #F79824",
";  c #F79825",
":  c #F79926",
">  c #F79927",
",  c #F89A29",
"<  c #F89B2A",
"1  c #F89B2B",
"2  c #F89C2D",
"3  c #F89C2E",
"4  c #F89D2F",
"5  c #F8A138",
"6  c #F8A239",
"7  c #F8A23A",
"8  c #F8A33C",
"9  c #F8A43F",
"0  c #F8A541",
"q  c #F9AA4A",
"w  c #F9AA4B",
"e  c #F9AB4D",
"r  c #F9AC4F",
"t  c #F9AC50",
"y  c #F9AD51",
"u  c #F9AE53",
"i  c #F9AF54",
"p  c #F9AF55",
"a  c #F9B058",
"s  c #F9B159",
"d  c #F9B25C",
"f  c #F9B35E",
"g  c #F9B460",
"h  c #FAB767",
"j  c #FAB96A",
"k  c #FABD72",
"l  c #FABD73",
"z  c #FABE75",
"x  c #FABF77",
"c  c #FABF78",
"v  c #FAC27D",
"b  c #FBC380",
"n  c #FBC585",
"m  c #FBC686",
"M  c #FBC687",
"N  c #FBC788",
"B  c #FBCA8E",
"V  c #FBCB91",
"C  c #FBCC93",
"Z  c #FBCD95",
"A  c #FCD2A0",
"S  c #FCD4A3",
"D  c #FCD5A6",
"F  c #FCD7AA",
"G  c #FCD8AD",
"H  c #FCD9AF",
"J  c #FCDCB5",
"K  c #FDDEB9",
"L  c #FDE0BD",
"P  c #FDE1BE",
"I  c #FDE1C0",
"U  c #FDE2C1",
"Y  c #FDE2C2",
"T  c #FDE6CB",
"R  c #FDE7CC",
"E  c #FDE7CD",
"W  c #FDE8CF",
"Q  c #FDEBD4",
"!  c #FEEBD5",
"~  c #FEECD7",
"^  c #FEEDD8",
"/  c #FEEEDA",
"(  c #FEF0E0",
")  c #FEF2E4",
"_  c #FEF3E5",
"`  c #FEF3E6",
"'  c #FEF4E8",
"]  c #FEF8F1",
"[  c #FFF9F2",
"{  c #FFF9F3",
"}  c #FFFAF4",
"|  c #FFFBF6",
" . c #FFFBF7",
".. c #FFFCF8",
"X. c #FFFCF9",
"o. c #FFFCFA",
"O. c #FFFDFB",
"+. c #FFFEFC",
"@. c #FFFEFD",
"#. c #FFFFFE",
"$. c white",
"%. c None",
/* pixels */
"%.%.%.%.%.%.%.%.%.%.%.%.o & @   o o o @ %.%.%.%.%.%.%.%.%.%.%.%.",
"%.%.%.%.%.%.%.%.%.& @     @ o   @       @ o o %.%.%.%.%.%.%.%.%.",
"%.%.%.%.%.%.%.    o @ o o o @ @ o   o @ @   o   & %.%.%.%.%.%.%.",
"%.%.%.%.%.%.@   @ o     @     o @ @ o   o   @ @   o %.%.%.%.%.%.",
"%.%.%.%.%.o   o   o @ @ @ o       o o   o @   o @ o o %.%.%.%.%.",
"%.%.%.%.      @ @ o   o     o u 7 @     o   @ o     @   %.%.%.%.",
"%.%.%.& o   o @ @   o   o @   ` | # h k >       o @ o @   %.%.%.",
"%.%.O   @ @ o   o   @ f 1   7 $.P   W $.3 @ o @ o     @ o @ %.%.",
"%.%.o   o @     o o 8 $.$.Q I $.C ; O.^   @ @ o @   o @     %.%.",
"%.  @ o   @ o @ @   0 J | $.$.$.$.{ $.K * o     @ o   @ o @ O %.",
"%.@   o   o @ o @ o     k $.$.$.$.$.$.$.` j         o o @ o & %.",
"%.o   @ @ o         @ o m $.$.T ; h I $.$.$.m   o @ @       @ %.",
"      o @   o @ o @   o P $.$.V       H $.$.| # o     @ o o @   ",
"@ o @ o @ o   @ o     # { $.$.a       v $.$.$.; @ @ o o @       ",
"  @         o o @ @   w $.$.$.B u 7 u ( $.$.! @   o @   o   o @ ",
"  o o @ o @ @     o o m $.$.$.$.$.$.$.$.$.{ y o   @ o   @ @ o   ",
"@ o o   o     @ @ o @ K $.$.D x K O.$.$.O.g       o   o @ @   o ",
"    @ @ @ @ o o     # { $.$.a     4 K $.$.O.w   o   @ o   o   @ ",
"o @   o   o @   1 * r $.$.O.;       ; X.$.$.D   @ @     @ o o @ ",
"o   @ o   @ o   H X.O.$.$.T         3 O.$.$.F o   o o @     o   ",
"%.      o @   > ] $.$.$.$.| I Z c b ! $.$.$.c     @ @ o o o @ %.",
"%.# o     @ o @ # r N ` $.$.$.$.$.$.$.$.$.` ; o o o     @     %.",
"%.O   o   o   o       `  .f E $.X.$.$.$.E 0     @   o @   @   %.",
"%.%.  @ o   o       7 $.I   T $.4 3 5 *         @ o   @ o o %.%.",
"%.%.@     o @     o r ^ N ; $.^ @ o o   o     @   o o @   O %.%.",
"%.%.%.% o   @ o @ o     o 4 A N     @ @ @ @ o o   @   @ O %.%.%.",
"%.%.%.%.  @   o @   o   #     o o @   o   o @   o o @ o %.%.%.%.",
"%.%.%.%.%.o   @ o   @ @     o   o   @ o   @ o   @     %.%.%.%.%.",
"%.%.%.%.%.%.o @ @   o o o     @ @ @   o     o @   % %.%.%.%.%.%.",
"%.%.%.%.%.%.%.% o   @   @ @ o o   o   @       o o %.%.%.%.%.%.%.",
"%.%.%.%.%.%.%.%.%.@   o   o @   o   o @   # % %.%.%.%.%.%.%.%.%.",
"%.%.%.%.%.%.%.%.%.%.%.%.  @ o   @ o     %.%.%.%.%.%.%.%.%.%.%.%."
};
