/* XPM */
static char * bitcoin64_xpm[] = {
"64 64 139 2",
"  	c None",
". 	c #000000",
"+ 	c #161616",
"@ 	c #3D3D3D",
"# 	c #070707",
"$ 	c #646464",
"% 	c #FFFFFF",
"& 	c #F6F6F6",
"* 	c #A5A5A5",
"= 	c #A4A4A4",
"- 	c #AFAFAF",
"; 	c #BEBEBE",
"> 	c #7E7E7E",
", 	c #252525",
"' 	c #E4E4E4",
") 	c #656565",
"! 	c #040404",
"~ 	c #F2F2F2",
"{ 	c #515151",
"] 	c #A0A0A0",
"^ 	c #919191",
"/ 	c #131313",
"( 	c #242424",
"_ 	c #262626",
": 	c #393939",
"< 	c #FDFDFD",
"[ 	c #0C0C0C",
"} 	c #FAFAFA",
"| 	c #CFCFCF",
"1 	c #909090",
"2 	c #989898",
"3 	c #E5E5E5",
"4 	c #787878",
"5 	c #D1D1D1",
"6 	c #464646",
"7 	c #737373",
"8 	c #383838",
"9 	c #BBBBBB",
"0 	c #929292",
"a 	c #3C3C3C",
"b 	c #B2B2B2",
"c 	c #EFEFEF",
"d 	c #595959",
"e 	c #676767",
"f 	c #9C9C9C",
"g 	c #303030",
"h 	c #DBDBDB",
"i 	c #A6A6A6",
"j 	c #BCBCBC",
"k 	c #2B2B2B",
"l 	c #666666",
"m 	c #B6B6B6",
"n 	c #FBFBFB",
"o 	c #1B1B1B",
"p 	c #7B7B7B",
"q 	c #141414",
"r 	c #818181",
"s 	c #F7F7F7",
"t 	c #C3C3C3",
"u 	c #7C7C7C",
"v 	c #3B3B3B",
"w 	c #F5F5F5",
"x 	c #060606",
"y 	c #B9B9B9",
"z 	c #747474",
"A 	c #A8A8A8",
"B 	c #777777",
"C 	c #0B0B0B",
"D 	c #E9E9E9",
"E 	c #4D4D4D",
"F 	c #CDCDCD",
"G 	c #222222",
"H 	c #030303",
"I 	c #020202",
"J 	c #373737",
"K 	c #C2C2C2",
"L 	c #FEFEFE",
"M 	c #8B8B8B",
"N 	c #8E8E8E",
"O 	c #C9C9C9",
"P 	c #FCFCFC",
"Q 	c #E0E0E0",
"R 	c #2E2E2E",
"S 	c #121212",
"T 	c #616161",
"U 	c #C6C6C6",
"V 	c #202020",
"W 	c #BABABA",
"X 	c #4E4E4E",
"Y 	c #ECECEC",
"Z 	c #0D0D0D",
"` 	c #F4F4F4",
" .	c #2C2C2C",
"..	c #797979",
"+.	c #3E3E3E",
"@.	c #7D7D7D",
"#.	c #A7A7A7",
"$.	c #C0C0C0",
"%.	c #F0F0F0",
"&.	c #B3B3B3",
"*.	c #D8D8D8",
"=.	c #959595",
"-.	c #D2D2D2",
";.	c #DCDCDC",
">.	c #B8B8B8",
",.	c #1A1A1A",
"'.	c #F8F8F8",
").	c #ADADAD",
"!.	c #6D6D6D",
"~.	c #111111",
"{.	c #272727",
"].	c #3A3A3A",
"^.	c #EAEAEA",
"/.	c #DDDDDD",
"(.	c #E8E8E8",
"_.	c #050505",
":.	c #7A7A7A",
"<.	c #606060",
"[.	c #9F9F9F",
"}.	c #AAAAAA",
"|.	c #151515",
"1.	c #DEDEDE",
"2.	c #6A6A6A",
"3.	c #888888",
"4.	c #9E9E9E",
"5.	c #979797",
"6.	c #727272",
"7.	c #2D2D2D",
"8.	c #1E1E1E",
"9.	c #2A2A2A",
"0.	c #353535",
"a.	c #171717",
"b.	c #5F5F5F",
"c.	c #010101",
"d.	c #D6D6D6",
"e.	c #767676",
"f.	c #575757",
"g.	c #363636",
"h.	c #0F0F0F",
"                                                                                                                                ",
"                                                                                                                                ",
"                                                                                                                                ",
"                                                                                                                                ",
"                                                          . . . . . . .                                                         ",
"                                                . . . . . . . . . . . . . . . .                                                 ",
"                                          . . . . . . . . . . . . . . . . . . . . . .                                           ",
"                                      . . . . . . . . . . . . . . . . . . . . . . . . . .                                       ",
"                                    . . . . . . . . . . . . . . . . . . . . . . . . . . . . .                                   ",
"                                . . . . . . . . . . . . . . . . . . . . . . . . . . . . . . . .                                 ",
"                              . . . . . . . . . . . . . . . . . . . . . . . . . . . . . . . . . .                               ",
"                          . . . . . . . . . . . . . . . . . . . . . . . . . . . . . . . . . . . . .                             ",
"                        . . . . . . . . . . . . . . . . . . . . . . . . . . . . . . . . . . . . . . . .                         ",
"                      . . . . . . . . . . . . . . . . . . . + @ # . . . . . . . . . . . . . . . . . . .                         ",
"                      . . . . . . . . . . . . . . . . . . . $ % & * . . . . . . . . . . . . . . . . . . .                       ",
"                    . . . . . . . . . . . . . . . . . . . . = % % * . . - ; > , . . . . . . . . . . . . . .                     ",
"                  . . . . . . . . . . . . . . . . . . . . . ' % % ) . ! ~ % % { . . . . . . . . . . . . . . .                   ",
"                . . . . . . . . . . . . . . . ] ^ { / . . ( % % % _ . : % % < / . . . . . . . . . . . . . . .                   ",
"                . . . . . . . . . . . . . . [ } % % < | 1 2 % % 3 . . 4 % % 5 . . . . . . . . . . . . . . . . .                 ",
"              . . . . . . . . . . . . . . . 6 % % % % % % % % % ' 7 8 9 % % 0 . . . . . . . . . . . . . . . . . .               ",
"              . . . . . . . . . . . . . . . a b c % % % % % % % % % % % % % d . . . . . . . . . . . . . . . . . .               ",
"            . . . . . . . . . . . . . . . . . . ! e % % % % % % % % % % % % & f g . . . . . . . . . . . . . . . . .             ",
"            . . . . . . . . . . . . . . . . . . . . h % % % % % % % % % % % % % % i / . . . . . . . . . . . . . . .             ",
"            . . . . . . . . . . . . . . . . . . . # & % % % % j k l m n % % % % % % h o . . . . . . . . . . . . . .             ",
"          . . . . . . . . . . . . . . . . . . . . @ % % % % % p . . . q r s % % % % % t . . . . . . . . . . . . . . .           ",
"          . . . . . . . . . . . . . . . . . . . . u % % % % % v . . . . . 6 < % % % % % @ . . . . . . . . . . . . . .           ",
"          . . . . . . . . . . . . . . . . . . . . j % % % % w x . . . . . . y % % % % % z . . . . . . . . . . . . . .           ",
"          . . . . . . . . . . . . . . . . . . . x w % % % % 9 . . . . . . . A % % % % % B . . . . . . . . . . . . . .           ",
"          . . . . . . . . . . . . . . . . . . . a % % % % % u . . . . . . C D % % % % % E . . . . . . . . . . . . . .           ",
"        . . . . . . . . . . . . . . . . . . . . u % % % % % F > 6 G H I J K % % % % % & C . . . . . . . . . . . . . . .         ",
"        . . . . . . . . . . . . . . . . . . . . 9 % % % % % % % % % L % % % % % % % % B . . . . . . . . . . . . . . . .         ",
"        . . . . . . . . . . . . . . . . . . . x w % % % % % % % % % % % % % % % % L M H . . . . . . . . . . . . . . . .         ",
"        . . . . . . . . . . . . . . . . . . . v % % % % % i N O P % % % % % % % Q R . . . . . . . . . . . . . . . . . .         ",
"        . . . . . . . . . . . . . . . . . . . p % % % % % a . . S T U % % % % % % 5 V . . . . . . . . . . . . . . . . .         ",
"        . . . . . . . . . . . . . . . . . . . W % % % % w x . . . . . X Y % % % % % h Z . . . . . . . . . . . . . . . .         ",
"          . . . . . . . . . . . . . . . . . x ` % % % % j . . . . . . .  .} % % % % % ... . . . . . . . . . . . . . .           ",
"          . . . . . . . . . . . . . . H . . +.% % % % % @.. . . . . . . . #.% % % % % $.. . . . . . . . . . . . . . .           ",
"          . . . . . . . . . . . . . J %.&.r *.% % % % % @ . . . . . . . . =.% % % % % -.. . . . . . . . . . . . . . .           ",
"          . . . . . . . . . . . . . i % % % % % % % % & # . . . . . . . x ;.% % % % % >.. . . . . . . . . . . . . . .           ",
"          . . . . . . . . . . . . ,.} % % % % % % % % '.).!.J ~.. . . {.W % % % % % % u . . . . . . . . . . . . . . .           ",
"            . . . . . . . . . . . ].W ` % % % % % % % % % % % % ^./.(.% % % % % % % P ( . . . . . . . . . . . . . .             ",
"            . . . . . . . . . . . . . _.v :.j & % % % % % % % % % % % % % % % % % % = . . . . . . . . . . . . . . .             ",
"            . . . . . . . . . . . . . . . . . <.% % } < % % % % % % % % % % % % % ;.~.. . . . . . . . . . . . . . .             ",
"              . . . . . . . . . . . . . . . . [.% % }.S { Q % % % % % % % % % % &.|.. . . . . . . . . . . . . . .               ",
"              . . . . . . . . . . . . . . . . 1.% % 2.. H %.% % > l 3.4.A 5.6.7.. . . . . . . . . . . . . . . . .               ",
"                . . . . . . . . . . . . . . 8.% % % 9.. 0.% % L a.. . . . . . . . . . . . . . . . . . . . . . .                 ",
"                  . . . . . . . . . . . . . b.% % D c.. z % % d.. . . . . . . . . . . . . . . . . . . . . . .                   ",
"                  . . . . . . . . . . . . . , e.m 4.. . &.% % 5.. . . . . . . . . . . . . . . . . . . . . . .                   ",
"                    . . . . . . . . . . . . . . . . . . i ~ % f.. . . . . . . . . . . . . . . . . . . . . .                     ",
"                      . . . . . . . . . . . . . . . . . . ! g.h.. . . . . . . . . . . . . . . . . . . . .                       ",
"                      . . . . . . . . . . . . . . . . . . . . . . . . . . . . . . . . . . . . . . . . .                         ",
"                        . . . . . . . . . . . . . . . . . . . . . . . . . . . . . . . . . . . . . . .                           ",
"                          . . . . . . . . . . . . . . . . . . . . . . . . . . . . . . . . . . . . .                             ",
"                              . . . . . . . . . . . . . . . . . . . . . . . . . . . . . . . . . .                               ",
"                                . . . . . . . . . . . . . . . . . . . . . . . . . . . . . . . .                                 ",
"                                    . . . . . . . . . . . . . . . . . . . . . . . . . . . . .                                   ",
"                                      . . . . . . . . . . . . . . . . . . . . . . . . . .                                       ",
"                                          . . . . . . . . . . . . . . . . . . . . . .                                           ",
"                                                . . . . . . . . . . . . . . . .                                                 ",
"                                                          . . . . . .                                                           ",
"                                                                                                                                ",
"                                                                                                                                ",
"                                                                                                                                ",
"                                                                                                                                "};
