/* XPM */
static char *bitcoin___[] = {
/* columns rows colors chars-per-pixel */
"128 128 91 1",
"  c #353634",
". c #373836",
"X c #383937",
"o c #3D3E3C",
"O c #3F403E",
"+ c #40413F",
"@ c #434442",
"# c #474847",
"$ c #484947",
"% c #4B4C4B",
"& c #4F504E",
"* c #50514F",
"= c #4F5150",
"- c #545553",
"; c #575857",
": c #585957",
"> c #575858",
", c #5B5C5B",
"< c #5F605E",
"1 c #60615F",
"2 c #5F6160",
"3 c #646464",
"4 c #676867",
"5 c #686967",
"6 c #6B6C6B",
"7 c #6F706F",
"8 c #6F7070",
"9 c #717372",
"0 c #777877",
"q c #7B7C7B",
"w c #80807F",
"e c #7F8080",
"r c #838484",
"t c #888987",
"y c #878888",
"u c #8B8B8B",
"i c #8F908F",
"p c #90908F",
"a c #8D8E90",
"s c #8F9092",
"d c #949595",
"f c #979896",
"g c #989897",
"h c #959698",
"j c #979899",
"k c #9A9B9C",
"l c #9FA09F",
"z c #9E9FA1",
"x c #9FA0A1",
"c c #A3A4A4",
"v c #A7A8A7",
"b c #A6A7A9",
"n c #A7A8A8",
"m c #ACADAD",
"M c #ADAFB1",
"N c #AFB0B3",
"B c #B3B4B6",
"V c #B7B8B7",
"C c #B6B7BA",
"Z c #B7B8BB",
"A c #BABABD",
"S c #BFC0BF",
"D c #BDBEC1",
"F c #BFC0C2",
"G c #C2C3C4",
"H c #C5C6C9",
"J c #C7C8CA",
"K c #CACBCC",
"L c #CECED1",
"P c #CFD0D1",
"I c #D3D4D4",
"U c #D6D6D8",
"Y c #D7D8D9",
"T c #DBDBDC",
"R c #E0DFDF",
"E c #E0E0DF",
"W c #DFDFE0",
"Q c #DFE0E0",
"! c #E3E4E4",
"~ c #E7E7E8",
"^ c #E7E8E8",
"/ c #EBEBEC",
"( c #EFEFF0",
") c #F0EFF0",
"_ c #EFF0F0",
"` c #F4F5F5",
"' c #F6F7F8",
"] c #F8F7F8",
"[ c #F7F8F8",
"{ c #FDFDFD",
"} c None",
/* pixels */
"}}}}}}}}}}}}}}}}}}}}}}}}}}}}}}}}}}}}}}}}}}}}}}}}}}}}}}}}}}}}}}}}}}}}}}}}}}}}}}}}}}}}}}}}}}}}}}}}}}}}}}}}}}}}}}}}}}}}}}}}}}}}}}}}",
"}}}}}}}}}}}}}}}}}}}}}}}}}}}}}}}}}}}}}}}}}}}}}}}}}}}}}}}}}}}}}}}}}}}}}}}}}}}}}}}}}}}}}}}}}}}}}}}}}}}}}}}}}}}}}}}}}}}}}}}}}}}}}}}}",
"}}}}}}}}}}}}}}}}}}}}}}}}}}}}}}}}}}}}}}}}}}}}}}}}}}}}}}}}}}}}}}}}}}}}}}}}}}}}}}}}}}}}}}}}}}}}}}}}}}}}}}}}}}}}}}}}}}}}}}}}}}}}}}}}",
"}}}}}}}}}}}}}}}}}}}}}}}}}}}}}}}}}}}}}}}}}}}}}}}}}}}}}}}}}}  .  X .  ..}}}}}}}}}}}}}}}}}}}}}}}}}}}}}}}}}}}}}}}}}}}}}}}}}}}}}}}}}}",
"}}}}}}}}}}}}}}}}}}}}}}}}}}}}}}}}}}}}}}}}}}}}}}}}}}}} XoooooOoOooooooOoooooX }}}}}}}}}}}}}}}}}}}}}}}}}}}}}}}}}}}}}}}}}}}}}}}}}}}}",
"}}}}}}}}}}}}}}}}}}}}}}}}}}}}}}}}}}}}}}}}}}}}}}}}ooooooooOooooooooooooooooooOoooX}}}}}}}}}}}}}}}}}}}}}}}}}}}}}}}}}}}}}}}}}}}}}}}}",
"}}}}}}}}}}}}}}}}}}}}}}}}}}}}}}}}}}}}}}}}}}}}}XoOoooOOoOooooooooooooooooOooooOoooooX}}}}}}}}}}}}}}}}}}}}}}}}}}}}}}}}}}}}}}}}}}}}}",
"}}}}}}}}}}}}}}}}}}}}}}}}}}}}}}}}}}}}}}}}}}.ooooooooooooooOoooOooOooOOooooOooooooOooooX}}}}}}}}}}}}}}}}}}}}}}}}}}}}}}}}}}}}}}}}}}",
"}}}}}}}}}}}}}}}}}}}}}}}}}}}}}}}}}}}}}}} o@oOOooooooooooooooooooooOoOooooooooooooooooooOX }}}}}}}}}}}}}}}}}}}}}}}}}}}}}}}}}}}}}}}",
"}}}}}}}}}}}}}}}}}}}}}}}}}}}}}}}}}}}}}XoooooooooooooooooOooooooXXXXXXoooooooooooOoOOoOoooooX}}}}}}}}}}}}}}}}}}}}}}}}}}}}}}}}}}}}}",
"}}}}}}}}}}}}}}}}}}}}}}}}}}}}}}}}}}}XoOoooooooooooooooXXo+@%*--:,,:;-&%#ooo.oooooooOoooOooooO }}}}}}}}}}}}}}}}}}}}}}}}}}}}}}}}}}}",
"}}}}}}}}}}}}}}}}}}}}}}}}}}}}}}}}} ooooooooooOoooo  o*5rcVKT!~~^^^^~!!TKVcr5*o  ooooooooooooooo }}}}}}}}}}}}}}}}}}}}}}}}}}}}}}}}}",
"}}}}}}}}}}}}}}}}}}}}}}}}}}}}}}}}oooooooooooooo  #5gST`'[{{[[{[[[[{[[[[{{{`_TAg6#. XoooooooooooOo}}}}}}}}}}}}}}}}}}}}}}}}}}}}}}}}",
"}}}}}}}}}}}}}}}}}}}}}}}}}}}}}} ooooooooooooXo$9nI`[{['][[][[[[[[]][[[[[[[[[{{[)Un9%Xooooooooooooo }}}}}}}}}}}}}}}}}}}}}}}}}}}}}}",
"}}}}}}}}}}}}}}}}}}}}}}}}}}}}}oooOooOooooo o,kI`{{['['[[[][[[[[[[[[[[[[[[[[][[[]{{'Ik,X oooooooooOOo}}}}}}}}}}}}}}}}}}}}}}}}}}}}}",
"}}}}}}}}}}}}}}}}}}}}}}}}}}}XoOooooooooooo6B^'{'''[[[[[[{[[[{[{[{[{[{{[[{[][]][[][[{[^B6oooOoooooooooX}}}}}}}}}}}}}}}}}}}}}}}}}}}",
"}}}}}}}}}}}}}}}}}}}}}}}}}}oooooooooooo@9D`[[[[[{[''{][{'[{{[['{[{{[{[[{[{[{][{''[[[[[{`A9@oooooooOoooX}}}}}}}}}}}}}}}}}}}}}}}}}}",
"}}}}}}}}}}}}}}}}}}}}}}}}}oOoooooooooo4A`{]'[[[[[{'{]{'{]{{[{{{{{]{{{{{{{[{[{{]{[{[[[[''{_A4ooooooooOooo}}}}}}}}}}}}}}}}}}}}}}}}}",
"}}}}}}}}}}}}}}}}}}}}}}}}ooooooooooo-c/['[[[[]][['{[{{{{{{[{{{{{{{{{{{{{{{[{[{{[]['[[[[''[{^c-ooooooooooo}}}}}}}}}}}}}}}}}}}}}}}}",
"}}}}}}}}}}}}}}}}}}}}}}}OooooooooooqY][''[[[['{{][{{[{{{{{{{{{{{{{{{{{{{{{{{{{[{{{{{'{[[[['{[IqooOoooooOoo}}}}}}}}}}}}}}}}}}}}}}}",
"}}}}}}}}}}}}}}}}}}}}}}ooooooOoo %m`'''['[{][{{{{{{{{{{{{{[`/~QQW!!~~/']{{{{{{{{{{{{][[[['''[[`m% oooooOooo}}}}}}}}}}}}}}}}}}}}}}",
"}}}}}}}}}}}}}}}}}}}}}ooooooooo.5I[''[[['{[{[{[{{{{{{{(!YKGDACCDCBBCCZAGJU!`'{{{{{{[{{{[{{][[]]]I5.ooooooooo}}}}}}}}}}}}}}}}}}}}}",
"}}}}}}}}}}}}}}}}}}}}oooooooooot^{'[[[['{[[{{{{{{{'~YHZBBBBCCCCCCCCCCCCVBBBCG!{{{{{{{{{{[{'[[[['[^toXoooooooo}}}}}}}}}}}}}}}}}}}}",
"}}}}}}}}}}}}}}}}}}}oooOooooook'['[[[[{{[{{{{{{{/YGCBCCCCCCCCCCCCCCCCCCCBBALW`{{{{{{{{{{{{[{[{[{[['kooooOoooOo}}}}}}}}}}}}}}}}}}}",
"}}}}}}}}}}}}}}}}}}oOooooooo$m][]{']]{{{{{{{{'~LNBBCCCCCCBCCCCCCCCCCCCVZJT`{{{{{{{{{{{{{{{{[{{]][[[]N$ooooooooO}}}}}}}}}}}}}}}}}}",
"}}}}}}}}}}}}}}}}}ooooooooo%V[[[[['{['{]{]{{~LDNDCCCCZDDDDDDCDDCDDCDDGT/{{{{{{{{{{{{{{{{{{{{[[{[[[[[]Z%ooooooooo}}}}}}}}}}}}}}}}}",
"}}}}}}}}}}}}}}}}ooooooooo%A{[[[[]{]{{{{{{(LDCCDMCZCCMzhzkkkkhzzzhzcCSGHGHGHGGGG){{{{{{{{{{{{{][][[[[]A%XoooooOoX}}}}}}}}}}}}}}}}",
"}}}}}}}}}}}}}}} ooooOooo$Z[][[[[]{{[{{{'YDNCCCDNCCCDeXooooooooXoOOOO++++OO+++O$Y{{{{{{{{{{{{{{{{{[[[]{Z$ooooooo+ }}}}}}}}}}}}}}}",
"}}}}}}}}}}}}}}}oooooooooM'''[[{[]{{{{{(HBCCCNDNDDBCC3Xooooooooooooooooooooooo 3){{{{{{{{/){{{{{]{[[[][{mOoooooOoo}}}}}}}}}}}}}}}",
"}}}}}}}}}}}}}}oooooooook'''{{[[{{{{{'WDNCCDCDNDNBBDM%oOoooooooooooooooooooOOo p{{{{{{`WJAAW{{{{{{[{[[][[loooOooooo}}}}}}}}}}}}}}",
"}}}}}}}}}}}}}oooo@oooot'['[[['{{{{{]UCBDCCBCNDNDBDDhooOyVVVVBBVVCZZZZZZZVVwoooA{{{'!LABBCCCI]{{{{[[[{[[['uXoooooooX}}}}}}}}}}}}}",
"}}}}}}}}}}}}}ooooooo 5^[[[''{{[{{{'LBBBDCCCCDNDNDNDq.O#P{{{{{{{{{{{{{{{{{{rXo*E[/YGCBCCCCCCCL]{{{{{[[][[[^5 oooOooo}}}}}}}}}}}}}",
"}}}}}}}}}}}}oooooooX%I[[[[[{[{{{{`JBCCCZCCCCCCCBCGI5Xo3/{{{{{{{{{{{{{{{{{^>oX6WHCBBCCCCCCZCZBJ`{{{[{][[[[{I%oooooooo}}}}}}}}}}}}",
"}}}}}}}}}}} ooooooo+m[[[[[{[{{{{`HBCCCCCZCCCCBDL~[E%oXr{{{{{{{{{{{{{{{{{{H@OXqCNCCCCCCCCCCCCZBJ'{{{{{[]{[[[moooooooo }}}}}}}}}}}",
"}}}}}}}}}}}oOoooooow`][{]{[{{{{`JBCCCCCCCCBZJW`{{{ZoooB{{{{{{{{{{{{{{{{{{cXoOhDBCCCDCCCCCZZCCCBJ'{{{{[{][''`rXooooooo}}}}}}}}}}}",
"}}}}}}}}}}oooooooo-T[][[[[{{{{]LCZCCCCCCAHY({{{{{{p.o$I{{{{{{{{{{{{{{{{{]0Xo%MDBCCCCCCCCCCCCCZCNK{{{{{[{[''{T-oooooooo}}}}}}}}}}",
"}}}}}}}}}}OooOoooon{'[]]{[{[{{UBCCCCBCGI/[{{{{{{{`4Xo5`{{{{{{{{{{{{{{{{{~:o.3DBBDCCCCCCDCCZCBCDL~{{{{{[['[[[{noooooooo}}}}}}}}}}",
"}}}}}}}}}XooooooX6^['[[{{{{{{WBCCCBDL!'{{{{{{{{{{Y$o.u{{{{{{{{{{{{{{{{{{G@oXeDBDBCCCCCCCZBBDJ!`{{{{{{{{{{'[[[^5ooOoooo.}}}}}}}}}",
"}}}}}}}}}ooooooo@D{'[[{[{{{{/ACBCHW){{{{{{{{{{{{{mXooZ{{{{{{{{{{{{{{{{{{goo+zDCCCCCDCCBBZHY({{{{{{{{{]{{{[[[[{A@ooooOoo}}}}}}}}}",
"}}}}}}}} ooooooo9`'''{[[[{{'HBGU(]{{{{{{{{{{{{{{[r o*R{{{{{{{{{{{{{{{{{'0Xo-BACCCDBBBBDI^[{{{{{{{{{{{{{{{[{['[`9ooooooo }}}}}}}}",
"}}}}}}}}ooooooo+F{'[[[{{{{{!K~[{{{{{{{{{{{{{{{{{/:XX7`{{{{{{{{{{{{{{{{{!-oX6AZCCCNBAKW'{{{{{{{{{{{{{{{{{{[[[''{Foooooooo}}}}}}}}",
"}}}}}}}}oooOoO 7`[[[[[[{{{{[{{{{{{{{{{{{{{{{{{{{K+OXg{{{{{{{{{{{{{{{{{{A+ootACBBCHT`{{{{{{{{{{{{{{{{{{{{{{[{{[[`8 oooooO}}}}}}}}",
"}}}}}}}ooOooooXV{[[[{[{{{{{{{{{{{{{{{{{{{{{{{{{{c ooG{{{{{{{{{{{{{{{{{{dXo@xZBDI~[{{{{{{{{{{{{{{{{{{{{{{{{{{[['{CooooOOoo}}}}}}}",
"}}}}}}}Oooooo.3/[[[[[{{{{{{{{{{{{{{{{{{{{{{{{{{`9Xo-!{{{{{{{{{{{{{{{{{`5Xo:CL!'{{{{{{{{{{{{{{{{{{{{{{{{{{{{[[''{^1ooooooo}}}}}}}",
"}}}}}} OOooooXl{[[{{[{{{{{{{{{{{{{{{{{{{{{{{[^IC%o 9[{{{{{{{{{{{{{{{{{T$oXt){{{{{{{{{{{{{{{{{{{{{{{{{^!{{{{][{[[{lXoooooo }}}}}}",
"}}}}}}Xoooooo$Y[][[[{{{{{{{{{{{{{{{{{{{{{{(YHAAd+o k{{{{{{{{{{{{{{{{{{VoooV{{{{{{`{{{{{{{{{{{{{{{{(TJAC~{{{{[][[[U$oooOooo}}}}}}",
"}}}}}}Ooooo+.9'']][{{{{{{{{{{{{{{{{{{{{`WJABCCA0oo@K{{{{{{{{{{{{{{{{{[y o&T{{{/Grc{{{{{{{{{{{{{`!KDBCCBL{{{]{[{[''0 oOoooo}}}}}}",
"}}}}}}oOoooo m{'{[[[]{{{{{{{{{{{{{{{'~KACCCCCCB2oo:^{{{{{{{{{{{{{{{{{`,oX6']Il3@.V{{{{{{{{{{[^UDCBCCCCCZ/{{{{[]]'{m oooooo}}}}}}",
"}}}}}.oooooo#T[[[{{[{{{{{{{{{{{{{[/IFCCCZCCCCAb%o r[{{{{{{{{{{{{{{{{{I$oorB9$oXo&T{{{{{{{[(TGDBCCCCZCCCBU{{{{{]{[[T#ooooooX}}}}}",
"}}}}}oooooo 6`[[[[]{{{{{{{{{{{{)THCBBCCCCCCZCDaoooM{{{{{{{{{{{{{{{{{{mooo@o oooX8`{{{{{)!HCBCCBCCZCCCCCCG]{{[[{[[[`6 ooooOo}}}}}",
"}}}}}+oOooo g[[[[]{{{{{{{{{{'!KACCCCZCCCCZCCCA0oo#I{{{{{{{{{{{{{{{{{{e oooooooood{{{[~PDBBCCCCCCZCCCCCCCZ^{{{{[[[[[g ooOoo+}}}}}",
"}}}}}oooooooS{[[{{{[{{{{{[/PFCBCCCCCCCCCCCZCCB>o.3({{{{{{{{{{{{{{{{{^:ooooo$-oo+F{/YGCVCCCCCACCCZCZCCZCCBU{{{{{[['{Sooooooo}}}}}",
"}}}} oooooo-R[[[{[{{{{{(THBBCCCZCACZCCCCCCCCZc@OXu{{{{{{{{{{{{{{{{{{K@oo@4kI0 o&HLCBCCZCCCCCCACCCZCCCCCCBH]{{{{][[[R-XooOoo }}}}",
"}}}}oooooo 5`[[[][{[{'LABCCCCZCCCCCCCZCZCCCCAuOoXZ{{{{{{{{{{{{{{{{{{g -tG`{/-oo,CBCCCCCCCCCCCCCCCCCZCCCBAP[{{[[{{[[)5Xoooooo}}}}",
"}}}}ooooooXt''[{[{{{{!BCCCCZCCCCCCCCCZCCCCCCZ9Xo%T{{{{{{{{{{{{{{{{{{cn!{{{{G@oXqDCCCCCCCCCCCCCCACCCCCAHT`{{{{{[{[[[]rXoooooo}}}}",
"}}}}oOoooooc['[[]{{{{IBCZCCCCCZCCCZCCCCZCBAJK<oX6]{{{{{{{{{{{{{{{{{{[{{{{{{z.ookDCZCZCCCCACCCCCCCBCGY/[{{{{{{{{[[[[{cooooooo}}}}",
"}}}}oOoooooZ{[[[{[{{{KBCCCCCCCCCCZCCCCBBDP~{I%o d{{{{{{{{{{{{{{{{{{{{{{{{{'0Xo$NACCCCZCCCCCCCCBCDL~'{{{{{{{{{{{{{[[{V+oo+ooO}}}}",
"}}}XooooOo$K[[[{[{{{]DBCCCCCZCZCCCCCCAK!`{{{mooOG{{{{{{{{{{{{{{{{{{{{{{{{{!-o.4ACZCCCCCCCCCCCAJW`{{{{{{{{{{{{{[{[][{K@oooooo }}}",
"}}} Oooooo%T{[[[[{{{`DCCCCZCCCCCBBCHT`{{{{{{rXo;~{{{{{{{{{{{{{{{{{{{{{{{{{G+oXrDCCCCCCZCCBCGY/{{{{{{{{{{{{{{{{{[[[][T%oooo+o.}}}",
"}}}.oooOoX*![[[[[{{{(ZCCZZCCZCBBDI~{{{{{{{{!:oX0'{{{{{{{{{{{{{{{{{{{{{{{{{dXo@zZCCCCZCCBDL~[{{{{{{{{{{{{{{{{{{{{{[]]!*Xooooo }}}",
"}}} oooooo-![][{{{{{^CCCCCCBCDL!`{{{{{{{[Tc3oooc{{{{{{{{{{{{{{{{{{{{{{{`Ja%oo-BCCCCBVZJ!`{{{{{{{{{{{{{{{{{{{{[{{{[[{!*oOoooO.}}}",
"}}}XoooooX-~[][[[{{{~CCCBCZHT({{{{{{{{EB0$XXoo@K{{{{{{{{{{{{{{{{{{{{'Yc6@ ooX6DCBBCHY`[{{{{{{{{{{{{{{{{{{{{{{{{[][[]~-XoOooo }}}",
"}}} oooOoo;![{[{{{{{!BBCGU/{{{{{{{{{!t-oooooo@9/{{{{{{{{{{{{{{{{{{~B0%oXoooo@aCCGI^[{{{{{{{{{{{{{{{{{{{{{{{{{{{{{[[{~-oooooo.}}}",
"}}} OooooX;~[[[[[{{{!DP~'{{{{{{{{{{{g ooo o,uG){{{{{{{{{{{{{{{{{{T:o oooo@,exDL!'{{{{{{{{{{{{{{{{{{{{{{{{'~`{{{{[[[[~;XOoooo }}}",
"}}} oOoooX-~[[[{[{{{''{{{{{{{{{{{{{`7ooo%qV^{{{{{{{{{{{{{{{{{{{{{n.oooo-8dBK!`{{{{{{{{{{{{{{{{{{{{{{{{[/YGC!{{{[{[[{~-XoooooX}}}",
"}}} oooooo-~[[[[{{{{{{{{{{{{{{{{{{{R-oo9T[{{{{{{{{{{{{{{{{{{{{{{{rooO4aMGY/{{{{{{{{{{{{{{{{{{{{{{{{{`THACCB!{{{{][[[~-ooooOo }}}",
"}}}.oooOoo-![[[{[{{{{{{{{{{{{{{{{{{ZoooV{{{{{{{{{{{{{{{{{{{{{{{{/,oX,GY^'{{{{{{{{{{{{{{{{{{{{{{{{'!KDBVCCCB~{{{[{['{!-.oooOo }}}",
"}}} oOoooo-!{[[[[{{{{{{{{{{{{{{{{{{u.o%U{{{{{{{{{{{{{{{{{{{{{{{{K@o u'{{{{{{{{{{{{{{{{{{{{{{{{[~IFCBCCCCCCC/{{{{{[['!*oooooo }}}",
"}}}.oooooo%E[[[{{{{{{{{{{{{{{{{{{{`3XX5`{{{{{{{{{{{{{{{{{{{{{{{{voooG{{{{{{{{{{{{{{{{{{{{{{{(YGCCCCZCCCCCCD({{{{''[[Q&oooooO.}}}",
"}}} oOoOoo$I[[[[[{{{{{{{{{{{{{{{{'G#o.d{{{{{{{{{{{{{{{{{{{{{{{{[qoo*!{{{{{{{{{{{{{{{{{{{{'QKABCCCCCCCCCCCCD`{{[[{['{I$ooOooo }}}",
"}}}}oooooX@G{[[[]{{{{{{{{{{{{{`!KGroooA{{{{{[{{{{{{{{{{{{{{{{{{^,o 9]{{{{{{{{{{{{{{{{{'~IDCBCCCCCCZCZCCCCBH[{{{{[[[{G@oooooo}}}}",
"}}}}ooOooooB{[[{[{]{{{{{{{{[/UDCCZ5oo-!{{'YkV{{{{{{{{{{{{{{{{{{G#o.c{{{{{{{{{{{{{{{{/TGCBCCCCCCCCCCCCCCCCBP{{{[{[[[{Booooooo}}}}",
"}}}}oooooOXg[[[[{{{{{{{{{(THDBCCZM-o 9`!B0%oV{{{{{{{{{{{{{{{{{{cXo+K{{{{{{{{{{{{{)WKDBBBCCCCCCCCCCCCCCCCCBT{{{{][[[[g.ooOooo}}}}",
"}}}}ooooooX0'[[[[]{{{{`!KDCBCCCCDk@oo9y>ooX*T{{{{{{{{{{{{{{{{{'9Xo1){{{{{{{{{{[^PGACCCDZDAAAAAAAAZZCCCCCCB~{{{[{[{[`0ooooooo}}}}",
"}}}}XoooooX1/][{{[{[{'GVCCZCCCCCAeooOoXoOoX6'{{{{{{{{{{{{{{{{{!-OX7GJJGJJHKKGBcddhhhhhhhdddhhhdhhMACCCCAHT{{{][{[[[/3.oooooX}}}}",
"}}}} ooOOoX$I][]]{{{{{JBZCCCCCCCC3oooOooo+.d{{{{{{{{{{{{{{{{{{A+O++@@#@@#@@@@+o@o@@o@@O@@+@O@@@o#cZBBGI/[{{{{{{][[]I@ooooOo.}}}}",
"}}}}}ooooooXB{[[['{{{{WBCCCCCCCAM$oooX@@oooG{{{{{{{{{{{{{{{{{[d oOOooooooooooooooooooooooooooooo>MAK~'{{{{{{{{[{[[{Booooooo}}}}}",
"}}}}}OOooo+ r[[[{{]{{{(ACCCCCCCAho.o=9h3Xo*!{{{{{{{{{{{{{{{{{`4 XXXXooXoooXoo.Xooo.ooXooo.Xoooo.qW`{{{{{{{{{[{{[{[[r oooooO}}}}}",
"}}}}}ooooOoX,/['''[{{{{HBCCCZCCD9o3aMKL-o 0[{{{{{{{{{{{{{{{{{'FVVVVVVVVVBBCVVVVBVVVVBVVVVCBCro+XC{{{{{{{{{{{{{[{[]^,.oooooo}}}}}",
"}}}}}Xoooooo+J{'[[{[{{{WCZCZCCACscGY~]FOo c{{{{{{{{{{{{{{{{{{{{{{{{{{{{{{{{{{{{{{{{{{{{{{{{{tXo$T{{{{{{{{{{{{[[[[{JOoOoooO }}}}}",
"}}}}}}oooooo d[[[[{[{{{'DBCCCCBAI~`{{{gXo@K{{{{{{{{{{{{{{{{{{{{{{{{{{{{{{{{{{{{{{{{{{{{{{{{^3o 6'{{{{{{{{{{{{[{[[{d oooooo}}}}}}",
"}}}}}}ooooooX3/['{'{[{{{YBCBAHT){{{{{]7Xo,/{{{{{{{{{{{{{{{{{{{{{{{{{{{{{{{{{{{{{{{{{{{{{{{{I$o d{{{{{{{{{{[{{{[[[/1.ooOooo}}}}}}",
"}}}}}}Xoooooo@G{[[[{{{[{)DGU/{{{{{{{{T%o r[{{{{{{{{{{{{{{{{{{{{{{{{{{{{{{{{{{{{{{{{{{{{{{{{noooG{{{{{{{{{{{]['[[{G+OoOOoOX}}}}}}",
"}}}}}}}oOooOo t[[[[[[{{{{)'{{{{{{{{{{Vo+.n{{{{{{{{{{{{{{{{{{{{{{{{{{{{{{{{{{{{{{{{{{{{{{{{[woX-~{{{{{{{{{{{{{[[][r oooooo}}}}}}}",
"}}}}}}}ooooooo%T{''[{[{{{{{{{{{{{{{{{dXo@I{{{{{{{{{{{{{{{{{{{{{{{{{{{{{{{{{{{{{{{{{{{{{{{{^,oX0[{{{{{{{{{{{[[[[[T%XOooooo}}}}}}}",
"}}}}}}}oooOooo g{[[[]{[{{{{{{{{{{{{{`5X.<`{{{{{{{{{{{{{{{{{{{{{{{{{{{{{{{{{{{{{{{{{{{{{{{{G@oon{{{{{{{{{{{[{{[[{g OooooOo}}}}}}}",
"}}}}}}}}oOooooX-~['][{[{{{{{{{{{{{{{U%O y{{{{{{{{{{{{{{{{{{{{{{{{{{{{{{{{{{{{{{{{{{{{{{{{{kXo#K{{{{'){{{{{{][[[~-XOooooO}}}}}}}}",
"}}}}}}}}ooooooooc[[''{[{{{{{{{{{{{{{B+oXV{{{{{{{{{{{{{{{{{{{{{{{{{{{{{{{{{{{{{{{{{{{{{{{{]9.o,/{[^IG~{{{[{[][[[cXOooOooX}}}}}}}}",
"}}}}}}}}}ooOooOo,![[]{[{{{{{{{{{{{{{uXo$T{{{{{{{{{{{{{{{{{{{{{{{{{{{{{{{{{{{{{{{{{{{{{{{{!-XXr(WJZBI{{{{[{[[[[!:o+ooooo}}}}}}}}}",
"}}}}}}}}}ooooooook[[[[{[[{{{{{{{{{{!3oX5/''[[][[[[[[[['[[[[[[][][[[[[[]][][[[[]][[[[[[[[[A+ooaGBBVH'{{{{{[[[[{koooooooo}}}}}}}}}",
"}}}}}}}}}}ooooooo*I[[[[{{{{{{{{{[~Ic#oo-9989899998799989999899978999997789999897899989879,oo@cZCCD/{{{{]{[[[[I-ooooO+o}}}}}}}}}}",
"}}}}}}}}}}oooooooor'[[[[[[{{{{{YGCZroOooX......X....XX..X..X..XX...X.XXX...X..XX...XX...XXoo>BZCA~{{{{[{][[[`r.ooooooo}}}}}}}}}}",
"}}}}}}}}}}}ooooooo@Z{[[[{{{{[{{TBBZ5 oooXoooooXooXoooXXXoo.XoXXXo.XoXXXoo.XoXXXoooooXoooXoo 9ACCW{{{{{[[]{[{Z@ooooooo}}}}}}}}}}}",
"}}}}}}}}}}}OOooOoOo,W[[[][{[{{{{TCB8,2,,<<,<<<<<3,,,379777977779799797977997799953<<<,1,112,jCCT{{{{{][{][[E,oooooOoO}}}}}}}}}}}",
"}}}}}}}}}}}}Ooooooo r`'[]{]{{{{{{YBBCCCCVCCBCCBBBCJT/`''`''`''''''`'`'`''''`])!IFCCCVCCCVVVBCCT{{{{[{{][][`rXooOooo+}}}}}}}}}}}}",
"}}}}}}}}}}}}.Oooooooon{'][[][{{{{{TCCVCZZVZZCBVFI/{{{{{{{{{{{{{{{{{{{{{{{{{)TGAVCCVZVZCZCZCCZW{{{{{{[[]{[]mooooooooX}}}}}}}}}}}}",
"}}}}}}}}}}}}}ooooOoOo#J{'[[{{{{{{{{WABCCCBBBAL~[{{{{{{{{{{{{{{{{{{{{{{{{`!KDBCCCCZZCCZCZZCBD!{{{{{{]{[['{J$oooooooo}}}}}}}}}}}}}",
"}}}}}}}}}}}}}}Oooooooo,R['[[[[{[{{{{~DBBBDHW'{{{{{{{{{{{{{{{{{{{{{{{{'~UDCBCCCZCCCCCCCCCCBF/{{{{{][{'''{W,XOoooOo+}}}}}}}}}}}}}}",
"}}}}}}}}}}}}}}Xooooooo.6^[[['{[{{[{{{(KFU({{{{{{{{{{{{{{{{{{{{{{{{{/THBNCCCCCCCZCZCZZCCCCL){{{{][{][[[[~8 oooooooo}}}}}}}}}}}}}}",
"}}}}}}}}}}}}}}}OooOoooo w/[['[[[{]{{{{{'{{{{{{{{{{{{{{{{{{{{{{{{`!KABCDBCCCCCCCZCCCCCCCDW]{{{{{{{]][[{/q ooOooooo}}}}}}}}}}}}}}}",
"}}}}}}}}}}}}}}}}oOoOoooooy({'[[[{[{{{{{{{{{{{{{{{{{{{{{{{{{{{`~PGCCCCDBBCCCCCCCCZZZCCZL/{{{{[{{{[[[[[/tooooooooo}}}}}}}}}}}}}}}}",
"}}}}}}}}}}}}}}}}}Oooooooooy/{'[['{]{{{{{{{{{{{{{{{{{{{{{{{{/YHZCBCCCCCBDCCCCCCCCCBBZJ~{{{{{{{{][[[[{`tooooooooO}}}}}}}}}}}}}}}}}",
"}}}}}}}}}}}}}}}}}XooOoooooor/['[{''{'{{{{{{{{{{{{{{{{{{{(WHDBCCCCZCCCCBDCCDBCCCCBCJ!]{{{{{{][{]{[[[^rooooooooo.}}}}}}}}}}}}}}}}}",
"}}}}}}}}}}}}}}}}}}.oooOooooo0!{[[[]'{[[{{{{{{{{{{{{{{'!LDBBCCCCCCCCCCCCCCCCCCCBZL~]{{{{]{{]{{[[[[{!0oooooooooo}}}}}}}}}}}}}}}}}}",
"}}}}}}}}}}}}}}}}}}}XOooooooo 4I{[[[[[{{{]{{{{{{{{{{`PABBCCCCCCZCCZCCCCCCCBBBDGY({{{{{{{][{[{[[[[{Y4 oooOoooOX}}}}}}}}}}}}}}}}}}}",
"}}}}}}}}}}}}}}}}}}}}ooooooooo.-A[{[[[[[[{{[{{{{{{{{(TLFZCBBBBBCBCBCBBBBBZFLW({{{{{{[{{{{{[[[[[[[A- ooOoooooo}}}}}}}}}}}}}}}}}}}}",
"}}}}}}}}}}}}}}}}}}}}}ooooooooO.@g/['[[[{][[{[{{{{{{{{{'(!YIKGFDDDDDHKIWQ)'{{{{{{{{{{{{]][{[[[[/g@Xooooooooo}}}}}}}}}}}}}}}}}}}}}",
"}}}}}}}}}}}}}}}}}}}}}}.oooOoooooX6I[[[[['{]{{[[{[{{{{{{{{{{{{]]`''][{{{{{{{{{{{]]{]{[]{[[[[[[I9.ooooooooo.}}}}}}}}}}}}}}}}}}}}}}",
"}}}}}}}}}}}}}}}}}}}}}}}.ooooooOooX=c^{[['[[{{{[{{{{{{{{{{{{{{{{{{{{{{{{{{{][[{{{[{{[][[[][{^c%XooooooOoo.}}}}}}}}}}}}}}}}}}}}}}}",
"}}}}}}}}}}}}}}}}}}}}}}}}oOooooooOooo6S`[']''[[]{{[[{{[[{{{{{{{{{{{{{{{]{{{{{{{]{{[[[[[[[[`S6oooooooOoooo}}}}}}}}}}}}}}}}}}}}}}}}",
"}}}}}}}}}}}}}}}}}}}}}}}}} ooooooooooX@wK'{[[[[[[][{{[[{{]{]{][{{{{{{{{{{[{]{[{{[[[{]''{'Kw@XoooOoooooo }}}}}}}}}}}}}}}}}}}}}}}}}",
"}}}}}}}}}}}}}}}}}}}}}}}}}}}oOooOooooooX#wJ`{[[[[[[[[{]{]{{{[{{{]{][{[[{'{'{'{'[[[[[[[`Jr$XoooOooooooo}}}}}}}}}}}}}}}}}}}}}}}}}}}",
"}}}}}}}}}}}}}}}}}}}}}}}}}}}}.oooooooooOooO9V/[{'[[[[[[{[[[{]{[{['{[[{[[[[[[[[[[''{[/Z9+Xooooooooooo.}}}}}}}}}}}}}}}}}}}}}}}}}}}}",
"}}}}}}}}}}}}}}}}}}}}}}}}}}}}} ooooOoOooooo o,jL`{{][[[[[][[[[[[][[[[[[[[[{[[[{[{`Kg,o ooooOooOoOoo }}}}}}}}}}}}}}}}}}}}}}}}}}}}}",
"}}}}}}}}}}}}}}}}}}}}}}}}}}}}}}}oooooooOoooooX.@4gH~[{[{[[[[[[[]][[[[[[[][{{['^Jk5# ooooooOooooooo}}}}}}}}}}}}}}}}}}}}}}}}}}}}}}}",
"}}}}}}}}}}}}}}}}}}}}}}}}}}}}}}}} Ooooooooooooooo O;qcGT/`[{{{{{{{{{{{{]'/TGc0:o .oooooooooooooo }}}}}}}}}}}}}}}}}}}}}}}}}}}}}}}}",
"}}}}}}}}}}}}}}}}}}}}}}}}}}}}}}}}}}XooooooooooooOOXX .O&30icmmBBBVVBmmcu03&oX XoooOooooooooooo.}}}}}}}}}}}}}}}}}}}}}}}}}}}}}}}}}}",
"}}}}}}}}}}}}}}}}}}}}}}}}}}}}}}}}}}}}ooooooooo+ooooOOooX..XX.oooOooooXXXXXooO+ooooooooooooOoo}}}}}}}}}}}}}}}}}}}}}}}}}}}}}}}}}}}}",
"}}}}}}}}}}}}}}}}}}}}}}}}}}}}}}}}}}}}}}ooooooooooXOXOooooooOoooooooooooooooooooooOooooooooo}}}}}}}}}}}}}}}}}}}}}}}}}}}}}}}}}}}}}}",
"}}}}}}}}}}}}}}}}}}}}}}}}}}}}}}}}}}}}}}}} XooooOoOooOoOooOooOoooooooooooOooooOoooooooooo }}}}}}}}}}}}}}}}}}}}}}}}}}}}}}}}}}}}}}}}",
"}}}}}}}}}}}}}}}}}}}}}}}}}}}}}}}}}}}}}}}}}}}XooooOooooooooooOoooOooOooooOooooooOoooOoX}}}}}}}}}}}}}}}}}}}}}}}}}}}}}}}}}}}}}}}}}}}",
"}}}}}}}}}}}}}}}}}}}}}}}}}}}}}}}}}}}}}}}}}}}}}}XoOOoooOOoOoooooooOoooOooooo+oooo+o }}}}}}}}}}}}}}}}}}}}}}}}}}}}}}}}}}}}}}}}}}}}}}",
"}}}}}}}}}}}}}}}}}}}}}}}}}}}}}}}}}}}}}}}}}}}}}}}}} .oOoooooooOooooooooooooooooX }}}}}}}}}}}}}}}}}}}}}}}}}}}}}}}}}}}}}}}}}}}}}}}}}",
"}}}}}}}}}}}}}}}}}}}}}}}}}}}}}}}}}}}}}}}}}}}}}}}}}}}}}} XoOooooOooooOooooX }}}}}}}}}}}}}}}}}}}}}}}}}}}}}}}}}}}}}}}}}}}}}}}}}}}}}}",
"}}}}}}}}}}}}}}}}}}}}}}}}}}}}}}}}}}}}}}}}}}}}}}}}}}}}}}}}}}} .  .. .  }}}}}}}}}}}}}}}}}}}}}}}}}}}}}}}}}}}}}}}}}}}}}}}}}}}}}}}}}}}",
"}}}}}}}}}}}}}}}}}}}}}}}}}}}}}}}}}}}}}}}}}}}}}}}}}}}}}}}}}}}}}}}}}}}}}}}}}}}}}}}}}}}}}}}}}}}}}}}}}}}}}}}}}}}}}}}}}}}}}}}}}}}}}}}}",
"}}}}}}}}}}}}}}}}}}}}}}}}}}}}}}}}}}}}}}}}}}}}}}}}}}}}}}}}}}}}}}}}}}}}}}}}}}}}}}}}}}}}}}}}}}}}}}}}}}}}}}}}}}}}}}}}}}}}}}}}}}}}}}}}",
"}}}}}}}}}}}}}}}}}}}}}}}}}}}}}}}}}}}}}}}}}}}}}}}}}}}}}}}}}}}}}}}}}}}}}}}}}}}}}}}}}}}}}}}}}}}}}}}}}}}}}}}}}}}}}}}}}}}}}}}}}}}}}}}}"
};
