/* XPM */
static char *bitcoin__[] = {
/* columns rows colors chars-per-pixel */
"32 32 192 2",
"   c #3F591E",
".  c #4B6E1D",
"X  c #497A14",
"o  c #4A7A14",
"O  c #4A7B14",
"+  c #4B7B14",
"@  c #4B7C14",
"#  c #4C7C15",
"$  c #4C7D15",
"%  c #4D7D15",
"&  c #4D7E15",
"*  c #4E7F15",
"=  c #415B22",
"-  c #486227",
";  c #526D29",
":  c #526D2D",
">  c #556C37",
",  c #59703A",
"<  c #5E753A",
"1  c #6C7C58",
"2  c #4E8015",
"3  c #4F8015",
"4  c #4F8115",
"5  c #508115",
"6  c #508215",
"7  c #518215",
"8  c #518315",
"9  c #528315",
"0  c #528415",
"q  c #538515",
"w  c #548615",
"e  c #558716",
"r  c #558816",
"t  c #568916",
"y  c #578916",
"u  c #578A16",
"i  c #588B16",
"p  c #598B16",
"a  c #598C16",
"s  c #598D16",
"d  c #5A8D16",
"f  c #5A8E16",
"g  c #5B8E16",
"h  c #5B8F16",
"j  c #5C8F16",
"k  c #538018",
"l  c #5C9016",
"z  c #5D9016",
"x  c #5D9116",
"c  c #5D9117",
"v  c #5E9117",
"b  c #5E9217",
"n  c #5F9317",
"m  c #609417",
"M  c #609517",
"N  c #619517",
"B  c #639517",
"V  c #619617",
"C  c #629617",
"Z  c #629717",
"A  c #639717",
"S  c #639817",
"D  c #649817",
"F  c #649917",
"G  c #659A17",
"H  c #659B17",
"J  c #62911B",
"K  c #66961E",
"L  c #669B18",
"P  c #669C18",
"I  c #679C18",
"U  c #679D18",
"Y  c #689C18",
"T  c #689D18",
"R  c #689E18",
"E  c #699E18",
"W  c #699F18",
"Q  c #6A9F18",
"!  c #6AA018",
"~  c #5D8225",
"^  c #65843B",
"/  c #729E35",
"(  c #73A32C",
")  c #76A631",
"_  c #738D4D",
"`  c #71815E",
"'  c #7A856C",
"]  c #7A8270",
"[  c #83AF3E",
"{  c #88B14E",
"}  c #85AB52",
"|  c #88B050",
" . c #8CB254",
".. c #8FB45B",
"X. c #92B65D",
"o. c #859175",
"O. c #859474",
"+. c #8B977D",
"@. c #8EA867",
"#. c #A3C470",
"$. c #A3C473",
"%. c #97A188",
"&. c #A0AD8C",
"*. c #A2BA85",
"=. c #A6B391",
"-. c #AFAFAF",
";. c #B0B0B0",
":. c #B1B2B0",
">. c #B9BDB2",
",. c #BABABA",
"<. c #AECB82",
"1. c #AAC28C",
"2. c #B0CC83",
"3. c #B2CE86",
"4. c #B2CC8B",
"5. c #B5CF8B",
"6. c #B7CD9B",
"7. c #B8CE99",
"8. c #B9D292",
"9. c #B9C9A4",
"0. c #BBCEA4",
"q. c #BCD2A1",
"w. c #BED3A1",
"e. c #C4DAA4",
"r. c #C4D8A8",
"t. c #C9DDAB",
"y. c #CCDCB8",
"u. c #D1E2B8",
"i. c #D1E1BB",
"p. c #D3E3BA",
"a. c #D4E3BD",
"s. c #C4C4C4",
"d. c #C5C5C5",
"f. c #CDCDCD",
"g. c #CECECE",
"h. c #CFCFCF",
"j. c #D4D9CE",
"k. c #D7DCCF",
"l. c #D9DFCE",
"z. c #D2D2D2",
"x. c #D3D3D3",
"c. c #D4D4D4",
"v. c #D9D9D9",
"b. c #DEDEDE",
"n. c #D3E1C1",
"m. c #D3E0C3",
"M. c #D5E3C0",
"N. c #D4E2C1",
"B. c #D5E3C1",
"V. c #D5E4C1",
"C. c #D6E4C1",
"Z. c #D6E5C1",
"A. c #D6E2C5",
"S. c #DCE8CC",
"D. c #DCE8CD",
"F. c #DEE9D0",
"G. c #DFE9D0",
"H. c #DFEAD0",
"J. c #DEE8D2",
"K. c #E0EAD0",
"L. c #E0EBD0",
"P. c #E0ECD0",
"I. c #E1ECD0",
"U. c #E2ECD2",
"Y. c #E0EAD5",
"T. c #E3EAD7",
"R. c #E3EDD4",
"E. c #E2ECD6",
"W. c #E5EDDA",
"Q. c #E5EDDB",
"!. c #E0E0E0",
"~. c #E1E1E1",
"^. c #E3E3E3",
"/. c #E6E6E6",
"(. c #E8E8E8",
"). c #E9E9E9",
"_. c #EEEEEE",
"`. c #EFEFEF",
"'. c #EAF0E0",
"]. c #EBF2E1",
"[. c #EEF4E4",
"{. c #EFF4E9",
"}. c #EEF0ED",
"|. c #EFF0ED",
" X c #F3F7EF",
".X c #F3F3F3",
"XX c #F5F9F0",
"oX c #F9F9F9",
"OX c #FAFAFA",
"+X c #FEFEFE",
"@X c #FFFFFF",
"#X c None",
/* pixels */
"#X#X#X#X#X#X#X#X#X#X#X#X#X#X#X#X#X#X#X#X#X#X#X#X#X#X#X#X#X#X#X#X",
"#X#X#X#X#X#X#X#X#X#X#X#X#X#X#X#X#X#X#X#X#X#X#X#X#X#X#X#X#X#X#X#X",
"#X#X#X#X#X#X#X#X#X#X#X#X! ! ! ! ! ! ! ! #X#X#X#X#X#X#X#X#X#X#X#X",
"#X#X#X#X#X#X#X#X#X#X! W ! ! ! ! ! ! ! ! ! ! #X#X#X#X#X#X#X#X#X#X",
"#X#X#X#X#X#X#X#XW W W W ! K 5.8.! ! ! ! ! ! ! ! #X#X#X#X#X#X#X#X",
"#X#X#X#X#X#X#XL L W W W ! ! `.U.! #.[ ! ! ! ! ! ! #X#X#X#X#X#X#X",
"#X#X#X#X#X#XF F L L W W W ! .X].2.+XR.! ! ! ! ! ! ! #X#X#X#X#X#X",
"#X#X#X#X#XC F F F L L W <.|.+X+X).~.+XXXe.! ! ! ! ! ! #X#X#X#X#X",
"#X#X#X#Xn n S S S F J R.+X>.z.t.~ :.'.T.+X[.3.W ! ! ! ! #X#X#X#X",
"#X#X#X#Xv v n S S C D.+X@.T g.a.! ,.u.! < v.+Xp.! ! ! ! #X#X#X#X",
"#X#X#Xg v v c m m =.+XX.P T h.Z.T d.U.! W ; &.$.! ! ! ! ! #X#X#X",
"#X#X#Xg j v c m ^ `.r.m F P h.V.T s.U.! ! ! Y W ! ! ! ! ! #X#X#X",
"#X#Xi i g g c c %.+X| S S F g.V.T s.I.! ! ! ! ! ! ! ! ! ! ! #X#X",
"#X#Xw i u i a k d.D.v C S S g.V.P s.I.! W W ! ! ! ! ! ! ! ! #X#X",
"#X#Xw w u i a : ^.w.m m C C g.V.P s.D.! W W ! ! ! ! ! ! ! ! #X#X",
"#X#X0 w w t i , OX7.v v n C g.V.S s.U.U W W ! ! ! ! ! ! ! ! #X#X",
"#X#X8 8 w e t > OXq.g l v C h.V.S s.D.U U W W W W W ! ! ! ! #X#X",
"#X#X* 8 8 w e - /.y.g g v v h.n.S s.U.F L W W W W W Q Q ! ! #X#X",
"#X#X* 8 8 8 w w s.W.g g j v g.V.C d.D.L F L L W W W W W ! ! #X#X",
"#X#X& * * 8 8 w ' +X6.i g g h.n.v d.H.S F F L U W W W W ! ! #X#X",
"#X#X#X& & * 8 8 = b.J.u i a h.n.v s.H.S S S ) ( L W W W ! #X#X#X",
"#X#X#X# & & * 8 0 1 +Xm.i i g.n.v s.D.n C  .i.4.L L Y W W #X#X#X",
"#X#X#X#XO & & 8 8 8 o.+XH.t +XA.g f.E.n ..+XD.{ F L Y Y #X#X#X#X",
"#X#X#X#XO O & & & 8 0 ` /.~.+XQ.} |. X{.OXk./ S F F L W #X#X#X#X",
"#X#X#X#X#XO # & & * 8 8 = 1 x.+X).x.+Xj._ n n S C F F #X#X#X#X#X",
"#X#X#X#X#X#XO O O & * 8 q ~ ;.9.. ;.0.g l v n n C C #X#X#X#X#X#X",
"#X#X#X#X#X#X#XO O & & & k 0 +.*.u O.1.i g l v v C #X#X#X#X#X#X#X",
"#X#X#X#X#X#X#X#XO O & & 4 4 4 0 0 r u u g g l v #X#X#X#X#X#X#X#X",
"#X#X#X#X#X#X#X#X#X#XO & & & 8 0 0 0 u u g i #X#X#X#X#X#X#X#X#X#X",
"#X#X#X#X#X#X#X#X#X#X#X#X& & & 4 8 0 0 w #X#X#X#X#X#X#X#X#X#X#X#X",
"#X#X#X#X#X#X#X#X#X#X#X#X#X#X#X#X#X#X#X#X#X#X#X#X#X#X#X#X#X#X#X#X",
"#X#X#X#X#X#X#X#X#X#X#X#X#X#X#X#X#X#X#X#X#X#X#X#X#X#X#X#X#X#X#X#X"
};
