/* XPM */
static char *bitcoin___[] = {
/* columns rows colors chars-per-pixel */
"64 64 157 2 ",
"   c #2F599B",
".  c #315A9B",
"X  c #315B9C",
"o  c #325B9C",
"O  c #325C9C",
"+  c #335C9C",
"@  c #335C9D",
"#  c #335D9D",
"$  c #345D9D",
"%  c #355E9D",
"&  c #355E9E",
"*  c #365E9E",
"=  c #365F9E",
"-  c #375F9E",
";  c #38609F",
":  c #38619F",
">  c #39619F",
",  c #3961A0",
"<  c #3A61A0",
"1  c #3A62A0",
"2  c #3B63A0",
"3  c #3C64A1",
"4  c #3D64A1",
"5  c #3F66A2",
"6  c #4067A3",
"7  c #4167A3",
"8  c #4469A5",
"9  c #446AA5",
"0  c #456AA5",
"q  c #456BA5",
"w  c #466BA6",
"e  c #466CA6",
"r  c #476CA6",
"t  c #476DA6",
"y  c #4B6FA8",
"u  c #4B70A8",
"i  c #4D71A9",
"p  c #4F72AA",
"a  c #4F73AA",
"s  c #5073AB",
"d  c #5174AB",
"f  c #5275AB",
"g  c #5376AC",
"h  c #5678AD",
"j  c #587AAF",
"k  c #597AAF",
"l  c #5E7EB1",
"z  c #5E7FB1",
"x  c #6080B2",
"c  c #6181B3",
"v  c #6685B5",
"b  c #6886B6",
"n  c #6887B6",
"m  c #6987B7",
"M  c #6A88B7",
"N  c #6C89B8",
"B  c #6C8AB8",
"V  c #6D8AB8",
"C  c #6D8BB9",
"Z  c #6E8BB9",
"A  c #6E8CB9",
"S  c #708DBA",
"D  c #718EBB",
"F  c #728FBB",
"G  c #7893BE",
"H  c #7994BE",
"J  c #7A95BF",
"K  c #7C97C0",
"L  c #819AC2",
"P  c #819BC2",
"I  c #829BC3",
"U  c #829CC3",
"Y  c #849DC4",
"T  c #869EC4",
"R  c #879FC5",
"E  c #8CA3C8",
"W  c #8FA5C9",
"Q  c #90A6C9",
"!  c #90A7CA",
"~  c #91A7CA",
"^  c #93A9CB",
"/  c #96ABCC",
"(  c #96ACCD",
")  c #98ADCD",
"_  c #9AAECE",
"`  c #9AAFCE",
"'  c #9BAFCF",
"]  c #A1B4D2",
"[  c #A4B6D3",
"{  c #A5B7D3",
"}  c #A8B9D5",
"|  c #ABBCD6",
" . c #ADBED7",
".. c #ADBED8",
"X. c #AFBFD8",
"o. c #B3C3DA",
"O. c #B5C4DB",
"+. c #B6C5DC",
"@. c #B8C7DD",
"#. c #B9C7DD",
"$. c #BAC8DE",
"%. c #BBC9DE",
"&. c #BFCCE0",
"*. c #C1CDE1",
"=. c #C2CFE2",
"-. c #C4D0E2",
";. c #C7D2E4",
":. c #C8D3E4",
">. c #CBD6E6",
",. c #CCD6E6",
"<. c #D1DAE9",
"1. c #D3DCEA",
"2. c #D4DCEA",
"3. c #D7DFEC",
"4. c #D9E0EC",
"5. c #DAE1ED",
"6. c #DAE2ED",
"7. c #DBE2ED",
"8. c #DCE3EE",
"9. c #DDE4EF",
"0. c #DEE5EF",
"q. c #DFE5EF",
"w. c #DFE6F0",
"e. c #E0E6F0",
"r. c #E0E7F0",
"t. c #E1E7F0",
"y. c #E2E8F1",
"u. c #E6EBF3",
"i. c #E7EBF3",
"p. c #E7ECF3",
"a. c #E7ECF4",
"s. c #E8ECF4",
"d. c #E9EDF4",
"f. c #EAEEF5",
"g. c #EBEFF5",
"h. c #ECF0F6",
"j. c #EEF2F7",
"k. c #EFF2F7",
"l. c #F1F4F8",
"z. c #F2F5F9",
"x. c #F3F5F9",
"c. c #F6F7FA",
"v. c #F6F8FB",
"b. c #F7F8FB",
"n. c #F7F9FB",
"m. c #F8F9FC",
"M. c #F9FAFC",
"N. c #FAFBFD",
"B. c #FBFCFD",
"V. c #FCFDFD",
"C. c #FCFDFE",
"Z. c #FDFDFE",
"A. c #FEFEFE",
"S. c #FEFEFF",
"D. c #FEFFFF",
"F. c gray100",
"G. c None",
/* pixels */
"G.G.G.G.G.G.G.G.G.G.G.G.G.G.G.G.G.G.G.G.G.G.G.G.G.G.G.G.G.G.G.G.G.G.G.G.G.G.G.G.G.G.G.G.G.G.G.G.G.G.G.G.G.G.G.G.G.G.G.G.G.G.G.G.",
"G.G.G.G.G.G.G.G.G.G.G.G.G.G.G.G.G.G.G.G.G.G.G.G.G.$ $ $ $ $ $ $ $ $ $ $ $ $ $ G.G.G.G.G.G.G.G.G.G.G.G.G.G.G.G.G.G.G.G.G.G.G.G.G.",
"G.G.G.G.G.G.G.G.G.G.G.G.G.G.G.G.G.G.G.G.G.$ $ $ $ $ $ $ $ $ $ $ $ $ $ $ $ $ $ $ $ $ $ G.G.G.G.G.G.G.G.G.G.G.G.G.G.G.G.G.G.G.G.G.",
"G.G.G.G.G.G.G.G.G.G.G.G.G.G.G.G.G.G.G.$ $ $ $ $ $ $ $ $ $ $ $ $ $ $ $ $ $ $ $ $ $ $ $ $ $ G.G.G.G.G.G.G.G.G.G.G.G.G.G.G.G.G.G.G.",
"G.G.G.G.G.G.G.G.G.G.G.G.G.G.G.G.G.$ $ $ $ $ $ $ $ $ $ $ $ $ $ $ $ $ $ $ $ $ $ $ $ $ $ $ $ $ $ G.G.G.G.G.G.G.G.G.G.G.G.G.G.G.G.G.",
"G.G.G.G.G.G.G.G.G.G.G.G.G.G.G.$ $ $ $ $ $ $ $ $ $ $ $ $ $ $ $ $ $ $ $ $ $ $ $ $ $ $ $ $ $ $ $ $ $ G.G.G.G.G.G.G.G.G.G.G.G.G.G.G.",
"G.G.G.G.G.G.G.G.G.G.G.G.G.G.$ $ $ $ $ $ $ $ $ $ $ $ $ $ $ $ $ $ $ $ $ $ $ $ $ $ $ $ $ $ $ $ $ $ $ $ G.G.G.G.G.G.G.G.G.G.G.G.G.G.",
"G.G.G.G.G.G.G.G.G.G.G.G.G.$ $ $ $ $ $ $ $ $ $ $ $ $ $ $ $ $ $ $ $ $ $ $ $ $ $ $ $ $ $ $ $ $ $ $ $ $ $ $ G.G.G.G.G.G.G.G.G.G.G.G.",
"G.G.G.G.G.G.G.G.G.G.G.$ $ $ $ $ $ $ $ $ $ $ $ $ $ $ $ $ $ $ $ $ $ $ $ $ $ $ $ $ $ $ $ $ $ $ $ $ $ $ $ $ $ G.G.G.G.G.G.G.G.G.G.G.",
"G.G.G.G.G.G.G.G.G.G.$ $ $ $ $ $ $ $ $ $ $ $ $ $ $ $ $ $ $ $ @ $ $ - > $ - $ $ $ $ $ $ $ $ $ $ $ $ $ $ $ $ $ G.G.G.G.G.G.G.G.G.G.",
"G.G.G.G.G.G.G.G.G.$ $ $ $ $ $ $ $ $ $ $ $ $ $ $ $ $ $ $ $ $ H #.$.$.$.$.$.$.^ > $ $ $ $ $ $ $ $ $ $ $ $ $ $ $ G.G.G.G.G.G.G.G.G.",
"G.G.G.G.G.G.G.G.$ $ $ $ $ $ $ $ $ $ $ $ $ $ $ $ $ $ $ $ + q 6.F.F.F.F.F.F.F.8.w $ $ $ $ $ $ $ $ $ $ $ $ $ $ $ $ G.G.G.G.G.G.G.G.",
"G.G.G.G.G.G.G.G.$ $ $ $ $ $ $ $ $ $ $ $ $ $ $ $ $ $ $ $ o M c.F.F.F.F.F.F.F.O.$ $ $ $ $ $ $ $ $ $ $ $ $ $ $ $ $ $ G.G.G.G.G.G.G.",
"G.G.G.G.G.G.G.$ $ $ $ $ $ $ $ $ $ $ $ $ $ $ $ $ $ $ $ $ o ` F.F.F.F.F.F.F.F.I o $ $ $ $ $ $ $ $ $ $ $ $ $ $ $ $ $ G.G.G.G.G.G.G.",
"G.G.G.G.G.G.$ $ $ $ $ $ $ $ $ $ $ $ $ $ $ $ $ $ $ $ $ @ 3 >.F.F.F.F.F.F.F.j.h X $ $ $ $ $ $ $ $ $ $ $ $ $ $ $ $ $ $ G.G.G.G.G.G.",
"G.G.G.G.G.$ $ $ $ $ $ $ $ $ $ $ $ $ $ $ $ $ $ $ $ $ @ + k j.F.F.F.F.F.F.F.;.> $ $ $ $ $ $ $ $ $ $ $ $ $ $ $ $ $ $ $ $ G.G.G.G.G.",
"G.G.G.G.G.$ $ $ $ $ $ $ $ $ $ $ $ $ $ $ $ $ $ $ $ $ $ o T F.F.F.F.F.F.F.F./ + $ $ $ $ $ $ $ $ $ $ $ $ $ $ $ $ $ $ $ $ G.G.G.G.G.",
"G.G.G.G.$ $ $ $ $ $ $ $ $ $ $ $ $ $ $ $ $ $ $ $ $ $ $ $ #.F.F.F.F.F.F.F.c.v o $ $ $ $ $ $ $ $ $ $ $ $ $ $ $ $ $ $ $ $ $ G.G.G.G.",
"G.G.G.G.$ $ $ $ $ $ $ $ $ $ $ $ $ $ $ $ $ $ $ $ $ $ + u y.F.F.F.F.F.F.F.4.8 @ $ $ $ $ $ $ $ $ $ $ $ $ $ $ $ $ $ $ $ $ $ G.G.G.G.",
"G.G.G.$ $ $ $ $ $ $ $ $ $ $ $ $ $ $ $ $ $ $ $ $ $ @ o F N.F.F.F.F.F.F.F.| @ $ $ $ $ $ $ $ $ $ $ $ $ $ $ $ $ $ $ $ $ $ $ $ G.G.G.",
"G.G.G.$ $ $ $ $ $ $ $ $ $ $ $ $ $ $ $ $ $ $ $ $ $ $ @ { F.F.F.F.F.F.F.V.G o @ $ $ $ $ $ $ $ $ $ $ $ $ $ $ $ $ $ $ $ $ $ $ G.G.G.",
"G.G.$ $ $ $ $ $ $ $ $ $ $ $ $ $ $ $ $ $ $ $ $ $ $ @ 7 2.F.F.F.F.F.F.F.u.a @ @ $ $ $ $ $ $ $ $ $ $ $ $ $ $ $ $ $ $ $ $ $ $ $ G.G.",
"G.G.$ $ $ $ $ $ $ $ $ $ $ $ $ $ $ $ $ $ $ $ $ $ $ X c x.F.F.F.F.F.F.F.%.> @ $ $ $ $ $ $ $ $ $ $ $ $ $ $ $ $ $ $ $ $ $ $ $ $ G.G.",
"G.G.$ $ $ $ $ $ $ $ $ $ $ $ $ $ $ $ $ $ $ $ $ $ $ X Q F.F.F.F.F.F.F.F.W X $ $ $ $ $ $ $ $ $ $ $ $ $ $ $ $ $ $ $ $ $ $ $ $ $ G.G.",
"G.G.$ $ $ $ $ $ $ $ $ $ $ $ $ $ $ $ $ $ $ $ $ $ $ > =.F.F.F.F.F.F.F.x.z o $ $ $ $ $ $ $ $ $ $ $ $ $ $ $ $ $ $ $ $ $ $ $ $ $ G.G.",
"G.$ $ $ $ $ $ $ $ $ $ $ $ $ $ $ $ $ $ $ $ $ $ $ o f d.F.F.F.F.F.F.F.<.3 @ @ $ $ $ $ $ $ $ $ $ $ $ $ $ $ $ $ $ $ $ $ $ $ $ $ $ G.",
"G.$ $ $ $ $ $ $ $ $ $ $ $ $ $ $ $ $ $ $ $ $ $ $ o K F.F.F.F.F.F.F.F.] + $ @ @ $ $ $ $ $ $ $ $ $ $ $ $ $ $ $ $ $ $ $ $ $ $ $ $ G.",
"G.$ $ $ $ $ $ $ $ $ $ $ $ $ $ $ $ $ $ $ $ $ $ $ X  .F.F.F.F.F.F.F.N.C   o > 3 $ $ $ $ $ $ $ $ $ $ $ $ $ $ $ $ $ $ $ $ $ $ $ $ G.",
"G.$ $ $ $ $ $ $ $ $ $ $ $ $ $ $ $ $ $ $ $ $ $ $ w 8.F.F.F.F.F.F.F.w.a h I @.Y + $ $ $ $ $ $ $ $ $ $ $ $ $ $ $ $ $ $ $ $ $ $ $ G.",
"G.$ $ $ $ $ $ $ $ $ $ $ $ $ $ $ $ $ $ $ $ $ $ X M m.F.F.F.F.F.F.F.p.;.d.F.c.M + $ $ $ $ $ $ $ $ $ $ $ $ $ $ $ $ $ $ $ $ $ $ $ G.",
"G.$ $ $ $ $ $ $ $ $ $ $ $ $ $ $ $ $ $ $ $ $ $ X ' F.F.F.F.F.F.F.F.F.F.F.F.9.q + $ $ $ $ $ $ $ $ $ $ $ $ $ $ $ $ $ $ $ $ $ $ $ G.",
"G.$ $ $ $ $ $ $ $ $ $ $ $ $ $ $ $ $ $ $ $ $ X 1 ,.F.F.F.F.F.F.F.F.F.F.c.9.^ $ $ $ $ $ $ $ $ $ $ $ $ $ $ $ $ $ $ $ $ $ $ $ $ $ G.",
"G.$ $ $ $ $ $ $ $ $ $ $ $ $ $ $ $ $ @ o   1 f E x.F.F.F.F.F.F.F.x.;./ n q $ $ $ $ $ $ $ $ $ $ $ $ $ $ $ $ $ $ $ $ $ $ $ $ $ $ G.",
"G.$ $ $ $ $ $ $ $ $ $ $ $ $ $ $ $ $ - z W ;.d.F.F.F.F.F.F.F.F.F.Q - + + @ $ $ $ $ $ $ $ $ $ $ $ $ $ $ $ $ $ $ $ $ $ $ $ $ $ $ G.",
"G.$ $ $ $ $ $ $ $ $ $ $ $ $ $ $ $ X C j.F.F.F.F.F.F.F.F.F.F.F.j.k @ @ $ $ $ $ $ $ $ $ $ $ $ $ $ $ $ $ $ $ $ $ $ $ $ $ $ $ $ $ G.",
"G.$ $ $ $ $ $ $ $ $ $ $ $ $ $ $ $ @ } F.F.F.c.F.F.F.F.F.F.F.F.>.3 @ $ $ $ $ $ $ $ $ $ $ $ $ $ $ $ $ $ $ $ $ $ $ $ $ $ $ $ $ $ G.",
"G.$ $ $ $ $ $ $ $ $ $ $ $ $ $ $ @ q 6.u.$.U [ F.F.F.F.F.F.F.F.` @ $ $ $ $ $ $ $ $ $ $ $ $ $ $ $ $ $ $ $ $ $ $ $ $ $ $ $ $ $ $ G.",
"G.$ $ $ $ $ $ $ $ $ $ $ $ $ $ $ + q C a - $ +.F.F.F.F.F.F.F.c.n @ $ $ $ $ $ $ $ $ $ $ $ $ $ $ $ $ $ $ $ $ $ $ $ $ $ $ $ $ $ $ G.",
"G.$ $ $ $ $ $ $ $ $ $ $ $ $ $ $ $ @ X @ @ t y.F.F.F.F.F.F.F.6.w + @ $ $ $ $ $ $ $ $ $ $ $ $ $ $ $ $ $ $ $ $ $ $ $ $ $ $ $ $ $ G.",
"G.G.$ $ $ $ $ $ $ $ $ $ $ $ $ $ $ $ $ $   F N.F.F.F.F.F.F.F. .@ $ @ $ $ $ $ $ $ $ $ $ $ $ $ $ $ $ $ $ $ $ $ $ $ $ $ $ $ $ $ G.G.",
"G.G.$ $ $ $ $ $ $ $ $ $ $ $ $ $ $ $ @ @ + { F.F.F.F.F.F.F.F.H o $ $ $ $ $ $ $ $ $ $ $ $ $ $ $ $ $ $ $ $ $ $ $ $ $ $ $ $ $ $ G.G.",
"G.G.$ $ $ $ $ $ $ $ $ $ $ $ $ $ $ $ @ @ 6 1.F.F.F.F.F.F.F.u.f @ $ $ $ $ $ $ $ $ $ $ $ $ $ $ $ $ $ $ $ $ $ $ $ $ $ $ $ $ $ $ G.G.",
"G.G.G.$ $ $ $ $ $ $ $ $ $ $ $ $ $ $ $ o z x.F.F.F.F.F.F.F.&.$ @ + $ + + + + + $ + + + + + + X $ $ $ $ $ $ $ $ $ $ $ $ $ $ $ G.G.",
"G.G.G.$ $ $ $ $ $ $ $ $ $ $ $ $ $ $ $ + W F.F.F.F.F.F.F.F.` w q q t t q r r t q r r r r r t w > $ $ $ $ $ $ $ $ $ $ $ $ $ G.G.G.",
"G.G.G.$ $ $ $ $ $ $ $ $ $ $ $ $ $ $ @ > =.F.F.F.F.F.F.F.F.d.r.r.y.r.r.r.r.r.r.r.r.r.r.r.r.r.t.R @ $ $ $ $ $ $ $ $ $ $ $ $ G.G.G.",
"G.G.G.G.$ $ $ $ $ $ $ $ $ $ $ $ $ @ @ f u.F.F.F.F.F.F.F.F.F.F.F.F.F.F.F.F.F.F.F.F.F.F.F.F.F.F.` o $ $ $ $ $ $ $ $ $ $ $ G.G.G.G.",
"G.G.G.G.$ $ $ $ $ $ $ $ $ $ $ $ $ $ o H F.F.F.F.F.F.F.F.F.F.F.F.F.F.F.F.F.F.F.F.F.F.F.F.F.F.m.V o $ $ $ $ $ $ $ $ $ $ $ G.G.G.G.",
"G.G.G.G.G.$ $ $ $ $ $ $ $ $ $ $ $ $ @ | F.F.F.F.F.F.F.F.F.F.F.F.F.F.F.F.F.F.F.F.F.F.F.F.F.F.9.t + $ $ $ $ $ $ $ $ $ $ G.G.G.G.G.",
"G.G.G.G.G.$ $ $ $ $ $ $ $ $ $ $ @ + w 6.F.F.F.F.F.F.F.F.F.F.F.F.F.F.F.F.F.F.F.F.F.F.F.F.F.F.o.$ $ $ $ $ $ $ $ $ $ $ $ G.G.G.G.G.",
"G.G.G.G.G.G.$ $ $ $ $ $ $ $ $ $ @ + v c.F.F.F.F.F.F.F.F.F.F.F.F.F.F.F.F.F.F.F.F.F.F.F.F.F.F.I o $ $ $ $ $ $ $ $ $ $ G.G.G.G.G.G.",
"G.G.G.G.G.G.G.$ $ $ $ $ $ $ $ $ $ + ^ F.N.N.N.N.N.N.N.N.N.N.V.m.N.N.N.N.N.N.V.N.N.N.V.N.m.r.f + $ $ $ $ $ $ $ $ $ G.G.G.G.G.G.G.",
"G.G.G.G.G.G.G.G.$ $ $ $ $ $ $ $ $ @ k V C C C C C C C C C C C V C C C C C B V V C C C C V h $ $ $ $ $ $ $ $ $ $ G.G.G.G.G.G.G.G.",
"G.G.G.G.G.G.G.G.$ $ $ $ $ $ $ $ $ $ + o o o o o o o o o o   o o o o o   o o o o o o o   o o @ $ $ $ $ $ $ $ $ $ G.G.G.G.G.G.G.G.",
"G.G.G.G.G.G.G.G.G.$ $ $ $ $ $ $ $ $ @ $ + $ @ $ @ + $ $ + + $ $ @ @ + + $ $ + + + @ + + $ $ $ $ $ $ $ $ $ $ $ G.G.G.G.G.G.G.G.G.",
"G.G.G.G.G.G.G.G.G.G.$ $ $ $ $ $ $ $ $ $ + $ $ $ $ $ $ $ + $ $ $ $ $ $ $ $ $ $ $ $ $ $ $ $ $ $ $ $ $ $ $ $ $ G.G.G.G.G.G.G.G.G.G.",
"G.G.G.G.G.G.G.G.G.G.G.$ $ $ $ $ $ $ $ $ $ $ $ $ $ $ $ $ $ $ $ $ $ $ $ $ $ $ $ $ $ $ $ $ $ $ $ $ $ $ $ $ $ G.G.G.G.G.G.G.G.G.G.G.",
"G.G.G.G.G.G.G.G.G.G.G.G.G.$ $ $ $ $ $ $ $ $ $ $ $ $ $ $ $ $ $ $ $ $ $ $ $ $ $ $ $ $ $ $ $ $ $ $ $ $ $ G.G.G.G.G.G.G.G.G.G.G.G.G.",
"G.G.G.G.G.G.G.G.G.G.G.G.G.G.$ $ $ $ $ $ $ $ $ $ $ $ $ $ $ $ $ $ $ $ $ $ $ $ $ $ $ $ $ $ $ $ $ $ $ $ G.G.G.G.G.G.G.G.G.G.G.G.G.G.",
"G.G.G.G.G.G.G.G.G.G.G.G.G.G.G.$ $ $ $ $ $ $ $ $ $ $ $ $ $ $ $ $ $ $ $ $ $ $ $ $ $ $ $ $ $ $ $ $ $ G.G.G.G.G.G.G.G.G.G.G.G.G.G.G.",
"G.G.G.G.G.G.G.G.G.G.G.G.G.G.G.G.G.$ $ $ $ $ $ $ $ $ $ $ $ $ $ $ $ $ $ $ $ $ $ $ $ $ $ $ $ $ $ G.G.G.G.G.G.G.G.G.G.G.G.G.G.G.G.G.",
"G.G.G.G.G.G.G.G.G.G.G.G.G.G.G.G.G.G.G.$ $ $ $ $ $ $ $ $ $ $ $ $ $ $ $ $ $ $ $ $ $ $ $ $ $ G.G.G.G.G.G.G.G.G.G.G.G.G.G.G.G.G.G.G.",
"G.G.G.G.G.G.G.G.G.G.G.G.G.G.G.G.G.G.G.G.G.G.$ $ $ $ $ $ $ $ $ $ $ $ $ $ $ $ $ $ $ $ G.G.G.G.G.G.G.G.G.G.G.G.G.G.G.G.G.G.G.G.G.G.",
"G.G.G.G.G.G.G.G.G.G.G.G.G.G.G.G.G.G.G.G.G.G.G.G.G.$ $ $ $ $ $ $ $ $ $ $ $ $ $ G.G.G.G.G.G.G.G.G.G.G.G.G.G.G.G.G.G.G.G.G.G.G.G.G.",
"G.G.G.G.G.G.G.G.G.G.G.G.G.G.G.G.G.G.G.G.G.G.G.G.G.G.G.G.G.G.G.G.G.G.G.G.G.G.G.G.G.G.G.G.G.G.G.G.G.G.G.G.G.G.G.G.G.G.G.G.G.G.G.G."
};
