/* XPM */
static char * bitcoin32_xpm[] = {
"32 32 88 1",
" 	c None",
".	c #000000",
"+	c #151515",
"@	c #020202",
"#	c #C1C1C1",
"$	c #D0D0D0",
"%	c #5B5B5B",
"&	c #292929",
"*	c #282828",
"=	c #393939",
"-	c #040404",
";	c #090909",
">	c #F8F8F8",
",	c #A2A2A2",
"'	c #0F0F0F",
")	c #FCFCFC",
"!	c #999999",
"~	c #939393",
"{	c #FFFFFF",
"]	c #F3F3F3",
"^	c #C9C9C9",
"/	c #8F8F8F",
"(	c #5A5A5A",
"_	c #595959",
":	c #3C3C3C",
"<	c #969696",
"[	c #7B7B7B",
"}	c #0C0C0C",
"|	c #F6F6F6",
"1	c #EEEEEE",
"2	c #A3A3A3",
"3	c #ECECEC",
"4	c #E5E5E5",
"5	c #3D3D3D",
"6	c #2F2F2F",
"7	c #ADADAD",
"8	c #050505",
"9	c #6F6F6F",
"0	c #E9E9E9",
"a	c #0E0E0E",
"b	c #6E6E6E",
"c	c #6D6D6D",
"d	c #D8D8D8",
"e	c #3A3A3A",
"f	c #727272",
"g	c #1A1A1A",
"h	c #414141",
"i	c #FAFAFA",
"j	c #FDFDFD",
"k	c #161616",
"l	c #010101",
"m	c #EBEBEB",
"n	c #808080",
"o	c #2E2E2E",
"p	c #B9B9B9",
"q	c #565656",
"r	c #A1A1A1",
"s	c #F1F1F1",
"t	c #B2B2B2",
"u	c #080808",
"v	c #131313",
"w	c #C4C4C4",
"x	c #919191",
"y	c #4B4B4B",
"z	c #505050",
"A	c #C6C6C6",
"B	c #535353",
"C	c #DDDDDD",
"D	c #070707",
"E	c #E7E7E7",
"F	c #FBFBFB",
"G	c #494949",
"H	c #0A0A0A",
"I	c #ABABAB",
"J	c #F2F2F2",
"K	c #404040",
"L	c #CCCCCC",
"M	c #A7A7A7",
"N	c #7F7F7F",
"O	c #252525",
"P	c #8A8A8A",
"Q	c #434343",
"R	c #474747",
"S	c #232323",
"T	c #7E7E7E",
"U	c #CFCFCF",
"V	c #DBDBDB",
"W	c #676767",
"                                ",
"                                ",
"              ...               ",
"           ..........           ",
"         ..............         ",
"        ................        ",
"      .........+@.........      ",
"      .........#$.%&......      ",
"     ......*=-;>,')!.......     ",
"    .......~{]^{/({_........    ",
"    .......:<{{{{{{[}.......    ",
"   .........@|{123{{45.......   ",
"   .........6{{7.89{{0a......   ",
"   .........b{{c...d{{e......   ",
"   .........7{{fg.hi{jk......   ",
"  .........lm{{{{{{{{n........  ",
"  .........o{{pqrs{{tu........  ",
"   ........c{{b..vw{{x.......   ",
"   ......yzA{{o...B{{C.......   ",
"   .....DE{{{FGv.HI{{w.......   ",
"   .....ac73{{{{Ji{{{9.......   ",
"    .......K{7L{{{{{M-......    ",
"    .......N{OP{:QRS........    ",
"     ......TU.^V...........     ",
"      ........WW..........      ",
"      ...................       ",
"        ................        ",
"         ..............         ",
"           ..........           ",
"               ...              ",
"                                ",
"                                "};
