/* XPM */
static char *bitcoin__[] = {
/* columns rows colors chars-per-pixel */
"64 64 148 2",
"   c #3D5B18",
".  c #3F6017",
"X  c #406217",
"o  c #446817",
"O  c #4C7C15",
"+  c #4D6E21",
"@  c #4C642E",
"#  c #587A2B",
"$  c #4E6631",
"%  c #566E31",
"&  c #53663C",
"*  c #576B3F",
"=  c #5D753C",
"-  c #627B3C",
";  c #5A6C45",
":  c #607345",
">  c #657B47",
",  c #617349",
"<  c #637151",
"1  c #6B7D54",
"2  c #6A765B",
"3  c #6F7D5B",
"4  c #717A63",
"5  c #4F8015",
"6  c #528415",
"7  c #568916",
"8  c #5A8D16",
"9  c #5A841C",
"0  c #5E9217",
"q  c #619617",
"w  c #649917",
"e  c #65961A",
"r  c #679C18",
"t  c #699E18",
"y  c #6AA018",
"u  c #64932A",
"i  c #709C2D",
"p  c #66833C",
"a  c #759B3F",
"s  c #71A129",
"d  c #7AAA32",
"f  c #6C804F",
"g  c #739542",
"h  c #769E44",
"j  c #74934A",
"k  c #768B54",
"l  c #72815D",
"z  c #77895E",
"x  c #7A935A",
"c  c #7FA64C",
"v  c #768069",
"b  c #78806D",
"n  c #7A8271",
"m  c #80AB41",
"M  c #83A94F",
"N  c #88AE4D",
"B  c #85B143",
"V  c #8BAC5D",
"C  c #8BB350",
"Z  c #90B853",
"A  c #91B55E",
"S  c #86976D",
"D  c #8BA867",
"F  c #91AE69",
"G  c #9CBC6E",
"H  c #96A67F",
"J  c #98AC79",
"K  c #9DBB74",
"L  c #A4BF7F",
"P  c #A5C572",
"I  c #A6C37E",
"U  c #A9C67E",
"Y  c #ABC97E",
"T  c #8E9385",
"R  c #8F9488",
"E  c #919787",
"W  c #919887",
"Q  c #919689",
"!  c #93998B",
"~  c #979994",
"^  c #989E90",
"/  c #9D9E9C",
"(  c #95A382",
")  c #9AA18E",
"_  c #A2A998",
"`  c #A3A4A3",
"'  c #A6AAA1",
"]  c #ABAEA5",
"[  c #ADADAD",
"{  c #ABB3A1",
"}  c #B0BDA0",
"|  c #B4BBAA",
" . c #B4B4B4",
".. c #BBBFB6",
"X. c #BBBBBB",
"o. c #A4C080",
"O. c #AAC583",
"+. c #AECA83",
"@. c #AEC58C",
"#. c #B3CD8D",
"$. c #B5D08D",
"%. c #B5CC94",
"&. c #B8CE9C",
"*. c #BAD394",
"=. c #BCD29B",
"-. c #BED2A4",
";. c #C1D79E",
":. c #C2D7A3",
">. c #C4DAA4",
",. c #C5D4AF",
"<. c #C7DAAB",
"1. c #C9DCAC",
"2. c #C1CBB5",
"3. c #C6CBBE",
"4. c #CCDFB0",
"5. c #CCD6BE",
"6. c #CDDCBA",
"7. c #D1DFBD",
"8. c #CFE1B4",
"9. c #D2E1BD",
"0. c #C3C3C3",
"q. c #C6CAC2",
"w. c #CBCEC5",
"e. c #CDCDCD",
"r. c #CCD2C2",
"t. c #D5D5D5",
"y. c #DDDDDD",
"u. c #D4E2C4",
"i. c #D8E5C5",
"p. c #DBE8C7",
"a. c #DAE5CA",
"s. c #DFEACE",
"d. c #DEE8D2",
"f. c #DFE3D9",
"g. c #E1EBD5",
"h. c #E2E6DC",
"j. c #E5ECDC",
"k. c #E8F0DB",
"l. c #E1E1E1",
"z. c #E9EBE7",
"x. c #EEEEEE",
"c. c #EBF2E3",
"v. c #F2F6EC",
"b. c #F5F5F5",
"n. c #F5F8F1",
"m. c #F9FBF7",
"M. c #FEFEFE",
"N. c None",
/* pixels */
"N.N.N.N.N.N.N.N.N.N.N.N.N.N.N.N.N.N.N.N.N.N.N.N.N.N.N.N.N.N.N.N.N.N.N.N.N.N.N.N.N.N.N.N.N.N.N.N.N.N.N.N.N.N.N.N.N.N.N.N.N.N.N.N.",
"N.N.N.N.N.N.N.N.N.N.N.N.N.N.N.N.N.N.N.N.N.N.N.N.N.N.N.N.N.N.N.N.N.N.N.N.N.N.N.N.N.N.N.N.N.N.N.N.N.N.N.N.N.N.N.N.N.N.N.N.N.N.N.N.",
"N.N.N.N.N.N.N.N.N.N.N.N.N.N.N.N.N.N.N.N.N.N.N.N.N.N.N.N.N.N.N.N.N.N.N.N.N.N.N.N.N.N.N.N.N.N.N.N.N.N.N.N.N.N.N.N.N.N.N.N.N.N.N.N.",
"N.N.N.N.N.N.N.N.N.N.N.N.N.N.N.N.N.N.N.N.N.N.N.N.N.N.N.N.N.N.N.N.N.N.N.N.N.N.N.N.N.N.N.N.N.N.N.N.N.N.N.N.N.N.N.N.N.N.N.N.N.N.N.N.",
"N.N.N.N.N.N.N.N.N.N.N.N.N.N.N.N.N.N.N.N.N.N.N.N.N.N.N.y y y y y y y y y y N.N.N.N.N.N.N.N.N.N.N.N.N.N.N.N.N.N.N.N.N.N.N.N.N.N.N.",
"N.N.N.N.N.N.N.N.N.N.N.N.N.N.N.N.N.N.N.N.N.N.N.y y y y y y y y y y y y y y y y y y N.N.N.N.N.N.N.N.N.N.N.N.N.N.N.N.N.N.N.N.N.N.N.",
"N.N.N.N.N.N.N.N.N.N.N.N.N.N.N.N.N.N.N.N.y y y y y y y y y y y y y y y y y y y y y y y y N.N.N.N.N.N.N.N.N.N.N.N.N.N.N.N.N.N.N.N.",
"N.N.N.N.N.N.N.N.N.N.N.N.N.N.N.N.N.N.y t y y y y y y y y y y y y y y y y y y y y y y y y y y N.N.N.N.N.N.N.N.N.N.N.N.N.N.N.N.N.N.",
"N.N.N.N.N.N.N.N.N.N.N.N.N.N.N.N.N.y y y y y y y y y y e P *.y y y y y y y y y y y y y y y y y N.N.N.N.N.N.N.N.N.N.N.N.N.N.N.N.N.",
"N.N.N.N.N.N.N.N.N.N.N.N.N.N.N.r r r r y y r y y y y y y 5.n.8.y y y y y y y y y y y y y y y y y y N.N.N.N.N.N.N.N.N.N.N.N.N.N.N.",
"N.N.N.N.N.N.N.N.N.N.N.N.N.N.r r r y r r r y y y y y y y ^ M.m.Y y t y y y y y y y y y y y y y y y y N.N.N.N.N.N.N.N.N.N.N.N.N.N.",
"N.N.N.N.N.N.N.N.N.N.N.N.N.r r r r r r r y r y y y y y y ! b.M.Y y t =.8.d y y y y y y y y y y y y y y N.N.N.N.N.N.N.N.N.N.N.N.N.",
"N.N.N.N.N.N.N.N.N.N.N.N.r r r r r r r r t t t t y y y y ! b.M.+.y y 6.M.M.*.y y y y y y y y y y y y y y N.N.N.N.N.N.N.N.N.N.N.N.",
"N.N.N.N.N.N.N.N.N.N.N.w q w r q r r r r r r t t y t y y 3.M.M.k.s.4.l.M.M.1.y y y y y y y y y y y y y y y N.N.N.N.N.N.N.N.N.N.N.",
"N.N.N.N.N.N.N.N.N.N.q q q r q r e r r r r t t t t B <.v.m.M.M.M.M.M.M.M.M.M.s.=.y y y y y y y y y y y y y y N.N.N.N.N.N.N.N.N.N.",
"N.N.N.N.N.N.N.N.N.q q q q q w q r q r r r r r t >.M.M.M.M.M.M.b.t.t.l.m.M.M.M.M.v.>.y y y y y y y y y y y y y N.N.N.N.N.N.N.N.N.",
"N.N.N.N.N.N.N.N.N.q q q q w w q w w w r r r m v.m.M.M.x.y.b.M.@.k f ] b.M.z.0.l.M.M.v.;.y y y y y y y y y y y N.N.N.N.N.N.N.N.N.",
"N.N.N.N.N.N.N.N.0 0 q 0 q q q w w w w r w V b.M.M.b.w.k _ b.m.Z y y W x.M.N - T  .l.M.M.p.y y y y y y y y y y y N.N.N.N.N.N.N.N.",
"N.N.N.N.N.N.N.0 0 0 0 q 0 q q q q w w w V x.m.M.x.J r t ^ b.M.Y y y W x.M.Y y y % R X.M.M.v.1.y y y y y y y y y y N.N.N.N.N.N.N.",
"N.N.N.N.N.N.N.0 0 0 0 0 q q q q q w q g l.m.M.z.a r r r ! b.M.Y y y R b.M.$.y y y t 3 [ x.M.>.y y y y y y y y y y N.N.N.N.N.N.N.",
"N.N.N.N.N.N.N.8 8 0 0 0 0 q q q q r O 3.b.M.z.i r w r r ! b.M.Y y y W x.M.$.y y y y y :  .9.B y y y y y y y y y y y N.N.N.N.N.N.",
"N.N.N.N.N.N.8 8 0 0 0 0 0 0 0 q q e ( x.M.M.m r r r r r ! b.m.Y r y W x.M.$.y y y y y y S K y y y y y y y y y y y y N.N.N.N.N.N.",
"N.N.N.N.N.N.8 8 8 8 8 0 0 0 q 0 q p t.M.M.I r w r w r r ! m.m.Y y y W b.M.$.y y y y y y e t y y y y y y y y y y y y N.N.N.N.N.N.",
"N.N.N.N.N.8 8 8 8 0 8 0 0 0 0 0 q W v.M.i.q q w q r r r ! b.M.Y r r R x.M.$.y y y y y y y y y y y y y y y y y y y y y N.N.N.N.N.",
"N.N.N.N.N.7 8 8 7 8 8 8 0 0 0 0 # w.M.M.K w q w q w w w ! m.M.Y r y W x.M.$.y y y y y y y y y y y y y y y y y y y y y N.N.N.N.N.",
"N.N.N.N.N.7 7 8 8 8 8 8 8 0 8 0 z y.M.d.q q q w w w w r ! b.M.U r r W x.M.$.t y y y y y y y y y y y y y y y y y y y y N.N.N.N.N.",
"N.N.N.N.N.7 7 7 8 7 8 8 8 0 8 0 ) b.M.=.q 0 q q q w q w W b.m.Y r r W x.M.#.t y y y y y y y y y y y y y y y y y y y y N.N.N.N.N.",
"N.N.N.N.6 7 7 7 7 8 8 8 8 8 0 + X.M.M.G 0 q q q q q q w W b.M.Y r r W x.M.$.t t t y y y y y y y y y y y y y y y y y y y N.N.N.N.",
"N.N.N.N.6 7 7 7 7 7 7 8 8 8 8 = 0.M.k.0 0 0 q q q q q w ! b.M.I r r W x.M.#.t t t t y y y y y y y y y y y y y y y y y y N.N.N.N.",
"N.N.N.N.6 6 6 7 7 7 7 7 7 8 8 1 t.M.a.0 0 0 0 q q q q w ! b.M.U r r W x.M.$.t t t t y t y y y y y y y y y y y y y y y y N.N.N.N.",
"N.N.N.N.6 6 7 7 7 7 7 7 8 8 8 l t.M.u.0 0 0 0 0 0 q q q ! b.M.U w w W x.M.#.r t t t t y y y y y y y y y y y y y y y y y N.N.N.N.",
"N.N.N.N.6 6 6 6 6 7 7 7 7 7 7 3 t.M.7.8 0 0 0 0 0 q q q ! b.M.U w w R b.M.#.r r t t t y y y y y y y y y y y y y y y y y N.N.N.N.",
"N.N.N.N.6 6 6 6 6 7 7 7 7 7 7 4 t.M.9.8 8 8 0 0 0 0 q q Q b.M.U q w Q x.M.#.r t r r y r y y y y y y y y y y y y y y y y N.N.N.N.",
"N.N.N.N.5 5 6 6 6 6 6 7 7 7 7 1 e.M.a.8 8 0 8 0 0 0 0 q W b.M.I q w Q v.M.#.r r r r r y r y r y y y y y y y y y y y y y N.N.N.N.",
"N.N.N.N.O 6 5 6 6 6 7 6 7 7 7 , 0.M.j.8 8 8 8 0 0 0 0 0 ! b.m.U q w E x.M.#.r r r r r r y y y y y y y y y y y y y y y y N.N.N.N.",
"N.N.N.N.O 5 5 6 6 6 6 6 6 6 7 $  .M.v.8 8 8 0 8 0 0 0 q ! b.M.I q q E x.M.#.r q r r r r r r r y r y y y y y y y y y y y N.N.N.N.",
"N.N.N.N.5 5 5 5 5 6 6 6 6 7 6   / m.M.&.8 8 8 8 8 8 0 0 Q b.M.I q q Q x.M.#.r e r r w r r r y r y y y y y y y y y y y y N.N.N.N.",
"N.N.N.N.N.5 O 6 5 6 5 6 6 6 6 7 n t.M.u.7 8 8 8 8 0 0 0 ! m.M.L q q Q x.M.#.q r w w r r r r r r r r y y y y y y y y y N.N.N.N.N.",
"N.N.N.N.N.O 5 5 5 5 6 6 6 6 6 7 ;  .M.v.7 8 8 8 8 8 8 8 ! b.M.I 0 q Q x.M.#.q r w w r r r r r r y y r y r y y y y y y N.N.N.N.N.",
"N.N.N.N.N.O O O 5 O 5 5 6 6 6 6 X ~ x.M.6.7 7 8 8 8 8 0 ! b.m.I q 0 Q v.M.#.q q q q r r r r r r r r y r y y y y y y y N.N.N.N.N.",
"N.N.N.N.N.O O O O O 6 5 6 6 5 6 7 < X.M.b.u 8 8 7 8 8 8 ! b.M.I 0 0 Q x.M.#.q q r r w w r r r r r y r y r y y y y y y N.N.N.N.N.",
"N.N.N.N.N.N.O O O O O 6 O 5 6 6 6   Q l.M.g.7 7 7 8 8 8 ! b.m.I 0 0 Q x.M.@.q q q q q w s C r e r r r r y r y r y y N.N.N.N.N.N.",
"N.N.N.N.N.N.O O O O O O 6 5 6 6 6 6 & [ M.M.u.7 7 8 7 8 ! b.m.L 8 0 Q x.M.#.0 q q q q r :.1.r w r r r r r y y y y y N.N.N.N.N.N.",
"N.N.N.N.N.N.N.O O O O O O 5 5 5 6 6 6 2 X.M.M.u.7 7 7 8 ~ b.M.L 0 0 W x.M.#.q q q q q F M.;.q r r r r r r r r y t y N.N.N.N.N.N.",
"N.N.N.N.N.N.N.O O O O O O 5 5 5 O 6 6 6 4 X.M.M.g.7 7 8 R b.M.o.8 8 Q x.M.#.0 q q q @.b.M.=.w w r r r r r r r r t N.N.N.N.N.N.N.",
"N.N.N.N.N.N.N.O O O O O O O 5 5 6 5 5 6 7 n X.M.M.m.-.7 | b.M.K 0 8 E x.M.%.0 0 A j.m.M.M.@.q r r q r r r r r r t N.N.N.N.N.N.N.",
"N.N.N.N.N.N.N.N.O O O O O O O 5 O 6 6 6 6 6 4 [ l.M.M.d.f.M.M.L 8 8 { b.M.4.O.j.M.M.M.x.,.q r w w w q w r r r r N.N.N.N.N.N.N.N.",
"N.N.N.N.N.N.N.N.N.O O O O O O 5 O O O 5 6 6 6 & / 0.b.M.M.M.M.c.u.-.h.M.M.M.M.M.M.z.q.j q q q q w w w w r r r N.N.N.N.N.N.N.N.N.",
"N.N.N.N.N.N.N.N.N.O O o O O O O 5 5 O 5 5 5 6 6 o 2 ` ..y.M.M.M.M.M.M.M.M.M.b.t...x 0 q q q q q q w w w r r r N.N.N.N.N.N.N.N.N.",
"N.N.N.N.N.N.N.N.N.N.O O O O O O O O 5 5 5 5 5 6 6 6 o ;  .b.M.x.e.e.y.m.M.f.( p 0 0 0 0 0 0 q q q q q w q r N.N.N.N.N.N.N.N.N.N.",
"N.N.N.N.N.N.N.N.N.N.N.O . O O O O O O 5 5 5 5 5 6 6 6 6 R b.m.D > , ' b.M.M 8 8 8 0 0 q q 0 q q q q q w r N.N.N.N.N.N.N.N.N.N.N.",
"N.N.N.N.N.N.N.N.N.N.N.N.O O O O O O O O 5 O 5 5 6 6 6 6 T x.m.V 7 7 T z.M.@.8 8 8 0 8 0 0 0 0 q q q q q N.N.N.N.N.N.N.N.N.N.N.N.",
"N.N.N.N.N.N.N.N.N.N.N.N.N.O O O o O O O 5 O O 5 5 5 6 6 b  .M.K 7 7 4 [ M.L 8 8 8 0 8 0 0 0 q q q q q N.N.N.N.N.N.N.N.N.N.N.N.N.",
"N.N.N.N.N.N.N.N.N.N.N.N.N.N.O O O O O O O 5 O 5 5 5 5 6 5 ; 2.h 6 7 7 $ } c 8 8 8 8 0 8 8 0 0 0 0 q N.N.N.N.N.N.N.N.N.N.N.N.N.N.",
"N.N.N.N.N.N.N.N.N.N.N.N.N.N.N.O O O O O O O O O 5 5 5 5 5 5 6 6 6 7 7 7 7 7 7 8 8 8 8 0 0 0 0 0 0 N.N.N.N.N.N.N.N.N.N.N.N.N.N.N.",
"N.N.N.N.N.N.N.N.N.N.N.N.N.N.N.N.N.O O O O O O O O 5 5 5 6 6 6 6 6 6 7 6 7 7 7 7 8 8 8 8 8 8 0 N.N.N.N.N.N.N.N.N.N.N.N.N.N.N.N.N.",
"N.N.N.N.N.N.N.N.N.N.N.N.N.N.N.N.N.N.O O O O O O O O 6 O 5 5 6 5 6 6 6 7 7 7 7 7 7 8 8 8 8 8 N.N.N.N.N.N.N.N.N.N.N.N.N.N.N.N.N.N.",
"N.N.N.N.N.N.N.N.N.N.N.N.N.N.N.N.N.N.N.N.O O O O O O O 6 O 6 O 6 6 6 6 7 6 7 7 7 7 8 7 8 N.N.N.N.N.N.N.N.N.N.N.N.N.N.N.N.N.N.N.N.",
"N.N.N.N.N.N.N.N.N.N.N.N.N.N.N.N.N.N.N.N.N.N.N.O O O O O 6 O 5 6 6 6 6 6 6 7 6 7 7 N.N.N.N.N.N.N.N.N.N.N.N.N.N.N.N.N.N.N.N.N.N.N.",
"N.N.N.N.N.N.N.N.N.N.N.N.N.N.N.N.N.N.N.N.N.N.N.N.N.N.N.O 5 O 5 5 O 6 6 6 6 N.N.N.N.N.N.N.N.N.N.N.N.N.N.N.N.N.N.N.N.N.N.N.N.N.N.N.",
"N.N.N.N.N.N.N.N.N.N.N.N.N.N.N.N.N.N.N.N.N.N.N.N.N.N.N.N.N.N.N.N.N.N.N.N.N.N.N.N.N.N.N.N.N.N.N.N.N.N.N.N.N.N.N.N.N.N.N.N.N.N.N.N.",
"N.N.N.N.N.N.N.N.N.N.N.N.N.N.N.N.N.N.N.N.N.N.N.N.N.N.N.N.N.N.N.N.N.N.N.N.N.N.N.N.N.N.N.N.N.N.N.N.N.N.N.N.N.N.N.N.N.N.N.N.N.N.N.N.",
"N.N.N.N.N.N.N.N.N.N.N.N.N.N.N.N.N.N.N.N.N.N.N.N.N.N.N.N.N.N.N.N.N.N.N.N.N.N.N.N.N.N.N.N.N.N.N.N.N.N.N.N.N.N.N.N.N.N.N.N.N.N.N.N.",
"N.N.N.N.N.N.N.N.N.N.N.N.N.N.N.N.N.N.N.N.N.N.N.N.N.N.N.N.N.N.N.N.N.N.N.N.N.N.N.N.N.N.N.N.N.N.N.N.N.N.N.N.N.N.N.N.N.N.N.N.N.N.N.N."
};
