/* XPM */
static char *bitcoin__[] = {
/* columns rows colors chars-per-pixel */
"32 32 186 2 ",
"   c None",
".  c #BF9415",
"X  c #BE9620",
"o  c #C99B0E",
"O  c #D19E04",
"+  c #C2991E",
"@  c #D6A102",
"#  c #D5A106",
"$  c #DAA200",
"%  c #E1A700",
"&  c #E3A900",
"*  c #E6AB00",
"=  c #E7AC00",
"-  c #E8AC00",
";  c #EBB101",
":  c #ECB000",
">  c #EEB100",
",  c #F0B200",
"<  c #F1B400",
"1  c #F2B500",
"2  c #F6B800",
"3  c #F6BA03",
"4  c #F8B900",
"5  c #F9B900",
"6  c #FABA00",
"7  c #FBBA00",
"8  c #FABB00",
"9  c #FCBB00",
"0  c #FEBB00",
"q  c #FBBC00",
"w  c #FBBD03",
"e  c #FCBC00",
"r  c #FDBD00",
"t  c #FEBD00",
"y  c #FFBD00",
"u  c #FEBE00",
"i  c #FFBE00",
"p  c #FFBF00",
"a  c #FEBF02",
"s  c #FABD07",
"d  c #F5B90E",
"f  c #E0AD10",
"g  c #E6B111",
"h  c #E9B211",
"j  c #E3B11A",
"k  c #E7B51C",
"l  c #ECB91F",
"z  c #F6BE15",
"x  c #C49F2F",
"c  c #D0A420",
"v  c #DBAE26",
"b  c #CBA637",
"n  c #CAA63A",
"m  c #D2AC39",
"M  c #D8B13D",
"N  c #EFBD25",
"B  c #F2BE21",
"V  c #FDC000",
"C  c #FFC000",
"Z  c #FFC100",
"A  c #FEC200",
"S  c #FFC200",
"D  c #FFC300",
"F  c #FFC400",
"G  c #FFC500",
"H  c #FFC600",
"J  c #FFC700",
"K  c #FFC106",
"L  c #FFC207",
"P  c #FFC800",
"I  c #FFC900",
"U  c #FDC009",
"Y  c #FEC20D",
"T  c #FFC30F",
"R  c #FFC512",
"E  c #FFC516",
"W  c #FFC517",
"Q  c #F9C21B",
"!  c #FEC51A",
"~  c #FFC61A",
"^  c #FFC71E",
"/  c #FBC523",
"(  c #FFC824",
")  c #FFCA2B",
"_  c #FFCB2D",
"`  c #FFCE39",
"'  c #FACB3F",
"]  c #C2A246",
"[  c #DBB647",
"{  c #D6B85D",
"}  c #E5BF4B",
"|  c #C8B067",
" . c #FFD042",
".. c #FFD143",
"X. c #FFD145",
"o. c #FBD04E",
"O. c #FFD450",
"+. c #FFD555",
"@. c #FED458",
"#. c #FFD75C",
"$. c #FFD65D",
"%. c #E3C66C",
"&. c #FCD663",
"*. c #FFD965",
"=. c #FDD866",
"-. c #FFDA6B",
";. c #FFDB6F",
":. c #FFDC6F",
">. c #E9CC73",
",. c #E6CC7D",
"<. c #F0D173",
"1. c #FFDD77",
"2. c #D3C18B",
"3. c #D8C58A",
"4. c #DCCA90",
"5. c #D6C89D",
"6. c #D8C99D",
"7. c #FADC83",
"8. c #F8DD8A",
"9. c #EED794",
"0. c #FFE494",
"q. c #DCD0A9",
"w. c #E3D4A9",
"e. c #E0D3B0",
"r. c #E5D8B0",
"t. c #F4E0A4",
"y. c #FFE9A5",
"u. c #FFEAAA",
"i. c #FFEAAD",
"p. c #F3E3B2",
"a. c #F3E3B5",
"s. c #FEEBB3",
"d. c #FBECBE",
"f. c #E3DBC4",
"g. c #EBE1C2",
"h. c #E7E0CC",
"j. c #E7E1CD",
"k. c #E8E2CF",
"l. c #FCEFC7",
"z. c #F7ECC9",
"x. c #F9EDCA",
"c. c #FFF0C2",
"v. c #FFF1C5",
"b. c #FEF1C8",
"n. c #FEF2CE",
"m. c #E9E3D5",
"M. c #F1EAD3",
"N. c #F1ECDB",
"B. c #F9F0D3",
"V. c #FFF4D2",
"C. c #FFF5D5",
"Z. c #FFF5D7",
"A. c #FEF5D8",
"S. c #EFECE2",
"D. c #F1EEE3",
"F. c #F1EEE4",
"G. c #F2EFE5",
"H. c #F3EFE5",
"J. c #F4F0E4",
"K. c #FEF7E3",
"L. c #FFF9E7",
"P. c #F6F4EC",
"I. c #F8F5E9",
"U. c #F8F6ED",
"Y. c #FFFAE9",
"T. c #F6F6F4",
"R. c #FEFAF0",
"E. c #FFFCF3",
"W. c #F9F8F6",
"Q. c #F8F8F7",
"!. c #FFFCF4",
"~. c #FFFDF8",
"^. c #FEFDFA",
"/. c #FEFEFB",
"(. c #FFFEFB",
"). c #F8FAFF",
"_. c #FFFEFC",
"`. c #FEFEFD",
"'. c #FFFFFD",
"]. c #FCFDFF",
"[. c #FDFDFF",
"{. c #FCFEFF",
"}. c #FDFFFF",
"|. c #FFFFFE",
" X c #FEFFFF",
".X c white",
/* pixels */
"                                                                ",
"                        D D p p D p D D                         ",
"                  D D J J D D D D D J J D D                     ",
"                D J D p p D p D p p p p p J P D                 ",
"            D J D p p D D p p D D p p p D p p J D D             ",
"          D J D D p p p p p p D p p p p p p p p D J D           ",
"        D J p p p p p p p p E  .O.` T p D D p D p p J D         ",
"      p J p p D D p p p ( 0.L.[.[.[.C.=.9 p p p p p p J         ",
"      D D p p p p p p #.Y.[.[.[.[.[.[.[.8.w p D D p p D D       ",
"    p J p p D p D p =._.[.[.[.k.e.N.[.[.[.<.6 p p p p D J       ",
"    D D D p D p p  .~.[.[.f.] O - h t.[.[.U.N p D p D p D p     ",
"  p J p p p p p T C.[.[.f.+ , D D D s v.[.[.,.6 p p p p p J     ",
"  p D p D p p p :.[.[.G.. 3 D p p p p @.[.[.g.; D p D p p J p   ",
"  D D p p p p p i.[.[.| - D p D D p p ^ E.[.J.f D p p p D J D   ",
"  D p D D p p ) !.[.D.o D p D p p p p L C.[.T.v p p D p p D p   ",
"  D p p p p p #.[.[.q.& D p p p p D p p c.[.[.M p p p p p D D   ",
"  D p p p p 9 1.[.[.3., D p p p D p p p v.[.[.m p D p D p D p   ",
"  p D p p p p -.[.[.4., p p D p p p p R L.[.T.c D p p p p D D   ",
"  D D p D p p @.[.[.r.; D p p E 1./ p X.[.[.k.# D p p D p J D   ",
"  p D D p p p _ ~.[.J.f D p ! V.[.z.d y.[.[.2.= D p p p p J p   ",
"  D J p p p D a V.[.[.>.6 D ! K.[.[.p.Y.[.W.x 6 p D p D D J     ",
"    J p p D p p =.[.[.I.N p p o.[.[.[.[.[.5.$ D p p p p D p     ",
"    p D p p p p U d.[.[.B.' p p 7.~.[.[.J.+ w p p D p p J D     ",
"      J p D p D D Q x.[.[.[.b.u.s.[.[.[.J.j D p p p p D D       ",
"      D J p p p p p z 9.P.[.[.).m.6.M.[.[.%.6 D p D D J         ",
"        D J D p D p p 6 k [ { n @ & B a.[.w.- p p p P p         ",
"          D J p p p p D D p 6 6 D D p 3 o.x 1 D p P D           ",
"            D J D p p p p p p p p D p p 9 3 p D P D             ",
"              D D J p D p p p p p p D p D D J D                 ",
"                  D D P J D D p D p D J J D D                   ",
"                      J p D D D D D p D                         ",
"                                                                "
};
