/* XPM */
static char *bitcoin___[] = {
/* columns rows colors chars-per-pixel */
"32 32 99 2 ",
"   c #305A9B",
".  c #315A9B",
"X  c #315B9C",
"o  c #325B9C",
"O  c #325C9C",
"+  c #335C9C",
"@  c #335C9D",
"#  c #335D9D",
"$  c #345D9D",
"%  c #355E9D",
"&  c #355E9E",
"*  c #365F9E",
"=  c #375F9E",
"-  c #37609F",
";  c #38609F",
":  c #39619F",
">  c #3A62A0",
",  c #3B62A0",
"<  c #3C63A1",
"1  c #3E65A2",
"2  c #4167A3",
"3  c #4268A4",
"4  c #4369A4",
"5  c #476CA6",
"6  c #486DA6",
"7  c #486DA7",
"8  c #496EA7",
"9  c #4A6EA7",
"0  c #4A6FA8",
"q  c #5174AB",
"w  c #5275AB",
"e  c #5577AD",
"r  c #5678AD",
"t  c #5779AE",
"y  c #5A7BAF",
"u  c #6382B4",
"i  c #6483B4",
"p  c #6484B4",
"a  c #6C8AB8",
"s  c #6D8BB9",
"d  c #6F8CBA",
"f  c #728EBB",
"g  c #7792BD",
"h  c #7893BE",
"j  c #7A95BF",
"k  c #8099C2",
"l  c #809AC2",
"z  c #839CC3",
"x  c #849DC4",
"c  c #8CA3C7",
"v  c #92A8CB",
"b  c #94AACC",
"n  c #98ADCD",
"m  c #9EB2D0",
"M  c #9FB2D1",
"N  c #A0B3D1",
"B  c #A1B4D2",
"V  c #A2B5D2",
"C  c #A5B7D4",
"Z  c #AFBFD8",
"A  c #B0C0D9",
"S  c #B1C1D9",
"D  c #B2C1DA",
"F  c #B3C2DA",
"G  c #B3C3DA",
"H  c #B4C3DB",
"J  c #B6C5DC",
"K  c #B8C6DD",
"L  c #BCCADF",
"P  c #C5D1E3",
"I  c #C6D2E4",
"U  c #C9D4E5",
"Y  c #D0D9E8",
"T  c #D2DBE9",
"R  c #D3DCEA",
"E  c #D4DCEA",
"W  c #D4DDEA",
"Q  c #DEE5EF",
"!  c #DFE5EF",
"~  c #E1E7F0",
"^  c #E2E8F1",
"/  c #E4E9F2",
"(  c #E6EBF3",
")  c #EAEFF5",
"_  c #EBEFF5",
"`  c #ECF0F6",
"'  c #EDF1F6",
"]  c #F5F7FA",
"[  c #F7F9FB",
"{  c #F8F9FB",
"}  c #F8FAFC",
"|  c #F9FAFC",
" . c #FAFBFC",
".. c #FAFBFD",
"X. c #FBFCFD",
"o. c #FEFEFE",
"O. c #FEFEFF",
"+. c gray100",
"@. c None",
/* pixels */
"@.@.@.@.@.@.@.@.@.@.@.@.@.$ $ $ $ $ $ @.@.@.@.@.@.@.@.@.@.@.@.@.",
"@.@.@.@.@.@.@.@.@.@.$ $ $ $ $ $ $ $ $ $ $ $ @.@.@.@.@.@.@.@.@.@.",
"@.@.@.@.@.@.@.@.$ $ $ $ $ $ $ $ $ $ $ $ $ $ $ $ @.@.@.@.@.@.@.@.",
"@.@.@.@.@.@.@.$ $ $ $ $ $ $ $ $ + + + $ $ $ $ $ $ @.@.@.@.@.@.@.",
"@.@.@.@.@.$ $ $ $ $ $ $ $ $ $ > 1 1 1 ; $ $ $ $ $ $ $ @.@.@.@.@.",
"@.@.@.@.$ $ $ $ $ $ $ $ $ + 2 H W R E h X $ $ $ $ $ $ $ @.@.@.@.",
"@.@.@.@.$ $ $ $ $ $ $ $ $ X i ] +.+.} f X $ $ $ $ $ $ $ @.@.@.@.",
"@.@.@.$ $ $ $ $ $ $ $ $ $ X b +.+.+.^ 9 + $ $ $ $ $ $ $ $ @.@.@.",
"@.@.$ $ $ $ $ $ $ $ $ $ $ , I +.+.+.K $ $ $ $ $ $ $ $ $ $ $ @.@.",
"@.@.$ $ $ $ $ $ $ $ $ $ X r _ +.+.+.z X $ $ $ $ $ $ $ $ $ $ @.@.",
"@.$ $ $ $ $ $ $ $ $ $ $   l +.+.+.` t + $ $ $ $ $ $ $ $ $ $ $ @.",
"@.$ $ $ $ $ $ $ $ $ $ $ $ F +.+.+.U , $ $ $ $ $ $ $ $ $ $ $ $ @.",
"@.$ $ $ $ $ $ $ $ $ $ + 7 ! +.+.+.n X $ $ $ $ $ $ $ $ $ $ $ $ @.",
"$ $ $ $ $ $ $ $ $ $ + X s } +.+.] p - > $ $ $ $ $ $ $ $ $ $ $ $ ",
"$ $ $ $ $ $ $ $ $ $ $ + M +.+.+.` B L t X $ $ $ $ $ $ $ $ $ $ $ ",
"$ $ $ $ $ $ $ $ $ +   1 Y +.+.+.+.| I 4 + $ $ $ $ $ $ $ $ $ $ $ ",
"$ $ $ $ $ $ $ $ + 5 g F [ +.+.X.C u 2 $ $ $ $ $ $ $ $ $ $ $ $ $ ",
"$ $ $ $ $ $ $ $ > K } X.+.+.+.^ 9   + $ $ $ $ $ $ $ $ $ $ $ $ $ ",
"$ $ $ $ $ $ $ @ 4 v j T +.+.+.K $ $ $ $ $ $ $ $ $ $ $ $ $ $ $ $ ",
"@.$ $ $ $ $ $ $ $ X q ) +.+.+.z X $ $ $ $ $ $ $ $ $ $ $ $ $ $ @.",
"@.$ $ $ $ $ $ $ $ X l +.+.+.` r X $ + + + + $ + $ $ $ $ $ $ $ @.",
"@.$ $ $ $ $ $ $ $ $ F +.+.+.T q 9 9 9 9 9 9 7 2 $ $ $ $ $ $ $ @.",
"@.@.$ $ $ $ $ $   9 Q +.+.+.] ^ ^ / / / / / / F ; $ $ $ $ $ @.@.",
"@.@.$ $ $ $ $ $ X a } +.+.+.+.+.+.+.+.+.+.+.+.B + $ $ $ $ $ @.@.",
"@.@.@.$ $ $ $ $ $ B +.+.+.+.+.+.+.+.+.+.+.+.} s   $ $ $ $ @.@.@.",
"@.@.@.@.$ $ $ $ & c F A Z Z A A Z Z Z A Z F N 4 $ $ $ $ @.@.@.@.",
"@.@.@.@.$ $ $ $ & + & + + + + + + + + & + + + + $ $ $ $ @.@.@.@.",
"@.@.@.@.@.$ $ $ + & + $ + + - + + + $ $ + + $ $ $ $ $ @.@.@.@.@.",
"@.@.@.@.@.@.@.$ $ $ $ $ $ $ $ $ + & + & $ $ $ $ $ @.@.@.@.@.@.@.",
"@.@.@.@.@.@.@.@.$ $ $ $ $ $ $ $ & + & + $ $ $ $ @.@.@.@.@.@.@.@.",
"@.@.@.@.@.@.@.@.@.@.$ $ $ $ $ $ $ $ + & $ $ @.@.@.@.@.@.@.@.@.@.",
"@.@.@.@.@.@.@.@.@.@.@.@.@.$ $ $ $ $ $ @.@.@.@.@.@.@.@.@.@.@.@.@."
};
