/* XPM */
static char *bitcoin64[] = {
/* columns rows colors chars-per-pixel */
"64 64 241 2 ",
"   c #17100A",
".  c #372718",
"X  c #342315",
"o  c #35322F",
"O  c #35060E",
"+  c #482B0C",
"@  c #54320E",
"#  c #5D370D",
"$  c #422B13",
"%  c #452D18",
"&  c #4A3218",
"*  c #533414",
"=  c #593612",
"-  c #5C3915",
";  c #5B3C1C",
":  c #54381B",
">  c #502F0B",
",  c #60380E",
"<  c #643C13",
"1  c #6B3E13",
"2  c #633F1A",
"3  c #4C3A28",
"4  c #533B22",
"5  c #5A3926",
"6  c #443C34",
"7  c #4F2A23",
"8  c #4C1819",
"9  c #5D401F",
"0  c #6C4115",
"q  c #65411C",
"w  c #6D441A",
"e  c #6A441B",
"r  c #734415",
"t  c #7B4917",
"y  c #73461A",
"u  c #75491C",
"i  c #7C4C1C",
"p  c #784717",
"a  c #7F511C",
"s  c #5D4225",
"d  c #5C4B3A",
"f  c #4A4239",
"g  c #624323",
"h  c #6C4A24",
"j  c #6A4928",
"k  c #744C23",
"l  c #7C4E22",
"z  c #754C28",
"x  c #7D5125",
"c  c #7D542A",
"v  c #79572A",
"b  c #634C35",
"n  c #6C533A",
"m  c #7C5A3C",
"M  c #765535",
"N  c #6F502F",
"B  c #7E663E",
"V  c #675747",
"C  c #775C43",
"Z  c #675C51",
"A  c #796857",
"S  c #7E6348",
"D  c #6C6158",
"F  c #824E1D",
"G  c #85521E",
"H  c #89541E",
"J  c #88581F",
"K  c #94571D",
"L  c #845323",
"P  c #8B5523",
"I  c #8C5A24",
"U  c #84552B",
"Y  c #8C5C2B",
"T  c #85592B",
"R  c #935A25",
"E  c #995D26",
"W  c #945D2A",
"Q  c #9B5E28",
"!  c #915722",
"~  c #845C33",
"^  c #865B35",
"/  c #915E31",
"(  c #886129",
")  c #936424",
"_  c #9A6A26",
"`  c #95632B",
"'  c #9C632C",
"]  c #9B6B2B",
"[  c #976825",
"{  c #9E702C",
"}  c #8E6134",
"|  c #8B613A",
" . c #85623B",
".. c #956234",
"X. c #9B6533",
"o. c #9D6A33",
"O. c #93643A",
"+. c #9D6A3A",
"@. c #956B38",
"#. c #997538",
"$. c #A1632B",
"%. c #A26C2D",
"&. c #AC6A2E",
"*. c #A26527",
"=. c #A2722A",
"-. c #AA752D",
";. c #AB7A2D",
":. c #B17C2E",
">. c #A46A33",
",. c #A96A32",
"<. c #A36D3C",
"1. c #A16733",
"2. c #B16E33",
"3. c #AA7235",
"4. c #AC753B",
"5. c #A57536",
"6. c #B27D30",
"7. c #B5773B",
"8. c #815943",
"9. c #8E6B4B",
"0. c #866749",
"q. c #936944",
"w. c #9A6C42",
"e. c #936C48",
"r. c #997448",
"t. c #866C53",
"y. c #9B7552",
"u. c #997759",
"i. c #8B7056",
"p. c #A16E41",
"a. c #A37243",
"s. c #A2754D",
"d. c #AA7947",
"f. c #B47D49",
"g. c #A47B56",
"h. c #8B7764",
"j. c #997E66",
"k. c #817C75",
"l. c #AB8338",
"z. c #B58232",
"x. c #B98532",
"c. c #BE8A34",
"v. c #B48A3D",
"b. c #B8933B",
"n. c #C18D35",
"m. c #C69137",
"M. c #CA9638",
"N. c #CD9A39",
"B. c #C6983A",
"V. c #D29D3B",
"C. c #C28D2F",
"Z. c #D5A23C",
"A. c #D9A53D",
"S. c #DCAA3D",
"D. c #E1AC38",
"F. c #A98748",
"G. c #B48849",
"H. c #BD9545",
"J. c #AB835B",
"K. c #B68559",
"L. c #BB9857",
"P. c #AA954F",
"I. c #9C8669",
"U. c #A78867",
"Y. c #B68D67",
"T. c #BA936C",
"R. c #B49473",
"E. c #B99978",
"W. c #A58B74",
"Q. c #AA914C",
"!. c #C79D42",
"~. c #C28850",
"^. c #CCA447",
"/. c #DDAB41",
"(. c #D4A646",
"). c #DDB24C",
"_. c #C5A759",
"`. c #D9B757",
"'. c #C9B05C",
"]. c #E1AE41",
"[. c #E5B343",
"{. c #E9B544",
"}. c #EDB945",
"|. c #E3B54A",
" X c #EABC4D",
".X c #E7BA4D",
"XX c #E4BD53",
"oX c #E9BE51",
"OX c #F1BE47",
"+X c #C49E77",
"@X c #C2956A",
"#X c #C8A579",
"$X c #CBA872",
"%X c #ECC254",
"&X c #EAC45B",
"*X c #EFCA5E",
"=X c #F3CC5D",
"-X c #F2C756",
";X c #EFC14F",
":X c #DDC263",
">X c #EECB62",
",X c #E3CC6B",
"<X c #F1CE64",
"1X c #FBDB6C",
"2X c #F5D468",
"3X c #F7DD72",
"4X c #EED36B",
"5X c #FEE576",
"6X c #FFE06D",
"7X c #B09A84",
"8X c #BAA68E",
"9X c #C9A886",
"0X c #D2AC83",
"qX c #D4AF8D",
"wX c #CEB38D",
"eX c #D5B28C",
"rX c #DCB58D",
"tX c #D8B587",
"yX c #DBBA94",
"uX c #CAAF94",
"iX c #E3BD94",
"pX c #CCBAA4",
"aX c #DAC09E",
"sX c #E3C19B",
"dX c #EDCD9B",
"fX c #E9C699",
"gX c #F3D19B",
"hX c #DCC1A6",
"jX c #DFD0B4",
"kX c #EACBA3",
"lX c #F2CEA3",
"zX c #EED2A5",
"xX c #EDD3AC",
"cX c #F4D5AC",
"vX c #F3D5A8",
"bX c #EDD6B5",
"nX c #F5D9B4",
"mX c #F3DBB9",
"MX c #F7E3CE",
"NX c #F2DEC5",
"BX c None",
/* pixels */
"BXBXBXBXBXBXBXBXBXBXBXBXBXBXBXBXBXBXBXBXBXBXBXBXBXBXBXBXBXBXBXBXBXBXBXBXBXBXBXBXBXBXBXBXBXBXBXBXBXBXBXBXBXBXBXBXBXBXBXBXBXBXBXBX",
"BXBXBXBXBXBXBXBXBXBXBXBXBXBXBXBXBXBXBXBXBXBXBXBXBXBXBXBXBXBXBXBXBXBXBXBXBXBXBXBXBXBXBXBXBXBXBXBXBXBXBXBXBXBXBXBXBXBXBXBXBXBXBXBX",
"BXBXBXBXBXBXBXBXBXBXBXBXBXBXBXBXBXBXBXBXBXBXBXBXBXBXBXBXBXBXBXBXBXBXBXBXBXBXBXBXf BXBXBXBXBXBXBXBXBXBXBXBXBXBXBXBXBXBXBXBXBXBXBX",
"BXBXBXBXBXBXBXBXBXBXBXBXBXBXBXBXBXBXBXBXBXBXBXBXBXBXBXBXBXBXBXBXBXBXBXBXBXBXBX9.C BXBXBXBXBXBXBXBXBXBXBXBXBXBXBXBXBXBXBXBXBXBXBX",
"BXBXBXBXBXBXBXBXBXBXBXBXBXBXBXBXBXBXBXBXBXBXBXBXBXBXBXBXBXBXBXBXBXBXBXBXBXBXBXp.s.BXBXBXBXBXBXBXBXBXBXBXBXBXBXBXBXBXBXBXBXBXBXBX",
"BXBXBXBXBXBXBXBXBXBXBXBXBXBXBXBXBXBXBXBXBXBXBXBXBXBXV BXBXBXBXBXBXBXBXBXBXBXBX,.r.BXBXBXBXBXBXBXBXBXBXBXBXBXBXBXBXBXBXBXBXBXBXBX",
"BXBXBXBXBXBXBXBXBXBXBXBXBXBXBXBXBXBXBXBXBXBXBXBXBXBXW.y.. BXBXBXBXBXBXBXBXBX/ ,.O.BXBXBXBXBXBXBXBXBXBXBXBXBXBXBXBXBXBXBXBXBXBXBX",
"BXBXBXBXBXBXBXBXBXBXBXBXBXBXBXBXBXBXBXBXBXBXBXBXBXBXe.f.s.z b BXBXBXX ; 4 6 ^ Q a.BXBXBXBXBXBXBXBXBXBXBXBXBXBXBXBXBXBXBXBXBXBXBX",
"BXBXBXBXBXBXBXBXBXBXBXBXBXBXBXBXBXBXBXBXBXBXBXBXBXBX5 x 1.,.X.h % 0.X.P U ^ ~ W <.m BXBXBXBXBXBXBXBXBXBXBXBXBXBXBXBXBXBXBXBXBXBX",
"BXBXBXBXBXBXBXBXBXBXBXBXBXBXBXBXBXBXBXBXBXBXBXBXBXBXc j l 1.' Q ` ! G p e p L L U h BXBXBXBXBXBXBXBXBXBXBXBXBXBXBXBXBXBXBXBXBXBX",
"BXBXBXBXBXBXBXBXBXBXBXBXBXBXBXBXBXBXBXBXBXBXBXBXBXBXc 2 k ,.P p p p i 1 L 1 e Y c BXBXBXBXBXBXBXBXBXBXBXBXBXBXBXBXBXBXBXBXBXBXBX",
"BXBXBXBXBXBXBXBXBXBXBXBXBXBXBXBXBXBXBXBXBXBXBXBXBXBXBXj > 2.Q F 1 L F p p p k p s.BXBXBXBXBXBXBXBXBXBXBXBXBXBXBXBXBXBXBXBXBXBXBX",
"BXBXBXBXBXBXBXBXBXBXBXBXBXBXBXBXBXBXBXBXBXBXBXBXBXBXBXt.$ ,.G i p p i < 1 < k l p.W.BXBXBXBXBXBXBXBXBXBXBXBXBXBXBXBXBXBXBXBXBXBX",
"BXBXBXBXBXBXBXBXBXBXBXBXBXBXBXBXBXBXBXBXBXBXBXBXBXBXBXD $ R P i e i H 1 p 1 k k U U.BXBXBXBXBXBXBXBXBXBXBXBXBXBXBXBXBXBXBXBXBXBX",
"BXBXBXBXBXBXBXBXBXBXBXBXBXBXBXBXBXBXBXBXBXBXBXBXBXBXBXf : ' 1.O.F , F , p h x L +.h.BXBXBXBXBXBXBXBXBXBXBXBXBXBXBXBXBXBXBXBXBXBX",
"BXBXBXBXBXBXBXBXBXBXBXBXBXBXBXBXBXBXBXBXBXBXBXBXBXBXBXV x &.8.A f.F 1 <. .^ r.O.~.V o BXBXBXBXBXBXBXBXBXBXBXBXBXBXBXBXBXBXBXBXBX",
"BXBXBXBXBXBXBXBXBXBXBXBXBXBXBXBXBXBXBXBXBXBXBXBXBXBXBXBXs.7.n o y.1.L @X@X@X@X+XT.@XW.BXBXBXBXBXBXBXBXBXBXBXBXBXBXBXBXBXBXBXBXBX",
"BXBXBXBXBXBXBXBXBXBXBXBXBXBXBXBXBXBXBXBXBXBXBXBXBXBXBXj ..2.^   g.@X+XqX9X0X9XE.qX9Xr.C BXBXBXBXBXBXBXBXBXBXBXBXBXBXBXBXBXBXBXBX",
"BXBXBXBXBXBXBXBXBXBXBXBXBXBXBXBXBXBXBXBXBXBXBXBXBXBXBX5 l U K.#X+X9XiXkX9XrXrX+XqX9X9.| BXBXBXBXBXBXBXBXBXBXBXBXBXBXBXBXBXBXBXBX",
"BXBXBXBXBXBXBXBXBXBXBXBXBXBXBXBXBXBXBXBXBXBXBXBXBXBXBX0.^ U J.U.+XqXlXlXrXlXiX0X+XqXY.O.m BXBXBXBXBXBXBXBXBXBXBXBXBXBXBXBXBXBXBX",
"BXBXBXBXBXBXBXBXBXBXBXBXBXBXBXBXBXBXBXBXBXBXBXBXBXBXBX~ l p a.R.0XyXkXkX7Xg.g.j.qXqXY./ ~ V BXBXBXBXBXBXBXBXBXBXBXBXBXBXBXBXBXBX",
"BXBXBXBXBXBXBXBXBXBXBXBXBXBXBXBXBXBXBXBXBXBXBXBXBXBXBX/ 2 F s.T.0XiXsXcXlX7Xj.iXkX0XY.9.P y.BXBXBXBXBXBXBXBXBXBXBXBXBXBXBXBXBXBX",
"BXBXBXBXBXBXBXBXBXBXBXBXBXBXBXBXBXBXBXBXBXBXBXBXBXBXg 1.k W +.T.#XiXcXcXcXmXuXkXiX+XU.f.Y ^ A BXBXBXBXBXBXBXBXBXBXBXBXBXBXBXBXBX",
"BXBXBXBXBXBXBXBXBXBXBXBXBXBXBXBXBXBXBXBXBXBXBXBXBXBXO.W Q X.,.g.#XlXnXnXbXj.8.9XsX+XY.s.1.P g.BXBXBXBXBXBXBXBXBXBXBXBXBXBXBXBXBX",
"BXBXBXBXBXBXBXBXBXBXBXBXBXBXBXBXBXBXBXBXBXBXBXBXBXg Y l 1.+...a.R.uXmXcXkXuX8XhXuXT.d. .} ,.O.g.BXBXBXBXBXBXBXBXBXBXBXBXBXBXBXBX",
"BXBXBXBXBXBXBXBXBXBXBXBXBXBXBXBXBXBXBXBXBXBXBXBXBXe e ' +.4.<.r.uXpXmXdXI.W.7XjX8Xe.,.Y Y W ! a.h.BXBXBXBXBXBXBXBXBXBXBXBXBXBXBX",
"BXBXBXBXBXBXBXBXBXBXBXBXBXBXBXBXBXBXBXBXBXBXBXBXb l P W %.] } y.7XbXnXzXdXdXbXmXNX7X..,.<.G < P Y.BXBXBXBXBXBXBXBXBXBXBXBXBXBXBX",
"BXBXBXBXBXBXBXBXBXBXBXBXBXBXBXBXBXBXBXBXBXBXBX: p p E $.$.` ` w.+XvXvXlXbXbXbXzXbXMXE.&.X.= 1 i X.u.BXBXBXBXBXBXBXBXBXBXBXBXBXBX",
"BXBXBXBXBXBXBXBXBXBXBXBXBXBXBXBXBXBXBXBXBXBXBX^ F F Q ! P ,.` w.R.dXdXdXdXvXzXzXnXMX8X<.P < , E P e.BXBXBXBXBXBXBXBXBXBXBXBXBXBX",
"BXBXBXBXBXBXBXBXBXBXBXBXBXBXBXBXBXBXBXBXBXBXm 0 < R E i I ` W U.R.dXdXzXvXvXvXbXhX#XwXK.L > > H X.y.h.BXBXBXBXBXBXBXBXBXBXBXBXBX",
"BXBXBXBXBXBXBXBXBXBXBXBXBXBXBXBXBXn z & b 0.M # i &.$.E R Y ..g.$XgX:X$X$X$X$XwX!.D.L.hX9.= p L ..9.A BXBXBXBXBXBXBXBXBXBXBXBXBX",
"BXBXBXBXBXBXBXBXBXBXBXBXBXn M ..^ a.~.r.r.w.; p R $.P l = p x uXMX$XB.S.S.S.S.l./.D.H.W.8.l e q ^ 9.BXBXBXBXBXBXBXBXBXBXBXBXBXBX",
"BXBXBXBXBXBXBXBXBXBXBXBXy.w.E 7.Y [ f.F.L.j < p P ! p - < ! U j.8XS.^./.[.S./.B.Z.b.A.} w.X.p j U b BXBXBXBXBXBXBXBXBXBXBXBXBXBX",
"BXBXBXBXBXBXBXBXBXBXZ g.,.$.W 3.<.h ,.] / v p F F F 1 p P &.,.` l.OX^.Z.[.Z.Z.H.V.6.(.X.X.O.h & U d BXBXBXBXBXBXBXBXBXBXBXBXBXBX",
"BXBXBXBXBXBXBXBXBXBXU.,.U p.4.7.<.<.7.3.X./ l r F ! ! E $.Q ` +.l.o.l.b.{.N.!.b.G.q./ K x L = + L 9.BXBXBXBXBXBXBXBXBXBXBXBXBXBX",
"BXBXBXBXBXBXBXBXBXR.4.x x X.,.%.} { 7.4.' 1.e L p i F P P P ` 3.5.=.^ F.[.Z.b.#./ H E $.l 1 + P 1.BXBXBXBXBXBXBXBXBXBXBXBXBXBXBX",
"BXBXBXBXBXBXBXBXBXf.,.^ l I ,.3.<.6.#.T 4.%.x I p < i i i i X.,.3.] L l F.N.(. ., 1 i G p ; / 4.g.BXBXBXBXBXBXBXBXBXBXBXBXBXBXBX",
"BXBXBXBXBXBXBXBXm ,.' U P [ ' x ( <.x = U q l L l U 1 = n 9.x  .+.` I q j k ` h X > 1 1 s R.,.X.O.BXBXBXBXBXBXBXBXBXBXBXBXBXBXBX",
"BXBXBXBXBXBXBXBXZ } < e G G p p x x i p 2 j < H &.2.W O.Y.qXI.h } ..- p / 4 O 8 7 b N 9.uX9X^ 1.$.BXBXBXBXBXBXBXBXBXBXBXBXBXBXBX",
"BXBXBXBXBXBXBXA t.3 = = 0 i i < r q * w U k L Q P P $.7.s.@XiXi.+ v U g w v } =.#.9XqX0XrX0Xg.O.,./ BXBXBXBXBXBXBXBXBXBXBXBXBXBX",
"BXBXBXBXBXBXf V d g s q < < p < 0 0 0 q s & J p p e F <.g.+XfXvX7Xc #.b./.}.}.}. XL.0XfXiXT.g.+.$.e.BXBXBXBXBXBXBXBXBXBXBXBXBXBX",
"BXBXBXBXBXBXBXBXS j 9 < = > > 0 0 @ = 0 : q I G L i L f.y.+XvXsXF.S.[.D.S.[.[.).|.XX_.tXdXW.J.a.$.e.BXBXBXBXBXBXBXBXBXBXBXBXBXBX",
"BXBXBXBXBXBXBXh.V d 4 < > @ @ < 0 0 @ q x ` p P I P ,.w.r.0XiXr.M.A.S.S./.[.[.|.[. X-X_.dX#Xd.r.P O.BXBXBXBXBXBXBXBXBXBXBXBXBXBX",
"BXBXBXBXBXBXBXBXBX6 Z Z n 5 > $ - @ + & P P Q ' P U X.p.i.qXr.C.A.Z./.].[.[.[. X%X^.^.;XL.E.g.o.p +.BXBXBXBXBXBXBXBXBXBXBXBXBXBX",
"BXBXBXBXBXBXBXBXBXBXBXBX6 d s 9 & X + = l P I &.I U d.f.9.r.6.V.A.S.S.Z.D.}.N.z.{ ( (.%X`.J.r.U Y 9.BXBXBXBXBXBXBXBXBXBXBXBXBXBX",
"BXBXBXBXBXBXBXBXBXBXBXBXBXBX  . : . . w L P l Y ,.] 7.G.M [ m.N.z._ J c.[.[.N.=.1 v.=X%X2X'.m U Y 9.BXBXBXBXBXBXBXBXBXBXBXBXBXBX",
"BXBXBXBXBXBXBXBXBXBXBXBXBXBXBXBX3 . . 0 P a Y +...` 4.f.' x.m.n.%.p ;.OX{.[.}.-X) ] &X`.&X4X@.} U m BXBXBXBXBXBXBXBXBXBXBXBXBXBX",
"BXBXBXBXBXBXBXBXBXBXBXBXBXBXBXBXBX. $ < H P L %.,.W 4.,.=.m.N.V.D.G 5.S.Z.Z.Z.^.] i [ v.2X1X'.r.a.j.BXBXBXBXBXBXBXBXBXBXBXBXBXBX",
"BXBXBXBXBXBXBXBXBXBXBXBXBXBXBXBX  X 4 1 i H R Y ` W ` ` 6.n.N.V.z.a J =.{ { { { 5.r v.2X&X4X,Xd.a.d BXBXBXBXBXBXBXBXBXBXBXBXBXBX",
"BXBXBXBXBXBXBXBXBXBXBXBXBXBXBXBXBX. 4 e i L W ' %.' I %.6.n.N.n.;.G [ }.D.}.}.}.;XJ ) 2X<X4X3Xl.W s BXBXBXBXBXBXBXBXBXBXBXBXBXBX",
"BXBXBXBXBXBXBXBXBXBXBXBXBXBXBXBXBXBXV Y L k p ) ' Y I ;.x.m.N.A.D.( ) }.}.[.[.[.;Xz.r `.4X<X6XL.I e.BXBXBXBXBXBXBXBXBXBXBXBXBXBX",
"BXBXBXBXBXBXBXBXBXBXBXBXBXBXBXBXBXBXf x p U L L *.L I 6.6.n.N.A.D.[ a _ _ [ [ [ _ ( r G.1X>X5X'.x U BXBXBXBXBXBXBXBXBXBXBXBXBXBX",
"BXBXBXBXBXBXBXBXBXBXBXBXBXBXBXBXBXBXb M h z p i R i [ 6.x.M.N.A.D.) G N.Z.Z.Z.Z./.`.J ( 1X<X1X:X` F & BXBXBXBXBXBXBXBXBXBXBXBXBX",
"BXBXBXBXBXBXBXBXBXBXBXBXBXBXBXBXBXBXZ 0.2 z p i L k ] 6.n.M.V.A.{._ a ].}.[.}.;X-X=X5.r `.1X<X4Xo.p : BXBXBXBXBXBXBXBXBXBXBXBXBX",
"BXBXBXBXBXBXBXBXBXBXBXBXBXBXBXBXBXBXBXs p l p W I i %.6.n.N.N.A.[._ p Z.[.[.D.XX;X-XB.0 l.3X=X6Xl.< & BXBXBXBXBXBXBXBXBXBXBXBXBX",
"BXBXBXBXBXBXBXBXBXBXBXBXBXBXBXBXBXBXd % = p i i K L %.6.x.m.N.V.[.{ p N.}.D.XXXX;X;XXXa ( <X<X2X`.s t.BXBXBXBXBXBXBXBXBXBXBXBXBX",
"BXBXBXBXBXBXBXBXBXBXBXBXBXBXBXBXBXBXt.e.h h k k p L ' ;.x.m.V.V.S.=.p m.;XD.}. X%X%X=X{ 0 ^.1X=X3X .h.BXBXBXBXBXBXBXBXBXBXBXBXBX",
"BXBXBXBXBXBXBXBXBXBXBXBXBXBXBXBXBXBXBXi.N N n v - p %.-.x.m.V.Z.]._ 0 ) N.A.D.XX%X%X%X[ 0 x #.5.3XL.BXBXBXBXBXBXBXBXBXBXBXBXBXBX",
"BXBXBXBXBXBXBXBXBXBXBXBXBXBXBXBXBXBXBXBXBX3 3 4 N v %.-.z.c.N.N.=.J _ =.=.x.{.XX&X(.{ _ <.b.^.%X5XQ.BXBXBXBXBXBXBXBXBXBXBXBXBXBX",
"BXBXBXBXBXBXBXBXBXBXBXBXBXBXBXBXBXBXBXBXBXBXt.} ` } %.,.6.c.m.z.x.Z.D. X X X X X%X%X%X2X2X1X2X-X5XQ.% BXBXBXBXBXBXBXBXBXBXBXBXBX",
"BXBXBXBXBXBXBXBXBXBXBXBXBXBXBXBXBXBXBXBXBXA | K K J z.-.6.z.x.m.Z.Z././.}.|.XXXX;XXX%X&X<X<X=X1X3XF.BXBXBXBXBXBXBXBXBXBXBXBXBXBX",
"BXBXBXBXBXBXBXBXBXBXBXBXBXBXBXBXBXBXBXBXBXk.A I.k ^ m =.6.z.x.N.N.Z.A.].[. X X}.;X%X%X%X&X&XXX`.P.BXBXBXBXBXBXBXBXBXBXBXBXBXBXBX",
"BXBXBXBXBXBXBXBXBXBXBXBXBXBXBXBXBXBXBXBXBXBXBXBXBXBXBXBXBXBX6.z.x.N.Z.Z.S./.Z.^.B.b.b.^.BXBXBXBXBXBXBXBXBXBXBXBXBXBXBXBXBXBXBXBX",
"BXBXBXBXBXBXBXBXBXBXBXBXBXBXBXBXBXBXBXBXBXBXBXBXBXBXBXBXBXBXBXBXBXBXBXBXBXBXBXBXBXBXBXBXBXBXBXBXBXBXBXBXBXBXBXBXBXBXBXBXBXBXBXBX"
};
