/* XPM */
static char *bitcoin___[] = {
/* columns rows colors chars-per-pixel */
"16 16 65 1 ",
"  c #315A9B",
". c #315B9B",
"X c #315B9C",
"o c #325B9C",
"O c #325C9C",
"+ c #335C9C",
"@ c #335C9D",
"# c #335D9D",
"$ c #345D9D",
"% c #355E9D",
"& c #365E9E",
"* c #375F9E",
"= c #375F9F",
"- c #38609F",
"; c #3B63A0",
": c #3C63A1",
"> c #3C64A1",
", c #3E65A2",
"< c #3F66A2",
"1 c #4269A4",
"2 c #476CA6",
"3 c #496EA7",
"4 c #4A6EA7",
"5 c #4B6FA8",
"6 c #4B70A8",
"7 c #4F72AA",
"8 c #5476AC",
"9 c #5C7DB0",
"0 c #5D7DB1",
"q c #6685B5",
"w c #6F8CB9",
"e c #6F8CBA",
"r c #718DBA",
"t c #7390BC",
"y c #7893BE",
"u c #8EA5C8",
"i c #8FA5C9",
"p c #A1B4D2",
"a c #A3B6D3",
"s c #A4B6D3",
"d c #B0C0D9",
"f c #B5C4DB",
"g c #BAC8DE",
"h c #BBC9DE",
"j c #C2CEE2",
"k c #C5D1E3",
"l c #CCD6E6",
"z c #CED8E7",
"x c #CFD9E8",
"c c #D0D9E8",
"v c #D2DBE9",
"b c #D8E0EC",
"n c #E0E7F0",
"m c #E1E7F1",
"M c #E8ECF4",
"N c #E8EDF4",
"B c #EAEEF5",
"V c #EBEFF5",
"C c #EEF1F7",
"Z c #F0F3F8",
"A c #FAFBFD",
"S c #FBFCFD",
"D c #FCFCFD",
"F c gray100",
"G c None",
/* pixels */
"GGGGGG$$$$GGGGGG",
"GGGG$$$+X+$$GGGG",
"GG$$$$+9ur$$$$GG",
"GG$$$$$fFp+$$$GG",
"G$$$$+3nFr.$$$$G",
"G$$$$.eAn3+$$$$G",
"$$$$$+pFg,$$$$$$",
"$$$$+1vFby+$$$$$",
"$$$X0hACr,+$$$$$",
"$$$@6dFk=+$X$$$$",
"G$$$;jFs3362$$$G",
"G$$@8NFCNNCg,$$G",
"GG$Xqzzvzvvi+$GG",
"GG$$$,::::,$$$GG",
"GGGG$$$$$$$$GGGG",
"GGGGGG$$$$GGGGGG"
};
