/* XPM */
static char *_____________[] = {
/* columns rows colors chars-per-pixel */
"64 64 108 2",
"   c #0D6CB7",
".  c #0E6CB8",
"X  c #0E6DB8",
"o  c #0F6DB8",
"O  c #106DB9",
"+  c #106EB8",
"@  c #106EB9",
"#  c #116EB9",
"$  c #116FB9",
"%  c #126FB9",
"&  c #136FB9",
"*  c #1370B9",
"=  c #1470B9",
"-  c #1470BA",
";  c #1571BA",
":  c #1671BA",
">  c #1772BB",
",  c #1872BB",
"<  c #1873BB",
"1  c #1973BB",
"2  c #1A73BB",
"3  c #1A74BB",
"4  c #1A74BC",
"5  c #1B74BC",
"6  c #1B75BC",
"7  c #1C75BC",
"8  c #1D75BC",
"9  c #1C75BD",
"0  c #1D76BC",
"q  c #1C76BD",
"w  c #2B7EC1",
"e  c #3483C3",
"r  c #3584C4",
"t  c #3685C4",
"y  c #3986C5",
"u  c #3B88C6",
"i  c #3F8AC7",
"p  c #448EC8",
"a  c #468FC9",
"s  c #478FC9",
"d  c #4890C9",
"f  c #4991CA",
"g  c #4E93CB",
"h  c #4F94CB",
"j  c #5195CC",
"k  c #5296CC",
"l  c #5497CD",
"z  c #5698CD",
"x  c #5799CD",
"c  c #579ACE",
"v  c #5B9BCE",
"b  c #629FD1",
"n  c #69A4D3",
"m  c #6CA6D4",
"M  c #6DA6D4",
"N  c #6EA7D5",
"B  c #75ABD7",
"V  c #7FB1D9",
"C  c #83B4DA",
"Z  c #83B4DB",
"A  c #84B4DB",
"S  c #86B6DB",
"D  c #87B6DC",
"F  c #8EBADE",
"G  c #8EBBDE",
"H  c #91BDDF",
"J  c #97BFE0",
"K  c #9AC2E1",
"L  c #9FC5E2",
"P  c #9EC4E3",
"I  c #A0C5E3",
"U  c #A2C7E4",
"Y  c #A6C9E5",
"T  c #A7CAE5",
"R  c #A8CAE6",
"E  c #AACBE6",
"W  c #ABCCE6",
"Q  c #ACCDE6",
"!  c #ADCEE7",
"~  c #AECEE7",
"^  c #B2D0E8",
"/  c #BAD5EB",
"(  c #C3DBED",
")  c #CBDFEF",
"_  c #D4E5F2",
"`  c #D5E6F3",
"'  c #D6E6F3",
"]  c #DAE9F4",
"[  c #E1EDF6",
"{  c #E2EDF7",
"}  c #E4EFF7",
"|  c #E6F0F8",
" . c #E7F0F8",
".. c #EDF4FA",
"X. c #EEF4FA",
"o. c #EEF5FA",
"O. c #EFF5FA",
"+. c #F0F6FB",
"@. c #F3F8FC",
"#. c #F5F9FC",
"$. c #F6F9FC",
"%. c #F6FAFC",
"&. c #F9FBFD",
"*. c #FBFDFE",
"=. c #FCFEFF",
"-. c #FDFEFF",
";. c #FFFFFF",
":. c None",
/* pixels */
":.:.:.:.:.:.:.7 7 7 7 7 7 7 7 7 7 7 7 7 7 7 7 7 7 7 7 7 7 7 7 7 7 7 7 7 7 7 7 7 7 7 7 7 7 7 7 7 7 7 7 7 7 7 7 7 7 :.:.:.:.:.:.:.",
":.:.:.:.:.7 7 7 7 7 7 7 7 7 7 7 7 7 7 7 7 7 7 7 7 7 7 7 7 7 7 7 7 7 7 7 7 7 7 7 7 7 7 7 7 7 7 7 7 7 7 7 7 7 7 7 7 7 7 :.:.:.:.:.",
":.:.:.:.7 7 7 7 7 7 7 7 7 7 7 7 7 7 7 7 7 7 7 7 7 7 7 7 7 7 7 7 7 7 7 7 7 7 7 7 7 7 7 7 7 7 7 7 7 7 7 7 7 7 7 7 7 7 7 7 :.:.:.:.",
":.:.:.7 7 7 7 7 7 7 7 7 7 7 7 7 7 7 7 7 7 7 7 7 7 7 7 7 7 7 7 7 7 7 7 7 7 7 7 7 7 7 7 7 7 7 7 7 7 7 7 7 7 7 7 7 7 7 7 7 7 :.:.:.",
":.:.7 7 7 7 7 7 7 7 7 7 7 7 7 7 7 7 7 7 7 7 7 7 7 7 7 7 7 7 7 7 7 7 7 7 7 7 7 7 7 7 7 7 7 7 7 7 7 7 7 7 7 7 7 7 7 7 7 7 7 7 :.:.",
":.7 7 7 7 7 7 7 7 7 7 7 7 7 7 7 7 7 7 7 7 7 7 7 7 7 7 7 7 7 7 7 7 7 7 7 7 7 7 7 7 7 7 7 7 7 7 7 7 7 7 7 7 7 7 7 7 7 7 7 7 7 7 :.",
":.7 7 7 7 7 7 7 7 7 7 7 7 7 7 7 7 7 7 7 7 7 7 7 7 7 7 7 7 7 7 7 7 7 7 7 7 7 7 7 7 7 7 7 7 7 7 7 7 7 7 7 7 7 7 7 7 7 7 7 7 7 7 :.",
":.7 7 7 7 7 7 7 7 7 7 7 7 7 7 7 7 7 7 7 7 7 7 7 7 7 7 7 7 7 7 7 7 7 7 7 7 7 7 7 7 7 7 7 7 7 7 7 7 7 7 7 7 7 7 7 7 7 7 7 7 7 7 :.",
"7 7 7 7 7 7 7 7 7 7 7 7 7 7 7 7 7 7 7 7 7 7 7 7 7 7 7 7 7 7 7 7 7 7 7 7 7 7 7 7 7 7 7 7 7 7 7 7 7 7 7 7 7 7 7 7 7 7 7 7 7 7 7 7 ",
"7 7 7 7 7 7 7 7 7 7 7 7 7 7 7 7 7 7 7 7 7 7 7 7 7 7 7 7 7 7 7 7 7 7 7 7 7 7 7 7 7 7 7 7 7 7 7 7 7 7 7 7 7 7 7 7 7 7 7 7 7 7 7 7 ",
"7 7 7 7 7 7 7 7 7 7 7 7 7 7 7 7 7 7 7 7 7 7 7 7 7 7 7 7 7 7 7 7 7 7 7 7 7 7 7 7 7 7 7 7 7 7 7 7 7 7 7 7 7 7 7 7 7 7 7 7 7 7 7 7 ",
"7 7 7 7 7 7 7 7 7 7 7 7 7 7 7 7 7 7 7 7 7 7 7 7 7 7 7 7 7 7 7 7 7 7 7 7 7 7 7 7 7 7 7 7 7 7 7 7 7 7 7 7 7 7 7 7 7 7 7 7 7 7 7 7 ",
"7 7 7 7 7 7 7 7 7 7 7 7 7 7 7 7 7 7 7 7 7 7 7 7 7 7 7 7 7 7 7 7 7 7 7 7 7 7 7 7 7 7 7 7 7 7 7 7 7 7 7 7 7 7 7 7 7 7 7 7 7 7 7 7 ",
"7 7 7 7 7 7 7 7 7 7 7 7 7 7 7 7 7 7 7 7 7 7 7 7 7 7 7 7 7 7 7 7 7 7 7 7 7 7 7 7 7 7 7 7 7 7 7 7 7 7 7 7 7 7 7 7 7 7 7 7 7 7 7 7 ",
"7 7 7 7 7 7 7 7 7 7 7 7 7 7 7 7 7 7 7 7 7 7 7 7 7 7 7 7 7 7 7 7 7 7 7 7 7 7 7 7 7 7 7 7 7 7 7 7 7 7 7 7 7 7 7 7 7 7 7 7 7 7 7 7 ",
"7 7 7 7 7 7 7 7 7 7 7 7 7 7 7 7 7 7 7 7 7 7 7 7 7 7 7 7 7 7 7 7 7 7 7 7 7 7 7 7 7 7 7 7 7 7 7 7 7 7 7 7 7 7 7 7 7 7 7 7 7 7 7 7 ",
"7 7 7 7 7 7 7 7 7 7 7 7 7 7 7 7 7 7 7 7 7 7 7 7 7 7 7 7 7 7 7 7 8 8 8 8 , 8 8 8 7 7 7 7 7 7 7 7 7 7 7 7 7 7 7 7 7 7 7 7 7 7 7 7 ",
"7 7 7 7 7 7 7 7 7 7 7 7 7 7 7 7 7 7 , # # # # # # # # # # # # # # # # # # # # # # # # # # # # # # # # ; , 7 7 7 7 7 7 7 7 7 7 7 ",
"7 7 7 7 7 7 7 7 7 7 7 7 7 7 7 7 7 7 C O.....O.O.......O.................+.........+.........O.....O.o.{ W e 3 7 7 7 7 7 7 7 7 7 ",
"7 7 7 7 7 7 7 7 7 7 7 7 7 7 7 7 7 . { ;.;.;.;.;.;.;.;.;.;.;.;.;.;.;.;.;.;.;.;.;.;.;.;.;.;.;.;.;.;.;.;.;.;.;.N , 7 7 7 7 7 7 7 7 ",
"7 7 7 7 7 7 7 7 7 7 7 7 7 7 7 7 7 e ;.;.;.;.;.;.;.;.;.;.;.;.;.;.;.;.;.;.;.;.;.;.;.;.;.;.;.;.;.;.;.;.;.;.;.;.;.r 7 7 7 7 7 7 7 7 ",
"7 7 7 7 7 7 7 7 7 7 7 7 7 7 7 7 7 Z ;.;.;.;.;.;.;.;.;.;.;.;.;.;.;.;.;.;.;.;.;.;.;.;.;.;.;.;.;.;.;.;.;.;.;.;.;.K 3 7 7 7 7 7 7 7 ",
"7 7 7 7 7 7 7 7 7 7 7 7 7 7 7 7 # ] ;.;.;.;.;.;.;.;.;.;.;.;.;.;.;.;.;.;.;.;.;.;.;.;.;.;.;.;.;.;.;.;.;.;.;.;.;._ # 7 7 7 7 7 7 7 ",
"7 7 7 7 7 7 7 7 7 7 7 7 7 7 7 7 w ;.;.;.;.;.;.;.;.;.;.;.;.;.;.;.;.;.;.;.;.;.;.;.;.;.;.;.;.;.;.;.;.;.;.;.;.;.;.| . 7 7 7 7 7 7 7 ",
"7 7 7 7 7 7 7 7 7 7 7 7 7 7 7 7 Z ;.;.;.;.;.;.;.;.;.;.;.;.;.;.;.;.;.;.;.;.;.;.;.;.;.;.;.;.;.;.;.;.;.;.;.;.;.;.) * 7 7 7 7 7 7 7 ",
"7 7 7 7 7 7 7 7 7 7 7 7 7 7 7 7 i g g g g g g g g g g g g g g g g g g g g g g g h h g g f _ ;.;.;.;.;.;.;.;.;.S 4 7 7 7 7 7 7 7 ",
"7 7 7 7 7 7 7 7 7 7 7 7 7 7 7 7 7 7 7 7 7 7 7 7 7 7 7 7 7 7 7 7 8 7 7 7 7 7 7 7 7 7 7 7 7 ;.;.;.;.;.;.;.;.;.;.e 7 7 7 7 7 7 7 7 ",
"7 7 7 7 7 7 7 7 7 7 7 7 7 7 7 4 7 7 7 7 7 7 7 7 7 7 7 7 7 7 7 7 3 7 7 7 7 7 7 7 7 7 7 7 n ;.;.;.;.;.;.;.;.;.} . 7 7 7 7 7 7 7 7 ",
"7 7 7 7 7 7 7 7 7 7 ; . . . . . . . . . . . . . . . . # 8 8 7 7 7 7 7 7 7 7 7 7 7 7 7 ; / ;.;.;.;.;.;.;.;.;.F 4 7 7 7 7 7 7 7 7 ",
"7 7 7 7 7 7 7 7 4 4 Y ;.;.;.;.;.;.;.;.;.;.;.;.;.;.;.;._ # 3 7 7 7 7 7 7 7 7 7 7 7 7 7 , ;.;.;.;.;.;.;.;.;.;.u 3 7 7 7 7 7 7 7 7 ",
"7 7 7 7 7 7 7 7 7 * %.;.;.;.;.;.;.;.;.;.;.;.;.;.;.;.;.N 7 7 7 7 7 7 7 7 7 7 7 7 7 7 7 b ;.;.;.;.;.;.;.;.;...* 7 7 7 7 7 7 7 7 7 ",
"7 7 7 7 7 7 7 7 7 j ;.;.;.;.;.;.;.;.;.;.;.;.;.;.;.;.;.4 7 7 7 7 7 7 7 7 7 7 7 7 7 7 , ^ ;.;.;.;.;.;.;.;.;.K 4 7 7 7 7 7 7 7 7 7 ",
"7 7 7 7 7 7 7 7 , W ;.;.;.;.;.;.;.;.;.;.;.;.;.;.;.;.( ; 7 7 7 7 7 7 7 7 7 7 7 7 7 7 ; ;.;.;.;.;.;.;.;.;.;.p 7 7 7 7 7 7 7 7 7 7 ",
"7 7 7 7 7 7 7 7 ; *.;.;.;.;.;.;.;.;.;.;.;.;.;.;.;.;.N 7 7 7 7 7 7 7 7 7 7 7 7 7 7 4 v ;.;.;.;.;.;.;.;.;.@.# 7 7 7 7 7 7 7 7 7 7 ",
"7 7 7 7 7 7 7 7 x ;.;.;.;.;.;.;.;.;.;.;.;.;.;.;.;.;.4 7 7 7 7 7 7 7 7 7 7 7 7 7 7 3 R ;.;.;.;.;.;.;.;.;.L , 7 7 7 7 7 7 7 7 7 7 ",
"7 7 7 7 7 7 7 3 B ! ~ ! ! ! ! ! ! ! ~ ! ! ! ! ! ! F ; 7 7 7 7 7 7 7 7 7 7 7 7 7 3 # ;.;.;.;.;.;.;.;.;.;.h 7 7 7 7 7 7 7 7 7 7 7 ",
"7 7 7 7 7 7 7 7 , 3 ; 4 , 3 ; 4 , 3 , 3 3 ; 4 3 ; 3 7 7 7 7 7 7 7 7 7 7 7 7 7 7 8 k ;.;.;.;.;.;.;.;.;.&.# 7 7 7 7 7 7 7 7 7 7 7 ",
"7 7 7 7 7 7 7 7 7 7 7 7 7 7 7 7 7 7 7 4 7 4 4 7 7 7 7 7 7 4 7 7 7 7 7 7 7 7 7 7 3 U ;.;.;.;.;.;.;.;.;.Y 3 7 7 7 7 7 7 7 7 7 7 7 ",
"7 7 7 7 7 7 7 7 7 7 7 4 4 3 3 , 3 4 3 3 2 4 4 2 4 2 3 3 2 4 4 2 3 3 2 4 3 4 , 3   #.;.;.;.;.;.;.;.;.;.v 4 7 7 7 7 7 7 7 7 7 7 7 ",
"7 7 7 7 7 7 7 7 7 7 4 f I P L L L P P L P P L P L P P L P P L L P L P P L P P L R ;.;.;.;.;.;.;.;.;.;.# 7 7 7 7 7 7 7 7 7 7 7 7 ",
"7 7 7 7 7 7 7 7 7 7 , W ;.;.;.;.;.;.;.;.;.;.;.;.;.;.;.;.;.;.;.;.;.;.;.;.;.;.;.;.;.;.;.;.;.;.;.;.;.;.H 4 7 7 7 7 7 7 7 7 7 7 7 7 ",
"7 7 7 7 7 7 7 7 7 7 ; *.;.;.;.;.;.;.;.;.;.;.;.;.;.;.;.;.;.;.;.;.;.;.;.;.;.;.;.;.;.;.;.;.;.;.;.;.;.+., 7 7 7 7 7 7 7 7 7 7 7 7 7 ",
"7 7 7 7 7 7 7 7 7 7 j ;.;.;.;.;.;.;.;.;.;.;.;.;.;.;.;.;.;.;.;.;.;.;.;.;.;.;.;.;.;.;.;.;.;.;.;.;.;.y 7 7 7 7 7 7 7 7 7 7 7 7 7 7 ",
"7 7 7 7 7 7 7 7 4 3 Y ;.;.;.;.;.;.;.;.;.;.;.;.;.;.;.;.;.;.;.;.;.;.;.;.;.;.;.;.;.;.;.;.;.;.;.;.;.p 7 7 7 7 7 7 7 7 7 7 7 7 7 7 7 ",
"7 7 7 7 7 7 7 7 7 # %.;.;.;.;.;.;.;.;.;.;.;.;.;.;.;.;.;.;.;.;.;.;.;.;.;.;.;.;.;.;.;.;.;.;.;...e 7 7 7 7 7 7 7 7 7 7 7 7 7 7 7 7 ",
"7 7 7 7 7 7 7 7 7 f ;.;.;.;.;.;.;.;.;.;.;.;.;.;.;.;.;.;.;.;.;.;.;.;.;.;.;.;.;.;.;.;.;.;.&.V ; 7 7 7 7 7 7 7 7 7 7 7 7 7 7 7 7 7 ",
"7 7 7 7 7 7 7 7 4 x F F F F F F F F F F F F F F F F F F F F G G F F F F F F F F F F D l # 7 7 7 7 7 7 7 7 7 7 7 7 7 7 7 7 7 7 7 ",
"7 7 7 7 7 7 7 7 7 7 7 7 7 7 7 7 7 7 7 7 7 7 7 4 7 7 7 7 7 7 7 7 4 7 7 7 7 7 7 7 7 7 7 7 7 7 7 7 7 7 7 7 7 7 7 7 7 7 7 7 7 7 7 7 ",
"7 7 7 7 7 7 7 7 7 7 7 7 7 7 7 7 7 7 7 7 7 7 7 7 7 7 7 7 7 7 7 7 7 7 7 7 7 7 7 7 7 7 7 7 7 7 7 7 7 7 7 7 7 7 7 7 7 7 7 7 7 7 7 7 ",
"7 7 7 7 7 7 7 7 7 7 7 7 7 7 7 7 7 7 7 7 7 7 7 7 7 7 7 7 7 7 7 7 7 7 7 7 7 7 7 7 7 7 7 7 7 7 7 7 7 7 7 7 7 7 7 7 7 7 7 7 7 7 7 7 ",
"7 7 7 7 7 7 7 7 7 7 7 7 7 7 7 7 7 7 7 7 7 7 7 7 7 7 7 7 7 7 7 7 7 7 7 7 7 7 7 7 7 7 7 7 7 7 7 7 7 7 7 7 7 7 7 7 7 7 7 7 7 7 7 7 ",
"7 7 7 7 7 7 7 7 7 7 7 7 7 7 7 7 7 7 7 7 7 7 7 7 7 7 7 7 7 7 7 7 7 7 7 7 7 7 7 7 7 7 7 7 7 7 7 7 7 7 7 7 7 7 7 7 7 7 7 7 7 7 7 7 ",
"7 7 7 7 7 7 7 7 7 7 7 7 7 7 7 7 7 7 7 7 7 7 7 7 7 7 7 7 7 7 7 7 7 7 7 7 7 7 7 7 7 7 7 7 7 7 7 7 7 7 7 7 7 7 7 7 7 7 7 7 7 7 7 7 ",
"7 7 7 7 7 7 7 7 7 7 7 7 7 7 7 7 7 7 7 7 7 7 7 7 7 7 7 7 7 7 7 7 7 7 7 7 7 7 7 7 7 7 7 7 7 7 7 7 7 7 7 7 7 7 7 7 7 7 7 7 7 7 7 7 ",
"7 7 7 7 7 7 7 7 7 7 7 7 7 7 7 7 7 7 7 7 7 7 7 7 7 7 7 7 7 7 7 7 7 7 7 7 7 7 7 7 7 7 7 7 7 7 7 7 7 7 7 7 7 7 7 7 7 7 7 7 7 7 7 7 ",
"7 7 7 7 7 7 7 7 7 7 7 7 7 7 7 7 7 7 7 7 7 7 7 7 7 7 7 7 7 7 7 7 7 7 7 7 7 7 7 7 7 7 7 7 7 7 7 7 7 7 7 7 7 7 7 7 7 7 7 7 7 7 7 7 ",
":.7 7 7 7 7 7 7 7 7 7 7 7 7 7 7 7 7 7 7 7 7 7 7 7 7 7 7 7 7 7 7 7 7 7 7 7 7 7 7 7 7 7 7 7 7 7 7 7 7 7 7 7 7 7 7 7 7 7 7 7 7 7 :.",
":.7 7 7 7 7 7 7 7 7 7 7 7 7 7 7 7 7 7 7 7 7 7 7 7 7 7 7 7 7 7 7 7 7 7 7 7 7 7 7 7 7 7 7 7 7 7 7 7 7 7 7 7 7 7 7 7 7 7 7 7 7 7 :.",
":.7 7 7 7 7 7 7 7 7 7 7 7 7 7 7 7 7 7 7 7 7 7 7 7 7 7 7 7 7 7 7 7 7 7 7 7 7 7 7 7 7 7 7 7 7 7 7 7 7 7 7 7 7 7 7 7 7 7 7 7 7 7 :.",
":.:.7 7 7 7 7 7 7 7 7 7 7 7 7 7 7 7 7 7 7 7 7 7 7 7 7 7 7 7 7 7 7 7 7 7 7 7 7 7 7 7 7 7 7 7 7 7 7 7 7 7 7 7 7 7 7 7 7 7 7 7 :.:.",
":.:.:.7 7 7 7 7 7 7 7 7 7 7 7 7 7 7 7 7 7 7 7 7 7 7 7 7 7 7 7 7 7 7 7 7 7 7 7 7 7 7 7 7 7 7 7 7 7 7 7 7 7 7 7 7 7 7 7 7 7 :.:.:.",
":.:.:.:.7 7 7 7 7 7 7 7 7 7 7 7 7 7 7 7 7 7 7 7 7 7 7 7 7 7 7 7 7 7 7 7 7 7 7 7 7 7 7 7 7 7 7 7 7 7 7 7 7 7 7 7 7 7 7 7 :.:.:.:.",
":.:.:.:.:.7 7 7 7 7 7 7 7 7 7 7 7 7 7 7 7 7 7 7 7 7 7 7 7 7 7 7 7 7 7 7 7 7 7 7 7 7 7 7 7 7 7 7 7 7 7 7 7 7 7 7 7 7 7 :.:.:.:.:.",
":.:.:.:.:.:.:.7 7 7 7 7 7 7 7 7 7 7 7 7 7 7 7 7 7 7 7 7 7 7 7 7 7 7 7 7 7 7 7 7 7 7 7 7 7 7 7 7 7 7 7 7 7 7 7 7 7 :.:.:.:.:.:.:."
};
