/* XPM */
static char *bitcoin__[] = {
/* columns rows colors chars-per-pixel */
"64 64 78 1",
"  c #2C2D2B",
". c #2F302F",
"X c #30312F",
"o c #343533",
"O c #373836",
"+ c #383937",
"@ c #3C3D3B",
"# c #3F403E",
"$ c #40413F",
"% c #424442",
"& c #474846",
"* c #484947",
"= c #4C4C4B",
"- c #4F504E",
"; c #50514F",
": c #535452",
"> c #575856",
", c #585957",
"< c #5D5E5D",
"1 c #5F605F",
"2 c #60615F",
"3 c #636463",
"4 c #676867",
"5 c #686867",
"6 c #6C6D6C",
"7 c #6F706F",
"8 c #737474",
"9 c #777877",
"0 c #7C7C7B",
"q c #7F807E",
"w c #7F8080",
"e c #848484",
"r c #878886",
"t c #8B8C8B",
"y c #8F908F",
"u c #8D8E90",
"i c #8F9092",
"p c #949494",
"a c #979897",
"s c #9B9C9C",
"d c #9FA09F",
"f c #9E9FA1",
"g c #9FA0A3",
"h c #A2A3A2",
"j c #A6A7A9",
"k c #AAABAB",
"l c #AEAFB2",
"z c #AFB0B3",
"x c #B2B3B4",
"c c #B5B6B9",
"v c #B7B8BB",
"b c #BABABC",
"n c #BDBEC1",
"m c #BFC0C2",
"M c #C2C3C4",
"N c #C5C6C8",
"B c #C7C8CA",
"V c #CBCBCC",
"C c #CECED0",
"Z c #CFD0D2",
"A c #D2D2D3",
"S c #D7D8D7",
"D c #D6D6D8",
"F c #D7D8DA",
"G c #DBDCDC",
"H c #DFDFE0",
"J c #DFE0E1",
"K c #E3E3E4",
"L c #E7E7E8",
"P c #E7E8E9",
"I c #EBECEC",
"U c #EFEFF0",
"Y c #EFF0F1",
"T c #F3F3F3",
"R c #F7F7F8",
"E c #F7F8F8",
"W c #FDFDFD",
"Q c None",
/* pixels */
"QQQQQQQQQQQQQQQQQQQQQQQQQQQQQQQQQQQQQQQQQQQQQQQQQQQQQQQQQQQQQQQQ",
"QQQQQQQQQQQQQQQQQQQQQQQQQQQQQQQQQQQQQQQQQQQQQQQQQQQQQQQQQQQQQQQQ",
"QQQQQQQQQQQQQQQQQQQQQQQQQo+@#@@#####@+oQQQQQQQQQQQQQQQQQQQQQQQQQ",
"QQQQQQQQQQQQQQQQQQQQQQo@@@@@@#@@@@@@@@@@@oQQQQQQQQQQQQQQQQQQQQQQ",
"QQQQQQQQQQQQQQQQQQQo@##@@@++@+@+@@++@+@@@@$@ QQQQQQQQQQQQQQQQQQQ",
"QQQQQQQQQQQQQQQQQo@@@@@++&>8rasgdsar7>%@+@@@#@oQQQQQQQQQQQQQQQQQ",
"QQQQQQQQQQQQQQQQ@@@@@+*6sVKTEWWWEWWETLVs6&+@@@#@QQQQQQQQQQQQQQQQ",
"QQQQQQQQQQQQQQo@@@@@:yCTWEEEEEEEEEEEEEWETCy:@@@@$oQQQQQQQQQQQQQQ",
"QQQQQQQQQQQQQ@@@@+:aGEEEEERWWWEWWWWEWEWEWEEHa:+@@$@QQQQQQQQQQQQQ",
"QQQQQQQQQQQQ@#@@%0DEWEWEWWWWWWWWWWWWWWWEEWEERD0%@@@@QQQQQQQQQQQQ",
"QQQQQQQQQQQ@@@@=lYWREWEWWWTIHDCCVCFHPTWWWWWEEWTk=@@@@QQQQQQQQQQQ",
"QQQQQQQQQQ@@@@2VERRWWWWRKCncccccccccbDTWWWWWEWERV1@@@@QQQQQQQQQQ",
"QQQQQQQQQ##@@6GERWRWWRFncccvbbbbbbMGUEWWWWWWWWWREG6@@@#QQQQQQQQQ",
"QQQQQQQQ+@@+6HEEWRWRHnvccce6776679errrebWWWWWWWEEWG6@@@@QQQQQQQQ",
"QQQQQQQo#@+2GWEWWWUCvccvcl:@$$%%%%%%%@+lWWELGUWWWEWG2+@#oQQQQQQQ",
"QQQQQQ #@@:VEEEWWUnccvccvf#9ZAAAAAAAV2*GIFMccMIWWWEEV-@@@ QQQQQQ",
"QQQQQQ@@@%kWEEWWPnccccvMGp+zWWWWWWWWK;1nbccvccnIWWWEWk$@@@QQQQQQ",
"QQQQQo@@+wTEEWWIncccnCLRW9*SWWWWWWWWn@8vcccccccnIWWEEYw@@@oQQQQQ",
"QQQQQ@@@:DEWWWTncnVHTWWWL;3TWWWWWWWWp+pbvccccvVGRWWWEWD:@@@QQQQQ",
"QQQQo#@@sEEEWRCMFIWWWWWWM@yWWWWWWWWT6*jcccvMFIWWWWWWWEEa@@#XQQQQ",
"QQQQ+#@:HEEWWTIEWWWWWWWWa+bWWWWWWWWG=2xcnCPEWWWWWWWWWEEJ>+@@QQQQ",
"QQQQ@@+pWEWWWWWWWWWWWWWT5*GWWWWWWWWc@qVKTWWWWWWWWWWWWWRWp@#@QQQQ",
"QQQO@@*AWEWWWWWWWWWWWIGx&5EWWWWWWWWt$MWWTWWWWWWWWUGJWWWEV*@@OQQQ",
"QQQ@@+6TEEWWWWWWWWTHNbcu@aWWWWWWWWT2:KAaaWWWWWTHVbcnTWEWT6@@@QQQ",
"QQQ#@@sWEWWWWWWTLVncccv7#MWWWWWWWWD*;6*+gWWELCnccvccKWWEEd@@@QQQ",
"QQX@@%VEEWWWEPDMvcccvcx>:KWWWWWWWWk++&%%VIDMccccccccCEWWWV%@#.QQ",
"QQ+@@,LEEWEHNbcccvcvvvh%8WWWWWWWWWe<aM,:bbcccccvccccBRWEEL>@@OQQ",
"QQ##+7YWWWIvcccvcccccnp+hWWWWWWWWWAPWA%4vccccccccnCLRWWWET7+@#QQ",
"QQ#@+rEEEWGcccccccbVHTr$VWWWWWWWWWWWWj@rbcccccbVGTWWWWWWEEr+#@QQ",
"QQ$@+aEWWWDccccbMGUWWP<,IWWWWWWWWWWWE9%svcccMDIWWWWWWWWWWEa+@#QQ",
"QQ@@@sWEWWZccnAPRWEGh4+qWWWWWWWWWWIb0$:lcnAPRWWWWWWWWWWWEWs@@#QQ",
"QQ#@+sWEWWAVKTWWWWa=@=0ZWWWWWWWWIa,@@>pVKTWWWWWWWWWWETWWEWs@@#QQ",
"QQ$@+sEWWWEWWWWWWP,=hGWWWWWWWWWWM@=8kDUWWWWWWWWWWWIGMZWWEWs+@#QQ",
"QQ@@+sWEWWWWWWWWWB$tWWWWWWWWWWWWa@hIWWWWWWWWWWWTKVbccAWWEWs@@$QQ",
"QQ$@+aWEWWWWWWWWEa@cWWWWWWWWWWWE7*HWWWWWWWWWELCncccccDWWEEp+@$QQ",
"QQ@@+eEEEWWWWWIDM2=GEDPWWWWWWWWK=6TWWWWWWWIFNbcccvcccHWWWRe+@@QQ",
"QQ@@+6TWWWWTGNbch*,h8>GWWWWWWWWb@aWWWWWTHVbvcbvvccccbIWWEU6+@@QQ",
"QQo$@:GEEWTNccvbp#$@+5TWWWWWWWWp+7tttte867666666ucnCKWWEWH:@@+QQ",
"QQ.@@$MWEWWAcccv8@>1@yWWWWWWWWT6$%$$$$%%$$%$%%#@aHYWWWWWWm%@$ QQ",
"QQQ$@+pWEEWPccccefCt@bWWWWWWWWEGZAZZAZCAZZAZAV2&GWWWWWWEEp@@@QQQ",
"QQQ@@@4IEEWRMcMAPWT5=KWWWWWWWWWWWWWWWWWWWWWWWL:4TWWWWWEWI3@@@QQQ",
"QQQo@@%NWWWWPJTWWWG*7EWWWWWWWWWWWWWWWWWWWWWWWM@yWWWWWWWWN%@@oQQQ",
"QQQQ$@+eTEWWWWWWWWc@sWWWWWWWWWWWWWWWWWWWWWWWWa@bWWWWWEETeO@#QQQQ",
"QQQQ@@@*AWREWWWWWWt@BWWWWWWWWWWWWWWWWWWWWWWWT5:JTLTWWEWA=@@@QQQQ",
"QQQQ @@@tTEWWWWWWP2:GTUUUTUUTUTUTTUUTUUUTTTTA*4CnDEWWETt@@# QQQQ",
"QQQQQ@@@&VWEWWWTGk%%<<121211<<<<<<<<12<<1<1<>+0vVTWWEWB*@@@QQQQQ",
"QQQQQo@@@6PWEWWTMi::::;:;;,11<<1<1<21222>::::>sNTWWEEI6@@#XQQQQQ",
"QQQQQQ@@@@aEEEWWYmlzxklcBHITUUTTTUUTULAMxzllxlMUWWWEEa@@#+QQQQQQ",
"QQQQQQQ@@@%bEEEWWTVcbBKTWWWWWWWWWWWIDmvccvbccVTWWWRWb%@@@QQQQQQQ",
"QQQQQQQo@@@;BWEEWWTKIWWWWWWWWWWWTGNvcccccccbDRWWEEWN:@@@oQQQQQQQ",
"QQQQQQQQ+#@@,CWEEWWWWWWWWWWWWTKVnccccccccvVIWWWEEEV,@@#+QQQQQQQQ",
"QQQQQQQQQ+@#+>MWEEWWWWWWWWEPZnccccvccccbVPEWWWWWWN,@@@+QQQQQQQQQ",
"QQQQQQQQQQ@##+-zREWWEWWWWEDnccccccccnNGUWWWWWEWTx=@@@@QQQQQQQQQQ",
"QQQQQQQQQQQ@##@$tLEEEWWWWWWTIKGGGGKITWWWWRWREELt%@@@+QQQQQQQQQQQ",
"QQQQQQQQQQQQ+$#@@3bTWEEEWWWWWWWWWWWWWWWWWERWTb4@@@@@QQQQQQQQQQQQ",
"QQQQQQQQQQQQQX#@@+%0NTWEEEWEWEWWWWEWEWERWETM0%+@@@oQQQQQQQQQQQQQ",
"QQQQQQQQQQQQQQ @@@@@%7xHEWEEEWWERWWEEWEEKx6%+@@@@ QQQQQQQQQQQQQQ",
"QQQQQQQQQQQQQQQQ+@@#@+@>0kVKTTETRRTULVk0:@@@#@@+QQQQQQQQQQQQQQQQ",
"QQQQQQQQQQQQQQQQQQ@#@@@@+@%>480e0w05>&++@@@@#@QQQQQQQQQQQQQQQQQQ",
"QQQQQQQQQQQQQQQQQQQQ+@$@@@@@@++@+++++@@@@$@+QQQQQQQQQQQQQQQQQQQQ",
"QQQQQQQQQQQQQQQQQQQQQQ +@##@#@@@@@@@@@@@+ QQQQQQQQQQQQQQQQQQQQQQ",
"QQQQQQQQQQQQQQQQQQQQQQQQQQo+@@$@####+oQQQQQQQQQQQQQQQQQQQQQQQQQQ",
"QQQQQQQQQQQQQQQQQQQQQQQQQQQQQQQQQQQQQQQQQQQQQQQQQQQQQQQQQQQQQQQQ",
"QQQQQQQQQQQQQQQQQQQQQQQQQQQQQQQQQQQQQQQQQQQQQQQQQQQQQQQQQQQQQQQQ"
};
