/* XPM */
static char *bitcoin__[] = {
/* columns rows colors chars-per-pixel */
"16 16 2 1",
"  c #2D98CE",
". c None",
/* pixels */
"................",
"................",
"................",
"...           ..",
"...            .",
"....            ",
"   ..  ......   ",
".   .  ......   ",
"..   ........   ",
"...   .......   ",
"...             ",
"....           .",
".....         ..",
"................",
"................",
"................"
};
