/* XPM */
static char *bitcoin__[] = {
/* columns rows colors chars-per-pixel */
"16 16 107 2",
"   c #477117",
".  c #4A7B14",
"X  c #4B7B14",
"o  c #4B7C14",
"O  c #4C7C15",
"+  c #4D7D15",
"@  c #4D7E15",
"#  c #4E7F15",
"$  c #537E17",
"%  c #597F26",
"&  c #597239",
"*  c #5B7838",
"=  c #5D783B",
"-  c #647F3F",
";  c #627749",
":  c #4E8015",
">  c #4F8015",
",  c #508115",
"<  c #508215",
"1  c #518215",
"2  c #518315",
"3  c #528315",
"4  c #548615",
"5  c #548616",
"6  c #548716",
"7  c #578A16",
"8  c #588B16",
"9  c #5A8D16",
"0  c #5B8E16",
"q  c #5C8F16",
"w  c #5C9016",
"e  c #5D9117",
"r  c #5F9317",
"t  c #609417",
"y  c #629617",
"u  c #629717",
"i  c #649917",
"p  c #659A17",
"a  c #67971E",
"s  c #669B18",
"d  c #669C18",
"f  c #679C18",
"g  c #66981D",
"h  c #689E18",
"j  c #699E18",
"k  c #699F18",
"l  c #6AA018",
"z  c #5E8622",
"x  c #5B8226",
"c  c #639125",
"v  c #6B9730",
"b  c #71A02B",
"n  c #78A538",
"m  c #6F9341",
"M  c #82A84F",
"N  c #86B344",
"B  c #8DB355",
"V  c #90A37A",
"C  c #99AC7E",
"Z  c #9BAF7E",
"A  c #9EBD70",
"S  c #A5C37A",
"D  c #9DB181",
"F  c #9FB382",
"G  c #9FB482",
"H  c #A2B28B",
"J  c #A3B48B",
"K  c #A3B191",
"L  c #BABEB6",
"P  c #AEC985",
"I  c #B1CA8B",
"U  c #B4CE8E",
"Y  c #B1C594",
"T  c #B5CD96",
"R  c #B8CF97",
"E  c #B9D291",
"W  c #B8D292",
"Q  c #B9D096",
"!  c #BAD296",
"~  c #BCD499",
"^  c #BCD29E",
"/  c #C0D5A2",
"(  c #C1D6A2",
")  c #C1D6A6",
"_  c #C2D8A1",
"`  c #C2D8A2",
"'  c #C5CFB8",
"]  c #C8D9B0",
"[  c #CBDBB6",
"{  c #D0DEBC",
"}  c #CED3C7",
"|  c #D0D9C3",
" . c #D5DBCB",
".. c #D9DED3",
"X. c #D4E1C4",
"o. c #D8E5C8",
"O. c #DBE5CA",
"+. c #D9E3CD",
"@. c #DCE9CA",
"#. c #DFE8D2",
"$. c #E4ECD8",
"%. c #EAF2DE",
"&. c #EBF2E1",
"*. c #EEF4E7",
"=. c #F5F8EF",
"-. c #F8FAF4",
";. c None",
/* pixels */
";.;.;.;.;.;.;.;.;.;.;.;.;.;.;.;.",
";.;.;.;.;.l l l l l l ;.;.;.;.;.",
";.;.;.;.k l b _ l N l l ;.;.;.;.",
";.;.;.p f f U -.=.%.E l l ;.;.;.",
";.;.r y i O. .H Y @.&.E l l ;.;.",
";.0 r r J ] s Z I A a B l l l ;.",
";.7 0 $ | g z G ~ _ l l l l l ;.",
";.6 7 - o.r x F ! _ k l l l l ;.",
";.6 6 = X.0 % D ! / s k k l l ;.",
";.> 1 6 +.M c C R / s s k k l ;.",
";.+ > > V #.0 T ^ ) n P s k k ;.",
";.;.o > > K ..[ { $.*.S i s ;.;.",
";.;.;.. + > ; L } ' v r y ;.;.;.",
";.;.;.;.o +   & * m 8 r ;.;.;.;.",
";.;.;.;.;.. + > 1 6 7 ;.;.;.;.;.",
";.;.;.;.;.;.;.;.;.;.;.;.;.;.;.;."
};
