/* XPM */
static char *bitcoin16[] = {
/* columns rows colors chars-per-pixel */
"16 16 64 1 ",
"  c #F7921A",
". c #F6931A",
"X c #F7931A",
"o c #F6931B",
"O c #F7931B",
"+ c #F6941A",
"@ c #F7941A",
"# c #F7941D",
"$ c #F7951E",
"% c #F89319",
"& c #F8921B",
"* c #F79621",
"= c #F79722",
"- c #F79926",
"; c #F79A28",
": c #F89B2C",
"> c #F89E31",
", c #F89E32",
"< c #F8A43E",
"1 c #F8A642",
"2 c #F9AA4A",
"3 c #F9AF56",
"4 c #F9B057",
"5 c #F9B159",
"6 c #F9B460",
"7 c #FAB766",
"8 c #FAC07A",
"9 c #FAC17B",
"0 c #FAC27D",
"q c #FBC482",
"w c #FBC88A",
"e c #FBC88B",
"r c #FBC98C",
"t c #FBC98D",
"y c #FBCA8E",
"u c #FBCC92",
"i c #FBCC93",
"p c #FBCD96",
"a c #FBCE98",
"s c #FCD5A6",
"d c #FCD6A8",
"f c #FCD7AA",
"g c #FCD7AB",
"h c #FDDEBA",
"j c #FDE1BE",
"k c #FDE1BF",
"l c #FDE3C3",
"z c #FDE9CF",
"x c #FDEAD2",
"c c #FDEAD3",
"v c #FDEBD4",
"b c #FEEEDB",
"n c #FEEEDC",
"m c #FEF1E2",
"M c #FEF3E5",
"N c #FEF6EC",
"B c #FEF8F0",
"V c #FFF9F2",
"C c #FFFAF5",
"Z c #FFFBF6",
"A c #FFFCF9",
"S c #FFFEFC",
"D c white",
"F c None",
/* pixels */
"FFFFF.%%.%&FFFFF",
"FFF..%#.%.%.#FFF",
"FF.%%..;=.%%.%FF",
"F.%..:$t0g*.%.+F",
"F..%#eCVgm%...%F",
"&%%.%.hVsVv,%#.+",
"#.%%.#Nh.5De.%%#",
".%#.%1DMgxA4%.%.",
".#%.=7D7qNx-.%#.",
"%%.#qxV#%uD6%..%",
"...&anDblCC,.#%%",
"F%%..ueMip2.%%.F",
"F..%%4<k%.#%.%#F",
"FF.#.#.%.%..%.FF",
"FFF..%%.%#.%.FFF",
"FFFFF%#%..&FFFFF"
};
