/* XPM */
static char *bitcoin__[] = {
/* columns rows colors chars-per-pixel */
"16 16 82 1 ",
"  c None",
". c #EEB407",
"X c #FABA00",
"o c #FBBA00",
"O c #FDBA00",
"+ c #FDBC00",
"@ c #FEBC00",
"# c #FFBD00",
"$ c #FEBE00",
"% c #FFBE00",
"& c #FFBF00",
"* c #F7BE0E",
"= c #E2AF16",
"- c #F1BB1A",
"; c #F6BF18",
": c #E1B42D",
"> c #E4BB3F",
", c #FFC000",
"< c #FFC100",
"1 c #FFC200",
"2 c #FFC300",
"3 c #FFC500",
"4 c #FFC600",
"5 c #FFC700",
"6 c #FFC800",
"7 c #FFC900",
"8 c #FFC412",
"9 c #F9C116",
"0 c #FFC514",
"q c #FFC515",
"w c #F9C11A",
"e c #FFC61B",
"r c #FDC620",
"t c #FFC822",
"y c #FFCB30",
"u c #FECC33",
"i c #FECC34",
"p c #E5BC43",
"a c #FECF40",
"s c #FFD24C",
"d c #FFD44E",
"f c #EEC854",
"g c #E9C75E",
"h c #FAD25A",
"j c #FCD55D",
"k c #FFDB6B",
"l c #E9CC74",
"z c #E8CC77",
"x c #ECD07A",
"c c #F0D070",
"v c #FFDF7C",
"b c #E4CB81",
"n c #E7CF85",
"m c #EFD587",
"M c #F7DE93",
"N c #FFE084",
"B c #FCE396",
"V c #ECD9A0",
"C c #FFE9A6",
"Z c #FFEAA6",
"A c #FCEAB5",
"S c #E9DFC0",
"D c #EAE0C1",
"F c #FAF0D3",
"G c #FCF2D5",
"H c #FDF5DD",
"J c #F1EEE4",
"K c #FAF7EB",
"L c #FAF7EC",
"P c #FFFAE8",
"I c #FFFCEF",
"U c #F7F6F5",
"Y c #FDFAF1",
"T c #FFFCF1",
"R c #FFFCF2",
"E c #FFFDF3",
"W c #FFFDF5",
"Q c #FEFDF8",
"! c #F8FAFE",
"~ c #FCFEFF",
"^ c #FFFEFE",
"/ c #FEFFFF",
/* pixels */
"                ",
"     111111     ",
"   1551%%%551   ",
"  17%%ekvi%17%  ",
"  71%sP!UQh%15  ",
" 11%yRS:-AL;%5% ",
" 11%CJ=%%u/f%11 ",
" 5%0Rbo1%8RxO11 ",
" 5%r/g%%%0Wzo11 ",
" 118RmOsBj~>%11 ",
" 15%CKwaQRS.15% ",
" 17%tFHNF/l%%5  ",
"  15%9cnpMVo71  ",
"   171%%%%*51   ",
"     115511     ",
"                "
};
