/* XPM */
static char * bitcoin16_xpm[] = {
"16 16 49 1",
" 	c None",
".	c #000000",
"+	c #363636",
"@	c #353535",
"#	c #212121",
"$	c #2E2E2E",
"%	c #8C8C8C",
"&	c #B2B2B2",
"*	c #676767",
"=	c #BBBBBB",
"-	c #0F0F0F",
";	c #A4A4A4",
">	c #FAFAFA",
",	c #E7E7E7",
"'	c #DEDEDE",
")	c #4C4C4C",
"!	c #A6A6A6",
"~	c #C6C6C6",
"{	c #010101",
"]	c #999999",
"^	c #F9F9F9",
"/	c #E6E6E6",
"(	c #DDDDDD",
"_	c #8B8B8B",
":	c #D4D4D4",
"<	c #D7D7D7",
"[	c #030303",
"}	c #272727",
"|	c #FFFFFF",
"1	c #626262",
"2	c #6E6E6E",
"3	c #F1F1F1",
"4	c #909090",
"5	c #4D4D4D",
"6	c #C5C5C5",
"7	c #FEFEFE",
"8	c #040404",
"9	c #C0C0C0",
"0	c #E8E8E8",
"a	c #1F1F1F",
"b	c #767676",
"c	c #EAEAEA",
"d	c #F2F2F2",
"e	c #7E7E7E",
"f	c #3F3F3F",
"g	c #7D7D7D",
"h	c #CBCBCB",
"i	c #181818",
"j	c #333333",
"                ",
"       ..       ",
"     ......     ",
"   ....+@#...   ",
"   ..$%&*=...   ",
"  ...-;>,')...  ",
"  ....!~{]^-..  ",
"  ..../(_:<[... ",
" ....}|1234...  ",
"  ..567}890...  ",
"  ..abcd7|e...  ",
"   ..fghai...   ",
"   ....j.....   ",
"     ......     ",
"        .       ",
"                "};
