/* XPM */
static char *bitcoin___[] = {
"64 64 2 1",
" 	c None",
".	c #1C75BC",
"                                                                ",
"                                                                ",
"                                                                ",
"                                                                ",
"                                                                ",
"                                                                ",
"                                                                ",
"                                                                ",
"                                                                ",
"                                                                ",
"                                                                ",
"                                                                ",
"                                                                ",
"              ..............................................    ",
"             .................................................  ",
"             .................................................. ",
"             .................................................. ",
"            ....................................................",
"            ....................................................",
"            ....................................................",
"           .....................................................",
"           .....................................................",
"           ...................................... ..............",
"                                                  ............. ",
"                                                 .............. ",
"                                                 .............. ",
"                                                 .............  ",
"   .                                            ..............  ",
"   .......................                      ..............  ",
"  ........................                      .............   ",
"  .......................                      ..............   ",
"  .......................                      ..............   ",
" ........................                      .............    ",
" .......................                      ..............    ",
" .......................                      ..............    ",
"........................                      .............     ",
"                                             ..............     ",
"                                             ..............     ",
"                                             .............      ",
"                                            ..............      ",
"                                            ..............      ",
"      ...................................................       ",
"    .....................................................       ",
"    ....................................................        ",
"    ....................................................        ",
"   ....................................................         ",
"   ...................................................          ",
"   ..................................................           ",
"  ..................................................            ",
"  ................................................              ",
"  ..............................................                ",
"                                                                ",
"                                                                ",
"                                                                ",
"                                                                ",
"                                                                ",
"                                                                ",
"                                                                ",
"                                                                ",
"                                                                ",
"                                                                ",
"                                                                ",
"                                                                ",
"                                                                "};
