/* XPM */
static char *_____________[] = {
/* columns rows colors chars-per-pixel */
"16 16 52 1",
"  c #106EB8",
". c #106EB9",
"X c #116EB9",
"o c #126FB9",
"O c #136FB9",
"+ c #1470BA",
"@ c #1772BB",
"# c #1873BB",
"$ c #1973BB",
"% c #1A74BB",
"& c #1B74BC",
"* c #1B75BC",
"= c #1C75BC",
"- c #1D75BC",
"; c #267BBF",
": c #287CBF",
"> c #2C7FC1",
", c #2D80C1",
"< c #3282C2",
"1 c #3282C3",
"2 c #3C88C6",
"3 c #408BC7",
"4 c #458EC8",
"5 c #5397CC",
"6 c #5397CD",
"7 c #5497CC",
"8 c #5799CD",
"9 c #589ACE",
"0 c #5E9DCF",
"q c #5E9ED0",
"w c #69A4D3",
"e c #6BA5D3",
"r c #6EA7D4",
"t c #86B6DB",
"y c #87B6DC",
"u c #8FBBDE",
"i c #95BEE0",
"p c #ACCDE7",
"a c #AECEE7",
"s c #BBD6EB",
"d c #BDD7EC",
"f c #C2DAED",
"g c #CEE1F1",
"h c #CFE1F1",
"j c #DCEAF5",
"k c #E2EDF6",
"l c #ECF4FA",
"z c #F6FAFC",
"x c #F6FAFD",
"c c #FAFCFE",
"v c #FFFFFF",
"b c None",
/* pixels */
"b==============b",
"================",
"=======*========",
"=======*========",
"====4ytttttty3==",
"===@svvvvvvvvco=",
"==$o588q009jvko*",
"==rhhhd+===vvu&=",
"#@hzxxi*==evv2*=",
"&&o:;;><<>fvl ==",
"&&5vvvvvvvvvw*==",
"&&raaaaaaaa5$===",
"&-&#$@##@$$=*===",
"&---============",
"-*--============",
"b-*-===========b"
};
