/* XPM */
static char *graphic[] = {
/* width height num_colors chars_per_pixel */
"32 32 309 2", 
/* colors */
"   c None",
".  c #444444",
"X  c #474747",
"o  c #666666",
"O  c #888888",
"+  c None",
"@  c #AAAAAA",
"#  c None",
"$  c #CCCCCC",
"%  c #474747",
"&  c #EEEEEE",
"*  c #535353",
"=  c None",
"-  c #757575",
";  c #979797",
":  c #B9B9B9",
">  c #DBDBDB",
",  c #FDFDFD",
"<  c #626262",
"1  c #848484",
"2  c #A6A6A6",
"3  c #C8C8C8",
"4  c #EAEAEA",
"5  c #686868",
"6  c #737373",
"7  c #717171",
"8  c #939393",
"9  c #B5B5B5",
"0  c #D7D7D7",
"q  c #F9F9F9",
"w  c #3C3C3C",
"e  c #5E5E5E",
"r  c #808080",
"t  c #4E4E4E",
"y  c None",
"u  c #A2A2A2",
"i  c None",
"p  c #C4C4C4",
"a  c #E6E6E6",
"s  c #4B4B4B",
"d  c None",
"f  c None",
"g  c #6D6D6D",
"h  c #8F8F8F",
"j  c #B1B1B1",
"k  c #D3D3D3",
"l  c #F5F5F5",
"z  c None",
"x  c None",
"c  c #434343",
"v  c None",
"b  c #5A5A5A",
"n  c None",
"m  c #7C7C7C",
"M  c None",
"N  c #9E9E9E",
"B  c #C0C0C0",
"V  c None",
"C  c #E2E2E2",
"Z  c None",
"A  c #5C5C5C",
"S  c #474747",
"D  c None",
"F  c #696969",
"G  c #8B8B8B",
"H  c None",
"J  c #ADADAD",
"K  c #CFCFCF",
"L  c #4A4A4A",
"P  c #F1F1F1",
"I  c None",
"U  c #565656",
"Y  c #787878",
"T  c #9A9A9A",
"R  c #BCBCBC",
"E  c #3F3F3F",
"W  c #DEDEDE",
"Q  c #6F6F6F",
"!  c None",
"~  c #434343",
"^  c #656565",
"/  c None",
"(  c #878787",
")  c #A9A9A9",
"_  c #CBCBCB",
"`  c #EDEDED",
"'  c None",
"]  c #525252",
"[  c None",
"{  c None",
"}  c #747474",
"|  c #6B6B6B",
" . c #969696",
".. c #B8B8B8",
"X. c None",
"o. c #DADADA",
"O. c #515151",
"+. c None",
"@. c #FCFCFC",
"#. c None",
"$. c #3F3F3F",
"%. c #464646",
"&. c #616161",
"*. c #838383",
"=. c #A5A5A5",
"-. c #C7C7C7",
";. c #3B3B3B",
":. c None",
">. c #E9E9E9",
",. c #464646",
"<. c None",
"1. c #3B3B3B",
"2. c None",
"3. c #4E4E4E",
"4. c #707070",
"5. c #929292",
"6. c #676767",
"7. c #B4B4B4",
"8. c #424242",
"9. c #D6D6D6",
"0. c #F8F8F8",
"q. c #3B3B3B",
"w. c None",
"e. c None",
"r. c #5D5D5D",
"t. c None",
"y. c #7F7F7F",
"u. c None",
"i. c #A1A1A1",
"p. c #C3C3C3",
"a. c #E5E5E5",
"s. c None",
"d. c None",
"f. c None",
"g. c #373737",
"h. c None",
"j. c #4D4D4D",
"k. c #4A4A4A",
"l. c #6C6C6C",
"z. c #8E8E8E",
"x. c #424242",
"c. c None",
"v. c #B0B0B0",
"b. c #4D4D4D",
"n. c #D2D2D2",
"m. c None",
"M. c #F4F4F4",
"N. c #424242",
"B. c None",
"V. c #4D4D4D",
"C. c None",
"Z. c #7B7B7B",
"A. c #9D9D9D",
"S. c None",
"D. c #BFBFBF",
"F. c #E1E1E1",
"G. c None",
"H. c #636363",
"J. c None",
"K. c #424242",
"L. c #464646",
"P. c None",
"I. c None",
"U. c #686868",
"Y. c #8A8A8A",
"T. c #424242",
"R. c None",
"E. c #ACACAC",
"W. c #CECECE",
"Q. c None",
"!. c #424242",
"~. c #F0F0F0",
"^. c #555555",
"/. c #777777",
"(. c None",
"). c #999999",
"_. c None",
"`. c #BBBBBB",
"'. c #DDDDDD",
"]. c None",
"[. c #FFFFFF",
"{. c #424242",
"}. c None",
"|. c #868686",
" X c #A8A8A8",
".X c #CACACA",
"XX c #3E3E3E",
"oX c #ECECEC",
"OX c #454545",
"+X c #515151",
"@X c #737373",
"#X c #959595",
"$X c #B7B7B7",
"%X c #D9D9D9",
"&X c #454545",
"*X c #FBFBFB",
"=X c None",
"-X c None",
";X c #454545",
":X c #606060",
">X c #A4A4A4",
",X c #3A3A3A",
"<X c #C6C6C6",
"1X c #717171",
"2X c #E8E8E8",
"3X c #3A3A3A",
"4X c None",
"5X c None",
"6X c #4D4D4D",
"7X c #6F6F6F",
"8X c #919191",
"9X c #B3B3B3",
"0X c #4C4C4C",
"qX c None",
"wX c #D5D5D5",
"eX c #F7F7F7",
"rX c #4C4C4C",
"tX c #5C5C5C",
"yX c #A0A0A0",
"uX c #5E5E5E",
"iX c #C2C2C2",
"pX c #E4E4E4",
"aX c None",
"sX c #6D6D6D",
"dX c #494949",
"fX c None",
"gX c #6B6B6B",
"hX c #6D6D6D",
"jX c #8D8D8D",
"kX c #AFAFAF",
"lX c #D1D1D1",
"zX c None",
"xX c #F3F3F3",
"cX c None",
"vX c #454545",
"bX c #6D6D6D",
"nX c #585858",
"mX c #7A7A7A",
"MX c #414141",
"NX c #9C9C9C",
"BX c None",
"VX c #BEBEBE",
"CX c #E0E0E0",
"ZX c #414141",
"AX c #414141",
"SX c #676767",
"DX c #414141",
"FX c #898989",
"GX c #ABABAB",
"HX c #CDCDCD",
"JX c #EFEFEF",
"KX c None",
"LX c #545454",
"PX c #767676",
"IX c None",
"UX c #989898",
"YX c #BABABA",
"TX c #DCDCDC",
"RX c #FEFEFE",
"EX c #636363",
"WX c #858585",
"QX c #A7A7A7",
"!X c #C9C9C9",
"~X c #EBEBEB",
"^X c #3D3D3D",
"/X c #505050",
"(X c #727272",
")X c #696969",
"_X c #949494",
"`X c #B6B6B6",
"'X c None",
"]X c #D8D8D8",
"[X c #FAFAFA",
"{X c None",
"}X c #5F5F5F",
"|X c #818181",
" o c None",
".o c #A3A3A3",
"Xo c #C5C5C5",
"oo c #E7E7E7",
"Oo c #6E6E6E",
"+o c #909090",
"@o c #B2B2B2",
"#o c #D4D4D4",
"$o c #F6F6F6",
"%o c #5B5B5B",
"&o c #7D7D7D",
"*o c #9F9F9F",
"=o c #C1C1C1",
"-o c #E3E3E3",
";o c #656565",
":o c None",
">o c #484848",
",o c #6A6A6A",
"<o c #8C8C8C",
"1o c None",
"2o c #AEAEAE",
"3o c #353535",
"4o c #D0D0D0",
"5o c None",
"6o c #F2F2F2",
"7o c #444444",
"8o c #444444",
"9o c #575757",
"0o c #797979",
"qo c #707070",
"wo c #9B9B9B",
"eo c #BDBDBD",
"ro c #DFDFDF",
/* pixels */
"                      h.:o5ohXH.;osXc.:.].                      ",
"                  V fX% vX6XU e r.^.s 8oX 4XB.                  ",
"              P.A AXU |XQXB $ lXlX_ VX>X&o+XE uX+.              ",
"            m.;X* _X3 C P 0.*X[X[X@.0.& roXoh 6X8.v             ",
"          { ^XPX=oa.eXM.%X..u 8 8XwokX0 6oxXC VXg XX/           ",
"        d ~ G 9.~.eX<X5.|Xy.mXPXOo4.<oE.v.$ l ` lX|Xq.D         ",
"      H 1.Y.o.$oooA.h A. .r.+X+XnXF - YXTXiX@ >.6owX|Xg.s.      ",
"    I.,.- wXl ro; @ 2o=.mXm _ Xo-.K r =.XoyXg g a.P 4o,o%.KX    ",
"    bX+XB ~.oo*oeo9 2 GX@XkX$ p -.W (Xy.Y g 7Xr.F 4 4 YXS 1X    ",
"  <.DX8 pX$oGX..2o.o XJ gX_ !X$ k W.] Z.0o7 g r N j xXW O MXu.  ",
"  'XLX<X$o-.jXyXN >X@ ).} W W.#opXGXU y.&o_X..9.a D.n.JXB >ow.  ",
"h.b.y.rol 8X8XwoN yXQXZ.8 a ]XTX~.*.7 ) =ok 9.]XCX0 2 P o.(Xt d.",
"IX7o=.& o.&o#XUX.oE.7.7XYXooC oo>.L.F =.HXlX#o-.=.m :XW 2X).T._.",
"M s eoeX: O v.eoB eo@ogX'.>.~X6opX=.: /.3 @o5.PX,o,o9o..6o9X. Z ",
"Q.9o!X$o..3 k .XXop  .} $oJXM.0.[.[.).l.z.Z./.PX7XF gXGXl B dX+ ",
"Q tXW.M...wXwX.X7.Y +Xv.[.q , [.kX< tX|XWXr 0oPX( kXW.: ~.-.* 6.",
"qo%oHXM.: $ 7..o} &ooX[.RX, RXJX* &o_X<o*.1  .7.K o.wX..~.<X] 5 ",
"R.U 3 0.2oG 5.T U.-.W *X*XeX@.3 :XA.8X+oA.7.p.3 W.0 Xo..P D.>oJ.",
"! >o`.$o`.r _X_XFXEX,oRXxX~.*X_X&.8X8 yX) J @oeo$XUXEX: P j {.# ",
"e.!.i.oXTXy.i.`X.X( QX*XoX>.$o|X%o4.(X@X} /.PX%oF F }Xrooo .AXy ",
"= j.mX'.6oGX0 0 #oy.HXJXa -oa.oo-oroW TXo.]XF.tXo ^ O $o0 l.O.}.",
"  2.3.iX6o4oeoC iXY & 4 oopXCXW TX]X9.k 4olX$ dXy.Z.K & `.. f   ",
"  X.K.<oCXM.2o; ^ SX4op =oB =o=oB D.VXVXR iXY.mX_ YXxX> r c z   ",
"    6 dX`.~X4 F U dX$.k.}Xg g F SX^ :Xb e F mXB @o>.a 7.{.#.    ",
"    =X&XgXK 6oa 7 (XJ 3 4o!XiXVX@ou UXN J eo$X2 pX4 _ e V.n     ",
"       o3Xy.wX~.~X@op 0 wXW.YXwo( |.5.A.*o .@ 4 ~X4o@X;.I       ",
"        G.w y.4o~Xl K @o Xr < EXOo/.&o*.NX4oxXa _ @X3of.        ",
"          aX,XU.: CX~.6oo.7.*o .T  XD.W xX& TX7.e DXcX          ",
"            i OX>o( D.> 4 xX0.0.eX$oP 2X%X`.r . L 5X            ",
"              S.[ N.dX4.UX9X=o-.-.B j #Xl.L.x.' C.              ",
"                  (.BXrXK.~ >o/X/X>o~ ZX0X{Xx                   ",
"                        zXqXt.)X| w.-X1o                        "
};
