/* XPM */
static char *bitcoin__[] = {
/* columns rows colors chars-per-pixel */
"64 64 165 2 ",
"   c None",
".  c #9D7809",
"X  c #A47A02",
"o  c #AA7F01",
"O  c #A47D0C",
"+  c #A07E1D",
"@  c #AE8300",
"#  c #AE850A",
"$  c #B38502",
"%  c #B78800",
"&  c #BB8B00",
"*  c #B48A0B",
"=  c #BF930B",
"-  c #A3811E",
";  c #AA881F",
":  c #B58E15",
">  c #B99014",
",  c #B6901D",
"<  c #BB941B",
"1  c #A18121",
"2  c #AC8A23",
"3  c #BF9925",
"4  c #BD992A",
"5  c #A88B35",
"6  c #AB8E3A",
"7  c #AE9035",
"8  c #B19133",
"9  c #B99939",
"0  c #C08F00",
"q  c #C49200",
"w  c #C99600",
"e  c #CE9900",
"r  c #C6980B",
"t  c #CD9D0B",
"y  c #D49E00",
"u  c #CC9F18",
"i  c #D7A102",
"p  c #DBA400",
"a  c #D6A30B",
"s  c #D9A712",
"d  c #E1A700",
"f  c #E4AB00",
"g  c #E9AD00",
"h  c #E0A909",
"j  c #EDB100",
"k  c #F3B600",
"l  c #F6B900",
"z  c #FEBE00",
"x  c #F0B70C",
"c  c #F5BB0C",
"v  c #E5AF11",
"b  c #E6B110",
"n  c #F4BD18",
"m  c #C89F22",
"M  c #D1A520",
"N  c #D9AE2D",
"B  c #DEB027",
"V  c #E4B52A",
"C  c #F1BE27",
"Z  c #ECBD31",
"A  c #FFC000",
"S  c #FFC800",
"D  c #FFC20B",
"F  c #FEC311",
"G  c #FFC71D",
"H  c #FEC822",
"J  c #FFCA2C",
"K  c #F8C323",
"L  c #FDCB34",
"P  c #FFCE3A",
"I  c #B1974A",
"U  c #B59B4D",
"Y  c #B89E4E",
"T  c #B59B50",
"R  c #BFA040",
"E  c #BAA35D",
"W  c #BEAA6C",
"Q  c #D1AD41",
"!  c #DEBA4E",
"~  c #C5A851",
"^  c #C9AD57",
"/  c #C6AC5F",
"(  c #D9BA5D",
")  c #E0B941",
"_  c #CBB36C",
"`  c #D7BB67",
"'  c #D3BA6E",
"]  c #C3AF71",
"[  c #C5B37B",
"{  c #CEBB7F",
"}  c #F0C545",
"|  c #FECF45",
" . c #FFD148",
".. c #E9C452",
"X. c #FBD254",
"o. c #F6D15D",
"O. c #FDD65D",
"+. c #E3C468",
"@. c #FFD761",
"#. c #FFD965",
"$. c #F7D46C",
"%. c #FFDA6A",
"&. c #FDDB73",
"*. c #FFDE7A",
"=. c #C8B785",
"-. c #CCBC8B",
";. c #D5C48D",
":. c #D5C594",
">. c #D9C790",
",. c #D4C69F",
"<. c #D9C999",
"1. c #E0C984",
"2. c #E4CE8A",
"3. c #FDDE81",
"4. c #EED794",
"5. c #E2D09D",
"6. c #EAD69A",
"7. c #F7DE92",
"8. c #FFE184",
"9. c #FFE28B",
"0. c #FFE493",
"q. c #FFE69E",
"w. c #DACEAA",
"e. c #D9CBA2",
"r. c #DFD2AC",
"t. c #DDD2B0",
"y. c #DFD6BA",
"u. c #E6D5A3",
"i. c #F2DFA4",
"p. c #E1D9BE",
"a. c #F8E2A0",
"s. c #FFEBAF",
"d. c #EFE2BB",
"f. c #F5E5B4",
"g. c #FEEBB4",
"h. c #F9E9B8",
"j. c #E4DCC3",
"k. c #E8DEC0",
"l. c #EBE0C1",
"z. c #EAE3CD",
"x. c #FDEFC5",
"c. c #F9EECC",
"v. c #FFF0C3",
"b. c #FCF0CD",
"n. c #ECE5D4",
"m. c #EFEADD",
"M. c #F5EDD3",
"N. c #F2EDDE",
"B. c #FFF4D4",
"V. c #F6F0DE",
"C. c #FFF6DC",
"Z. c #FAF4E0",
"A. c #FFF8E1",
"S. c #F5F2EB",
"D. c #F9F6EC",
"F. c #FEF9EC",
"G. c #F6F4F0",
"H. c #F8F6F1",
"J. c #FFFCF6",
"K. c #FCFAF4",
"L. c #FFFDFA",
"P. c white",
"I. c #FEFFFF",
"U. c #FEFEFD",
"Y. c #FFFFFF",
/* pixels */
"                                                                                                                                ",
"                                                                                                                                ",
"                                                A A A A S S S S S S S A A A S                                                   ",
"                                          S A S S S A A A A z A A A z A A A S S A A S                                           ",
"                                      S S S A A A A A A A A A A A A z A A A A A A S S A S                                       ",
"                                  S S A z A A A A A A z z A A A A A A A A A A A A z z A S A S                                   ",
"                              A S A A A z A A A z A A A A A A A A z A A A A z A A A A z z z S A                                 ",
"                            S S A A z A A A z A A A A A A A A z A A A A z A A A A A A A A A A A S S                             ",
"                        A S A A A A z A A A A A z A A A A A A z A A z A A A z A A A z A z A A A A S A                           ",
"                      A S A A A A A A A z A A A A A A A A A A A A A A A A A A A A A A A A A A A z z S S                         ",
"                    S S A A A A A A A A A A A A A A A z z A A A A A A A A A A A A A A A A A A A A A A A S                       ",
"                  A S z A A A A z A A A A A A z A A A A A A A A A A z A z A A A A A z A A A z A A A A z A S                     ",
"                A S z A z A A A A A A A A A A A A A A A z z z D D D z z z A z A A A z A A A A A A z A A z A S                   ",
"              A S A A A A A z A A A A z A z A A z A z z J *.g.C.C.C.v.q.O.F z D A z A A A A A z A A A A A A A A                 ",
"              S A A A A A A A A A z A A A A A A z A  .g.J.P.P.P.P.P.P.P.P.C.$.z z A A A A A A A A A A A A A A S A               ",
"            A A A A A A z A A A A A A z A A A z L g.P.P.P.P.P.P.P.P.P.P.P.P.P.h.n z A A z A A A A A A z A A z A S               ",
"          z S A A z A A A A A A z A A A z z z &.K.P.P.P.P.P.P.P.P.P.P.P.P.P.P.P.c.C z z A A A A A A A A A A A A A A             ",
"          S A A A A A A A z A A A A A A A D 0.P.P.P.P.P.P.P.P.P.P.P.P.P.P.P.P.P.P.Z.Z z A z A A z A A A z A A A A S A           ",
"        A S A z A A A A A A A A A z A A D q.P.P.P.P.P.P.P.P.P.P.P.P.P.P.P.P.P.P.P.P.M.b z A A A A A z A A A z A A A S           ",
"        A A A A A z A A A A z A A A A z 9.P.P.P.P.P.P.P.P.S.,.U 5 9 _ z.P.P.P.P.P.P.P.2.j A z A z A A A A A A A A A S z         ",
"      A S A A A A A A A A A A A A A z %.P.P.P.P.P.P.P.H.=.- o w f g d a 6.P.P.P.P.P.P.H.N l A A A A A A A A A A A A A A         ",
"      A A A A A A A z A A A z A A z J J.P.P.P.P.P.P.n.5 X y k z A A A z j 4.P.P.P.P.P.P.5.f A A A A z A A A A A A A z S A       ",
"      S A A A A z A A A A A A A A D v.P.P.P.P.P.P.z.+ % j A A A A A A A A k f.P.P.P.P.P.H.M l A A A A A z A A z A A A S A       ",
"    A S A A A z A A A A z A A z z %.P.P.P.P.P.P.m.1 & l A A A A A A A A A z L J.P.P.P.P.P.' g A A z A A A A A A A z A A A       ",
"    A A z A A A A A A A A A A A D C.P.P.P.P.P.H.6 $ k A A A z A A z A z A A z g.P.P.P.P.P.r.y z A A A A z A A A A A A A S       ",
"    S A A A A A z A A A A A A z %.P.P.P.P.P.P.[ X j A A A A A A A A A A A A z X.P.P.P.P.P.m.r z A z A A A A A A A A A z S A     ",
"    S z A A z A A A z A A z A z 9.P.P.P.P.P.z.. p A A A A A A A A A z A z A z H K.P.P.P.P.H.m k A A A A A A A z A A A A A A     ",
"  A S A A A A A z A A A A A A A q.P.P.P.P.P.E $ l A A A z A A A A A A A A A A D C.P.P.P.P.P.Y g A A z A A A A A z A A A A A     ",
"  A S z z A A A A A A A A A z #.P.P.P.P.P.n.O f A A A z A A z A z A A A A A A z g.P.P.P.P.P./ f A A A A A A z A A A z A A A     ",
"  A S A A A A A A A z A A A z s.P.P.P.P.P.-.$ l A A A A A A A A A A A A A A z z 0.P.P.P.P.P.{ y A A A A A A A A A A A A A S     ",
"  A A A z A A z A A A A z A D C.P.P.P.P.P.U e A A A A A A A A A A A A z A A A z *.P.P.P.P.P.e.e A A A z A A A A A A A A A S     ",
"  A A A A A A A A z A A A z G J.P.P.P.P.H.2 f A A A A A A z A A A A A A A z A z @.P.P.P.P.P.t.q z A A A z A A A A z A A A S     ",
"  A A z A A A A A A A A A A J L.P.P.P.P.m.# k A A A A A A z A A A z A A A A z z #.P.P.P.P.P.w.& A A A A A A A z A A A A A S     ",
"  A A A A z A A A A z A A A J L.P.P.P.P.m.* l A A z A A A A A A A A z A A A A z 3.P.P.P.P.P.:.0 A A A z A z A A A A z A A S     ",
"  A A A A A A A A A A A A z J J.P.P.P.P.m.* l A A A A A A A A A A A A A A A A z g.P.P.P.P.P.] w A z A A A A A z A A A A z S     ",
"  A S A z A z A A z A A A z H J.P.P.P.P.D.> l A z A A z A A A A A z A A A A A D A.P.P.P.P.P.Y y A A A A A A A A A z A A z S     ",
"  A S A z A A A A A A z A z F A.P.P.P.P.K.4 k A A A A A A A A z A G z A z A z P P.P.P.P.P.H.2 f A A A A A A A A A A A A A A     ",
"  A S A A A A A A A A A A A D B.P.P.P.P.P.~ f A A A A z A A z L g.F.$.k A A z 8.P.P.P.P.P.j.@ k A A A z z A A A A z A A A A     ",
"    S A A A A A A A A A A z A g.P.P.P.P.P.;.p A A z A A A z O.K.P.P.L...l z F C.P.P.P.P.P.[ & l A A A A A A A A A A A A S A     ",
"    A A A A z A A z A A A A z &.P.P.P.P.P.m.t z A A A A z  .L.P.P.P.P.D.V z %.P.P.P.P.P.P.7 y A A A A A A A A z z A z A S A     ",
"    z S z A A A A A A A A A z L L.P.P.P.P.P.` j A A A A z O.P.P.P.P.P.P.d.v B.P.P.P.P.P.j.O j A A A A A A A A z A A A A S       ",
"    z S z A A A A A z A A A A z x.P.P.P.P.P.N.s z A A A A z h.P.P.P.P.P.P.d.P.P.P.P.P.P.T & l S z A A z A A A A A A z A z       ",
"      S A A z A z A A A A A A z O.I.I.P.P.P.P.>.g A A A A A K S.P.P.P.P.P.P.P.P.P.P.P.j.X g A A A A A A A z A A A z A S A       ",
"      A A A A A A A A A z A A A D B.P.P.P.P.L.K.) l A A A A z @.P.P.P.P.P.P.P.P.P.P.L.I 0 l A A A A A A A A A A A A A S         ",
"        S z A A A A A z z A A A z X.P.P.P.P.P.P.V.Z l A A A A l a.P.P.P.P.P.P.P.P.P.w.. g A A A A A A A A A A A A z S A         ",
"        A S A A A z A A A A A A z z 7.P.P.P.P.P.P.F.$.c z z A z c c.P.P.P.P.P.P.P.m.- w l A A A A z A A A A A z A z S           ",
"          S z A A A A z A A A z z A c f.P.P.P.P.P.P.P.b.3.| J G H } M.P.P.P.P.P.P.p.$ k A A A z A A A z A z A z A S A           ",
"          z S A A A A A A A A A A A z x f.P.P.P.P.P.P.P.P.P.J.J.J.L.L.P.P.P.P.P.P.P.( k S z A A A A A A A A A z z S             ",
"            S z A A A z A A A A A A A z x 4.P.P.P.P.P.P.P.P.P.P.P.P.P.P.P.P.P.P.P.P.p.i z A A A z A A A A z A A S A             ",
"            z S A A A A A A A z A A z A A j ! l.P.P.P.P.P.P.P.G.m.S.y.U <.P.P.P.P.P.K.m l A A A A A z A A A A A A               ",
"              A S A A A A z A A z A A A A A k p Q >.j.m.G.S.N.W O : @ & a a.P.P.P.P.P.^ g A A A z A A A A A A S                 ",
"                A A A A A A A A A A A A A A A A k p w = < : # $ p k l z z k +.D.P.P.P.:.p A A z A A A A A A S A                 ",
"                  S A z A A z A A A A z z A A A A A A l l k k l A A A A A A k B u.S.G.E w A A A A A A A A S A                   ",
"                    S A A A A A A z A A A A A A A A A A A A A A A A A A A A A z f u , $ g A A A A A z z S A                     ",
"                      S A A A A A A A z A A z A A A A A A A A A z A A A A A A A A l k k z A A A A A A S A                       ",
"                        S S z A A A A A A A A A A A A z A A A A A A A A A A A A A A A A A A A A z A S S                         ",
"                          S S z z A A z A A A A A A A A A z A A A A A A A z A A A A A A z A A A S S                             ",
"                            A A S A A A A A A A A z A A A A A A A A A z A A A A A A A A A A A S A                               ",
"                                A S S z A z A z A A A A A A z A A A A A A A A A A A z z A S S A                                 ",
"                                    A S S A A A z A z A A A A A z A A A A A A z A A A S S A                                     ",
"                                        S A S S A A z A z z A A A z A A A z A S S S A S                                         ",
"                                              S A S S S S S S A S S S S S S A z A                                               ",
"                                                      A A A A A z A A A                                                         ",
"                                                                                                                                "
};
