/* XPM */
static char *crowncoin__[] = {
/* columns rows colors chars-per-pixel */
"32 32 197 2",
"   c #010100",
".  c #090601",
"X  c #0B0A05",
"o  c #040509",
"O  c #07080B",
"+  c #0B0B0C",
"@  c #140E02",
"#  c #100F0E",
"$  c #141106",
"%  c #1E1503",
"&  c #141309",
"*  c #1A160B",
"=  c #1C190C",
"-  c #0E0E11",
";  c #131313",
":  c #1D1A14",
">  c #16171B",
",  c #1B1B1C",
"<  c #221804",
"1  c #2A1D03",
"2  c #211B0C",
"3  c #231D12",
"4  c #201E1B",
"5  c #2B220C",
"6  c #342504",
"7  c #382805",
"8  c #33260B",
"9  c #382C0B",
"0  c #3F3009",
"q  c #252115",
"w  c #292314",
"e  c #2E2917",
"r  c #242119",
"t  c #29241A",
"y  c #332A11",
"u  c #332D18",
"i  c #3C3112",
"p  c #1C1D21",
"a  c #232324",
"s  c #2B2925",
"d  c #262629",
"f  c #2B2B2B",
"g  c #302F2E",
"h  c #333124",
"j  c #393423",
"k  c #3E3A25",
"l  c #34312B",
"z  c #3B392E",
"x  c #2F2F30",
"c  c #3C3931",
"v  c #422F07",
"b  c #48370E",
"n  c #553A04",
"m  c #533E0F",
"M  c #583F08",
"N  c #473714",
"B  c #453B17",
"V  c #4C3D16",
"C  c #493D1F",
"Z  c #443B22",
"A  c #423F33",
"S  c #5F4814",
"D  c #59471B",
"F  c #634508",
"G  c #6B4F0E",
"H  c #6E510C",
"J  c #755209",
"K  c #644A14",
"L  c #634E18",
"P  c #6E5415",
"I  c #6B541E",
"U  c #705314",
"Y  c #7E5E14",
"T  c #76601D",
"R  c #4A4326",
"E  c #524523",
"W  c #5C4F2E",
"Q  c #5E5524",
"!  c #504C3D",
"~  c #57533C",
"^  c #5F593C",
"/  c #634D22",
"(  c #6D5420",
")  c #655B26",
"_  c #6C5C2F",
"`  c #755D2A",
"'  c #605936",
"]  c #615C3D",
"[  c #74602D",
"{  c #7A622D",
"}  c #6D6334",
"|  c #746532",
" . c #786531",
".. c #5D594B",
"X. c #7E7243",
"o. c #6C6754",
"O. c #7E775F",
"+. c #845F1E",
"@. c #8E621C",
"#. c #94761F",
"$. c #A27A15",
"%. c #8C6D24",
"&. c #876D2D",
"*. c #82702E",
"=. c #957428",
"-. c #846C33",
";. c #886E31",
":. c #87703E",
">. c #927733",
",. c #9C7534",
"<. c #9F7B36",
"1. c #90793F",
"2. c #9A7E3F",
"3. c #A37F28",
"4. c #867A40",
"5. c #8D7845",
"6. c #857B48",
"7. c #8F7A48",
"8. c #957E46",
"9. c #937D50",
"0. c #91823B",
"q. c #BE882E",
"w. c #A79339",
"e. c #AE9B3D",
"r. c #CFA225",
"t. c #D6AC35",
"y. c #918440",
"u. c #938748",
"i. c #978253",
"p. c #9B8B52",
"a. c #9A8A5A",
"s. c #AB9443",
"d. c #AB964F",
"f. c #A28A51",
"g. c #AB9553",
"h. c #A79954",
"j. c #A7955C",
"k. c #AC995C",
"l. c #B09D5E",
"z. c #9D9374",
"x. c #9F9679",
"c. c #AA9764",
"v. c #AA976B",
"b. c #B29D64",
"n. c #B29E6E",
"m. c #A39671",
"M. c #A79B78",
"N. c #B29E74",
"B. c #A8A16C",
"V. c #BAA769",
"C. c #AFA37B",
"Z. c #BBA977",
"A. c #C0AC46",
"S. c #DDAA49",
"D. c #C3AF5A",
"F. c #C9B653",
"G. c #D4B75E",
"H. c #C8B36A",
"J. c #CFBB6B",
"K. c #D0BE65",
"L. c #D2BD6B",
"P. c #C3AF7D",
"I. c #C8B57C",
"U. c #D2BF7A",
"Y. c #E6BC63",
"T. c #DDC855",
"R. c #E5C25C",
"E. c #F4DD5E",
"W. c #FAE15C",
"Q. c #DDC276",
"!. c #E0C860",
"~. c #F4DB61",
"^. c #F0D368",
"/. c #EBD670",
"(. c #ACA487",
"). c #B2A78A",
"_. c #B6AB8E",
"`. c #B7AD90",
"'. c #C1AF81",
"]. c #C5B381",
"[. c #CFBC85",
"{. c #C3B899",
"}. c #CABFA0",
"|. c #CDC28B",
" X c #F2D58B",
".X c #E1C995",
"XX c #FEEC83",
"oX c #D0C7A9",
"OX c #DED5B3",
"+X c #E9DBAD",
"@X c #EADFB6",
"#X c #ECE2B9",
"$X c #E9DFC1",
"%X c #F5EDCE",
"&X c #FEF3D3",
"*X c #FFFDDF",
"=X c None",
/* pixels */
"=X=X=X=X=X=X=X=X=X=X=X=Xb.c.M.z.x.).oX%X=X=X=X=X=X=X=X=X=X=X=X=X",
"=X=X=X=X=X=X=X=X=Xc.[ 9 @           o r ..(.=X=X=X=X=X=X=X=X=X=X",
"=X=X=X=X=X=X=X=Xm @                         * _ =X=X=X=X=X=X=X=X",
"=X=X=X=X=X=X` %                         .       % 7.=X=X=X=X=X=X",
"=X=X=X=X=X` .                                     . | =X=X=X=X=X",
"=X=X=X=Xj.X                                           a.=X=X=X=X",
"=X=X=X].2                                             * +X=X=X=X",
"=X=X=XZ                                                 ..=X=X=X",
"=X=X{               & =               . &             .   m.=X=X",
"=Xn.<               5 )               $ B             2   w +X=X",
"=X/   * @           y A..     k q     b K   .       $ T     C.=X",
"=X6   @ N           B W.Q     B.6.  $ 3.P           #.U     o.=X",
"i.<     S y     X   &.~.T.B ; |.K.2  .R U .       [ r.6     l &X",
"8.@     @ %.:     = G.!.E.w.1.^ u.D.# o V i     &.t.$.@     & OX",
"8..       8 =.E Z P. X^.F.} 0.> h /.p.+ o y 2 d.R.L H         {.",
"p.        o % Y Q.&X.Xg.^ } g a p ] XXL.{ +.Y.Q.k * M         `.",
"j.o       . o O : c l r s d l a d a ~ J.S.q.:.: o 8 7         `.",
"l.X       o . # O + - 4 p f f , a g > p w , o O O 5 %       o }.",
"V.=       . X + + ; ; ; , f f ; f f a a - ; # + - 2 .       : @X",
"|.Z         < + X + ; ; , 4 d > , f , ; : ; + X - X       o c *X",
"=X4.        1 5   + + - + , a - ; d ; + - - O o +       o   O.=X",
"=Xk..       @ F @ t s s w h c * 4 z q 3 3 3 r = =           a.=X",
"=XZ.9       . n J 2.).N.s.e.0.} } h.d.<.@.,.f.>.G         < n.=X",
"=X=XP O                         .                         I =X=X",
"=X=Xm.6 o                                               v =X=X=X",
"=X=X=X-.<                                         .   j [.=X=X=X",
"=X=X=X=X&.u                                       o g @X=X=X=X=X",
"=X=X=X=X=XH.R                                 .   R #X=X=X=X=X=X",
"=X=X=X=X=X=XQ._ X   X $               . * .     W @X=X=X=X=X=X=X",
"=X=X=X=X=X=X=X_.;.8 $ & * * * $ $ & & * & . y 5.=X=X=X=X=X=X=X=X",
"=X=X=X=X=X=X=X=X=Xi.I v 1 = * $ $ * = 9 D 1.P.=X=X=X=X=X=X=X=X=X",
"=X=X=X=X=X=X=X=X=X=X=X=X9.` K K P ;.g.I.=X=X=X=X=X=X=X=X=X=X=X=X"
};
