/* XPM */
static char *bitcoin16[] = {
/* columns rows colors chars-per-pixel */
"16 16 101 2 ",
"   c #4A3016",
".  c #5A3612",
"X  c #5B3813",
"o  c #5A3E22",
"O  c #7A4717",
"+  c #774718",
"@  c #7A4A1D",
"#  c #7A4C1F",
"$  c #5D452D",
"%  c #6A4B2C",
"&  c #734920",
"*  c #764B23",
"=  c #7A4D21",
"-  c #7A4E21",
";  c #784D25",
":  c #72502B",
">  c #7D562F",
",  c #775136",
"<  c #88501C",
"1  c #88541F",
"2  c #825123",
"3  c #835727",
"4  c #855424",
"5  c #895525",
"6  c #895626",
"7  c #8D5823",
"8  c #80542A",
"9  c #80552A",
"0  c #895728",
"q  c #835929",
"w  c #83592D",
"e  c #8A5A2A",
"r  c #89592D",
"t  c #905B2B",
"y  c #935F2F",
"u  c #8D5F36",
"i  c #825C3C",
"p  c #885F3B",
"a  c #956125",
"s  c #926128",
"d  c #9A6529",
"f  c #8D6332",
"g  c #8F6B34",
"h  c #88613B",
"j  c #8B643F",
"k  c #9C6735",
"l  c #95683C",
"z  c #9E6B38",
"x  c #98693D",
"c  c #A06F2A",
"v  c #AD7C2E",
"b  c #A06C38",
"n  c #A6733A",
"m  c #9F754D",
"M  c #8F6F50",
"N  c #A0734A",
"B  c #B2802E",
"V  c #B58130",
"C  c #B48230",
"Z  c #B08036",
"A  c #B58A3A",
"S  c #C38F31",
"D  c #C59035",
"F  c #C49336",
"G  c #C79237",
"H  c #CA9B35",
"J  c #C1953F",
"K  c #C2973E",
"L  c #CF9D3B",
"P  c #D19D3B",
"I  c #D09F3C",
"U  c #D8A63B",
"Y  c #BF9141",
"T  c #BB964E",
"R  c #A88565",
"E  c #B58C62",
"W  c #B68C64",
"Q  c #B7906E",
"!  c #C99C43",
"~  c #C8A24B",
"^  c #DBAD45",
"/  c #D6AB49",
"(  c #CFAC52",
")  c #C1A75B",
"_  c #DDBB5F",
"`  c #E0AF44",
"'  c #E4B447",
"]  c #E0B74E",
"[  c #C09C71",
"{  c #C09B74",
"}  c #CFAD73",
"|  c #E3BD69",
" . c #E7C65E",
".. c #D2AB83",
"X. c #DEBE84",
"o. c #D0B191",
"O. c #DABE9A",
"+. c #EAC782",
"@. c #E8C9A1",
"#. c #E1CCAF",
"$. c None",
/* pixels */
"$.$.$.$.$.$.$.$.$.$.$.$.$.$.$.$.",
"$.$.$.$.$.$.$.$.$.u $.$.$.$.$.$.",
"$.$.$.$.$.$.$.5 @ - $.$.$.$.$.$.",
"$.$.$.$.$.$.$.- + 9 M $.$.$.$.$.",
"$.$.$.$.$.$.$.M { ..R $.$.$.$.$.",
"$.$.$.$.$.$.$.z @.o.W p $.$.$.$.",
"$.$.$.$.$.$.2 z O.#.Q 0 $.$.$.$.",
"$.$.$.$.$.: < l X.+.} - h $.$.$.",
"$.$.$.z n r @ t Y H c - $.$.$.$.",
"$.$.> < 2 - 5 N q q , m $.$.$.$.",
"$.$.$ X X - y { ! U | W r $.$.$.",
"$.$.$.$.  7 z C S L ! T , $.$.$.",
"$.$.$.$.o 2 d G v D A _ $.$.$.$.",
"$.$.$.$.$.& a I v ^ ! ( g $.$.$.",
"$.$.$.$.$.% s G C ' / ~ ) $.$.$.",
"$.$.$.$.$.$.f v U ^ ]  .$.$.$.$."
};
