/* XPM */
static char *bitcoin32[] = {
/* columns rows colors chars-per-pixel */
"32 32 191 2 ",
"   c #272018",
".  c #31281D",
"X  c #512B0F",
"o  c #59330C",
"O  c #412C17",
"+  c #4E3318",
"@  c #553413",
"#  c #5E3A14",
"$  c #5F3E1D",
"%  c #653C13",
"&  c #633F18",
"*  c #6A3F17",
"=  c #5A3D20",
"-  c #5E401E",
";  c #6F4112",
":  c #6C441C",
">  c #66431F",
",  c #734517",
"<  c #724519",
"1  c #75481B",
"2  c #7A4A1A",
"3  c #594126",
"4  c #5B4A39",
"5  c #674726",
"6  c #6C4C2C",
"7  c #6A4724",
"8  c #724B23",
"9  c #7C4E22",
"0  c #724E28",
"q  c #7F5023",
"w  c #7C522C",
"e  c #75512E",
"r  c #624A30",
"t  c #704F30",
"y  c #6B5339",
"u  c #7B5634",
"i  c #7F5832",
"p  c #7D5938",
"a  c #7A573A",
"s  c #6B5D4F",
"d  c #7B5D41",
"f  c #706457",
"g  c #814F1D",
"h  c #83511E",
"j  c #8B541E",
"k  c #845323",
"l  c #8B5522",
"z  c #8B5923",
"x  c #82562A",
"c  c #845A2D",
"v  c #8B5B2B",
"b  c #865924",
"n  c #945A24",
"m  c #925B28",
"M  c #995E2B",
"N  c #985B26",
"B  c #835B34",
"V  c #8E5E34",
"C  c #815736",
"Z  c #926227",
"A  c #9B6B27",
"S  c #94612B",
"D  c #9B642D",
"F  c #9A6B2B",
"G  c #8E6234",
"H  c #84613E",
"J  c #8C633B",
"K  c #946133",
"L  c #9A6633",
"P  c #9C6D36",
"I  c #94663D",
"U  c #9B6A3D",
"Y  c #946A3C",
"T  c #987134",
"R  c #A36C2C",
"E  c #A5732B",
"W  c #AD7B2E",
"Q  c #B27D2F",
"!  c #A36B32",
"~  c #A36B39",
"^  c #A67830",
"/  c #A67039",
"(  c #AF7438",
")  c #AB7C3D",
"_  c #A87833",
"`  c #8E6947",
"'  c #886747",
"]  c #936A42",
"[  c #9C6D41",
"{  c #9C734E",
"}  c #9F7144",
"|  c #846C56",
" . c #987353",
".. c #A27347",
"X. c #A77549",
"o. c #A97B46",
"O. c #A67B55",
"+. c #B1802F",
"@. c #AA813D",
"#. c #B68530",
"$. c #BA8632",
"%. c #BD8934",
"&. c #B58838",
"*. c #B58833",
"=. c #BE943F",
"-. c #C28E35",
";. c #C39237",
":. c #C59B3B",
">. c #CD9C3B",
",. c #C89938",
"<. c #D29D3A",
"1. c #D3A23C",
"2. c #DAA63C",
"3. c #DCA83E",
"4. c #D6A93A",
"5. c #E1AB3B",
"6. c #A78549",
"7. c #BF9947",
"8. c #BA9141",
"9. c #AC825C",
"0. c #BD9659",
"q. c #A98868",
"w. c #A28364",
"e. c #BE9265",
"r. c #B2906F",
"t. c #BB936E",
"y. c #B79775",
"u. c #BE9A76",
"i. c #B9A07E",
"p. c #C89F47",
"a. c #C79D45",
"s. c #C9A34B",
"d. c #DEAD42",
"f. c #D3A440",
"g. c #D7B04F",
"h. c #DCB04B",
"j. c #C5AA5B",
"k. c #CCA858",
"l. c #C5A155",
"z. c #D8AE57",
"x. c #D2AD5B",
"c. c #CFB55D",
"v. c #DAB859",
"b. c #E5B243",
"n. c #ECB945",
"m. c #E9BA4C",
"M. c #E5B84C",
"N. c #E0B754",
"B. c #E6BC52",
"V. c #C09F67",
"C. c #C39B77",
"Z. c #CAA660",
"A. c #C7A07B",
"S. c #C9A47A",
"D. c #F5C148",
"F. c #EBC358",
"G. c #F0C757",
"H. c #F0C859",
"J. c #F8CF5B",
"K. c #E7C661",
"L. c #EDCB60",
"P. c #F3CF62",
"I. c #F0D066",
"U. c #FEDF6F",
"Y. c #F0D169",
"T. c #FFE06E",
"R. c #FFEC74",
"E. c #C19F86",
"W. c #CCA783",
"Q. c #C7A986",
"!. c #CDAA86",
"~. c #D2AE89",
"^. c #DBB78F",
"/. c #D4B387",
"(. c #C8AD91",
"). c #C6B199",
"_. c #D9B791",
"`. c #D4B897",
"'. c #DABC9C",
"]. c #DDC399",
"[. c #E3C18C",
"{. c #EAC89F",
"}. c #E3CA9F",
"|. c #DCC8B1",
" X c #E6CFAB",
".X c #E9CAA3",
"XX c #EED3AB",
"oX c #F4D6A5",
"OX c #EED8B1",
"+X c #F7DBB4",
"@X c None",
/* pixels */
"@X@X@X@X@X@X@X@X@X@X@X@X@X@X@X@X@X@X@X@X@X@X@X@X@X@X@X@X@X@X@X@X",
"@X@X@X@X@X@X@X@X@X@X@X@X@X@X@X@X@X@X@X@X@X@X@X@X@X@X@X@X@X@X@X@X",
"@X@X@X@X@X@X@X@X@X@X@X@X@X@X@X@X@X@X@XU ] @X@X@X@X@X@X@X@X@X@X@X",
"@X@X@X@X@X@X@X@X@X@X@X@X@X .C @X@X@X@XL I @X@X@X@X@X@X@X@X@X@X@X",
"@X@X@X@X@X@X@X@X@X@X@X@X@X8 K v w k 8 v c @X@X@X@X@X@X@X@X@X@X@X",
"@X@X@X@X@X@X@X@X@X@X@X@X@X5 k n 2 2 , 9 J @X@X@X@X@X@X@X@X@X@X@X",
"@X@X@X@X@X@X@X@X@X@X@X@X@Xf 8 j , , % 1  .@X@X@X@X@X@X@X@X@X@X@X",
"@X@X@X@X@X@X@X@X@X@X@X@X@X@Xc I k 2 c V ` @X@X@X@X@X@X@X@X@X@X@X",
"@X@X@X@X@X@X@X@X@X@X@X@X@X@X~ 4 [ V.S.S.C.| @X@X@X@X@X@X@X@X@X@X",
"@X@X@X@X@X@X@X@X@X@X@X@X@X@Xc 9.W..X_.S.W.{ @X@X@X@X@X@X@X@X@X@X",
"@X@X@X@X@X@X@X@X@X@X@X@X@Xw 9 9._..XQ.y._.O.C @X@X@X@X@X@X@X@X@X",
"@X@X@X@X@X@X@X@X@X@X@X@X@Xc N X._.+X'.E.^.O.K | @X@X@X@X@X@X@X@X",
"@X@X@X@X@X@X@X@X@X@X@X@X- k ! } (.+Xi.).C.K m [ @X@X@X@X@X@X@X@X",
"@X@X@X@X@X@X@X@X@X@X@X@X8 N D Y `.oX.XOX|.X.h 2  .@X@X@X@X@X@X@X",
"@X@X@X@X@X@X@X@X@X@X@X5 g N Z Y !.oXXXXX XC.* * U @X@X@X@X@X@X@X",
"@X@X@X@X@X@X@Xp J J ' : N l , O.[.x.z.Z.1.V.u , ] @X@X@X@X@X@X@X",
"@X@X@X@X@X@XU D L ) V * j 1 k [ l.4.5.,.>.) G 8 5 @X@X@X@X@X@X@X",
"@X@X@X@X@X[ m ( P ( D 9 2 j n ! ! 6.d.;.P D 1 % V @X@X@X@X@X@X@X",
"@X@X@X@X..S z D P v c k g 1 u G ! 9 P C X ; u ! ] @X@X@X@X@X@X@X",
"@X@X@X@Xy % 2 1 1 : > k N m y.O.8 8 8 1 H q.Q.U L @X@X@X@X@X@X@X",
"@X@X@Xs y $ o % % % > q 1 m e..X6.=.d.n.v.[./...L @X@X@X@X@X@X@X",
"@X@X@X@X4 6 = @ # @ k N n L y.0.3.5.b.b.d.g.S...V @X@X@X@X@X@X@X",
"@X@X@X@X@X@X@X+ . @ k z D X.] -.%.;.n.;.F F.k.C C @X@X@X@X@X@X@X",
"@X@X@X@X@X@X@X@X. @ h S ! / E <.A +.3.>.Z s.I.6.J @X@X@X@X@X@X@X",
"@X@X@X@X@X@X@X@X  & k S D Z $.<.A +.>.1.E 8.T.k.C @X@X@X@X@X@X@X",
"@X@X@X@X@X@X@X@X@Xe 9 k N F -.2.+.E ,.>._ ^ T.v.c @X@X@X@X@X@X@X",
"@X@X@X@X@X@X@X@X@Xy 8 g k E -.2.#.E 3.1.g.Z K.Y.b @X@X@X@X@X@X@X",
"@X@X@X@X@X@X@X@X@X3 : g h E -.d.#.E D.B.J._ 7.R.T @X@X@X@X@X@X@X",
"@X@X@X@X@X@X@X@X@Xd 6 6 1 R -.2.+.j 4.n.G.&.h v.j.@X@X@X@X@X@X@X",
"@X@X@X@X@X@X@X@X@X@X@Xt b R $.-.+.%.1.B.B.a.s.F.c.@X@X@X@X@X@X@X",
"@X@X@X@X@X@X@X@X@X@X@X] v T &.-.4.4.n.B.B.H.P.L.j.@X@X@X@X@X@X@X",
"@X@X@X@X@X@X@X@X@X@X@X@X@X@X@X@X*.,.,.=.@X@X@X@X@X@X@X@X@X@X@X@X"
};
