/* XPM */
static char *btchd__[] = {
/* columns rows colors chars-per-pixel */
"32 32 2 1 ",
"  c #F99320",
". c None",
/* pixels */
"................................",
"..................   ...........",
".................     ..........",
"................       .........",
"...............         ........",
".............            .......",
"............    .....     ......",
"...........   .........    .....",
"..........  ......   ...   .....",
".........  ...        ...   ....",
"........  ...          ...   ...",
"......   .....         ...    ..",
".....    .....  ....   ...     .",
"......  .....   ....   ....    .",
"..    .......         .....     ",
".        ....         ....      ",
".        ...           ...      ",
".     ......   .....   ...      ",
".. ... .....  ......  ...      .",
"....    ...   .....   ...    ...",
"....    ..           ...    ....",
".....               ...    .....",
"......    ..     .....    ......",
".......   ...  ......    .......",
"........    .......     ........",
".........             ..........",
".........            ...........",
"..........          ............",
"...........        .............",
"............      ..............",
".............   ................",
"................................"
};
