/* XPM */
static char *btchd__[] = {
/* columns rows colors chars-per-pixel */
"128 128 2 1 ",
"  c #F99320",
". c None",
/* pixels */
"................................................................................................................................",
"................................................................................................................................",
"..........................................................................      ................................................",
".......................................................................            .............................................",
".....................................................................                ...........................................",
"....................................................................                  ..........................................",
"...................................................................                    .........................................",
"..................................................................                      ........................................",
".................................................................                        .......................................",
"................................................................                         .......................................",
"..............................................................                            ......................................",
".............................................................                              .....................................",
"............................................................                                ....................................",
"...........................................................                                  ...................................",
"..........................................................                                   ...................................",
".........................................................                                     ..................................",
".......................................................                                        .................................",
"......................................................                                          ................................",
".....................................................                                           ................................",
"....................................................                                             ...............................",
"...................................................                                               ..............................",
"..................................................                                                 .............................",
".................................................                                                   ............................",
"...............................................                      ........                       ............................",
"..............................................                  ..................                   ...........................",
".............................................               .........................                 ..........................",
"............................................             ...............................               .........................",
"...........................................            ...................................              ........................",
"..........................................           ......................................             ........................",
"........................................           .......................    ..............             .......................",
".......................................           ......................       ...............            ......................",
"......................................          .......................         ...............            .....................",
".....................................          .......................          ................            ....................",
"....................................          .......................           .................           ....................",
"...................................         ........................            ..................           ...................",
"..................................         ...........                              ..............            ..................",
"................................          ...........                                 .............            .................",
"...............................          ...........                                    ............            ................",
"..............................          ...........                                      ...........            ................",
".............................          ............                                      ............            ...............",
"............................          ............                                        ...........             ..............",
"...........................           ............                                        ............             .............",
".........................            .............                                         ...........              ............",
"........................            ..............                                         ............             ............",
".......................            ................                                        ............              ...........",
"......................             ..................                                      ............               ..........",
".....................             ....................           .............             .............               .........",
"....................             ....................           ...............            .............               .........",
"..................               ....................           ................           .............                ........",
".................               .....................           ................           .............                 .......",
"................                ....................           .................           .............                  ......",
"................               .....................           ................           ..............                   .....",
"..................             .....................           ................           ..............                   .....",
"....................          .....................           ................            ...............                   ....",
".......................       .....................           ................           ................                    ...",
".........       ..........    .....................          ...............            .................                    ...",
".......           .......... .....................           ..............             .................                     ..",
"......              ..............................                                     .................                      ..",
"....                   ...........................                                    ..................                       .",
"....                      .......................                                     ..................                       .",
"...                         .....................                                     ..................                       .",
"..                             .................                                       .................                       .",
"..                                ..............                                       .................                       .",
".                                    ...........                                        ................                       .",
".                                   ............                                        ...............                        .",
".                                 .............                                          ..............                        .",
".                              ................                                          ..............                       ..",
".                           ..................                                           ..............                       ..",
".                         ....................           ..................              .............                        ..",
".                      .......................           ...................             .............                       ...",
".                    ........................           .....................            .............                      ....",
"..                ...........................           .....................            ............                       ....",
"...             .......... ..................           .....................            ............                      .....",
"....         ..........    .................           ......................           ............                      ......",
".....................      .................           ......................           ............                     .......",
"..................          ................           .....................           ............                    .........",
"...............             ...............           ......................           ............                   ..........",
".............               ...............           .....................           ............                   ...........",
"............                ...............          ....................             ...........                   ............",
".............               ..............            . ...............              ............                  .............",
"..............               ..........                                             ............                  ..............",
"..............               ........                                               ...........                 ................",
"...............              .......                                               ............                .................",
"................              ......                                              ............                ..................",
".................             .....                                              ............                ...................",
".................              ....                                             ............                ....................",
"..................             ....                                           .............                .....................",
"...................             ...                                          .............                ......................",
"....................             ..                                        ..............               ........................",
".....................            ...                                     ...............               .........................",
".....................             ....                               ..................               ..........................",
"......................             ..............           ..........................               ...........................",
".......................             .............          .........................                ............................",
"........................             ............          ........................                .............................",
".........................             ............        .......................                ...............................",
".........................              ...........      ........................                ................................",
"..........................               .....................................                 .................................",
"...........................                .................................                  ..................................",
"............................                 .............................                   ...................................",
".............................                  ........................                     ....................................",
".............................                     .................                       ......................................",
"..............................                                                           .......................................",
"...............................                                                         ........................................",
"................................                                                       .........................................",
".................................                                                     ..........................................",
".................................                                                    ...........................................",
"..................................                                                  ............................................",
"...................................                                               ..............................................",
"....................................                                             ...............................................",
"....................................                                            ................................................",
".....................................                                          .................................................",
"......................................                                        ..................................................",
".......................................                                      ...................................................",
"........................................                                   .....................................................",
"........................................                                  ......................................................",
".........................................                                .......................................................",
"..........................................                              ........................................................",
"...........................................                            .........................................................",
"............................................                          ..........................................................",
"............................................                         ...........................................................",
".............................................                      .............................................................",
"..............................................                    ..............................................................",
"...............................................                  ...............................................................",
"................................................                ................................................................",
"..................................................            ..................................................................",
"....................................................        ....................................................................",
"................................................................................................................................",
"................................................................................................................................"
};
