/* XPM */
static char *btchd__[] = {
/* columns rows colors chars-per-pixel */
"64 64 2 1 ",
"  c #F99320",
". c None",
/* pixels */
"................................................................",
"....................................    ........................",
"..................................        ......................",
".................................          .....................",
"................................            ....................",
"..............................               ...................",
".............................                 ..................",
"............................                  ..................",
"...........................                    .................",
"..........................                      ................",
".........................                        ...............",
".......................                           ..............",
"......................        ............        ..............",
".....................      .................       .............",
"....................     ............ ........      ............",
"...................     ...........    ........      ...........",
"..................    ............     .........      ..........",
"................     ......              ........     ..........",
"...............     ......                 ......      .........",
"..............     ......                   ......      ........",
".............     .......                    .....       .......",
"............      .......                    ......       ......",
"...........      .........                   ......       ......",
".........       ..........      .......      ......        .....",
"........        ..........     ........      .......        ....",
"........       ...........     ........      .......         ...",
".........      ..........      ........     ........          ..",
"....   .....  ...........     ........      ........          ..",
"..        ..............                   .........           .",
".           ............                  ..........           .",
".              .........                   .........           .",
"                 ......                     .......            .",
"                .......                     .......            .",
"             ..........                     .......           ..",
"          ............      ..........      ......            ..",
".       ..............     ...........      ......           ...",
"..   .....   .........     ...........      .....           ....",
"........     ........      ..........      ......          .....",
"......        .......     ..........       .....          ......",
"......        .....                       ......         .......",
".......       ....                       ......        .........",
"........       ..                       ......        ..........",
".........      ..                      ......        ...........",
".........       .                    .......        ............",
"..........      ..                 ........        .............",
"...........      .......     .............        ..............",
"............      ......    ............        ................",
"............        ...................        .................",
".............         ...............         ..................",
"..............          .........            ...................",
"...............                             ....................",
"................                           .....................",
"................                         .......................",
".................                       ........................",
"..................                     .........................",
"...................                   ..........................",
"....................                 ...........................",
"....................                ............................",
".....................             ..............................",
"......................           ...............................",
".......................         ................................",
"........................       .................................",
"................................................................",
"................................................................"
};
