/* XPM */
static char *chaincoin___[] = {
/* columns rows colors chars-per-pixel */
"16 16 152 2 ",
"   c #00A300",
".  c #00A400",
"X  c #00A500",
"o  c #00A609",
"O  c #00A60D",
"+  c #00A610",
"@  c #00A723",
"#  c #00A727",
"$  c #00A729",
"%  c #00A82C",
"&  c #00A930",
"*  c #00A932",
"=  c #00A934",
"-  c #00AA3A",
";  c #00AB3A",
":  c #00AB3D",
">  c #00AB3E",
",  c #00AB41",
"<  c #00AD46",
"1  c #00AC48",
"2  c #00AD48",
"3  c #00AD49",
"4  c #00AE49",
"5  c #00AE4A",
"6  c #00AE4B",
"7  c #00AD4D",
"8  c #00AF4F",
"9  c #00B14C",
"0  c #00AF50",
"q  c #00B250",
"w  c #00B053",
"e  c #00B055",
"r  c #00B356",
"t  c #08B157",
"y  c #00B158",
"u  c #0FB459",
"i  c #15B458",
"p  c #15B45A",
"a  c #1AB159",
"s  c #19B15A",
"d  c #27B25D",
"f  c #2CB463",
"g  c #32B465",
"h  c #38B566",
"j  c #3AB566",
"k  c #3FB567",
"l  c #48B76C",
"z  c #4CB86F",
"x  c #53B972",
"c  c #56BA74",
"v  c #5BBA77",
"b  c #64BC7D",
"n  c #62C67F",
"m  c #67BE80",
"M  c #6DBF84",
"N  c #64C680",
"B  c #66C681",
"V  c #66C781",
"C  c #67C782",
"Z  c #68C782",
"A  c #82C593",
"S  c #84C594",
"D  c #84C696",
"F  c #85C797",
"G  c #87C796",
"H  c #8FC899",
"J  c #8FCA9D",
"K  c #82D193",
"L  c #83D194",
"P  c #84D295",
"I  c #92CBA0",
"U  c #9ACCA3",
"Y  c #9BCEA7",
"T  c #9CCFA8",
"R  c #9ECFA9",
"E  c #A0CFA8",
"W  c #A6D1AD",
"Q  c #A4D1AE",
"!  c #A7D1AE",
"~  c #A6D3B0",
"^  c #AAD8B3",
"/  c #AAD8B4",
"(  c #ABD8B4",
")  c #ABD9B5",
"_  c #AFD7B8",
"`  c #B1D7B8",
"'  c #B6D8BB",
"]  c #B5D9BC",
"[  c #B6D9BD",
"{  c #B5D9BE",
"}  c #B7DABF",
"|  c #B8DABF",
" . c #BADBC0",
".. c #BBDBC1",
"X. c #B9DDC1",
"o. c #BADCC2",
"O. c #BBDCC2",
"+. c #BADDC2",
"@. c #BEDDC4",
"#. c #BCDEC4",
"$. c #BFDEC5",
"%. c #BFDEC6",
"&. c #C2DFC7",
"*. c #C2DFC8",
"=. c #C3DFC8",
"-. c #C3E0CA",
";. c #C5E0CB",
":. c #C7E2CD",
">. c #C8E2CE",
",. c #C9E3CE",
"<. c #C8E2CF",
"1. c #CBE2CE",
"2. c #CAE3CF",
"3. c #CAE6CF",
"4. c #CBE4D1",
"5. c #CAE6D0",
"6. c #CBE6D0",
"7. c #CEE5D3",
"8. c #CFE6D3",
"9. c #D3E7D7",
"0. c #D6E8D8",
"q. c #D7E9DA",
"w. c #D7EADB",
"e. c #D8E9DB",
"r. c #D9EADD",
"t. c #DBEBDE",
"y. c #DCECDF",
"u. c #DDECE0",
"i. c #DEEDE0",
"p. c #DEEDE1",
"a. c #DFEEE2",
"s. c #E0EEE3",
"d. c #E3EFE5",
"f. c #E1F0E4",
"g. c #E4F0E7",
"h. c #E5F1E7",
"j. c #E7F2E9",
"k. c #E5F4E8",
"l. c #E7F4E8",
"z. c #E9F3EA",
"x. c #EAF3EC",
"c. c #EBF4EC",
"v. c #ECF4ED",
"b. c #ECF5EE",
"n. c #EDF5EE",
"m. c #EFF6F0",
"M. c #EDF8F0",
"N. c #EEF8F0",
"B. c #F0F6F1",
"V. c #F0F7F1",
"C. c #F6FAF6",
"Z. c None",
/* pixels */
"Z.Z.Z.Z.Z.l.5.%.+.5.l.Z.Z.Z.Z.Z.",
"Z.Z.Z.N.^ N r X X q N ( N.Z.Z.Z.",
"Z.Z.f.K 8 1 d X.<.c ; > P f.Z.Z.",
"Z.N.K > > G x.0.y.y.R x $ P N.Z.",
"Z.( * M 7.r.%. .H <.;.V.G $ ( Z.",
"l.N 1 p.0.&.~ d.C.+.@ Q h.0 N l.",
"5.r j h.E *.v.G A z.h.p.0.t p 5.",
"+.< l p.} e.I 8 y q T } z f 1 +.",
"+.1 h  .<.8. .o g s U X.z f 1 +.",
"3.u s p.' 2.u.Q v s.x.p.0.t p 5.",
"l.N 1 d.<.[ ` y.V.] o ! h.q N l.",
"Z.( * b p.h.<...U %.9.v.F $ ( Z.",
"Z.N.K ; r J -.v.;.v.%.k % P M.Z.",
"Z.Z.s.P 1 1 r _ 5.b * , P f.Z.Z.",
"Z.Z.Z.N.^ N p O   9 C ( N.Z.Z.Z.",
"Z.Z.Z.Z.Z.l.3.%.+.7.l.Z.Z.Z.Z.Z."
};
