/* XPM */
static char *_67130e4107a45cfc59ee982e1458b0b[] = {
/* columns rows colors chars-per-pixel */
"32 32 83 1 ",
"  c #00A400",
". c #00A725",
"X c #00A826",
"o c #00AA36",
"O c #00AB3C",
"+ c #00AC44",
"@ c #00AE4B",
"# c #00AF51",
"$ c #00B055",
"% c #04B25B",
"& c #0CB25C",
"* c #14B055",
"= c #16B35D",
"- c #1BB35E",
"; c #24B25D",
": c #2BB25C",
"> c #3AB35F",
", c #23B361",
"< c #2CB463",
"1 c #32B566",
"2 c #39B464",
"3 c #37B568",
"4 c #3AB66A",
"5 c #44B66A",
"6 c #4CB76D",
"7 c #4AB86F",
"8 c #52B86F",
"9 c #4CB871",
"0 c #54B972",
"q c #59BC77",
"w c #5EBD7C",
"e c #61BC7B",
"r c #69BE7F",
"t c #67BE80",
"y c #6ABE82",
"u c #70C085",
"i c #77C188",
"p c #7AC38D",
"a c #7FC591",
"s c #83C593",
"d c #88C797",
"f c #85C994",
"g c #8BC897",
"h c #89C798",
"j c #8DC99C",
"k c #92CB9F",
"l c #95CCA2",
"z c #9ACDA4",
"x c #9CCFA8",
"c c #9AD2A7",
"v c #9FD0AA",
"b c #A2D1AC",
"n c #A7D3B0",
"m c #ABD5B3",
"M c #AEDCB8",
"N c #B0D6B6",
"B c #B1D7B9",
"V c #B4D9BC",
"C c #B4E0BE",
"Z c #BCDDC3",
"A c #BFE5C7",
"S c #C0DEC6",
"D c #C2DFC8",
"F c #C5E0CA",
"G c #C9E3CE",
"H c #CDE4D1",
"J c #D1E6D5",
"K c #D3E8D7",
"L c #D6E9D9",
"P c #DAEBDD",
"I c #D9F2DE",
"U c #DEEDE1",
"Y c #DBF1E0",
"T c #E0EEE3",
"R c #E5F1E7",
"E c #E7F2E9",
"W c #ECF4ED",
"Q c #EFF6F0",
"! c #F0F7F1",
"~ c #F3F9F4",
"^ c #F7FBF8",
"/ c #FEFEFE",
"( c None",
/* pixels */
"((((((((((((//^~~^//((((((((((((",
"(((((((((/~YCfw77wfCI!/(((((((((",
"(((((((/!Aq++#%,<&$++qA!/(((((((",
"((((((/I6O=4334,$<433=+6I/((((((",
"(((((/Mo=4<<4=@9y<#11<4=oM/(((((",
"((((/co4<<3<@6Z~/Wk#&31<4oc/((((",
"(((/Mo4<<3#%nQ//~//sy#$4<4oM/(((",
"((/Yo4<3;@gW//Uk4F/ZHLq+<14oI/((",
"((~6=1<#qszF!mxe n/FD/~V1=3=6~((",
"(/AO41#N^/^Z$V/Wsz/n6H//U5;4OF/(",
"(~q=3#l//T^/B0W//Hh$$#sE/V@3=q~(",
"(Y+33@J/SojJkVzF//^Z0$.s/P#14+I(",
"/C+31#L/v.2nQ/~yyP//!n9D/H@33+C/",
"/f$11#L/nBW//Hu3$#zR/////a#11$f/",
"^w%11#L/m!/Lj#$<13#<NW^Rl#3<1%w^",
"~7,<3#L/zijnL6<<<<3<#30;$1<<<-7~",
"!7-<1*LBkby/!2<1<<1<#39;$3<<<;7~",
"^w&1<3eG//b^Q=$3<<#:BW^El#1<<%w^",
"/f#13@n/~Fs/Esp+,2kE/////a$11$f/",
"/C+31#L/n e^TB/Z:N//!n6D/H@33+C/",
"(Y+43+J/Goj/Uj//WbNS6$.s/P#13+Y(",
"(~q=3#j//UkFn8zJ//S#$#sE/V@4=q~(",
"(/AO31#n^/^F>P^sl^/i0H//T5,4OA/(",
"((!7=13#eH//b!/s hbV^/^V1=3=6~((",
"((/Io4<4&#fEmE/v;zE//Ge+<<4oI/((",
"(((/Mo4<<3@5eV//W//Ps@&4<4oM/(((",
"((((/co41<3<$=Z~/Rc##31<4oc/((((",
"(((((/Mo=4<<1<#6t<#11<4=oM/(((((",
"((((((/I6O=3314,%1443=O7I/((((((",
"(((((((/!Aq++$%,,&#++qF!/(((((((",
"(((((((((/~YZfe77efCY~/(((((((((",
"((((((((((((//^~~^//(((((((((((("
};
