/* XPM */
static char *_5261099a4f64d42aef90beea14e9afd[] = {
/* columns rows colors chars-per-pixel */
"64 64 79 1 ",
"  c #00A615",
". c #00A71D",
"X c #00A827",
"o c #00A92C",
"O c #00AA34",
"+ c #00AB3D",
"@ c #00AD45",
"# c #00AD4A",
"$ c #00AF51",
"% c #00B055",
"& c #01B159",
"* c #0BB159",
"= c #13B053",
"- c #1CB055",
"; c #12B25C",
": c #1CB25D",
"> c #23B35C",
", c #29B35F",
"< c #1FB360",
"1 c #23B361",
"2 c #2BB463",
"3 c #33B566",
"4 c #3AB566",
"5 c #37B568",
"6 c #39B669",
"7 c #42B76C",
"8 c #49B76D",
"9 c #4BB86E",
"0 c #4CB970",
"q c #54BA75",
"w c #5BBB77",
"e c #56BA78",
"r c #5DBC7B",
"t c #62BD7D",
"y c #66BE81",
"u c #6ABF82",
"i c #6DC085",
"p c #71C187",
"a c #75C28A",
"s c #7AC38D",
"d c #7FC691",
"f c #84C795",
"g c #89C796",
"h c #87C899",
"j c #8CC99A",
"k c #90CB9F",
"l c #94CDA2",
"z c #99CEA6",
"x c #9CCFA8",
"c c #9DD0A9",
"v c #A3D2AD",
"b c #A7D4B1",
"n c #AAD6B4",
"m c #ADD8B7",
"M c #AFD7B8",
"N c #AFD8B9",
"B c #B3D9BC",
"V c #B7DBC0",
"C c #BCDDC3",
"Z c #C0DFC7",
"A c #C1DFC8",
"S c #C5E1CB",
"D c #C9E3CF",
"F c #CCE5D1",
"G c #D1E7D5",
"H c #D2E8D7",
"J c #D5E9D9",
"K c #DAEBDE",
"L c #DDEDE1",
"P c #E1EFE4",
"I c #E4F0E6",
"U c #E6F2E8",
"Y c #ECF5ED",
"T c #EFF7F1",
"R c #F0F7F1",
"E c #F5FAF5",
"W c #F7FBF8",
"Q c #FEFFFE",
"! c None",
/* pixels */
"!!!!!!!!!!!!!!!!!!!!!!!!!!QQQQQQQQQQQQ!!!!!!!!!!!!!!!!!!!!!!!!!!",
"!!!!!!!!!!!!!!!!!!!!!!QQQQQQQWRYYRWQQQQQQQ!!!!!!!!!!!!!!!!!!!!!!",
"!!!!!!!!!!!!!!!!!!!QQQQQUFnjie7667qignFUQQQQQ!!!!!!!!!!!!!!!!!!!",
"!!!!!!!!!!!!!!!!!QQQQPMp,@#$&;1121;&$##,pMPQQQQ!!!!!!!!!!!!!!!!!",
"!!!!!!!!!!!!!!!!QQQFd*@&2563322232233662&#*fFQQQ!!!!!!!!!!!!!!!!",
"!!!!!!!!!!!!!!QQQFi#$3532222222222222222352$#iFQQQ!!!!!!!!!!!!!!",
"!!!!!!!!!!!!!QQUf#&53222222222222222222222236%@fUQQ!!!!!!!!!!!!!",
"!!!!!!!!!!!QQQC>$532222222222223332222222222236$>CQQQ!!!!!!!!!!!",
"!!!!!!!!!!QQWl@2322222222222232*%&162222222222232@lWQW!!!!!!!!!!",
"!!!!!!!!!QQRi#622222222222233$;tsi6#:3222222222226#iRQQ!!!!!!!!!",
"!!!!!!!!QQYw$62222222222235$$cPWQQYZq%3222222222226$rYQQ!!!!!!!!",
"!!!!!!!QQTw%6222222222225*#fPQQQQQQQTi%3322222222226%wTQQ!!!!!!!",
"!!!!!!!QWi$3222222222261#tFQQQQQQQQQQTe>&&62222222226$iWQ!!!!!!!",
"!!!!!!QQl#622222222233#7VWQQQQQQTWQQQQD@Bp@16222222226#lQQ!!!!!!",
"!!!!!QQC@62222222223$$cTQQQQQQUx7qDQQQW>ZQV8#3322222226@CQQ!!!!!",
"!!!!!QU>222222222362jUQQQQQQWM,$2&$IQQQffQQRv*$622222222>UQ!!!!!",
"!!!!QQf$322222232$#@sBIQQQQD3$7636@SQQQjfQQQQPg#*3222213$fQQ!!!!",
"!!!QQF#62222226$,fbnj3OvWKuXlRNX66,PQQQsgQQQQQQHt$3222226#FQQ!!!",
"!!!QQi&3222223$kUQQQQWS$q%uLQQWb*+lQQQW92nRQQQQQWj$622223&uQQ!!!",
"!!QQD#5222223$MQQQQQQQQI8#xQQQQQPg$hUQC#3#0CWQQQQQs$322226#FQQ!!",
"!!QQd%322225$lQQQQQQQQQQJ%$DQQQQQQF0+by*33:@iJQQQQL%322223$dQQ!!",
"!!QP*2222222>UQQQQHCIQQQQl$$FQQQQQQQC$@35236&@xQQQQp&322223*PQ!!",
"!QQM@622223$fQQQQv+#$HQQS38fOkYQQQQQQRv%$53236OFQQQv#522225#MQQ!",
"!QQp&322225#vQQQI$57%pLuXlYQD4+BWQQQQQQPf#&527$BQQQm#622223&pQQ!",
"!QU22222226#nQQQL-636:OpKQQQQQB@qSQQQQQQQFy@*&@LQQQv$5222222,UQ!",
"!QF@5222226#mQQQL-%$#wDQQQQQQYb3:@sKQQQQQQWCyiDQQQWi%2222226#DQ!",
"QQn#5222225#nQQQL=lfBWQQQQQWB2#235%$lUQQQQQQWQQQQQH$32222223#nQQ",
"QQj$5222226#mQQQL#UQQQQQQQDw@2322235#2mWQQQQQQQQQEr*32222223$jQQ",
"QQi&2222223#mQQQL@PQQQQQKp#:6222222262@wDWQQQQQQYp%522222223%iQQ",
"QWq;3222226#mQQQL#IQQQYkOe6222222222236;#sFRWWIB9%5222222223;eWQ",
"QR712222223#mQQQL#CPDx@3HP>22222222222226%#6te:@<3222222222227RQ",
"QY622222226@mQQQK>;=#$BWQP-32222222222222362;:2622222222222216YQ",
"QY612222226#nQWC0@66:tQQQP-22222222222222352;:2632222222222216YQ",
"QR712222226@BWuOxJITleQQQP>32222222222226%#6te>#:52222222223>7RQ",
"QWe;3222223$cp3PQQQQneQQQP-322222222226;@sFYWWIB9%3222222222;eWQ",
"QQu&32222223*4YQQQQQbqQQQP:>6222222252#wDQQQQQQQTp%322222222&iQQ",
"QQj$32222223#SQQQQQQbeQQQL-q#16,2233$3MEQQQQQQQQQEt*32222223$hQQ",
"QQn#6222222;tWQQQPdtquWQQL@KA2$533$#lUQQQQQQWQQQQQH$32222226#nQQ",
"!QD@6222223$xQQQWq#:$pQQQL+LQYx$&2fKQQQQQQWCuuDQQQWi%3222226#FQ!",
"!QU22222226@nQQQJ$73;uWQQK@LQQQKsOxWQQQQQFy@*&@LQQQv$3222222,UQ!",
"!QQp&322226#vQQQU>>7$lQQQK@UQQQQQS>$CQQLf#&636$BQQQm#522223%pQQ!",
"!QQM#622223%dQQQQA*$0YQWQZ+mWQQQQQRv.jn$%63256OFQQQb#522223@MQQ!",
"!!QP*2222222;PQQQQUj$fUQQp&O4FQQQQQQK>@63226%@xQQQQp%322222*PQ!!",
"!!QQf$322223$gQQQQQQJqOBV$;Zc pPQQQQQL:226:#iHQQQQL%322223%fQQ!!",
"!!QQD#3222225$bQQQQQQWB$@$jQQJy$vTQQQQN$6#0CWQQQQQs&322226#FQQ!!",
"!!!QQi%32222,3$fPQQQQQQYl+JQQQWt@7GQQQC+,nRQQQQQWj$322223%iQQ!!!",
"!!!QQF#62222223$=nEQQQQQH$YQQQM$7&4WUsOjPQQQQQQHt$6222225#FQQ!!!",
"!!!!QQf$322222253#0SQQQQC3WQQQu;334d@wHQQQQQQPh#*3222223$fQQ!!!!",
"!!!!!QU>2222222225<#sKQQS$RQQQl+62#3ZWQQQQQRv*$531222222>UQ!!!!!",
"!!!!!QQC@62222222225%$lRU@KQQQTp$4bRQQQQQWC8#3322222226@CQQ!!!!!",
"!!!!!!QQl#622222222233$7BqkQQQQWLYQQQQQQHt@16222222226#lQQ!!!!!!",
"!!!!!!!QWi$622222222226:$6$HQQQQQQQQQQIh$*62222222226$uWQ!!!!!!!",
"!!!!!!!QQRw%52222222222232:6KQQQQQQQTv*$332222222226%wTQQ!!!!!!!",
"!!!!!!!!QQYw$62222222222223:&bUWQWYC8#3322222222226$tYQQ!!!!!!!!",
"!!!!!!!!!QQTi#622222222222233#:rdi3@:6222222222226#uYQQ!!!!!!!!!",
"!!!!!!!!!!QQWl@2322222222222232*%&162222222222232@kWQQ!!!!!!!!!!",
"!!!!!!!!!!!QQQC>$632222222222223332222222222236$>CQQQ!!!!!!!!!!!",
"!!!!!!!!!!!!!QQUf#&53222222222222222222222235&#fUQQ!!!!!!!!!!!!!",
"!!!!!!!!!!!!!!QQQFu#%2632222222222222222362$#iFQQQ!!!!!!!!!!!!!!",
"!!!!!!!!!!!!!!!!QQQFd*@&2555322222335632%#*fDQQQ!!!!!!!!!!!!!!!!",
"!!!!!!!!!!!!!!!!!QQQQPNp2@#$&;1211;&$#@2pNPQQQQ!!!!!!!!!!!!!!!!!",
"!!!!!!!!!!!!!!!!!!!QQQQQUFnjie7667eijbFIQQQQQ!!!!!!!!!!!!!!!!!!!",
"!!!!!!!!!!!!!!!!!!!!!!QQQQQQQWRYYRWQQQQQQQ!!!!!!!!!!!!!!!!!!!!!!",
"!!!!!!!!!!!!!!!!!!!!!!!!!!QQQQQQQQQQQQ!!!!!!!!!!!!!!!!!!!!!!!!!!"
};
