/* XPM */
static char *_223d95e13044ca9dac73a6b2b2e23c8[] = {
/* columns rows colors chars-per-pixel */
"128 128 69 1 ",
"  c #00AC3E",
". c #00AD45",
"X c #00AE4B",
"o c #00AF52",
"O c #00B054",
"+ c #01B159",
"@ c #0DB25C",
"# c #14B25D",
"$ c #1BB35E",
"% c #21B45F",
"& c #23B361",
"* c #2BB463",
"= c #33B566",
"- c #38B667",
"; c #37B568",
": c #3AB669",
"> c #41B76C",
", c #45B86E",
"< c #48B96F",
"1 c #4CB972",
"2 c #55BB76",
"3 c #58BC77",
"4 c #5CBD7A",
"5 c #62BE7E",
"6 c #65BF80",
"7 c #66C081",
"8 c #6BC184",
"9 c #70C287",
"0 c #73C38A",
"q c #7AC58F",
"w c #7DC691",
"e c #81C794",
"r c #83C894",
"t c #87C999",
"y c #8BCB9B",
"u c #90CC9F",
"i c #95CEA3",
"p c #98CFA6",
"a c #9BD0A7",
"s c #9DD1A9",
"d c #A2D3AE",
"f c #A6D5B1",
"g c #AAD6B5",
"h c #ADD8B6",
"j c #AED7B8",
"k c #AFD8B9",
"l c #B3DABC",
"z c #B7DCC0",
"x c #BCDEC4",
"c c #C0DFC8",
"v c #C0E0C7",
"b c #C5E2CC",
"n c #C9E4CF",
"m c #CDE6D2",
"M c #D0E7D5",
"N c #D2E9D7",
"B c #D5EAD9",
"V c #DAECDD",
"C c #DEEEE1",
"Z c #E0EFE3",
"A c #E4F1E6",
"S c #E6F2E8",
"D c #EBF5ED",
"F c #EFF7F0",
"G c #F0F7F1",
"H c #F4F9F4",
"J c #F7FBF8",
"K c #FFFFFF",
"L c None",
/* pixels */
"LLLLLLLLLLLLLLLLLLLLLLLLLLLLLLLLLLLLLLLLLLLLLLLLLLLLLLLKKKKKKKKKKKKKKKKKKLLLLLLLLLLLLLLLLLLLLLLLLLLLLLLLLLLLLLLLLLLLLLLLLLLLLLLL",
"LLLLLLLLLLLLLLLLLLLLLLLLLLLLLLLLLLLLLLLLLLLLLLLLLLKKKKKKKKKKKKKKKKKKKKKKKKKKKKLLLLLLLLLLLLLLLLLLLLLLLLLLLLLLLLLLLLLLLLLLLLLLLLLL",
"LLLLLLLLLLLLLLLLLLLLLLLLLLLLLLLLLLLLLLLLLLLLLLKKKKKKKKKKKKKKKKKKKKKKKKKKKKKKKKKKKKLLLLLLLLLLLLLLLLLLLLLLLLLLLLLLLLLLLLLLLLLLLLLL",
"LLLLLLLLLLLLLLLLLLLLLLLLLLLLLLLLLLLLLLLLLLLKKKKKKKKKKKKKKJKJDAAAAAADJJKKKKKKKKKKKKKKKLLLLLLLLLLLLLLLLLLLLLLLLLLLLLLLLLLLLLLLLLLL",
"LLLLLLLLLLLLLLLLLLLLLLLLLLLLLLLLLLLLLLLLKKKKKKKKKKKKDBnky041;******-140yjnNHKKKKKKKKKKKKLLLLLLLLLLLLLLLLLLLLLLLLLLLLLLLLLLLLLLLL",
"LLLLLLLLLLLLLLLLLLLLLLLLLLLLLLLLLLLLLLKKKKKKKKKJAba8>O..O+@$&*******$@+OX.O:8abAKKKKKKKKKKLLLLLLLLLLLLLLLLLLLLLLLLLLLLLLLLLLLLLL",
"LLLLLLLLLLLLLLLLLLLLLLLLLLLLLLLLLLLLKKKKKKKKHBg7*.X+&=;;;=*=*******=*===--;&+X.*6gBJKKKKKKKKLLLLLLLLLLLLLLLLLLLLLLLLLLLLLLLLLLLL",
"LLLLLLLLLLLLLLLLLLLLLLLLLLLLLLLLLLKKKKKKKKCg4OX@*;;=*************************;;*@.o3gCKKKKKKKKLLLLLLLLLLLLLLLLLLLLLLLLLLLLLLLLLL",
"LLLLLLLLLLLLLLLLLLLLLLLLLLLLLLLLKKKKKKKHnqOX#=;**********************************-=#XOqnHKKKKKKKLLLLLLLLLLLLLLLLLLLLLLLLLLLLLLLL",
"LLLLLLLLLLLLLLLLLLLLLLLLLLLLLLKKKKKKKGl3XO=;****************************************:=OX3lHKKJKKKKLLLLLLLLLLLLLLLLLLLLLLLLLLLLLL",
"LLLLLLLLLLLLLLLLLLLLLLLLLLLLLKKKKKKHl1X$;=********************&***********************=;#X1lHKKKKKKLLLLLLLLLLLLLLLLLLLLLLLLLLLLL",
"LLLLLLLLLLLLLLLLLLLLLLLLLLLKKKKKKJv1X$-**************************************************-$X1xKKKKKKKLLLLLLLLLLLLLLLLLLLLLLLLLLL",
"LLLLLLLLLLLLLLLLLLLLLLLLLLKKKKKKB8X$;*****************************************************=;$X8VKKKKKKLLLLLLLLLLLLLLLLLLLLLLLLLL",
"LLLLLLLLLLLLLLLLLLLLLLLLLKKKKKHsOO;=*********************************************************;+osHKKKKKLLLLLLLLLLLLLLLLLLLLLLLLL",
"LLLLLLLLLLLLLLLLLLLLLLLKKKKKKB3X;=************************************&***********************==X2NKKKKKKLLLLLLLLLLLLLLLLLLLLLLL",
"LLLLLLLLLLLLLLLLLLLLLLKKKKKKgo@;****************************************************************;#ogKKKKKKLLLLLLLLLLLLLLLLLLLLLL",
"LLLLLLLLLLLLLLLLLLLLLKKKKKDqX;=******************************************************************==XqDKKKKKLLLLLLLLLLLLLLLLLLLLL",
"LLLLLLLLLLLLLLLLLLLLKKKKKV<O;******************&***************=====*******************************;o<VKKKKKLLLLLLLLLLLLLLLLLLLL",
"LLLLLLLLLLLLLLLLLLLKKKKKn+#;********************************;=@OoXO+%;;*****************************;#+nKKKKKLLLLLLLLLLLLLLLLLLL",
"LLLLLLLLLLLLLLLLLLKKKKKlX*=************&******************;&XO4qidy0>XX*;****************************=*XzKKKKKLLLLLLLLLLLLLLLLLL",
"LLLLLLLLLLLLLLLLLKKKKKg.=*******************************;*X:fVKKKKKKGMi$O;**************&*************==XgKKKKKLLLLLLLLLLLLLLLLL",
"LLLLLLLLLLLLLLLLKKKKKgX;******************************=;o$gGKKKKKKKKKKKSyX*=****************************-XgKKKKKLLLLLLLLLLLLLLLL",
"LLLLLLLLLLLLLLLKKKKKg.;******************************;+XyAKKKKKKKKKKKKKKKv+******************************-.gKKKKKLLLLLLLLLLLLLLL",
"LLLLLLLLLLLLLLKKKKKzX;*****************************;%X8BKKKKKKKKKKKKKKKKKKn+******************************;XzKKKKKLLLLLLLLLLLLLL",
"LLLLLLLLLLLLLLKKKKbo*****************************=*X1bJKKKKKKKKKKKKKKKKKKKKbo;***=*************************;XnKKKKLLLLLLLLLLLLLL",
"LLLLLLLLLLLLLKKKKC+****************************==o$fGKKKKKKKKKKKKKKKKKKKKKKKio;=O+;**************************+VKKKKLLLLLLLLLLLLL",
"LLLLLLLLLLLLKKKKD<#=**************************;OoiAKKKKKKKKKKKKKKKKKKKKKKKKKD<&*f8.*;***********************=#<DKKKKLLLLLLLLLLLL",
"LLLLLLLLLLLKKKKKqO;*************************;$X9BKKKKKKKKKKKKKKKHAGKKKKKKKKKKkXolJk*X==**********************;OqKKKKKLLLLLLLLLLL",
"LLLLLLLLLLLKKKKgX-************************;*X1vKKKKKKKKKKKKKKKDs<*>rVKKKKKKKKS=+4KKDioO;**********************;XgKKKKLLLLLLLLLLL",
"LLLLLLLLLLKKKKNo;***********************=;o%gHKKKKKKKKKKKKKKHl*X&*&OoMKKKKKKKK0+*AKKKVqX#;*********************;XNKKKKLLLLLLLLLL",
"LLLLLLLLLKKKKH2@=**********************=OXyAKKKKKKKKKKKKKKKn3.*;***;&&DKKKKKKKgXOnKKKKKn3X*;*******************=@3HKKKKLLLLLLLLL",
"LLLLLLLLLKKKKsX;***********************$wZKKKKKKKKKKKKKKKBqo%:******;XgKKKKKKKbXXxKKKKKKHl=X==******************;XsKKKKLLLLLLLLL",
"LLLLLLLLKKKKVo;************************=inBHKKKKKKKKKKKDiO@%#=******;OqKKKKKKKnOXxKJKKKKKKSiOO;******************;OBKKKKLLLLLLLL",
"LLLLLLLLKKKJ8+=*******************;;;***O.+3gAKKKKKKKHl=o*X90+******=+qKKKKKKKnOXxKKKKKKKKKKVqX#=*****************+8KKKKLLLLLLLL",
"LLLLLLLKKKKvX-******************-%o.O%=$OoO#X$fHKKKKb3X*o>lKn.:*****-XfKKKKKJKxXXnKKKKKKKKKKKKn4X==***************;XxKKKKLLLLLLL",
"LLLLLLLKKKH<$*************&***;&X:ubNZACNxt=O=X4ZKB0X&++sDKKJ5o:***=%oCKKKKKKKpOOnKKKKKKKKKKKKKHk+@=**************=$1GKKKLLLLLLL",
"LLLLLLKKKKlX-****************;o>lGKKKKKKKKKSg$$@:yO+=XeCKKKKKS3X*;**@vKKKKKKKK5@*<lJKKKKKKKKKKKKKC2+=**************-XlKKKKLLLLLL",
"LLLLLLKKKG1$****************;XyDKKKKKKKKKKKKKZ8O;O=*;nKKKKKKKKHg%o-*>NKKKKKKKC+**%X6MKKKKKKKKKKKKKD7O=**************%<GKKKLLLLLL",
"LLLLLKKKKlX;***************;XfKKKKKKKKKKKKKKKKHiX:**$SKKKKKKKKKKAiX+=otAKKKKKaX;**;+XrCKKKKKKKKKKKKS<$**************;XlKKKKLLLLL",
"LLLLLKKKH3#=**************;XfKKKKKKKKKKKKKKKKKKKyo;;oyKKKKKKKKKKKKB0X&+#fDKKA******=;O+sDKKKKKKKKKKKMo;**************$3HKKKLLLLL",
"LLLLKKKKbX;**************-OrKKKKKKKKKKKKKKKKKKKKH5+=;XMKKKKKKKKKKKKKv1X*o,xJto;******;=X:zJKKKKKKKKKKyo;*************;XbKKKKLLLL",
"LLLLKKKKqO=**************&:DKKKKKKKKKKKKKKKKKKKKKVO;*%;SKKKKKKKKKKKKKHg*O*o2&**********;*.6nKKKKKKKKKVO=*************=OqKKKKLLLL",
"LLLLKKKCO=**************;XlKKKKKKKKKKKJKKKKKKKKKKKuO;;@<AKKKKKKKKKKKKKKSuO@*=************:+XeDKKKKKKKK8+**************=+CKKKLLLL",
"LLLKKKKgX;***********&**&-DKKKKKKKKJz036dDKKKKKKKKCO=*:$:MKKKKKKKKKKKKKKKB0X$;************=:X3GKKKKKKKk.;*************;.gKKKKLLL",
"LLLKKKH4#**************=OyKKKKKKKKH0.+#@.;VKKKKKKSi$;@.+*XiDKKKKKKKKKKKKKKKv1X*;************>.gKKKKKKKMX;**************#4HKKKLLL",
"LLLKKKBO=**************;.vKKKKKKKKi.:===:+;DKKKHl*O*.5byX=O=lHKKKKKKKKKKKKKKHg&o==**********=#4KKKKKKKV$***************;OBKKKLLL",
"LLKKKKg.;**************;oMKKKKKKKCO;*****:XgKKn3o=O;lJKKx:O*X4nKKKKKKKKKKKKKKKSyX+;=*********&:DKKKKKKA=***************-XgKKKKLL",
"LLKKKK6+=**************=ONKKKKKKKv.;*****=+0BqX*+OaDKKKKKDs++&XqVKKKKKKKKKKKKKKKB0X$;********&<HKKKKKKA****************;+6KKKKLL",
"LLKKKA&*****************%ZKKKKKJKx :********++*XwCKKKKKKKKKCwX=OOiDKKKKKKKKKKKKKKKv1X*;*****;oyKKKKKKKV#*****************&ZKKKLL",
"LLKKKb.;****************=AKKKKKKKx.:*******;*X4nKKKKKKKKKKKKKM>*;X*lHKKKKKKKKKKKKKKHg%X=;*=;&OVKKKKKKKnX;***************;.bKKKLL",
"LKKKKao;*****************AKKKKKKKx.:=****==X;lJKKKKKKKKKKKKKDg=**-*X3nKKKKKKKKKKKKKKKAuOo@+XObKKKKKKKKfX;***************;osKKKKL",
"LKKKK8+=*&***************AKKKKKKKx.-*;;-;O+sDKKKKKKKKKKKKKJl:X*****-#XqVKKKKKKKKKKKKKKKVi68dAKKKKKKKKH2#****************=+8KKKKL",
"LKKKD:*******************AKKKKKKKx.;*X..XrCKKKKKKKKKKKKKKn4X&;******=;OoiDKKKKKKKKKKKKKKKJKKKKKKKKKKKbX;*****************&:DKKKL",
"LKKKBO=*****************=AKKKKKKKv.+lNglBKKKKKKKKKKKKKKVwX@;**********==X=lHKKKKKKKKKKKKKKKKKKKKKKKKJ5+;*****************;+NKKKL",
"LKKKn.;******************AKKKKKJKxXonKKKKKKKKKKKKKKKKDsOo;=*************;&X3nKKKKKKKKKKKKKKKKKKKKKKKgX;*********&********;.nKKKL",
"KKKKk.;******************AKKKKKKKx.OnKJKKKKKKKKKKKKJl;X==*****************;#XqVKKKKKKKKKKKKKKKKKKKKMO=*******************;.kKKKK",
"KKKKyO;******************AKKKKKKKvXonKJKKKKKKKKKKKn4.&;********************=;OoiDKKKKKKKKKKKKKKKKKN*&********************;oyKKKK",
"KKKK0+=******************AKKKKKKKx.onKKKKKKKKKKKCwX%;************************=;X=kHKKKKKKKKKKKKKKz+&=********************=+0KKKK",
"KKKJ4@=******************AKKKKKKKcXonKKKKKKKKKDs++&+=**************************;*X3bJKKKKKKKKKKBeX*=*********************=@5JKKK",
"KKKJ1$*******************AKKKKKJKx.OnKJKKKKKHl;O*X8u+****************************;#X4kBHKJJHVz0OO;************************#1KKKK",
"KKKD:&******&************AKKKKKKKx.onKKKKKAl4o*O;hKn.;*****************************;@XO>584<+.+==**********&*************=%:DKKK",
"KKKA**=****************&=AKKKKKKKx.*qlvlp8%X%++aDKKnX;******************************=;=&@+@%=;=*****************************AKKK",
"KKKA*********************AKKKKKKKx.:+...oO*=@rVKKJKnX;**********************************==**********************************AKKK",
"KKKA*********************AKKKKKKKx.-=;::;;&1VKKKKKKnX;**********************************************************************AKKK",
"KKKA*********************AKKKKKCd3*;;**===+8KKKKKKKn.;********************************************************&*************AKKK",
"KKKA**=******************AKKKDi+o$+.XO*OO=+6JKKKKKKnX;********************&*************==**********************************AKKK",
"KKKA*********************AKKn;O*o*ezMBZVz*+qKKKKKKKnX;******************************=-=&@+@$*;=*****************************AKKK",
"KKKD;&***&***************AKlX*O>lSKKKKKKD;OrKKKKKJKb.;*************&***************;@XO>665<+.+;;*************************&:DKKK",
"KKKJ2#*******************Sv :oyDKKKKKKKKA=OrKKKKKKKnX;***************************;@X4lNHKJKHBz0OO;************************$2JKKK",
"KKKK4@=****************$1h$-XfKKKKKKKKKKA;OrKKKKKKKn.;*************************=*X4bJKKKKKKKKKKBeO************************@4KKKK",
"KKKK0O*****************%;$=ofKKKKKKKKKKKA=OrKKKKKKKnX;***********************==X=lHKKKKKKKKKKKKKKxO*=********************=O0KKKK",
"KKKKyO=******************;OrKKKKKKKKKKKKA=OrKKKKKKKbX;**********************;+OpSKKKKKKKKKKKKKKKKKN*%********************;OyKKKK",
"KKKKk.;*******************=DKKKKKKKKKKKKS;OrKKKKKJKc.;+&;*****************-#XqVKKKKKKKKKKKKKKKKKKKKMO=*******************;.jKKKK",
"LKKKn.;*****************;XfKKKKKKKKKKKJKS;OrKKKKKKKx.*81X;=*************;*X4nKKKKKKKKKKKKKKKKKKKKKKKgX;******************;.nKKKL",
"LKKKNO=*****************&;DKKKKKKKKKxq70i:OrKKKKKKKxXXvGyX+;**********==X*lHKKKKKKKKKKKKKKKKKKKKKKKKH7+=*****************;OBKKKL",
"LKKKG>&****************=oyKKKKKKKKHq.O@+O=OrKKKKKKKxXXxKKB8X&;*******;OOpDKKKKKKKKKKKKKKKJKKKKKKKKKJKnX;*****************&:GKKKL",
"LKKKK8+=***************;.bKKKKKKKKu.:;====OrKKKKKKKxXXxKKKJz:o==****+X0VKKKKKKKKKKKKKKKBi68dAKKKKKKKKH2$*****************+8KKKKL",
"LKKKKaX;***************=oMKKKKKKKVO;*****=OrKKKKKKKx.XxKJKKKDaOO;=*$8nJKKKKKKKKKKKKKKAuOo@+XOvKKKKKKKKfX-***************;XaKKKKL",
"LLKKKbX;****************%AKKKKKKKx.;*****=OrKKKKKKKxXXxKKKKKKKVqX$:+iJKKKKKKKKKKKKKHg%o;;==;*oCKKKKKKKnX-***************;XbKKKLL",
"LLKKKA******************=SKKKKKKKl.;*****=OeKKKKKKKxXXcKKKKKKKKKb1X;O<bJKKKKKKKKKJb1X*=*****;oyKKKKKKKV@******************AKKKLL",
"LLKKKK6+=***************$VKKKKKKKnX-*****;XfKKKKKKKx.OcKKKKKKKKKKGg@O*XqVKKKKKKKB0X$;********&<HKKKKKKA****************=+6JKKKLL",
"LLKKKKgX;**************;omKKKKKKKD>%=*****OCKKKKKKKsOOBKKKKKKKKKKKKZyX&@OaHKKKSuo+;**********&>DKKKKKKS****************;XgKKKKLL",
"LLLKKKBO;**************;.lKKKKKKKKb.&;***@lKKKKKKKKq+@lKKKKKKKKKKKKKKn5X=o1AHg%X;=**********=$4JKKKKKKV$***************=oVKKKLLL",
"LLLKKKH4#**************=+qKKKKKKKKKn<X=;+rKKKKKKKKD***o0VKKKKKKKKKKKKKJl*$#;2X*;************:XgKKKKKKKMX;**************#4JKKKLLL",
"LLLKKKKg.;***************$AKKKKKKKKKHf+O;*0CKKKKKKzX;*;#OpDKKKKKKKKKKKKKA0O;#;************;;X4HKKKKKKKjX;*************;.gKKKKLLL",
"LLLLKKKCO=**************-XfKKKKKKKKKKKCeo#++sDKKKH3#**&X*o:lJKKKKKKKKKKKKHwo-************;+XeDKKKKKKKK8+**************=+CKKKLLLL",
"LLLLKKKKqO=***************$AKKKKKKKKKKKKM4X=X<zKKg.;=@3j:o=X6NKKKKKKKKKKKKJqo;*********;&X5MKKKKKKKKKVO=**************OqKKKKLLLL",
"LLLLKKKKnX;************&*;O0JKKKKKKKKKKKKHl*O*Xql&**;onKDio$&XySKKKKKKKKKKKD>&=******==X>lHKKKKKKKKKKyo;*************=XnKKKKLLLL",
"LLLLLKKKH3#=**************;oiKKKKKKKKKKKKKKSuO$$X**;ouKKKKV8o*O$gHKKKKKKKKKKvX;****=;o+sDKKKKKKKKKKKMX;******&******=#3HKKKLLLLL",
"LLLLLKKKKlX;***************;XiHKKKKKKKKKKKKKKN7X*;*=+CKKKKKJx>+=X4nKKKKKKKKKH4#***;+XeCKKKKKKKKKKKKD,$**************;XlKKKKLLLLL",
"LLLLLLKKKD<&****************;X6VKKKKKKKKKKKKKKKz>O;O0KKKKKKKKHuO:#XwAKKKKKKKKhX;;*X5MKKKKKKKKKKKKKD6+=**************$1GKKKLLLLLL",
"LLLLLLKKKKlX;****************;+OpDKKKKKKKKKKKKKKGr#XzKKKKKKKKD8#==;o*CKKKKKJb4*;X>lHKKKKKKKKKKKKKC2+;**************-XlKKKKLLLLLL",
"LLLLLLLKKKG1%*****************==X:lJKKKKKKKKKKKKKpOONKKKKKKKH5o;***;O6JKKKB0O&O+sDKKKKKKKKKKKKKHl+@;**************=$<GKKKLLLLLLL",
"LLLLLLLKKKKbX;******************;&X8MKKKKKKKKKKKK8+>DKKKKKKKb.:*****-OVKAiO$&XwCKKKKKKKKKKKKKKn2X*=&**************;XbKKKKLLLLLLL",
"LLLLLLLLKKKJ6+=*******************-+XySKKKKKKKKKJ8O2JKKKKKKKiO;*****;Xlz@O*X5MKKKKKKKKKKKKKKVqX#;****************;O6JKKKLLLLLLLL",
"LLLLLLLLKKKKVo;**********&*********=;o$gHKKKKKKKK6O3JKKKKKKKrO=*******%o*o>lJKKKKKKKKKKKKKSaOO;=*****************;oVKKKKLLLLLLLL",
"LLLLLLLLLKKKKsX;*********************=*.3nKKKKKKJ8O<GKKKKKKKgX;******=;O+sDKKKKKKKKKKKKKHl*X==******************;XsKKKKLLLLLLLLL",
"LLLLLLLLLKKKKH3@=**********************;#XwCKKKKKr+&CKKKKKKKAO;*****;+XeCKKKKKKKKKKKKKKn3X*;*******************=@2HKKKKLLLLLLLLL",
"LLLLLLLLLLKKKKNo;***********************=;O+sDKKKjoXbKKKKKKKKl *;:;%X6MKKKKKKKKKKKKKKBqX#-*********************;oNKKKKLLLLLLLLLL",
"LLLLLLLLLLLKKKKgX;************************==X,xKKNoOyKKKKKKKKKz>o.X<lJKKKKKKKKKKKKKDpOO;=*********************;XgKKKKLLLLLLLLLLL",
"LLLLLLLLLLLKKKKKqo;*************************;$X6VJ6@&AKKKKKKKKKDMxnHKKKKKKKKKKKKKHl*X==**********************;OqKKKKKLLLLLLLLLLL",
"LLLLLLLLLLLLKKKKD<#;*************************=;OXst+oaKKKKKKKKKKKKKKKKKKKKKKKKKKn3X*;***********************=#<DKKKKLLLLLLLLLLLL",
"LLLLLLLLLLLLLKKKKV+****************************==O&*=OVKKKKKKKKKJKKKKKKKKKKKKKVqX#-**************************+VKKKKLLLLLLLLLLLLL",
"LLLLLLLLLLLLLLKKKKnX=****************************=**=#3DKKKKKKKKKKKKKKKKKKKKDioO;=*************************;obKKKKLLLLLLLLLLLLLL",
"LLLLLLLLLLLLLLKKKKKlX-*******************************=oqHKKKKKKKKKKKKKKKKKHl=X;=**************************;XzKKKKKLLLLLLLLLLLLLL",
"LLLLLLLLLLLLLLLKKKKKgX;**************%******%*********;O8SKKKKKKKKKKKKKKKn3X&;***********&***************;.gKKKKKLLLLLLLLLLLLLLL",
"LLLLLLLLLLLLLLLLKKKKKg.;*******************************=O;zJKKKKKKKKKKKVqX#;**********************&*****;XgKKKKKLLLLLLLLLLLLLLLL",
"LLLLLLLLLLLLLLLLLKKKKKgX*=******************************=*X4lCJKKKKKDnroO;****************************==.gKKKKKLLLLLLLLLLLLLLLLL",
"LLLLLLLLLLLLLLLLLLKKKKKzO*=*******************************;#X+4qidy9>XO==****************************=*XzKKKKKLLLLLLLLLLLLLLLLLL",
"LLLLLLLLLLLLLLLLLLLKKKKKb+#;********************************;=@OoXO+*==*****************************;#+nKKKKKLLLLLLLLLLLLLLLLLLL",
"LLLLLLLLLLLLLLLLLLLLKKKKKV<O;**********************************;;;;=*******************************-o<VKKKKKLLLLLLLLLLLLLLLLLLLL",
"LLLLLLLLLLLLLLLLLLLLLKKKKKDqX=*****************************************************&*************==XqDKKKKKLLLLLLLLLLLLLLLLLLLLL",
"LLLLLLLLLLLLLLLLLLLLLLKKKKKKgo@;****************************************************************;@XgKKKKKKLLLLLLLLLLLLLLLLLLLLLL",
"LLLLLLLLLLLLLLLLLLLLLLLKKKKKKN3X==*****************************************************&******;;X3NKKKKKKLLLLLLLLLLLLLLLLLLLLLLL",
"LLLLLLLLLLLLLLLLLLLLLLLLLKKKKKHsX+;=*********************************************************;+osHKKKKKLLLLLLLLLLLLLLLLLLLLLLLLL",
"LLLLLLLLLLLLLLLLLLLLLLLLLLKKKKKKV8X$;*********************************%********************-$X8VKKKKKKLLLLLLLLLLLLLLLLLLLLLLLLLL",
"LLLLLLLLLLLLLLLLLLLLLLLLLLLKKKKKKJv<X$;=************************************************=;%X1vJKKKKKKLLLLLLLLLLLLLLLLLLLLLLLLLLL",
"LLLLLLLLLLLLLLLLLLLLLLLLLLLLLKKKKKKHl<X#;=********************************************=;#X<lGKKKKKKLLLLLLLLLLLLLLLLLLLLLLLLLLLLL",
"LLLLLLLLLLLLLLLLLLLLLLLLLLLLLLKKKKKKKHl4XO=;****************************************;=OX3lGKKKKKKKLLLLLLLLLLLLLLLLLLLLLLLLLLLLLL",
"LLLLLLLLLLLLLLLLLLLLLLLLLLLLLLLLKKKKKKKHnq+X#;;=********************************=-;#X+qbHKKKKKKKLLLLLLLLLLLLLLLLLLLLLLLLLLLLLLLL",
"LLLLLLLLLLLLLLLLLLLLLLLLLLLLLLLLLLKKKKKKKKCg3OX+*=;*************************=;;*+Xo4gCKKKKKKKKLLLLLLLLLLLLLLLLLLLLLLLLLLLLLLLLLL",
"LLLLLLLLLLLLLLLLLLLLLLLLLLLLLLLLLLLLKKKKKKKKJBg8*.o+&;;;;=**=***=****=*;;;=*+o.*6gVHKKKKKKKKLLLLLLLLLLLLLLLLLLLLLLLLLLLLLLLLLLLL",
"LLLLLLLLLLLLLLLLLLLLLLLLLLLLLLLLLLLLLLKKKKKKKKKKAba7:O..O+##&****&*&$@OO..O:8abAKKKKKKKKKKLLLLLLLLLLLLLLLLLLLLLLLLLLLLLLLLLLLLLL",
"LLLLLLLLLLLLLLLLLLLLLLLLLLLLLLLLLLLLLLLLKKKKKKKKKKKKHNbly042:******;240ykbNFKKKKKKKKKKKKLLLLLLLLLLLLLLLLLLLLLLLLLLLLLLLLLLLLLLLL",
"LLLLLLLLLLLLLLLLLLLLLLLLLLLLLLLLLLLLLLLLLLLKKKKKKKKKKKKKKKJJDAAAASADJKKKKKKKKKKKKKKKKLLLLLLLLLLLLLLLLLLLLLLLLLLLLLLLLLLLLLLLLLLL",
"LLLLLLLLLLLLLLLLLLLLLLLLLLLLLLLLLLLLLLLLLLLLLLKKKKKKKKKKKKKKKKKKKKKKKKKKKKKKKKKKKKLLLLLLLLLLLLLLLLLLLLLLLLLLLLLLLLLLLLLLLLLLLLLL",
"LLLLLLLLLLLLLLLLLLLLLLLLLLLLLLLLLLLLLLLLLLLLLLLLLLKKKKKKKKKKKKKKKKKKKKKKKKKKKKLLLLLLLLLLLLLLLLLLLLLLLLLLLLLLLLLLLLLLLLLLLLLLLLLL",
"LLLLLLLLLLLLLLLLLLLLLLLLLLLLLLLLLLLLLLLLLLLLLLLLLLLLLLLKKKKKKKKKKKKKKKKKKLLLLLLLLLLLLLLLLLLLLLLLLLLLLLLLLLLLLLLLLLLLLLLLLLLLLLLL"
};
