/* XPM */
static char *crowncoin__[] = {
/* columns rows colors chars-per-pixel */
"64 64 256 2",
"   c #010000",
".  c #080704",
"X  c #0C0B05",
"o  c #04050A",
"O  c #07080C",
"+  c #0C0C0C",
"@  c #120E05",
"#  c #100E0A",
"$  c #141207",
"%  c #1A1405",
"&  c #13110C",
"*  c #1A160B",
"=  c #1E1A0B",
"-  c #1F1906",
";  c #0D0D11",
":  c #0A0C16",
">  c #0F1012",
",  c #131313",
"<  c #191611",
"1  c #1C1A14",
"2  c #1B1B1B",
"3  c #14161C",
"4  c #221D0C",
"5  c #241A05",
"6  c #211E15",
"7  c #201E1B",
"8  c #26220E",
"9  c #2B240D",
"0  c #2D2005",
"q  c #35290D",
"w  c #352605",
"e  c #2D2514",
"r  c #2E2A11",
"t  c #23221C",
"y  c #29261C",
"u  c #2B281F",
"i  c #332C13",
"p  c #3A2E13",
"a  c #342C18",
"s  c #3C3316",
"d  c #3D331B",
"f  c #363013",
"g  c #1E1F25",
"h  c #242424",
"j  c #2C2B26",
"k  c #2B2B2B",
"l  c #272726",
"z  c #312F27",
"x  c #3A362C",
"c  c #373327",
"v  c #323232",
"b  c #3A3A3A",
"n  c #3C3931",
"m  c #2F3032",
"M  c #422D05",
"N  c #44320C",
"B  c #4B370A",
"V  c #483508",
"C  c #5B3D02",
"Z  c #553D08",
"A  c #4C3B13",
"S  c #463511",
"D  c #423A25",
"F  c #463D28",
"G  c #5A420A",
"H  c #594109",
"J  c #5D4512",
"K  c #534318",
"L  c #4F401A",
"P  c #654402",
"I  c #6C4A05",
"U  c #62460A",
"Y  c #6C4D0C",
"T  c #674706",
"R  c #775307",
"E  c #684D14",
"W  c #6C541C",
"Q  c #6A5316",
"!  c #7C5D13",
"~  c #73571A",
"^  c #7B5D1D",
"/  c #795718",
"(  c #6F5007",
")  c #7F6118",
"_  c #4E472C",
"`  c #534523",
"'  c #5B4B24",
"]  c #574B2A",
"[  c #4A4533",
"{  c #4B483B",
"}  c #484334",
"|  c #544C31",
" . c #514B39",
".. c #5D532D",
"X. c #665528",
"o. c #755C24",
"O. c #675B39",
"+. c #77652A",
"@. c #6B6336",
"#. c #766B34",
"$. c #776838",
"%. c #5B5544",
"&. c #655D45",
"*. c #6B6348",
"=. c #786C43",
"-. c #7D7248",
";. c #6A6656",
":. c #746D56",
">. c #825B05",
",. c #85600E",
"<. c #93680A",
"1. c #84651C",
"2. c #876B1F",
"3. c #8A6817",
"4. c #966E18",
"5. c #9A7418",
"6. c #A67C1C",
"7. c #A0740E",
"8. c #866926",
"9. c #8C6E25",
"0. c #896626",
"q. c #92752B",
"w. c #9A7A26",
"e. c #846D38",
"r. c #8A7538",
"t. c #927631",
"y. c #957933",
"u. c #947A3B",
"i. c #957A36",
"p. c #906F37",
"a. c #A4792E",
"s. c #836D43",
"d. c #8B7A44",
"f. c #877649",
"g. c #927C4A",
"h. c #897C59",
"j. c #887F68",
"k. c #AD831A",
"l. c #B3881A",
"z. c #BE921E",
"x. c #998638",
"c. c #8F813D",
"v. c #A78326",
"b. c #B48C24",
"n. c #BB8529",
"m. c #B38B2A",
"M. c #BC9326",
"N. c #A58736",
"B. c #B79337",
"V. c #AE913C",
"C. c #BDA23A",
"Z. c #C1872A",
"A. c #C49928",
"S. c #C39A36",
"D. c #C69336",
"F. c #CDA431",
"G. c #D0A831",
"H. c #99884A",
"J. c #9D8B53",
"K. c #9C8C5C",
"L. c #978656",
"P. c #998C4C",
"I. c #A58A46",
"U. c #A89547",
"Y. c #B5994A",
"T. c #A89857",
"R. c #B39A52",
"E. c #B49D5C",
"W. c #B79B56",
"Q. c #A48E50",
"!. c #B5A24B",
"~. c #BCA558",
"^. c #8C8369",
"/. c #938C74",
"(. c #9D9374",
"). c #938A6E",
"_. c #AD9969",
"`. c #B29C64",
"'. c #A1967A",
"]. c #B09F73",
"[. c #B8A467",
"{. c #B5A87C",
"}. c #D49E41",
"|. c #C6A546",
" X c #CBB64B",
".X c #C7A954",
"XX c #DAAC56",
"oX c #CDB555",
"OX c #D9B95A",
"+X c #E1B356",
"@X c #CBB56C",
"#X c #CBB467",
"$X c #D6BA66",
"%X c #C7B576",
"&X c #D1BC75",
"*X c #C6AB68",
"=X c #DFC954",
"-X c #DEC857",
";X c #E2CC5C",
":X c #E6CB56",
">X c #EBD357",
",X c #EBD35A",
"<X c #F2DA58",
"1X c #E6CC4E",
"2X c #F9E05A",
"3X c #DAC469",
"4X c #DBC476",
"5X c #E1C465",
"6X c #E4CB65",
"7X c #E3C46B",
"8X c #EBCB64",
"9X c #F3DB66",
"0X c #E5C776",
"qX c #ECD97A",
"wX c #EBD277",
"eX c #F2DC74",
"rX c #F2DE7C",
"tX c #F2D374",
"yX c #FCE56D",
"uX c #F9E371",
"iX c #A79C81",
"pX c #ADA485",
"aX c #B1A98B",
"sX c #BDB395",
"dX c #BEB78B",
"fX c #C7B888",
"gX c #C8BB93",
"hX c #D6BD88",
"jX c #DAC787",
"kX c #D9C794",
"lX c #CEC29B",
"zX c #E9CC87",
"xX c #EBD592",
"cX c #EACF95",
"vX c #F6E388",
"bX c #F3E596",
"nX c #CEC4A2",
"mX c #D7CDAA",
"MX c #E8D7A7",
"NX c #EADCB6",
"BX c #F1DBAD",
"VX c #F2E2AD",
"CX c #F4E8A8",
"ZX c #FEF3A9",
"AX c #FBECBD",
"SX c #F5E4B7",
"DX c #F8EBC5",
"FX c #FEF2C4",
"GX c #FFF4CC",
"HX c #FFFACC",
"JX c #FFFAD5",
"KX c #FFFEDA",
"LX c #FFF3D4",
"PX c #F5EDD0",
"IX c #FFFFE0",
"UX c None",
/* pixels */
"UXUXUXUXUXUXUXUXUXUXUXUXUXUXUXUXUXUXUXUXUXUXUXUXUXUXUXMXSXSXAXAXDXFXGXJXJXUXUXUXUXUXUXUXUXUXUXUXUXUXUXUXUXUXUXUXUXUXUXUXUXUXUXUX",
"UXUXUXUXUXUXUXUXUXUXUXUXUXUXUXUXUXUXUXUXUXUXUXR.N.q.i.f.f.*.&.%.%.*.:.^.pXnXDXJXIXUXUXUXUXUXUXUXUXUXUXUXUXUXUXUXUXUXUXUXUXUXUXUX",
"UXUXUXUXUXUXUXUXUXUXUXUXUXUXUXUXUXUXUXUXW.w.) Z q $                         1 { ^.mXFXGXUXUXUXUXUXUXUXUXUXUXUXUXUXUXUXUXUXUXUXUX",
"UXUXUXUXUXUXUXUXUXUXUXUXUXUXUXUXUXUXy.! G 9 X             .       o .             o x ^.%XjXUXUXUXUXUXUXUXUXUXUXUXUXUXUXUXUXUXUX",
"UXUXUXUXUXUXUXUXUXUXUXUXUXUXUXUX8.( V &                                       o         & ' i.E.UXUXUXUXUXUXUXUXUXUXUXUXUXUXUXUX",
"UXUXUXUXUXUXUXUXUXUXUXUXUXUXd.I B &                                                 .       # K 9._.UXUXUXUXUXUXUXUXUXUXUXUXUXUX",
"UXUXUXUXUXUXUXUXUXUXUXUXUX/ C 4                                                                 4 Q u.UXUXUXUXUXUXUXUXUXUXUXUXUX",
"UXUXUXUXUXUXUXUXUXUXUXUXI B @                                                                     . A 1.UXUXUXUXUXUXUXUXUXUXUXUX",
"UXUXUXUXUXUXUXUXUXUXL.R N                                                                             p 1.UXUXUXUXUXUXUXUXUXUXUX",
"UXUXUXUXUXUXUXUXUX].9.s                                                                                 9 1.].UXUXUXUXUXUXUXUXUX",
"UXUXUXUXUXUXUXUXgXY.F                                                                                     e y.UXUXUXUXUXUXUXUXUX",
"UXUXUXUXUXUXUXUX#XO.                                                                                        x @XUXUXUXUXUXUXUXUX",
"UXUXUXUXUXUXUX@X-.                                                                                            *.SXUXUXUXUXUXUXUX",
"UXUXUXUXUXUX&XK.                                                                                                '.JXUXUXUXUXUXUX",
"UXUXUXUXUXfX~.7                                                                                                 & mXUXUXUXUXUXUX",
"UXUXUXUXUXW.|                                                                                                 .   { FXUXUXUXUXUX",
"UXUXUXUXR.e.                              = 8                                   X .                                 (.AXUXUXUXUX",
"UXUXUXUX4.a                               i '                                   d X                                 t jXUXUXUXUX",
"UXUXUXy.Q                                 r V.                                  +.X                         . $ X     f.xXUXUXUX",
"UXUXUXR e     .                           r =X8                               $ x.X                         . Q X     y 4XUXUXUX",
"UXUXs.C O     q                           f 2X#.            . | &             A v.#                         Q 2.        K.VXUXUX",
"UXUXY p       S 6                     .   K <X X$         . . [._           X 4.6.%                       q G.L   .     { CXUXUX",
"UXUXC 4       5 ~                         +.>X>X#.  .       1 bXT.      .   J k.6.9                     % b.M.5         > MXUXUX",
"UXs.Z o         1.d                   .   N.>X1X=Xr   .     &.ZXqXd   .   i m.N.6.N                   X w.F.5..       o   pXKXUX",
"UX/ S           M v.O                   @  X,X;X:X X=   .   dXCXrXR.    8 F.H.e 5.E                 . q.A.z.!         .   ;.KXUX",
"UX3.a             4.$.  .               A <X;X;X:X:X Xa . c ZX^.~.uX] < ~.d.,   ~ 4.              . 9.G.b.z.Z             x GXUX",
"UX3.6             0 A.|             .   I.8X;X6X=X=X:XC.$ K.bX> -.uXoX_ 6 o + ; = v.9           . y.G.M.l.l.0             , NXUX",
"_.1.#             o I S.|       .     ` wX5X5X6X-X=X<XX.a yX@.O z -XeXT.; ; , +   A y.    o   @ V.OXS.M.k.5.X               gXLX",
"`.8.o               + R D.=.+       A zXcX7X7X6X-X2XP.O =X!.: t 3 =.uXeXT.& + > # . ` X.    q ~.3X|.F.K 3.,.                pXGX",
"`.r.                . & ( m.R.e.$.I.BXDXcX0X7X8XyXP.: V.-Xh , l 2 2 ~.eXrX[.u o O ; O t i o.$X0XoX|.L   7.G                 (.GX",
"[.d.                X o @ Z <.b.OXSXDXNXMXzXtX7X#.g P.!.l m 2 k l g x 3XqXvX4X$.c e S E B.7X4X0X~.S o & 7.w                 ).GX",
"#XH.                o X X o 5 Y B.cXDXDXSXhXg.F } c.#.3 k m 3 k 2 l g [ wXrXqXeXXXD.Z.D.XX4XwXL.< ; ; % <.@             o   j.GX",
"&XP.                o   . + O O = c %.;.{ z , D D 7 g 7 v v h l l h k 2 { 3XvXwX+XD.Z.D.+X*X| + . < O 9 >.                  ^.GX",
"@XJ.                  . . . + , +   o > , t 1 j 3 g b l b v 2 m h l v k l g -.#XXXD.n.a.X.&   , + > O N U               o   /.GX",
"@XT.                  . O o . > , o & 2 , 2 > l h 7 l h b v , l 2 h m k h , 2 2 c s e 2 O . + ; + # o S N                   iXGX",
"%XR.o                 . o . + + + . + 3 & 3 , h 2 h h 7 m h + l 2 l m l h 3 k 2 > O ; 2 3 . O , O + o B 5                   sXLX",
"%X!.2                 # . o ; ; , o X , > , > h 3 l k l b h o k 2 k v k l 3 z l 2 , + 3 < O . ; + # O B X                 X mXLX",
"UX.Xc                 X 5 . . > ,   + 3 , , , , , 7 h l b h   k 2 m k k t 2 2 2 2 # > < , o   , ; > . w               o   h PXUX",
"UX$XO.                  5 % o ; +   O < , , < , , 2 , h b l o h , 7 k v j > , , 2 > , 3 , .   , + ; X %                   %.KXUX",
"UX4XL.                  % M o + o   X , & , > 3 , h , g h l + 7 , 2 l k h O 2 , 2 + + < 3     ; + # . X                   /.KXUX",
"UXjX*X;                   G 5 O X   o , , , , 2 < 3 < l l l + h > 3 z v l O 1 + 3 + + , < o . , ; # o                     nXKXUX",
"UXUX3X}                   M U O .   o 2 , # > < 2   > k m l X 2 o , k l t + < ; , , O < 3   . + & +                     z MXUXUX",
"UXUX$XL.                  5 >.w     o < o > + > < o > h m h   > o > k 2 + o + + o > o , , .   . + O                     *.&XUXUX",
"UXUX[.Y.1                 @ I I # X * l 1 t 2 1 y & 1 y n z + t 1 u z z 6 # & 1 & = & 6 t & & = * +                   X r.`.UXUX",
"UXUXUXv...                . I >.<.6.D.0XBXSXBXzX8X1X1X:X-Xx.c.#.c.@.3XrX3X-XXX}.Z.Z.D.XX$X$X.XB.k.,.                  a 2.UXUXUX",
"UXUXUXq.8.,               . M V C Y o.d.(.'.(.K.H.x.x.x.x.#.#.#.#.@.P.Q.P.H.u.0./ 1.0.t.g.g.e.o.Q H                 o Q t.UXUXUX",
"UXUXUXUX>.`                                                                                                         p ! UXUXUXUX",
"UXUXUXUX8.! 2                       .       .     .     o             .       .         .   .                     # ~ u.UXUXUXUX",
"UXUXUXUXUXP ' o                                                                                                   K 2.UXUXUXUXUX",
"UXUXUXUXUXf.P D                                                                                                 p q.`.UXUXUXUXUX",
"UXUXUXUXUXUXJ Y y                                                                                         .   1 Q.[.UXUXUXUXUXUX",
"UXUXUXUXUXUXUXC W <                                                                                         + {.jXUXUXUXUXUXUXUX",
"UXUXUXUXUXUXUXUXP +.,                                                                                     X aXAXUXUXUXUXUXUXUXUX",
"UXUXUXUXUXUXUXUXg.w.J.&                                                                                 o aXHXUXUXUXUXUXUXUXUXUX",
"UXUXUXUXUXUXUXUXUXaXoX[.2                                                                             & sXHXPXUXUXUXUXUXUXUXUXUX",
"UXUXUXUXUXUXUXUXUXUXgXOX@Xc   .                                                                     j lXFXUXUXUXUXUXUXUXUXUXUXUX",
"UXUXUXUXUXUXUXUXUXUXUXUX$X4X&.            .                                         .             [ kXVXUXUXUXUXUXUXUXUXUXUXUXUX",
"UXUXUXUXUXUXUXUXUXUXUXUXUX.X.XH.l       . 9 8 X                               . * i *         $ @.*XkXUXUXUXUXUXUXUXUXUXUXUXUXUX",
"UXUXUXUXUXUXUXUXUXUXUXUXUXUX_.N.N.O.1     4 i 4 8 8 $ X .             . $ = 8 9 s r @     # ` g.E.gXUXUXUXUXUXUXUXUXUXUXUXUXUXUX",
"UXUXUXUXUXUXUXUXUXUXUXUXUXUXUXUXr.4.8.' 6       = 9 f r i r i = = i i 9 = r r * .     & ` r.I.[.UXUXUXUXUXUXUXUXUXUXUXUXUXUXUXUX",
"UXUXUXUXUXUXUXUXUXUXUXUXUXUXUXUXUXUXo.R Y E s < o   o X X % * $ X 4 $ #         @ p X.t.I.`.UXUXUXUXUXUXUXUXUXUXUXUXUXUXUXUXUXUX",
"UXUXUXUXUXUXUXUXUXUXUXUXUXUXUXUXUXUXUXUX$.I I Y G A i * & o o   .   o # 4 d ' +.q.N.N.`.UXUXUXUXUXUXUXUXUXUXUXUXUXUXUXUXUXUXUXUX",
"UXUXUXUXUXUXUXUXUXUXUXUXUXUXUXUXUXUXUXUXUXUXUXo.Y U P P T U G G U Q ^ q.x.V.Y.Y.E.UXUXUXUXUXUXUXUXUXUXUXUXUXUXUXUXUXUXUXUXUXUXUX",
"UXUXUXUXUXUXUXUXUXUXUXUXUXUXUXUXUXUXUXUXUXUXUXUXUXUXh.e.o.~ ^ / 1.9.i.I.`.fXUXUXUXUXUXUXUXUXUXUXUXUXUXUXUXUXUXUXUXUXUXUXUXUXUXUX"
};
