/* XPM */
static char *_fc518bc08a14d479887c7bb02b5db31[] = {
/* columns rows colors chars-per-pixel */
"16 16 44 1 ",
"  c #0079DE",
". c #007ADF",
"X c #007DDF",
"o c #0080E0",
"O c #0082E1",
"+ c #0084E1",
"@ c #0087E1",
"# c #0087E2",
"$ c #0088E2",
"% c #0089E2",
"& c #008AE2",
"* c #008AE3",
"= c #008BE3",
"- c #008CE3",
"; c #088FE4",
": c #0C90E4",
"> c #0C91E4",
", c #0F92E5",
"< c #1F99E7",
"1 c #1F9AE6",
"2 c #2099E6",
"3 c #38A3E8",
"4 c #38A2E9",
"5 c #3EA4E9",
"6 c #44AAEA",
"7 c #4BABEB",
"8 c #5FB4EC",
"9 c #61B5EC",
"0 c #79BFF0",
"q c #82C4F1",
"w c #9FD2F4",
"e c #A1D4F5",
"r c #A4D5F5",
"t c #AED7F5",
"y c #B5DBF6",
"u c #B8DEF7",
"i c #B9DEF7",
"p c #C7E4F8",
"a c #C8E4F8",
"s c #C9E4F8",
"d c #F3FAFE",
"f c #F4FAFE",
"g c gray100",
"h c None",
/* pixels */
"h--------------h",
"----------------",
"----------------",
"----------------",
"-----%8998<#----",
"-----#ggggg0%---",
"----%%  X:df#---",
"---#ipat%%sd#---",
"---2ewe6%Ogi%---",
"----%;,,<yg7----",
"----Ogggggq%----",
"----%5443%%-----",
"----------------",
"----------------",
"----------------",
"h-------------hh"
};
