/* XPM */
static char *bitcoin__[] = {
/* columns rows colors chars-per-pixel */
"32 32 2 1",
"  c #2D98CE",
". c None",
/* pixels */
"................................",
"................................",
"................................",
"................................",
"................................",
"................................",
"................................",
".....                      .....",
"......                        ..",
".......                        .",
".......                         ",
"........                        ",
".      ..     ............      ",
".      ...    ............      ",
"..      ..    .............     ",
"...      ..   .............     ",
"...       ..  .............     ",
"....      ... .............     ",
".....      ...............      ",
"......      ..............      ",
".......                         ",
".......                         ",
"........                       .",
".........                     ..",
"..........                   ...",
"................................",
"................................",
"................................",
"................................",
"................................",
"................................",
"................................"
};
