/* XPM */
static char *e7479ac2bfa442adc4f6ee72fda97618[] = {
/* columns rows colors chars-per-pixel */
"32 32 68 1 ",
"  c #007EDF",
". c #007FE0",
"X c #0080E0",
"o c #0082E0",
"O c #0082E1",
"+ c #0084E1",
"@ c #0085E2",
"# c #0086E2",
"$ c #0087E2",
"% c #0088E2",
"& c #0089E2",
"* c #0089E3",
"= c #008AE2",
"- c #008AE3",
"; c #008BE3",
": c #008CE3",
"> c #018CE3",
", c #008DE3",
"< c #068DE3",
"1 c #098DE3",
"2 c #0A90E4",
"3 c #0E92E5",
"4 c #1D99E6",
"5 c #2097E6",
"6 c #209AE7",
"7 c #249BE7",
"8 c #2A9EE7",
"9 c #2C9FE7",
"0 c #38A3E9",
"q c #3AA4E9",
"w c #3DA7EA",
"e c #42A9EA",
"r c #51AEEB",
"t c #50B0EC",
"y c #64B5ED",
"u c #64B7ED",
"i c #65B9EE",
"p c #74BFEF",
"a c #7FBEEF",
"s c #79BEF0",
"d c #76C0EF",
"f c #80BFF0",
"g c #80C0EF",
"h c #82C1F0",
"j c #80C2F0",
"k c #87C2F1",
"l c #88C6F1",
"z c #89C7F2",
"x c #8AC7F2",
"c c #92CEF3",
"v c #94CDF3",
"b c #A1D5F5",
"n c #A4D5F5",
"m c #B1DBF6",
"M c #B4DCF7",
"N c #BCDFF7",
"B c #BDE0F7",
"V c #C7E5F9",
"C c #C8E4F8",
"Z c #CEE8F9",
"A c #DBEEFB",
"S c #DAEFFB",
"D c #DDF0FB",
"F c #EDF7FD",
"G c #F5FBFE",
"H c #FEFFFF",
"J c gray100",
"K c None",
/* pixels */
"KKKK::::::::::::::::::::::::KKKK",
"KK::::::::::::::::::::::::::::KK",
"K::::::::::::::::::::::::::::::K",
"K::::::::::::::::::::::::::::::K",
":::::::::::::::::::::::::::::::K",
":::::::::::::::::::::::::::::::K",
":::::::::::::::::::::::::::::::K",
":::::::::::::::-:::::::::::::::K",
"::::::::::::--$-$---:::::::::::K",
":::::::::::$mCCCCCCBx6--:::::::K",
":::::::::::oJJJJJJJJJJv$:::::::K",
":::::::::::9JJJJJJJJJJJr:::::::K",
"::::::::::,- .o. X3dJJJM-::::::K",
"::::::::::,,:::::::-bJJD$::::::K",
"::::::::8hhahaau-:::aJJS$-:::::K",
":::::::1JJJJJJJz::::cJJN-::::::K",
"::::::-uJJJJJJJ4:::$SJJl-::::::K",
":::::::600000q<::::1JJJw:::::::K",
"::::::::::::::::::$CJJGX:::::::K",
"::::::::::700000epFJJJt::::::::K",
":::::::::$ZJJJJJJJJJJn$::::::::K",
":::::::::oJJJJJJJJJJu$:::::::::K",
"::::::::::kfhaahgse$-::::::::::K",
"::::::::::::,,,::::::::::::::::K",
":::::::::::::::::::::::::::::::K",
":::::::::::::::::::::::::::::::K",
":::::::::::::::::::::::::::::::K",
":::::::::::::::::::::::::::::::K",
"K::::::::::::::::::::::::::::::K",
"K::::::::::::::::::::::::::::::K",
"KK::::::::::::::::::::::::::::KK",
"KKKKKKKKKKKKKKKKKKKKKKKKKKKKKKKK"
};
