/* XPM */
static char *_7e18dc4dcec431e8bd41cf280fa50df[] = {
/* columns rows colors chars-per-pixel */
"64 64 94 2 ",
"   c #0081E0",
".  c #0081E1",
"X  c #0082E0",
"o  c #0082E1",
"O  c #0084E1",
"+  c #0085E1",
"@  c #0085E2",
"#  c #0086E2",
"$  c #0087E2",
"%  c #0088E2",
"&  c #0089E2",
"*  c #008AE2",
"=  c #008AE3",
"-  c #008BE3",
";  c #028BE3",
":  c #008CE3",
">  c #018CE3",
",  c #068FE4",
"<  c #088FE4",
"1  c #0A8EE4",
"2  c #0B8EE4",
"3  c #0890E4",
"4  c #0990E4",
"5  c #0E93E5",
"6  c #1995E5",
"7  c #1896E6",
"8  c #1897E6",
"9  c #1A98E6",
"0  c #1D98E6",
"q  c #1D99E6",
"w  c #209BE7",
"e  c #219BE7",
"r  c #239AE7",
"t  c #35A4E9",
"y  c #3AA6E9",
"u  c #40A8EA",
"i  c #42A9EA",
"p  c #4BACEB",
"a  c #55B1EC",
"s  c #56B1EC",
"d  c #58B2EC",
"f  c #5AB2ED",
"g  c #5DB6ED",
"h  c #5EB6ED",
"j  c #60B5ED",
"k  c #61B5ED",
"l  c #6FBCEF",
"z  c #71BBEE",
"x  c #71BEEF",
"c  c #77BFEF",
"v  c #76C0F0",
"b  c #78C1F0",
"n  c #7BC0F0",
"m  c #7BC1F0",
"M  c #7EC2F0",
"N  c #7FC3F0",
"B  c #7EC3F1",
"V  c #80C2F0",
"C  c #81C2F0",
"Z  c #80C3F0",
"A  c #83C3F0",
"S  c #86C7F1",
"D  c #89C5F1",
"F  c #85C8F1",
"G  c #8ECBF2",
"H  c #91CCF2",
"J  c #95CFF3",
"K  c #96D0F4",
"L  c #9BD2F4",
"P  c #9CD2F4",
"I  c #9ED4F4",
"U  c #A2D5F5",
"Y  c #A4D6F5",
"T  c #AAD9F6",
"R  c #ADDAF6",
"E  c #AEDBF6",
"W  c #B1DCF7",
"Q  c #B3DDF6",
"!  c #B4DDF7",
"~  c #B5DEF7",
"^  c #BEE2F8",
"/  c #C1E4F9",
"(  c #C5E5F9",
")  c #C6E5F9",
"_  c #D1EAFA",
"`  c #DCEFFB",
"'  c #E2F2FC",
"]  c #ECF7FD",
"[  c #EEF7FD",
"{  c #F7FBFE",
"}  c #F9FCFE",
"|  c #FEFFFF",
" . c gray100",
".. c None",
/* pixels */
"................................................................................................................................",
"............: : : : : : : : : : : : : : : : : : : : : : : : : : : : : : : : : : : : : : : : : : : : : : : : : : : : ............",
"........: : : : : : : : : : : : : : : : : : : : : : : : : : : : : : : : : : : : : : : : : : : : : : : : : : : : : : : : ........",
"......: : : : : : : : : : : : : : : : : : : : : : : : : : : : : : : : : : : : : : : : : : : : : : : : : : : : : : : : : : ......",
"....: : : : : : : : : : : : : : : : : : : : : : : : : : : : : : : : : : : : : : : : : : : : : : : : : : : : : : : : : : : ......",
"..: : : : : : : : : : : : : : : : : : : : : : : : : : : : : : : : : : : : : : : : : : : : : : : : : : : : : : : : : : : : : ....",
"..: : : : : : : : : : : : : : : : : : : : : : : : : : : : : : : : : : : : : : : : : : : : : : : : : : : : : : : : : : : : : ....",
"..: : : : : : : : : : : : : : : : : : : : : : : : : : : : : : : : : : : : : : : : : : : : : : : : : : : : : : : : : : : : : ....",
"..: : : : : : : : : : : : : : : : : : : : : : : : : : : : : : : : : : : : : : : : : : : : : : : : : : : : : : : : : : : : : : ..",
"..: : : : : : : : : : : : : : : : : : : : : : : : : : : : : : : : : : : : : : : : : : : : : : : : : : : : : : : : : : : : : : ..",
"..: : : : : : : : : : : : : : : : : : : : : : : : : : : : : : : : : : : : : : : : : : : : : : : : : : : : : : : : : : : : : : ..",
"..: : : : : : : : : : : : : : : : : : : : : : : : : : : : : : : : : : : : : : : : : : : : : : : : : : : : : : : : : : : : : : ..",
"..: : : : : : : : : : : : : : : : : : : : : : : : : : : : : : : : : : : : : : : : : : : : : : : : : : : : : : : : : : : : : : ..",
"..: : : : : : : : : : : : : : : : : : : : : : : : : : : : : : : : : : : : : : : : : : : : : : : : : : : : : : : : : : : : : : ..",
"..: : : : : : : : : : : : : : : : : : : : : : : : : : : : : : : : : : : : : : : : : : : : : : : : : : : : : : : : : : : : : : ..",
"..: : : : : : : : : : : : : : : : : : : : : : : : : : : : : : : : : : : : : : : : : : : : : : : : : : : : : : : : : : : : : : ..",
"..: : : : : : : : : : : : : : : : : : : : : : : : : : : : : : : : : : : : : : : : : : : : : : : : : : : : : : : : : : : : : : ..",
"..: : : : : : : : : : : : : : : : : : : : : : : - - : : : : : : : : : - : : : : : : : : : : : : : : : : : : : : : : : : : : : ..",
"..: : : : : : : : : : : : : : : : : : : : - : - p Z Z Z Z Z Z Z Z Z Z Z Z Z n d w   - : : : : : : : : : : : : : : : : : : : : ..",
"..: : : : : : : : : : : : : : : : : : : : - - - (  . . . . . . . . . . . . . . . . .P 6 - : : : : : : : : : : : : : : : : : : ..",
"..: : : : : : : : : : : : : : : : : : : : : : X  . . . . . . . . . . . . . . . . . . . .G $ - : : : : : : : : : : : : : : : : ..",
"..: : : : : : : : : : : : : : : : : : : : : : ,  . . . . . . . . . . . . . . . . . . . . .~ $ - : : : : : : : : : : : : : : : ..",
"..: : : : : : : : : : : : : : : : : : : : : : i  . . . . . . . . . . . . . . . . . . . . . .h - : : : : : : : : : : : : : : : ..",
"..: : : : : : : : : : : : : : : : : : : : : : Z  . . . . . . . . . . . . . . . . . . . . . .{ $ : : : : : : : : : : : : : : : ..",
"..: : : : : : : : : : : : : : : : : : : : : : - .       X X X X       - 6 d ~  . . . . . . . .y : : : : : : : : : : : : : : : ..",
"..: : : : : : : : : : : : : : : : : : : : : : : - - : - : : - - : : : : - : $ t  . . . . . . .c : : : : : : : : : : : : : : : ..",
"..: : : : : : : : : : : : : : : : : : : : : : : : : : : : : - - : : : : : : : : c  . . . . . .L - : : : : : : : : : : : : : : ..",
"..: : : : : : : : : : : : : : : : : : : : : : : : : : : : : - - : : : : : : : : 5  . . . . . .R - : : : : : : : : : : : : : : ..",
"..: : : : : : : : : : : : : : : : -   $   $ $   $ $   $ $   $ - : : : : : : : : X  . . . . . .T - - : : : : : : : : : : : : : ..",
"..: : : : : : : : : : : : : : : 6 ^  . . . . . . . . . . . . .v : : : : : : : : X  . . . . . .J - - : : : : : : : : : : : : : ..",
"..: : : : : : : : : : : : : : $ {  . . . . . . . . . . . . . .e : : : : : : : : ,  . . . . . .M : : : : : : : : : : : : : : : ..",
"..: : : : : : : : : : : : : : k  . . . . . . . . . . . . . . .  : : : : : : : : i  . . . . . .a : : : : : : : : : : : : : : : ..",
"..: : : : : : : : : : : : : = I  . . . . . . . . . . . . . .U - : : : : : : : : B  . . . . . .q : : : : : : : : : : : : : : : ..",
"..: : : : : : : : : : : : = $ ]  . . . . . . . . . . . . .] 2 : : : : : : : - - (  . . . . . .  : : : : : : : : : : : : : : : ..",
"..: : : : : : : : : : : : : $ D Z Z Z Z Z Z Z Z Z Z Z Z a $ : : : : : : : : - -  . . . . . .W - : : : : : : : : : : : : : : : ..",
"..: : : : : : : : : : : : : : : - - - - - - : : - - : : : : : : : : : : : : : z  . . . . . .k : : : : : : : : : : : : : : : : ..",
"..: : : : : : : : : : : : : : : - : : : : : : : - : : : : : : : : : : : : : 2  . . . . . . .$ : : : : : : : : : : : : : : : : ..",
"..: : : : : : : : : : : : : : : - : : : : : : : : : : : : - : : : : : : : 2 '  . . . . . .H - : : : : : : : : : : : : : : : : ..",
"..: : : : : : : : : : : : : : : : : : : - - - - - - : : - - : : : - $ : v  . . . . . . . .- : : : : : : : : : : : : : : : : : ..",
"..: : : : : : : : : : : : : : : : : : : r Z Z Z Z Z Z Z Z Z Z B F Y `  . . . . . . . . .h - : : : : : : : : : : : : : : : : : ..",
"..: : : : : : : : : : : : : : : : : : : z  . . . . . . . . . . . . . . . . . . . . . .W $ - : : : : : : : : : : : : : : : : : ..",
"..: : : : : : : : : : : : : : : : : : - K  . . . . . . . . . . . . . . . . . . . . ./ $ : : : : : : : : : : : : : : : : : : : ..",
"..: : : : : : : : : : : : : : : : : : $ _  . . . . . . . . . . . . . . . . . . . .F   : : : : : : : : : : : : : : : : : : : : ..",
"..: : : : : : : : : : : : : : : : : :    . . . . . . . . . . . . . . . . . . .~ 0 : : : : : : : : : : : : : : : : : : : : : : ..",
"..: : : : : : : : : : : : : : : : : : 9  . . . . . . . . . . . . . . .' R z 4 - - : : : : : : : : : : : : : : : : : : : : : : ..",
"..: : : : : : : : : : : : : : : : : : =                         X X   $ - : : : : : : : : : : : : : : : : : : : : : : : : : : ..",
"..: : : : : : : : : : : : : : : : : : : : : : : : : : : : : : : - : : : : : : : : : : : : : : : : : : : : : : : : : : : : : : ..",
"..: : : : : : : : : : : : : : : : : : : : : : : : : : : : : : : - : : : : : : : : : : : : : : : : : : : : : : : : : : : : : : ..",
"..: : : : : : : : : : : : : : : : : : : : : : : : : : : : : : : : : : : : : : : : : : : : : : : : : : : : : : : : : : : : : : ..",
"..: : : : : : : : : : : : : : : : : : : : : : : : : : : : : : : : : : : : : : : : : : : : : : : : : : : : : : : : : : : : : : ..",
"..: : : : : : : : : : : : : : : : : : : : : : : : : : : : : : : : : : : : : : : : : : : : : : : : : : : : : : : : : : : : : : ..",
"..: : : : : : : : : : : : : : : : : : : : : : : : : : : : : : : : : : : : : : : : : : : : : : : : : : : : : : : : : : : : : : ..",
"..: : : : : : : : : : : : : : : : : : : : : : : : : : : : : : : : : : : : : : : : : : : : : : : : : : : : : : : : : : : : : : ..",
"..: : : : : : : : : : : : : : : : : : : : : : : : : : : : : : : : : : : : : : : : : : : : : : : : : : : : : : : : : : : : : : ..",
"..: : : : : : : : : : : : : : : : : : : : : : : : : : : : : : : : : : : : : : : : : : : : : : : : : : : : : : : : : : : : : : ..",
"..: : : : : : : : : : : : : : : : : : : : : : : : : : : : : : : : : : : : : : : : : : : : : : : : : : : : : : : : : : : : : : ..",
"..: : : : : : : : : : : : : : : : : : : : : : : : : : : : : : : : : : : : : : : : : : : : : : : : : : : : : : : : : : : : : ....",
"..: : : : : : : : : : : : : : : : : : : : : : : : : : : : : : : : : : : : : : : : : : : : : : : : : : : : : : : : : : : : : ....",
"....: : : : : : : : : : : : : : : : : : : : : : : : : : : : : : : : : : : : : : : : : : : : : : : : : : : : : : : : : : : : ....",
"....: : : : : : : : : : : : : : : : : : : : : : : : : : : : : : : : : : : : : : : : : : : : : : : : : : : : : : : : : : : ......",
"......: : : : : : : : : : : : : : : : : : : : : : : : : : : : : : : : : : : : : : : : : : : : : : : : : : : : : : : : : ........",
"........: : : : : : : : : : : : : : : : : : : : : : : : : : : : : : : : : : : : : : : : : : : : : : : : : : : : : : : ..........",
"................: : : : : : : : : : : : : : : : : : : : : : : : : : : : : : : : : : : : : : : : : : : : : : : : ................",
"................................................................................................................................"
};
