/* XPM */
static char * Z:\data\share\Software\Z_Mining\0_dev\Darkcoin\DASH\New_Gitian\pixmaps\dash16_xpm[] = {
"16 16 2 1",
" 	c None",
".	c #1C75BC",
"                ",
"                ",
"                ",
"    ........... ",
"   .............",
"   .............",
"            ....",
" .....      ... ",
"......      ... ",
"           .... ",
" .............  ",
" .............  ",
" ...........    ",
"                ",
"                ",
"                "};
