/* XPM */
static char *Free_Converter_com_iop16_93101623[] = {
/* columns rows colors chars-per-pixel */
"16 16 112 2 ",
"   c #27B6B4",
".  c #2BB7B6",
"X  c #2AB7B7",
"o  c #31B7B9",
"O  c #40B9C6",
"+  c #44B9C8",
"@  c #49B9CB",
"#  c #4CBACB",
"$  c #4BBACF",
"%  c #56BEC3",
"&  c #51BCC6",
"*  c #59BFC0",
"=  c #5EBFCA",
"-  c #58BDCE",
";  c #4DBAD0",
":  c #51BBD3",
">  c #52BCD4",
",  c #5BBDD7",
"<  c #55BBD9",
"1  c #5ABDDC",
"2  c #5BBCE2",
"3  c #5FBEE3",
"4  c #5BBDE4",
"5  c #5CBDE4",
"6  c #5DBCE6",
"7  c #5EBDE7",
"8  c #5FBDE8",
"9  c #5DC0C3",
"0  c #5EC0C5",
"q  c #64C1C3",
"w  c #68C2C6",
"e  c #62C0C8",
"r  c #64C1CC",
"t  c #66C1CF",
"y  c #72C5CF",
"u  c #6CC3D5",
"i  c #6BC2D8",
"p  c #76C6D1",
"a  c #71C3D4",
"s  c #76C5D9",
"d  c #68C0E5",
"f  c #70C2E3",
"g  c #82CBD7",
"h  c #87CCD6",
"j  c #82C9D9",
"k  c #80C8DA",
"l  c #80C8DE",
"z  c #8FCED9",
"x  c #8BCDDF",
"c  c #91CFD2",
"v  c #96D1D4",
"b  c #99D3D4",
"n  c #A4D7D9",
"m  c #A7D9DA",
"M  c #AAD8DD",
"N  c #ABDADF",
"B  c #B6DFDF",
"V  c #B9E0DD",
"C  c #86CBE0",
"Z  c #8ACCE0",
"A  c #8BCCE2",
"S  c #8DCDE4",
"D  c #8ECDE7",
"F  c #8ECDEA",
"G  c #9CD2E2",
"H  c #9DD3EA",
"J  c #A2D5E0",
"K  c #A1D6E3",
"L  c #A4D6E2",
"P  c #ABD9E3",
"I  c #AFDCE5",
"U  c #A4D6E9",
"Y  c #A2D5EE",
"T  c #ACDAE8",
"R  c #ADDAEB",
"E  c #AFDCE8",
"W  c #B1DDE1",
"Q  c #B3DDE0",
"!  c #B1DCE5",
"~  c #B6DEE5",
"^  c #B9DFE1",
"/  c #B2DCEB",
"(  c #BCE1E2",
")  c #BFE2E3",
"_  c #BDE2E5",
"`  c #BEE1F1",
"'  c #C9E7E4",
"]  c #C3E3E9",
"[  c #C2E6EB",
"{  c #C5E4E8",
"}  c #C7E5EB",
"|  c #C4E6EB",
" . c #C8E6EB",
".. c #C9E8E8",
"X. c #CAE8EB",
"o. c #CCE9ED",
"O. c #D3EBEA",
"+. c #D4ECEA",
"@. c #D1EBEC",
"#. c #D5EDEC",
"$. c #D8EEEB",
"%. c #DDF0ED",
"&. c #DDF0EE",
"*. c #DDF0EF",
"=. c #CFEAF3",
"-. c #CEE8F5",
";. c #D9EFF1",
":. c #DDF1F3",
">. c #DEF1F4",
",. c #E2F2F3",
"<. c #EBF7F9",
"1. c None",
/* pixels */
"1.1.1.1.1.1.1.1.1.1.1.1.1.1.1.1.",
"1.1.1.1.1.1.1.1.1.1.1.1.1.1.1.1.",
"1.1.1.1.1.t r e 0 9 * 1.1.1.1.1.",
"1.1.1.1.u { { _ Q _ #.X X 1.1.1.",
"1.1.1.> <.o.@...:.%.n q X 1.1.1.",
"1.1.< l K :.g p y m V O.o 1.1.1.",
"1.1.1 =.[ I $ @ + = $.b c 1.1.1.",
"1.1.H / ;.i G j n z v %.^ w 1.1.",
"1.1.f T >.Z C k a $ B ) ,.% 1.1.",
"1.1.3 -./ | , > ; h ' M & 1.1.1.",
"1.1.4 3 ` :... .W O.N ~ O 1.1.1.",
"1.1.7 4 Y U T L P ! ] - 1.1.1.1.",
"1.1.8 7 d F F S Z Z s 1.1.1.1.1.",
"1.1.1.1.1.1.1.1.1.1.1.1.1.1.1.1.",
"1.1.1.1.1.1.1.1.1.1.1.1.1.1.1.1.",
"1.1.1.1.1.1.1.1.1.1.1.1.1.1.1.1."
};
