/* XPM */
static char *Free_Converter_com_iop16_38232554[] = {
/* columns rows colors chars-per-pixel */
"16 16 187 2 ",
"   c #13AEA5",
".  c #17AFA7",
"X  c #17AFA8",
"o  c #1AB0A9",
"O  c #19B0AA",
"+  c #1DB0AA",
"@  c #1CB0AB",
"#  c #20B1AC",
"$  c #22B1AE",
"%  c #29B2AD",
"&  c #30B3AE",
"*  c #31B4B7",
"=  c #38B6B6",
"-  c #37B5B9",
";  c #3DB7BC",
":  c #3CB7BD",
">  c #3EB7BF",
",  c #4FB9B4",
"<  c #4DB8B6",
"1  c #54BBB9",
"2  c #56BBB8",
"3  c #53BBBF",
"4  c #59BCBB",
"5  c #5BBCBD",
"6  c #5FBDBD",
"7  c #5EBDBF",
"8  c #41B8C1",
"9  c #41B9C1",
"0  c #42B9C3",
"q  c #44BAC6",
"w  c #4ABAC1",
"e  c #47BBC8",
"r  c #49BBCA",
"t  c #49BCC8",
"y  c #4FBDCB",
"u  c #4ABCCC",
"i  c #4CBCCC",
"p  c #54BCC1",
"a  c #57BDC6",
"s  c #5DBEC3",
"d  c #59BDC4",
"f  c #5BBEC6",
"g  c #5EBFC5",
"h  c #54BDCB",
"j  c #50BDCF",
"k  c #5BBFCB",
"l  c #61BEC2",
"z  c #62BFC3",
"x  c #55C0D4",
"c  c #58C0D9",
"v  c #59C1DA",
"b  c #5BC2DB",
"n  c #5DC2DA",
"m  c #5CC2DD",
"M  c #5DC3DF",
"N  c #5FC3DF",
"B  c #6BC2C7",
"V  c #61C0CA",
"C  c #60C0CC",
"Z  c #60C0CF",
"A  c #64C2CF",
"S  c #69C2C9",
"D  c #6FC4CA",
"F  c #76C4C3",
"G  c #73C5CE",
"H  c #73C5CF",
"J  c #7CC7C9",
"K  c #61C1D0",
"L  c #69C3D0",
"P  c #61C3DC",
"I  c #71C6D3",
"U  c #72C6D5",
"Y  c #73C7D9",
"T  c #74C8D8",
"R  c #75C8DA",
"E  c #73C8DD",
"W  c #74C9DF",
"Q  c #78C9DC",
"!  c #78C9DD",
"~  c #79CADE",
"^  c #60C4E1",
"/  c #60C4E2",
"(  c #66C5E0",
")  c #8DCCCC",
"_  c #8ACCD2",
"`  c #8CCDD5",
"'  c #8ECED5",
"]  c #87CDDB",
"[  c #8FCED8",
"{  c #95D0D5",
"}  c #98D0D1",
"|  c #9DD3D4",
" . c #98D2DB",
".. c #A0D4D6",
"X. c #A7D6D7",
"o. c #A9D7D7",
"O. c #A1D5DB",
"+. c #A1D5DD",
"@. c #AFDADC",
"#. c #ADDADE",
"$. c #B2DBDA",
"%. c #B6DDDE",
"&. c #8CD0E1",
"*. c #9BD4E3",
"=. c #A5D7E2",
"-. c #A6D8E1",
";. c #A3D8E4",
":. c #ADDAE0",
">. c #B5DDE0",
",. c #B6DDE3",
"<. c #B7DEE3",
"1. c #B1DCE4",
"2. c #B2DDE8",
"3. c #B5DFEA",
"4. c #BCE0E2",
"5. c #BAE0E4",
"6. c #BCE1E8",
"7. c #BFE2E8",
"8. c #C4E3E4",
"9. c #C5E4E5",
"0. c #C6E4E4",
"q. c #C7E4E4",
"w. c #C8E5E4",
"e. c #C8E5E5",
"r. c #C8E5E6",
"t. c #C9E5E6",
"y. c #C9E6E7",
"u. c #CEE7E7",
"i. c #CFE7E7",
"p. c #C1E3EC",
"a. c #C0E4EF",
"s. c #CAE6E9",
"d. c #C9E6EB",
"f. c #CAE7EE",
"g. c #CBE7EE",
"h. c #CFE8E8",
"j. c #CFE8E9",
"k. c #CFE9EA",
"l. c #CCE8ED",
"z. c #CCE8EE",
"x. c #CDE8EF",
"c. c #D1E9EB",
"v. c #D4EBEB",
"b. c #D2EAEC",
"n. c #D3EAED",
"m. c #D1EAEF",
"M. c #D3EBEE",
"N. c #D2EAEF",
"B. c #D4EAED",
"V. c #D6EBEC",
"C. c #D9EDEE",
"Z. c #DAEDEE",
"A. c #CDE8F0",
"S. c #CEE9F1",
"D. c #CFE9F1",
"F. c #D1EAF0",
"G. c #D2EBF2",
"H. c #D4EBF0",
"J. c #D4EBF3",
"K. c #D7ECF0",
"L. c #D6ECF3",
"P. c #D7ECF3",
"I. c #D8EDF2",
"U. c #DFEFF1",
"Y. c #DCEFF4",
"T. c #DDEFF5",
"R. c #DFF0F2",
"E. c #DFF0F3",
"W. c #E0F0F0",
"Q. c #E1F0F1",
"!. c #E1F1F1",
"~. c #E1F1F3",
"^. c #E2F1F2",
"/. c #E3F1F2",
"(. c #E5F3F3",
"). c #E7F3F3",
"_. c #E2F1F4",
"`. c #E3F2F5",
"'. c #E3F2F6",
"]. c #E6F3F7",
"[. c #E7F4F7",
"{. c #E9F4F5",
"}. c #E9F5F7",
"|. c #E3F3F8",
" X c #E5F4F8",
".X c #EBF6FA",
"XX c None",
/* pixels */
"XXXXXXXXXXXXXXXXXXXXXXXXXXXXXXXX",
"XXXXXXXXs z z 7 5 4 2 , % .   XX",
"XXXXXXa {.s.s.t.t.0.w.).& + .   ",
"XXXXt 5.#.B.j.@.8.v.i.o.$.# O X ",
"XXu A '.,.U.s.R.Z.V.Z.X.W.< # O ",
"j i H. .M.M.d d p 3 t.t.) j.# + ",
"x ] F.6.M.+.0 8 > : ..W.,.j.F # ",
"Y  X=.'.6.h ` H _ D B 8.).} W.2 ",
"Q |.;.}.z.y ` I ` S w 4.W.| W.6 ",
"n &.J.p.`.=.r e q 0 O.M.,.h.J = ",
"b c H.*.S.z.K K C C B.B.{ v.- * ",
"n v E |.2.T.Y.I.`.s.R.,.W.g ; XX",
"/ b b a.3.J.L.l.1.F.I.:.5.0 XXXX",
"/ / n n .XF.S.S.x.l.l.{.k XXXXXX",
"XX/ / ( W Q Q R T U I L XXXXXXXX",
"XXXXXXXXXXXXXXXXXXXXXXXXXXXXXXXX"
};
