/* XPM */
static char *Free_Converter_com_iop32_85922554[] = {
/* columns rows colors chars-per-pixel */
"32 32 103 2 ",
"   c #15AFA6",
".  c #17AFA8",
"X  c #17B0A9",
"o  c #1DB0AB",
"O  c #22B1AE",
"+  c #2CB3AE",
"@  c #25B2B0",
"#  c #2CB4B3",
"$  c #33B4B6",
"%  c #3AB5B5",
"&  c #37B5B9",
"*  c #3CB7BD",
"=  c #45B7B6",
"-  c #48B7B3",
";  c #47B8B6",
":  c #44B7B8",
">  c #46B8BA",
",  c #5BBCBB",
"<  c #71C2BE",
"1  c #3FB8C0",
"2  c #43B9C4",
"3  c #4ABAC3",
"4  c #47BBC9",
"5  c #4BBCCB",
"6  c #55BDC6",
"7  c #5BBDC2",
"8  c #53BECD",
"9  c #4FBED1",
"0  c #53BFD2",
"q  c #63BFC5",
"w  c #5DC0CD",
"e  c #57C0D6",
"r  c #5EC1D5",
"t  c #5BC2DB",
"y  c #65C0C5",
"u  c #69C2C7",
"i  c #64C1CB",
"p  c #6CC3CC",
"a  c #75C4C3",
"s  c #7CC6C4",
"d  c #73C5CB",
"f  c #7DC7CA",
"g  c #7DC8CF",
"h  c #62C2D3",
"j  c #6DC4D4",
"k  c #65C4D9",
"l  c #6DC7DF",
"z  c #74C5D2",
"x  c #7DC8D1",
"c  c #72C6D8",
"v  c #76C8DC",
"b  c #5FC3E0",
"n  c #60C4E2",
"m  c #81C7C7",
"M  c #82C8C6",
"N  c #83C9CB",
"B  c #88CACC",
"V  c #94CECD",
"C  c #81CAD3",
"Z  c #8ACCD3",
"A  c #87CDDE",
"S  c #8DCFDB",
"D  c #92CFD3",
"F  c #90CFD9",
"G  c #8FD0DE",
"H  c #95D0D4",
"J  c #9BD2D3",
"K  c #94D1DB",
"L  c #9CD3DB",
"P  c #A1D5DC",
"I  c #ACD8DA",
"U  c #B3DCDD",
"Y  c #8ACFE2",
"T  c #8FD0E1",
"R  c #92D1E0",
"E  c #9DD5E1",
"W  c #A1D7E4",
"Q  c #A3D8E7",
"!  c #ACDBE5",
"~  c #B5DDE3",
"^  c #B9DFE3",
"/  c #B6DEE9",
"(  c #BCE0E5",
")  c #BCE1EA",
"_  c #C4E3E4",
"`  c #CAE6E6",
"'  c #C4E5EB",
"]  c #CAE6EB",
"[  c #CEE8EB",
"{  c #D3EAED",
"}  c #DBEEEF",
"|  c #CEE9F1",
" . c #D3EBF1",
".. c #DCEEF2",
"X. c #DFF0F2",
"o. c #E3F2F4",
"O. c #EAF5F6",
"+. c #E6F4F8",
"@. c #EBF6F9",
"#. c #F0F7F7",
"$. c #F2F9FB",
"%. c #FEFEFF",
"&. c None",
/* pixels */
"&.&.&.&.&.&.&.&.&.&.&.&.&.&.&.&.&.&.&.&.&.&.&.&.&.&.&.&.&.&.&.&.",
"&.&.&.&.&.&.&.&.&.&.&.&.&.&.&.&.&.&.&.&.&.&.&.&.&.&.&.&.&.&.&.&.",
"&.&.&.&.&.&.&.&.2 * * & & $ $ # # # # @ o O o + &.&.&.&.&.&.&.&.",
"&.&.&.&.&.&.&.2 7 H H H H H H V H V V V V V V - O o o         &.",
"&.&.&.&.&.&.2 1 ] %.%.%.%.%.%.%.%.%.%.%.%.%.%._ o o o o .     &.",
"&.&.&.&.&.2 2 g %.} B Z N N B B m B M M M M { %.< o o o o     &.",
"&.&.&.&.4 2 2 o.%.y U ` ~ ~ I J m U U ` I U , %.} O o o o   . &.",
"&.&.&.4 2 2 L %.~ C o.O.o.O.^ U @.X.$.X.%.} s U %.V O o o o o &.",
"&.&.5 4 4 8 $.$.6 ] o.o.} _ ] o.O.} X.o.} #.` - #.@.% o o o . &.",
"&.9 5 5 4 ^ %.L L %.o.{ ] _ O.o.` [ ` [ { ` X.B V %.U O O O O &.",
"&.5 5 5 j %.X.8 ^ +.o. .p u d u u y > m U _ I ` % X.%., O O O &.",
"&.8 9 9  .%.x K ] X.+.I 3 2 1 * : * % = { } O.U M a %.` @ O o &.",
"&.0 8 S %.] j  .] +. .C 2 2 1 1 * * * * B o.o.o._ , ` %.a @ O &.",
"&.0 e +.$.j ) o.~ o.] 2 2 2 2 2 1 1 * * * U X.o.X._ , $.o.$ @ &.",
"&.0 ! %./ K +...! O.z 4 Z z K H d Z D D d 7 ` O.O.X.B I %.J + &.",
"r k $.$.r ..$...) P 4 4 L L 2 2 L L * 2 H * a X.} O.` = #.$.; $ ",
"k l %.$.r ..@.+.o.A 5 4 L P 4 4 P L D N 2 * J ~ } #.} : @.$.; ; ",
"&.0 Q %./ R o.+.+.| q 5 F C K H g D 2 1 2 q O.U } o.B I %.J $ &.",
"&.0 0 @.%.j ' o.+.o./ 5 4 4 4 4 4 2 2 1 : ' o.U X.U 7 %.o.$ # &.",
"&.t 0 Y %.| c ..+.@.O.G 5 5 4 4 2 2 2 2 C } o.] ` u ` %.m $ $ &.",
"&.e e t  .%.Y T ) +.o. .8 5 4 4 4 2 2 4 ~ X.X.] D f %.[ * $ $ &.",
"&.t b 0 v %.o.0 | ' / ' S 0 z z j z z x { o.o.( 2 X.%.q * $ & &.",
"&.t t 0 0 ' %.W E +...|  . .]  .@.o.[ ^ ..o.%.H J %.U * * * & &.",
"&.b t b 0 k $.$.b | @.o.o.+.o.+.@. .~ o...o.{ 6 $.$.3 * * * &.&.",
"&.b t t t t Q %.) Y +.$.+.+.+.@./ ( +.o.+.+.x ~ %.L * * 1 &.&.&.",
"&.b n t t e e +.%.v ) / | ' ~ G E ~ ) ^ [ ~ p %.X.2 2 1 &.&.&.&.",
"&.t b t t t t Y %...R R T R G G G S S S S S ..%.g 2 2 &.&.&.&.&.",
"&.n n b b t t t  .%.%.%.%.%.%.%.%.%.%.%.%.%.%.] 2 2 &.&.&.&.&.&.",
"&.n n n b t b t l Q Q Q W W W W W W P L L E L i 5 &.&.&.&.&.&.&.",
"&.&.&.&.&.&.&.&.l t 0 t e 0 0 0 0 5 0 9 5 5 5 w &.&.&.&.&.&.&.&.",
"&.&.&.&.&.&.&.&.&.&.&.&.&.&.&.&.&.&.&.&.&.&.&.&.&.&.&.&.&.&.&.&.",
"&.&.&.&.&.&.&.&.&.&.&.&.&.&.&.&.&.&.&.&.&.&.&.&.&.&.&.&.&.&.&.&."
};
