/* XPM */
static char *Free_Converter_com_iop32_7471623[] = {
/* columns rows colors chars-per-pixel */
"32 32 105 2 ",
"   c #26B6B3",
".  c #2AB7B6",
"X  c #2EB7B8",
"o  c #31B7BA",
"O  c #38B7BE",
"+  c #35B8BC",
"@  c #3BB9BD",
"#  c #43BABB",
"$  c #4BBCBE",
"%  c #3DB8C2",
"&  c #42B9C6",
"*  c #4EBCC3",
"=  c #45B9CA",
"-  c #4ABACD",
";  c #55BEC3",
":  c #55BCCF",
">  c #5ABECD",
",  c #4DBAD0",
"<  c #52BBD5",
"1  c #5CBDD3",
"2  c #56BBDA",
"3  c #59BDDD",
"4  c #62BFD6",
"5  c #61BED8",
"6  c #5CBDE4",
"7  c #5DBDE9",
"8  c #64BFE3",
"9  c #69C2C6",
"0  c #67C1CA",
"q  c #6DC3CD",
"w  c #72C5CA",
"e  c #7AC7CB",
"r  c #7AC8CD",
"t  c #66C1D3",
"y  c #6BC2D3",
"u  c #65C0DE",
"i  c #69C1DA",
"p  c #7BC7D4",
"a  c #7DC8D1",
"s  c #75C5DD",
"d  c #7AC6DC",
"f  c #72C3E6",
"g  c #7CC7E2",
"h  c #7DC8E1",
"j  c #82C9CF",
"k  c #83CAD5",
"l  c #8DCED5",
"z  c #86CBDB",
"x  c #8CCDDB",
"c  c #90CFDB",
"v  c #93D1D6",
"b  c #99D3D4",
"n  c #93D1DB",
"m  c #99D3DD",
"M  c #AADAD6",
"N  c #A2D6DB",
"B  c #A7D9DF",
"V  c #A8D9DA",
"C  c #B4DFDC",
"Z  c #B7E0DF",
"A  c #BBE1DE",
"S  c #83C9E3",
"D  c #8BCCE4",
"F  c #90CDE7",
"G  c #97D2E2",
"H  c #9ED3E3",
"J  c #95D0E8",
"K  c #9CD3E9",
"L  c #A5D7E3",
"P  c #A5D9E3",
"I  c #ABDAE3",
"U  c #A5D6ED",
"Y  c #A9D8EA",
"T  c #B4DDE5",
"R  c #B9DFE4",
"E  c #B5DEE9",
"W  c #B6DEF0",
"Q  c #B9DFF1",
"!  c #B6E1E4",
"~  c #BDE3E4",
"^  c #BBE3E9",
"/  c #BFE2F2",
"(  c #C4E5E4",
")  c #C9E7E4",
"_  c #CCE8E7",
"`  c #C2E5EA",
"'  c #CAE6EC",
"]  c #CBE9EA",
"[  c #D4ECEC",
"{  c #DAEEED",
"}  c #DDF0EF",
"|  c #C6E4F2",
" . c #CEE9F1",
".. c #D3EBF3",
"X. c #DBEEF4",
"o. c #DCF1F3",
"O. c #E1F1EF",
"+. c #E3F3F3",
"@. c #E9F5F6",
"#. c #E2F1F9",
"$. c #E9F5FB",
"%. c #EFF8F9",
"&. c #F3FAFC",
"*. c #FCFEFE",
"=. c None",
/* pixels */
"=.=.=.=.=.=.=.=.=.=.=.=.=.=.=.=.=.=.=.=.=.=.=.=.=.=.=.=.=.=.=.=.",
"=.=.=.=.=.=.=.=.=.=.=.=.=.=.=.=.=.=.=.=.=.=.=.=.=.=.=.=.=.=.=.=.",
"=.=.=.=.=.=.=.=.=.=.=.=.=.=.=.=.=.=.=.=.=.=.=.=.=.=.=.=.=.=.=.=.",
"=.=.=.=.=.=.=.=.=.=.=.=.=.=.=.=.=.=.=.=.=.=.=.=.=.=.=.=.=.=.=.=.",
"=.=.=.=.=.=.=.=.=.=.=.=.=.=.=.=.=.=.=.=.=.=.=.=.=.=.=.=.=.=.=.=.",
"=.=.=.=.=.=.=.=.=.- = & = % % % % @ + + o # =.=.=.=.=.=.=.=.=.=.",
"=.=.=.=.=.=.=.=.- < o.$.@.@.@.@.+.@.@.@.} $ . . .     =.=.=.=.=.",
"=.=.=.=.=.=.=., , ^ p k k k a r w q w r w ! . . . .   =.=.=.=.=.",
"=.=.=.=.=.=.< < y ` c #.o.[ ] ! { +.{ O.b C 9 . . .   =.=.=.=.=.",
"=.=.=.=.=.< < < X.y o.+.{ ~ ( o.{ { { { { 9 { o . . . =.=.=.=.=.",
"=.=.=.=.< 2 < x P H #.} ~ n P N b v M ( _ V b j o o . =.=.=.=.=.",
"=.=.=.=.2 2 3 *.d ^ +.[ t - = = & & 0 ( A M 9 *.@ o . =.=.=.=.=.",
"=.=.=.=.2 2 Y F ` ^ o.P , - - = = & & N o.{ b e V o o =.=.=.=.=.",
"=.=.=.=.3 u o.D  .^ X.t , , - - = = & * _ O.O.w _ ; o =.=.=.=.=.",
"=.=.=.=.3 | h ..+.` n 1 G P n P k I n c r { [ o.9 ( @ =.=.=.=.=.",
"=.=.=.=.8 #.D #.@...1 5 E z , t I I c k * A O.O.j { * =.=.=.=.=.",
"=.=.=.=.6 / S  .@.o.G 5 H I 4 L c p - = v M O._ w R @ =.=.=.=.=.",
"=.=.=.=.6 8 $.h ..+.#.i i 1 x t > : - > { C _ j +.; @ =.=.=.=.=.",
"=.=.=.=.6 3 U K P ` +.E 2 < < , , , - m { C C l N O % =.=.=.=.=.",
"=.=.=.=.6 6 6 &.h ] ! ! s < < < , , 0 [ O.C q &.& & % =.=.=.=.=.",
"=.=.=.=.6 6 6 S W U o...` I I E T v ( { +.l B l % & % =.=.=.=.=.",
"=.=.=.=.7 6 6 6 ..h o.@.o.o.+.} C ( [ O.[ q ..& & & =.=.=.=.=.=.",
"=.=.=.=.7 6 6 6 f ..J +.%.+._ T ( { #.+.x ' y & = =.=.=.=.=.=.=.",
"=.=.=.=.7 7 6 6 6 / F h g s s h d d d p z R , - =.=.=.=.=.=.=.=.",
"=.=.=.=.7 7 6 6 6 8 .................... .1 =.=.=.=.=.=.=.=.=.=.",
"=.=.=.=.=.=.=.=.=.8 6 6 6 6 3 3 2 2 < < < 4 =.=.=.=.=.=.=.=.=.=.",
"=.=.=.=.=.=.=.=.=.=.=.=.=.=.=.=.=.=.=.=.=.=.=.=.=.=.=.=.=.=.=.=.",
"=.=.=.=.=.=.=.=.=.=.=.=.=.=.=.=.=.=.=.=.=.=.=.=.=.=.=.=.=.=.=.=.",
"=.=.=.=.=.=.=.=.=.=.=.=.=.=.=.=.=.=.=.=.=.=.=.=.=.=.=.=.=.=.=.=.",
"=.=.=.=.=.=.=.=.=.=.=.=.=.=.=.=.=.=.=.=.=.=.=.=.=.=.=.=.=.=.=.=.",
"=.=.=.=.=.=.=.=.=.=.=.=.=.=.=.=.=.=.=.=.=.=.=.=.=.=.=.=.=.=.=.=.",
"=.=.=.=.=.=.=.=.=.=.=.=.=.=.=.=.=.=.=.=.=.=.=.=.=.=.=.=.=.=.=.=."
};
