/* XPM */
static char *Free_Converter_com_iop64_57871623[] = {
/* columns rows colors chars-per-pixel */
"64 64 124 2 ",
"   c #25B6B3",
".  c #2AB7B6",
"X  c #2EB7B8",
"o  c #32B7BA",
"O  c #38B7BE",
"+  c #35B8BC",
"@  c #3AB8BE",
"#  c #41BABB",
"$  c #49BBBE",
"%  c #3DB8C2",
"&  c #42B9C6",
"*  c #4BBBC4",
"=  c #45B9CA",
"-  c #4ABACD",
";  c #53BDC3",
":  c #5ABEC3",
">  c #54BCCD",
",  c #5CBFCB",
"<  c #4EBAD1",
"1  c #52BBD4",
"2  c #5BBDD4",
"3  c #56BBDA",
"4  c #5ABCDD",
"5  c #61BFD7",
"6  c #61BEDC",
"7  c #5CBCE3",
"8  c #5EBDE9",
"9  c #62BEE0",
"0  c #5DC0C4",
"q  c #66C2C6",
"w  c #6BC3C7",
"e  c #64C2CB",
"r  c #6BC3CB",
"t  c #74C6CC",
"y  c #78C7CA",
"u  c #7DC8CF",
"i  c #66C1D3",
"p  c #6CC3D4",
"a  c #66C0DD",
"s  c #6EC2DA",
"d  c #74C5D3",
"f  c #79C7D4",
"g  c #73C4DC",
"h  c #7AC6DB",
"j  c #7EC8DB",
"k  c #67C0E1",
"l  c #6CC1E2",
"z  c #74C4E2",
"x  c #7BC6E5",
"c  c #7FC8E3",
"v  c #84CCC7",
"b  c #84CCCE",
"n  c #8BCECD",
"m  c #93D2CE",
"M  c #85CBD5",
"N  c #8CCED3",
"B  c #84CBDC",
"V  c #8BCDDC",
"C  c #91CFD3",
"Z  c #95D3D4",
"A  c #9BD4D6",
"S  c #95D1DC",
"D  c #9AD4DD",
"F  c #9CD8DD",
"G  c #A1D7D4",
"H  c #A4D8D5",
"J  c #A8D9D5",
"K  c #A3D6DC",
"L  c #A6DADB",
"P  c #ABDADB",
"I  c #B2DDDC",
"U  c #BCE1DE",
"Y  c #85CAE2",
"T  c #8BCDE2",
"R  c #8CCCE9",
"E  c #92CEE9",
"W  c #95D1E1",
"Q  c #9DD3E3",
"!  c #95D0E9",
"~  c #9CD2E9",
"^  c #A3D5E2",
"/  c #A9D7E5",
"(  c #A7DCE2",
")  c #ABDBE4",
"_  c #A3D5EB",
"`  c #ACD9EC",
"'  c #B3DDE4",
"]  c #B9DFE2",
"[  c #B4DCEB",
"{  c #BBDFEB",
"}  c #B9DFF1",
"|  c #B3E1E5",
" . c #BCE2E4",
".. c #BDE2EA",
"X. c #BEE1F1",
"o. c #C0E3DF",
"O. c #C3E5E4",
"+. c #C9E7E5",
"@. c #CCE9E6",
"#. c #C4E4EB",
"$. c #CAE6EC",
"%. c #C7E8EB",
"&. c #CCEAEB",
"*. c #D3ECEB",
"=. c #DAEFED",
"-. c #DEF0EE",
";. c #CBE6F3",
":. c #CFE8F5",
">. c #D4ECF2",
",. c #DAEFF1",
"<. c #DCEFF8",
"1. c #DBF0F1",
"2. c #DEF0F9",
"3. c #E0F1EF",
"4. c #E3F2F4",
"5. c #EAF5F6",
"6. c #EEF8F7",
"7. c #E3F1F9",
"8. c #ECF6FA",
"9. c #EFF8F9",
"0. c #F1F9F7",
"q. c #F4FAFB",
"w. c #FDFEFF",
"e. c None",
/* pixels */
"e.e.e.e.e.e.e.e.e.e.e.e.e.e.e.e.e.e.e.e.e.e.e.e.e.e.e.e.e.e.e.e.e.e.e.e.e.e.e.e.e.e.e.e.e.e.e.e.e.e.e.e.e.e.e.e.e.e.e.e.e.e.e.e.",
"e.e.e.e.e.e.e.e.e.e.e.e.e.e.e.e.e.e.e.e.e.e.e.e.e.e.e.e.e.e.e.e.e.e.e.e.e.e.e.e.e.e.e.e.e.e.e.e.e.e.e.e.e.e.e.e.e.e.e.e.e.e.e.e.",
"e.e.e.e.e.e.e.e.e.e.e.e.e.e.e.e.e.e.e.e.e.e.e.e.e.e.e.e.e.e.e.e.e.e.e.e.e.e.e.e.e.e.e.e.e.e.e.e.e.e.e.e.e.e.e.e.e.e.e.e.e.e.e.e.",
"e.e.e.e.e.e.e.e.e.e.e.e.e.e.e.e.e.e.e.e.e.e.e.e.e.e.e.e.e.e.e.e.e.e.e.e.e.e.e.e.e.e.e.e.e.e.e.e.e.e.e.e.e.e.e.e.e.e.e.e.e.e.e.e.",
"e.e.e.e.e.e.e.e.e.e.e.e.e.e.e.e.e.e.e.e.e.e.e.e.e.e.e.e.e.e.e.e.e.e.e.e.e.e.e.e.e.e.e.e.e.e.e.e.e.e.e.e.e.e.e.e.e.e.e.e.e.e.e.e.",
"e.e.e.e.e.e.e.e.e.e.e.e.e.e.e.e.e.e.e.e.e.e.e.e.e.e.e.e.e.e.e.e.e.e.e.e.e.e.e.e.e.e.e.e.e.e.e.e.e.e.e.e.e.e.e.e.e.e.e.e.e.e.e.e.",
"e.e.e.e.e.e.e.e.e.e.e.e.e.e.e.e.e.e.e.e.e.e.e.e.e.e.e.e.e.e.e.e.e.e.e.e.e.e.e.e.e.e.e.e.e.e.e.e.e.e.e.e.e.e.e.e.e.e.e.e.e.e.e.e.",
"e.e.e.e.e.e.e.e.e.e.e.e.e.e.e.e.e.e.e.e.e.e.e.e.e.e.e.e.e.e.e.e.e.e.e.e.e.e.e.e.e.e.e.e.e.e.e.e.e.e.e.e.e.e.e.e.e.e.e.e.e.e.e.e.",
"e.e.e.e.e.e.e.e.e.e.e.e.e.e.e.e.e.e.e.e.e.e.e.e.e.e.e.e.e.e.e.e.e.e.e.e.e.e.e.e.e.e.e.e.e.e.e.e.e.e.e.e.e.e.e.e.e.e.e.e.e.e.e.e.",
"e.e.e.e.e.e.e.e.e.e.e.e.e.e.e.e.e.e.e.e.e.e.e.e.e.e.e.e.e.e.e.e.e.e.e.e.e.e.e.e.e.e.e.e.e.e.e.e.e.e.e.e.e.e.e.e.e.e.e.e.e.e.e.e.",
"e.e.e.e.e.e.e.e.e.e.e.e.e.e.e.e.e.e.e.= = = = & & = % % % % % % @ @ O O + o o o o X X e.e.e.e.e.e.e.e.e.e.e.e.e.e.e.e.e.e.e.e.e.",
"e.e.e.e.e.e.e.e.e.e.e.e.e.e.e.e.e.e.- - = = = = & & & % & % % % % % @ O + + + o o o X X . . . . .           e.e.e.e.e.e.e.e.e.e.",
"e.e.e.e.e.e.e.e.e.e.e.e.e.e.e.e.e.- = = ' { { {  .] ] {  .] ] ]  .]  .] ] ] ] ] I P + X X X . . . .         e.e.e.e.e.e.e.e.e.e.",
"e.e.e.e.e.e.e.e.e.e.e.e.e.e.e.e.e.- - V w.9.3.4.7.4.4.7.1.4.7.4.4.1.1.4.-.4.4.1.9.w.n X X X . . .           e.e.e.e.e.e.e.e.e.e.",
"e.e.e.e.e.e.e.e.e.e.e.e.e.e.e.< - < > 7.>.> = = = = & & & & & % % % O % O O O + @ &.5.# X X X . . . .       e.e.e.e.e.e.e.e.e.e.",
"e.e.e.e.e.e.e.e.e.e.e.e.e.e.< < < - / w.d , #...O...O.' P F L F N N b C  . .G O.: 0 w.P o X X .     . . .   e.e.e.e.e.e.e.e.e.e.",
"e.e.e.e.e.e.e.e.e.e.e.e.e.1 < < < i q.#.- ( ,.%.1.&.1.,.9.O.&.Z I *.w.6.O.w.5.@.o.+ I q.: o X X X . . .     e.e.e.e.e.e.e.e.e.e.",
"e.e.e.e.e.e.e.e.e.e.e.e.1 1 1 < 1 #.q.e i w.w.w.q.1.=.O.&.L L @.0.q.U 6.q.U w.=.7.t * 0.O.o X X X .   .   . e.e.e.e.e.e.e.e.e.e.",
"e.e.e.e.e.e.e.e.e.e.e.1 1 1 1 < h w./ < &.0.,.%.,.4.-.| A  .5.q.=.@.q.-.*.0.@.w.U =.@ C w.y X X X . . X .   e.e.e.e.e.e.e.e.e.e.",
"e.e.e.e.e.e.e.e.e.1 3 1 1 1 1 1 >.7.1 p >.1.w.0.=.O.&.A &.q.5. .*.4.*.*.3.@.0.U w.+.C O -.3.O o X X . . .   e.e.e.e.e.e.e.e.e.e.",
"e.e.e.e.e.e.e.e.3 1 3 1 1 1 1 W w.B 1 F w.4.,.&.5.&.Z %.5.+.>.O.-.O.*. .@.*.] 5.o.3.O.$ w w.A o o X X . . . e.e.e.e.e.e.e.e.e.e.",
"e.e.e.e.e.e.e.e.3 1 1 3 3 3 2 9.>.< F ..1.1.w.>.#.M i d f d d t t e e e t m I I o.+.3.A O O.6.$ X o X X . . e.e.e.e.e.e.e.e.e.e.",
"e.e.e.e.e.e.e.e.3 3 3 1 1 3 [ w.g i ( ..w.4.#.5.( = - = = = = = & & % & & A J H m J J o.: : q.I o o X X X . e.e.e.e.e.e.e.e.e.e.",
"e.e.e.e.e.e.e.e.3 3 3 3 3 s q...1 [ *.%.#.6.2.O.i - - - - = = = = = = % & , q.O.*.=.m I A O J w.q o o X X X e.e.e.e.e.e.e.e.e.e.",
"e.e.e.e.e.e.e.e.3 3 3 3 3 $.q.2 j %.%.| w.#.5.F < - - = = = - = = & & % % % S *.3.0.+.@.v w # 6.@.o o o X X e.e.e.e.e.e.e.e.e.e.",
"e.e.e.e.e.e.e.e.4 3 3 3 Y w._ 1 :.4.( #.&.q.| 2 < < - - - = = - = = & = = % = +.5.+.@.w.*.m @ n w.b o o o o e.e.e.e.e.e.e.e.e.e.",
"e.e.e.e.e.e.e.e.3 4 3 3 7.7.3 ~ %.2.*.( q.*.S < < < < - - - - = = = = & = % % u *.*.*.w.*.w.w @ ,.4.@ + o X e.e.e.e.e.e.e.e.e.e.",
"e.e.e.e.e.e.e.e.7 3 3 _ w.B 6 9.1.*.%.F *.>.1 1 < - < - - < = = = = = & & & & & ] o.o.w.o.q.o.$ w w.A + X o e.e.e.e.e.e.e.e.e.e.",
"e.e.e.e.e.e.e.e.3 4 k q.;.3 } &.q.1.1.| &.h 1 i X.< s %.$.$.$.V - S >.$.%.$.K & : *.*.w.*.3.0.I O O.q.; + o e.e.e.e.e.e.e.e.e.e.",
"e.e.e.e.e.e.e.e.7 3 X.q.g l q.1.q.&.%.| V 1 1 s %.1 >.d - < 2 &.f S K = = = $.r & n I 4.*.O.w.*.q ; q.I + o e.e.e.e.e.e.e.e.e.e.",
"e.e.e.e.e.e.e.4 4 z w.X.3 :.2.4.5.q.2.1.5 1 1 s %.V [ < < < = B ' S ^ = = - %.* & * o.-.q.@.w.o.*.O P w.w + + e.e.e.e.e.e.e.e.e.",
"e.e.e.e.e.e.e.7 4 l q.:.7 [ 1.w.;.q.*.*.a 1 1 s ;.Q / < < < < d #.Q ,.$.+...M = & : m o.0.*.5.3.] % ] w.0 + + e.e.e.e.e.e.e.e.e.",
"e.e.e.e.e.e.e.e.7 7 ` q.Y 6 >.w.1.w.*.=...1 3 s #.h $.< < < < ( ^ S ^ = = = = = & I v *.*.5.o.q.: w w.P O + e.e.e.e.e.e.e.e.e.e.",
"e.e.e.e.e.e.e.e.4 7 9 8.2.3 T q.>.q.4.1.&.Y 1 s #.1 [ { j d / ;.1 D ^ = - = = = u -.n U @.w.@.K @ *.5.* O O e.e.e.e.e.e.e.e.e.e.",
"e.e.e.e.e.e.e.e.7 7 4 E w.~ 4 ' q.,.9.%.,.>.3 i ~ 1 1 B [ { W < - f j - - = = - +.@.J o.o.@.3.& b w.C % @ O e.e.e.e.e.e.e.e.e.e.",
"e.e.e.e.e.e.e.e.7 4 7 7 <.9.k g | 1.w.1.9.2.T 3 1 1 < 1 1 < < < < - - - - - = N =.5.I o.*.+.n * 5.>.% % @ @ e.e.e.e.e.e.e.e.e.e.",
"e.e.e.e.e.e.e.e.7 4 7 3 x w.[ 7 ( ( 9.%.q.,.>.i 1 1 1 1 1 1 < < < - < - - = > O.+.-.=.v @.O.= K w.d % % O @ e.e.e.e.e.e.e.e.e.e.",
"e.e.e.e.e.e.e.e.7 7 7 7 7 X.q.z l | F | q.1.=...1 1 1 1 1 < < < < < - - - - S @.5.=.o.J O.r , q.O.& % % O % e.e.e.e.e.e.e.e.e.e.",
"e.e.e.e.e.e.e.e.7 7 7 7 7 l q.:.4 ` >.| S P 1.>.x 1 1 1 1 1 1 < < < < - > 5 +.-.@.-.5.m K = #.q., & % % % O e.e.e.e.e.e.e.e.e.e.",
"e.e.e.e.e.e.e.e.7 7 4 7 7 7 ` q.R a ;.1.*.%.F F B 1 3 1 1 < 1 1 1 < < > - G =.@.q.5.o.m > t w.K & % % % % % e.e.e.e.e.e.e.e.e.e.",
"e.e.e.e.e.e.e.e.7 7 7 7 7 7 7 7.2.4 ! ,.8...1.*.#.F B B V T B V W S V 5 D +.3.-.U 4.@.b = =.5.- % & % % % % e.e.e.e.e.e.e.e.e.e.",
"e.e.e.e.e.e.e.e.8 7 7 7 7 4 4 R w._ 4 <.%.q.*.2.&.5.#.4.+.>.-.q.$.$.J J O.*.O.0.w.q.m = S w.N = = % = & % % e.e.e.e.e.e.e.e.e.e.",
"e.e.e.e.e.e.e.e.7 8 7 7 7 7 7 7 >.q.l c q.%.9.&.q.%.6.4.O.0.4.*.*.P A @.+.w.3.@.*.+.d < 6.>.= = = % & % e.e.e.e.e.e.e.e.e.e.e.e.",
"e.e.e.e.e.e.e.e.8 7 7 7 7 7 7 4 x q.X.4 ;.5.5.q. .w.4.&.w.1.O.5.L ] O.=.O.@.5.w.w.O.= ' w.p = = = = & e.e.e.e.e.e.e.e.e.e.e.e.e.",
"e.e.e.e.e.e.e.e.8 7 8 7 7 7 7 7 7 } w.z l q.>.5.w.&.w.9.*.q.&.Z J >.*.w.0.4.@.+.*., 5 w.O.= = = = & e.e.e.e.e.e.e.e.e.e.e.e.e.e.",
"e.e.e.e.e.e.e.e.7 8 7 8 7 7 7 7 7 k q.<.4 ` w.*.w.q. .5.@.F A &.O.*.O.>.@.5.w.w.' - $.q.2 - = = = e.e.e.e.e.e.e.e.e.e.e.e.e.e.e.",
"e.e.e.e.e.e.e.e.7 8 8 8 7 7 7 7 7 7 ~ w.E k ~ ~ V Y T h B T ! Q ^ Q Q Q ^ Q D Q 2 j w.K - - - = e.e.e.e.e.e.e.e.e.e.e.e.e.e.e.e.",
"e.e.e.e.e.e.e.e.8 8 8 8 7 8 7 7 7 7 7 2.5.z 4 4 7 6 4 2 4 2 2 2 2 3 2 2 2 1 2 1 5 4.7.< - - - e.e.e.e.e.e.e.e.e.e.e.e.e.e.e.e.e.",
"e.e.e.e.e.e.e.e.8 8 7 8 7 8 7 7 7 7 7 R w.w.w.w.w.w.w.w.w.w.w.w.w.w.w.w.w.w.w.w.w.w.V - - e.e.e.e.e.e.e.e.e.e.e.e.e.e.e.e.e.e.e.",
"e.e.e.e.e.e.e.e.8 8 8 8 8 7 7 8 7 7 7 7 _ ` ` ` ` ` ` ` ` ` ` ` / ` ` / / / / / / Q 1 - < e.e.e.e.e.e.e.e.e.e.e.e.e.e.e.e.e.e.e.",
"e.e.e.e.e.e.e.e.8 8 8 8 8 8 8 7 7 7 7 7 7 7 7 7 7 3 4 4 4 3 3 3 3 3 3 1 3 1 1 1 1 1 < < e.e.e.e.e.e.e.e.e.e.e.e.e.e.e.e.e.e.e.e.",
"e.e.e.e.e.e.e.e.e.e.e.e.e.e.e.e.e.e.e.7 7 7 3 7 7 4 7 3 3 3 3 3 1 3 1 3 1 1 1 1 1 < 1 e.e.e.e.e.e.e.e.e.e.e.e.e.e.e.e.e.e.e.e.e.",
"e.e.e.e.e.e.e.e.e.e.e.e.e.e.e.e.e.e.e.e.e.e.e.e.e.e.e.e.e.e.e.e.e.e.e.e.e.e.e.e.e.e.e.e.e.e.e.e.e.e.e.e.e.e.e.e.e.e.e.e.e.e.e.e.",
"e.e.e.e.e.e.e.e.e.e.e.e.e.e.e.e.e.e.e.e.e.e.e.e.e.e.e.e.e.e.e.e.e.e.e.e.e.e.e.e.e.e.e.e.e.e.e.e.e.e.e.e.e.e.e.e.e.e.e.e.e.e.e.e.",
"e.e.e.e.e.e.e.e.e.e.e.e.e.e.e.e.e.e.e.e.e.e.e.e.e.e.e.e.e.e.e.e.e.e.e.e.e.e.e.e.e.e.e.e.e.e.e.e.e.e.e.e.e.e.e.e.e.e.e.e.e.e.e.e.",
"e.e.e.e.e.e.e.e.e.e.e.e.e.e.e.e.e.e.e.e.e.e.e.e.e.e.e.e.e.e.e.e.e.e.e.e.e.e.e.e.e.e.e.e.e.e.e.e.e.e.e.e.e.e.e.e.e.e.e.e.e.e.e.e.",
"e.e.e.e.e.e.e.e.e.e.e.e.e.e.e.e.e.e.e.e.e.e.e.e.e.e.e.e.e.e.e.e.e.e.e.e.e.e.e.e.e.e.e.e.e.e.e.e.e.e.e.e.e.e.e.e.e.e.e.e.e.e.e.e.",
"e.e.e.e.e.e.e.e.e.e.e.e.e.e.e.e.e.e.e.e.e.e.e.e.e.e.e.e.e.e.e.e.e.e.e.e.e.e.e.e.e.e.e.e.e.e.e.e.e.e.e.e.e.e.e.e.e.e.e.e.e.e.e.e.",
"e.e.e.e.e.e.e.e.e.e.e.e.e.e.e.e.e.e.e.e.e.e.e.e.e.e.e.e.e.e.e.e.e.e.e.e.e.e.e.e.e.e.e.e.e.e.e.e.e.e.e.e.e.e.e.e.e.e.e.e.e.e.e.e.",
"e.e.e.e.e.e.e.e.e.e.e.e.e.e.e.e.e.e.e.e.e.e.e.e.e.e.e.e.e.e.e.e.e.e.e.e.e.e.e.e.e.e.e.e.e.e.e.e.e.e.e.e.e.e.e.e.e.e.e.e.e.e.e.e.",
"e.e.e.e.e.e.e.e.e.e.e.e.e.e.e.e.e.e.e.e.e.e.e.e.e.e.e.e.e.e.e.e.e.e.e.e.e.e.e.e.e.e.e.e.e.e.e.e.e.e.e.e.e.e.e.e.e.e.e.e.e.e.e.e.",
"e.e.e.e.e.e.e.e.e.e.e.e.e.e.e.e.e.e.e.e.e.e.e.e.e.e.e.e.e.e.e.e.e.e.e.e.e.e.e.e.e.e.e.e.e.e.e.e.e.e.e.e.e.e.e.e.e.e.e.e.e.e.e.e.",
"e.e.e.e.e.e.e.e.e.e.e.e.e.e.e.e.e.e.e.e.e.e.e.e.e.e.e.e.e.e.e.e.e.e.e.e.e.e.e.e.e.e.e.e.e.e.e.e.e.e.e.e.e.e.e.e.e.e.e.e.e.e.e.e.",
"e.e.e.e.e.e.e.e.e.e.e.e.e.e.e.e.e.e.e.e.e.e.e.e.e.e.e.e.e.e.e.e.e.e.e.e.e.e.e.e.e.e.e.e.e.e.e.e.e.e.e.e.e.e.e.e.e.e.e.e.e.e.e.e."
};
