/* XPM */
static char *Free_Converter_com_iop64_4092555[] = {
/* columns rows colors chars-per-pixel */
"64 64 114 2 ",
"   c #14AFA6",
".  c #17AFA8",
"X  c #17B0A9",
"o  c #1DB0AB",
"O  c #23B1AE",
"+  c #29B2AF",
"@  c #25B2B0",
"#  c #2BB3B3",
"$  c #32B4B6",
"%  c #3CB6B5",
"&  c #36B5B9",
"*  c #3CB7BD",
"=  c #42B6B4",
"-  c #4AB7B5",
";  c #42B7BA",
":  c #44B8BD",
">  c #4CB9BB",
",  c #52BABB",
"<  c #5CBDBC",
"1  c #65BFBE",
"2  c #69C0BF",
"3  c #3FB8C0",
"4  c #43B9C4",
"5  c #4CBBC5",
"6  c #47BBC8",
"7  c #4BBCCC",
"8  c #54BCC3",
"9  c #5ABDC4",
"0  c #52BDCD",
"q  c #5BBFCB",
"w  c #4FBED1",
"e  c #53BFD3",
"r  c #62BFC3",
"t  c #5EC0CD",
"y  c #57C0D7",
"u  c #59C0D6",
"i  c #5BC2DC",
"p  c #63C0C5",
"a  c #6CC2C5",
"s  c #62C1CE",
"d  c #6CC3CB",
"f  c #74C4C5",
"g  c #7CC6C6",
"h  c #75C5CB",
"j  c #7CC7CB",
"k  c #7EC8CC",
"l  c #63C2D3",
"z  c #6AC4D4",
"x  c #64C3DA",
"c  c #6BC5DA",
"v  c #74C6D3",
"b  c #79C7D1",
"n  c #7CC9D4",
"m  c #72C7D9",
"M  c #7BCADC",
"N  c #5FC3E0",
"B  c #60C4E2",
"V  c #80C7C4",
"C  c #83C9C7",
"Z  c #81C8CC",
"A  c #8CCCCC",
"S  c #93CECD",
"D  c #84CBD4",
"F  c #8BCDD4",
"G  c #85CCDA",
"H  c #8CCEDC",
"J  c #92CFD3",
"K  c #96D0D5",
"L  c #9CD2D3",
"P  c #94D1DB",
"I  c #9BD3DC",
"U  c #A4D5D5",
"Y  c #A9D7D6",
"T  c #A3D6DB",
"R  c #A9D7D9",
"E  c #A7D8DC",
"W  c #ABD9DD",
"Q  c #B4DCDD",
"!  c #B9DEDE",
"~  c #81CCE0",
"^  c #93D2E1",
"/  c #9CD5E3",
"(  c #A2D7E2",
")  c #A5D8E3",
"_  c #ACDAE4",
"`  c #AEDCE9",
"'  c #B4DDE4",
"]  c #B9DEE1",
"[  c #B4DEE9",
"{  c #B8DFE8",
"}  c #BDE0E4",
"|  c #BDE2EA",
" . c #C4E3E5",
".. c #CBE6E6",
"X. c #CFE8E6",
"o. c #C4E4EC",
"O. c #CBE7EA",
"+. c #CEE8ED",
"@. c #D4EAEC",
"#. c #DAEDEE",
"$. c #C8E6F0",
"%. c #CEE9F0",
"&. c #D5ECF1",
"*. c #DAEEF2",
"=. c #DFF0F4",
"-. c #E4F2F4",
";. c #EAF5F6",
":. c #E5F4F8",
">. c #ECF6F9",
",. c #EFF8FA",
"<. c #F0F7F9",
"1. c #F4FAFB",
"2. c #FEFFFF",
"3. c None",
/* pixels */
"3.3.3.3.3.3.3.3.3.3.3.3.3.3.3.3.3.3.3.3.3.3.3.3.3.3.3.3.3.3.3.3.3.3.3.3.3.3.3.3.3.3.3.3.3.3.3.3.3.3.3.3.3.3.3.3.3.3.3.3.3.3.3.3.",
"3.3.3.3.3.3.3.3.3.3.3.3.3.3.3.3.3.3.3.3.3.3.3.3.3.3.3.3.3.3.3.3.3.3.3.3.3.3.3.3.3.3.3.3.3.3.3.3.3.3.3.3.3.3.3.3.3.3.3.3.3.3.3.3.",
"3.3.3.3.3.3.3.3.3.3.3.3.3.3.3.3.3.3.3.3.3.3.3.3.3.3.3.3.3.3.3.3.3.3.3.3.3.3.3.3.3.3.3.3.3.3.3.3.3.3.3.3.3.3.3.3.3.3.3.3.3.3.3.3.",
"3.3.3.3.3.3.3.3.3.3.3.3.3.3.3.3.3.3.3.3.3.3.3.3.3.3.3.3.3.3.3.3.3.3.3.3.3.3.3.3.3.3.3.3.3.3.3.3.3.3.3.3.3.3.3.3.3.3.3.3.3.3.3.3.",
"3.3.3.3.3.3.3.3.3.3.3.3.3.3.3.3.* * * * * & & & & $ $ & $ $ $ # # + # + # @ @ @ + O o O o O o o 3.3.3.3.3.3.3.3.3.3.3.3.3.3.3.3.",
"3.3.3.3.3.3.3.3.3.3.3.3.3.3.3.* * * * * * * & & & & $ $ $ $ $ # # $ # # # # @ @ O O O O O O o o O 3.3.3.3.3.3.3.3.3.3.3.3.3.3.3.",
"3.3.3.3.3.3.3.3.3.3.3.3.3.3.4 * : * * * * & & * & & $ $ $ $ $ # $ # + # + @ + + + + O + O o o o o o o o o o                 3.3.",
"3.3.3.3.3.3.3.3.3.3.3.3.3.3.3 3 * J #.@.@.@.@.&.#.@.@.@.@.@.@.@.@.@.@.@.@.@.@.@.@.@.X.X.X.X.A o o o o o o . . .             3.3.",
"3.3.3.3.3.3.3.3.3.3.3.3.3.3 4 * 8 ,.2.2.2.2.2.2.2.2.2.2.2.2.2.2.2.2.2.2.2.2.2.2.2.2.2.2.2.2.<.= o O o o o o . . . . .       3.3.",
"3.3.3.3.3.3.3.3.3.3.3.3.4 4 4 3 ] 2.2.2.2.2.2.2.2.2.2.2.2.2.2.2.2.2.2.2.2.2.2.2.2.2.2.2.2.2.2.Q o o o O o o o o . .         3.3.",
"3.3.3.3.3.3.3.3.3.3.3.4 4 4 * d 2.2.2.<.] ] ] ] ] ] ] ] ] ! ] Q ! ' Q Q Q Q Q Q ! Q Q Q ;.2.2.2.< O O o o o o . o . .       3.3.",
"3.3.3.3.3.3.3.3.3.4 4 4 3 4 4 @.2.2.1.9 3 * * * * & * & & & & $ $ $ $ $ $ # $ # # + + + , 1.2.2.X.O O o o o o o o   . . . . 3.3.",
"3.3.3.3.3.3.3.3.4 4 4 6 4 4 F 2.2.2.W 4 9 J J J J J J J A J f ; p f > f a g A S C g A , + Y 2.2.2.V O o o o o o o . . . . . 3.3.",
"3.3.3.3.3.3.3.6 5 6 4 4 4 6 ;.2.2.;.5 * +.2.1.<.-.] X.&.Q @.#.] Q f -.2.2.@.<.2.2.L 2. .+ $ ;.2.2.-.+ O O O o o o o . o o . 3.3.",
"3.3.3.3.3.3.6 6 5 6 4 4 4 _ 2.2.2.J 4 8 } #.O.&.,.2.2.1. .&.A Q <.2.....2.2.Q -.2.2.X.2.f + A 2.2.2.L O O o o o o o o . o . 3.3.",
"3.3.3.3.3.7 6 6 6 6 6 4 q 1.2.2.#.4 4 -.2.2.2.2.>.Q @.#.] T ] X.! 2.2.:.X.1.2.#.;.2.=.! =.+ + #.2.2.1.- O o O o o o o . o . 3.3.",
"3.3.3.3.7 5 7 6 5 6 6 6 o.2.2.2.h 4 I 2.2.:.W @.-.<.&. .9 #.2.2.<.X.@.,.2.Y -.2...@.2.#.;.S # 2 2.2.2.! + O O O . o o o . . 3.3.",
"3.3.w 7 7 7 5 7 5 6 6 v 2.2.2.o.4 5 +. . .,.2.2.#._ @.U <.;.W @.-.,.<.X.@.1.;. .<.-.#.2...#.= # ! 2.2.2.1 O O o O O o o o o 3.3.",
"3.3.7 7 7 7 7 7 6 6 7 #.2.2.1.t 4 _ 2.2.2.1. .} <.] 9 W &.=.<.2.,.! @.#.;.Q @.-.X.;.#. .1...Q + - 1.2.2.@.+ O O O o o o o o 3.3.",
"3.3.7 w 7 7 7 7 7 6 P 2.2.2.W 4 4 1.2.1.] &.2.O.@.E -.2.2.;.@.&.! O.@.! Q @...] Q @.Y ;.@.1.! , # U 2.2.2.C + O O o o O o o 3.3.",
"3.3.w 7 7 7 7 7 7 0 <.2.2.:.5 5 F :.@.*.1.2.+.&.h r I Z K K k K K k K a , , : L U f L !  .Q @.U # % -.2.2.;.$ o O O O O O o 3.3.",
"3.3.w w w 7 w 7 7 ' 2.2.2.H 6 s F +.2.2.#.' ,.O.D 4 4 : 3 3 3 3 ; * * * & & &  .1.! ;.Y A Q ..#., + C 2.2.2.Y O O O O o o o 3.3.",
"3.3.7 w w w 7 7 z 1.2.2.&.5 7 } I 2.,.+.>.;.W W 8 4 4 * 3 3 * ; : * * * & * & 9 1.X.2.! 2. .S A L # # @.2.2.1., O O O O o O 3.3.",
"3.3.w w w 7 w w $.2.2.2.m 6 q $.H ;.o.1.;.*.@.n 4 4 3 4 3 3 3 * * * * * * & * & L ;...;.;.2.O.@.U C # 1 2.2.2. .@ @ @ O O o 3.3.",
"3.3.w w w 7 w G 2.2.2.| 7 s | @.I ;.2.*.o.-.@.5 4 3 4 3 4 * 3 3 3 * * * * * * & ; >.O.2. .2.Q 2.W C $ # ! 2.2.2.f @ O + O O 3.3.",
"3.3.w 0 0 w 7 :.2.2.1.q 7 { =.&.I 2.-.-.,.] v 6 4 4 3 4 3 4 3 3 3 3 3 * * * & * & g #.1. .2.@.2.X.2.Y # = 1.2.2.#.@ @ + O O 3.3.",
"3.3.w e w 0 ( 2.2.2.( 7 n { 1.' I $.@.2.+.&.6 4 4 4 4 4 4 * * 4 3 3 * * * 3 * * & * @.Q @.2.X.2.#.2.1.= # L 2.2.2.S @ O @ O 3.3.",
"3.3.w e w u ,.2.2.:.w 7 *.&.1.=.P &.2.T ,.v 4 6 4 4 4 3 4 4 4 4 4 * 3 3 3 ; * * * & a O.X.:.Q 2.W 2.=. .# $ -.2.2.<.% @ @ O 3.3.",
"3.3.e e e | 2.2.2.G 7 P -.>.=.>.E | #.,.} 7 6 4 P 4 4 4 F ' Q F 4 * 3 L E E T A : * * K X.#.&.2.@.2...2.A # g 2.2.2.W O @ @ 3.3.",
"3.e e e m 2.2.2.%.0 e >.{ 2.' 1.o.P :.1.t 6 4 6 *.4 7 @.T d s T O.5 3 #.h h h K &.; * > W @.X.2.#.2.! 2.;.$ $ ..2.2.2.< + + @ 3.",
"3.u e e %.2.2.2.m w ' 2.*.2.&.>.%.G <.P 4 6 6 6 &.4 } F 4 4 4 4 F ' * &.4 * 4 * ] f & * 9 Y ! 1.! 2.@.2.;.A $ < 1.2.2...# + + 3.",
"e e e ^ 2.2.2.o.w z 1.o.1.2.*.%.;.) I 7 7 7 5 6 &.6 *.4 4 4 4 4 4 #.4 &.3 3 * r o.* * * * f X.2.#.=.#.2.Q 1., $ ! 2.2.2.g @ @ # ",
"N e e ^ 2.2.2.o.7 z 1.$.2.&.-.*.2.&.n 6 7 6 7 6 &.6 *.4 6 4 4 4 4 &.4 -. . . .L p * 3 * * T W <.-.@.1.2.X.1., $ ] 2.2.2.g # @ # ",
"3.e e e %.2.2.2.m y / ;.2.&.2.*.1.{ %.v 7 7 6 6 &.6 O.v 4 4 4 4 b  .4 @.4 4 * 4 * * * 4 A <.a  .@.@.2.@.2.R $ < 2.2.2.X.# # # 3.",
"3.u y e M 2.2.2.%.y u <.2.$.2.{ 2.*.[ o.0 7 6 7 *.5 s &.n 4 4 D &.9 4 &.4 3 4 * 3 3 * 8 ,.#.F ..,.Q 2.W ;.* $ X.2.2.2.< # # # 3.",
"3.3.y y y [ 2.2.2.G e ^ 2.o.2.&.2.&.*.%.P 7 7 7 _ 6 6 9 ' $.O._ 8 4 4 _ 3 4 4 3 3 * 4 W 1.#...K 1.#.;.;.A $ j 2.2.2.W # $ $ 3.3.",
"3.3.i e e x 1.2.2.:.y w %.>.2.&.2.{ 1.-.%.n 7 7 5 6 6 6 6 6 6 4 4 4 6 4 4 4 3 3 4 : d ,.W 2. .k @.2.O.@.& & -.2.2.>.; $ # $ 3.3.",
"3.3.i u i e ) 2.2.2._ w u 1.2.{ 2.*.2.| o.o.7 7 6 7 6 7 6 6 6 6 6 6 4 4 4 4 4 4 * * #.+.2.-.=.T Q 2.Q a & U 2.2.2.J $ $ $ # 3.3.",
"3.3.e i i e e :.2.2.,.l e [ 2.*.2.%.2.&.1.*.H 7 7 7 7 6 6 6 6 6 4 4 4 4 4 3 4 4 : b } ,.#. .2.A @.#.Q * , ,.2.2.#.& $ $ $ $ 3.3.",
"3.3.e i e i e H 2.2.2.| e e [ o.2.o.2.%.1.&.>.w 7 7 7 7 7 6 6 6 4 6 6 4 4 4 4 3 4 @.&.#.:.2.;.I @.T 8 & ] 2.2.2.f & $ $ # $ 3.3.",
"3.3.i y y i e u $.2.2.2.M w ~ ( =.*.2.=.:.+.-./ 7 7 7 7 7 6 6 6 6 6 4 4 4 4 4 4 Z &.O.#.2.W -.T +.d & a 2.2.2. .& & & $ $ $ 3.3.",
"3.3.i u i e e i m 2.2.2.&.e e _ _ ^ +.2.&.2.&.1.z 7 7 7 7 7 6 6 6 6 6 6 6 4 6 q I @.<.:.@.1.2.K } : * &.2.2.1.9 * & $ & & $ 3.3.",
"3.3.N i N e u i u [ 2.2.2.^ e m &.$.| [ ( >.%.2.| 7 7 7 7 6 7 5 6 6 6 6 6 4 4 F  .-.O.O.2.2.#.K 5 & A 2.2.2.W * & & & & & $ 3.3.",
"3.3.i i e i i e u i >.2.2.>.e e / =.$.$.G ' / G ) z l t G I G I I D I P G I d ) &.O.1.2.@.' 2.j : 4 -.2.2.<.: * * & * & & $ 3.3.",
"3.3.i i N N i e i e / 2.2.2.` e m %.1.*.>.&.%.{ +.o.{ %.| #.&.' &.*.-.2.2.-.K o.&.1.] &.1.2.1.4 * R 2.2.2.F * * * * * & & & 3.3.",
"3.3.i i i e i i e i i =.2.2.1.c e { $.1.%.*.*.%.2.| o.1.O.$.*.;.2.2.*.*.' H T :.@.&.,.2.2.2.I : t 1.2.2.#.: * * & * & & & & 3.3.",
"3.3.i i i i i i u e u ~ 2.2.2.o.e x =.%.2.=.:.2.o.*.2.&.{ 2.2.$.&.&.*.1.P o.&.@.<.2.<.] O.+.5 4  .2.2.2.d * * * * * * * * & 3.3.",
"3.3.N i i i i i i i u u $.2.2.2.~ e ) >.*.2.=.$.2.:.%.2.1.*.&.>.2.2.+.I ' } 2.:.O.] :.2.2.I 4 h 2.2.2. .4 * * : * * * * 3.3.3.3.",
"3.3.N i i i N i i i i y c 1.2.2.=.e u :.o.>.2.:.=.2.1.` <.2.1.+.#.| G o.#.&.' ,.2.2.2.2.-.4 4 #.2.2.1.8 * * * * * * * 3.3.3.3.3.",
"3.3.N N i i i i i u i y y ` 2.2.2./ e H 2.&.1.2.>.| 2.2.:.$.2.>.I _ &.o.2.2.1.1.-.} *.@.4 4 P 2.2.2.E 4 4 * 4 * 4 * 3.3.3.3.3.3.",
"3.3.i N i N N i i i i i u i >.2.2.>.i e %.2.) 2.2.,.&.2.2.%.I { | =.&.' &.&.| -.1.1.2.$.4 5 >.2.2.:.4 4 4 4 3 * * 3.3.3.3.3.3.3.",
"3.3.N N i B i i N i i i u i ^ 2.2.2.[ e c / ^ ^ / / H H G t M v w v / P P I I P I P P t 5 ' 2.2.2.F 4 4 * 4 3 4 3.3.3.3.3.3.3.3.",
"3.3.B B i i B i i i i i i i u &.2.2.1.m e y e y w e y w w w w w 0 7 w 7 7 7 7 7 5 6 6 6 s 2.2.2.@.4 4 4 3 4 4 3.3.3.3.3.3.3.3.3.",
"3.3.B i N B i i N i i i i i N M 2.2.2.,.| o.| | o.| | | | o.| | | | | | | | } | | | } | >.2.2.2.d 4 4 4 4 3.3.3.3.3.3.3.3.3.3.3.",
"3.3.B B B B i B i i N i i i i y o.2.2.2.2.2.2.2.2.2.2.2.2.2.2.2.2.2.2.2.2.2.2.2.2.2.2.2.2.2.2.| 4 5 4 4 3.3.3.3.3.3.3.3.3.3.3.3.",
"3.3.B B N i B i N N i i i i i i c 1.2.2.2.2.2.2.2.2.2.2.2.2.2.2.2.2.2.2.2.2.2.2.2.2.2.2.2.2.,.0 6 4 6 3.3.3.3.3.3.3.3.3.3.3.3.3.",
"3.3.B B B B i B i N B i i i i i i / *.*.*.*.*.&.&.&.&.&.&.&.&.&.*.&.&.&.&.&.&.&.*.&.*.&.&.&.^ 5 6 4 3.3.3.3.3.3.3.3.3.3.3.3.3.3.",
"3.3.B B B B B B N N i i i N i i y i i i i y i e y y y e y y y e e w w 0 w 0 0 7 7 7 7 5 6 5 6 6 7 4 3.3.3.3.3.3.3.3.3.3.3.3.3.3.",
"3.3.3.3.3.3.3.3.3.3.3.3.3.3.3.i i i i i y i e i y y y y w y e e w e w 0 w w w 7 7 7 7 7 7 7 6 6 5 3.3.3.3.3.3.3.3.3.3.3.3.3.3.3.",
"3.3.3.3.3.3.3.3.3.3.3.3.3.3.3.3.i i i i i e i e y y y y y w e e w e e w w 0 0 7 w 7 7 7 7 6 6 7 3.3.3.3.3.3.3.3.3.3.3.3.3.3.3.3.",
"3.3.3.3.3.3.3.3.3.3.3.3.3.3.3.3.3.3.3.3.3.3.3.3.3.3.3.3.3.3.3.3.3.3.3.3.3.3.3.3.3.3.3.3.3.3.3.3.3.3.3.3.3.3.3.3.3.3.3.3.3.3.3.3.",
"3.3.3.3.3.3.3.3.3.3.3.3.3.3.3.3.3.3.3.3.3.3.3.3.3.3.3.3.3.3.3.3.3.3.3.3.3.3.3.3.3.3.3.3.3.3.3.3.3.3.3.3.3.3.3.3.3.3.3.3.3.3.3.3.",
"3.3.3.3.3.3.3.3.3.3.3.3.3.3.3.3.3.3.3.3.3.3.3.3.3.3.3.3.3.3.3.3.3.3.3.3.3.3.3.3.3.3.3.3.3.3.3.3.3.3.3.3.3.3.3.3.3.3.3.3.3.3.3.3.",
"3.3.3.3.3.3.3.3.3.3.3.3.3.3.3.3.3.3.3.3.3.3.3.3.3.3.3.3.3.3.3.3.3.3.3.3.3.3.3.3.3.3.3.3.3.3.3.3.3.3.3.3.3.3.3.3.3.3.3.3.3.3.3.3."
};
