/* XPM */
static char *novacoin_32[] = {
/* columns rows colors chars-per-pixel */
"32 32 172 2 ",
"   c #6B3F0A",
".  c #6E430E",
"X  c #704103",
"o  c #74430B",
"O  c #7A4F0F",
"+  c #7F5004",
"@  c #774C12",
"#  c #7A5016",
"$  c #744B22",
"%  c #7C4F21",
"&  c #7F5223",
"*  c #7C5A33",
"=  c #874D0F",
"-  c #884E0F",
";  c #835006",
":  c #875805",
">  c #8D5D07",
",  c #805610",
"<  c #815817",
"1  c #925911",
"2  c #9A5B15",
"3  c #98660E",
"4  c #9E6B0E",
"5  c #936519",
"6  c #A0631B",
"7  c #B26B1B",
"8  c #AC7616",
"9  c #B57D1D",
"0  c #885F23",
"q  c #825928",
"w  c #8D652F",
"e  c #926028",
"r  c #886538",
"t  c #8C6532",
"y  c #966C33",
"u  c #946D38",
"i  c #99733E",
"p  c #9E783F",
"a  c #9D7136",
"s  c #AA7327",
"d  c #BB7727",
"f  c #B07C22",
"g  c #A07334",
"h  c #AD7630",
"j  c #AD7B36",
"k  c #A37738",
"l  c #A2793D",
"z  c #AE7E3A",
"x  c #B47E3A",
"c  c #987540",
"v  c #9D7943",
"b  c #9C7B4E",
"n  c #9C7E55",
"m  c #AF7E41",
"M  c #BD861E",
"N  c #B68429",
"B  c #BB862A",
"V  c #AD8038",
"C  c #B38139",
"Z  c #C88F27",
"A  c #C88229",
"S  c #C98C28",
"D  c #C3822A",
"F  c #D1952C",
"G  c #C18736",
"H  c #C78837",
"J  c #D7993C",
"K  c #E49E38",
"L  c #E6A637",
"P  c #EAA936",
"I  c #EFA63C",
"U  c #A58245",
"Y  c #A98243",
"T  c #A3804F",
"R  c #B98846",
"E  c #B68E4B",
"W  c #BC8A4A",
"Q  c #BF974F",
"!  c #BE9757",
"~  c #BF9B53",
"^  c #BD9A5E",
"/  c #CC9A44",
"(  c #C0974C",
")  c #C59447",
"_  c #D39B45",
"`  c #C79C51",
"'  c #CB9D52",
"]  c #D5A248",
"[  c #DBA64B",
"{  c #DCA94D",
"}  c #DAA144",
"|  c #CFA754",
" . c #CCA458",
".. c #D4AA5B",
"X. c #DFAC52",
"o. c #DAB258",
"O. c #E0A74B",
"+. c #E7AF4C",
"@. c #EDB64C",
"#. c #F0B049",
"$. c #F6BA49",
"%. c #F7B848",
"&. c #E0AD53",
"*. c #E6B356",
"=. c #E5B45A",
"-. c #E8B75B",
";. c #E6BA5B",
":. c #EBBA5D",
">. c #EAB453",
",. c #F4BF59",
"<. c #C49F60",
"1. c #CAA562",
"2. c #D5A663",
"3. c #DDB76F",
"4. c #DEB96F",
"5. c #E1B761",
"6. c #E1B863",
"7. c #EBBC63",
"8. c #E2BA6F",
"9. c #F0BF62",
"0. c #E1BD7D",
"q. c #FBC355",
"w. c #FBC75B",
"e. c #E5C161",
"r. c #EFC765",
"t. c #EFC669",
"y. c #EACA68",
"u. c #F6CD67",
"i. c #FCCE62",
"p. c #FACD68",
"a. c #F3C567",
"s. c #FCD267",
"d. c #F7D26B",
"f. c #FED169",
"g. c #FED86E",
"h. c #EBC171",
"j. c #ECC77D",
"k. c #F3CB71",
"l. c #FCCF75",
"z. c #F3CC78",
"x. c #EED173",
"c. c #F5D572",
"v. c #F7D876",
"b. c #FCDB74",
"n. c #F5D17C",
"m. c #FAD57A",
"M. c #FCDE7B",
"N. c #F7E37E",
"B. c #FBE17E",
"V. c #F5D485",
"C. c #FAD885",
"Z. c #FBDC95",
"A. c #F7D998",
"S. c #FDE584",
"D. c #FFE987",
"F. c #FDE28A",
"G. c #FFEB8A",
"H. c #FCE294",
"J. c #FEED97",
"K. c #FDEE9B",
"L. c #FFF591",
"P. c #FDF19D",
"I. c #FAE4A4",
"U. c #FEF4A3",
"Y. c #F8E5B5",
"T. c #FCECB0",
"R. c #F9E4B8",
"E. c #FDF6B2",
"W. c #FFF0B8",
"Q. c #F6E8C7",
"!. c #FFF2CC",
"~. c None",
/* pixels */
"~.~.~.~.~.~.~.~.~.~.~.~.~.~.~.~.~.~.~.] ] ] ] ] ] ] ~.~.~.~.~.~.",
"~.~.~.~.~.~.~.~.~.~.~.~.~.~.~.] ] { ;.r.u.s.s.s.s.c.r.>.{ ] ~.~.",
"~.~.~.~.~.~.~.~.~.~.~.~.~.~.] e.N.P.U.G.F.B.v.d.s.B.D.W.!.V.{ ~.",
"~.~.~.~.~.~.~.~.~.~.~.~.~.{ y.L.U.K.E.K.S.x.M.G.v.B.B.s.f.J.M./ ",
"~.~.~.~.~.~.~.~.~.~.~.~.~.&.m.U.P.U.K.H.J.S.S.S.D.d.s.g.b.w.w.z ",
"~.~.~.~.~.~.~.~.~.~.~.~.~.&.q.Z.T.K.G.G.N.x.c.M.v.B.d.m.l.@.F j ",
"~.~.~.~.~.~.~.~.~.~.~.~.~.&.q.p.C.Y.Q.R.A.A.H.z.6.4.1.Q N M Z z ",
"~.~.~.~.~.~.~.~.~.~.~.~.~.&.>.a.n.H.C.f.$.P F M 3 : > 4 8 f j C ",
"~.~.~.~.~.~.~.~.~.~.~.~.~.&.a.7.7.j.V.7.+.L F 9 5 O < e w k ] j ",
"~.~.~.~.~.~.~.~.~.~.~.~.~.&.q.Z.I.Z.y.6... .~ E Y v Y  .x.@.F j ",
"~.~.~.~.~.~.~.~.~.~.~.~.~.O.$.p.C.Y.Q.Y.A.A.Z.z.6.4.1.~ N M Z z ",
"~.~.~.~.~.~.] ] ] ] ] ] ] K K I #.:.:.>.#.P F 9 3 : > 4 8 f h C ",
"~.~.] ] { ;.y.u.s.s.s.s.d.t.-.{ } [ _ H d D A 9 5 O # w w p ] j ",
"~.] e.N.P.U.G.S.B.v.d.d.M.G.T.!.V.{ J G h e & p Y v Y ` h.@.F j ",
"[ y.L.U.J.E.K.S.c.M.G.v.S.M.s.s.K.B.) 2.( ) W ' e.4.1.Q N M Z V ",
"&.C.U.P.P.K.H.J.S.S.G.S.c.s.g.b.w.q.j _ A 7 2 1 3 : > 4 8 9 j C ",
"&.q.Z.T.K.G.S.S.v.c.b.v.M.d.m.z.@.F C V.{ D 2 1 5 # # e w a / V ",
"&.q.s.C.R.Q.R.A.Z.H.z.6.4.1.Q N M Z j K.M./ % $ p v m <.h.@.F V ",
"&.*.7.n.H.C.p.$.P F 9 3 : > 4 8 9 j ) w.w.z ) C x 3. .~ N M Z j ",
"~.*.-.-.j.V.7.+.L F 9 5 , < 0 w l 1.l.@.F x 2 - o ; > 4 8 M k C ",
"~.~.~.*.,.9.5...E Y c b b v m 1.1.Q N M Z j { s . O # e w k / j ",
"~.~.~.&.*.9.z.H.C.p.%.P F 9 3 ; > 3 8 N s Q B./ % r V ^ 8.@.F j ",
"~.~.~.~.*.-.7.j.V.7.+.L F 9 5 , < e w i | i.w.j V R ! ~ N M Z V ",
"~.~.~.~.~.+.,.h.j.0. .E Y c c v U ~ o.v.c.@.F j o X ; 3 8 f h C ",
"~.~.~.~.] X.q.s.C.Y.Q.Y.A.A.Z.z.6.4.1.Q N M Z j o . @ e w a / j ",
"~.~.~.[ y.7.*.9.z.H.F.d.%.P F 9 3 : > 4 8 f h g $ & y ! 4.@.F j ",
"~.~.~.&.C.K.n.7.7.j.V.7.+.L F 9 5 # < 0 w y m x j R E Q N M Z V ",
"~.~.~.&.q.Z.T.K.M.z.t.6.' E Y c u T T V B z 2 = o X ; 4 8 9 k j ",
"~.~.~.&.q.s.C.Y.Q.R.A.A.H.t.4.4.1.~ N M Z j 2 = . . @ 0 w y a ~.",
"~.~.~.&.*.7.n.H.C.p.$.P F M 3 > > 4 8 f j z U i r * * r ~.~.~.~.",
"~.~.~.~.*.-.7.j.j.7.+.L F 9 5 O # e w y g ~.~.~.~.~.~.~.~.~.~.~.",
"~.~.~.~.~.~.~.,.-...` E U i r * * * ~.~.~.~.~.~.~.~.~.~.~.~.~.~."
};
