/* XPM */
static char *novacoin_80[] = {
/* columns rows colors chars-per-pixel */
"80 80 253 2 ",
"   c #7A4B09",
".  c #794C19",
"X  c #7D5418",
"o  c #784D0F",
"O  c #7B5628",
"+  c #7C5A32",
"@  c #6A4A26",
"#  c #84550A",
"$  c #8C5C0A",
"%  c #875807",
"&  c #845413",
"*  c #8A5513",
"=  c #8D5C15",
"-  c #87591D",
";  c #945B16",
":  c #90570F",
">  c #9D6A15",
",  c #94651B",
"<  c #9B6C1C",
"1  c #976618",
"2  c #916314",
"3  c #A16E16",
"4  c #A46919",
"5  c #A6711C",
"6  c #AE781C",
"7  c #AA751C",
"8  c #B47C1A",
"9  c #865B25",
"0  c #8B5E2A",
"q  c #8A632A",
"w  c #9C6523",
"e  c #9C6C23",
"r  c #976927",
"t  c #9E7229",
"y  c #8B6532",
"u  c #886537",
"i  c #936B33",
"p  c #986E34",
"a  c #9C7337",
"s  c #A46B23",
"d  c #AA6D24",
"f  c #A26824",
"g  c #A57424",
"h  c #AA7623",
"j  c #AC7B25",
"k  c #A2732C",
"l  c #A67A2C",
"z  c #AC7C2A",
"x  c #AA7529",
"c  c #B47222",
"v  c #B17E25",
"b  c #B77A2A",
"n  c #A37533",
"m  c #AB7D32",
"M  c #A77A36",
"N  c #B57D35",
"B  c #B06F23",
"V  c #C37D27",
"C  c #997745",
"Z  c #A47C40",
"A  c #B8811D",
"S  c #AF812E",
"D  c #B58125",
"F  c #BA8425",
"G  c #B4832C",
"H  c #BB852B",
"J  c #BC882D",
"K  c #BE8827",
"L  c #AD8133",
"P  c #AC823C",
"I  c #B38433",
"U  c #BA8634",
"Y  c #BD8B34",
"T  c #BC8639",
"R  c #BD8A3C",
"E  c #B58639",
"W  c #C58D2D",
"Q  c #C7872B",
"!  c #CC912C",
"~  c #D2962A",
"^  c #D99B2B",
"/  c #C38D33",
"(  c #C38D3C",
")  c #C78835",
"_  c #C49136",
"`  c #CA9436",
"'  c #C5923B",
"]  c #CB963A",
"[  c #CD993C",
"{  c #CE9837",
"}  c #D29C3B",
"|  c #D59839",
" . c #D28B2F",
".. c #DCA23B",
"X. c #E3A43A",
"o. c #E7A939",
"O. c #F1AF36",
"+. c #E29F3D",
"@. c #AB8545",
"#. c #B78A46",
"$. c #BB924A",
"%. c #BE9150",
"&. c #C38C47",
"*. c #C49343",
"=. c #CA9543",
"-. c #CD9B44",
";. c #C7984B",
":. c #D29D42",
">. c #D59D48",
",. c #C79B55",
"<. c #D29B52",
"1. c #D5A144",
"2. c #DBA344",
"3. c #D5A24A",
"4. c #DAA54A",
"5. c #DDA94C",
"6. c #DAA84B",
"7. c #CCA253",
"8. c #CCA659",
"9. c #D3A554",
"0. c #DCAB53",
"q. c #DBAC5B",
"w. c #D5A957",
"e. c #D8AB54",
"r. c #EAAE45",
"t. c #E3AC4B",
"y. c #E4A843",
"u. c #E6B14D",
"i. c #EBB34C",
"p. c #EEB145",
"a. c #F4BB4E",
"s. c #F8B947",
"d. c #E2AD52",
"f. c #E2AC5A",
"g. c #E5B253",
"h. c #EBB552",
"j. c #EEB954",
"k. c #E4B45B",
"l. c #E9B55A",
"z. c #ECBB5C",
"x. c #E6B95C",
"c. c #F2BC55",
"v. c #F2BD5A",
"b. c #F6BB55",
"n. c #CAA666",
"m. c #D6AB66",
"M. c #DDB368",
"N. c #DBB676",
"B. c #D1AE72",
"V. c #E3B563",
"C. c #E4BC63",
"Z. c #EBBC63",
"A. c #E4BA6B",
"S. c #EABE6B",
"D. c #E2B66A",
"F. c #F1BF64",
"G. c #E4BE75",
"H. c #E3BD7B",
"J. c #E9BD74",
"K. c #D09F61",
"L. c #FAC14E",
"P. c #F6C155",
"I. c #FBC454",
"U. c #F5C35C",
"Y. c #FAC55A",
"T. c #FECA5D",
"R. c #FEC856",
"E. c #EEC15E",
"W. c #ECC265",
"Q. c #ECC36C",
"!. c #EAC66C",
"~. c #F3C463",
"^. c #F5CA64",
"/. c #FDCC63",
"(. c #F3C56B",
"). c #F3CB6C",
"_. c #FBCC6A",
"`. c #F9C763",
"'. c #FFD165",
"]. c #FED36B",
"[. c #FBD66E",
"{. c #EBC474",
"}. c #ECCA74",
"|. c #EAC47B",
" X c #EDCA7B",
".X c #E6C279",
"XX c #F4CB74",
"oX c #FACD72",
"OX c #F4CC7B",
"+X c #F4C976",
"@X c #EFD079",
"#X c #F5D174",
"$X c #FDD373",
"%X c #FEDA74",
"&X c #F4D47A",
"*X c #FCD47A",
"=X c #F6DA7C",
"-X c #FDDC7B",
";X c #F7D977",
":X c #FEE27D",
">X c #FFE97F",
",X c #D9B982",
"<X c #E5BE81",
"1X c #EDCC83",
"2X c #ECCB8B",
"3X c #E6C587",
"4X c #F2CD83",
"5X c #F3CE8B",
"6X c #EED287",
"7X c #F3D383",
"8X c #FBD483",
"9X c #FDDC83",
"0X c #F3D38B",
"qX c #FAD48B",
"wX c #F4DB8C",
"eX c #FCDC8B",
"rX c #F6DA83",
"tX c #E9CC95",
"yX c #EDD298",
"uX c #F3D395",
"iX c #FCDC93",
"pX c #F3D59A",
"aX c #FBDB9B",
"sX c #F5DA96",
"dX c #F1CF93",
"fX c #FDE383",
"gX c #FFEA85",
"hX c #FFE28B",
"jX c #FFEA8B",
"kX c #FDE493",
"lX c #FBE59A",
"zX c #FEEB9C",
"xX c #FAE796",
"cX c #FFF499",
"vX c #FFF38F",
"bX c #F4D9A6",
"nX c #F3DDB4",
"mX c #ECD4AA",
"MX c #FEECA3",
"NX c #FDEEAA",
"BX c #F9E3A8",
"VX c #FFF2A5",
"CX c #FEF2AC",
"ZX c #FFFBA4",
"AX c #F9E3B9",
"SX c #FEF5B3",
"DX c #FFF7BA",
"FX c #FAEAC7",
"GX c #FFFAC4",
"HX c #FFFAD8",
"JX c #F5E9D4",
"KX c #FFFCE5",
"LX c None",
/* pixels */
"LXLXLXLXLXLXLXLXLXLXLXLXLXLXLXLXLXLXLXLXLXLXLXLXLXLXLXLXLXLXLXLXLXLXLXLXLXLXLXLXLXLXLXLXLXLXLXLXLXt.u.t.t.u.i.i.u.i.u.t.r.LXLXLXLXLXLXLXLXLXLXLXLXLXLXLXLXLXLXLX",
"LXLXLXLXLXLXLXLXLXLXLXLXLXLXLXLXLXLXLXLXLXLXLXLXLXLXLXLXLXLXLXLXLXLXLXLXLXLXLXLXLXLXLXP 2.t.u.i.i.c.a.L.P.I.L.I.I.I.I.I.I.P.P.P.c.i.-.P LXLXLXLXLXLXLXLXLXLXLXLX",
"LXLXLXLXLXLXLXLXLXLXLXLXLXLXLXLXLXLXLXLXLXLXLXLXLXLXLXLXLXLXLXLXLXLXLXLXLXLXLX-.t.t.t.t.z.W.^._.$X*X;X-X-X-X$XoX%X-X>XgXgX>X>X:X:X[._.P.P.h.i.E LXLXLXLXLXLXLXLX",
"LXLXLXLXLXLXLXLXLXLXLXLXLXLXLXLXLXLXLXLXLXLXLXLXLXLXLXLXLXLXLXLXLXLXLXLXLX2.5.0.x.!.7XeXhXkXhXkXhXhXhXfX=X&X!.&X%X%X%X].T.).:XvXcXVXDXDXNXeX*X`.c.6.LXLXLXLXLXLX",
"LXLXLXLXLXLXLXLXLXLXLXLXLXLXLXLXLXLXLXLXLXLXLXLXLXLXLXLXLXLXLXLXLXLXLXt.6.6.}.wXlXzXzXMXzXxXkXhXxXjX&X}.&X&X-X-X%X$XU.W.W.].].].].%X9XkXDXKXKXGXiXY.c.5.LXLXLXLX",
"LXLXLXLXLXLXLXLXLXLXLXLXLXLXLXLXLXLXLXLXLXLXLXLXLXLXLXLXLXLXLXLXLXt.4.w. XMXMXMXlXzXDXGXDXCXzXjXjX9X9XfX9X9X;X#X!.W.#X%X:X[.].].'.'.'./././.sXSXHXGX9X/.h.LXLXLX",
"LXLXLXLXLXLXLXLXLXLXLXLXLXLXLXLXLXLXLXLXLXLXLXLXLXLXLXLXLXLXLXLXLX4.0.wXNXMXMXzXzXMXVXzXDXSXcXxXgXjXfX:X-X!.!.}.;X*X=X;X=X-X-X-X%X[.]./././.T.T.-XVXDXgXT.j.LXLX",
"LXLXLXLXLXLXLXLXLXLXLXLXLXLXLXLXLXLXLXLXLXLXLXLXLXLXLXLXLXLXLXLX5.3.7XCXMXMXMXNXCXMXxXxXSXDXVXvXgXjXfXfX!.!.9XgXfX}.!.).).^.!.[.).).^.].].]./././.T.gXZX-XY.u.LX",
"LXLXLXLXLXLXLXLXLXLXLXLXLXLXLXLXLXLXLXLXLXLXLXLXLXLXLXLXLXLXLXLXg.0.lXNXCXSXSXBXxXsXxXxXzXDXVXxX=X@X@X{.OX&X}.&X@X:XgX-X$X$X$X%X%X-X;X/.U.P.Y.T.[.%XT.gX:XY.5.LX",
"LXLXLXLXLXLXLXLXLXLXLXLXLXLXLXLXLXLXLXLXLXLXLXLXLXLXLXLXLXLXLXLXz.d.sXGXCXBXxXxXzXzXzXVXzXsXwX7XwXxXhXeX9X9X-X&X=X}.gXgX=X:XgXfX#XE.U.T.T.'.'.'.%X[.s.T.T.P.*.LX",
"LXLXLXLXLXLXLXLXLXLXLXLXLXLXLXLXLXLXLXLXLXLXLXLXLXLXLXLXLXLXLXLXt.W.W.6XzXMXMXCXCXCXzXwX7XeXkXlXxXNXwXhXhXfX9XfX=X@X:X@X:XfX).x.T.'.'.'.'.%X%X%XT.L.I.R.I.t.T LX",
"LXLXLXLXLXLXLXLXLXLXLXLXLXLXLXLXLXLXLXLXLXLXLXLXLXLXLXLXLXLXLXLXt.g.XX{.0XCXSXCXxXhXsXkXxXxXhXhXfX0X@X@X X}.{.Q.!.}.@X=X}.x.^.].].].[.:X:X[./.P.L.I.I.b.g.| R LX",
"LXLXLXLXLXLXLXLXLXLXLXLXLXLXLXLXLXLXLXLXLXLXLXLXLXLXLXLXLXLXLXLXi.h.l.OX5X4X6X0XxXlXxXxXxXxXkXhXhXhXeX9X9X9X-X-X-X-X=X&X}.:X%X:X-X-X#X).`.P.I.T.T.P.P.2.[ { Y LX",
"LXLXLXLXLXLXLXLXLXLXLXLXLXLXLXLXLXLXLXLXLXLXLXLXLXLXLXLXLXLXLXLXh.c.j.(.A.qXpXuXyXuXsXhXhXkXhXkXhXeXhX9X9X9X9X-X*X%X$XoXW.W.^.E.U.~.U.T./._.*X+XU.3.:._ } } ( LX",
"LXLXLXLXLXLXLXLXLXLXLXLXLXLXLXLXLXLXLXLXLXLXLXLXLXLXLXLXLXLXLXLXh.c.v._.Z.OXJ.dXAXnXAXFXpX0X4X&X-X8XfX9X9X9X9X-X-X*X$X$X].].'./._.$XoXiXsXpXN.-.=.F } ` } [ R LX",
"LXLXLXLXLXLXLXLXLXLXLXLXLXLXLXLXLXLXLXLXLXLXLXLXLXLXLXLXLXLXLXLXi.c.v._.Z.oXQ.OX1X.XmXmXbXFXnXbXAXuXuXqX4XOX8X*XoX$X_._.oX8X8X|.3XN.m.n.m Y j G ] K -.` } | R LX",
"LXLXLXLXLXLXLXLXLXLXLXLXLXLXLXLXLXLXLXLXLXLXLXLXLXLXLXLXLXLXLXLXt.j.c._.Z.*X!.*X7X}.lX3X|.2XN.{.|.M.J.|.D.{.G.M.m.D.9.*.3.P t E P = l S > Y D J ' K } ' | Y *.LX",
"LXLXLXLXLXLXLXLXLXLXLXLXLXLXLXLXLXLXLXLXLXLXLXLXLXLXLXLXLXLXLXLXz.d.d.F.z.oXQ.*X7X XkX7X&X8XZ.(.F.4.b.r.| t.| Q _ *.5 g E , $ g L $ S S 3 ' D J ] K } W ( =.=.LX",
"LXLXLXLXLXLXLXLXLXLXLXLXLXLXLXLXLXLXLXLXLXLXLXLXLXLXLXLXLXLXLXLXg.Z.d.g.k.(.S.OX1X XxX7XXX-XW.`.`.r.b.s...r...! { [ 8 h Y e $ z L % D I 3 Y G G Y F Y I 4.u.( LX",
"LXLXLXLXLXLXLXLXLXLXLXLXLXLXLXLXLXLXLXLXLXLXLXLXLXLXLXLXLXLXLXLXt.Z.(.x.S.V.V.{.|.|.sX2XOX-XZ.`./.i.b.s.o.p.o.~ | } 8 j Y < $ j L % D S 3 Y D D L t -.g.Y.4.E LX",
"LXLXLXLXLXLXLXLXLXLXLXLXLXLXLXLXLXLXLXLXLXLXLXLXLXLXLXLXLXLXLXLXu.h.F.OX X4XQ.W.W.A.3X<X|.4XV.(.v.t.v.s.X.r...~ { } 6 h Y < $ g t # g t 2 a p P -.j.Y.i.2.{ R LX",
"LXLXLXLXLXLXLXLXLXLXLXLXLXLXLXLXLXLXLXLXLXLXLXLXLXLXLXLXLXLXLXLXi.h.l.(.4X0X2X}.&X).!.!.C.A.M.x.f.t.h.y.| 5.| / ' R 7 g I 2 X r q 9 y p P 3.g.U.T.j.h.] { { R LX",
"LXLXLXLXLXLXLXLXLXLXLXLXLXLXLXLXLXLXLXLXLXLXLXLXLXLXLXLXLXLXLXLXh.c.v._.k.4X2XbXAXdXwX7X).).(.C.V.q.w.;.;.*.#.P P P M a @.a P $.;.3.g._.*XqXsXA.0.Y [ _ } | Y LX",
"LXLXLXLXLXLXLXLXLXLXLXLXLXLXLXLXLXLXLXLXLXLXLXLXLXLXLXLXLXLXLXLXh.c.c._.Z.*XS. XyXtXFXJXbXFXpX4X4XXX).XX).^.W.~.E.W.^.^.U.^.).).9XqX1XyXN.M.Y Y ] H } _ } } R LX",
"LXLXLXLXLXLXLXLXLXLXLXLXLXLXLXLXLXLXLXLXLXLXLXLXLXLXLXLXLXLXLXLXd.c.c._.Z.oXQ.*X1X.XsXtX2XmXtXdXnXpXaXAXuXqXiXqXXX8X8X+X(. Xm.n.n.P P P 3 Y D H ] H :.` } ` R LX",
"LXLXLXLXLXLXLXLXLXLXLXLXLXLXLXLXLXLXLXLXLXLXLXLXLXLXLXLXLXLXLXLXd.h.h._.z.*XQ.*X7X XlX1X X7XV.S.S.>.h.y.` 5.3._ =.*.> g E , # x L % S S 5 Y D J ] K } ` [ U -.LX",
"LXLXLXLXLXLXLXLXLXLXLXLXLXLXLXLXLXLXLXLXLXLXLXLXLXLXLXLXLXLXLXLXz.g.d.Z.k.*XS.*X7X}.kX6X#X-XC.).`.t.b.p.| u...W ` =.7 h Y e $ j L % D I 3 ' G J _ H ] H R 5.=.LX",
"LXLXLXLXLXLXLXLXLXLXLXLXLXLXLXLXLXLXLXLXLXLXLXLXLXLXLXLXLXLXLXLXt.S.g.k.k.C.D. X1X}.kX6XOX-X~.`.`.r.b.s.X.p...~ { } 8 6 Y < $ j L % D I 3 Y D H Y x m *.j.t.T LX",
"LXLXLXLXLXLXLXLXLXLXLXLXLXLXLXLXLXLXLXLXLXLXLXLXLXLXLXLXLXLXLXLXr.l.J.S.Q.Q.C.S.G..XuX3XOX7XC.`.`.t.b.s.X.i.o.~ { [ A S Y < $ j S % l S 1 I k k m R h.c.j.[ R LX",
"LXLXLXLXLXLXLXLXLXLXLXLXLXLXLXLXLXLXLXLXLXLXLXLXLXLXLXLXLXLXLXLXi.l.b.4X5X4X!.).(.C.{.G.J.|.D.S.F.y.b.p...u...! { ] 7 7 Y , % g t o e q q i N 3.h.P.Y.5.| { R LX",
"LXLXLXLXLXLXLXLXLXLXLXLXLXLXLXLXLXLXLXLXLXLXLXLXLXLXLXLXLXLXLXLXp.p.i.b.l.4XdX|.4XXX).).).Z.V.q.9.9.4.>.[ -.' Y Y L t r a X O y i a P ;.0.^.$X(.U.3.:./ [ { R LX",
"LXLXLXLXLXLXLXLXLXLXLXLXLXP P u.u.u.i.a.a.a.a.a.c.a.a.a.a.j.i.u.r.p.r.s.y.b.l.F.qX{.4X4XS.W.~.W.).W.C.q.e.w.7.$.;.;.;.;.7.e.e.x.z.(._.qXuX0X3X-.=.H } _ ..} R LX",
"LXLXLXLXLXLXLXLXLXt.t.t.t.u.h.U.`.`._._.].].].].].'.'.[.%X%X].'.`.b.b.c.j.h.t.h.k.k.+XH.J.3XN.D.<XJ.4XqXqXOX8XoXoXoX$X/.oX*X*XOXwXN.B.n.#.R D G ' K [ ' [ [ R LX",
"LXLXLXLXLXLX=.5.5.g.Z.).&X9XhXeXhXeXfXhXfX=X#X{.%X:X>X>X:X:XgXcXcXCXMXkX$X].Y.b.h.h.F.f.d.f.>.>.<.&.<.K.m.J.J.D.f.A.q.;.9.#.k N P 2 S S 3 Y D J ` K } ] ../ R LX",
"LXLXLXLXt.4.6.!.rXiXlXxXxXxXkXhXhXjXgX=X}.XX&X-X-X%X[.U.P.E.].%X9XhXzXDXHXHXFXlX_.P.j.g.i.h.>.>.>.) V V B N ) V ( *.4 s U , # l L o D S 5 ' F J ] K } _ ( ' 4.LX",
"LXLXt.6.q. XzXzXzXzXCXGXSXVXzXjXxX9X X&X9X9X-X-X).W.W.).%X[.].].]./././.].eXFXKXHXNX$XP.h.b.+.+.+.V +.V B V c c ] :.8 h Y < $ j L $ D I 3 Y G J Y D Y S -.b.=.LX",
"LX1.6.M.sXMXzXMXzXzXSXNXDXSXcXjXgXhXfXfX>X}.#XW.XX;X-X:X:X:X%X%X].].'.T.T.T./.$XxXGXSX9XY.j.>.+.+.V  .V V V c 4 G [ A D Y t $ D L $ D L > Y j v S l R t.P.h.R LX",
"t.6.M.MXNXNXMXMXMXCXNXlXSXDXVXcXgXgXgXgX;XM.&XfXfX!.!.!.!.#X;X;X:X).^.'.'.'.'./.T.'.cXZX*XY.y.+.+.V >.V B V B d 5 J 6 7 Y < $ g l   g t , l i n $.t.I.P.b.:.T LX",
"5.0.7XVXNXNXSXNXMXkXwXxXMXDXCXzXfXfX-X&XW.7X=X@X:X9XfX-X].].).).).[.%X;X'.^.I.Y.[.'.T.vXgXT.u.>.&.V ) b B B f ; w x 7 t I - X e q X q i a R 6.a.I.P.I.t.} | Y LX",
"x.0.wXSXGXSXlXxXxXlXlXzXzXCXlX@X@XrX7X&X9X-X&X@X@X&XgXfX#X%X:X:X>X[.^.U.Y.T.T.'.[.%XI.].].T.>.] &.V N f f w 0 0 9 0 i i i q y i P #.3.u.P.I./._./.h.6._ } { R LX",
"d.z.A.BXxXlXMXMXNXVXCXxXwX6XeXxXNXCXwX9X9X9X9X-XfX=XfX:X=XfX:X).z.U./././.'.[.%X[.Y.L.I.Y.v.' 2.t.y.+.=.*.( &.&.( -.~.U.'.'.'.T.'./._.*XqXaXyXw.-.D } _ ..[ R LX",
"t.l.+X{.xXNXSXCXCXlXwXwXhXkXhXkXwXwXwXwXeXrXrX&X}.A.@X@X:X}.x.^.'.].].%X%X%X%X^.I.I.I.I.P.2.*.w.M.<.<.&.=.&.) &.) 4././.].].$X+X0X6X.X3X,.,.U G ] F 1._ [ | R LX",
"t.u.S.OX1X0XlXlXeXkXlXxXxXkXkXhXhXhXrX&X&X#X#XXXoX-X=XgXM.^.[.[.%X-X:X%X[.`.P.I.T.I.R.j.2.` *.9.m.;.<.K.&.&.&.N #.,.A.m.V.8.$.*.%.r z L > / D J ] H 1.` .._ *.LX",
"i.c.v.F.{.0XuX3XsXkXkXxXxXkXhXkXhXhXhX9X9X9X9X-X-X-X$X).!.[.#X#X).^.E.P.Y.T./.`./.h.g.! | { *.[ >.V &.V f N d ; w d s x E r # l L % j I < _ D J ` F } _ _ E =.LX",
"t.c.~.~.V.XX2XpXFXbXbXsX7X*XeXiXhXeXeX9X9X9X-X-X*X-X$X$X$X).^.^.^././.].8XqXBXA.0.J -.W } { ;.6.>.V  .V B b B 4 f s : s Y < $ j L $ j G 3 _ D H ] F ` z R 5.' LX",
"g.c.F.`.Z.oX{.{.2X3XAXJXnXFXnXdXuXqXOX8X8XoXoX$XoX_.].$X/.].$X[.8XsX3X2XB.8.U v ` F :.! ..{ ;.E.b.>.|  .c V B 4 4 x : : S < $ j m $ z I > ( j D I k M >.c.5.T LX",
"t.h.c.`.Z.oX(.OX0X|.sXtX3XuX3X2XbXtXqXbXdX4XuXqX{.*XOXS.S.G.8.7.8.t P E > H G G ] F 1.W } ` 8.xX_.b.>. .c b c 4 s d : = e 1 $ z l % l l 1 S e n M -.j.c.t.] R LX",
"LXg.i.~.z.$X}.oXrX}.kX0X{.7XD.F.Z.4.k.y.| 4.0.) ( *.5 < U ,   g m # g I 4 J J G ] H 1.W [ I E.cXfXY.t.V B b B 1 f f * * e & # e , X q q q M $.6.U.v.c.} { | R LX",
"LXLXg.l.f._.J.oX8X XkXwXXX-XS.~.`.u.b.s.| r.t.! _ [ 8 5 Y t $ t L $ 6 I 3 J I D ] F ' D E x.L.%X%XT.4.x f i 0 0 0 - . . 9 9 u u p a $.w.Z.oX8X(.Z.] :.) } } Y LX",
"LXLXLXx.f.Z.A.{.7X|.xX6X}.-XW.`.T.p.I.s.o.r.r.~ { } D 6 Y 7 $ 7 I $ h I 3 J G v Y j l $.W.T.L.R.T.c.*.T N M B n n f N N N &.f.l.XX-X7XlXpX3Xn.*._ H :.` } } R LX",
"LXLXLXLXd.g.z.Z.G.G.2X2X{.7XS.~.`.u.I.s.o.p.r.~ ` ..A 7 Y g % 7 L % 7 S > z t t a $.C.[.P.L.I.I.Y.4.( K.,.&.&.<.&.&.<.&.<.m.<XA.H.n.,.$.e Y v J ] K } ] } ] R LX",
"LXLXLXLXu.d.Z.J.W.S.!.J.J..XD.S.Z.t.h.p.| y.2.! _ [ 6 5 Y < o t t o q q y a @.8.!.^.P.L.I.I.Y.j.t.| ( N N N N n n N w ; k r w N M # j G 3 / D J ] G .._ | U *.LX",
"LXLXLXLXi.h.j.(.5X5X4X{.Z.Z.x.q.9.9.3.:.] ;.' U E P t r a q O O q u @.$.8.C.^.U.I.I.I.T./.c.j.] | ] R 1.U b d ; f w & * w &   g l $ S I < _ D H ' F [ W I =.=.LX",
"LXLXLXLXg.j.l.F.z.OXyXpXAX2X1X7XXXC.C.M.q.w.8.8.7.,.$.,.7.8.k.E.E.E.E.E.Y.T.T.'.[.*XsX!.h./ [ W } | ' `.u.=.c 4 f d : ; f & # < z $ j I 3 _ D H Y D I E >.d.( LX",
"LXLXLXLXh.j.c._.Z.oX{. XbXtXFXJXbXAXpX7X&XXX_.^.^.'././.'./.T.T.T.'.'./.*X9X4XaXtXN.,.Y _ D [ _ 1.[ ' zX_.j.) 4 s d : : w &   , t $ z L > Y j j l a *.u.P.:.( LX",
"LXLXLXLXd.h.z._.Z.oXXX&X6X.XyXtX2XmXyXpXnXbXaXBXuX7XaXiX}.-XOX{.}..XM.m.B.%.E I 2 Y G H _ F } ! 1.` *.ZXcXT.t.x f s : * w &   w , # t e = p p M -.h.Y.u.:.{ T LX",
"LXLXLXLXLXg.h.(.F.oXoXXXeX}.aX2X X4XM.S.J.f.v.f.4.f.q.-.;.w.G m Y t 2 t S   D S > / J G ` F [ _ } Y 2.:XvX/.c.x w w & & - . . . O 9 q i Z <.x.F.`.g.t._ [ { ( LX",
"LXLXLXLXLXg.g.z.l.+X{.+XrX}.kXwXOX9XC.~.~.t.b.p.| y.1.W ) -.6 5 Y < $ g S   D S > J J H _ F [ H E e.P.R.'.Y.h.i 9 9 9 9 9 0 y a E >.x.*X8XsXpXq.3.J [ _ } | ( LX",
"LXLXLXLXLXLXLXg.g.S.A.+X6X{.kXwX&X9XZ.`./.i.b.L.o.r.y.~ ` 3.8 8 Y < $ g S $ S D > Y H D Y 8 I E 0.P.L.I.Y.b.:.T N ) &.) =.<.<.f.J.|..X3Xn.7.E U ] H :._ } | #.LX",
"LXLXLXLXLXLXLXLXg.x.z.A.|..XuX3X X8XC.~./.i.b.O.o.p.o.^ { 1.8 j Y 3 $ 7 S % < S > I z k l a 7.g.L.L.I.I.P.2.=.&.#.&.&.#.&.#.N N @.t I L 1 / v K ] K } _ .._ E LX",
"LXLXLXLXLXLXR 6.d.t.v.z.Z.Z.{.H.{.|.D.S.Z.t.h.p.X.y.2.~ _ :.6 h I , % t <   S , q r p P 3.j.L.I.R.I.Y.h.2./ [ w w w & & w .   ; e # j I < _ D J ] F } _ _ N LXLX",
"LXLXLXLXLX3.3.e.d.t.v.z.C.{.OXQ.S.S.V.q.q.4.d.2.| >.] W / R e e l q X q + + + L @.:.5.P.Y.T.'._.^.z.5._ | { :.s f s * * w &   w k $ v I 3 _ D H ' F _ G N LXLXLX",
"LXLXLX-.6.6.).fXz.i.v.v.(.(.4X<XbXmXpXmX3XN.n.;.,.$.$.#.@.@.@.@.@.#.$.$.e.x.E.'.T.]._.-XeX0XuXm.3.H ` W :.] :.d s d ; : w *   < k % z G 3 _ v H I k M p LXLXLXLX",
"LXLXLX3.3.&XgXgXZ.t.~.v.(.(.-XS.dXH.bXFXmXnXFXyXbXpX3X|.OX}.).(.^.).].'.^.[.;X@X4X2XN.N.8.#.$.j ] F ` ! } { =.s f d : = f &   < e # j l 1 m e t p 0 LXLXLXLXLXLX",
"LXLX3.3.x.gXfXgX}.g.c.v.).).-XQ.qX|.qXsXH.2X3XG.2X<X|.5X5XJ.4X1XM.{.A.m.9.w.P P ;.r < I < j Y D ] D ] _ ..` E 4 4 f * * w X   1 = o q q q y y LXLXLXLXLXLXLXLXLX",
"LXLXd.d.W.cXVXSXMXW.g.j.F.(.*XQ.eX}.eXxX}.rX{.Z.{.d.u.h.| >.t.Q J -.v 5 z l # 1 I % 1 Y < D _ D { F ] ! ' m t - 9 - . . O . @ @ O + @ LXLXLXLXLXLXLXLXLXLXLXLXLX",
"LXLXd.Z.M.SXlXfX:X-XC.k.g.Z.OXS.rX|.rXkX}.8X).W._.a.i.s.o.X.t. .W 1.F 5 G S % < I $ < J 3 D _ j ] A _ G M p i u u + + O LXLXLXLXLXLXLXLXLXLXLXLXLXLXLXLXLXLXLXLX",
"LXLXt.d.!.W.=XjXxXcXCX&Xz.x.V.A.1X.X0XsX}.8X).E._.a.b.L.O.r.i.^ ! 2.K 6 H G $ < Y $ > I 3 j Y 6 J k t n LXLXLXLXLXLXLXLXLXLXLXLXLXLXLXLXLXLXLXLXLXLXLXLXLXLXLXLX",
"LXLXt.t.~.{.XXwXNXzXrX;X-X).~.z.S.A.|.tX.X4X{.x.(.u.c.s.o.X.i.^ ! 1.H 7 G S % , I % , L 2 t l i a i LXLXLXLXLXLXLXLXLXLXLXLXLXLXLXLXLXLXLXLXLXLXLXLXLXLXLXLXLXLX",
"LXLXu.i.v.Z.5X4X0X}.=X>X>X>X%X;X).~.Z.Q.S.A.M.V.Z.d.i.i.X.y.y.` J -.D 5 D S o - t X X q q y a L ( LXLXLXLXLXLXLXLXLXLXLXLXLXLXLXLXLXLXLXLXLXLXLXLXLXLXLXLXLXLXLX",
"LXLXi.h.U.F.W.{.pXuXnXyX7X7X&X;X-X-X%X].).W.Z.V.q.9.7.;.=.$.#.N L P i i i + + u C @.a t Y K ..[ -.LXLXLXLXLXLXLXLXLXLXLXLXLXLXLXLXLXLXLXLXLXLXLXLXLXLXLXLXLXLXLX",
"LXLXd.i.`.v.(.(.{.{.bXyXAXJXnXBXsXOX#X#X].[.].^.).(.W.x.k.g.9.7.7.8.m.B.B.H.,Xn.,.P $.D ] Y 1.[ -.LXLXLXLXLXLXLXLXLXLXLXLXLXLXLXLXLXLXLXLXLXLXLXLXLXLXLXLXLXLXLX",
"LXLXd.h.U.F._._.XX{.eXH.0XyX3XbXnXtXAXnXqXnXaX4XqXeXOX*X*XoXoXOX1Xm.N.n.$.$.> D H v [ 8 { _ ..{ ( LXLXLXLXLXLXLXLXLXLXLXLXLXLXLXLXLXLXLXLXLXLXLXLXLXLXLXLXLXLXLX",
"LXLXLXd.h.z.(.(.$X).eX}.eXuX<X6XG.V.+Xf.l.l.>.d.A.>.=.w.#.x T M $ t L $ < Y > G J v -.F { / } / p LXLXLXLXLXLXLXLXLXLXLXLXLXLXLXLXLXLXLXLXLXLXLXLXLXLXLXLXLXLXLX",
"LXLXLX3.g.z.z.(.oX{.eX}.eXwX}.8X(.Z.oXd.h.h.X.>.t.! ) :.v 5 G x $ 3 S $ < Y 3 G J D [ F { W U M LXLXLXLXLXLXLXLXLXLXLXLXLXLXLXLXLXLXLXLXLXLXLXLXLXLXLXLXLXLXLXLX",
"LXLXLXLXLXk.g.Z.S.Q.0X.XeXwX}.9X).U._.s.b.s.O.o.i.~ / 1.H 6 H z $ < S 2 < Y > G H v _ 6 G n i LXLXLXLXLXLXLXLXLXLXLXLXLXLXLXLXLXLXLXLXLXLXLXLXLXLXLXLXLXLXLXLXLX",
"LXLXLXLXLXLX7.l.V.Z.|.N.0XyX.X8X{.z.].a.a.s.O.y.i.^ ! 2.K 6 H z $ < I $ < E 2 j S 5 n p y LXLXLXLXLXLXLXLXLXLXLXLXLXLXLXLXLXLXLXLXLXLXLXLXLXLXLXLXLXLXLXLXLXLXLX",
"LXLXLXLXLXLXLXLXLXz.Z.Z.{..XG. XG.V.(.t.h.a.o.y.u.~ / 3.D 7 G l   < S # , t = y i y i LXLXLXLXLXLXLXLXLXLXLXLXLXLXLXLXLXLXLXLXLXLXLXLXLXLXLXLXLXLXLXLXLXLXLXLXLX",
"LXLXLXLXLXLXLXLXLXLXLXLX#.Z.Z.C.k.q.w.0.0.5.} :.:.W R *.g e l r X 9 q O + + O @ LXLXLXLXLXLXLXLXLXLXLXLXLXLXLXLXLXLXLXLXLXLXLXLXLXLXLXLXLXLXLXLXLXLXLXLXLXLXLXLX",
"LXLXLXLXLXLXLXLXLXLXLXLXLXLXLXLXLXq.w.<.,.&.$.#.#.@.Z a p u u u + + LXLXLXLXLXLXLXLXLXLXLXLXLXLXLXLXLXLXLXLXLXLXLXLXLXLXLXLXLXLXLXLXLXLXLXLXLXLXLXLXLXLXLXLXLXLX"
};
