/* XPM */
static char *peercoin64[] = {
/* columns rows colors chars-per-pixel */
"64 64 174 2 ",
"   c #37AE50",
".  c #38AE51",
"X  c #39AF51",
"o  c #39AF52",
"O  c #3AAF52",
"+  c #3AAF53",
"@  c #3BAF53",
"#  c #3BB053",
"$  c #3BB054",
"%  c #3CB054",
"&  c #3DB054",
"*  c #3DB055",
"=  c #3EB156",
"-  c #3FB156",
";  c #3FB157",
":  c #40B257",
">  c #40B258",
",  c #41B258",
"<  c #41B259",
"1  c #42B259",
"2  c #43B35A",
"3  c #44B35B",
"4  c #45B45C",
"5  c #46B45D",
"6  c #47B45E",
"7  c #48B55E",
"8  c #48B55F",
"9  c #49B55F",
"0  c #4AB660",
"q  c #4AB661",
"w  c #4BB661",
"e  c #4CB762",
"r  c #4EB764",
"t  c #4FB864",
"y  c #4FB865",
"u  c #50B865",
"i  c #50B866",
"p  c #51B866",
"a  c #51B967",
"s  c #52B967",
"d  c #53B968",
"f  c #54BA69",
"g  c #55BA6A",
"h  c #57BB6B",
"j  c #58BB6D",
"k  c #59BC6E",
"l  c #5ABC6E",
"z  c #5DBD71",
"x  c #5FBE73",
"c  c #60BF74",
"v  c #61BF74",
"b  c #62BF75",
"n  c #64C077",
"m  c #65C178",
"M  c #67C17A",
"N  c #68C27A",
"B  c #69C27B",
"V  c #69C27C",
"C  c #6AC37C",
"Z  c #6AC37D",
"A  c #6BC37D",
"S  c #6CC47E",
"D  c #6DC47F",
"F  c #70C581",
"G  c #72C683",
"H  c #73C684",
"J  c #74C785",
"K  c #76C887",
"L  c #77C888",
"P  c #79C989",
"I  c #79C98A",
"U  c #7AC98B",
"Y  c #7BCA8C",
"T  c #7CCA8C",
"R  c #7CCA8D",
"E  c #7ECB8D",
"W  c #7FCB8F",
"Q  c #80CC90",
"!  c #81CC90",
"~  c #82CC92",
"^  c #84CD93",
"/  c #85CD94",
"(  c #85CE94",
")  c #8AD098",
"_  c #8BD099",
"`  c #8CD09A",
"'  c #8DD19B",
"]  c #8FD29D",
"[  c #90D29D",
"{  c #91D29E",
"}  c #91D29F",
"|  c #91D39F",
" . c #92D39F",
".. c #93D3A0",
"X. c #96D4A3",
"o. c #99D6A5",
"O. c #9CD7A8",
"+. c #9DD7A9",
"@. c #9ED8AA",
"#. c #A0D9AC",
"$. c #A3DAAE",
"%. c #A4DAAF",
"&. c #A5DBB0",
"*. c #A7DBB2",
"=. c #AADDB5",
"-. c #ABDDB6",
";. c #ACDDB6",
":. c #AEDEB8",
">. c #AFDFB9",
",. c #B0DFBA",
"<. c #B1DFBB",
"1. c #B1E0BB",
"2. c #B2E0BC",
"3. c #B7E2C0",
"4. c #B8E2C0",
"5. c #B8E2C1",
"6. c #B9E3C2",
"7. c #BAE3C3",
"8. c #BCE4C4",
"9. c #BCE4C5",
"0. c #BDE4C5",
"q. c #BEE5C6",
"w. c #BFE5C7",
"e. c #C1E6C8",
"r. c #C1E6C9",
"t. c #C6E8CD",
"y. c #C7E8CE",
"u. c #C8E9CF",
"i. c #CCEAD2",
"p. c #CDEBD3",
"a. c #CEEBD4",
"s. c #D1ECD6",
"d. c #D3EDD8",
"f. c #D5EEDA",
"g. c #D7EFDC",
"h. c #DBF1E0",
"j. c #DCF1E0",
"k. c #DFF2E3",
"l. c #E0F3E4",
"z. c #E2F3E6",
"x. c #E4F4E7",
"c. c #E5F5E8",
"v. c #E6F5E9",
"b. c #E7F5EA",
"n. c #E8F6EB",
"m. c #E9F6EB",
"M. c #EAF6EC",
"N. c #EBF7ED",
"B. c #ECF7EF",
"V. c #EFF8F1",
"C. c #F0F9F2",
"Z. c #F1F9F2",
"A. c #F2FAF4",
"S. c #F3FAF4",
"D. c #F5FBF6",
"F. c #F5FBF7",
"G. c #F6FBF7",
"H. c #F7FCF8",
"J. c #F8FCF9",
"K. c #F9FCF9",
"L. c #F9FCFA",
"P. c #F9FDFA",
"I. c #FAFDFB",
"U. c #FBFDFB",
"Y. c #FBFDFC",
"T. c #FCFEFC",
"R. c #FCFEFD",
"E. c #FDFEFD",
"W. c #FDFEFE",
"Q. c #FEFEFE",
"!. c #FEFFFE",
"~. c #FEFFFF",
"^. c #FFFFFF",
"/. c None",
/* pixels */
"/./././././././././././././././././././././././././././././././././././././././././././././././././././././././././././././././.",
"/./././././././././././././././././././././././././././././././././././././././././././././././././././././././././././././././.",
"/./././././././././././././././././././././././.% % % % % % % % % % % % % % % % /./././././././././././././././././././././././.",
"/././././././././././././././././././././.% % % % % % % % % % % % % % % % % % % % % % /././././././././././././././././././././.",
"/././././././././././././././././././.% % % % % % % % % % % % % % % % % % % % % % % % % % /././././././././././././././././././.",
"/././././././././././././././././.% % % % % % % % % % % % % % % % % % % % % % % % % % % % % % /././././././././././././././././.",
"/././././././././././././././.% % % % % % % % % % % % % % % % % % % % % % % % % % % % % % % % % % /././././././././././././././.",
"/./././././././././././././.% % % % % % % % % % % % % % % % % % % % % % % % % % % % % % % % % % % % /./././././././././././././.",
"/././././././././././././.% % % % % % % % % % % % % % % % % % % % % % % % % % % % % % % % % % % % % % /././././././././././././.",
"/././././././././././.% % % % % % % % % % % % % % % % % % % % % % % % % % % % % % % % % % % % % % % % % % /././././././././././.",
"/./././././././././.% % % % % % % % % % % % % % % % % % % % % % % % % % % % % % % % % % % % % % % % % % % % /./././././././././.",
"/././././././././.% % % % % % % % % % % % % % % % % % % % % % % % % % % % % % % % % % % % % % % % % % % % % % /././././././././.",
"/././././././././.% % % % % % % % % % % % % % % % % % % % % % % % % % % % % % % % % % % % % % % % % % % % % % /././././././././.",
"/./././././././.% % % % % % % % % % % % % % % % % % % % % % % % % % % % % % % % % % % % % % % % % % % % % % % % /./././././././.",
"/././././././.% % % % % % % % % % % % + O + @ # % % % % % % % % % % % % % % % % % % % % % % % % % % % % % % % % % /././././././.",
"/./././././.% % % % % % % % % % % % % h b k i 7 > # X X + % % % % % % % % % % % % % % % % % % % % % % % % % % % % % /./././././.",
"/./././././.% % % % % % % % % % % % & <.D.B.x.g.t.>...J j 3 + o # % % % % % % % % % % % % % % % % % % % % % % % % % /./././././.",
"/././././.% % % % % % % % % % % % % & 4.^.^.^.^.^.^.^.I.N.a.$.H e # o % % % % % % % % % % % % % % % % % % % % % % % % /././././.",
"/././././.% % % % % % % % % % % % % & 4.^.^.^.^.^.^.^.^.^.^.^.K.j.&.M , o % % % % % % % % % % % % % % % % % % % % % % /././././.",
"/./././.% % % % % % % % % % % % % % & 4.^.^.^.^.^.^.^.^.^.^.^.^.^.^.A.q.G , O % % % % % % % % % % % % % % % % % % % % % /./././.",
"/./././.% % % % % % % % % % % % % % & 4.^.^.^.^.E.J.Q.^.^.^.^.^.^.^.^.^.D.6.b # # % % % % % % % % % % % % % % % % % % % /./././.",
"/././.% % % % % % % % % % % % % % % & 4.^.^.^.^.Q.b.a.b.!.^.^.^.^.^.^.^.^.^.M.| 3 + % % % % % % % % % % % % % % % % % % % /././.",
"/././.% % % % % % % % % % % % % % % & 4.^.^.^.^.^.^.n.-.;.N.^.^.^.^.^.^.^.^.^.U.4.p O % % % % % % % % % % % % % % % % % % /././.",
"/././.% % % % % % % % % % % % % % % & 4.^.^.^.^.^.^.^.J.1.K 7.P.^.^.^.^.^.^.^.^.^.i.j O % % % % % % % % % % % % % % % % % /././.",
"/./.% % % % % % % % % % % % % % % % & 4.^.^.^.^.^.^.^.^.~.y.c / c.^.^.^.^.^.^.^.^.^.a.g O % % % % % % % % % % % % % % % % % /./.",
"/./.% % % % % % % % % % % % % % % % & 4.^.^.^.^.^.^.^.^.^.^.f.z x i.~.^.^.^.^.^.^.^.^.e.8 # % % % % % % % % % % % % % % % % /./.",
"/./.% % % % % % % % % % % % % % % % & 4.^.^.^.^.^.^.^.^.^.^.^.g.l e 5.E.^.^.^.^.^.^.^.W.@.& % % % % % % % % % % % % % % % % /./.",
"/./.% % % % % % % % % % % % % % % % & 4.^.^.^.^.^.^.^.^.^.^.^.^.a.u 4 ,.E.^.^.^.^.^.^.^.V.C o % % % % % % % % % % % % % % % /./.",
"/./.% % % % % % % % % % % % % % % % & 4.^.^.^.^.^.^.^.^.^.^.^.^.^.4.2 5 5.^.^.^.^.^.^.^.^.0.< % % % % % % % % % % % % % % % /./.",
"/./.% % % % % % % % % % % % % % % % & 4.^.^.^.^.^.^.^.^.^.^.^.^.^.Y. .o y p.^.^.^.^.^.^.^.S.Z o % % % % % % % % % % % % % % /./.",
"/./.% % % % % % % % % % % % % % % % & 4.^.^.^.^.^.^.^.^.^.^.^.^.^.^.M.n   m m.^.^.^.^.^.^.^.*.# % % % % % % % % % % % % % % /./.",
"/./.% % % % % % % % % % % % % % % % & 4.^.^.^.^.^.^.^.^.^.^.^.^.^.^.^.8.1 O ..E.^.^.^.^.^.^.g.9 # % % % % % % % % % % % % % /./.",
"/./.% % % % % % % % % % % % % % % % & 3.^.^.^.^.^.^.^.^.^.^.^.^.^.^.^.G.J . 0 s.^.^.^.^.^.^.Z.v O % % % % % % % % % % % % % /./.",
"/./.% % % % % % % % % % % % % % % % % 2.^.^.^.^.^.^.^.^.^.^.^.^.^.^.^.^.w., X ~ Y.^.^.^.^.^.T.P X % % % % % % % % % % % % % /./.",
"/./.% % % % % % % % % % % % % % % % O %.^.^.^.^.^.^.^.^.^.^.^.^.^.^.^.^.C.n X w g.^.^.^.^.^.^.) X % % % % % % % % % % % % % /./.",
"/./.% % % % % % % % % % % % % % % % X ` ^.^.^.^.^.^.^.^.^.^.^.^.^.^.^.^.^.o.O O +.^.^.^.^.^.^.{ X % % % % % % % % % % % % % /./.",
"/./.% % % % % % % % % % % % % % % % o D H.^.^.^.^.^.^.^.^.^.^.^.^.^.^.^.^.u.1 X C D.^.^.^.^.^.' X % % % % % % % % % % % % % /./.",
"/./.% % % % % % % % % % % % % % % % # t k.^.^.^.^.^.^.^.^.^.^.^.^.^.^.^.^.v.f o w h.^.^.^.^.W.W X % % % % % % % % % % % % % /./.",
"/./.% % % % % % % % % % % % % % % % % & >.^.^.^.^.^.^.^.^.^.^.^.^.^.^.^.^.F.N o = 9.^.^.^.^.F.B o % % % % % % % % % % % % % /./.",
"/./.% % % % % % % % % % % % % % % % % o F F.^.^.^.^.^.^.^.^.^.^.^.^.^.^.^.T.L X O #.^.^.^.^.z.p @ % % % % % % % % % % % % % /./.",
"/././.% % % % % % % % % % % % % % % % $ 2 r.^.^.^.^.^.^.^.^.^.^.^.^.^.^.^.W.E X X ` ^.^.^.^.9.- % % % % % % % % % % % % % /././.",
"/././.% % % % % % % % % % % % % % % % % o S C.^.^.^.^.^.^.^.^.^.^.^.^.^.^.R.I X X W Q.^.^.E.( o % % % % % % % % % % % % % /././.",
"/././.% % % % % % % % % % % % % % % % % % & +.E.^.^.^.^.^.^.^.^.^.^.^.^.^.H.A o X U E.^.^.k.a @ % % % % % % % % % % % % % /././.",
"/./././.% % % % % % % % % % % % % % % % % # 6 7.^.^.^.^.^.^.^.^.^.^.^.^.^.n.g + X R E.^.^.O.@ % % % % % % % % % % % % % /./././.",
"/./././.% % % % % % % % % % % % % % % % % % + r w.!.^.^.^.^.^.^.^.^.^.^.^.y.1 % X ( ^.^.h.d + % % % % % % % % % % % % % /./././.",
"/././././.% % % % % % % % % % % % % % % % % % + q =.H.^.^.^.^.^.^.^.^.^.~.] o % X X.^.S.Y O % % % % % % % % % % % % % /././././.",
"/././././.% % % % % % % % % % % % % % % % % % % @ : T d.Y.^.^.^.^.^.^.^.l.f + % # :.L.} * % % % % % % % % % % % % % % /././././.",
"/./././././.% % % % % % % % % % % % % % % % % % % % o q Q 0.x.G.E.~.!.K.[ + % % 2 3._ = # % % % % % % % % % % % % % /./././././.",
"/./././././.% % % % % % % % % % % % % % % % % % % % % # o ; s V Y ^ ! F 3 # % % 2 j % % % % % % % % % % % % % % % % /./././././.",
"/././././././.% % % % % % % % % % % % % % % % % % % % % % % @ o X X X o $ % % % % @ % % % % % % % % % % % % % % % /././././././.",
"/./././././././.% % % % % % % % % % % % % % % % % % % % % % % % % % % % % % % % % % % % % % % % % % % % % % % % /./././././././.",
"/././././././././.% % % % % % % % % % % % % % % % % % % % % % % % % % % % % % % % % % % % % % % % % % % % % % /././././././././.",
"/././././././././.% % % % % % % % % % % % % % % % % % % % % % % % % % % % % % % % % % % % % % % % % % % % % % /././././././././.",
"/./././././././././.% % % % % % % % % % % % % % % % % % % % % % % % % % % % % % % % % % % % % % % % % % % % /./././././././././.",
"/././././././././././.% % % % % % % % % % % % % % % % % % % % % % % % % % % % % % % % % % % % % % % % % % /././././././././././.",
"/././././././././././././.% % % % % % % % % % % % % % % % % % % % % % % % % % % % % % % % % % % % % % /././././././././././././.",
"/./././././././././././././.% % % % % % % % % % % % % % % % % % % % % % % % % % % % % % % % % % % % /./././././././././././././.",
"/././././././././././././././.% % % % % % % % % % % % % % % % % % % % % % % % % % % % % % % % % % /././././././././././././././.",
"/././././././././././././././././.% % % % % % % % % % % % % % % % % % % % % % % % % % % % % % /././././././././././././././././.",
"/././././././././././././././././././.% % % % % % % % % % % % % % % % % % % % % % % % % % /././././././././././././././././././.",
"/././././././././././././././././././././.% % % % % % % % % % % % % % % % % % % % % % /././././././././././././././././././././.",
"/./././././././././././././././././././././././.% % % % % % % % % % % % % % % % /./././././././././././././././././././././././.",
"/./././././././././././././././././././././././././././././././././././././././././././././././././././././././././././././././.",
"/./././././././././././././././././././././././././././././././././././././././././././././././././././././././././././././././."
};
