/* XPM */
static char *peercoin32[] = {
/* columns rows colors chars-per-pixel */
"32 32 110 2 ",
"   c #37AE50",
".  c #39AF51",
"X  c #39AF52",
"o  c #3AAF52",
"O  c #3AAF53",
"+  c #3BAF53",
"@  c #3BB053",
"#  c #3BB054",
"$  c #3CB054",
"%  c #3DB155",
"&  c #3EB156",
"*  c #3FB156",
"=  c #3FB157",
"-  c #40B258",
";  c #41B258",
":  c #41B259",
">  c #42B259",
",  c #42B35A",
"<  c #44B35B",
"1  c #46B45C",
"2  c #46B45D",
"3  c #47B45E",
"4  c #47B55E",
"5  c #49B55F",
"6  c #4AB660",
"7  c #4CB762",
"8  c #4FB865",
"9  c #53B968",
"0  c #55BA6A",
"q  c #56BB6B",
"w  c #58BB6C",
"e  c #5DBD71",
"r  c #62BF75",
"t  c #64C077",
"y  c #65C178",
"u  c #67C17A",
"i  c #67C27A",
"p  c #6CC47E",
"a  c #6EC47F",
"s  c #71C582",
"d  c #71C683",
"f  c #73C684",
"g  c #76C887",
"h  c #78C888",
"j  c #7AC98A",
"k  c #7AC98B",
"l  c #7BC98B",
"z  c #7BCA8C",
"x  c #7ECB8E",
"c  c #7FCB8F",
"v  c #80CC90",
"b  c #83CD93",
"n  c #85CE94",
"m  c #8AD098",
"M  c #8FD29D",
"N  c #93D3A1",
"B  c #96D5A3",
"V  c #97D5A4",
"C  c #99D6A5",
"Z  c #A0D8AB",
"A  c #A3DAAE",
"S  c #A4DAAF",
"D  c #A7DBB2",
"F  c #A9DCB3",
"G  c #ADDEB8",
"H  c #AFDFB9",
"J  c #B0DFBA",
"K  c #B3E0BC",
"L  c #B4E1BE",
"P  c #B9E3C2",
"I  c #BAE3C3",
"U  c #BCE4C4",
"Y  c #BDE4C5",
"T  c #BEE5C6",
"R  c #BFE5C7",
"E  c #C6E8CD",
"W  c #CBEAD1",
"Q  c #D3EDD8",
"!  c #D3EDD9",
"~  c #D4EED9",
"^  c #D6EEDB",
"/  c #E0F2E3",
"(  c #E0F2E4",
")  c #E1F3E4",
"_  c #E1F3E5",
"`  c #E3F4E6",
"'  c #E6F5E9",
"]  c #E9F6EC",
"[  c #EAF6ED",
"{  c #EBF7ED",
"}  c #EBF7EE",
"|  c #ECF7EE",
" . c #EFF9F1",
".. c #F1F9F3",
"X. c #F2FAF3",
"o. c #F4FBF5",
"O. c #F4FBF6",
"+. c #F6FBF7",
"@. c #F7FCF8",
"#. c #F9FDFA",
"$. c #FAFDFA",
"%. c #FAFDFB",
"&. c #FBFEFC",
"*. c #FCFEFD",
"=. c #FDFEFD",
"-. c #FDFEFE",
";. c #FEFEFE",
":. c #FEFFFE",
">. c #FFFFFF",
",. c None",
/* pixels */
",.,.,.,.,.,.,.,.,.,.,.,.,.,.,.,.,.,.,.,.,.,.,.,.,.,.,.,.,.,.,.,.",
",.,.,.,.,.,.,.,.,.,.,.$ $ $ $ $ $ $ $ $ $ ,.,.,.,.,.,.,.,.,.,.,.",
",.,.,.,.,.,.,.,.,.$ $ $ $ $ $ $ $ $ $ $ $ $ $ ,.,.,.,.,.,.,.,.,.",
",.,.,.,.,.,.,.$ $ $ $ $ $ $ $ $ $ $ $ $ $ $ $ $ $ ,.,.,.,.,.,.,.",
",.,.,.,.,.,.$ $ $ $ $ $ $ $ $ $ $ $ $ $ $ $ $ $ $ $ ,.,.,.,.,.,.",
",.,.,.,.,.$ $ $ $ $ $ $ $ $ $ $ $ $ $ $ $ $ $ $ $ $ $ ,.,.,.,.,.",
",.,.,.,.$ $ $ $ $ @ o + @ $ $ $ $ $ $ $ $ $ $ $ $ $ $ $ ,.,.,.,.",
",.,.,.$ $ $ $ $ # 4 w 8 1 % X X @ $ $ $ $ $ $ $ $ $ $ $ $ ,.,.,.",
",.,.,.$ $ $ $ $ . k { ` ! I B p 5 o O $ $ $ $ $ $ $ $ $ $ ,.,.,.",
",.,.$ $ $ $ $ $ . v :.>.>.>.>.+.^ V 0 o @ $ $ $ $ $ $ $ $ $ ,.,.",
",.,.$ $ $ $ $ $ . v :.>.@.| %.>.>.:.) m , + $ $ $ $ $ $ $ $ ,.,.",
",.$ $ $ $ $ $ $ . v :.>.;.` Y _ >.>.>.$.J 6 + $ $ $ $ $ $ $ $ ,.",
",.$ $ $ $ $ $ $ . v :.>.>.>.' C Y *.>.>.:.K < @ $ $ $ $ $ $ $ ,.",
",.$ $ $ $ $ $ $ . v :.>.>.>.>.[ v D &.>.>.&.M + $ $ $ $ $ $ $ ,.",
",.$ $ $ $ $ $ $ . v :.>.>.>.>.>.( y H >.>.>.( 9 + $ $ $ $ $ $ ,.",
",.$ $ $ $ $ $ $ . v :.>.>.>.>.>.>.P 0 ! >.>.-.n . $ $ $ $ $ $ ,.",
",.$ $ $ $ $ $ $ . x -.>.>.>.>.>.>.+.s l #.>.>.G @ $ $ $ $ $ $ ,.",
",.$ $ $ $ $ $ $ . d #.>.>.>.>.>.>.>.L 6 Q >.>.R & $ $ $ $ $ $ ,.",
",.$ $ $ $ $ $ $ O w ] >.>.>.>.>.>.>./ 7 Z >.>.U % $ $ $ $ $ $ ,.",
",.$ $ $ $ $ $ $ $ - T >.>.>.>.>.>.>...e j =.>.A o $ $ $ $ $ $ ,.",
",.$ $ $ $ $ $ $ $ X f o.>.>.>.>.>.>.O.r i @.$.g X $ $ $ $ $ $ ,.",
",.,.$ $ $ $ $ $ $ $ * S =.>.>.>.>.>.} q t @.~ 6 @ $ $ $ $ $ ,.,.",
",.,.$ $ $ $ $ $ $ $ @ 2 F @.>.>.>.>.W : a  .c o $ $ $ $ $ $ ,.,.",
",.,.,.$ $ $ $ $ $ $ $ @ ; z E { +.X.b   h N = $ $ $ $ $ $ ,.,.,.",
",.,.,.$ $ $ $ $ $ $ $ $ $ X > w u r > @ 3 * @ $ $ $ $ $ $ ,.,.,.",
",.,.,.,.$ $ $ $ $ $ $ $ $ $ $ O X X $ $ @ $ $ $ $ $ $ $ ,.,.,.,.",
",.,.,.,.,.$ $ $ $ $ $ $ $ $ $ $ $ $ $ $ $ $ $ $ $ $ $ ,.,.,.,.,.",
",.,.,.,.,.,.$ $ $ $ $ $ $ $ $ $ $ $ $ $ $ $ $ $ $ $ ,.,.,.,.,.,.",
",.,.,.,.,.,.,.$ $ $ $ $ $ $ $ $ $ $ $ $ $ $ $ $ $ ,.,.,.,.,.,.,.",
",.,.,.,.,.,.,.,.,.$ $ $ $ $ $ $ $ $ $ $ $ $ $ ,.,.,.,.,.,.,.,.,.",
",.,.,.,.,.,.,.,.,.,.,.$ $ $ $ $ $ $ $ $ $ ,.,.,.,.,.,.,.,.,.,.,.",
",.,.,.,.,.,.,.,.,.,.,.,.,.,.,.,.,.,.,.,.,.,.,.,.,.,.,.,.,.,.,.,."
};
