/* XPM */
static char *peercoin_testnet32[] = {
/* columns rows colors chars-per-pixel */
"32 32 110 2 ",
"   c black",
".  c #010001",
"X  c #010101",
"o  c #020101",
"O  c #020102",
"+  c #030102",
"@  c #040103",
"#  c #050204",
"$  c #050205",
"%  c #060205",
"&  c #080307",
"*  c #090408",
"=  c #0B0409",
"-  c #0B040A",
";  c #0D050C",
":  c #0E060C",
">  c #10060E",
",  c #130811",
"<  c #140811",
"1  c #140812",
"2  c #150912",
"3  c #160913",
"4  c #190A16",
"5  c #1C0B19",
"6  c #1E0C1A",
"7  c #1E0C1B",
"8  c #1F0D1B",
"9  c #1F0D1C",
"0  c #291124",
"q  c #2B1126",
"w  c #2C1226",
"e  c #2C1227",
"r  c #34152E",
"t  c #391732",
"y  c #401A38",
"u  c #411A39",
"i  c #421B3A",
"p  c #431B3B",
"a  c #451C3C",
"s  c #461C3D",
"d  c #4B1E41",
"f  c #4C1F43",
"g  c #4F2045",
"h  c #502046",
"j  c #522147",
"k  c #56234C",
"l  c #58244D",
"z  c #5B2550",
"x  c #5C2551",
"c  c #5F2754",
"v  c #66295A",
"b  c #682A5B",
"n  c #692A5C",
"m  c #6C2C5E",
"M  c #702D62",
"N  c #752F67",
"B  c #7A316B",
"V  c #7C326C",
"C  c #7F336F",
"Z  c #803470",
"A  c #813471",
"S  c #843573",
"D  c #843674",
"F  c #853674",
"G  c #853675",
"H  c #873777",
"J  c #893778",
"K  c #8C397B",
"L  c #8E397C",
"P  c #8E3A7D",
"I  c #913B80",
"U  c #933B81",
"Y  c #983D85",
"T  c #983E85",
"R  c #9A3E87",
"E  c #9B3F88",
"W  c #9D408A",
"Q  c #A2428E",
"!  c #A74493",
"~  c #A94494",
"^  c #AA4595",
"/  c #AC4697",
"(  c #B0479A",
")  c #B3489D",
"_  c #B5499F",
"`  c #B64AA0",
"'  c #B84AA1",
"]  c #B84BA1",
"[  c #B94BA2",
"{  c #B94BA3",
"}  c #BB4CA4",
"|  c #BD4CA5",
" . c #BD4DA6",
".. c #BE4DA6",
"X. c #BE4DA7",
"o. c #BF4DA7",
"O. c #C04EA8",
"+. c #C04EA9",
"@. c #C14EA9",
"#. c #C24EAA",
"$. c #C34FAB",
"%. c #C44FAB",
"&. c #C44FAC",
"*. c #C450AC",
"=. c #C550AC",
"-. c #C550AD",
";. c #C650AD",
":. c #C650AE",
">. c #C851AF",
",. c None",
/* pixels */
",.,.,.,.,.,.,.,.,.,.,.,.,.,.,.,.,.,.,.,.,.,.,.,.,.,.,.,.,.,.,.,.",
",.,.,.,.,.,.,.,.,.,.,.$.$.$.$.$.$.$.$.$.$.,.,.,.,.,.,.,.,.,.,.,.",
",.,.,.,.,.,.,.,.,.$.$.$.$.$.$.$.$.$.$.$.$.$.$.,.,.,.,.,.,.,.,.,.",
",.,.,.,.,.,.,.$.$.$.$.$.$.$.$.$.$.$.$.$.$.$.$.$.$.,.,.,.,.,.,.,.",
",.,.,.,.,.,.$.$.$.$.$.$.$.$.$.$.$.$.$.$.$.$.$.$.$.$.,.,.,.,.,.,.",
",.,.,.,.,.$.$.$.$.$.$.$.$.$.$.$.$.$.$.$.$.$.$.$.$.$.$.,.,.,.,.,.",
",.,.,.,.$.$.$.$.$.&.-.*.&.$.$.$.$.$.$.$.$.$.$.$.$.$.$.$.,.,.,.,.",
",.,.,.$.$.$.$.$.%.' ! ( { #.;.;.&.$.$.$.$.$.$.$.$.$.$.$.$.,.,.,.",
",.,.,.$.$.$.$.$.:.F 1 5 w a n U ` -.=.$.$.$.$.$.$.$.$.$.$.,.,.,.",
",.,.$.$.$.$.$.$.:.C .         * 0 b ^ -.&.$.$.$.$.$.$.$.$.$.,.,.",
",.,.$.$.$.$.$.$.:.C .   & , #     . 7 N | *.$.$.$.$.$.$.$.$.,.,.",
",.$.$.$.$.$.$.$.:.C .   X 5 i 6       # g _ *.$.$.$.$.$.$.$.$.,.",
",.$.$.$.$.$.$.$.:.C .       4 v i +     . f } &.$.$.$.$.$.$.$.,.",
",.$.$.$.$.$.$.$.:.C .         2 C l @     @ M *.$.$.$.$.$.$.$.,.",
",.$.$.$.$.$.$.$.:.C .           8 R h       8 / *.$.$.$.$.$.$.,.",
",.$.$.$.$.$.$.$.:.C .             s ^ w     o B :.$.$.$.$.$.$.,.",
",.$.$.$.$.$.$.$.:.A o             * P D %     j &.$.$.$.$.$.$.,.",
",.$.$.$.$.$.$.$.:.L %               d _ e     y @.$.$.$.$.$.$.,.",
",.$.$.$.$.$.$.$.-.! 3               9 ) c     p #.$.$.$.$.$.$.,.",
",.$.$.$.$.$.$.$.$.o.u               : Q G O   x -.$.$.$.$.$.$.,.",
",.$.$.$.$.$.$.$.$.;.K -             = W Y & $ J :.$.$.$.$.$.$.,.",
",.,.$.$.$.$.$.$.$.$.+.z O           < ~ E & q _ &.$.$.$.$.$.,.,.",
",.,.$.$.$.$.$.$.$.$.&.[ k &         r ..I > Z -.$.$.$.$.$.$.,.,.",
",.,.,.$.$.$.$.$.$.$.$.&.X.S t 1 * ; V >.H m O.$.$.$.$.$.$.,.,.,.",
",.,.,.$.$.$.$.$.$.$.$.$.$.;. .! T W  .&.] +.&.$.$.$.$.$.$.,.,.,.",
",.,.,.,.$.$.$.$.$.$.$.$.$.$.$.-.;.-.$.$.&.$.$.$.$.$.$.$.,.,.,.,.",
",.,.,.,.,.$.$.$.$.$.$.$.$.$.$.$.$.$.$.$.$.$.$.$.$.$.$.,.,.,.,.,.",
",.,.,.,.,.,.$.$.$.$.$.$.$.$.$.$.$.$.$.$.$.$.$.$.$.$.,.,.,.,.,.,.",
",.,.,.,.,.,.,.$.$.$.$.$.$.$.$.$.$.$.$.$.$.$.$.$.$.,.,.,.,.,.,.,.",
",.,.,.,.,.,.,.,.,.$.$.$.$.$.$.$.$.$.$.$.$.$.$.,.,.,.,.,.,.,.,.,.",
",.,.,.,.,.,.,.,.,.,.,.$.$.$.$.$.$.$.$.$.$.,.,.,.,.,.,.,.,.,.,.,.",
",.,.,.,.,.,.,.,.,.,.,.,.,.,.,.,.,.,.,.,.,.,.,.,.,.,.,.,.,.,.,.,."
};
