/* XPM */
static char *peercoin16[] = {
/* columns rows colors chars-per-pixel */
"16 16 58 1 ",
"  c #39AF51",
". c #39AF52",
"X c #3AAF52",
"o c #3AAF53",
"O c #3BAF53",
"+ c #3BB053",
"@ c #3BB054",
"# c #3CB054",
"$ c #3DB155",
"% c #42B259",
"& c #43B35A",
"* c #44B35B",
"= c #49B55F",
"- c #4AB660",
"; c #4EB764",
": c #4FB865",
"> c #52B967",
", c #59BC6E",
"< c #5ABC6E",
"1 c #5CBD70",
"2 c #63C076",
"3 c #67C17A",
"4 c #67C27A",
"5 c #7AC98A",
"6 c #82CC91",
"7 c #88CF96",
"8 c #8FD29D",
"9 c #93D3A1",
"0 c #97D5A3",
"q c #A1D9AD",
"w c #A3DAAF",
"e c #A4DAB0",
"r c #A9DCB4",
"t c #ACDDB6",
"y c #B8E2C0",
"u c #B9E3C2",
"i c #BEE5C6",
"p c #C1E6C8",
"a c #CFECD5",
"s c #D1ECD6",
"d c #D2EDD8",
"f c #D8EFDD",
"g c #D9F0DE",
"h c #DDF1E1",
"j c #DFF2E3",
"k c #E0F3E4",
"l c #E9F6EB",
"z c #E9F6EC",
"x c #EBF7EE",
"c c #F3FAF5",
"v c #F4FAF5",
"b c #F5FBF6",
"n c #F6FBF7",
"m c #FAFDFB",
"M c #FBFDFC",
"N c #FEFFFE",
"B c white",
"V c None",
/* pixels */
"VVVVVV####VVVVVV",
"VVVV########VVVV",
"VVV##O+######VVV",
"VV##%>=$ +####VV",
"V##X2jfu6-X####V",
"V##.4nbzma3O###V",
"###.4nNgpmj1o###",
"###.4nBBiyBr####",
"###.2cBBv8ld*@##",
"###+;hBBBqps&###",
"V###+9MBBwte+##V",
"V###+&0kx57<o##V",
"VV###+#:,%%###VV",
"VVV####+X####VVV",
"VVVV########VVVV",
"VVVVVV####VVVVVV"
};
