/* XPM */
static char *_f0a9250bcd547d388b810fea1004a78[] = {
/* columns rows colors chars-per-pixel */
"16 17 39 1 ",
"  c #42427E",
". c #44427D",
"X c #41457F",
"o c #69466F",
"O c #6E476D",
"+ c #7A4C68",
"@ c #68566E",
"# c #775C68",
"$ c #674670",
"% c #E7523C",
"& c #E4523E",
"* c #EF5339",
"= c #EF5439",
"- c #F05B38",
"; c #E6673B",
": c #EB643E",
"> c #F16437",
", c #F37736",
"< c #F37936",
"1 c #BE4E4C",
"2 c #AF4D52",
"3 c #AB5154",
"4 c #B6774E",
"5 c #844864",
"6 c #894B62",
"7 c #826164",
"8 c #C94D48",
"9 c #D05046",
"0 c #EC8937",
"q c #F48135",
"w c #F48335",
"e c #F58834",
"r c #F58B34",
"t c #F69333",
"y c #CF8243",
"u c #D18342",
"i c #394182",
"p c #3E4380",
"a c None",
/* pixels */
"aaaaaaaaaaaaaaaa",
"aaaaaaaaaaaaaaaa",
"aaaaaaaaaaaaaaaa",
"aaaaaaaaaaaaaaaa",
"aaaaa*:,-=aaaaaa",
"aaa****qtq<aaaaa",
"aa******er>tttaa",
"aa$$i 5O3;=tttta",
"aai$12.iii60aaaa",
"a9%%oiip@4taaaaa",
"a=2.X#ytttttaaaa",
"8+7uttttttttaaaa",
"atttttttttttaaaa",
"aaaaaaaattttaaaa",
"aaaaaaaaaaaaaaaa",
"aaaaaaaaaaaaaaaa",
"aaaaaaaaaaaaaaaa"
};
