/* XPM */
static char *cc8f6e325e2e4fd7df578ba2ea971dbd[] = {
/* columns rows colors chars-per-pixel */
"65 65 75 1 ",
"  c #40427F",
". c #43427E",
"X c #46427D",
"o c #47427D",
"O c #40447F",
"+ c #42457E",
"@ c #46477C",
"# c #4B437B",
"$ c #48427C",
"% c #4A487B",
"& c #5D4574",
"* c #574E76",
"= c #514379",
"- c #5E5173",
"; c #6B466E",
": c #7D4867",
"> c #784769",
", c #795D67",
"< c #E2523E",
"1 c #EF5339",
"2 c #EE533A",
"3 c #EF5539",
"4 c #EF5739",
"5 c #E8523C",
"6 c #EF5839",
"7 c #F05938",
"8 c #F05839",
"9 c #F05E38",
"0 c #F16337",
"q c #F16437",
"w c #F16837",
"e c #F16937",
"r c #F26D37",
"t c #F26E36",
"y c #F16138",
"u c #F16338",
"i c #F27236",
"p c #F37636",
"a c #F37A35",
"s c #F47E35",
"d c #F47F35",
"f c #9E4B5A",
"g c #BE4E4D",
"h c #B14D52",
"j c #8E665E",
"k c #B5774E",
"l c #BA794C",
"z c #864963",
"x c #824865",
"c c #8C4961",
"v c #C14E4B",
"b c #CB4F48",
"n c #D15045",
"m c #D05046",
"M c #DB5141",
"N c #D85142",
"B c #E95841",
"V c #E38B3B",
"C c #F48035",
"Z c #F48434",
"A c #F58634",
"S c #F58E33",
"D c #F68E33",
"F c #F58934",
"G c #F58C34",
"H c #F58D34",
"J c #F69033",
"K c #F69133",
"L c #F69233",
"P c #F69333",
"I c #CF8243",
"U c #D38442",
"Y c #394182",
"T c #3E4180",
"R c None",
/* pixels */
"RRRRRRRRRRRRRRRRRRRRRRRRRRRRRRRRRRRRRRRRRRRRRRRRRRRRRRRRRRRRRRRRR",
"RRRRRRRRRRRRRRRRRRRRRRRRRRRRRRRRRRRRRRRRRRRRRRRRRRRRRRRRRRRRRRRRR",
"RRRRRRRRRRRRRRRRRRRRRRRRRRRRRRRRRRRRRRRRRRRRRRRRRRRRRRRRRRRRRRRRR",
"RRRRRRRRRRRRRRRRRRRRRRRRRRRRRRRRRRRRRRRRRRRRRRRRRRRRRRRRRRRRRRRRR",
"RRRRRRRRRRRRRRRRRRRRRRRRRRRRRRRRRRRRRRRRRRRRRRRRRRRRRRRRRRRRRRRRR",
"RRRRRRRRRRRRRRRRRRRRRRRRRRRRRRRRRRRRRRRRRRRRRRRRRRRRRRRRRRRRRRRRR",
"RRRRRRRRRRRRRRRRRRRRRRRRRRRRRRRRRRRRRRRRRRRRRRRRRRRRRRRRRRRRRRRRR",
"RRRRRRRRRRRRRRRRRRRRRRRRRRRRRRRRRRRRRRRRRRRRRRRRRRRRRRRRRRRRRRRRR",
"RRRRRRRRRRRRRRRRRRRRRRRRRRRRRRRRRRRRRRRRRRRRRRRRRRRRRRRRRRRRRRRRR",
"RRRRRRRRRRRRRRRRRRRRRRRRRRRRRRRRRRRRRRRRRRRRRRRRRRRRRRRRRRRRRRRRR",
"RRRRRRRRRRRRRRRRRRRRRRRRRRRRRRRRRRRRRRRRRRRRRRRRRRRRRRRRRRRRRRRRR",
"RRRRRRRRRRRRRRRRRRRRRRRRRRRRRRRRRRRRRRRRRRRRRRRRRRRRRRRRRRRRRRRRR",
"RRRRRRRRRRRRRRRRRRRRRRRRRRRRRRRRRRRRRRRRRRRRRRRRRRRRRRRRRRRRRRRRR",
"RRRRRRRRRRRRRRRRRRRRRRRRRRRRRRRRRRRRRRRRRRRRRRRRRRRRRRRRRRRRRRRRR",
"RRRRRRRRRRRRRRRRRRRRRRRRRRRRRRRRRRRRRRRRRRRRRRRRRRRRRRRRRRRRRRRRR",
"RRRRRRRRRRRRRRRRRRRRRRRRRR11111111111RRRRRRRRRRRRRRRRRRRRRRRRRRRR",
"RRRRRRRRRRRRRRRRRRRRRRRR111BLs61111111RRRRRRRRRRRRRRRRRRRRRRRRRRR",
"RRRRRRRRRRRRRRRRRRRRRR111111qLPFe111111RRRRRRRRRRRRRRRRRRRRRRRRRR",
"RRRRRRRRRRRRRRRRRRRR111111111rPPLLp11111RRRRRRRRRRRRRRRRRRRRRRRRR",
"RRRRRRRRRRRRRRRRRR111111111111aPPLLLA911RRRRRRRRRRRRRRRRRRRRRRRRR",
"RRRRRRRRRRRRRRRRR11111111111111APLPPPPSr1RRRRRRRRRRRRRRRRRRRRRRRR",
"RRRRRRRRRRRRRRRR1111111111111111SLPPPPPPSRPPPRRRRRRRRRRRRRRRRRRRR",
"RRRRRRRRRRRRRRR111111111111111111LPPPPPPr7PPPPPPRRRRRRRRRRRRRRRRR",
"RRRRRRRRRRRRRR11111111111111111117LPPPPP61PPPPPPPPPPRRRRRRRRRRRRR",
"RRRRRRRRRRRRR111111111111111111111yLPPPS11CPPPPPPPPPPPPRRRRRRRRRR",
"RRRRRRRRRRRR111111111111115bbbR1111yPPPr11uPPPPPPPPPPPPPPPPRRRRRR",
"RRRRRRRRRRRRYYYYYYYYYYYYYYYY=gm$#M11iLP6111PPPPPPPPPPPPPPPPPPRRRR",
"RRRRRRRRRRRYYYYYYYYYYYYYYTz<1:YYYYYh1CS1111SPPPPPPPPPPPPPPPRRRRRR",
"RRRRRRRRRRRYYYYYYYYYYYY&g11mXYYYYYYYY:R1111ePPPPPPPPPPPPRRRRRRRRR",
"RRRRRRRRRRRYYYYYYYYY.c1111:YYYYYYYYYYYY#M111PPPPPPPPRRRRRRRRRRRRR",
"RRRRRRRRRRYYYYYYYY&m1111mXYYYYYYYYYYYYYYYYh1PPPPRRRRRRRRRRRRRRRRR",
"RRRRRRRRRRYYYYY.c111111:YYYYYYYYYYYYYYYYYYYYRRRRRRRRRRRRRRRRRRRRR",
"RRRRRRRRRRYYY;m111111mXYYYYYYYYYYYYYYYYYYOjPPRRRRRRRRRRRRRRRRRRRR",
"RRRRRRRRRY.f11111112:YYYYYYYYYYYYYYYYY@jPPPPPRRRRRRRRRRRRRRRRRRRR",
"RRRRRRRRR111111111MXYYYYYYYYYYYYYYY%kPPPPPPPPRRRRRRRRRRRRRRRRRRRR",
"RRRRRRRRR11111111xYYYYYYYYYYYYYY*lLPPPPPPPPPPRRRRRRRRRRRRRRRRRRRR",
"RRRRRRRR1111111NXYYYYYYYYYYYY-IPPPPPPPPPPPPPPRRRRRRRRRRRRRRRRRRRR",
"RRRRRRRR111111xYYYYYYYYYYY,UPPPPPPPPPPPPPPPPPPRRRRRRRRRRRRRRRRRRR",
"RRRRRRR11111NXYYYYYYYYY,VPPPPPPPPPPPPPPPPPPPPPRRRRRRRRRRRRRRRRRRR",
"RRRRRRR1111xYYYYYYYOjPPPPPPPPPPPPPPPPPPPPPPPPPRRRRRRRRRRRRRRRRRRR",
"RRRRRR111MXYYYYYOjPPPPPPPPPPPPPPPPPPPPPPPPPPPPRRRRRRRRRRRRRRRRRRR",
"RRRRR111xYYYY%kPPPPPPPPPPPPPPPPPPPPPPPPPPPPPPPPRRRRRRRRRRRRRRRRRR",
"RRRRR2N#YY-kPPPPPPPPPPPPPPPPPPPPPPPPPPPPPPPPPPPRRRRRRRRRRRRRRRRRR",
"RRRRRxY-IPPPPPPPPPPPPPPPPPPPPPPPPPPPPPPPPPPPPPPRRRRRRRRRRRRRRRRRR",
"RRRRRRPPPPPPPPPPPPPPPPPPPPPPPPPPPPPPPPPPPPPPPPPRRRRRRRRRRRRRRRRRR",
"RRRRRRRRRRPPPPPPPPPPPPPPPPPPPPPPPPPPPPPPPPPPPPPPRRRRRRRRRRRRRRRRR",
"RRRRRRRRRRRRRRRRRPPPPPPPPPPPPPPPPPPPPPPPPPPPPPPPRRRRRRRRRRRRRRRRR",
"RRRRRRRRRRRRRRRRRRRRRRRRRPPPPPPPPPPPPPPPPPPPPPPPRRRRRRRRRRRRRRRRR",
"RRRRRRRRRRRRRRRRRRRRRRRRRRRRRRRRPPPPPPPPPPPPPPPPRRRRRRRRRRRRRRRRR",
"RRRRRRRRRRRRRRRRRRRRRRRRRRRRRRRRRRRRRRRPPPPPPPPPPRRRRRRRRRRRRRRRR",
"RRRRRRRRRRRRRRRRRRRRRRRRRRRRRRRRRRRRRRRRRRRRRRRPRRRRRRRRRRRRRRRRR",
"RRRRRRRRRRRRRRRRRRRRRRRRRRRRRRRRRRRRRRRRRRRRRRRRRRRRRRRRRRRRRRRRR",
"RRRRRRRRRRRRRRRRRRRRRRRRRRRRRRRRRRRRRRRRRRRRRRRRRRRRRRRRRRRRRRRRR",
"RRRRRRRRRRRRRRRRRRRRRRRRRRRRRRRRRRRRRRRRRRRRRRRRRRRRRRRRRRRRRRRRR",
"RRRRRRRRRRRRRRRRRRRRRRRRRRRRRRRRRRRRRRRRRRRRRRRRRRRRRRRRRRRRRRRRR",
"RRRRRRRRRRRRRRRRRRRRRRRRRRRRRRRRRRRRRRRRRRRRRRRRRRRRRRRRRRRRRRRRR",
"RRRRRRRRRRRRRRRRRRRRRRRRRRRRRRRRRRRRRRRRRRRRRRRRRRRRRRRRRRRRRRRRR",
"RRRRRRRRRRRRRRRRRRRRRRRRRRRRRRRRRRRRRRRRRRRRRRRRRRRRRRRRRRRRRRRRR",
"RRRRRRRRRRRRRRRRRRRRRRRRRRRRRRRRRRRRRRRRRRRRRRRRRRRRRRRRRRRRRRRRR",
"RRRRRRRRRRRRRRRRRRRRRRRRRRRRRRRRRRRRRRRRRRRRRRRRRRRRRRRRRRRRRRRRR",
"RRRRRRRRRRRRRRRRRRRRRRRRRRRRRRRRRRRRRRRRRRRRRRRRRRRRRRRRRRRRRRRRR",
"RRRRRRRRRRRRRRRRRRRRRRRRRRRRRRRRRRRRRRRRRRRRRRRRRRRRRRRRRRRRRRRRR",
"RRRRRRRRRRRRRRRRRRRRRRRRRRRRRRRRRRRRRRRRRRRRRRRRRRRRRRRRRRRRRRRRR",
"RRRRRRRRRRRRRRRRRRRRRRRRRRRRRRRRRRRRRRRRRRRRRRRRRRRRRRRRRRRRRRRRR",
"RRRRRRRRRRRRRRRRRRRRRRRRRRRRRRRRRRRRRRRRRRRRRRRRRRRRRRRRRRRRRRRRR"
};
