/* XPM */
static char *_9ddba8e89144482b5f2abff360ca987[] = {
/* columns rows colors chars-per-pixel */
"32 33 56 1 ",
"  c #45427D",
". c #41457F",
"X c #4D437A",
"o c #534477",
"O c #514378",
"+ c #514B78",
"@ c #5C5073",
"# c #6C4F6D",
"$ c #7E4867",
"% c #71476C",
"& c #69566E",
"* c #6E586C",
"= c #644E71",
"- c #E5523D",
"; c #E3573E",
": c #EF5339",
"> c #EE533A",
", c #EF5539",
"< c #EF5739",
"1 c #EB603F",
"2 c #F16537",
"3 c #F16737",
"4 c #F16937",
"5 c #F26F36",
"6 c #F27036",
"7 c #F37636",
"8 c #F37A35",
"9 c #924A5E",
"0 c #9E4B59",
"q c #BE5B4C",
"w c #AE4D53",
"e c #B34A52",
"r c #B34D51",
"t c #996B5A",
"y c #AB7352",
"u c #886361",
"i c #CD5046",
"p c #CE5046",
"a c #D75143",
"s c #D15045",
"d c #DB873E",
"f c #E98E38",
"g c #F48335",
"h c #F58634",
"j c #F58E33",
"k c #F68F33",
"l c #F58A34",
"z c #F58B34",
"x c #F69133",
"c c #F69333",
"v c #CC8144",
"b c #3A4181",
"n c #3A4281",
"m c #394182",
"M c #3C4281",
"N c None",
/* pixels */
"NNNNNNNNNNNNNNNNNNNNNNNNNNNNNNNN",
"NNNNNNNNNNNNNNNNNNNNNNNNNNNNNNNN",
"NNNNNNNNNNNNNNNNNNNNNNNNNNNNNNNN",
"NNNNNNNNNNNNNNNNNNNNNNNNNNNNNNNN",
"NNNNNNNNNNNNNNNNNNNNNNNNNNNNNNNN",
"NNNNNNNNNNNNNNNNNNNNNNNNNNNNNNNN",
"NNNNNNNNNNNNNNNNNNNNNNNNNNNNNNNN",
"NNNNNNNNNNNNNNNNNNNNNNNNNNNNNNNN",
"NNNNNNNNNNNNNN:::NNNNNNNNNNNNNNN",
"NNNNNNNNNNN::1z4:::NNNNNNNNNNNNN",
"NNNNNNNNN:::::5cc7,,NNNNNNNNNNNN",
"NNNNNNNN:::::::8ccchNNNNNNNNNNNN",
"NNNNNNN:::::::::gcch2ccccNNNNNNN",
"NNNNNN:::::::-p::jc2,cccccccNNNN",
"NNNNNNmmmmmmm%r 9;j,:zccccccccNN",
"NNNNNmmmmmX0:$mmmm#p:6cccccNNNNN",
"NNNNNmmm%a,s mmmmmmmOqcNNNNNNNNN",
"NNNNNOw:::$mmmmmmmm@ycNNNNNNNNNN",
"NNNN,:::s mmmmmM&vccccNNNNNNNNNN",
"NNNN:::$mmmm.*vcccccccNNNNNNNNNN",
"NNN::s mm.udcccccccccccNNNNNNNNN",
"NNN:$m+tdccccccccccccccNNNNNNNNN",
"NNe=tfcccccccccccccccccNNNNNNNNN",
"NNNNcccccccccccccccccccNNNNNNNNN",
"NNNNNNNNNNNcccccccccccccNNNNNNNN",
"NNNNNNNNNNNNNNNNNNccccccNNNNNNNN",
"NNNNNNNNNNNNNNNNNNNNNNNNNNNNNNNN",
"NNNNNNNNNNNNNNNNNNNNNNNNNNNNNNNN",
"NNNNNNNNNNNNNNNNNNNNNNNNNNNNNNNN",
"NNNNNNNNNNNNNNNNNNNNNNNNNNNNNNNN",
"NNNNNNNNNNNNNNNNNNNNNNNNNNNNNNNN",
"NNNNNNNNNNNNNNNNNNNNNNNNNNNNNNNN",
"NNNNNNNNNNNNNNNNNNNNNNNNNNNNNNNN"
};
