/* XPM */
static char *regtest_bitcoin64[] = {
/* columns rows colors chars-per-pixel */
"64 64 171 2 ",
"   c #2C637D",
".  c #2B677D",
"X  c #2C647F",
"o  c #2C687E",
"O  c #377289",
"+  c #347697",
"@  c #3E7A96",
"#  c #36799A",
"$  c #357B9B",
"%  c #347C99",
"&  c #437994",
"*  c #34819B",
"=  c #3981A6",
"-  c #3884A4",
";  c #3B86AB",
":  c #3E8EB5",
">  c #3F8FB7",
",  c #3B90B1",
"<  c #3E9CB9",
"1  c #4297B4",
"2  c #4298B8",
"3  c #4499BC",
"4  c #53A0BF",
"5  c #26B9D6",
"6  c #28B8D8",
"7  c #36BAD7",
"8  c #39B8D5",
"9  c #30BBD9",
"0  c #32BCDB",
"q  c #37BCDA",
"w  c #3DBEDA",
"e  c #3FBDDC",
"r  c #4B9EC5",
"t  c #549FC0",
"y  c #4BA5C6",
"u  c #4CA4C4",
"i  c #41A8C6",
"p  c #42AACA",
"a  c #43ADCD",
"s  c #4FA8C9",
"d  c #48ACCA",
"f  c #54A2C4",
"g  c #59A2C7",
"h  c #52ABCB",
"j  c #46ACD0",
"k  c #48AED6",
"l  c #47B1D5",
"z  c #4EB1D6",
"x  c #48BCD5",
"c  c #46B2DE",
"v  c #4CB5DF",
"b  c #45BCD8",
"n  c #45BDD8",
"m  c #47B8DE",
"M  c #46BEDE",
"N  c #4ABDD8",
"B  c #4ABFD9",
"V  c #4ABADF",
"C  c #49BEDE",
"Z  c #50B9D2",
"A  c #57BAD3",
"S  c #50BDD7",
"D  c #50B7DF",
"F  c #50BEDF",
"G  c #66BED5",
"H  c #68BCD1",
"J  c #4EAEE0",
"K  c #4FAEE0",
"L  c #4DB1E0",
"P  c #55B4E1",
"I  c #5BB8E2",
"U  c #44C0D9",
"Y  c #57C0D7",
"T  c #50C2DB",
"R  c #54C1DA",
"E  c #53C2DC",
"W  c #57C4DD",
"Q  c #58C0D8",
"!  c #5DC1D8",
"~  c #5EC7DE",
"^  c #65C0D4",
"/  c #6BC1D5",
"(  c #65C2D8",
")  c #6AC6DB",
"_  c #6DC4D8",
"`  c #61C8DF",
"'  c #68C8DD",
"]  c #75C1D3",
"[  c #71C2D6",
"{  c #7FC2D5",
"}  c #7BC6D8",
"|  c #7FC6D8",
" . c #78CADD",
".. c #7FCADC",
"X. c #64C9E0",
"o. c #6BCDE3",
"O. c #6FCDE2",
"+. c #74CFE3",
"@. c #77D1E5",
"#. c #85C3D2",
"$. c #8BC5D3",
"%. c #84CADB",
"&. c #89CCDB",
"*. c #8CCCDB",
"=. c #92C7D5",
"-. c #93CDDB",
";. c #9BCDDA",
":. c #9ACEDB",
">. c #97D0DC",
",. c #A2CFDB",
"<. c #A8CBD9",
"1. c #B5CED5",
"2. c #B4CEDC",
"3. c #BBCFDA",
"4. c #A6D1DB",
"5. c #A0D2DE",
"6. c #A6D2DD",
"7. c #A4D1DE",
"8. c #ACD0D9",
"9. c #ADD0DB",
"0. c #A9D3DE",
"q. c #ADD4DF",
"w. c #B8D0D7",
"e. c #B4D2DC",
"r. c #B3D5DF",
"t. c #BAD8DF",
"y. c #BED7E1",
"u. c #B8D9E2",
"i. c #BDDEE7",
"p. c #C0D4DE",
"a. c #C1D6DF",
"s. c #CAD0DB",
"d. c #CDD6DF",
"f. c #C6D8DE",
"g. c #C2DBE2",
"h. c #C5DCE3",
"j. c #C6DDE3",
"k. c #CADBE1",
"l. c #CEDBE1",
"z. c #CEDFE5",
"x. c #D7DFE3",
"c. c #DFD9E0",
"v. c #DDDFE3",
"b. c #CCE0E6",
"n. c #D4E0E4",
"m. c #D6E1E6",
"M. c #D0E1E9",
"N. c #E3E1E5",
"B. c #E7E0E4",
"V. c #E0E5E7",
"C. c #E3E6E7",
"Z. c #E6E6E8",
"A. c #ECE0E9",
"S. c #EEE7EB",
"D. c #EAE8E8",
"F. c #F0E2E6",
"G. c #FAE2EB",
"H. c #F0E9E9",
"J. c #F1EAEA",
"K. c #F5E9EB",
"L. c #F5ECEB",
"P. c #FBE8EE",
"I. c #FAEFEE",
"U. c #E1ECF1",
"Y. c #ECEEF2",
"T. c #F2EBF1",
"R. c #FCEFF2",
"E. c #F5F4F5",
"W. c #FDF6F8",
"Q. c #FFFEFE",
"!. c None",
/* pixels */
"!.!.!.!.!.!.!.!.!.!.!.!.!.!.!.!.!.!.!.!.!.!.!.!.!.!.!.!.!.!.!.!.!.!.!.!.!.!.!.!.!.!.!.!.!.!.!.!.!.!.!.!.!.!.!.!.!.!.!.!.!.!.!.!.",
"!.!.!.!.!.!.!.!.!.!.!.!.!.!.!.!.!.!.!.!.!.!.!.!.!.!.!.!.!.!.!.!.!.!.!.!.!.!.!.!.!.!.!.!.!.!.!.!.!.!.!.!.!.!.!.!.!.!.!.!.!.!.!.!.",
"!.!.!.!.!.!.!.!.!.!.!.!.!.!.!.!.!.!.!.!.!.!.!.!.!.!.!.!.!.!.!.!.!.!.!.!.!.!.!.!.!.!.!.!.!.!.!.!.!.!.!.!.!.!.!.!.!.!.!.!.!.!.!.!.",
"!.!.!.!.!.!.!.!.!.!.!.!.!.!.!.!.!.!.!.!.!.!.!.!.!.!.!.!.!.!.!.!.!.!.!.!.!.!.!.!.!.!.!.!.!.!.!.!.!.!.!.!.!.!.!.!.!.!.!.!.!.!.!.!.",
"!.!.!.!.!.!.!.!.!.!.!.!.!.!.!.!.!.!.!.!.!.!.!.!.!.h F B V V v v v v V V B F u !.!.!.!.!.!.!.!.!.!.!.!.!.!.!.!.!.!.!.!.!.!.!.!.!.",
"!.!.!.!.!.!.!.!.!.!.!.!.!.!.!.!.!.!.!.!.!.!.s l V M n n U U n U U n U U n M M V l y !.!.!.!.!.!.!.!.!.!.!.!.!.!.!.!.!.!.!.!.!.!.",
"!.!.!.!.!.!.!.!.!.!.!.!.!.!.!.!.!.!.!.& z m M U n b n n n n n n n n n n n n b n n M m k @ !.!.!.!.!.!.!.!.!.!.!.!.!.!.!.!.!.!.!.",
"!.!.!.!.!.!.!.!.!.!.!.!.!.!.!.!.!.!.P m n U n n n n n n n n n n n n n n n n B B n b U n m D !.!.!.!.!.!.!.!.!.!.!.!.!.!.!.!.!.!.",
"!.!.!.!.!.!.!.!.!.!.!.!.!.!.!.!.I M e U n n n n n n n n n n n n n n n n n n B B B n n n U n m D !.!.!.!.!.!.!.!.!.!.!.!.!.!.!.!.",
"!.!.!.!.!.!.!.!.!.!.!.!.!.!.!.V e U n n n n n n n n n n n n n n n n n B B B B B B n n n n n U M V !.!.!.!.!.!.!.!.!.!.!.!.!.!.!.",
"!.!.!.!.!.!.!.!.!.!.!.!.!.g L U n n n n n n n n n n n n n n n n n B B B B N N B B B n n n n n n U L r !.!.!.!.!.!.!.!.!.!.!.!.!.",
"!.!.!.!.!.!.!.!.!.!.!.!.t m U b n n n n n n n n n n n n n n n B B B B B N T T N B B n n n n n n b U V 3 !.!.!.!.!.!.!.!.!.!.!.!.",
"!.!.!.!.!.!.!.!.!.!.!.4 c U n n n n n n n n n n n n n n n N e 6 q B T T T T T B B B B n n n n n n n U L 2 !.!.!.!.!.!.!.!.!.!.!.",
"!.!.!.!.!.!.!.!.!.!.f c U n n n n n n n n n n n n n n B B e Y #.S U T R B B R T B B B n n n n n n n n U v 3 !.!.!.!.!.!.!.!.!.!.",
"!.!.!.!.!.!.!.!.!.!.J U b n n n n n n n n n n n n B B B N 6 #.P.I.1.U C Y x 9 U R B B n n n n n n n n b U K !.!.!.!.!.!.!.!.!.!.",
"!.!.!.!.!.!.!.!.!.D U b n n n n n n n n n n n n B B B B T 6 r.Q.Q.a.q w w.N.<./ U B B B n n n n n n n n n n v !.!.!.!.!.!.!.!.!.",
"!.!.!.!.!.!.!.!.D m n n n n n n n n n n n B B 8 6 6 q B B n V.Q.W.%.0 S D.Q.P.=.9 T B B B n n n n n n n n n V l !.!.!.!.!.!.!.!.",
"!.!.!.!.!.!.!.!.L U n n n n n n n n n n B n w 1.2.| A n 5 Z R.Q.I.( 0 [ R.Q.I.! e T B B B n n n n n n n n n U L !.!.!.!.!.!.!.!.",
"!.!.!.!.!.!.!.k n b n n n n n n n n B B B q S R.Q.W.I.x.;.q.Q.Q.b.6 6 =.W.Q.n.U T T T N B B n n n n n n n n b M v !.!.!.!.!.!.!.",
"!.!.!.!.!.!.O L U n n n n n n n B B B B T 6 $.P.Q.Q.Q.Q.W.Q.Q.Q.U.:.^ h.Q.W.5.q W T T B B B n n n n n n n n n U L o !.!.!.!.!.!.",
"!.!.!.!.!.!.D n b n n n n n B B B B B N T U [ <.m.W.Q.Q.Q.Q.Q.Q.Q.W.R.Q.Q.W.&.5 w E R T B B B n n n n n n n n b B V !.!.!.!.!.!.",
"!.!.!.!.!.!.L U n n n n B B B B B B T T T W n 9 7 %.E.Q.Q.Q.Q.Q.Q.Q.Q.Q.Q.Q.E.p.[ 9 e R N B B n n n n n n n n n U L !.!.!.!.!.!.",
"!.!.!.!.!.d m n n n n B B B B N T T T T E R W W E 9 z.Q.Q.Q.Q.W.I.R.W.Q.Q.Q.Q.Q.R.3.x q R B B B n n n n n n n n n V < !.!.!.!.!.",
"!.!.!.!.!.V U n B B B B B N N T T T E E W W W W E Q D.Q.Q.Q.Q.h.Q *.r.Z.R.Q.Q.Q.Q.W.A.x q T B B n n n n n n n n n n v !.!.!.!.!.",
"!.!.!.!.!.v U B B B B B N T T T E R W W W W ~ ` n } R.Q.Q.Q.W.5.e W E W -.K.Q.Q.Q.Q.Q.v.8 B N B B n n n n n n n n U L !.!.!.!.!.",
"!.!.!.!.1 V n n B B B T T E E E W W W W ~ ~ ~ X.U 4.W.Q.Q.Q.R...W +.+.X.w _ T.Q.Q.Q.Q.R.| 0 T B B B n n n n n n n n v * !.!.!.!.",
"!.!.!.!.d C n n B B B N T E W W W W ~ ~ ~ ` ` X.B k.Q.Q.Q.Q.D.' o.+.+.O.+.w 0.W.Q.Q.Q.W.q.9 T N B B n n n n n n n n C i !.!.!.!.",
"!.!.!.!.C n n n n B B B T T E W W ~ ` ` ` X.X.~ ( J.Q.Q.Q.W.h.W +.+.+.O.+.n 5.W.Q.Q.Q.W.q.q T B B B n n n n n n n n n C !.!.!.!.",
"!.!.!.!.V U n n n n B B N T E R W ~ ~ ` X.X.o.E %.R.Q.Q.Q.W.-.e X.o.O.o.E x x.Q.Q.Q.Q.W.-.q E T N B B n n n n n n n U v !.!.!.!.",
"!.!.!.!.V U n n n n B B B T T E W W ~ ~ ` X.o.T 0.W.Q.Q.Q.Q.M.,.&. .) ' _ f.W.Q.Q.Q.Q.P.! n R T T B B B n n n n n n U v !.!.!.!.",
"!.!.!.!.v U n n n n n B B N T T R W W ~ ` X.X.T k.Q.Q.Q.Q.Q.Q.W.R.J.C.C.I.W.Q.Q.Q.Q.R.8.q W E T T B B B n n n n n n n v !.!.!.!.",
"!.!.!.!.L U n n n n n B B B T T E W W ~ ~ ` W ( H.Q.Q.Q.Q.W.W.Q.Q.Q.Q.Q.Q.Q.Q.Q.Q.R.e.n E W W E T B B B n n n n n n n v !.!.!.!.",
"!.!.!.!.v U n n n n n n B B B T E E W W ~ ` B | R.Q.Q.Q.W.i.5.l.L.R.Q.Q.Q.Q.Q.Q.Y.G 0 ~ ` W W R T T B B B n n n n n n v !.!.!.!.",
"!.!.!.!.L n n n n n n n B B B T T E W W ~ ` n ,.W.Q.Q.Q.R. .n X. .>.k.R.Q.Q.Q.Q.W.p.Q E X.~ W W E T T B B B n n n n n v !.!.!.!.",
"!.!.!.!.V U n n n n n n n B B N T T R W W ~ n k.Q.Q.Q.Q.D.) O.@.o.W W | S.Q.Q.Q.Q.W.B.S W ~ W W R E T N B B n n n n U v !.!.!.!.",
"!.!.!.!.C U n n n n n n n B B B B T T E W E Y H.Q.Q.Q.W.j.W +.+.+.+.+.C ) T.Q.Q.Q.Q.W.9.U ` ~ W W E T T B B B n n n U v !.!.!.!.",
"!.!.!.!.C n n n n n n n n n B B B E B x q 5 [ R.Q.Q.Q.W.5.W +.+.+.O.O.+.n 6.W.Q.Q.Q.Q.x.T W ~ W W W E T B B B B n n n C !.!.!.!.",
"!.!.!.!.a C n n n n n n n n B B T 0 / c.q.} m.Q.Q.Q.Q.R...~ +.+.O.o.o.o.n >.W.Q.Q.Q.Q.C.Y E W W W E E T T B B B n n V i !.!.!.!.",
"!.!.!.!.< V n n n n n n n n n B B 6 t.W.W.W.Q.Q.Q.Q.Q.V.n C ` X.o.o.o.E 8 k.Q.Q.Q.Q.Q.n.b E W R E E T T T B B B B b v * !.!.!.!.",
"!.!.!.!.!.v U n n n n n n n n B 9 H P.Q.Q.Q.Q.Q.Q.Q.Q.Y.q.*.[ ! T B B S 9.W.Q.Q.Q.Q.W.q.q W E E T T B B B B B B B U L !.!.!.!.!.",
"!.!.!.!.!.V n n n n n n n n n n 9 ] s.L.R.W.Q.Q.Q.Q.Q.Q.W.R.I.V.k.g.h.H.W.Q.Q.Q.Q.Q.R.[ q E T T T N B B B B n n n n V !.!.!.!.!.",
"!.!.!.!.!.p V n n n n n n n n n N w 9 S [ ,.z.E.Q.Q.Q.Q.Q.Q.Q.Q.Q.Q.Q.Q.Q.Q.Q.Q.Q.W.l.9 T T T B B B B B n n n n n V < !.!.!.!.!.",
"!.!.!.!.!.!.L U n n n n n n n n n B B w 0 9 5 *.W.Q.E.I.W.Q.Q.Q.Q.Q.Q.Q.Q.Q.Q.Q.W.F.N q T B B B B B B n n n n n U L !.!.!.!.!.!.",
"!.!.!.!.!.!.V B b n n n n n n n n n B N T R 6 ,.Q.Q.u.S &.U.Q.Q.W.W.W.W.Q.W.W.R.d.S 9 R B B B B B n n n n n n b M V !.!.!.!.!.!.",
"!.!.!.!.!.!.o L U n n n n n n n n n B B B B n v.Q.W.*.6 7 n.Q.W.7.&.r.g.h.y.0.[ 7 q T B B B B n n n n n n n n U L . !.!.!.!.!.!.",
"!.!.!.!.!.!.!.v B b n n n n n n n n n B N q ! R.Q.R.) q [ R.Q.I.S 6 q 8 w q 9 9 B T B B B B n n n n n n n n b M v !.!.!.!.!.!.!.",
"!.!.!.!.!.!.!.!.L U n n n n n n n n n B B 6 =.P.Q.V.B q *.W.Q.m.n T T T B B T N B B B n n n n n n n n n n n U L !.!.!.!.!.!.!.!.",
"!.!.!.!.!.!.!.!.l V n n n n n n n n n n B w / 7.v.8.q w l.Q.Q.q.9 E T B B B B B B n n n n n n n n n n n n n V j !.!.!.!.!.!.!.!.",
"!.!.!.!.!.!.!.!.!.L B n n n n n n n n n n T w 6 n S E N w.I.G.| 9 T B B B B B n n n n n n n n n n n n n n B L !.!.!.!.!.!.!.!.!.",
"!.!.!.!.!.!.!.!.!.!.L U b n n n n n n n n B B T n B W E U Q { Q n N B B B n n n n n n n n n n n n n n b U L !.!.!.!.!.!.!.!.!.!.",
"!.!.!.!.!.!.!.!.!.!.- L U b n n n n n n n n B B N T E E B w 9 n T B B B n n n n n n n n n n n n n n b U L - !.!.!.!.!.!.!.!.!.!.",
"!.!.!.!.!.!.!.!.!.!.!.$ J U b n n n n n n n B B B T T T B N N B B n n n n n n n n n n n n n n n n b U J % !.!.!.!.!.!.!.!.!.!.!.",
"!.!.!.!.!.!.!.!.!.!.!.!.# L U n n n n n n n B B B T N B B B B B n n n n n n n n n n n n n n n n n U L + !.!.!.!.!.!.!.!.!.!.!.!.",
"!.!.!.!.!.!.!.!.!.!.!.!.!.; L n n n n n n n n B B N B B B B n n n n n n n n n n n n n n n n n n B L = !.!.!.!.!.!.!.!.!.!.!.!.!.",
"!.!.!.!.!.!.!.!.!.!.!.!.!.!.!.L v U b n n n n B B B B B n n n n n n n n n n n n n n n n n b U v L !.!.!.!.!.!.!.!.!.!.!.!.!.!.!.",
"!.!.!.!.!.!.!.!.!.!.!.!.!.!.!.!.> J M n n n n n B B B n n n n n n n n n n n n n n n n n n C L : !.!.!.!.!.!.!.!.!.!.!.!.!.!.!.!.",
"!.!.!.!.!.!.!.!.!.!.!.!.!.!.!.!.!.!.k L M U n n B n n n n n n n n n n n n n n n n n U M L k !.!.!.!.!.!.!.!.!.!.!.!.!.!.!.!.!.!.",
"!.!.!.!.!.!.!.!.!.!.!.!.!.!.!.!.!.!.!.X k L V n n n n n n n n n n n n n n n n n n V L l   !.!.!.!.!.!.!.!.!.!.!.!.!.!.!.!.!.!.!.",
"!.!.!.!.!.!.!.!.!.!.!.!.!.!.!.!.!.!.!.!.!.!., V L v C n n U U n n U U U n C v L V , !.!.!.!.!.!.!.!.!.!.!.!.!.!.!.!.!.!.!.!.!.!.",
"!.!.!.!.!.!.!.!.!.!.!.!.!.!.!.!.!.!.!.!.!.!.!.!.!.% i C v v v v v v v v C i % !.!.!.!.!.!.!.!.!.!.!.!.!.!.!.!.!.!.!.!.!.!.!.!.!.",
"!.!.!.!.!.!.!.!.!.!.!.!.!.!.!.!.!.!.!.!.!.!.!.!.!.!.!.!.!.!.!.!.!.!.!.!.!.!.!.!.!.!.!.!.!.!.!.!.!.!.!.!.!.!.!.!.!.!.!.!.!.!.!.!.",
"!.!.!.!.!.!.!.!.!.!.!.!.!.!.!.!.!.!.!.!.!.!.!.!.!.!.!.!.!.!.!.!.!.!.!.!.!.!.!.!.!.!.!.!.!.!.!.!.!.!.!.!.!.!.!.!.!.!.!.!.!.!.!.!.",
"!.!.!.!.!.!.!.!.!.!.!.!.!.!.!.!.!.!.!.!.!.!.!.!.!.!.!.!.!.!.!.!.!.!.!.!.!.!.!.!.!.!.!.!.!.!.!.!.!.!.!.!.!.!.!.!.!.!.!.!.!.!.!.!.",
"!.!.!.!.!.!.!.!.!.!.!.!.!.!.!.!.!.!.!.!.!.!.!.!.!.!.!.!.!.!.!.!.!.!.!.!.!.!.!.!.!.!.!.!.!.!.!.!.!.!.!.!.!.!.!.!.!.!.!.!.!.!.!.!."
};
