/* XPM */
static char *regtest_bitcoin16[] = {
/* columns rows colors chars-per-pixel */
"16 16 156 2 ",
"   c #389AB0",
".  c #389AB1",
"X  c #3A9EB5",
"o  c #399EB6",
"O  c #3A9FB6",
"+  c #3AA0B8",
"@  c #3BA4BB",
"#  c #3CA4BC",
"$  c #3CA4BD",
"%  c #3DA6BD",
"&  c #40A5BC",
"*  c #46A7BE",
"=  c #38B2CE",
"-  c #3FB9D4",
";  c #40ADC5",
":  c #40AEC6",
">  c #45ACC4",
",  c #49AEC5",
"<  c #53ACC1",
"1  c #55ADC1",
"2  c #41B2CC",
"3  c #41B3CD",
"4  c #40B4CF",
"5  c #41B5CF",
"6  c #4FB2C8",
"7  c #54B1C6",
"8  c #56B3C7",
"9  c #53B4CA",
"0  c #57B4CA",
"q  c #41B5D0",
"w  c #41B6D0",
"e  c #43B7D1",
"r  c #42B7D2",
"t  c #44B7D2",
"y  c #40B8D3",
"u  c #43B8D2",
"i  c #42B8D4",
"p  c #42B9D5",
"a  c #43B9D5",
"s  c #42BBD5",
"d  c #42BAD6",
"f  c #44B9D5",
"g  c #44BBD6",
"h  c #41BCD7",
"j  c #43BCD7",
"k  c #44BCD7",
"l  c #45BCD7",
"z  c #44BDD7",
"x  c #4BBAD3",
"c  c #41BCD8",
"v  c #42BCD8",
"b  c #43BDD8",
"n  c #44BCD8",
"m  c #45BCD8",
"M  c #44BDD8",
"N  c #45BDD8",
"B  c #46BDD9",
"V  c #47BDD9",
"C  c #45BED9",
"Z  c #46BED9",
"A  c #46BFDA",
"S  c #49BED8",
"D  c #48BED9",
"F  c #48BFD9",
"G  c #49BFD9",
"H  c #4ABED8",
"J  c #4BBED8",
"K  c #4ABED9",
"L  c #4BBED9",
"P  c #4ABFD9",
"I  c #4BBFD9",
"U  c #48BEDA",
"Y  c #48BFDA",
"T  c #4DBED9",
"R  c #4CBFDA",
"E  c #5BBFD5",
"W  c #5DBED4",
"Q  c #6DBDCF",
"!  c #70BECF",
"~  c #63BFD4",
"^  c #74BFD0",
"/  c #4AC0DA",
"(  c #4CC0DA",
")  c #4CC1DB",
"_  c #4DC1DB",
"`  c #4FC1DB",
"'  c #50C1DA",
"]  c #51C1DB",
"[  c #52C1DA",
"{  c #50C2DB",
"}  c #56C3DB",
"|  c #52C1DC",
" . c #52C2DC",
".. c #53C2DC",
"X. c #53C3DC",
"o. c #54C3DC",
"O. c #57C4DC",
"+. c #5AC1D8",
"@. c #5BC3DB",
"#. c #58C5DD",
"$. c #5AC6DE",
"%. c #5BC6DE",
"&. c #5CC5DC",
"*. c #5DC6DD",
"=. c #5FC7DE",
"-. c #62C2D7",
";. c #66C3D9",
":. c #62C5DB",
">. c #62C7DE",
",. c #68C4DA",
"<. c #6AC7DC",
"1. c #68C8DE",
"2. c #73C2D3",
"3. c #77C5D6",
"4. c #7CC7D7",
"5. c #77CADC",
"6. c #7FC8D8",
"7. c #6ECDE2",
"8. c #7DCFE1",
"9. c #82C3D2",
"0. c #9FCBD4",
"q. c #98D0DC",
"w. c #A4CFD8",
"e. c #A8D1DB",
"r. c #ACD3DD",
"t. c #A9D4DF",
"y. c #B9D8DF",
"u. c #ACDAE5",
"i. c #B0D7E0",
"p. c #B8DBE2",
"a. c #B9DBE3",
"s. c #BFDBE1",
"d. c #C1D9DF",
"f. c #DFDFDF",
"g. c #C7DDE1",
"h. c #C9DDE2",
"j. c #CCDDE1",
"k. c #CFDFE3",
"l. c #CDE1E5",
"z. c #D6E0E2",
"x. c #D0E1E5",
"c. c #DBE1E2",
"v. c #DEE2E3",
"b. c #D3E4E8",
"n. c #D5E4E8",
"m. c #DBE7EA",
"M. c #DFE6E8",
"N. c #DEE7EA",
"B. c #E2E2E2",
"V. c #E1E4E4",
"C. c #E4E4E4",
"Z. c #E7E7E7",
"A. c #E9E9EA",
"S. c gray92",
"D. c #EEEEEE",
"F. c None",
/* pixels */
"F.F.F.F.F.F.F.8 7 F.F.F.F.F.F.F.",
"F.F.F.F.F.0 @.o.] [ 6 F.F.F.F.F.",
"F.F.F.1 *.X.Z - s P ) ' * F.F.F.",
"F.F.< O.V y = Q 9.W J m F & F.F.",
"F.F.O.I h ! 0.g.k.w.H N B j F.F.",
"F.9 | / _ E j.D.n.z.6.g n N ; F.",
"F.} ` o.=.+.s.m.7.a.f.-.b B g F.",
", R C { &.;.V.M.i.l.h.<.( n g $ ",
"> G M S x 2.Z.u.t.A.p.>...A i # ",
"F.l z d ^ c.S.8.,.b.B.1. .K w F.",
"F.: N v ~ y.N.x.v.C.e.%.Y t % F.",
"F.F.k N c 4.r.d.q.5.$.) p 4 F.F.",
"F.F.+ a k T :.3.#.L B a 5 . F.F.",
"F.F.F.O e f U Y D g u 3   F.F.F.",
"F.F.F.F.F.@ q r e 2 + F.F.F.F.F.",
"F.F.F.F.F.F.F.o X F.F.F.F.F.F.F."
};
