/* XPM */
static char *_ef8fca2401f4279a3dce4619fcfebef[] = {
/* columns rows colors chars-per-pixel */
"64 64 227 2 ",
"   c #008CC8",
".  c #018DC9",
"X  c #028DC9",
"o  c #038DC9",
"O  c #048EC9",
"+  c #058EC9",
"@  c #068FCA",
"#  c #078FCA",
"$  c #0890CA",
"%  c #0990CA",
"&  c #0A91CA",
"*  c #0B91CB",
"=  c #0C91CB",
"-  c #0D92CB",
";  c #0E92CB",
":  c #0F93CC",
">  c #1093CC",
",  c #1194CC",
"<  c #1294CC",
"1  c #1395CC",
"2  c #1495CD",
"3  c #1596CD",
"4  c #1696CD",
"5  c #1796CD",
"6  c #1897CD",
"7  c #1997CE",
"8  c #1A98CE",
"9  c #1B98CE",
"0  c #1C99CE",
"q  c #1D99CF",
"w  c #1F9ACF",
"e  c #209BCF",
"r  c #219BCF",
"t  c #229BD0",
"y  c #239CD0",
"u  c #249CD0",
"i  c #259DD0",
"p  c #269DD1",
"a  c #279ED1",
"s  c #289ED1",
"d  c #299FD1",
"f  c #2A9FD1",
"g  c #2BA0D2",
"h  c #2CA0D2",
"j  c #2DA0D2",
"k  c #2EA1D2",
"l  c #2FA1D2",
"z  c #30A2D3",
"x  c #31A2D3",
"c  c #32A3D3",
"v  c #33A3D3",
"b  c #34A4D4",
"n  c #35A4D4",
"m  c #36A4D4",
"M  c #39A6D5",
"N  c #3AA6D5",
"B  c #3BA7D5",
"V  c #3CA7D5",
"C  c #3EA8D6",
"Z  c #41A9D6",
"A  c #42AAD7",
"S  c #43AAD7",
"D  c #45ABD7",
"F  c #46ACD7",
"G  c #47ACD8",
"H  c #48ADD8",
"J  c #4AAED8",
"K  c #4BAED9",
"L  c #4CAED9",
"P  c #4EAFD9",
"I  c #50B0DA",
"U  c #51B1DA",
"Y  c #52B1DA",
"T  c #53B2DA",
"R  c #54B2DA",
"E  c #55B3DB",
"W  c #56B3DA",
"Q  c #56B3DB",
"!  c #57B3DB",
"~  c #58B4DB",
"^  c #5AB5DC",
"/  c #5BB5DC",
"(  c #5CB6DC",
")  c #5DB6DC",
"_  c #5EB7DD",
"`  c #5FB7DD",
"'  c #60B8DD",
"]  c #62B8DE",
"[  c #63B9DE",
"{  c #65BADE",
"}  c #66BADE",
"|  c #67BBDF",
" . c #68BBDF",
".. c #69BCDF",
"X. c #6BBCDF",
"o. c #6CBDE0",
"O. c #6EBEE0",
"+. c #6FBEE0",
"@. c #70BFE1",
"#. c #71BFE1",
"$. c #72C0E1",
"%. c #73C0E1",
"&. c #74C1E1",
"*. c #75C1E2",
"=. c #77C2E2",
"-. c #78C2E2",
";. c #79C3E2",
":. c #7AC3E3",
">. c #7BC4E3",
",. c #7CC4E3",
"<. c #7EC5E4",
"1. c #7FC6E4",
"2. c #81C6E4",
"3. c #82C7E4",
"4. c #85C8E5",
"5. c #86C9E5",
"6. c #87C9E6",
"7. c #89CAE6",
"8. c #8ACBE6",
"9. c #8ECCE7",
"0. c #8FCDE7",
"q. c #91CEE8",
"w. c #92CEE8",
"e. c #93CFE8",
"r. c #94CFE8",
"t. c #95D0E9",
"y. c #96D0E9",
"u. c #98D1E9",
"i. c #99D1E9",
"p. c #9AD2EA",
"a. c #9BD2EA",
"s. c #9CD3EA",
"d. c #9DD3EA",
"f. c #9ED4EA",
"g. c #9FD4EB",
"h. c #A2D5EB",
"j. c #A3D6EC",
"k. c #A4D6EC",
"l. c #A5D7EC",
"z. c #A6D7EC",
"x. c #A7D8EC",
"c. c #A8D8ED",
"v. c #A9D9ED",
"b. c #AAD9ED",
"n. c #ABD9ED",
"m. c #ADDAEE",
"M. c #AEDBEE",
"N. c #AFDBEE",
"B. c #B0DCEE",
"V. c #B1DCEF",
"C. c #B2DDEF",
"Z. c #B3DDEF",
"A. c #B4DEEF",
"S. c #B5DEEF",
"D. c #B6DEF0",
"F. c #B7DFF0",
"G. c #B8DFF0",
"H. c #B9E0F0",
"J. c #BAE0F1",
"K. c #BBE1F1",
"L. c #BDE2F1",
"P. c #BEE2F1",
"I. c #BFE3F2",
"U. c #C0E3F2",
"Y. c #C1E3F2",
"T. c #C4E5F3",
"R. c #C5E5F3",
"E. c #C6E6F3",
"W. c #C7E6F3",
"Q. c #C8E7F4",
"!. c #C9E7F4",
"~. c #CAE8F4",
"^. c #CBE8F4",
"/. c #CCE8F4",
"(. c #CEE9F5",
"). c #CFEAF5",
"_. c #D0EAF5",
"`. c #D1EBF6",
"'. c #D2EBF6",
"]. c #D3ECF6",
"[. c #D4ECF6",
"{. c #D5ECF6",
"}. c #D6EDF7",
"|. c #D7EDF7",
" X c #D8EEF7",
".X c #D9EEF7",
"XX c #DAEFF7",
"oX c #DBEFF8",
"OX c #DCF0F8",
"+X c #DDF0F8",
"@X c #DEF1F8",
"#X c #DFF1F9",
"$X c #E0F1F9",
"%X c #E1F2F9",
"&X c #E2F2F9",
"*X c #E3F3F9",
"=X c #E4F3FA",
"-X c #E5F4FA",
";X c #E6F4FA",
":X c #E7F5FA",
">X c #E8F5FB",
",X c #EAF5FB",
"<X c #E9F6FB",
"1X c #EAF6FB",
"2X c #EBF6FB",
"3X c #ECF7FB",
"4X c #EDF7FC",
"5X c #EEF8FC",
"6X c #EFF8FC",
"7X c #F0F9FC",
"8X c #F1F9FC",
"9X c #F2FAFD",
"0X c #F3FAFD",
"qX c #F4FBFD",
"wX c #F5FBFD",
"eX c #F6FBFE",
"rX c #F7FCFE",
"tX c #F8FCFE",
"yX c #F9FDFE",
"uX c #FAFDFE",
"iX c #FBFEFF",
"pX c #FCFEFF",
"aX c #FDFFFF",
"sX c #FEFEFE",
"dX c #FEFFFF",
"fX c gray100",
"gX c None",
/* pixels */
"gXgXgXgXgXgXgXgXgXsXsXsXsXsXsXsXsXsXsXsXsXsXsXsXsXsXsXsXsXsXsXsXsXsXsXsXsXsXsXsXsXsXsXsXsXsXsXsXsXsXsXsXsXsXsXgXgXgXgXgXgXgXgXgX",
"gXgXgXgXgXgXsXsXsXsXsXsXsXsXsXsXsXsXsXsXsXsXsXsXsXsXsXsXsXsXsXsXsXsXsXsXsXsXsXsXsXsXsXsXsXsXsXsXsXsXsXsXsXsXsXsXsXsXgXgXgXgXgXgX",
"gXgXgXgXgXsXsXsXsXsXsXsXsXsXsXsXsXsXsXsXsXsXsXsXsXsXsXsXsXsXsXsXsXsXsXsXsXsXsXsXsXsXsXsXsXsXsXsXsXsXsXsXsXsXsXsXsXsXsXgXgXgXgXgX",
"gXgXgXgXsXsXsXsXsXsXsXsXsXsXsXsXsXsXsXsXsXsXsXsXsXsXsXsXsXsXsXsXsXsXsXsXsXsXsXsXsXsXsXsXsXsXsXsXsXsXsXsXsXsXsXsXsXsXsXsXgXgXgXgX",
"gXgXgXsXsXsXsXsXsXsXsXsXsXsXsXsXsXsXsXsXsXsXsXsXsXsXsXsXsXsXsXsXsXsXsXsXsXsXsXsXsXsXsXsXsXsXsXsXsXsXsXsXsXsXsXsXsXsXsXsXsXgXgXgX",
"gXgXsXsXsXsXsXsXsXsXsXsXsXsXsXsXsXsXsXsXsXsXsXsXsXsXsXsXsXsXsXsXsXsXsXsXsXsXsXsXsXsXsXsXsXsXsXsXsXsXsXsXsXsXsXsXsXsXsXsXsXsXgXgX",
"gXsXsXsXsXsXsXsXsXsXsXsXsXsXsXsXsXsXsXsXsXsXsXsXsXsXsXsXsXsXsXsXsXsXsXsXsXsXsXsXsXsXsXsXsXsXsXsXsXsXsXsXsXsXsXsXsXsXsXsXsXsXsXgX",
"gXsXsXsXsXsXsXsXsXsXsXsXsXsXsXsXsXsXsXsXsXsXsXsXsXsXsXsXiX/.v.7.+.E V j 0 < : + + * : 8 a m K _ -.t.A.}.iXsXsXsXsXsXsXsXsXsXsXgX",
"gXsXsXsXsXsXsXsXsXsXsXsXsXsXsXsXsXsXsXsXsXsXsXsX@Xs.[ g +                                                 y Y 1.A.<XsXsXsXsXsXgX",
"sXsXsXsXsXsXsXsXsXsXsXsXsXsXsXsXsXsXsXsXsX}.-.s                 + j Y *.q.M.Y.}.=X2X7XqXeX7X2X@X'.L.v.9.&.Q j *     y [ l.2XsXsX",
"sXsXsXsXsXsXsXsXsXsXsXsXsXsXsXsXsXsXsXV.V               t [ s.].iXsXsXsXsXsXsXsXsXsXsXsXsXsXsXsXsXsXsXsXsXsXsXsX@XV.2.L 3   c *.",
"sXsXsXsXsXsXsXsXsXsXsXsX-X}.7XsXsXE.m             m 7.oXsXsXsXsXsXsXsXsXsXsXsXsXsXsXsXsXsXsXsXsXsXsXsXsXsXsXsXsXsXsXsXsXsXXXp.Q ",
"sXsXsXsXsXsXsXsXsXsX Xd.}.sXsX7X[           @ o.'.sXsXsXsXsXsXsXsXsXsXsXsXsXsXsXsXsXsXsXsXsXsXsXsXsXsXsXsXsXsXsXsXsXsXsXsXsXsXsX",
"sXsXsXsXsXsXsXsX5X&.g.sXsXsX/.y           [ -XsXsXsXsXsXsXsXsXsXsXsXsXsXsXsXsXsXsXsXsXsXsXsXsXsXsXsXsXsXsXsXsXsXsXsXsXsXsXsXsXsX",
"sXsXsXsXsXsXsXM.N ].sXsXsXN.*         3 J.sXsXsXsXsXsXsXsXsXsXsXsXsXsXsXsXsXsXsXsXsXsXsXsXsXsXsXsXsXsXsXsXsXsXsXsXsXsXsXsXsXsXsX",
"sXsXsXsXsXiX+.j <XsXsXsXv.          y =XsXsXsXsXsXsXsXsXsXsXsXsXsXsXsXsXsXsXsXsXsXsXsXsXsXsXsXsXsXsXsXsXsXsXsXsXsXsXsXsXsXsXsXsX",
"sXsXsXsXeXK y 2XsXsXsXJ.@         < @XsXsXsXsXsXsXsXsXsXsXsXsXsXsXsXsXsXsXsXsXsXsXsXsXsXsXsXsXsXsXsXsXsXsXsXsXsXsXsXsXsXsXsXsXsX",
"sXsXsXiXS * }.sXsXsX2X<           l.sXsXsXsXsXsXsXsXsXsXsXsXsXsXsXsXsXsXsXsXsXsXsXsXsXsXsXsXsXsXsXsXsXsXsXsXsXsXsXsXsXsXsXsXsXsX",
"sXsXsX_   9.sXsXsXsX/           g sXsXsXsXsXsXsXsXsXsXsXsXsXsXsXsXsXsXsXsXsXsXsXsXsXsXsXsXsXsXsXsXsXsXsXsXsXsXsXsXsXsXsXsXsXsXsX",
"sXsXl.  y sXsXsXsX@X            3.sXsXsXsXsXsXsXsXsXsXsXsXsXsXsXsX-Xl.-.[ / ~ _ &.7.M. XsXsXsXsXsXsXsXsXsXsXsXsXsXsXsXsXsXsXsXsX",
"sX5X3   t.sXsXsXsX7.            J.sXsXsXsXsXsXsXsXsXsXsXsXsXsX XL                       > K 0.@XsXsXsXsXsXsXsXsXsXsXsXsXsXsXsXsX",
"sX4.    <XsXsXsXsXQ             Q.sXsXsXsXsXsXsXsXsXsXsXsXsXsXy     a +.q.l.v.p.2._ j           m p.qXsXsXsXsXsXsXsXsXsXsXsXsXsX",
"sXa   a sXsXsXsXsXL             U.sXsXsXsXsXsXsXsXsXsXsXsXsX7X  + j.sXsXsXsXsXsXsXsXsX7XN._ -       3 4.qXsXsXsXsXsXsXsXsXsXsXsX",
"=X    G sXsXsXsXsX+.            p.sXsXsXsXsXsXsXsXsXsXsXsXsXsXY K sXsXsXsXsXsXsXsXsXsXsXsXsXqXp.s       8 v.sXsXsXsXsXsXsXsXsXsX",
"L.    K sXsXsXsXsXE.            / sXsXsXsXsXsXsXsXsXsXsXsXsXsX5XE sXsXsXsXsXsXsXsXsXsXsXsXsXsXsXsXl.q       L <XsXsXsXsXsXsXsXsX",
"A.    j sXsXsXsXsXsXY           * qXsXsXsXsXsXsXsXsXsXsXsXsXsXsX5X/.sXsXsXsXsXsXsXsXsXsXsXsXsXsXsXsX7X&.      0 E.sXsXsXsXsXsXsX",
"Q.    + 7XsXsXsXsXsX7Xv           e.sXsXsXsXsXsXsXsXsXsXsXsXsXsXsXsXsXsXsXsXsXsXsXsXsXsXsXsXsXsXsXsXsXsXF.<     * V.sXsXsXsXsXsX",
"eX+     l.sXsXsXsXsXsX7XE         0 eXsXsXsXsXsXsXsXsXsXsXsXsXsXsXsXsX5X8.4.t.L.qXsXsXsXsXsXsXsXsXsXsXsXsX}.0       l.sXsXsXsXsX",
"sXK     v sXsXsXsXsXsXsXsXV.a       -.sXsXsXsXsXsXsXsXsXsXsXsXsXsXsXsXsXj.+     + S s.eXsXsXsXsXsXsXsXsXsXsX@X8     + F.sXsXsXsX",
"sXJ.      g.sXsXsXsXsXsXsXsXsXM.K   @ Q.sXsXsXsXsXsXsXsXsXsXsXsXsXsXsXsXsXE.<         6 t.sXsXsXsXsXsXsXsXsXsX/.*     < @XsXsXsX",
"sXsXK     :  XsXsXsXsXsXsXsXsXsXsX<Xd.-.iXsXsXsXsXsXsXsXsXsXsXsXsXsXsXsXsXsXQ.<           m }.sXsXsXsXsXsXsXsXsXp.      V sXsXsX",
"sXsX=X<     a 2XsXsXsXsXsXsXsXsXsXsXsXsXsXsXsXsXsXsXsXsXsXsXsXsXsXsXsXsXsXsXsX/.:           : A.sXsXsXsXsXsXsXsXsXS       d.sXsX",
"sXsXsXU.@     g -XsXsXsXsXsXsXsXsXsXsXsXsXsXiXsXsXsXsXsXsXsXsXsXsXsXsXsXsXsXsXsXF.            + l.sXsXsXsXsXsXsXsX'.      t iXsX",
"sXsXsXsXA.*     0 E.sXsXsXsXsXsXsXsXsXsXsXsXL.sXsXsXsXsXsXsXsXsXsXsXsXsXsXsXsXsXsX*.            + L.sXsXsXsXsXsXsXsXL       A.sX",
"sXsXsXsXsXE.8     + #.5XsXsXsXsXsXsXsXsXsXsXE.9.sXsXsXsXsXsXsXsXsXsXsXsXsXsXsXsXsXiXa             3 5XsXsXsXsXsXsXsXA.      _ sX",
"sXsXsXsXsXsX-XK       > *. XsXsXsXsXsXsXsXsXV.- 5XsXsXsXsXsXsXsXsXsXsXsXsXsXsXsXsXsXV.              +.sXsXsXsXsXsXsXiX:     y sX",
"sXsXsXsXsXsXsXsXv.0         v -.A. XqXiX=Xt.3   j.sXsXsXsXsXsXsXsXsXsXsXsXsXsXsXsXsXsXg             % 7XsXsXsXsXsXsXsXL       sX",
"sXsXsXsXsXsXsXsXsXiXp.g                         t.sXsXsXsXsXsXsXsXsXsXsXsXsXsXsXsXsXsX4.              F.sXsXsXsXsXsXsX*.      7X",
"sXsXsXsXsXsXsXsXsXsXsXsXU.o.8                 a <XsXsXsXsXsXsXsXsXsXsXsXsXsXsXsXsXsXsXE.              h.sXsXsXsXsXsXsX4.    @ iX",
"sXsXsXsXsXsXsXsXsXsXsXsXsXsXsX}.s.&.Y F D _ p.7XsXsXsXsXsXsXsXsXsXsXsXsXsXsXsXsXsXsXsX4X              v.sXsXsXsXsXsXsX1.    s sX",
"sXsXsXsXsXsXsXsXsXsXsXsXsXsXsXsXsXsXsXsXsXsXsXsXsXsXsXsXsXsXsXsXsXsXsXsXsXsXsXsXsXsXsXeX              }.sXsXsXsXsXsXsX_     +.sX",
"sXsXsXsXsXsXsXsXsXsXsXsXsXsXsXsXsXsXsXsXsXsXsXsXsXsXsXsXsXsXsXsXsXsXsXsXsXsXsXsXsXsXsX=X            0 sXsXsXsXsXsXsXsXr     /.sX",
"sXsXsXsXsXsXsXsXsXsXsXsXsXsXsXsXsXsXsXsXsXsXsXsXsXsXsXsXsXsXsXsXsXsXsXsXsXsXsXsXsXsXsXM.            -.sXsXsXsXsXsXsXQ.    L sXsX",
"sXsXsXsXsXsXsXsXsXsXsXsXsXsXsXsXsXsXsXsXsXsXsXsXsXsXsXsXsXsXsXsXsXsXsXsXsXsXsXsXsXsXsXE           : 2XsXsXsXsXsXsXsXY   : =XsXsX",
"sXsXsXsXsXsXsXsXsXsXsXsXsXsXsXsXsXsXsXsXsXsXsXsXsXsXsXsXsXsXsXsXsXsXsXsXsXsXsXsXsXsX].            4.sXsXsXsXsXsXsXJ.  + F.sXsXsX",
"sXsXsXsXsXsXsXsXsXsXsXsXsXsXsXsXsXsXsXsXsXsXsXsXsXsXsXsXsXsXsXsXsXsXsXsXsXsXsXsXsXiXm           N iXsXsXsXsXsXsX=X3 + v.sXsXsXsX",
"sXsXsXsXsXsXsXsXsXsXsXsXsXsXsXsXsXsXsXsXsXsXsXsXsXsXsXsXsXsXsXsXsXsXsXsXsXsXsXsXsX_           8 -XsXsXsXsXsXsX2Xs 3 U.sXsXsXsXsX",
"sXsXsXsXsXsXsXsXsXsXsXsXsXsXsXsXsXsXsXsXsXsXsXsXsXsXsXsXsXsXsXsXsXsXsXsXsXsXsXeXQ           < ].sXsXsXsXsXsXXXa L -XsXsXsXsXsXsX",
"sXsXsXsXsXsXsXsXsXsXsXsXsXsXsXsXsXsXsXsXsXsXsXsXsXsXsXsXsXsXsXsXsXsXsXsXsXsX'.v           3 '.sXsXsXsXsXsXl.c N.sXsXsXsXsXsXsXsX",
"sXsXsXsXsXsXsXsXsXsXsXsXsXsXsXsXsXsXsXsXsXsXsXsXsXsXsXsXsXsXsXsXsXsXsXsX7X-.+           j =XsXsXsXsXsX@X>.l.sXsXsXsXsXsXsXsXsXsX",
"7.}.sXsXsXsXsXsXsXsXsXsXsXsXsXsXsXsXsXsXsXsXsXsXsXsXsXsXsXsXsXsXsXsX=X1.<             { qXsXsXsXsX7X].Q.sXsXsXsXsXsXsXsXsXsXsXsX",
"    a *.J.7XsXsXsXsXsXsXsXsXsXsXsXsXsXsXsXsXsXsXsXsXsXsXsXsXsX9Xv.K               0 F.sXsXsXsXsXsXsXsXsXsXsXsXsXsXsXsXsXsXsXsXsX",
"*           m #.h.}.iXsXsXsXsXsXsXsXsXsXsXsXsXsXsXsXsXiX/.9.G @               * ,.qXsXsXsXsXsXsXsXsXsXsXsXsXsXsXsXsXsXsXsXsXsXsX",
"2Xq.v               + a K { 1.t.l.A.J.J.J.A.l.0.-.Q v *                   * &.-XsXsXsXsXsXsXsXsXsXsXsXsXsXsXsXsXsXsXsXsXsXsXsXsX",
"sXsXsX@X0.V +                                                         s 7.4XsXsXsXsXsXsXsXsXsXsXsXsXsXsXsXsXsXsXsXsXsXsXsXsXsXsX",
"gXsXsXsXsXsX5XA.#.N *                                         y / t.@XsXsXsXsXsXsXsXsXsXsXsXsXsXsXsXsXsXsXsXsXsXsXsXsXsXsXsXsXgX",
"gXsXsXsXsXsXsXsXsXsXsX}.M.4.{ K m y 3 : @ * : 6 s V Y &.t.L.5XsXsXsXsXsXsXsXsXsXsXsXsXsXsXsXsXsXsXsXsXsXsXsXsXsXsXsXsXsXsXsXsXgX",
"gXsXsXsXsXsXsXsXsXsXsXsXsXsXsXsXsXsXsXsXsXsXsXsXsXsXsXsXsXsXsXsXsXsXsXsXsXsXsXsXsXsXsXsXsXsXsXsXsXsXsXsXsXsXsXsXsXsXsXsXsXsXsXgX",
"gXgXsXsXsXsXsXsXsXsXsXsXsXsXsXsXsXsXsXsXsXsXsXsXsXsXsXsXsXsXsXsXsXsXsXsXsXsXsXsXsXsXsXsXsXsXsXsXsXsXsXsXsXsXsXsXsXsXsXsXsXsXgXgX",
"gXgXgXsXsXsXsXsXsXsXsXsXsXsXsXsXsXsXsXsXsXsXsXsXsXsXsXsXsXsXsXsXsXsXsXsXsXsXsXsXsXsXsXsXsXsXsXsXsXsXsXsXsXsXsXsXsXsXsXsXsXgXgXgX",
"gXgXgXgXsXsXsXsXsXsXsXsXsXsXsXsXsXsXsXsXsXsXsXsXsXsXsXsXsXsXsXsXsXsXsXsXsXsXsXsXsXsXsXsXsXsXsXsXsXsXsXsXsXsXsXsXsXsXsXsXgXgXgXgX",
"gXgXgXgXgXsXsXsXsXsXsXsXsXsXsXsXsXsXsXsXsXsXsXsXsXsXsXsXsXsXsXsXsXsXsXsXsXsXsXsXsXsXsXsXsXsXsXsXsXsXsXsXsXsXsXsXsXsXsXgXgXgXgXgX",
"gXgXgXgXgXgXsXsXsXsXsXsXsXsXsXsXsXsXsXsXsXsXsXsXsXsXsXsXsXsXsXsXsXsXsXsXsXsXsXsXsXsXsXsXsXsXsXsXsXsXsXsXsXsXsXsXsXsXgXgXgXgXgXgX",
"gXgXgXgXgXgXgXgXgXsXsXsXsXsXsXsXsXsXsXsXsXsXsXsXsXsXsXsXsXsXsXsXsXsXsXsXsXsXsXsXsXsXsXsXsXsXsXsXsXsXsXsXsXsXsXgXgXgXgXgXgXgXgXgX"
};
