/* XPM */
static char *image_xpm[] = {
/* width height ncolors chars_per_pixel */
"64 64 410 2",
"   c #008dd1",
" . c #279fd8",
" + c #8bcbea",
" @ c #edf5fa",
" # c #0793d3",
" $ c #a5cae2",
" % c #4aaedf",
" & c #4ab9e1",
" * c #2aa0d9",
" = c #e4eff7",
" - c #84b6d7",
" ; c #4590c3",
" > c #38a6db",
" , c #b5def2",
" ' c #1da6d9",
" ) c #93bfdc",
" ! c #7db2d5",
" ~ c #91d5ed",
" { c #1ea6da",
" ] c #51b1e0",
" ^ c #fbfeff",
" / c #159dd7",
" ( c #72c0e6",
" _ c #6abde5",
" : c #b9d6e9",
" < c #d1edf8",
" [ c #7ec6e8",
" } c #5fc1e5",
" | c #2d82bb",
" 1 c #76cae8",
" 2 c #0c88c9",
" 3 c #2d84bd",
" 4 c #eff8fd",
" 5 c #31a3da",
" 6 c #57bee3",
" 7 c #e1f3fa",
" 8 c #edf8fc",
" 9 c #0989cb",
" 0 c #018cd0",
" a c #f9fcfe",
" b c #078acc",
" c c #2e83bb",
" d c #e6f1f8",
" e c #e8f5fb",
" f c #0a95d4",
" g c #20a8da",
" h c #0692d3",
" i c #23aadb",
" j c #ebf7fc",
" k c #8ecdeb",
" l c #7cccea",
" m c #3989bf",
" n c #1285c5",
" o c #247db8",
" p c #0390d2",
" q c #90bddb",
" r c #a6cae2",
" s c #81b4d6",
" t c #d2e4f1",
" u c #54b7e2",
" v c #8dd3ec",
" w c #a3dcf0",
" x c #237eb9",
" y c #d7eef8",
" z c #e2f4fb",
" A c #ffffff",
" B c #94c0dd",
" C c #018dd1",
" D c #c7deed",
" E c #22a7da",
" F c #9ec5e0",
" G c #41aadd",
" H c #1396d5",
" I c #0a92d3",
" J c #ccecf7",
" K c #66a4cd",
" L c #24aadb",
" M c #028cd0",
" N c #22a9db",
" O c #30afdd",
" P c #0991d3",
" Q c #038ccf",
" R c #b3ddf2",
" S c #85c9ea",
" T c #f0f9fd",
" U c #bdd8ea",
" V c #59bfe4",
" W c #93cfec",
" X c #60c2e5",
" Y c #45acde",
" Z c #2fa2da",
" ` c #73c9e8",
".  c #a0c7e0",
".. c #267eb9",
".+ c #e7f6fb",
".@ c #38b2de",
".# c #52bae3",
".$ c #159fd7",
".% c #2791cb",
".& c #e0f3fa",
".* c #e8f6fc",
".= c #17a1d8",
".- c #018ed2",
".; c #3888be",
".> c #d4ecf8",
"., c #0791d3",
".' c #1189c9",
".) c #0d8ecf",
".! c #0e92d3",
".~ c #2ca1d9",
".{ c #feffff",
".] c #2980ba",
".^ c #599cc9",
"./ c #5fa0cb",
".( c #8dbbda",
"._ c #8ed3ec",
".: c #429ccf",
".< c #c1e4f4",
".[ c #93d5ee",
".} c #56b4e1",
".| c #e8f2f8",
".1 c #7ab0d4",
".2 c #3cb0de",
".3 c #76bbdf",
".4 c #0591d3",
".5 c #8ebcdb",
".6 c #6dacd4",
".7 c #ddf0f9",
".8 c #1f83c0",
".9 c #d7e8f4",
".0 c #8cbbda",
".a c #80ceea",
".b c #50b1e0",
".c c #2281bd",
".d c #b2d9ee",
".e c #0e99d5",
".f c #028dd1",
".g c #36a5db",
".h c #f3fbfd",
".i c #4eb0df",
".j c #e9f6fc",
".k c #72c8e8",
".l c #d8f0f9",
".m c #3ca8dc",
".n c #f5fbfe",
".o c #f9fbfd",
".p c #dae9f3",
".q c #1b81bf",
".r c #a8def1",
".s c #3f99cd",
".t c #edf4f9",
".u c #bed9ea",
".v c #26abdb",
".w c #32a4db",
".x c #3aa6da",
".y c #50bbe2",
".z c #3da8dc",
".A c #e0edf5",
".B c #dff3fa",
".C c #3794ca",
".D c #fdffff",
".E c #6ea8d0",
".F c #80cbea",
".G c #2485c0",
".H c #d4ebf8",
".I c #55b4e1",
".J c #c9dfee",
".K c #d4e5f1",
".L c #d5edf8",
".M c #1295d5",
".N c #eef9fd",
".O c #ebf3f9",
".P c #2083bf",
".Q c #328ec5",
".R c #c5ddec",
".S c #f8fcfe",
".T c #dbf1f9",
".U c #bce1f3",
".V c #fefeff",
".W c #eff6fa",
".X c #75bbe0",
".Y c #61b9e3",
".Z c #69c5e6",
".` c #dcf2fa",
"+  c #6ec7e7",
"+. c #edf7fc",
"++ c #bde6f4",
"+@ c #44b7e0",
"+# c #0490d2",
"+$ c #a8ddf1",
"+% c #1fa7da",
"+& c #1998d6",
"+* c #eaf6fc",
"+= c #207fbb",
"+- c #29a0d9",
"+; c #49aedf",
"+> c #c3dbec",
"+, c #9bd8ef",
"+' c #46b7e0",
"+) c #3c90c5",
"+! c #1490cf",
"+~ c #1c81be",
"+{ c #f9fdfe",
"+] c #7ac4e7",
"+^ c #3294cc",
"+/ c #2daedc",
"+( c #119cd6",
"+_ c #2c83bc",
"+: c #028ed2",
"+< c #448fc2",
"+[ c #0a89ca",
"+} c #4bafdf",
"+| c #2d83bc",
"+1 c #6ac5e6",
"+2 c #19a2d8",
"+3 c #4e96c6",
"+4 c #139dd7",
"+5 c #c9e7f6",
"+6 c #038dd1",
"+7 c #94d6ed",
"+8 c #cae8f6",
"+9 c #ebf8fc",
"+0 c #1ba4d9",
"+a c #ecf4f9",
"+b c #e0f2fa",
"+c c #a7d8f0",
"+d c #1898d6",
"+e c #2f83bc",
"+f c #66c4e6",
"+g c #237db9",
"+h c #2a97d1",
"+i c #67c4e6",
"+j c #3bafde",
"+k c #37b2de",
"+l c #269ed8",
"+m c #7cc5e8",
"+n c #fcfdfe",
"+o c #58bee3",
"+p c #6ab8e0",
"+q c #47b8e1",
"+r c #96c9e5",
"+s c #7ecdea",
"+t c #77aed3",
"+u c #4f97c6",
"+v c #f3f8fc",
"+w c #0f86c7",
"+x c #068cd0",
"+y c #058fd2",
"+z c #d6e7f2",
"+A c #028fd2",
"+B c #138ac9",
"+C c #119bd6",
"+D c #79c3e7",
"+E c #afdff2",
"+F c #fafdff",
"+G c #63a2cd",
"+H c #287fba",
"+I c #75aed4",
"+J c #fdfeff",
"+K c #0d87c8",
"+L c #6aafd7",
"+M c #62a2cc",
"+N c #d2ecf8",
"+O c #e7f1f8",
"+P c #129cd6",
"+Q c #277fb9",
"+R c #c7e6f5",
"+S c #c1e7f5",
"+T c #86c9ea",
"+U c #e6f0f7",
"+V c #88d1ec",
"+W c #1698d6",
"+X c #97c2de",
"+Y c #20a6da",
"+Z c #3cb3df",
"+` c #48b8e1",
"@  c #109ad6",
"@. c #b6d3e7",
"@+ c #c8eaf6",
"@@ c #4a94c5",
"@# c #1aa1d8",
"@$ c #51bbe2",
"@% c #7acce9",
"@& c #2c81ba",
"@* c #c5e9f6",
"@= c #95d6ee",
"@- c #0d98d5",
"@; c #0891d3",
"@> c #84c8e9",
"@, c #257db8",
"@' c #32a3da",
"@) c #18a1d8",
"@! c #dcf0f9",
"@~ c #2c8cc4",
"@{ c #d1ebf7",
"@] c #29acdc",
"@^ c #388bc1",
"@/ c #87d1eb",
"@( c #aee0f2",
"@_ c #5ab0dc",
"@: c #058bcd",
"@< c #dcebf4",
"@[ c #a2c8e1",
"@} c #c7e8f6",
"@| c #d4eff8",
"@1 c #a2dbf0",
"@2 c #a7cbe3",
"@3 c #9edaef",
"@4 c #b5e2f3",
"@5 c #34b0dd",
"@6 c #32b0dd",
"@7 c #3290c7",
"@8 c #1596d5",
"@9 c #328ac2",
"@0 c #1c9bd7",
"@a c #7acbe9",
"@b c #44b6e0",
"@c c #5ab5e2",
"@d c #d7f0f9",
"@e c #22a9da",
"@f c #62a1cc",
"@g c #7bb1d4",
"@h c #5bb6e2",
"@i c #21a9da",
"@j c #129ad6",
"@k c #4f96c6",
"@l c #2da1d9",
"@m c #3592c8",
"@n c #1ea6d9",
"@o c #ceeaf7",
"@p c #b5d3e7",
"@q c #038ed2",
"@r c #8bd2ec",
"@s c #f4fbfe",
"@t c #139dd6",
"@u c #eff9fd",
"@v c #28acdb",
"@w c #0c98d5",
"@x c #f7fcfe",
"@y c #69a6cf",
"@z c #dbeff9",
"@A c #5c9eca",
"@B c #5cb6e2",
"@C c #a2d6ef",
"@D c #60c1e5",
"@E c #7acae9",
"@F c #1e93cf",
"@G c #149ed7",
"@H c #3184bc",
"@I c #fcfeff",
"@J c #3e8cc0",
"@K c #0f87c8",
"@L c #0491d3",
"@M c #9dc5df",
"@N c #428ec2",
"@O c #238ec9",
"@P c #2b81ba",
"@Q c #257db9",
"@R c #2ba6da",
"@S c #87caea",
"@T c #208fcc",
"@U c #3a8bc0",
"@V c #f8fbfd",
"@W c #82cfeb",
"@X c #f2f7fb",
"@Y c #0d93d4",
"@Z c #418ec1",
"@` c #ccebf7",
"#  c #44acde",
"#. c #277fba",
"#+ c #1385c4",
"#@ c #228ec9",
"## c #0790d3",
"#$ c #62c2e5",
"#% c #3590c6",
"#& c #2686c1",
"#* c #eaf7fc",
"#= c #9ac3df",
"#- c #2c86bf",
"#; c #f3f8fb",
"#> c #42abdd",
"#, c #3c8bc0",
"#' c #60b8e3",
"#) c #f2fafd",
"#! c #d2ebf7",
"#~ c #289fd9",
"#{ c #20a1d9",
"#] c #5097c6",
"#^ c #bee2f4",
"#/ c #6eadd4",
"#( c #58b5e1",
"#_ c #a5d7ef",
"#: c #058bce",
"#< c #179fd7",
"#[ c #398cc2",
"#} c #048bce",
"#| c #1584c3",
"#1 c #80c7e9",
"#2 c #0b97d4",
"#3 c #24a2d9",
"#4 c #267fb9",
"#5 c #f6fbfe",
"#6 c #3bb3df",
"#7 c #4b9bcc",
"#8 c #2b88c2",
"#9 c #6cc6e7",
"#0 c #088acc",
"#a c #9bc4df",
"#b c #e6f4fb",
"#c c #038fd2",
" A A A A A A A A A A A A A A A A A A A A A A A A A A A A A A A A A A A A A A A A A A A A A A A A A A A A A A A A A A A A A A A A",
" A A A A A A A A A A A A A A A A A A A A A A A A A A A A A A A A A A A A A A A A A A A A A A A A A A A A A A A A A A A A A A A A",
" A A A A A A A A A A A A A A A A A A A A A A A A A A A A A A A A A A A A A A A A A A A A A A A A A A A A A A A A A A A A A A A A",
" A A A A A A A A A A A A A A A A A A A A A A A A A A A A A A A A A A A A A A A A A A A A A A A A A A A A A A A A A A A A A A A A",
" A A A A A A A A A A A A A A A A A A A A A A A A A A A A A A A A A A A A A A A A A A A A A A A A A A A A A A A A A A A A A A A A",
" A A A A A A A A A A A A A A A A A A A A A A A A A.D+N+E.[ 1 X@$+'+@+q.y }.k._@(@|+F A A A A A A A A A A A A A A A A A A A A A A",
" A A A A A A A A A A A A A A A A A A A A A A@z S u+j N@e@e@e@e@e@e@e@e@e@e@e@e@e@e@]+o@=@d A A A A A A A A A A A A A A A A A A A",
" A A A A A A A A A A A A A A A A A A A.j +.~@0+Y@e@e@e@e@e@e@e@e@e@e@e@e@e@e@e@e@e@e@e@e@e@b+7#* A A A A A A A A A A A A A A A A",
" A A A A A A A A A A A A A A A A A.9.X.!.-#{@i@e@e@e@e@e@e@e@e@e@e@e@e@e@e@e@e@e@e@e@e@e@e@e@e.v `.l A A A A A A A A A A A A A A",
" A A A A A A A A A A A A A A A+U#/+h  +:@#@e@e@e@e@e@e@e@e@e@e@e@e O+`+o#$+i+f X V &+k i@e@e@e@e@e i#9.& A A A A A A A A A A A A",
" A A A A A A A A A A A A A+n+X+)+x    #<@e@e@e@e@e@e@e@e@6+ @1 J T A A A A A A A A A A+{.B+++,.k+' i@e@v v+{ A A A A A A A A A A",
" A A A A A A A A A A A A@<+u#% C    @j@e@e@e@e@e@e@v `@*@I A A A A A A A A A A A A A A A A A A A A#)+S@r@$+q < A A A A A A A A A",
" A A A A A A A A A A A :+e@7      .,+%@e@e@e@e.v@W.* A A A A A A A A A A A A A A A A A A A A A A A A A A A T@4 z A A A A A A A A",
" A A A A A A A A A A#a@Q.Q        +C@e@e@e@e@$.` A A A A A A A A A A A A A A A A A A A A A A A A A A A A A A A A A A A A A A A A",
" A A A A A A A A A )@,@9 0      .-@n@e@e@e@%+F A A A A A A A A A A A A A A A A A A A A A A A A A A A A A A A A A A A A A A A A A",
" A A A A A A A A@[@,+|#}         f@e@e@e@/ A A A A A A A A A A A A A A A A A A A A A A A A A A A A A A A A A A A A A A A A A A A",
" A A A A A A A D+Q@,+B          @ @e@e.Z A A A A A A A A A A A A A A A A A A A A A A A A A A A A A A A A A A A A A A A A A A A A",
" A A A A A A.W m@,#8            .$@e@5.N A A A A A A A A A A A A A A A A A A A A A A A A A A A A A A A A A A A A A A A A A A A A",
" A A A A A A+t@,@,#0            @)@e+, A A A A A A A A A A A A A A A+O@p#= q B r+>+a A A A A A A A A A A A A A A A A A A A A A A",
" A A A A A+z..@,#&              +2.v#) A A A A A A A A A A A A A.K./..@,@,@,@,@,@,@,@N+I+r.S A A A A A A A A A A A A A A A A A A",
" A A A A A.E@,@, 2              .= 6 A A A A A A A A A A A A A.J@P@,@,@,@,@,@,@,@,@,@,@,@,.P@_@o A A A A A A A A A A A A A A A A",
" A A A A+a.]@,#. 0              @G l A A A A A A A A A A A A A@@@,@,@,@,@,@,@,@,@,@,@,@,@,@,+g+K#>#^ A A A A A A A A A A A A A A",
" A A A A $@,@,.8                .e+V A A A A A A A A A A A A a@,@,@,@,@,@,@,@,@,@,@,@,@,@,@,@, o+K   %@z A A A A A A A A A A A A",
" A A A A@y@,@,#+                 #.a A A A A A A A A A A A A A.;@,@,@,@,@,@,@,@,@,@,@,@,@,@,@,@, x@:   P k.{ A A A A A A A A A A",
" A A A A@J@,@,+K                  .# A A A A A A A A A A A A A.(@,@,@,@,@,@,@,@,@,@,@,@,@,@,@,@,@,.q       ]@s A A A A A A A A A",
" A A A a..@,@,+[                   /+{ A A A A A A A A A A A A.o+3@,@,@,@,@,@,@,@,@,@,@,@,@,@,@,@,@,#0      .w j A A A A A A A A",
" A A A.O@,@,@, 9                  +#+$ A A A A A A A A A A A A A.t+3@,@,@,@,@,@,@,@,@,@,@,@,@,@,@,@,#|        @R.h A A A A A A A",
" A A A.O@,@,@,+[                    #3+J A A A A A A A A A A A A A@V !..@,@,@,@,@,@,@,@,@,@,@,@,@,@,+=        +A@D A A A A A A A",
" A A A.o..@,@,+K                    #c.F A A A A A A A A A A A A A A A t.^@,@,@,@,@,@,@,@,@,@,@,@,@,@, Q        +P@3 A A A A A A",
" A A A A#,@,@,#+                      +W@} A A A A A A A A A A A A A A A A.u ;@,@,@,@,@,@,@,@,@,@,@,@, 9        .4+/.+ A A A A A",
" A A A A@y@,@,.G                        +- 7 A A A A A A A A A A A A A A A A a.0+Q@,@,@,@,@,@,@,@,@,@, 2          +0+s A A A A A",
" A A A A@2@,@,#4 M                         .@! A A A A A A A A A A A A A A A A A.J.;@,@,@,@,@,@,@,@,@,+K          @t@] T A A A A",
" A A A A.W@&@,@,@K                          @8#^ A A A A A A A A A A A A A A A A A =+<@,@,@,@,@,@,@,@, 2          #2@e.r A A A A",
" A A A A A@g@,@,#-                            @q+D@x A A A A A A A A A A A A A A A A.|@Z@,@,@,@,@,@,@, 9           h@e.Z A A A A",
" A A A A A+U |@,@,.'                              +l R A A A A A A A A A A A A A A A A.p c@,@,@,@,@,@,#:          +A@e#6 A A A A",
" A A A A A A@M@,@, 3 M                                .z+8 A A A A A A A A A A A A A A A r@,@,@,@,@, x            .-@e i ^ A A A",
" A A A A A A.V+M@,@,@~                                  .- _.n A A A A A A A A A A A A A.V@k@,@,@,@,+~            .-@e@e+9 A A A",
" A A A A A A A#;@k@,@,#@                                    @' e A A A A A A A A A A A A A@.@,@,@,@, n             p@e@e 8 A A A",
" A A A A A A A A @#]@,..@T                                     5.n A A A A A A A A A A A A a@H@,@,@, b             #@e i+{ A A A",
" A A A A A A A A A+v K@,...%                                    +m A A A A A A A A A A A A A+G@,@,.c              @-@e+Z A A A A",
" A A A A A A A A A A.V F@&@,@m C                                +& A A A A A A A A A A A A A -@,@,+w              @G@e+1 A A A A",
" A A A A A A A A A A A A.A@f@,#[.)                              .-+F A A A A A A A A A A A A.5@,+_ 0               '@e w A A A A",
" A A A A A A A A A A A A A A.R@A+H.C M                           Z A A A A A A A A A A A A A s@,@O               #@e.v 8 A A A A",
" A A A A A A A A A A A A A A A A.K.1@U+^ M                    @;.< A A A A A A A A A A A A A@A@^ C              +4@e+  A A A A A",
" A A A A A A A A A A A A A A A A A A a U.6.:+!               G@o A A A A A A A A A A A A A#; |@F              +A g i@d A A A A A",
" A A A A A A A A A A A A A A A A A A A A A A d.d W [+]@>#_+b A A A A A A A A A A A A A A A. .s                +(@e@a A A A A A A",
" A A A A A A A A A A A A A A A A A A A A A A A A A A A A A A A A A A A A A A A A A A A A@X#7                 p g.@@u A A A A A A",
" A A A A A A A A A A A A A A A A A A A A A A A A A A A A A A A A A A A A A A A A A A A A+L.f                .= L@+ A A A A A A A",
" A A A A A A A A A A A A A A A A A A A A A A A A A A A A A A A A A A A A A A A A A A A.3+6                @w@e w A A A A A A A A",
" A A A A A A A A A A A A A A A A A A A A A A A A A A A A A A A A A A A A A A A A A a+p                   h g ~ A A A A A A A A A",
" A A A A A A A A A A A A A A A A A A A A A A A A A A A A A A A A A A A A A A A A.H.x                   p {+, A A A A A A A A A A",
" A A A A A A A A.7+c+* A A A A A A A A A A A A A A A A A A A A A A A A A A A e (##                  +A E@4 A A A A A A A A A A A",
" A A A A A A A A A+5 *.g+] , 4 A A A A A A A A A A A A A A A A A A A A ^.U#' P                    +A.2.T A A A A A A A A A A A A",
" A A A A A A A A A A@x+m##  +:.~@c@S , y#5 A A A A A A A A A A+.+R W.} H                        @L@E+F A A A A A A A A A A A A A",
" A A A A A A A A A A A A@!#(.-          .-+d.~.m+}.b.i %.m *.M                              +:.I@` A A A A A A A A A A A A A A A",
" A A A A A A A A A A A A A A@{@B+y                                                      ###'.> A A A A A A A A A A A A A A A A A",
" A A A A A A A A A A A A A A A A#b@>#~                                              @l + e A A A A A A A A A A A A A A A A A A A",
" A A A A A A A A A A A A A A A A A A A#!+T#  I                              @Y % k@z A A A A A A A A A A A A A A A A A A A A A A",
" A A A A A A A A A A A A A A A A A A A A A A ^@{@C+m@h Y.g *#~ * >+;.Y#1+c.L.D A A A A A A A A A A A A A A A A A A A A A A A A A",
" A A A A A A A A A A A A A A A A A A A A A A A A A A A A A A A A A A A A A A A A A A A A A A A A A A A A A A A A A A A A A A A A",
" A A A A A A A A A A A A A A A A A A A A A A A A A A A A A A A A A A A A A A A A A A A A A A A A A A A A A A A A A A A A A A A A",
" A A A A A A A A A A A A A A A A A A A A A A A A A A A A A A A A A A A A A A A A A A A A A A A A A A A A A A A A A A A A A A A A",
" A A A A A A A A A A A A A A A A A A A A A A A A A A A A A A A A A A A A A A A A A A A A A A A A A A A A A A A A A A A A A A A A",
" A A A A A A A A A A A A A A A A A A A A A A A A A A A A A A A A A A A A A A A A A A A A A A A A A A A A A A A A A A A A A A A A",
};