/* XPM */
static char *e38e8dbceb964d6a8d63a8858202761c[] = {
/* columns rows colors chars-per-pixel */
"32 32 172 2 ",
"   c #008CC8",
".  c #018DC9",
"X  c #028DC9",
"o  c #038DC9",
"O  c #048EC9",
"+  c #058EC9",
"@  c #068FCA",
"#  c #078FCA",
"$  c #0890CA",
"%  c #0990CA",
"&  c #0B91CB",
"*  c #0F93CC",
"=  c #1093CC",
"-  c #1294CC",
";  c #1395CC",
":  c #1495CD",
">  c #1596CD",
",  c #1696CD",
"<  c #1796CD",
"1  c #1897CD",
"2  c #1997CE",
"3  c #1A98CE",
"4  c #1B98CE",
"5  c #219BCF",
"6  c #259DD0",
"7  c #269DD1",
"8  c #279ED1",
"9  c #299FD1",
"0  c #2A9FD1",
"q  c #2BA0D2",
"w  c #2DA0D2",
"e  c #2EA1D2",
"r  c #2FA1D2",
"t  c #30A2D3",
"y  c #31A2D3",
"u  c #34A4D4",
"i  c #36A4D4",
"p  c #38A5D4",
"a  c #40A9D6",
"s  c #41A9D6",
"d  c #42AAD7",
"f  c #43AAD7",
"g  c #45ABD7",
"h  c #48ADD8",
"j  c #4AAED8",
"k  c #4BAED9",
"l  c #4CAED9",
"z  c #4DAFD9",
"x  c #50B0DA",
"c  c #51B1DA",
"v  c #54B2DA",
"b  c #55B3DB",
"n  c #57B3DB",
"m  c #58B4DB",
"M  c #5AB5DC",
"N  c #5BB5DC",
"B  c #5DB6DC",
"V  c #5FB7DD",
"C  c #60B8DD",
"Z  c #62B8DD",
"A  c #62B8DE",
"S  c #64B9DE",
"D  c #65BADE",
"F  c #66BADE",
"G  c #6ABCDF",
"H  c #6DBDE0",
"J  c #6EBEE0",
"K  c #70BFE1",
"L  c #73C0E1",
"P  c #74C1E1",
"I  c #76C1E2",
"U  c #78C2E2",
"Y  c #79C3E2",
"T  c #7AC3E3",
"R  c #7BC4E3",
"E  c #7CC4E3",
"W  c #7FC6E4",
"Q  c #80C6E4",
"!  c #84C8E5",
"~  c #85C8E5",
"^  c #86C9E5",
"/  c #87C9E6",
"(  c #89CAE6",
")  c #8BCBE6",
"_  c #8CCBE7",
"`  c #8DCCE7",
"'  c #8ECCE7",
"]  c #90CDE7",
"[  c #93CFE8",
"{  c #94CFE8",
"}  c #95D0E9",
"|  c #97D0E9",
" . c #9BD2EA",
".. c #9CD3EA",
"X. c #9DD3EA",
"o. c #9ED4EA",
"O. c #A1D5EB",
"+. c #A2D5EB",
"@. c #A3D6EC",
"#. c #A6D7EC",
"$. c #A7D8EC",
"%. c #A8D8ED",
"&. c #A9D9ED",
"*. c #AAD9ED",
"=. c #ABD9ED",
"-. c #ACDAEE",
";. c #ADDAEE",
":. c #AFDBEE",
">. c #B0DCEE",
",. c #B1DCEF",
"<. c #B2DDEF",
"1. c #B3DDEF",
"2. c #B4DEEF",
"3. c #B7DFF0",
"4. c #B8DFF0",
"5. c #BAE0F1",
"6. c #BDE2F1",
"7. c #BEE2F1",
"8. c #BFE3F2",
"9. c #C0E3F2",
"0. c #C1E3F2",
"q. c #C2E4F2",
"w. c #C4E5F3",
"e. c #C5E5F3",
"r. c #C6E6F3",
"t. c #C7E6F3",
"y. c #C8E7F4",
"u. c #C9E7F4",
"i. c #CBE8F4",
"p. c #CCE8F4",
"a. c #CDE9F5",
"s. c #CEE9F5",
"d. c #CFEAF5",
"f. c #D1EBF6",
"g. c #D3ECF6",
"h. c #D4ECF6",
"j. c #D6EDF7",
"k. c #D7EDF7",
"l. c #D8EEF7",
"z. c #D9EEF7",
"x. c #DBEFF8",
"c. c #DCF0F8",
"v. c #DDF0F8",
"b. c #DEF1F8",
"n. c #DFF1F9",
"m. c #E0F1F9",
"M. c #E1F2F9",
"N. c #E3F3F9",
"B. c #E6F4FA",
"V. c #E7F5FA",
"C. c #E8F5FB",
"Z. c #E9F6FB",
"A. c #EBF6FB",
"S. c #ECF7FB",
"D. c #EDF7FC",
"F. c #EEF8FC",
"G. c #F0F9FC",
"H. c #F2FAFD",
"J. c #F3FAFD",
"K. c #F4FBFD",
"L. c #F5FBFD",
"P. c #F6FBFE",
"I. c #F7FCFE",
"U. c #F9FDFE",
"Y. c #FAFDFE",
"T. c #FBFEFF",
"R. c #FCFEFF",
"E. c #FDFFFF",
"W. c #FEFEFE",
"Q. c #FEFFFF",
"!. c gray100",
"~. c None",
/* pixels */
"~.~.~.~.!.!.!.!.!.!.!.!.!.!.!.!.!.!.!.!.!.!.!.!.!.!.!.!.~.~.~.~.",
"~.~.!.!.!.!.!.!.!.!.!.!.!.!.!.!.!.!.!.!.!.!.!.!.!.!.!.!.!.!.~.~.",
"~.!.!.!.!.!.!.!.!.!.!.!.!.!.!.!.!.!.!.!.!.!.!.!.!.!.!.!.!.!.!.~.",
"~.!.!.!.!.!.!.!.!.!.!.!.!.!.L.d.1.X.' ( / _  .:.w.Z.!.!.!.!.!.~.",
"!.!.!.!.!.!.!.!.!.!.K.#.S 6 o o $ t j S J T P G C h p s G +.B.!.",
"!.!.!.!.!.!.G.Y.G.T *   * M  .l.!.!.!.!.!.!.!.!.!.!.!.!.n.1.T D ",
"!.!.!.!.k.q.J.2.2   , { J.!.!.!.!.!.!.!.!.!.!.!.!.!.!.!.!.!.!.!.",
"!.!.!.[ 7.!.} o   g D.!.!.!.!.!.!.!.!.!.!.!.!.!.!.!.!.!.!.!.!.!.",
"!.!.C 2.!.:.o   e I.!.!.!.!.!.!.!.!.!.!.!.!.!.!.!.!.!.!.!.!.!.!.",
"!.W G !.I.2     =.!.!.!.!.!.!.!.Y.y.:.=.7.N.!.!.!.!.!.!.!.!.!.!.",
"n.@ v.!.4.o     N.!.!.!.!.!.!.7.- 4 j z u & , N 1.Y.!.!.!.!.!.!.",
"~ 2 !.!.1.      k.!.!.!.!.!.!.[ W !.!.!.!.Y.0.D @ 8 :.!.!.!.!.!.",
"V 2 !.!.J.,     { !.!.!.!.!.!.Y.w.!.!.!.!.!.!.!.B.N o v F.!.!.!.",
"P o N.!.!.y., o q Y.!.!.!.!.!.!.!.Y.0.k.Y.!.!.!.!.!.o.@ e Z.!.!.",
"w.o J !.!.!.D.T , [ !.!.!.!.!.!.!.!. .o - K B.!.!.!.!.=.o p I.!.",
"!.v @ 2.!.!.!.!.Y.u.!.!.!.!.!.!.!.!.!.=.o o * =.!.!.!.!.P   T !.",
"!.J.u % :.!.!.!.!.!.!.D.!.!.!.!.!.!.!.!./ o   o o.!.!.!.J.- % G.",
"!.!.F.c o n p.!.!.!.!.! Y.!.!.!.!.!.!.!.Y.u     @ k.!.!.!.J o +.",
"!.!.!.!.:.e o 8 V T V @ g.!.!.!.!.!.!.!.!.=.      J !.!.!.:.  W ",
"!.!.!.!.!.!.u.T s 8 9 J Y.!.!.!.!.!.!.!.!.Z.      v !.!.!.7.  _ ",
"!.!.!.!.!.!.!.!.!.!.!.!.!.!.!.!.!.!.!.!.!.J.    o W !.!.!. .o p.",
"!.!.!.!.!.!.!.!.!.!.!.!.!.!.!.!.!.!.!.!.!.6.    o x.!.!.!.s x !.",
"!.!.!.!.!.!.!.!.!.!.!.!.!.!.!.!.!.!.!.!.Y.p o   L !.!.!.#.e D.!.",
"!.!.!.!.!.!.!.!.!.!.!.!.!.!.!.!.!.!.!.!.G o o d Y.!.!.1.N F.!.!.",
"!.!.!.!.!.!.!.!.!.!.!.!.!.!.!.!.!.!.l.s     j J.!.K.1.7.!.!.!.!.",
"m #.Z.!.!.!.!.!.!.!.!.!.!.!.!.Y.7.n     $ / !.!.Y.B.!.!.!.!.!.!.",
"S * o q M ~ =.w.g.x.k.d.:.( v ,     @ M b.!.!.!.!.!.!.!.!.!.!.!.",
"!.K.1.G e @                   % s ~ n.!.!.!.!.!.!.!.!.!.!.!.!.!.",
"~.!.!.!.!.K.p.1.{ _ ( _ X.1.k.!.!.!.!.!.!.!.!.!.!.!.!.!.!.!.!.~.",
"~.!.!.!.!.!.!.!.!.!.!.!.!.!.!.!.!.!.!.!.!.!.!.!.!.!.!.!.!.!.!.~.",
"~.~.!.!.!.!.!.!.!.!.!.!.!.!.!.!.!.!.!.!.!.!.!.!.!.!.!.!.!.!.~.~.",
"~.~.~.~.!.!.!.!.!.!.!.!.!.!.!.!.!.!.!.!.!.!.!.!.!.!.!.!.~.~.~.~."
};
