/* XPM */
static char *image_xpm[] = {
/* width height ncolors chars_per_pixel */
"32 32 258 2",
"   c #008dd1",
" . c #008ed2",
" + c #279fd8",
" @ c #0793d3",
" # c #4aaedf",
" $ c #d5e7f2",
" % c #d8edf7",
" & c #68a5ce",
" * c #4590c3",
" = c #38a6db",
" - c #4792c4",
" ; c #b4e0f3",
" > c #d0eaf7",
" , c #fbfeff",
" ' c #6abde5",
" ) c #d1edf8",
" ! c #038bcf",
" ~ c #078fd1",
" { c #aedbf1",
" ] c #2d82bb",
" ^ c #cdebf7",
" / c #1195d4",
" ( c #f9fcfe",
" _ c #1186c6",
" : c #0a95d4",
" < c #20a8da",
" [ c #c1e0f0",
" } c #2a80ba",
" | c #348ac1",
" 1 c #23aadb",
" 2 c #ebf7fc",
" 3 c #5eb7e2",
" 4 c #28a4da",
" 5 c #2c82bb",
" 6 c #66c2e6",
" 7 c #67bbe4",
" 8 c #247db8",
" 9 c #1b8bc9",
" 0 c #4490c3",
" a c #4bb9e1",
" b c #21a9db",
" c c #ffffff",
" d c #018dd1",
" e c #33a4db",
" f c #0a92d3",
" g c #ccecf7",
" h c #24aadb",
" i c #30afdd",
" j c #3285bc",
" k c #0991d3",
" l c #038ccf",
" m c #0c97d5",
" n c #bdd8ea",
" o c #f0f9fd",
" p c #59bfe4",
" q c #35a8dc",
" r c #158ecd",
" s c #247db9",
" t c #0c92d3",
" u c #267eb9",
" v c #abdaf0",
" w c #bae4f4",
" x c #579ecb",
" y c #4a9bcc",
" z c #bde5f4",
" A c #2aaddc",
" B c #99d8ee",
" C c #018ed2",
" D c #70c8e7",
" E c #0894d4",
" F c #d4ecf8",
" G c #259ed8",
" H c #0791d3",
" I c #6dc7e7",
" J c #0690d2",
" K c #6fbfe5",
" L c #feffff",
" M c #368ac0",
" N c #088cce",
" O c #56b4e1",
" P c #1982c0",
" Q c #0591d3",
" R c #52bce3",
" S c #2a81bb",
" T c #eef8fc",
" U c #88ceeb",
" V c #358fc6",
" W c #92d5ed",
" X c #f3fafd",
" Y c #0e99d5",
" Z c #36a5db",
" ` c #41b5e0",
".  c #e9f6fc",
".. c #d8f0f9",
".+ c #72c8e8",
".@ c #c0daeb",
".# c #0995d4",
".$ c #50b5e1",
".% c #dae9f3",
".& c #30a3da",
".* c #d5e6f2",
".= c #b7d4e8",
".- c #fdffff",
".; c #068acd",
".> c #35b1de",
"., c #cdecf7",
".' c #4196c9",
".) c #adcee5",
".! c #2d93cc",
".~ c #3eb1df",
".{ c #d4e5f1",
".] c #d5edf8",
".^ c #b7e3f3",
"./ c #1295d5",
".( c #eef9fd",
"._ c #9ec6e1",
".: c #f8fcfe",
".< c #85b6d8",
".[ c #2ba0d9",
".} c #fefeff",
".| c #1da5d9",
".1 c #6ec7e7",
".2 c #3486bd",
".3 c #bde6f4",
".4 c #43b7e0",
".5 c #1a91cf",
".6 c #1395d4",
".7 c #47a6d8",
".8 c #eaf6fc",
".9 c #227eba",
".0 c #207fbb",
".a c #49aedf",
".b c #3b91c6",
".c c #1c81be",
".d c #f9fdfe",
".e c #2baddc",
".f c #81bbdd",
".g c #46acde",
".h c #3f8dc1",
".i c #448fc2",
".j c #028ed2",
".k c #27abdb",
".l c #109bd6",
".m c #2b82bc",
".n c #19a2d8",
".o c #b6ddf1",
".p c #ebf8fc",
".q c #0f93d3",
".r c #ecf4f9",
".s c #1898d6",
".t c #9cd3ee",
".u c #7cc5e8",
".v c #b0d0e6",
".w c #37b1de",
".x c #6bbde5",
".y c #4c95c5",
".z c #77aed3",
".A c #1ea7da",
".B c #85cceb",
".C c #0f86c7",
".D c #96d0ec",
".E c #2f97cf",
".F c #31afdd",
".G c #95d0ec",
".H c #0490d3",
".I c #ceecf7",
".J c #76aed3",
".K c #569ac8",
".L c #fdfeff",
".M c #f6fafc",
".N c #cde9f6",
".O c #40b3df",
".P c #c7e6f5",
".Q c #86c9ea",
".R c #d9f0fa",
".S c #d1eef8",
".T c #0b92d3",
".U c #6dbde4",
".V c #c7e9f6",
".W c #fafcfe",
".X c #1185c5",
".Y c #3d9acf",
".Z c #51bbe2",
".` c #80b4d6",
"+  c #8bbbdb",
"+. c #62b9e3",
"++ c #257db8",
"+@ c #e4f0f7",
"+# c #16a0d7",
"+$ c #8ec1e0",
"+% c #1c9fd8",
"+& c #0b91d2",
"+* c #048dd1",
"+= c #9edaef",
"+- c #deecf5",
"+; c #1693d2",
"+> c #a9d9f0",
"+, c #23a9da",
"+' c #a4c9e2",
"+) c #22a9da",
"+! c #3fb5df",
"+~ c #7bb1d4",
"+{ c #4f96c6",
"+] c #3594ca",
"+^ c #b5d3e7",
"+/ c #038ed2",
"+( c #70b6dc",
"+_ c #ecf8fc",
"+: c #8bd2ec",
"+< c #2caddc",
"+[ c #6faad1",
"+} c #139dd6",
"+| c #28acdb",
"+1 c #0c98d5",
"+2 c #43b6e0",
"+3 c #60c1e5",
"+4 c #3184bc",
"+5 c #247eb9",
"+6 c #22a0d8",
"+7 c #569bc8",
"+8 c #8cd1ec",
"+9 c #3a8fc4",
"+0 c #3495cc",
"+a c #3796cc",
"+b c #108aca",
"+c c #8fcdeb",
"+d c #c6dded",
"+e c #1597d5",
"+f c #b7e0f3",
"+g c #0f94d4",
"+h c #42b6e0",
"+i c #82cfeb",
"+j c #c2e4f4",
"+k c #44acde",
"+l c #b4def2",
"+m c #65c3e6",
"+n c #0c94d4",
"+o c #62c2e5",
"+p c #7dcdea",
"+q c #74acd2",
"+r c #fbfdfe",
"+s c #c2e1f2",
"+t c #5dc0e4",
"+u c #f2fafd",
"+v c #bfd9eb",
"+w c #cfeaf7",
"+x c #b3d2e7",
"+y c #277eb9",
"+z c #bee2f4",
"+A c #58b5e1",
"+B c #53b2e0",
"+C c #3fb3df",
"+D c #3893c9",
"+E c #048bce",
"+F c #80c7e9",
"+G c #24a2d9",
"+H c #267fb9",
"+I c #f6fbfe",
" c c c c c c c c c c.d+f U+m.4.F.k A.> a I+=.. c c c c c c c c c",
" c c c c c c c c % 7 q+,+)+)+)+)+)+)+)+)+)+)+)+2 B+u c c c c c c",
" c c c c c c+@+(+& 4+)+)+)+)+) 1.w.Z+t+o p a.>+)+)+< W.: c c c c",
" c c c c c._.Y  +6+)+)+).e.+.^+_ c c c c c c c+u.I+=.1 R g c c c",
" c c c (+[+0   f <+) h+i.( c c c c c c c c c c c c c c L )+u c c",
" c c+r &+D    +%+) i.V c c c c c c c c c c c c c c c c c c c c c",
" c c.` M d    .n.k., c c c c c c c c c c c c c c c c c c c c c c",
" c.@++ r      .A+: c c c c c c c c c.W.M c c c c c c c c c c c c",
".L * |         b.p c c c c c c c.).y u+++4+7+  [ c c c c c c c c",
" n++ 9        +C c c c c c c c.=+++++++++++++++H.! v.- c c c c c",
".J++.;        .~ c c c c c c c.<++++++++++++++++++.C =.] c c c c",
" 0 u          +G c c c c c c c+v+++++++++++++++++++5 ! k v c c c",
" 5.m          +n.R c c c c c c c.`++++++++++++++++++.X   C.B c c",
" 5 S            .$ c c c c c c c c+' j++++++++++++++.c     :.S c",
".i++ l           H ; c c c c c c c c.r.z u++++++++++.9      .O L",
"+q+++b            +e+w c c c c c c c c c n j++++++++ 8      +} z",
" n++ V              +g+l c c c c c c c c c.*.2++++++ s       m D",
" c+{+y N               C+..  c c c c c c c c+d u++++.0       E+!",
" c.{ }+9                  +g.G L c c c c c c c+~++++ P       @.k",
" c c.v u+]                    .x c c c c c c c+-++++ _      .#+|",
" c c c+x ]+a                    +l c c c c c c c.h+++E       Y `",
" c c c c.%.K.'+*                 K c c c c c c c+7.b        +#.+",
" c c c c c.}+^ x.E              +> c c c c c c c -.5       C < w",
" c c c c c c c c $.f.7.q  .j.[.t c c c c c c c.r y        +1+h.L",
" c c c c c c c c c c c c X.d c c c c c c c c c+$ ~       ..|.3 c",
" c c c c c c c c c c c c c c c c c c c c c c+s+;        .l+p c c",
" c c c c c c c c c c c c c c c c c c c c c.o.6         @+3 , c c",
" c c o.N.- c c c c c c c c c c c c c c.8.U+/        .H 6.d c c c",
" c c c+j =+A.D.P X c c c c c c c 2 { 3.T           Q+8 c c c c c",
" c c c c+I+F t   C.s e+k #.g Z.s               C+B ^ c c c c c c",
" c c c c c c T.Q G                         / ' F c c c c c c c c",
" c c c c c c c c c >+c O.&./ J+/./ +.a.u+z.d c c c c c c c c c c",
};