/* XPM */
static char *image_xpm[] = {
/* width height ncolors chars_per_pixel */
"16 16 129 2",
"   c #008dd1",
" . c #edf5fa",
" + c #2984be",
" @ c #91d5ed",
" # c #72c0e6",
" $ c #0a88ca",
" % c #eff8fd",
" & c #35a9dc",
" * c #2096d2",
" = c #66b4de",
" - c #018cd0",
" ; c #d1e4f0",
" > c #1186c6",
" , c #23aadb",
" ' c #2c82bb",
" ) c #67bbe4",
" ! c #37a6db",
" ~ c #ffffff",
" { c #99cde9",
" ] c #018dd1",
" ^ c #1396d5",
" / c #30afdd",
" ( c #4ca2d2",
" _ c #f0f9fd",
" : c #f5f9fc",
" < c #2faedd",
" [ c #68b5de",
" } c #8acbeb",
" | c #9cd9ef",
" 1 c #267eb9",
" 2 c #19a1d8",
" 3 c #2aa8db",
" 4 c #99d8ee",
" 5 c #36a6db",
" 6 c #8dcceb",
" 7 c #018ed2",
" 8 c #7fc6e8",
" 9 c #6dc7e7",
" 0 c #0690d2",
" a c #d7e7f2",
" b c #feffff",
" c c #ecf7fc",
" d c #8ed3ec",
" e c #048fd2",
" f c #52bce3",
" g c #9bd3ed",
" h c #ddf0f9",
" i c #7bcae9",
" j c #f3fafd",
" k c #3ba8dc",
" l c #2da3da",
" m c #3d8cc1",
" n c #0b88c9",
" o c #edf4f9",
" p c #d5e6f2",
" q c #287fb9",
" r c #e1f3fb",
" s c #37aadd",
" t c #7bc4e8",
" u c #f1fafd",
" v c #23a4da",
" w c #eff6fa",
" x c #1b9dd7",
" y c #2ea4da",
" z c #0e93d4",
" A c #31a7db",
" B c #edf7fc",
" C c #eaf6fc",
" D c #aadef1",
" E c #058cd0",
" F c #88d2ec",
" G c #5298c7",
" H c #f9fdfe",
" I c #1796d4",
" J c #4e96c6",
" K c #7fcaea",
" L c #1898d6",
" M c #d0ebf7",
" N c #32addc",
" O c #37b2de",
" P c #a1d5ee",
" Q c #2ea2da",
" R c #46acdd",
" S c #b0e1f2",
" T c #058fd2",
" U c #fafdff",
" V c #0b93d4",
" W c #93d5ed",
" X c #c8e7f6",
" Y c #86c9ea",
" Z c #fafcfe",
" ` c #89b9d9",
".  c #1185c5",
".. c #7acce9",
".+ c #5098c8",
".@ c #257db8",
".# c #69a9d2",
".$ c #a2dbf0",
".% c #3c8cc1",
".& c #1693d2",
".* c #52bbe3",
".= c #d7f0f9",
".- c #22a9da",
".; c #4aa1d2",
".> c #e1f4fa",
"., c #ceeaf7",
".' c #a9d5ed",
".) c #1a99d6",
".! c #f4fbfe",
".~ c #4f9bcb",
".{ c #8cbada",
".] c #f4f9fc",
".^ c #c2e6f5",
"./ c #e9f3f9",
".( c #f2fafd",
"._ c #5ca1ce",
".: c #92bedc",
".< c #bddaec",
".[ c #cfeaf7",
".} c #5097c6",
".| c #41acde",
".1 c #58b5e1",
".2 c #d8e8f3",
".3 c #34a4db",
".4 c #80c7e9",
".5 c #3788be",
".6 c #3e8ec2",
".7 c #3b99ce",
".8 c #2392ce",
" ~ ~ ~ ~ M K.* < , / f d.> ~ ~ ~",
" ~ ~./ = s.- O...$ S D W 9 @.( ~",
" ~ a ( L , 4 U ~ ~ ~ ~ ~ ~ ~ _ ~",
" w.~   A | ~ ~ ~ ~ ~ ~ ~ ~ ~ ~ ~",
" `.8   & H ~ ~ ..} 1.5._.' ~ ~ ~",
".% -   y ~ ~ ~ ;.@.@.@.@ + R C ~",
" '     0.^ ~ ~ ~.: q.@.@.@ n l.!",
" m E     5 j ~ ~ ~.2 J.@.@.    i",
".{.7       Q.[ ~ ~ ~ : G.@ >   3",
".].+.&       e Y ~ ~ ~ p.@ $   2",
" ~ o.# *         X ~ ~ ~.6 ]   N",
" ~ ~ ~.< [ I 7 ! c ~ ~ Z.;   V F",
" ~ ~ ~ ~ ~ ~ b ~ ~ ~ ~ { 7   v u",
" ~ B b ~ ~ ~ ~ ~ ~ U } T   x.= ~",
" ~ % t.1 8 g P 6 ).)    .| r ~ ~",
" ~ ~ ~ h.4 k ^ e z.3 #., ~ ~ ~ ~",
};