/* XPM */
static char *_ebeb9698775487bbded7d55b8253eb8[] = {
/* columns rows colors chars-per-pixel */
"16 16 96 2 ",
"   c #008CC8",
".  c #068FCA",
"X  c #1194CC",
"o  c #1897CD",
"O  c #1C99CE",
"+  c #229BD0",
"@  c #259DD0",
"#  c #2A9FD1",
"$  c #32A3D3",
"%  c #3CA7D5",
"&  c #3DA8D5",
"*  c #41A9D6",
"=  c #42AAD7",
"-  c #43AAD7",
";  c #4EAFD9",
":  c #53B2DA",
">  c #58B4DB",
",  c #5BB5DC",
"<  c #5DB6DC",
"1  c #5EB7DD",
"2  c #60B8DD",
"3  c #64B9DE",
"4  c #66BADE",
"5  c #67BBDF",
"6  c #69BCDF",
"7  c #6ABCDF",
"8  c #6BBCDF",
"9  c #6EBEE0",
"0  c #6FBEE0",
"q  c #7DC5E3",
"w  c #80C6E4",
"e  c #85C8E5",
"r  c #89CAE6",
"t  c #8BCBE6",
"y  c #8CCBE7",
"u  c #8DCCE7",
"i  c #8FCDE7",
"p  c #92CEE8",
"a  c #93CFE8",
"s  c #96D0E9",
"d  c #97D0E9",
"f  c #9BD2EA",
"g  c #9FD4EB",
"h  c #A0D4EB",
"j  c #A1D5EB",
"k  c #A3D6EC",
"l  c #A6D7EC",
"z  c #A8D8ED",
"x  c #AAD9ED",
"c  c #ACDAEE",
"v  c #ADDAEE",
"b  c #AFDBEE",
"n  c #B0DCEE",
"m  c #B4DEEF",
"M  c #B6DEF0",
"N  c #B7DFF0",
"B  c #BBE1F1",
"V  c #C2E4F2",
"C  c #C4E5F3",
"Z  c #C5E5F3",
"A  c #C6E6F3",
"S  c #CAE8F4",
"D  c #D0EAF5",
"F  c #D1EBF6",
"G  c #D3ECF6",
"H  c #D4ECF6",
"J  c #D7EDF7",
"K  c #D8EEF7",
"L  c #D9EEF7",
"P  c #DAEFF7",
"I  c #DBEFF8",
"U  c #DCF0F8",
"Y  c #E1F2F9",
"T  c #E3F3F9",
"R  c #E4F3FA",
"E  c #E5F4FA",
"W  c #E8F5FB",
"Q  c #E9F6FB",
"!  c #EAF6FB",
"~  c #EBF6FB",
"^  c #EDF7FC",
"/  c #EEF8FC",
"(  c #F0F9FC",
")  c #F2FAFD",
"_  c #F3FAFD",
"`  c #F4FBFD",
"'  c #F6FBFE",
"]  c #F7FCFE",
"[  c #F8FCFE",
"{  c #FAFDFE",
"}  c #FBFEFF",
"|  c #FDFFFF",
" . c #FEFEFE",
".. c #FEFFFF",
"X. c gray100",
"o. c None",
/* pixels */
"o. . . . . . . . . . . . . . .o.",
" . . . . . . ._ G Z C F W  . . .",
" . . .} U 9 % 2 u c N B c k c b ",
" .E J p o k }  . . . . . . . . .",
"E h b   m  . . ._ K W  . . . . .",
"2 ] ,   W  . .J 6 z u 5 q /  . .",
"% } m . b  . . ./ E  . .G - Z  .",
"e y  .K s  . . . .a + c  .W # U ",
"} 5 w _  .I  . . . .9   h  .f 5 ",
" . .B 1 : & '  . . .R   $  .K - ",
" . . . . . . . . . .^   ,  .N r ",
" . . . . . . . . . .6 X I / r  .",
"B }  . . . . . .V - @ F ' P  . .",
"s : - , 6 9 ; O $ i ]  . . . . .",
" . . .U S Z G ]  . . . . . . . .",
"o. . . . . . . . . . . . . . .o."
};
