/* XPM */
static char *testnet_bitcoin16[] = {
/* columns rows colors chars-per-pixel */
"16 16 152 2 ",
"   c #5EB038",
".  c #5EB138",
"X  c #5FB639",
"o  c #60B53A",
"O  c #61B63A",
"+  c #61B83A",
"@  c #63BB3B",
"#  c #64BC3C",
"$  c #64BD3C",
"%  c #65BD3D",
"&  c #67CE38",
"*  c #6ED43F",
"=  c #67BC40",
"-  c #6BBE46",
";  c #6AC540",
":  c #6BC640",
">  c #6DC445",
",  c #6CCC41",
"<  c #6DCD41",
"1  c #6DCF40",
"2  c #6ECF41",
"3  c #70C549",
"4  c #75C84F",
"5  c #6ED041",
"6  c #6FD041",
"7  c #6ED340",
"8  c #6FD242",
"9  c #70D143",
"0  c #70D243",
"q  c #71D741",
"w  c #70D442",
"e  c #70D542",
"r  c #71D542",
"t  c #71D543",
"y  c #70D642",
"u  c #72D743",
"i  c #70D244",
"p  c #71D544",
"a  c #72D644",
"s  c #72D744",
"d  c #73D744",
"f  c #73D745",
"g  c #71D841",
"h  c #71D842",
"j  c #72D843",
"k  c #72D844",
"l  c #73D844",
"z  c #72D845",
"x  c #73D845",
"c  c #73D946",
"v  c #74D845",
"b  c #74D945",
"n  c #74D946",
"m  c #75D947",
"M  c #75DA46",
"N  c #76D34B",
"B  c #76D948",
"V  c #76D849",
"C  c #77D949",
"Z  c #76DA48",
"A  c #77D84A",
"S  c #77D94A",
"D  c #77D94B",
"F  c #78D84B",
"G  c #78D94B",
"H  c #78DA4A",
"J  c #78D94D",
"K  c #78DA4C",
"L  c #79DA4C",
"P  c #7ADB4C",
"I  c #7ADB4D",
"U  c #7BDB4F",
"Y  c #76C153",
"T  c #77C155",
"R  c #78C654",
"E  c #7AC756",
"W  c #78CA53",
"Q  c #7BCA57",
"!  c #7BDA50",
"~  c #7CDB50",
"^  c #7CDB51",
"/  c #7DDA52",
"(  c #7DDC52",
")  c #7EDC53",
"_  c #7FDC54",
"`  c #80DB56",
"'  c #81DC57",
"]  c #82D55B",
"[  c #82D45D",
"{  c #82D85A",
"}  c #83DB5B",
"|  c #82DD58",
" . c #84DE5A",
".. c #85DE5B",
"X. c #84DC5C",
"o. c #85DD5D",
"O. c #88DE5F",
"+. c #8CCF6D",
"@. c #86D463",
"#. c #88D762",
"$. c #88DB62",
"%. c #88DE62",
"&. c #8AD966",
"*. c #8CDA68",
"=. c #8EDE68",
"-. c #8EDC6A",
";. c #8ECF70",
":. c #91D373",
">. c #91D074",
",. c #95D677",
"<. c #97DC77",
"1. c #99D77C",
"2. c #9BD87F",
"3. c #93E26E",
"4. c #9DE17D",
"5. c #9BD282",
"6. c #AEDC98",
"7. c #B0D49F",
"8. c #B5D8A4",
"9. c #B8DBA8",
"0. c #BADFA9",
"q. c #BBDDAC",
"w. c #BEE5AC",
"e. c #BFE0B0",
"r. c #C5DFB9",
"t. c #C6E2B8",
"y. c #C6E3B9",
"u. c #CAE1BF",
"i. c #CADFC1",
"p. c #DFDFDF",
"a. c #D0E1C7",
"s. c #D1E2C9",
"d. c #D2E1CC",
"f. c #D6E3CF",
"g. c #D5E5CD",
"h. c #D7E5D0",
"j. c #DAE2D6",
"k. c #D9E8D3",
"l. c #DBE8D5",
"z. c #DDE2DB",
"x. c #DFE3DE",
"c. c #E0EADB",
"v. c #E2E8DF",
"b. c #E2EADE",
"n. c #E2E2E2",
"m. c #E2E4E1",
"M. c #E4E4E4",
"N. c #E7E7E7",
"B. c #E9EAE9",
"V. c gray92",
"C. c #EEEEEE",
"Z. c None",
/* pixels */
"Z.Z.Z.Z.Z.Z.Z.E R Z.Z.Z.Z.Z.Z.Z.",
"Z.Z.Z.Z.Z.Q } _ ^ / 4 Z.Z.Z.Z.Z.",
"Z.Z.Z.T o.) n * r S P ! - Z.Z.Z.",
"Z.Z.Y ' m 7 & +.5.[ F z B = Z.Z.",
"Z.Z.' G q ;.7.a.f.8.A v c u Z.Z.",
"Z.W ( H I ] d.C.l.j.2.a k x ; Z.",
"Z.` U _ O.{ u.c.3.y.p.#.j c a Z.",
"3 K b ~ X.&.m.v.e.g.s.-.L k a $ ",
"> C l V N :.N.w.0.B.t.%.) M w # ",
"Z.f d y >.z.V.4.*.k.n.=.( S 6 Z.",
"Z.: x h @.r.b.h.x.M.9...Z i % Z.",
"Z.Z.s v g 1.q.i.6.<. .P e 1 Z.Z.",
"Z.Z.+ t s J $.,.| D c t 2 . Z.Z.",
"Z.Z.Z.O 9 p Z Z B a 0 <   Z.Z.Z.",
"Z.Z.Z.Z.Z.@ 5 8 9 , + Z.Z.Z.Z.Z.",
"Z.Z.Z.Z.Z.Z.Z.X o Z.Z.Z.Z.Z.Z.Z."
};
