/* XPM */
static char *tortoisecoin__[] = {
/* columns rows colors chars-per-pixel */
"32 32 102 2",
"   c #CC7D1D",
".  c #D5831F",
"X  c #D48221",
"o  c #D98621",
"O  c #DC8820",
"+  c #DC8D2C",
"@  c #D98F36",
"#  c #D68F39",
"$  c #DD943E",
"%  c #E28B23",
"&  c #E98F24",
"*  c #E18F2D",
"=  c #ED9124",
"-  c #EC942A",
";  c #F59624",
":  c #F89724",
">  c #F79827",
",  c #F89825",
"<  c #F0962B",
"1  c #F59A2D",
"2  c #F99B2B",
"3  c #EC9732",
"4  c #EC9A37",
"5  c #E2963B",
"6  c #E6983A",
"7  c #EC9C3B",
"8  c #F69D33",
"9  c #F99E32",
"0  c #F49E3A",
"q  c #F9A036",
"w  c #F6A13C",
"e  c #F9A33B",
"r  c #D79341",
"t  c #DC9641",
"y  c #E39A43",
"u  c #EA9D42",
"i  c #EFA041",
"p  c #EDA34B",
"a  c #F5A443",
"s  c #F9A643",
"d  c #FAA846",
"f  c #F2A64C",
"g  c #F9AA4B",
"h  c #E5A251",
"j  c #ECA756",
"k  c #EBA758",
"l  c #FAAF57",
"z  c #FBB057",
"x  c #FBB25B",
"c  c #DFB179",
"v  c #E4AA65",
"b  c #EBAE64",
"n  c #E9AF69",
"m  c #FBB665",
"M  c #F1B46A",
"N  c #F8B96D",
"B  c #E5B071",
"V  c #EBB777",
"C  c #EEB877",
"Z  c #E7B478",
"A  c #EBB97D",
"S  c #F0B671",
"D  c #F2B871",
"F  c #EFBC80",
"G  c #E6BD8D",
"H  c #EDBF88",
"J  c #E6BF90",
"K  c #F1C187",
"L  c #F1C288",
"P  c #E5C093",
"I  c #EEC493",
"U  c #E1C19B",
"Y  c #E9C69C",
"T  c #ECC89D",
"R  c #F1C897",
"E  c #DFC5A4",
"W  c #DBCBB8",
"Q  c #E2C7A7",
"!  c #EBCBA6",
"~  c #E6CBAB",
"^  c #E9D2B7",
"/  c #E5D1B9",
"(  c #EBD6BD",
")  c #EFD9BE",
"_  c #DDD0C2",
"`  c #DCD7D2",
"'  c #DEDEDE",
"]  c #ECDAC5",
"[  c #EDDECB",
"{  c #E9E0D5",
"}  c #E7E0D9",
"|  c #E9E2DB",
" . c #EFE8DF",
".. c #E5E5E5",
"X. c #EBE7E2",
"o. c #EFEAE6",
"O. c #ECECEC",
"+. c #F2ECE6",
"@. c #F1F0EE",
"#. c #F4F4F4",
"$. c #FBFBFB",
"%. c None",
/* pixels */
"%.%.%.%.%.%.%.%.%.%.%.%.%.%.%.%.%.%.%.%.%.%.%.%.%.%.%.%.%.%.%.%.",
"%.%.%.%.%.%.%.%.%.%.%.%.%.%.t 5 5 $ %.%.%.%.%.%.%.%.%.%.%.%.%.%.",
"%.%.%.%.%.%.%.%.%.%.%.r u w q 9 9 9 8 4 # %.%.%.%.%.%.%.%.%.%.%.",
"%.%.%.%.%.%.%.%.%.y s e 9 2 , , , : > 2 9 q 5 %.%.%.%.%.%.%.%.%.",
"%.%.%.%.%.%.%.%.s q 2 , , , , : , > 2 2 > > 2 9 %.%.%.%.%.%.%.%.",
"%.%.%.%.%.%.t e 1 , , , , : : ; > 2 9 9 2 , , > 2 + %.%.%.%.%.%.",
"%.%.%.%.%.$ e 2 , , , , , , ; u u 8 1 1 2 > , , > > + %.%.%.%.%.",
"%.%.%.%.%.e 2 , , : > ; ; > < ` ` 0 c n 1 2 , , , > , %.%.%.%.%.",
"%.%.%.%.e 1 , , , , ; h v - 3 ..! w ' _ 9 2 > , , , > : %.%.%.%.",
"%.%.%.6 q , : , > 2 > W ..| [ #.H V ..D 9 9 2 , , , , , % %.%.%.",
"%.%.%.e 2 , > 2 2 2 9 b ! #.$.$.#.#.#.Y i 1 2 > , , , > ; %.%.%.",
"%.%.@ q > 2 2 2 9 q e q 0 o.$.+.) { #.#.| b 2 2 , , , , : X %.%.",
"%.%.4 9 2 2 9 q e e s w b O.#.( m x I @.$...f > > , , , : & %.%.",
"%.%.8 > 2 2 9 e s d g a P #.#.L x l a [ $.#.A 2 2 , : , , ; %.%.",
"%.+ 1 , , 2 2 q e d g f / $.#.T n k Z o.$.O.M 9 2 > , , , ; X %.",
"%.* 2 , , , 2 9 q e s f X.$.#.O.O.O.#.$.+.Y g e 9 2 , , , ; o %.",
"%.* 2 , , , 2 2 q e w n O.$.[ R ( O.$.$.[ d s e 9 2 2 , , ; o %.",
"%.+ 2 , , , > 2 8 8 1 G #.#.T m m N ] #.#.~ s e e 9 2 > : ; X %.",
"%.%.> , , , , 2 < v B [ $.O.m z z s b #.$...g e e q 9 2 ; = %.%.",
"%.%.= : , , , : 7 ' O.#.$.@.C j p u ~ #.$.} g q 9 9 2 2 ; % %.%.",
"%.%.o , , , , : 0 G ^  .$.#.O.X.{ X.#.$.#.Y e 9 2 2 > , ;   %.%.",
"%.%.%., : , , , 2 2 2 M O.) ] #.#.#.#.O./ d 9 2 > , , ; = %.%.%.",
"%.%.%.& ; , , , , 2 ; Q ..g F O.K A H S s 9 2 > , : , ; o %.%.%.",
"%.%.%.%.; ; , , , , 2 E _ d ' ..d q q 9 2 > , : , , ; = %.%.%.%.",
"%.%.%.%.%.; : , , , 2 q d g U J e 2 2 > , , , , , ; = %.%.%.%.%.",
"%.%.%.%.%.o ; : , , , 2 9 q 9 q 9 > , : , , , , ; = . %.%.%.%.%.",
"%.%.%.%.%.%.. ; ; , , > 2 2 2 > , , , , , , , ; =   %.%.%.%.%.%.",
"%.%.%.%.%.%.%.%.= ; : > 2 2 , , : , , , , ; ; & %.%.%.%.%.%.%.%.",
"%.%.%.%.%.%.%.%.%.. = ; > : , , , , ; ; = = X %.%.%.%.%.%.%.%.%.",
"%.%.%.%.%.%.%.%.%.%.%.  % = ; ; ; ; & O   %.%.%.%.%.%.%.%.%.%.%.",
"%.%.%.%.%.%.%.%.%.%.%.%.%.%.  X X   %.%.%.%.%.%.%.%.%.%.%.%.%.%.",
"%.%.%.%.%.%.%.%.%.%.%.%.%.%.%.%.%.%.%.%.%.%.%.%.%.%.%.%.%.%.%.%."
};
