/* XPM */
static char *widecoin__[] = {
/* columns rows colors chars-per-pixel */
"64 64 172 2",
"   c #8F6319",
".  c #8F6A1A",
"X  c #90651A",
"o  c #916C1A",
"O  c #AF7C1E",
"+  c #B1781E",
"@  c #9A7026",
"#  c #AC801F",
"$  c #B1811F",
"%  c #A9812B",
"&  c #B08320",
"*  c #BB8621",
"=  c #BD8E22",
"-  c #A58132",
";  c #FC8400",
":  c #FD8A03",
">  c #FD8E0C",
",  c #FF910E",
"<  c #F98F14",
"1  c #F79117",
"2  c #FD9314",
"3  c #FC951B",
"4  c #FE9A1D",
"5  c #CA8E22",
"6  c #CC8E2A",
"7  c #D48D23",
"8  c #C39223",
"9  c #CE9925",
"0  c #D19C25",
"q  c #D19329",
"w  c #D5992B",
"e  c #DD9D33",
"r  c #D69F3C",
"t  c #E29425",
"y  c #E79925",
"u  c #EA9926",
"i  c #E69A2C",
"p  c #F79625",
"a  c #F99524",
"s  c #F79825",
"d  c #F89825",
"f  c #F3962A",
"g  c #F69B2C",
"h  c #F89B2B",
"j  c #E19F30",
"k  c #EE9B34",
"l  c #F49D33",
"z  c #F99E32",
"x  c #F39F3B",
"c  c #DFA731",
"v  c #D7A43D",
"b  c #DCA63C",
"n  c #EEA328",
"m  c #FFA225",
"M  c #FFAB26",
"N  c #F3A529",
"B  c #FEA429",
"V  c #F4AB2A",
"C  c #FFAC2A",
"Z  c #FFB325",
"A  c #FFB42C",
"S  c #FFBB2D",
"D  c #E3A335",
"F  c #E5A438",
"G  c #EDA03D",
"H  c #F7A037",
"J  c #FAA135",
"K  c #F3AB31",
"L  c #FEAB31",
"P  c #F4A13C",
"I  c #F9A33B",
"U  c #FDB432",
"Y  c #FFBF37",
"T  c #FFC12F",
"R  c #FFC230",
"E  c #FFC03E",
"W  c #DFAF41",
"Q  c #ECA34D",
"!  c #EDA84E",
"~  c #F2A343",
"^  c #FAA642",
"/  c #FAA846",
"(  c #F1A74C",
")  c #F6A94F",
"_  c #FAAA4A",
"`  c #E7A451",
"'  c #ECA754",
"]  c #EFAA56",
"[  c #ECAC5B",
"{  c #F3AA52",
"}  c #FCAE52",
"|  c #FBB056",
" . c #FBB25C",
".. c #E7AB61",
"X. c #ECB067",
"o. c #E7B36D",
"O. c #EBB36C",
"+. c #F2B163",
"@. c #FCB460",
"#. c #F0B56B",
"$. c #E3B274",
"%. c #EDB672",
"&. c #EDB877",
"*. c #E2B57C",
"=. c #ECB97B",
"-. c #E4BA83",
";. c #EBBD83",
":. c #E7BF8D",
">. c #EBBD88",
",. c #E9C08C",
"<. c #E7C496",
"1. c #EBC393",
"2. c #EBC997",
"3. c #E7C49A",
"4. c #E9C69A",
"5. c #E3CA9D",
"6. c #E9C89E",
"7. c #DCC9AE",
"8. c #DDCBB2",
"9. c #E3C7A2",
"0. c #E5CAA3",
"q. c #E9CBA3",
"w. c #E5CEAB",
"e. c #E8CEAA",
"r. c #E4D4AC",
"t. c #EBD2AF",
"y. c #E7CFB2",
"u. c #E1D4B4",
"i. c #E8D5B6",
"p. c #E5D7BB",
"a. c #E9D6BB",
"s. c #E5D8B9",
"d. c #EAD8BE",
"f. c #F0D6B4",
"g. c #DFDFC6",
"h. c #E3D6C1",
"j. c #E9D7C0",
"k. c #E6DAC5",
"l. c #EBDCC7",
"z. c #E5DCCA",
"x. c #EADEC9",
"c. c #E8DFD0",
"v. c #D7E2D9",
"b. c #E3E0C9",
"n. c #EEE2CB",
"m. c #E6E1D4",
"M. c #E9E2D3",
"N. c #E4E4DC",
"B. c #E9E5DE",
"V. c #F4EDDE",
"C. c #DFE8E6",
"Z. c #DEEEE8",
"A. c #DFF2F3",
"S. c #DDFFFF",
"D. c #E1E6E0",
"F. c #E8E6E2",
"G. c #E8E9E5",
"H. c #E5EFEC",
"J. c #E8E9EA",
"K. c #EAF3EE",
"L. c #F3F3EB",
"P. c #E7EDF2",
"I. c #E8EEF3",
"U. c #E7F4F7",
"Y. c #E9F0F7",
"T. c #EBF5FD",
"R. c #E4FEFF",
"E. c #ECFCFF",
"W. c #F4F5F4",
"Q. c #F4FFFF",
"!. c #FEFFFF",
"~. c None",
/* pixels */
"~.~.~.~.~.~.~.~.~.~.~.~.~.~.~.~.~.~.~.~.~.~.~.~.~.~.~.~.~.~.~.~.~.~.~.~.~.~.~.~.~.~.~.~.~.~.~.~.~.~.~.~.~.~.~.~.~.~.~.~.~.~.~.~.",
"~.~.~.~.~.~.~.~.~.~.~.~.~.~.~.~.~.~.~.~.~.~.~.~.~.~.~.~.~.~.~.~.~.~.~.~.~.~.~.~.~.~.~.~.~.~.~.~.~.~.~.~.~.~.~.~.~.~.~.~.~.~.~.~.",
"~.~.~.~.~.~.~.~.~.~.~.~.~.~.~.~.~.~.~.~.~.~.~.~.~.~.~.~.~.~.~.~.~.~.~.~.~.~.~.~.~.~.~.~.~.~.~.~.~.~.~.~.~.~.~.~.~.~.~.~.~.~.~.~.",
"~.~.~.~.~.~.~.~.~.~.~.~.~.~.~.~.~.~.~.~.~.~.~.~.~.~.~.~.~.~.~.~.~.~.~.~.~.~.~.~.~.~.~.~.~.~.~.~.~.~.~.~.~.~.~.~.~.~.~.~.~.~.~.~.",
"~.~.~.~.~.~.~.~.~.~.~.~.~.~.~.~.~.~.~.~.~.~.~.~.~.F L h C C A A A A C C h L e ~.~.~.~.~.~.~.~.~.~.~.~.~.~.~.~.~.~.~.~.~.~.~.~.~.",
"~.~.~.~.~.~.~.~.~.~.~.~.~.~.~.~.~.~.~.~.~.~.D N C m d d a a p a a p a a d m m C N j ~.~.~.~.~.~.~.~.~.~.~.~.~.~.~.~.~.~.~.~.~.~.",
"~.~.~.~.~.~.~.~.~.~.~.~.~.~.~.~.~.~.~.- K M m a p s d d d d d d d d d d d d s p d m M V % ~.~.~.~.~.~.~.~.~.~.~.~.~.~.~.~.~.~.~.",
"~.~.~.~.~.~.~.~.~.~.~.~.~.~.~.~.~.~.Y M d a d d d d d d d d d d d d d d d d h h d s a d M U ~.~.~.~.~.~.~.~.~.~.~.~.~.~.~.~.~.~.",
"~.~.~.~.~.~.~.~.~.~.~.~.~.~.~.~.E m 4 a d d d d d d d d d d d d d d d d d d h h h d d d a d M U ~.~.~.~.~.~.~.~.~.~.~.~.~.~.~.~.",
"~.~.~.~.~.~.~.~.~.~.~.~.~.~.~.C 4 a d d d d d d d d d d d d d d d d d h h h h h h d d d d d a m C ~.~.~.~.~.~.~.~.~.~.~.~.~.~.~.",
"~.~.~.~.~.~.~.~.~.~.~.~.~.W S a p d d d d d d d d d d d d d d d d h h h h g g h h h d d d d d p a S c ~.~.~.~.~.~.~.~.~.~.~.~.~.",
"~.~.~.~.~.~.~.~.~.~.~.~.v M a s d d d d d d d d d d d d d d d h h h h h g z z g h h d d d d d d s a C w ~.~.~.~.~.~.~.~.~.~.~.~.",
"~.~.~.~.~.~.~.~.~.~.~.r Z a d d d d d d d d d d d d d d d g 4 : 2 h z z z z z h h h h d d d d d d d a S q ~.~.~.~.~.~.~.~.~.~.~.",
"~.~.~.~.~.~.~.~.~.~.b Z a d d d d d d d d d d d d d d h h 4 x $.l a z H h h H z h h h d d d d d d d d a A w ~.~.~.~.~.~.~.~.~.~.",
"~.~.~.~.~.~.~.~.~.~.T a s d d d d d d d d d d d d h h h g : $.R.T.7.a B x f > a H h h d d d d d d d d s a R ~.~.~.~.~.~.~.~.~.~.",
"~.~.~.~.~.~.~.~.~.U a s d d d d d d d d d d d d h h h h z : e.!.!.p.2 3 8.D.5.' a h h h d d d d d d d d p d A ~.~.~.~.~.~.~.~.~.",
"~.~.~.~.~.~.~.~.U M p d d d d d d d d d d h h 1 : : 2 h h p B.!.Q.%., l J.!.R.-.> z h h h d d d d d d d d p C N ~.~.~.~.~.~.~.~.",
"~.~.~.~.~.~.~.~.S a d d d d d d d d d d h d 3 7.r.O.G p ; k E.!.T.( , [ E.!.T.~ 4 z h h h d d d d d d d d d a S ~.~.~.~.~.~.~.~.",
"~.~.~.~.~.~.~.V d s d d d d d d d d h h h 2 l E.!.Q.T.m.:.q.!.!.l.: : -.Q.!.c.a z z z g h h d d d d d d d d s m A ~.~.~.~.~.~.~.",
"~.~.~.~.~.~.@ S a d d d d d d d h h h h z : *.R.!.!.!.!.Q.!.!.!.V.,.Q d.!.Q.1.2 I z z h h h d d d d d d d d d a S X ~.~.~.~.~.~.",
"~.~.~.~.~.~.U d s d d d d d h h h h h g z a [ 5.M.Q.!.!.!.!.!.!.!.Q.E.!.!.Q.&.; 3 J H z h h h d d d d d d d d s h C ~.~.~.~.~.~.",
"~.~.~.~.~.~.S a d d d d h h h h h h z z z I d > < %.W.!.!.!.!.!.!.!.!.!.!.!.W.s.[ > 4 H g h h d d d d d d d d d a S ~.~.~.~.~.~.",
"~.~.~.~.~.i M p d d d h h h h g z z z z J H I I J > x.!.!.!.!.Q.T.E.Q.!.!.!.!.!.E.u.f 2 H h h h d d d d d d d d p C 7 ~.~.~.~.~.",
"~.~.~.~.~.C a d h h h h h g g z z z J J I I I I J P J.!.!.!.!.d.P =.e.G.E.!.!.!.!.Q.Z.f 2 z h h d d d d d d d d d d A ~.~.~.~.~.",
"~.~.~.~.~.A a h h h h h g z z z J H I I I I ^ / d X.E.!.!.!.Q.1.4 I J I ;.U.!.!.!.!.!.N.1 h g h h d d d d d d d d a S ~.~.~.~.~.",
"~.~.~.~.6 C p d h h h z z J J J I I I I ^ ^ ^ _ a 3.Q.!.!.!.E.#.I  . ._ 3 ] K.!.!.!.!.E.O., z h h h d d d d d d d p A + ~.~.~.~.",
"~.~.~.~.i B d d h h h g z J I I I I ^ ^ ^ / / _ h k.!.!.!.!.J.) }  . .|  .3 6.Q.!.!.!.Q.q.> z g h h d d d d d d d d B t ~.~.~.~.",
"~.~.~.~.B d d d d h h h z z J I I ^ / / / _ _ ^ ( I.!.!.!.Q.d.I  . . .|  .d 1.Q.!.!.!.Q.q.2 z h h h d d d d d d d d d B ~.~.~.~.",
"~.~.~.~.C a d d d d h h g z J H I ^ ^ / _ _ } J %.E.!.!.!.Q.;.4 _ } | } J f m.!.!.!.!.Q.;.2 J z g h h d d d d d d d a A ~.~.~.~.",
"~.~.~.~.C a d d d d h h h z z J I I ^ ^ / _ } z 6.Q.!.!.!.!.n.<.&.+.{ ) ] h.Q.!.!.!.!.R.~ d H z z h h h d d d d d d a A ~.~.~.~.",
"~.~.~.~.A a d d d d d h h g z z H I I ^ / _ _ z k.!.!.!.!.!.!.Q.E.I.F.F.T.Q.!.!.!.!.E.9.2 I J z z h h h d d d d d d d A ~.~.~.~.",
"~.~.~.~.S a d d d d d h h h z z J I I ^ ^ / I ( P.!.!.!.!.Q.Q.!.!.!.!.!.!.!.!.!.!.E.w.d J I I J z h h h d d d d d d d A ~.~.~.~.",
"~.~.~.~.A a d d d d d d h h h z J J I I ^ / h O.E.!.!.!.Q.f.1.z.Y.E.!.!.!.!.!.!.L.! , ^ / I I H z z h h h d d d d d d A ~.~.~.~.",
"~.~.~.~.S p d d d d d d h h h z z J I I ^ / d <.Q.!.!.!.E.+.d _ +.>.k.E.!.!.!.!.Q.s.P J _ ^ I I J z z h h h d d d d d A ~.~.~.~.",
"~.~.~.~.C a d d d d d d d h h g z z H I I ^ d k.!.!.!.!.J.{ | @.} I I O.H.!.!.!.!.Q.C.l I ^ I I H J z g h h d d d d a A ~.~.~.~.",
"~.~.~.~.B a d d d d d d d h h h h z z J I J x P.!.!.!.Q.j.I  . . . . .B { K.!.!.!.!.Q.0.a / ^ I I J z z h h h d d d a A ~.~.~.~.",
"~.~.~.~.B d d d d d d d d d h h h J h f 2 ; [ E.!.!.!.Q.1.I  . . .| |  .d 4.Q.!.!.!.!.m.z I ^ I I I J z h h h h d d d B ~.~.~.~.",
"~.~.~.~.u B d d d d d d d d h h z , ' v.q.X.M.!.!.!.!.E.#.^  . .| } } } d >.Q.!.!.!.!.F.x J I I I J J z z h h h d d C t ~.~.~.~.",
"~.~.~.~.7 C p d d d d d d d d h h : y.Q.Q.Q.!.!.!.!.!.B.d B / _ } } } J 1 k.!.!.!.!.!.c.s J I H J J z z z h h h h s A + ~.~.~.~.",
"~.~.~.~.~.A a d d d d d d d d h > ` R.!.!.!.!.!.!.!.!.L.q.=.[ ~ z h h l 0.Q.!.!.!.!.Q.q.2 I J J z z h h h h h h h a S ~.~.~.~.~.",
"~.~.~.~.~.C d d d d d d d d d d > ..g.Y.E.Q.!.!.!.!.!.!.Q.E.T.B.k.a.d.P.Q.!.!.!.!.!.E.[ 2 J z z z g h h h h d d d d C ~.~.~.~.~.",
"~.~.~.~.~.y C p d d d d d d d d g 3 > l [ <.x.W.!.!.!.!.!.!.!.!.!.!.!.!.!.!.!.!.!.Q.z.> z z z h h h h h d d d d p C 7 ~.~.~.~.~.",
"~.~.~.~.~.~.S a d d d d d d d d d h h 3 , > ; =.Q.!.W.T.Q.!.!.!.!.!.!.!.!.!.!.!.Q.A.g 2 z h h h h h h d d d d d a S ~.~.~.~.~.~.",
"~.~.~.~.~.~.C h s d d d d d d d d d h g z H : <.!.!.t.l &.V.!.!.Q.Q.Q.Q.!.Q.Q.E.b.l > H h h h h h d d d d d d s m C ~.~.~.~.~.~.",
"~.~.~.~.~.~.X S a d d d d d d d d d h h h h p N.!.Q.=.: < c.!.Q.2.&.e.a.d.i.6.[ < 2 z h h h h d d d d d d d d a S   ~.~.~.~.~.~.",
"~.~.~.~.~.~.~.A h s d d d d d d d d d h g 2 ~ E.!.E.{ 2 [ E.!.T.l : 2 1 3 2 > > h z h h h h d d d d d d d d s m A ~.~.~.~.~.~.~.",
"~.~.~.~.~.~.~.~.S a d d d d d d d d d h h : -.R.!.B.h 2 =.Q.!.M.p z z z h h z g h h h d d d d d d d d d d d a S ~.~.~.~.~.~.~.~.",
"~.~.~.~.~.~.~.~.N C p d d d d d d d d d h 3 ' 2.N.9.2 3 z.!.!.q.> J z h h h h h h d d d d d d d d d d d d p C n ~.~.~.~.~.~.~.~.",
"~.~.~.~.~.~.~.~.~.S h p d d d d d d d d d z 3 : p l J g 8.T.S.O.> z h h h h h d d d d d d d d d d d d d p h S ~.~.~.~.~.~.~.~.~.",
"~.~.~.~.~.~.~.~.~.~.S a s d d d d d d d d h h z d h I J a P o.P d g h h h d d d d d d d d d d d d d d s a S ~.~.~.~.~.~.~.~.~.~.",
"~.~.~.~.~.~.~.~.~.~.* S a s d d d d d d d d h h g z J J h 3 > d z h h h d d d d d d d d d d d d d d s a S * ~.~.~.~.~.~.~.~.~.~.",
"~.~.~.~.~.~.~.~.~.~.~.$ T a s d d d d d d d h h h z z z h g g h h d d d d d d d d d d d d d d d d s a T O ~.~.~.~.~.~.~.~.~.~.~.",
"~.~.~.~.~.~.~.~.~.~.~.~.& S a p d d d d d d h h h z g h h h h h d d d d d d d d d d d d d d d d p a S # ~.~.~.~.~.~.~.~.~.~.~.~.",
"~.~.~.~.~.~.~.~.~.~.~.~.~.8 S d p d d d d d d h h g h h h h d d d d d d d d d d d d d d d d d p h S = ~.~.~.~.~.~.~.~.~.~.~.~.~.",
"~.~.~.~.~.~.~.~.~.~.~.~.~.~.~.S A a s d d d d h h h h h d d d d d d d d d d d d d d d d d s a A S ~.~.~.~.~.~.~.~.~.~.~.~.~.~.~.",
"~.~.~.~.~.~.~.~.~.~.~.~.~.~.~.~.0 T m p d d d d h h h d d d d d d d d d d d d d d d d d p B S 9 ~.~.~.~.~.~.~.~.~.~.~.~.~.~.~.~.",
"~.~.~.~.~.~.~.~.~.~.~.~.~.~.~.~.~.~.V S m a p d h d d d d d d d d d d d d d d d d p a m S V ~.~.~.~.~.~.~.~.~.~.~.~.~.~.~.~.~.~.",
"~.~.~.~.~.~.~.~.~.~.~.~.~.~.~.~.~.~.~.o V S C d p p d d d d d d d d d d d d p p d C S N . ~.~.~.~.~.~.~.~.~.~.~.~.~.~.~.~.~.~.~.",
"~.~.~.~.~.~.~.~.~.~.~.~.~.~.~.~.~.~.~.~.~.~.5 C S A B d d a a d d a a a d B A S C 5 ~.~.~.~.~.~.~.~.~.~.~.~.~.~.~.~.~.~.~.~.~.~.",
"~.~.~.~.~.~.~.~.~.~.~.~.~.~.~.~.~.~.~.~.~.~.~.~.~.O t B A A A A A A A A B t O ~.~.~.~.~.~.~.~.~.~.~.~.~.~.~.~.~.~.~.~.~.~.~.~.~.",
"~.~.~.~.~.~.~.~.~.~.~.~.~.~.~.~.~.~.~.~.~.~.~.~.~.~.~.~.~.~.~.~.~.~.~.~.~.~.~.~.~.~.~.~.~.~.~.~.~.~.~.~.~.~.~.~.~.~.~.~.~.~.~.~.",
"~.~.~.~.~.~.~.~.~.~.~.~.~.~.~.~.~.~.~.~.~.~.~.~.~.~.~.~.~.~.~.~.~.~.~.~.~.~.~.~.~.~.~.~.~.~.~.~.~.~.~.~.~.~.~.~.~.~.~.~.~.~.~.~.",
"~.~.~.~.~.~.~.~.~.~.~.~.~.~.~.~.~.~.~.~.~.~.~.~.~.~.~.~.~.~.~.~.~.~.~.~.~.~.~.~.~.~.~.~.~.~.~.~.~.~.~.~.~.~.~.~.~.~.~.~.~.~.~.~.",
"~.~.~.~.~.~.~.~.~.~.~.~.~.~.~.~.~.~.~.~.~.~.~.~.~.~.~.~.~.~.~.~.~.~.~.~.~.~.~.~.~.~.~.~.~.~.~.~.~.~.~.~.~.~.~.~.~.~.~.~.~.~.~.~."
};
