/* XPM */
static char *xpchain16[] = {
/* columns rows colors chars-per-pixel */
"16 16 2 1 ",
"  c None",
". c #19749A",
/* pixels */
"    ..     ..   ",
" ......  ...... ",
" ......  ...... ",
".......  ...... ",
".......  .......",
" ......  .......",
" .....    ..... ",
"                ",
"                ",
" .....    ..... ",
" ......  .......",
".......  .......",
" ......  .......",
" ......  ...... ",
" ......  ...... ",
"   ...    ...   "
};
