/* XPM */
static char *xpchain32[] = {
/* columns rows colors chars-per-pixel */
"32 32 2 1 ",
"  c None",
". c #19749A",
/* pixels */
"       ..              ..       ",
"       .....        ......      ",
"   ....  ....      .....   ..   ",
"  .......  ...    ....  ......  ",
"  ......... ...   ..  ........  ",
"  ..........  .  .. ..........  ",
".. ..........      ...........  ",
".. ...........    ........... ..",
"... ...........  ............ ..",
" .. ..........    .......... ...",
" ... ........    . ......... .. ",
" ... ....... .    . ....... ... ",
"  ... ..... ..    .. ..... ...  ",
"   ... ... ..      .. ...  ..   ",
"    ..  . .            .  ..    ",
"                                ",
"                                ",
"     .  .            . .  .     ",
"   ..  ... ..      .. ... ...   ",
"  ... ..... ..    ..  .... ...  ",
" ... ....... .    . ....... ... ",
" ..  ........ .    ........ ... ",
" .. ..........    .......... .. ",
".. ............  ........... ...",
".. ............   ........... ..",
"  ...........      .......... ..",
"  .......... ..  .  ..........  ",
"  ........  ...  ... .........  ",
"  ......  ....    ...  .......  ",
"   ...  .....      ....  ....   ",
"      ......        .....       ",
"      ....            ....      "
};
