/* XPM */
static char *xpchain128[] = {
/* columns rows colors chars-per-pixel */
"128 128 2 1 ",
"  c None",
". c #19749A",
/* pixels */
"                                                                                                                                ",
"                                                                                                                                ",
"                         .............                                                    .............                         ",
"                      ....................                                             ....................                     ",
"                        ....................                                        .........................                   ",
"                           ...................                                    ..........................                    ",
"                              ..................                                 .......................                        ",
"              ......            .................                              ......................                           ",
"             ...........          ................                            ....................                              ",
"            ...............         ................                         ...................            .........           ",
"           ..................         ...............                       ..................          ..............          ",
"          .....................        ...............                     .................         ..................         ",
"         ........................        .............                    ................         .....................        ",
"         ..........................        ............                  ...............         .......................        ",
"         ............................       ............                ...............        ..........................       ",
"         ..............................       ...........               .............        ............................       ",
"         ...............................       ..........              ............        ..............................       ",
"         .................................       .........            ............       ................................       ",
"         ..................................       ........            ..........       ..................................       ",
"    .    ...................................       ........          ..........       ...................................       ",
"    .    .....................................       ......          ........       .....................................       ",
"    ..    .....................................       ......         .......       ......................................       ",
"   ...    ......................................       .....        ......       .......................................    .   ",
"   ...    ........................................       ...        .....       ........................................    .   ",
"   ...     ........................................       ...       ...       ..........................................    ..  ",
"  .....    .........................................       ..      ...       ..........................................    ...  ",
"  .....    ..........................................              ..      ............................................    ...  ",
"  ......    ...........................................                   ............................................     ...  ",
"  ......    ............................................                 .............................................    ....  ",
"  ......     ............................................              ...............................................    ....  ",
"  .......    .............................................            ...............................................    .....  ",
"  .......    ..............................................          ................................................    .....  ",
"  ........    ..............................................        ................................................    ......  ",
"  ........    ..............................................         ...............................................    ......  ",
"  .........    ............................................           .............................................    .......  ",
"  .........    ...........................................             ............................................    .......  ",
"  ..........    .........................................               ..........................................    ........  ",
"  ..........     .......................................                 ........................................     ........  ",
"   ..........    ......................................                   .......................................    .........  ",
"   ..........     ...................................               .      .....................................     ........   ",
"   ...........    ..................................      ..        ...     ....................................    .........   ",
"   ...........     ................................      ..          ...     ..................................    ..........   ",
"    ...........    ...............................      ...          ....     ................................     .........    ",
"    ............    .............................      ....          .....     ..............................     ..........    ",
"     ...........     ...........................      ....            .....     .............................     ..........    ",
"     ............    ..........................      .....            ......     ...........................     ..........     ",
"      ...........     ........................      .....              ......     .........................     ..........      ",
"      ............     ......................      ......              .......     ........................     ..........      ",
"       ............    .....................      ......                .......     ......................     ..........       ",
"        ...........     ...................      ......                  .......     ....................     ...........       ",
"         ...........     .................      .......                   .......     ..................     ...........        ",
"         ............    ................      .......                    .......      ................      ..........         ",
"          ...........     ..............      .......                      .......      ...............     ..........          ",
"           ...........     ............      .......                        .......      .............     ..........           ",
"             ..........     ..........      .......                           ......      ...........      .........            ",
"              ..........    .........      ......                              ......      .........      .........             ",
"               .........     .......      ......                                ......     ........      ........               ",
"                 ........     .....      .....                                    .....     ......      .......                 ",
"                   .......     ...      ....                                        ....     .....     .......                  ",
"                     .....     ...     ...                                             .      ...      ....                     ",
"                        ...                                                                    .      ..                        ",
"                                                                                                                                ",
"                                                                                                                                ",
"                                                                                                                                ",
"                                                                                                                                ",
"                                                                                                                                ",
"                                                                                                                                ",
"                                                                                                     .                          ",
"                      ....      ..      .                                              ...     ..    .....                      ",
"                   ......      ....     ...                                          ....     ...     .......                   ",
"                 .......      ......     .....                                    ......     .....     ........                 ",
"                ........     .......      .....                                  ......     .......     ........                ",
"              .........     .........      ......                              .......     .........    ..........              ",
"             .........      ..........      ......                            .......     ..........     ..........             ",
"            .........      ............      .......                         .......     ............     ..........            ",
"           .........      ..............      .......                       .......     ..............     ...........          ",
"          ..........     ................     ........                     .......     ................    ...........          ",
"         ..........     ..................     .......                    .......      ................     ...........         ",
"        ..........      ...................     .......                  .......      ..................     ...........        ",
"       ...........     .....................     .......                .......     .....................    ............       ",
"       ..........     .......................     .......               ......     ......................     ............      ",
"      ..........     .........................     ......              ......     ........................     ...........      ",
"     ...........    ...........................     ......             .....     ..........................    ............     ",
"     ..........     ............................     .....            .....     ...........................     ...........     ",
"    ..........     ..............................     .....           ....     .............................    ............    ",
"    ..........    ................................     ....          ...      ...............................    ...........    ",
"    .........     .................................     ....         ..      ................................     ...........   ",
"   .........     ...................................     ...         .      ..................................    ...........   ",
"   .........    .....................................     ..        .      ...................................     ..........   ",
"   ........     ......................................     .              .....................................    ...........  ",
"  .........    ........................................                  ......................................     ..........  ",
"  ........    ..........................................                ........................................    ..........  ",
"  ........    ...........................................              ..........................................    .........  ",
"  .......    .............................................            ...........................................    .........  ",
"  ......     ..............................................         ..............................................    ........  ",
"  ......    ................................................        ..............................................    ........  ",
"  .....     ................................................        ...............................................    .......  ",
"  .....    ................................................           .............................................    .......  ",
"  .....    ...............................................             .............................................    ......  ",
"  ....    ..............................................                ............................................    ......  ",
"  ....    .............................................                  ...........................................     .....  ",
"  ...     ...........................................       .             ...........................................    .....  ",
"  ...    ...........................................       ..      ..       .........................................    .....  ",
"   ..    ..........................................      ....       ..       .........................................    ....  ",
"   .    .........................................       ....        ...       ........................................    ...   ",
"   .    ........................................      ......        ....       .......................................    ...   ",
"        ......................................       .......        ......       .....................................     ..   ",
"        .....................................       .......          ......       .....................................    .    ",
"       ....................................       .........          .......       ....................................    .    ",
"       ..................................        .........            ........       ..................................         ",
"       .................................       ...........            .........       .................................         ",
"       ...............................        ...........              ..........       ................................        ",
"       .............................        .............              ...........       ...............................        ",
"       ...........................        ..............                ...........        .............................        ",
"        ........................        ...............                  ............        ...........................        ",
"        ......................         ................                  ..............       ..........................        ",
"         ...................         .................                    ..............        .......................         ",
"          ...............          ..................                      ...............        ....................          ",
"           ...........           ...................                        ................         ................           ",
"             ....              ....................                          .................         .............            ",
"                            ......................                             .................          .........             ",
"                         .......................                                ..................                              ",
"                      .........................                                   ..................                            ",
"                   ..........................                                      ....................                         ",
"                     .....................                                            ....................                      ",
"                        ...............                                                  ................                       ",
"                               ..                                                              ....                             ",
"                                                                                                                                "
};
