/* XPM */
static char *xpchain64[] = {
/* columns rows colors chars-per-pixel */
"64 64 2 1 ",
"  c None",
". c #19749A",
/* pixels */
"                                                                ",
"            ........                        ........            ",
"             ..........                   ............          ",
"        .      .........                ...........             ",
"      .......    .........             ..........      ...      ",
"     ..........    ........           .........    ........     ",
"    .............    ......          ........    ...........    ",
"    ...............   ......        .......    ..............   ",
"    ................    .....      ......    ................   ",
"     .................   ....      .....   ..................   ",
"  .  ..................    ...    ....    ..................    ",
"  .  ....................   ..    ...   ....................    ",
" ..  .....................   .    .    .....................  . ",
" ...  .....................          ......................  .. ",
" ...  ......................        .......................  .. ",
" ...   ......................      .......................   .. ",
" ....  .......................    ........................  ... ",
" ....   .....................      ......................   ... ",
" .....  ....................        .....................  .... ",
" .....   ..................          ...................  ..... ",
"  .....  .................   .    ..  ..................  ....  ",
"  ......  ...............   .      ..  ................  .....  ",
"  ......   .............   ..      ...  ..............   .....  ",
"   ......  ............   ...       ...  ............   .....   ",
"    ......  ..........   ...        ....  ...........  .....    ",
"    ......   ........   ...          ...   .........   .....    ",
"     ......  .......   ...            ...   .......   .....     ",
"       .....  .....   ...              ...   .....   .....      ",
"        ....   ...   ...                 ..   ...   ....        ",
"          ...  ..   ..                     .   ..   ..          ",
"                                                                ",
"                                                                ",
"                                                                ",
"                                                                ",
"          ...   .   .                      ..  ..  ...          ",
"        ....   ...   ..                  ...  ...   ....        ",
"       ....   .....   ...              ....  .....  .....       ",
"      ....   .......   ...            ....  .......  .....      ",
"     .....  .........  ....          ....  ........   .....     ",
"    .....   ..........  ....        ....  ..........  ......    ",
"   .....   ............  ...        ...  ............  ......   ",
"   .....  ..............  ...      ...  .............   ......  ",
"  .....  ................  ...     ..  ...............  ......  ",
"  ....   .................  ..    .   .................  .....  ",
" .....  ...................          ..................   ..... ",
" ....  .....................        ....................  ..... ",
" ....  ......................      .....................   .... ",
" ...  ........................    .......................  .... ",
" ...  ........................    .......................   ... ",
" ..  .......................        ......................  ... ",
" ..  ......................          .....................  ... ",
" .  ......................   .    .   .....................  .. ",
"    ....................    ..    ..   ....................  .. ",
"    ...................   ....    ...    ..................  .  ",
"    .................    ....      ...    ..................    ",
"   ................    ......      .....   .................    ",
"    ..............    ......        .....    ...............    ",
"    ............    ........         ......    .............    ",
"     ........     .........          ........    ..........     ",
"      ....      ..........            ........     .......      ",
"             ...........                ........      ...       ",
"          .............                  ..........             ",
"           .........                        ........            ",
"                                                                "
};
