<?xml version="1.0" encoding="utf-8"?>
<!-- Generator: Adobe Illustrator 16.0.0, SVG Export Plug-In . SVG Version: 6.00 Build 0)  -->
<!DOCTYPE svg PUBLIC "-//W3C//DTD SVG 1.1//EN" "http://www.w3.org/Graphics/SVG/1.1/DTD/svg11.dtd">
<svg version="1.1"
	 id="Ebene_1" sodipodi:docname="qt.svg" inkscape:version="0.91 r13725" xmlns:dc="http://purl.org/dc/elements/1.1/" xmlns:cc="http://creativecommons.org/ns#" xmlns:rdf="http://www.w3.org/1999/02/22-rdf-syntax-ns#" xmlns:svg="http://www.w3.org/2000/svg" xmlns:sodipodi="http://sodipodi.sourceforge.net/DTD/sodipodi-0.dtd" xmlns:inkscape="http://www.inkscape.org/namespaces/inkscape"
	 xmlns="http://www.w3.org/2000/svg" xmlns:xlink="http://www.w3.org/1999/xlink" x="0px" y="0px" width="256px" height="256px"
	 viewBox="0 0 256 256" enable-background="new 0 0 256 256" xml:space="preserve">
<sodipodi:namedview  inkscape:window-maximized="1" inkscape:window-y="25" inkscape:window-x="0" inkscape:window-height="718" inkscape:window-width="1366" inkscape:pageshadow="2" inkscape:current-layer="Ebene_1" inkscape:pageopacity="0" objecttolerance="10" gridtolerance="10" guidetolerance="10" showgrid="false" inkscape:cy="96.697139" inkscape:cx="161.44282" inkscape:zoom="0.7745323" borderopacity="1" bordercolor="#666666" pagecolor="#ffffff" id="namedview7">
	</sodipodi:namedview>
<g id="g4151" transform="matrix(1.0593543,0,0,1.0593543,-890.29489,118.43461)">
	<path id="path26" inkscape:connector-curvature="0" fill="#58595B" d="M902.004-103.68c-15.158-0.18-32.903,5.786-33.584,27.383
		v181.705l14.508,16.335l153.115-25.735c9.989-1.802,18.018-14.297,18.018-27.732V-79.838l-140.424-23.032
		c-1.567-0.262-8.617-0.772-10.145-0.776C902.984-103.664,902.514-103.676,902.004-103.68z M948.93-61.69
		c1.802,0,3.604,0.078,5.406,0.313v0.039c12.809,1.488,22.092,7.52,28.202,17.979c5.994,10.262,8.892,24.952,8.892,44.302
		c0,17.705-2.194,31.61-6.503,41.795c-4.387,10.38-11.084,17.195-20.368,20.407c0.98,4.779,2.389,7.991,4.192,9.675
		c1.096,0.902,2.585,1.528,4.386,1.724h0.118h0.275h2.036c0.783,0,1.175,0.195,2.663,0v14.101l-6.385,0.902
		c-1.88,0.195-3.682,0.275-5.406,0.275c-5.601,0-10.105-1.293-13.591-4.075c-4.505-3.603-7.795-10.614-9.91-20.917
		c-9.792-2.076-17.509-8.304-22.797-18.802c-5.288-10.575-8.108-26.204-8.108-46.494c0-21.896,3.799-38.073,11.124-48.336
		C929.463-57.46,938.041-61.69,948.93-61.69L948.93-61.69z M1008.038-54.091l12.025,1.332v21.661l12.966,1.018v13.592l-12.966-0.666
		v49.707c0,4.27,0.979,7.089,1.999,8.382c0,1.096,1.997,1.684,2.977,1.684h1.019c2.977-0.195,5.992-0.979,9.008-2.468V52.53
		c-6.032,2.507-11.007,3.917-16.999,4.387c0,0.117-1.02,0.117-2.037,0.117c-4.974,0-7.991-1.41-10.968-4.191
		c-3.016-3.29-5.013-8.617-5.013-15.824v-55.034l-5.406-0.313V-32.9l8.422,0.587L1008.038-54.091L1008.038-54.091z M953.239-45.121
		c-4.7,0-8.304,2.703-10.811,8.186c-2.663,5.954-3.995,18.254-3.995,36.977c0,17.979,1.332,30.787,3.995,38.308
		c2.507,7.168,6.306,10.693,11.32,10.693h0.588c5.013-0.313,8.696-3.799,11.319-10.301c2.507-6.503,3.683-19.194,3.683-38.191
		c0-17.078-1.175-28.79-3.683-35.253c-2.506-6.502-6.306-9.988-11.319-10.419H953.239z"/>
</g>
</svg>
