<?xml version="1.0" encoding="utf-8"?>
<!-- Generator: Adobe Illustrator 16.0.0, SVG Export Plug-In . SVG Version: 6.00 Build 0)  -->
<!DOCTYPE svg PUBLIC "-//W3C//DTD SVG 1.1//EN" "http://www.w3.org/Graphics/SVG/1.1/DTD/svg11.dtd">
<svg version="1.1"
	 id="svg2" inkscape:export-ydpi="90" inkscape:export-xdpi="90" inkscape:export-filename="/home/daniel/cc/chaincoin/src/qt/res/icons/address-book2.png" sodipodi:docname="address-book2.svg" inkscape:version="0.91 r13725" xmlns:dc="http://purl.org/dc/elements/1.1/" xmlns:cc="http://creativecommons.org/ns#" xmlns:rdf="http://www.w3.org/1999/02/22-rdf-syntax-ns#" xmlns:svg="http://www.w3.org/2000/svg" xmlns:sodipodi="http://sodipodi.sourceforge.net/DTD/sodipodi-0.dtd" xmlns:inkscape="http://www.inkscape.org/namespaces/inkscape"
	 xmlns="http://www.w3.org/2000/svg" xmlns:xlink="http://www.w3.org/1999/xlink" x="0px" y="0px" width="128px" height="128px"
	 viewBox="0 0 128 128" enable-background="new 0 0 128 128" xml:space="preserve">
<sodipodi:namedview  units="px" inkscape:window-maximized="1" inkscape:window-y="25" inkscape:window-x="0" inkscape:window-height="718" inkscape:window-width="1366" inkscape:pageshadow="2" inkscape:current-layer="layer1" inkscape:document-units="px" inkscape:pageopacity="0.0" showgrid="false" inkscape:cy="64.893725" inkscape:cx="-321.15468" inkscape:zoom="1" borderopacity="1.0" bordercolor="#666666" pagecolor="#ffffff" id="base">
	</sodipodi:namedview>
<g id="layer1" transform="translate(0,-924.36216)" inkscape:groupmode="layer" inkscape:label="Ebene 1">
	<g id="text3649" transform="matrix(0.46784975,0,0,0.4672192,4.1152329,556.4824)">
		<path id="path3336" inkscape:connector-curvature="0" fill="#58595B" d="M154.687,890.051c0-19.607-15.931-35.401-35.401-35.401
			s-35.401,15.794-35.401,35.401c0,19.471,15.931,35.265,35.401,35.265S154.687,909.521,154.687,890.051z M148.151,920.006
			c-8.986,5.31-18.11,11.846-28.866,11.846c-10.756,0-19.879-6.536-28.865-11.846h-0.682c-25.326,0-29.41,31.726-29.41,50.924
			c0,11.437,7.216,23.146,19.743,23.146H158.5c12.526,0,19.742-11.709,19.742-23.146
			C178.242,950.914,174.157,920.006,148.151,920.006z M241.284,885.149v-26.143c0-2.315-2.041-4.357-4.358-4.357h-13.071v-30.5
			c0-11.983-9.802-21.786-21.784-21.786H36.501c-11.982,0-21.786,9.804-21.786,21.786v200.425c0,11.983,9.803,21.786,21.786,21.786
			h165.57c11.981,0,21.784-9.803,21.784-21.786v-30.5h13.071c2.317,0,4.358-2.042,4.358-4.358v-26.142
			c0-2.314-2.041-4.358-4.358-4.358h-13.071V941.79h13.071c2.317,0,4.358-2.042,4.358-4.356v-26.143
			c0-2.315-2.041-4.357-4.358-4.357h-13.071v-17.429h13.071C239.243,889.506,241.284,887.464,241.284,885.149z M206.428,1024.575
			c0,2.314-2.043,4.358-4.356,4.358H36.501c-2.315,0-4.357-2.044-4.357-4.358V824.15c0-2.315,2.042-4.358,4.357-4.358h165.57
			c2.313,0,4.356,2.043,4.356,4.358V1024.575z"/>
	</g>
</g>
</svg>
