<?xml version="1.0" encoding="utf-8"?>
<!-- Generator: Adobe Illustrator 16.0.0, SVG Export Plug-In . SVG Version: 6.00 Build 0)  -->
<!DOCTYPE svg PUBLIC "-//W3C//DTD SVG 1.1//EN" "http://www.w3.org/Graphics/SVG/1.1/DTD/svg11.dtd">
<svg version="1.1"
	 id="svg2" inkscape:export-ydpi="90" inkscape:export-xdpi="90" inkscape:export-filename="/home/daniel/cc/chaincoin/src/qt/res/icons/browse.png" sodipodi:docname="browse.svg" inkscape:version="0.91 r13725" xmlns:dc="http://purl.org/dc/elements/1.1/" xmlns:cc="http://creativecommons.org/ns#" xmlns:rdf="http://www.w3.org/1999/02/22-rdf-syntax-ns#" xmlns:svg="http://www.w3.org/2000/svg" xmlns:sodipodi="http://sodipodi.sourceforge.net/DTD/sodipodi-0.dtd" xmlns:inkscape="http://www.inkscape.org/namespaces/inkscape"
	 xmlns="http://www.w3.org/2000/svg" xmlns:xlink="http://www.w3.org/1999/xlink" x="0px" y="0px" width="128px" height="128px"
	 viewBox="0 0 128 128" enable-background="new 0 0 128 128" xml:space="preserve">
<sodipodi:namedview  units="px" inkscape:window-maximized="1" inkscape:window-y="25" inkscape:window-x="0" inkscape:window-height="718" inkscape:window-width="1366" inkscape:pageshadow="2" inkscape:current-layer="layer1" inkscape:document-units="px" inkscape:pageopacity="0.0" showgrid="false" inkscape:cy="79.575953" inkscape:cx="4.0837409" inkscape:zoom="2.8284271" borderopacity="1.0" bordercolor="#666666" pagecolor="#ffffff" id="base">
	</sodipodi:namedview>
<g id="layer1" transform="translate(0,-924.36216)" inkscape:groupmode="layer" inkscape:label="Ebene 1">
	<g id="text3649" transform="matrix(0.47715632,0,0,0.47715632,2.9239918,547.29691)">
		<path id="path3336" inkscape:connector-curvature="0" fill="#58595B" d="M156.211,914.959c0,5.142-4.261,9.403-9.402,9.403
			h-37.616c-5.142,0-9.403-4.261-9.403-9.403c0-5.143,4.261-9.404,9.403-9.404h37.616
			C151.95,905.555,156.211,909.816,156.211,914.959z M240.843,886.748c0-5.142-4.261-9.403-9.402-9.403H24.559
			c-5.142,0-9.403,4.261-9.403,9.403v141.056c0,5.143,4.261,9.404,9.403,9.404h206.882c5.141,0,9.402-4.261,9.402-9.404V886.748z
			 M250.249,820.922c0-5.142-4.261-9.403-9.406-9.403H15.156c-5.143,0-9.404,4.261-9.404,9.403v37.615
			c0,5.142,4.261,9.403,9.404,9.403h225.687c5.145,0,9.406-4.261,9.406-9.403V820.922z"/>
	</g>
</g>
</svg>
