<?xml version="1.0" encoding="utf-8"?>
<!-- Generator: Adobe Illustrator 16.0.0, SVG Export Plug-In . SVG Version: 6.00 Build 0)  -->
<!DOCTYPE svg PUBLIC "-//W3C//DTD SVG 1.1//EN" "http://www.w3.org/Graphics/SVG/1.1/DTD/svg11.dtd">
<svg version="1.1"
	 id="svg2" xmlns:dc="http://purl.org/dc/elements/1.1/" xmlns:rdf="http://www.w3.org/1999/02/22-rdf-syntax-ns#" xmlns:cc="http://creativecommons.org/ns#" xmlns:inkscape="http://www.inkscape.org/namespaces/inkscape" xmlns:sodipodi="http://sodipodi.sourceforge.net/DTD/sodipodi-0.dtd" xmlns:svg="http://www.w3.org/2000/svg" inkscape:version="0.91 r13725" inkscape:export-xdpi="90" sodipodi:docname="connect0_16.svg" inkscape:export-filename="/home/daniel/cc/chaincoin/src/qt/res/icons/connect0.png" inkscape:export-ydpi="90"
	 xmlns="http://www.w3.org/2000/svg" xmlns:xlink="http://www.w3.org/1999/xlink" x="0px" y="0px" width="128px" height="128px"
	 viewBox="0 0 128 128" enable-background="new 0 0 128 128" xml:space="preserve">
<sodipodi:namedview  units="px" id="base" pagecolor="#ffffff" bordercolor="#666666" borderopacity="1.0" inkscape:zoom="0.98994949" inkscape:cx="161.193" showgrid="false" inkscape:cy="44.729235" inkscape:window-y="25" inkscape:window-maximized="1" inkscape:pageopacity="0.0" inkscape:pageshadow="2" inkscape:window-width="1366" inkscape:window-x="0" inkscape:document-units="px" inkscape:window-height="718" inkscape:current-layer="layer1">
	</sodipodi:namedview>
<g id="layer1" transform="translate(0,-924.36216)" inkscape:label="Ebene 1" inkscape:groupmode="layer">
	<g id="g3342" transform="translate(-0.11747661,-4.3864617)">
		<g id="g7422">
			<rect id="rect4147" x="6.496" y="1007.585" fill="#58595B" width="25.819" height="37.088"/>
			<rect id="rect4149" x="36.465" y="985.331" fill="#58595B" width="26.017" height="59.341"/>
			<rect id="rect4151" x="66.533" y="963.078" fill="#58595B" width="26.017" height="81.595"/>
			<rect id="rect4153" x="96.6" y="940.826" fill="#58595B" width="26.018" height="103.847"/>
		</g>
		<g id="g7467" transform="matrix(0.48160073,0,0,0.48425118,2.9120957,548.2018)">
			<g id="layer1-1" transform="matrix(0.58900352,0,0,0.58900352,1.8842163,331.63797)" inkscape:label="Ebene 1">
				<g id="text3649">
					<path id="path3336" inkscape:connector-curvature="0" fill="#FF0000" d="M249.662,998.506c0-5.12-2.048-10.241-5.735-13.928
						l-60.217-60.215l60.217-60.216c3.687-3.687,5.735-8.808,5.735-13.928c0-5.119-2.048-10.241-5.735-13.926l-27.855-27.856
						c-3.687-3.688-8.808-5.735-13.929-5.735c-5.119,0-10.24,2.047-13.927,5.735L128,868.652l-60.217-60.216
						c-3.685-3.688-8.806-5.735-13.927-5.735c-5.121,0-10.24,2.046-13.927,5.735L12.074,836.29
						c-3.687,3.688-5.735,8.808-5.735,13.928c0,5.12,2.048,10.241,5.735,13.928l60.216,60.215l-60.216,60.216
						c-3.687,3.686-5.735,8.808-5.735,13.928c0,5.119,2.048,10.241,5.735,13.925l27.855,27.856
						c3.687,3.691,8.806,5.738,13.927,5.738c5.121,0,10.242-2.047,13.927-5.738L128,980.072l60.216,60.215
						c3.687,3.691,8.808,5.738,13.927,5.738c5.121,0,10.242-2.047,13.929-5.738l27.855-27.853
						C247.614,1008.747,249.662,1003.625,249.662,998.506z"/>
				</g>
			</g>
		</g>
	</g>
</g>
</svg>
