<?xml version="1.0" encoding="utf-8"?>
<!-- Generator: Adobe Illustrator 16.0.0, SVG Export Plug-In . SVG Version: 6.00 Build 0)  -->
<!DOCTYPE svg PUBLIC "-//W3C//DTD SVG 1.1//EN" "http://www.w3.org/Graphics/SVG/1.1/DTD/svg11.dtd">
<svg version="1.1"
	 id="svg2" inkscape:export-ydpi="90" inkscape:export-xdpi="90" inkscape:export-filename="/home/daniel/cc/chaincoin/src/qt/res/icons/editcopy.png" sodipodi:docname="editcopy.svg" inkscape:version="0.91 r13725" xmlns:dc="http://purl.org/dc/elements/1.1/" xmlns:cc="http://creativecommons.org/ns#" xmlns:rdf="http://www.w3.org/1999/02/22-rdf-syntax-ns#" xmlns:svg="http://www.w3.org/2000/svg" xmlns:sodipodi="http://sodipodi.sourceforge.net/DTD/sodipodi-0.dtd" xmlns:inkscape="http://www.inkscape.org/namespaces/inkscape"
	 xmlns="http://www.w3.org/2000/svg" xmlns:xlink="http://www.w3.org/1999/xlink" x="0px" y="0px" width="128px" height="128px"
	 viewBox="0 0 128 128" enable-background="new 0 0 128 128" xml:space="preserve">
<sodipodi:namedview  units="px" inkscape:window-maximized="1" inkscape:window-y="25" inkscape:window-x="0" inkscape:window-height="718" inkscape:window-width="1366" inkscape:pageshadow="2" inkscape:current-layer="layer1" inkscape:document-units="px" inkscape:pageopacity="0.0" showgrid="false" inkscape:cy="36.777231" inkscape:cx="-32.73811" inkscape:zoom="1.4142136" borderopacity="1.0" bordercolor="#666666" pagecolor="#ffffff" id="base">
	</sodipodi:namedview>
<g id="layer1" transform="translate(0,-924.36216)" inkscape:groupmode="layer" inkscape:label="Ebene 1">
	<g id="text3649" transform="matrix(0.47967754,0,0,0.47967754,2.6012738,544.96638)">
		<path id="path3336" inkscape:connector-curvature="0" fill="#58595B" d="M237.811,854.083h-57.102
			c-5.354,0-12.215,2.333-17.57,5.491v-45.022c0-7.275-5.902-13.177-13.176-13.177H92.861c-7.275,0-17.432,4.255-22.512,9.333
			l-56.003,56.004c-5.078,5.078-9.333,15.235-9.333,22.511v92.241c0,7.274,5.902,13.176,13.177,13.176h74.671v39.533
			c0,7.274,5.902,13.176,13.177,13.176h131.773c7.274,0,13.176-5.902,13.176-13.176V867.26
			C250.987,859.985,245.085,854.083,237.811,854.083z M163.139,883.32v41.041h-41.041L163.139,883.32z M75.291,830.611v41.041
			H34.249L75.291,830.611z M102.194,919.42c-5.078,5.078-9.333,15.234-9.333,22.511v35.139H22.582v-87.848h57.101
			c7.275,0,13.177-5.902,13.177-13.177v-57.101h52.709v57.101L102.194,919.42z M233.417,1029.779H110.43v-87.848h57.102
			c7.274,0,13.176-5.902,13.176-13.176v-57.102h52.709V1029.779z"/>
	</g>
</g>
</svg>
