<?xml version="1.0" encoding="utf-8"?>
<!-- Generator: Adobe Illustrator 16.0.0, SVG Export Plug-In . SVG Version: 6.00 Build 0)  -->
<!DOCTYPE svg PUBLIC "-//W3C//DTD SVG 1.1//EN" "http://www.w3.org/Graphics/SVG/1.1/DTD/svg11.dtd">
<svg version="1.1"
	 id="svg2" inkscape:export-ydpi="90" inkscape:export-xdpi="90" inkscape:export-filename="/home/daniel/cc/chaincoin/src/qt/res/icons/export.png" sodipodi:docname="export.svg" inkscape:version="0.91 r13725" xmlns:dc="http://purl.org/dc/elements/1.1/" xmlns:cc="http://creativecommons.org/ns#" xmlns:rdf="http://www.w3.org/1999/02/22-rdf-syntax-ns#" xmlns:svg="http://www.w3.org/2000/svg" xmlns:sodipodi="http://sodipodi.sourceforge.net/DTD/sodipodi-0.dtd" xmlns:inkscape="http://www.inkscape.org/namespaces/inkscape"
	 xmlns="http://www.w3.org/2000/svg" xmlns:xlink="http://www.w3.org/1999/xlink" x="0px" y="0px" width="128px" height="128px"
	 viewBox="0 0 128 128" enable-background="new 0 0 128 128" xml:space="preserve">
<sodipodi:namedview  units="px" inkscape:window-maximized="1" inkscape:window-y="25" inkscape:window-x="0" inkscape:window-height="718" inkscape:window-width="1366" inkscape:pageshadow="2" inkscape:current-layer="layer1" inkscape:document-units="px" inkscape:pageopacity="0.0" showgrid="false" inkscape:cy="93.709606" inkscape:cx="-30.325757" inkscape:zoom="1.4142136" borderopacity="1.0" bordercolor="#666666" pagecolor="#ffffff" id="base">
	</sodipodi:namedview>
<g id="layer1" transform="translate(0,-924.36216)" inkscape:groupmode="layer" inkscape:label="Ebene 1">
	<g id="text3380" transform="matrix(0.47411521,0,0,0.47411521,3.3132541,550.10803)">
		<path id="path3462" inkscape:connector-curvature="0" fill="#58595B" d="M82.98,1000.897c0,2.531-1.969,4.501-4.502,4.501h-45.02
			c-2.532,0-4.503-1.969-4.503-4.501v-27.014c0-2.531,1.97-4.501,4.503-4.501h45.02c2.532,0,4.502,1.969,4.502,4.501V1000.897z
			 M82.98,946.872c0,2.534-1.969,4.503-4.502,4.503h-45.02c-2.532,0-4.503-1.969-4.503-4.503V919.86c0-2.531,1.97-4.502,4.503-4.502
			h45.02c2.532,0,4.502,1.97,4.502,4.502V946.872z M155.012,1000.897c0,2.531-1.969,4.501-4.503,4.501H105.49
			c-2.532,0-4.502-1.969-4.502-4.501v-27.014c0-2.531,1.969-4.501,4.502-4.501h45.019c2.534,0,4.503,1.969,4.503,4.501V1000.897z
			 M82.98,892.848c0,2.532-1.969,4.503-4.502,4.503h-45.02c-2.532,0-4.503-1.97-4.503-4.503v-27.012c0-2.532,1.97-4.503,4.503-4.503
			h45.02c2.532,0,4.502,1.97,4.502,4.503V892.848z M155.012,946.872c0,2.534-1.969,4.503-4.503,4.503H105.49
			c-2.532,0-4.502-1.969-4.502-4.503v-27.011c0-2.532,1.969-4.503,4.502-4.503h45.019c2.534,0,4.503,1.97,4.503,4.503V946.872z
			 M227.046,1000.897c0,2.531-1.971,4.501-4.503,4.501h-45.022c-2.531,0-4.501-1.969-4.501-4.501v-27.014
			c0-2.531,1.969-4.501,4.501-4.501h45.022c2.531,0,4.503,1.969,4.503,4.501V1000.897z M155.012,892.848
			c0,2.532-1.969,4.503-4.503,4.503H105.49c-2.532,0-4.502-1.97-4.502-4.503v-27.012c0-2.532,1.969-4.503,4.502-4.503h45.019
			c2.534,0,4.503,1.97,4.503,4.503V892.848z M227.046,946.872c0,2.534-1.971,4.503-4.503,4.503h-45.022
			c-2.531,0-4.501-1.969-4.501-4.503v-27.011c0-2.532,1.969-4.503,4.501-4.503h45.022c2.531,0,4.503,1.97,4.503,4.503V946.872z
			 M227.046,892.848c0,2.532-1.971,4.503-4.503,4.503h-45.022c-2.531,0-4.501-1.97-4.501-4.503v-27.012
			c0-2.532,1.969-4.503,4.501-4.503h45.022c2.531,0,4.503,1.97,4.503,4.503V892.848z M245.052,847.828
			c0-12.38-10.13-22.509-22.509-22.509H33.458c-12.381,0-22.51,10.129-22.51,22.509v153.069c0,12.381,10.129,22.511,22.51,22.511
			h189.085c12.379,0,22.509-10.13,22.509-22.511V847.828z"/>
	</g>
</g>
</svg>
