<?xml version="1.0" encoding="utf-8"?>
<!-- Generator: Adobe Illustrator 16.0.0, SVG Export Plug-In . SVG Version: 6.00 Build 0)  -->
<!DOCTYPE svg PUBLIC "-//W3C//DTD SVG 1.1//EN" "http://www.w3.org/Graphics/SVG/1.1/DTD/svg11.dtd">
<svg version="1.1" id="Layer_2" xmlns="http://www.w3.org/2000/svg" xmlns:xlink="http://www.w3.org/1999/xlink" x="0px" y="0px"
	 width="128px" height="128px" viewBox="0 0 128 128" enable-background="new 0 0 128 128" xml:space="preserve">
<g>
	<path fill="#58595B" d="M123.292,87.878c0,4.019-3.257,7.274-7.274,7.274H77.068c-4.019,0-7.275-3.258-7.275-7.274l0,0
		c0-4.019,3.258-7.274,7.275-7.274h38.947C120.035,80.604,123.292,83.859,123.292,87.878L123.292,87.878z"/>
	<g>
		<path fill="#58595B" d="M100.042,42.567c-0.194-0.299-4.896-7.426-12.952-14.58c-10.768-9.56-22.484-14.614-33.881-14.614
			c-11.398,0-23.114,5.054-33.883,14.614C11.271,35.141,6.57,42.268,6.373,42.567l-1.665,2.546l1.665,2.546
			c0.197,0.299,4.897,7.426,12.955,14.58c10.767,9.56,22.482,14.614,33.881,14.614c11.396,0,23.113-5.055,33.881-14.614
			c8.059-7.154,12.758-14.281,12.953-14.58l1.665-2.546L100.042,42.567z M85.285,46.753c-0.135,0.192-3.354,4.781-8.872,9.388
			c-7.374,6.155-15.398,9.41-23.204,9.41c-7.807,0-15.832-3.254-23.205-9.41c-5.52-4.607-8.738-9.196-8.873-9.388l-1.141-1.64
			l1.141-1.64c0.135-0.193,3.354-4.782,8.872-9.388c7.374-6.155,15.398-9.41,23.206-9.41c7.806,0,15.83,3.255,23.204,9.41
			c5.521,4.606,8.737,9.195,8.872,9.388l1.141,1.64L85.285,46.753z"/>
	</g>
	<path fill="#58595B" d="M70.025,45.682c0,9.289-7.529,16.818-16.817,16.818S36.39,54.97,36.39,45.682
		c0-9.288,7.53-16.818,16.818-16.818S70.025,36.393,70.025,45.682z M53.208,35.134c-5.825,0-10.548,4.723-10.548,10.548
		c0,5.825,4.723,10.548,10.548,10.548s10.548-4.723,10.548-10.548C63.756,39.857,59.033,35.134,53.208,35.134z"/>
	<circle fill="#58595B" cx="53.208" cy="45.682" r="6.017"/>
</g>
</svg>
