<?xml version="1.0" encoding="utf-8"?>
<!-- Generator: Adobe Illustrator 16.0.0, SVG Export Plug-In . SVG Version: 6.00 Build 0)  -->
<!DOCTYPE svg PUBLIC "-//W3C//DTD SVG 1.1//EN" "http://www.w3.org/Graphics/SVG/1.1/DTD/svg11.dtd">
<svg version="1.1" id="Layer_2" xmlns="http://www.w3.org/2000/svg" xmlns:xlink="http://www.w3.org/1999/xlink" x="0px" y="0px"
	 width="128px" height="128px" viewBox="0 0 128 128" enable-background="new 0 0 128 128" xml:space="preserve">
<g>
	<path fill="#58595B" d="M123.292,93.023c0,4.019-3.257,7.274-7.274,7.274H77.068c-4.019,0-7.275-3.257-7.275-7.274l0,0
		c0-4.019,3.258-7.274,7.275-7.274h38.947C120.035,85.749,123.292,89.006,123.292,93.023L123.292,93.023z"/>
	<path fill="#58595B" d="M96.542,119.773c-4.019,0-7.274-3.258-7.274-7.275V73.55c0-4.018,3.258-7.274,7.274-7.274l0,0
		c4.019,0,7.274,3.258,7.274,7.274v38.948C103.816,116.518,100.561,119.773,96.542,119.773L96.542,119.773z"/>
	<g>
		<path fill="#58595B" d="M100.042,47.713c-0.194-0.299-4.896-7.426-12.952-14.58C76.322,23.573,64.605,18.52,53.209,18.52
			c-11.398,0-23.114,5.054-33.883,14.614C11.271,40.287,6.57,47.414,6.373,47.713L4.708,50.26l1.665,2.546
			c0.197,0.299,4.897,7.426,12.955,14.581C30.095,76.945,41.811,82,53.209,82c11.396,0,23.113-5.055,33.881-14.613
			c8.059-7.155,12.758-14.282,12.953-14.581l1.665-2.546L100.042,47.713z M85.285,51.899c-0.135,0.192-3.354,4.781-8.872,9.388
			c-7.374,6.156-15.398,9.41-23.204,9.41c-7.807,0-15.832-3.254-23.205-9.41c-5.52-4.607-8.738-9.196-8.873-9.388l-1.141-1.64
			l1.141-1.64c0.135-0.193,3.354-4.782,8.872-9.388c7.374-6.155,15.398-9.41,23.206-9.41c7.806,0,15.83,3.255,23.204,9.41
			c5.521,4.606,8.737,9.195,8.872,9.388l1.141,1.64L85.285,51.899z"/>
	</g>
	<path fill="#58595B" d="M70.025,50.828c0,9.289-7.529,16.818-16.817,16.818S36.39,60.117,36.39,50.828S43.92,34.01,53.208,34.01
		S70.025,41.54,70.025,50.828z M53.208,40.28c-5.825,0-10.548,4.723-10.548,10.548c0,5.825,4.723,10.548,10.548,10.548
		s10.548-4.723,10.548-10.548C63.756,45.003,59.033,40.28,53.208,40.28z"/>
	<circle fill="#58595B" cx="53.208" cy="50.828" r="6.017"/>
</g>
</svg>
