<?xml version="1.0" encoding="utf-8"?>
<!-- Generator: Adobe Illustrator 16.0.0, SVG Export Plug-In . SVG Version: 6.00 Build 0)  -->
<!DOCTYPE svg PUBLIC "-//W3C//DTD SVG 1.1//EN" "http://www.w3.org/Graphics/SVG/1.1/DTD/svg11.dtd">
<svg version="1.1"
	 id="svg2" inkscape:export-ydpi="90" inkscape:export-xdpi="90" inkscape:export-filename="/home/daniel/cc/chaincoin/src/qt/res/icons/filesave.png" sodipodi:docname="filesave.svg" inkscape:version="0.91 r13725" xmlns:dc="http://purl.org/dc/elements/1.1/" xmlns:cc="http://creativecommons.org/ns#" xmlns:rdf="http://www.w3.org/1999/02/22-rdf-syntax-ns#" xmlns:svg="http://www.w3.org/2000/svg" xmlns:sodipodi="http://sodipodi.sourceforge.net/DTD/sodipodi-0.dtd" xmlns:inkscape="http://www.inkscape.org/namespaces/inkscape"
	 xmlns="http://www.w3.org/2000/svg" xmlns:xlink="http://www.w3.org/1999/xlink" x="0px" y="0px" width="128px" height="128px"
	 viewBox="0 0 128 128" enable-background="new 0 0 128 128" xml:space="preserve">
<sodipodi:namedview  units="px" inkscape:window-maximized="1" inkscape:window-y="25" inkscape:window-x="0" inkscape:window-height="718" inkscape:window-width="1366" inkscape:pageshadow="2" inkscape:current-layer="layer1" inkscape:document-units="px" inkscape:pageopacity="0.0" showgrid="false" inkscape:cy="18.360336" inkscape:cx="50.44253" inkscape:zoom="2" borderopacity="1.0" bordercolor="#666666" pagecolor="#ffffff" id="base">
	</sodipodi:namedview>
<g id="layer1" transform="translate(0,-924.36216)" inkscape:groupmode="layer" inkscape:label="Ebene 1">
	<g id="text3649" transform="matrix(0.47838723,0,0,0.47838723,2.7664346,546.15909)">
		<path id="path3336" inkscape:connector-curvature="0" fill="#58595B" d="M68.22,1023.995v-59.779h119.56v59.779H68.22z
			 M207.707,1023.995v-64.762c0-8.251-6.696-14.943-14.947-14.943H63.239c-8.251,0-14.946,6.692-14.946,14.943v64.762H28.367V824.73
			h19.926v64.761c0,8.25,6.695,14.945,14.946,14.945h89.67c8.251,0,14.945-6.694,14.945-14.945V824.73
			c3.113,0,9.184,2.49,11.364,4.67l43.746,43.745c2.021,2.024,4.669,8.406,4.669,11.364v139.486H207.707z M147.928,879.528
			c0,2.646-2.335,4.981-4.983,4.981h-29.89c-2.647,0-4.982-2.335-4.982-4.981v-49.817c0-2.647,2.335-4.981,4.982-4.981h29.89
			c2.648,0,4.983,2.334,4.983,4.981V879.528z M247.559,884.509c0-8.251-4.669-19.615-10.584-25.531l-43.589-43.589
			c-5.916-5.916-17.282-10.586-25.531-10.586H23.385c-8.251,0-14.945,6.694-14.945,14.945v209.231
			c0,8.251,6.694,14.943,14.945,14.943h209.231c8.251,0,14.943-6.692,14.943-14.943V884.509z"/>
	</g>
</g>
</svg>
