<?xml version="1.0" encoding="utf-8"?>
<!-- Generator: Adobe Illustrator 16.0.0, SVG Export Plug-In . SVG Version: 6.00 Build 0)  -->
<!DOCTYPE svg PUBLIC "-//W3C//DTD SVG 1.1//EN" "http://www.w3.org/Graphics/SVG/1.1/DTD/svg11.dtd">
<svg version="1.1"
	 id="Ebene_1" sodipodi:docname="hd_disabled.svg" inkscape:version="0.91 r13725" xmlns:dc="http://purl.org/dc/elements/1.1/" xmlns:cc="http://creativecommons.org/ns#" xmlns:rdf="http://www.w3.org/1999/02/22-rdf-syntax-ns#" xmlns:svg="http://www.w3.org/2000/svg" xmlns:sodipodi="http://sodipodi.sourceforge.net/DTD/sodipodi-0.dtd" xmlns:inkscape="http://www.inkscape.org/namespaces/inkscape"
	 xmlns="http://www.w3.org/2000/svg" xmlns:xlink="http://www.w3.org/1999/xlink" x="0px" y="0px" width="128px" height="128px"
	 viewBox="0 0 128 128" enable-background="new 0 0 128 128" xml:space="preserve">
<sodipodi:namedview  inkscape:window-maximized="1" inkscape:window-y="25" inkscape:window-x="0" inkscape:window-height="718" inkscape:window-width="1366" inkscape:pageshadow="2" inkscape:current-layer="Ebene_1" inkscape:pageopacity="0" objecttolerance="10" gridtolerance="10" guidetolerance="10" showgrid="false" inkscape:cy="112.83316" inkscape:cx="130.99248" inkscape:zoom="2.2425466" borderopacity="1" bordercolor="#666666" pagecolor="#ffffff" id="namedview23">
	</sodipodi:namedview>
<g id="g3355" transform="matrix(0.3239477,0,0,0.3239477,0.84639588,157.6021)">
	<g id="g3" transform="translate(0,-713.90002)">
		<path id="path5" inkscape:connector-curvature="0" fill="#58595B" d="M81.299,336.5v66.8H151.7v-66.8H190V510.5h-38.3v-75.099
			H81.301V510.5h-38.3V336.5C43.001,336.5,81.301,336.5,81.299,336.5z"/>
		<path id="path7" inkscape:connector-curvature="0" fill="#58595B" d="M298.699,336.5c11.202,0,21.602,1.8,31.3,5.401
			c9.701,3.599,18,8.899,25.102,16.099c7.096,7.2,12.598,16.099,16.598,26.799s5.999,23.301,5.999,37.801
			c0,12.697-1.598,24.4-4.899,35.099s-8.203,20.002-14.702,27.8c-6.599,7.799-14.799,13.9-24.599,18.401
			c-9.797,4.501-21.397,6.701-34.698,6.701H223.7V336.6h74.999V336.5z M295.998,478.301c5.502,0,10.901-0.901,16.104-2.701
			c5.197-1.8,9.797-4.799,13.897-8.899c4.1-4.103,7.301-9.499,9.701-16.2c2.4-6.701,3.702-14.799,3.702-24.4
			c0-8.801-0.901-16.701-2.602-23.8c-1.7-7.101-4.501-13.101-8.402-18.2c-3.901-5-9.098-8.901-15.501-11.6
			c-6.397-2.699-14.298-4-23.797-4h-27.3v109.702h34.197V478.301z"/>
	</g>
	<g id="g9" transform="translate(0,-713.90002)">
		<g id="g11">
			<line id="line13" fill="none" x1="32" y1="555.899" x2="358.002" y2="293.9"/>
		</g>
		<g id="g15">
			<path id="path17" inkscape:connector-curvature="0" fill="#58595B" d="M32,580.902c-7.3,0-14.601-3.201-19.501-9.303
				C3.9,560.801,5.6,545.101,16.301,536.5l326.001-262c10.798-8.599,26.498-6.899,35.099,3.8c8.601,10.801,6.9,26.501-3.801,35.1
				l-326,262C43.001,579.099,37.501,580.902,32,580.902z"/>
		</g>
		<g id="g19">
			<path id="path21" inkscape:connector-curvature="0" fill="#58595B" d="M32,573.902c-5.301,0-10.501-2.303-14.001-6.701
				c-6.199-7.702-5-19.1,2.801-25.301l326-261.999c7.802-6.199,19.1-5,25.298,2.801c6.204,7.699,5.001,19.099-2.797,25.3l-326,262
				C40,572.6,35.999,573.902,32,573.902z"/>
		</g>
	</g>
</g>
</svg>
