<?xml version="1.0" encoding="utf-8"?>
<!-- Generator: Adobe Illustrator 16.0.0, SVG Export Plug-In . SVG Version: 6.00 Build 0)  -->
<!DOCTYPE svg PUBLIC "-//W3C//DTD SVG 1.1//EN" "http://www.w3.org/Graphics/SVG/1.1/DTD/svg11.dtd">
<svg version="1.1"
	 id="Ebene_1" sodipodi:docname="hd_enabled.svg" inkscape:version="0.91 r13725" xmlns:dc="http://purl.org/dc/elements/1.1/" xmlns:cc="http://creativecommons.org/ns#" xmlns:rdf="http://www.w3.org/1999/02/22-rdf-syntax-ns#" xmlns:svg="http://www.w3.org/2000/svg" xmlns:sodipodi="http://sodipodi.sourceforge.net/DTD/sodipodi-0.dtd" xmlns:inkscape="http://www.inkscape.org/namespaces/inkscape"
	 xmlns="http://www.w3.org/2000/svg" xmlns:xlink="http://www.w3.org/1999/xlink" x="0px" y="0px" width="128px" height="128px"
	 viewBox="0 0 128 128" enable-background="new 0 0 128 128" xml:space="preserve">
<sodipodi:namedview  inkscape:window-maximized="1" inkscape:window-y="25" inkscape:window-x="0" inkscape:window-height="718" inkscape:window-width="1366" inkscape:pageshadow="2" inkscape:current-layer="Ebene_1" inkscape:pageopacity="0" objecttolerance="10" gridtolerance="10" guidetolerance="10" showgrid="false" inkscape:cy="100.17678" inkscape:cx="136.12702" inkscape:zoom="1.5857199" borderopacity="1" bordercolor="#666666" pagecolor="#ffffff" id="namedview9">
	</sodipodi:namedview>
<g id="g3" transform="matrix(0.33699677,0,0,0.34012768,-6.8872706,-80.061079)">
	<path id="path5" inkscape:connector-curvature="0" fill="#58595B" d="M81.3,336.499v66.8h70.4v-66.8H190V510.5h-38.299v-75.101
		H81.3V510.5H43V336.499H81.3z"/>
	<path id="path7" inkscape:connector-curvature="0" fill="#58595B" d="M298.699,336.499c11.2,0,21.6,1.8,31.302,5.401
		C339.698,345.5,348,350.8,355.1,358s12.6,16.1,16.602,26.799c3.999,10.701,5.999,23.301,5.999,37.8c0,12.699-1.6,24.402-4.9,35.1
		c-3.301,10.701-8.198,20-14.701,27.799c-6.601,7.801-14.799,13.902-24.6,18.401c-9.798,4.499-21.401,6.698-34.702,6.698H223.7
		V336.599h74.999V336.499z M295.998,478.3c5.5,0,10.902-0.899,16.1-2.702c5.202-1.797,9.8-4.798,13.901-8.898
		c4.1-4.1,7.3-9.501,9.699-16.202c2.399-6.698,3.701-14.798,3.701-24.399c0-8.8-0.901-16.7-2.599-23.799
		c-1.698-7.1-4.5-13.101-8.398-18.2c-3.901-5-9.102-8.901-15.503-11.599c-6.398-2.7-14.298-4.001-23.797-4.001h-27.303v109.7h34.2
		V478.3z"/>
</g>
</svg>
