<?xml version="1.0" encoding="utf-8"?>
<!-- Generator: Adobe Illustrator 16.0.0, SVG Export Plug-In . SVG Version: 6.00 Build 0)  -->
<!DOCTYPE svg PUBLIC "-//W3C//DTD SVG 1.1//EN" "http://www.w3.org/Graphics/SVG/1.1/DTD/svg11.dtd">
<svg version="1.1"
	 id="svg2" inkscape:export-ydpi="90" inkscape:export-xdpi="90" inkscape:export-filename="/home/daniel/cc/chaincoin/src/qt/res/icons/info.png" sodipodi:docname="info.svg" inkscape:version="0.91 r13725" xmlns:dc="http://purl.org/dc/elements/1.1/" xmlns:cc="http://creativecommons.org/ns#" xmlns:rdf="http://www.w3.org/1999/02/22-rdf-syntax-ns#" xmlns:svg="http://www.w3.org/2000/svg" xmlns:sodipodi="http://sodipodi.sourceforge.net/DTD/sodipodi-0.dtd" xmlns:inkscape="http://www.inkscape.org/namespaces/inkscape"
	 xmlns="http://www.w3.org/2000/svg" xmlns:xlink="http://www.w3.org/1999/xlink" x="0px" y="0px" width="128px" height="128px"
	 viewBox="0 0 128 128" enable-background="new 0 0 128 128" xml:space="preserve">
<sodipodi:namedview  units="px" inkscape:window-maximized="1" inkscape:window-y="25" inkscape:window-x="0" inkscape:window-height="718" inkscape:window-width="1366" inkscape:pageshadow="2" inkscape:current-layer="layer1" inkscape:document-units="px" inkscape:pageopacity="0.0" showgrid="false" inkscape:cy="102.64293" inkscape:cx="-15.677236" inkscape:zoom="2.8284271" borderopacity="1.0" bordercolor="#666666" pagecolor="#ffffff" id="base">
	</sodipodi:namedview>
<g id="layer1" transform="translate(0,-924.36216)" inkscape:groupmode="layer" inkscape:label="Ebene 1">
	<g id="text3649" transform="matrix(0.48185259,0,0,0.48185259,2.3228679,542.95584)">
		<path id="path3336" inkscape:connector-curvature="0" fill="#58595B" d="M169.054,1001.339c0,2.886-2.246,5.132-5.134,5.132
			H92.078c-2.887,0-5.133-2.246-5.133-5.132v-25.66c0-2.888,2.246-5.132,5.133-5.132h15.395V919.23H92.078
			c-2.887,0-5.133-2.246-5.133-5.132v-25.66c0-2.886,2.246-5.132,5.133-5.132h51.317c2.886,0,5.132,2.246,5.132,5.132v82.109h15.395
			c2.888,0,5.134,2.244,5.134,5.132V1001.339z M148.526,857.648c0,2.887-2.246,5.132-5.132,5.132h-30.79
			c-2.886,0-5.132-2.245-5.132-5.132v-25.659c0-2.886,2.246-5.132,5.132-5.132h30.79c2.886,0,5.132,2.246,5.132,5.132V857.648z
			 M251.161,924.361c0-67.996-55.166-123.162-123.161-123.162c-67.996,0-123.162,55.166-123.162,123.162
			c0,67.995,55.166,123.161,123.162,123.161C195.995,1047.523,251.161,992.357,251.161,924.361z"/>
	</g>
</g>
</svg>
