<?xml version="1.0" encoding="utf-8"?>
<!-- Generator: Adobe Illustrator 16.0.0, SVG Export Plug-In . SVG Version: 6.00 Build 0)  -->
<!DOCTYPE svg PUBLIC "-//W3C//DTD SVG 1.1//EN" "http://www.w3.org/Graphics/SVG/1.1/DTD/svg11.dtd">
<svg version="1.1"
	 id="svg2" inkscape:export-ydpi="90" inkscape:export-xdpi="90" inkscape:export-filename="/home/daniel/cc/chaincoin/src/qt/res/icons/lock_open.png" sodipodi:docname="lock_open.svg" inkscape:version="0.91 r13725" xmlns:dc="http://purl.org/dc/elements/1.1/" xmlns:cc="http://creativecommons.org/ns#" xmlns:rdf="http://www.w3.org/1999/02/22-rdf-syntax-ns#" xmlns:svg="http://www.w3.org/2000/svg" xmlns:sodipodi="http://sodipodi.sourceforge.net/DTD/sodipodi-0.dtd" xmlns:inkscape="http://www.inkscape.org/namespaces/inkscape"
	 xmlns="http://www.w3.org/2000/svg" xmlns:xlink="http://www.w3.org/1999/xlink" x="0px" y="0px" width="128px" height="128px"
	 viewBox="0 0 128 128" enable-background="new 0 0 128 128" xml:space="preserve">
<sodipodi:namedview  units="px" inkscape:window-maximized="1" inkscape:window-y="25" inkscape:window-x="0" inkscape:window-height="718" inkscape:window-width="1366" inkscape:pageshadow="2" inkscape:current-layer="layer1" inkscape:document-units="px" inkscape:pageopacity="0.0" showgrid="false" inkscape:cy="75.255646" inkscape:cx="-39.763191" inkscape:zoom="2" borderopacity="1.0" bordercolor="#666666" pagecolor="#ffffff" id="base">
	</sodipodi:namedview>
<g id="layer1" transform="translate(0,-924.36216)" inkscape:groupmode="layer" inkscape:label="Ebene 1">
	<g id="text3649" transform="matrix(0.48054379,0,0,0.48054379,2.4903955,544.16565)">
		<path id="path3336" inkscape:connector-curvature="0" fill="#58595B" d="M167.996,910.731v111.559H9.806V910.731h119.807v-26.186
			c0-16.261,5.621-30.012,16.859-41.251c11.478-11.239,25.23-16.859,41.252-16.859c16.024,0,29.774,5.62,41.252,16.859
			c11.478,11.239,17.217,24.99,17.217,41.251v26.186h-18.652v-26.186c0-11-3.947-20.326-11.838-27.978
			c-7.651-7.892-16.979-11.838-27.979-11.838c-10.761,0-20.088,3.946-27.979,11.838c-7.891,7.652-11.838,16.978-11.838,27.978
			v26.186H167.996L167.996,910.731z"/>
	</g>
</g>
</svg>
