<?xml version="1.0" encoding="utf-8"?>
<!-- Generator: Adobe Illustrator 16.0.0, SVG Export Plug-In . SVG Version: 6.00 Build 0)  -->
<!DOCTYPE svg PUBLIC "-//W3C//DTD SVG 1.1//EN" "http://www.w3.org/Graphics/SVG/1.1/DTD/svg11.dtd">
<svg version="1.1" id="Layer_1" xmlns="http://www.w3.org/2000/svg" xmlns:xlink="http://www.w3.org/1999/xlink" x="0px" y="0px"
	 width="256px" height="256px" viewBox="0 0 256 256" enable-background="new 0 0 256 256" xml:space="preserve">
<g>
	<path fill="#58595B" d="M56.022,242.482c-15.044,0-27.284-12.238-27.284-27.282V40.799c0-15.043,12.24-27.281,27.284-27.281
		h143.955c15.045,0,27.285,12.238,27.285,27.281V215.2c0,15.044-12.24,27.282-27.285,27.282H56.022z"/>
	<path fill="#FFFFFF" d="M199.977,18.518c12.311,0,22.285,9.976,22.285,22.281V215.2c0,12.304-9.975,22.282-22.285,22.282H56.022
		c-12.309,0-22.284-9.979-22.284-22.282V40.799c0-12.306,9.975-22.281,22.284-22.281H199.977 M199.977,8.518H56.022
		c-17.802,0-32.284,14.481-32.284,32.281V215.2c0,17.801,14.482,32.282,32.284,32.282h143.955c17.801,0,32.285-14.481,32.285-32.282
		V40.799C232.262,22.999,217.777,8.518,199.977,8.518L199.977,8.518z"/>
</g>
<g>
	<g>
		<g>
			<path fill="#58595B" d="M33.738,215.2c0,12.305,9.976,22.282,22.284,22.282h143.955c12.312,0,22.285-9.979,22.285-22.282V40.799
				c0-12.306-9.976-22.282-22.285-22.282H56.022c-12.309,0-22.284,9.976-22.284,22.282V215.2z"/>
		</g>
	</g>
	<path fill="#FFFFFF" d="M178.148,123.756c-12.113,0-22.815,6.025-29.295,15.236l-61.148-27.591c0.121-0.955,0.19-1.925,0.19-2.913
		c0-3.196-0.656-6.239-1.838-9.004l28.185-23.739c3.256,2.008,7.078,3.187,11.184,3.187c11.799,0,21.364-9.565,21.364-21.363
		c0-11.798-9.565-21.362-21.364-21.362s-21.363,9.564-21.363,21.362c0,2.809,0.556,5.483,1.542,7.939L77.422,89.244
		c-3.586-2.326-7.859-3.682-12.452-3.682c-12.663,0-22.925,10.268-22.925,22.926c0,12.66,10.262,22.927,22.925,22.927
		c6.866,0,13.023-3.023,17.225-7.807l61.146,27.59c-0.644,2.684-0.991,5.481-0.991,8.36c0,2.736,0.316,5.397,0.898,7.959
		l-32.979,14.43c-4.204-4.897-10.435-8.006-17.396-8.006c-12.662,0-22.923,10.268-22.923,22.928
		c0,12.658,10.261,22.925,22.923,22.925s22.924-10.267,22.924-22.925c0-0.896-0.057-1.78-0.157-2.65l32.978-14.429
		c6.452,9.401,17.271,15.571,29.532,15.571c19.776,0,35.806-16.032,35.806-35.803C213.954,139.788,197.926,123.756,178.148,123.756z
		"/>
</g>
</svg>
