<?xml version="1.0" encoding="utf-8"?>
<!-- Generator: Adobe Illustrator 16.0.0, SVG Export Plug-In . SVG Version: 6.00 Build 0)  -->
<!DOCTYPE svg PUBLIC "-//W3C//DTD SVG 1.1//EN" "http://www.w3.org/Graphics/SVG/1.1/DTD/svg11.dtd">
<svg version="1.1"
	 id="svg2" inkscape:export-ydpi="90" inkscape:export-filename="/home/daniel/cc/chaincoin/src/qt/res/icons/network.png" inkscape:export-xdpi="90" sodipodi:docname="network.svg" inkscape:version="0.91 r13725" xmlns:dc="http://purl.org/dc/elements/1.1/" xmlns:cc="http://creativecommons.org/ns#" xmlns:rdf="http://www.w3.org/1999/02/22-rdf-syntax-ns#" xmlns:svg="http://www.w3.org/2000/svg" xmlns:inkscape="http://www.inkscape.org/namespaces/inkscape" xmlns:sodipodi="http://sodipodi.sourceforge.net/DTD/sodipodi-0.dtd"
	 xmlns="http://www.w3.org/2000/svg" xmlns:xlink="http://www.w3.org/1999/xlink" x="0px" y="0px" width="256px" height="256px"
	 viewBox="0 0 256 256" enable-background="new 0 0 256 256" xml:space="preserve">
<g>
	<path fill="#59595C" d="M73.467,104.183c-1.27-0.935-2.583-1.81-3.968-2.581c-7.257,4.684-15.887,7.415-25.148,7.415
		c-9.263,0-17.893-2.731-25.151-7.415C10.165,106.632,3.458,115.296,1,125.618l56.576,56.576v-36.769
		C57.576,129.575,63.597,115.107,73.467,104.183z"/>
	<path fill="#59595C" d="M236.66,101.602c-7.258,4.684-15.889,7.415-25.15,7.415c-9.26,0-17.894-2.731-25.148-7.415
		c-1.237,0.687-2.418,1.457-3.562,2.275c10.036,10.96,16.169,25.551,16.169,41.548v36.771L255,126.166
		C252.652,115.6,245.855,106.721,236.66,101.602z"/>
	<path fill="#59595C" d="M137.379,96.628h-18.213c-26.947,0-48.794,21.849-48.794,48.796v49.563l57.902,57.904l57.899-57.9v-49.567
		C186.173,118.478,164.328,96.628,137.379,96.628z"/>
	<circle fill="#59595C" cx="128.273" cy="48.064" r="43.977"/>
	<path fill="#59595C" d="M10.625,62.498c0,18.625,15.097,33.723,33.725,33.723c18.625,0,33.724-15.098,33.724-33.723
		c0-18.625-15.098-33.724-33.724-33.724C25.722,28.774,10.625,43.873,10.625,62.498z"/>
	<circle fill="#59595C" cx="211.51" cy="62.498" r="33.723"/>
</g>
</svg>
