<?xml version="1.0" encoding="utf-8"?>
<!-- Generator: Adobe Illustrator 16.0.0, SVG Export Plug-In . SVG Version: 6.00 Build 0)  -->
<!DOCTYPE svg PUBLIC "-//W3C//DTD SVG 1.1//EN" "http://www.w3.org/Graphics/SVG/1.1/DTD/svg11.dtd">
<svg version="1.1" id="Layer_1" xmlns="http://www.w3.org/2000/svg" xmlns:xlink="http://www.w3.org/1999/xlink" x="0px" y="0px"
	 width="256px" height="256px" viewBox="0 0 256 256" enable-background="new 0 0 256 256" xml:space="preserve">
<g>
	<path fill="#58595B" d="M44.661,242.482c-15.045,0-27.285-12.239-27.285-27.283v-174.4c0-15.042,12.24-27.281,27.285-27.281
		h143.958c15.043,0,27.281,12.238,27.281,27.281v39.877h22.725v94.648H215.9v39.875c0,15.044-12.238,27.283-27.281,27.283H44.661z"
		/>
	<path fill="#FFFFFF" d="M188.619,18.518c12.305,0,22.281,9.974,22.281,22.281v44.877h22.725v84.648H210.9v44.875
		c0,12.304-9.977,22.283-22.281,22.283H44.661c-12.308,0-22.285-9.979-22.285-22.283v-174.4c0-12.306,9.976-22.281,22.285-22.281
		H188.619 M188.619,8.518H44.661c-17.802,0-32.285,14.481-32.285,32.281v174.4c0,17.801,14.483,32.283,32.285,32.283h143.958
		c17.8,0,32.281-14.482,32.281-32.283v-34.875h12.725h10v-10V85.676v-10h-10H220.9V40.799C220.9,22.999,206.419,8.518,188.619,8.518
		L188.619,8.518z"/>
</g>
<g>
	<g>
		<g>
			<path fill="#58595B" d="M22.376,215.199c0,12.305,9.977,22.283,22.285,22.283h143.958c12.306,0,22.281-9.979,22.281-22.283
				v-174.4c0-12.307-9.978-22.281-22.281-22.281H44.661c-12.309,0-22.285,9.975-22.285,22.281V215.199z"/>
		</g>
	</g>
	<g>
		<g>
			<polygon fill="#FFFFFF" points="229.167,90.134 165.113,90.134 165.113,45.738 96.528,128 165.113,210.26 165.113,165.863 
				229.167,165.863 			"/>
		</g>
		<g>
			<path fill="#58595B" d="M169.574,222.572L90.722,128l78.853-94.573v52.249h64.05v84.648h-64.05L169.574,222.572L169.574,222.572z
				 M102.334,128l58.322,69.949v-36.543h64.05V94.594h-64.05V58.05L102.334,128z"/>
		</g>
	</g>
</g>
</svg>
