<?xml version="1.0" encoding="utf-8"?>
<!-- Generator: Adobe Illustrator 16.0.0, SVG Export Plug-In . SVG Version: 6.00 Build 0)  -->
<!DOCTYPE svg PUBLIC "-//W3C//DTD SVG 1.1//EN" "http://www.w3.org/Graphics/SVG/1.1/DTD/svg11.dtd">
<svg version="1.1" id="Layer_1" xmlns="http://www.w3.org/2000/svg" xmlns:xlink="http://www.w3.org/1999/xlink" x="0px" y="0px"
	 width="256px" height="256px" viewBox="0 0 256 256" enable-background="new 0 0 256 256" xml:space="preserve">
<g>
	<path fill="#58595B" d="M43.983,242.48c-15.042,0-27.28-12.238-27.28-27.28V40.8c0-15.042,12.238-27.281,27.28-27.281h143.962
		c15.044,0,27.283,12.238,27.283,27.281v56.523L240.807,128l-25.578,30.678V215.2c0,15.042-12.238,27.28-27.283,27.28H43.983z"/>
	<path fill="#FFFFFF" d="M187.945,18.519c12.304,0,22.283,9.974,22.283,22.281v58.334L234.297,128l-24.068,28.867V215.2
		c0,12.304-9.979,22.28-22.283,22.28H43.983c-12.305,0-22.28-9.977-22.28-22.28V40.8c0-12.306,9.974-22.281,22.28-22.281H187.945
		 M187.945,8.519H43.983C26.184,8.519,11.703,23,11.703,40.8v174.4c0,17.8,14.48,32.28,32.28,32.28h143.962
		c17.801,0,32.283-14.48,32.283-32.28v-54.711l21.748-26.085l5.34-6.404l-5.34-6.404l-21.748-26.084V40.8
		C220.229,23,205.746,8.519,187.945,8.519L187.945,8.519z"/>
</g>
<g>
	<g>
		<g>
			<path fill="#58595B" d="M21.703,215.2c0,12.305,9.975,22.28,22.28,22.28h143.962c12.305,0,22.283-9.978,22.283-22.28V40.8
				c0-12.307-9.979-22.281-22.283-22.281H43.983c-12.306,0-22.28,9.975-22.28,22.281V215.2z"/>
		</g>
	</g>
	<g>
		<g>
			<polygon fill="#FFFFFF" points="95.854,90.137 159.906,90.137 159.906,45.738 228.488,128 159.906,210.264 159.906,165.864 
				95.854,165.864 			"/>
		</g>
		<g>
			<path fill="#58595B" d="M155.443,222.574v-52.249H91.395v-84.65h64.048V33.427L234.297,128L155.443,222.574z M100.313,161.406
				h64.05v36.545L222.686,128l-58.321-69.949v36.543h-64.049L100.313,161.406L100.313,161.406z"/>
		</g>
	</g>
</g>
</svg>
