<?xml version="1.0" encoding="utf-8"?>
<!-- Generator: Adobe Illustrator 16.0.0, SVG Export Plug-In . SVG Version: 6.00 Build 0)  -->
<!DOCTYPE svg PUBLIC "-//W3C//DTD SVG 1.1//EN" "http://www.w3.org/Graphics/SVG/1.1/DTD/svg11.dtd">
<svg version="1.1"
	 id="svg2" inkscape:export-ydpi="90" inkscape:export-xdpi="90" inkscape:export-filename="/home/daniel/cc/chaincoin/src/qt/res/icons/sign.png" sodipodi:docname="sign.svg" inkscape:version="0.91 r13725" xmlns:dc="http://purl.org/dc/elements/1.1/" xmlns:cc="http://creativecommons.org/ns#" xmlns:rdf="http://www.w3.org/1999/02/22-rdf-syntax-ns#" xmlns:svg="http://www.w3.org/2000/svg" xmlns:sodipodi="http://sodipodi.sourceforge.net/DTD/sodipodi-0.dtd" xmlns:inkscape="http://www.inkscape.org/namespaces/inkscape"
	 xmlns="http://www.w3.org/2000/svg" xmlns:xlink="http://www.w3.org/1999/xlink" x="0px" y="0px" width="128px" height="128px"
	 viewBox="0 0 128 128" enable-background="new 0 0 128 128" xml:space="preserve">
<sodipodi:namedview  units="px" inkscape:window-maximized="1" inkscape:window-y="25" inkscape:window-x="0" inkscape:window-height="718" inkscape:window-width="1366" inkscape:pageshadow="2" inkscape:current-layer="layer1" inkscape:document-units="px" inkscape:pageopacity="0.0" showgrid="false" inkscape:cy="40.470486" inkscape:cx="-124.24744" inkscape:zoom="1.4142136" borderopacity="1.0" bordercolor="#666666" pagecolor="#ffffff" id="base">
	</sodipodi:namedview>
<g id="layer1" transform="translate(0,-924.36216)" inkscape:groupmode="layer" inkscape:label="Ebene 1">
	<g id="text3649" transform="matrix(0.47407991,0,0,0.47407991,3.3177699,550.14064)">
		<path id="path3336" inkscape:connector-curvature="0" fill="#58595B" d="M112.083,893.01c5.145-7.716,9.004-15.005,11.576-21.865
			c2.573-6.86,4.181-12.541,4.823-17.043c0.643-4.502,2.359-10.182,5.146-17.042c2.999-7.075,7.181-14.471,12.541-22.187
			c2.142-3.001,5.036-4.824,8.68-5.467c0.643,0,1.395,0,2.251,0c2.787,0,5.467,0.858,8.04,2.573
			c2.357,1.715,3.965,4.287,4.822,7.717l12.541-17.685l38.908,28.296L91.503,1009.411l-56.914,37.301l18.007-65.917l58.522-80.068
			c-2.358,2.359-5.038,2.573-8.039,0.644c-1.285-0.858-2.143-2.144-2.572-3.859c-0.214-1.929,0.107-3.537,0.964-4.823
			c1.072-1.286,2.466-2.036,4.181-2.25c1.715-0.43,3.323-0.107,4.823,0.964C111.118,891.832,111.655,892.367,112.083,893.01
			L112.083,893.01z M83.465,1000.731L63.208,986.26l-9.004,33.764L83.465,1000.731z M117.871,891.402l39.874-55.307
			c-3.003,0.214-5.788-0.537-8.363-2.25c-4.929,7.502-9.859,16.613-14.79,27.331C129.875,871.895,124.302,881.971,117.871,891.402z"
			/>
	</g>
</g>
</svg>
