<?xml version="1.0" encoding="utf-8"?>
<!-- Generator: Adobe Illustrator 16.0.0, SVG Export Plug-In . SVG Version: 6.00 Build 0)  -->
<!DOCTYPE svg PUBLIC "-//W3C//DTD SVG 1.1//EN" "http://www.w3.org/Graphics/SVG/1.1/DTD/svg11.dtd">
<svg version="1.1"
	 id="svg2" inkscape:export-ydpi="90" inkscape:export-xdpi="90" inkscape:export-filename="/home/daniel/cc/chaincoin/src/qt/res/icons/transaction0.png" sodipodi:docname="transaction0.svg" inkscape:version="0.91 r13725" xmlns:dc="http://purl.org/dc/elements/1.1/" xmlns:cc="http://creativecommons.org/ns#" xmlns:rdf="http://www.w3.org/1999/02/22-rdf-syntax-ns#" xmlns:svg="http://www.w3.org/2000/svg" xmlns:sodipodi="http://sodipodi.sourceforge.net/DTD/sodipodi-0.dtd" xmlns:inkscape="http://www.inkscape.org/namespaces/inkscape"
	 xmlns="http://www.w3.org/2000/svg" xmlns:xlink="http://www.w3.org/1999/xlink" x="0px" y="0px" width="128px" height="128px"
	 viewBox="0 0 128 128" enable-background="new 0 0 128 128" xml:space="preserve">
<sodipodi:namedview  units="px" inkscape:window-maximized="1" inkscape:window-y="25" inkscape:window-x="0" inkscape:window-height="718" inkscape:window-width="1366" inkscape:pageshadow="2" inkscape:current-layer="layer1" inkscape:document-units="px" inkscape:pageopacity="0.0" showgrid="false" inkscape:cy="47.431402" inkscape:cx="-68.543543" inkscape:zoom="2" borderopacity="1.0" bordercolor="#666666" pagecolor="#ffffff" id="base">
	</sodipodi:namedview>
<g id="layer1" transform="translate(0,-924.36216)" inkscape:groupmode="layer" inkscape:label="Ebene 1">
	<g id="text3649" transform="matrix(0.48974684,0,0,0.48974674,1.3153413,535.65585)">
		<path id="path3336" inkscape:connector-curvature="0" fill="#58595B" d="M147.398,997.104c0,2.728-2.122,4.849-4.849,4.849
			h-29.097c-2.728,0-4.849-2.122-4.849-4.849v-29.097c0-2.728,2.122-4.849,4.849-4.849h29.097c2.728,0,4.849,2.122,4.849,4.849
			V997.104z M186.193,895.265c0,23.035-15.761,31.824-27.278,38.341c-7.123,4.092-11.517,11.517-11.517,15.003
			c0,2.728-2.122,4.849-4.849,4.849h-29.097c-2.728,0-4.849-2.122-4.849-4.849v-5.456c0-14.7,14.7-27.278,25.46-32.128
			c9.244-4.243,13.336-8.183,13.336-16.064c0-6.668-8.941-12.881-18.64-12.881c-5.456,0-10.457,1.819-13.033,3.637
			c-2.879,2.122-5.91,4.849-13.033,13.942c-0.909,1.212-2.425,1.819-3.789,1.819c-1.061,0-2.122-0.303-2.879-0.909L76.02,885.415
			c-1.97-1.515-2.576-4.243-1.212-6.365c13.033-21.671,31.521-32.279,56.223-32.279
			C157.097,846.771,186.193,867.533,186.193,895.265z M244.387,924.362c0-64.255-52.132-116.387-116.387-116.387
			S11.613,860.107,11.613,924.362S63.745,1040.749,128,1040.749S244.387,988.617,244.387,924.362z"/>
	</g>
</g>
</svg>
