<?xml version="1.0" encoding="utf-8"?>
<!-- Generator: Adobe Illustrator 16.0.0, SVG Export Plug-In . SVG Version: 6.00 Build 0)  -->
<!DOCTYPE svg PUBLIC "-//W3C//DTD SVG 1.1//EN" "http://www.w3.org/Graphics/SVG/1.1/DTD/svg11.dtd">
<svg version="1.1"
	 id="svg2" inkscape:export-ydpi="90" inkscape:export-xdpi="90" inkscape:export-filename="/home/daniel/cc/chaincoin/src/qt/res/icons/transactions.png" sodipodi:docname="transactions.svg" inkscape:version="0.91 r13725" xmlns:dc="http://purl.org/dc/elements/1.1/" xmlns:cc="http://creativecommons.org/ns#" xmlns:rdf="http://www.w3.org/1999/02/22-rdf-syntax-ns#" xmlns:svg="http://www.w3.org/2000/svg" xmlns:sodipodi="http://sodipodi.sourceforge.net/DTD/sodipodi-0.dtd" xmlns:inkscape="http://www.inkscape.org/namespaces/inkscape"
	 xmlns="http://www.w3.org/2000/svg" xmlns:xlink="http://www.w3.org/1999/xlink" x="0px" y="0px" width="512px" height="512px"
	 viewBox="0 0 512 512" enable-background="new 0 0 512 512" xml:space="preserve">
<sodipodi:namedview  units="px" inkscape:window-maximized="1" inkscape:window-y="25" inkscape:window-x="0" inkscape:window-height="718" inkscape:window-width="1366" inkscape:pageshadow="2" inkscape:current-layer="layer1" inkscape:document-units="px" inkscape:pageopacity="0.0" showgrid="false" inkscape:cy="149.703" inkscape:cx="63.630316" inkscape:zoom="0.7" borderopacity="1.0" bordercolor="#666666" pagecolor="#ffffff" id="base">
	</sodipodi:namedview>
<g id="layer1" transform="translate(0,-540.36219)" inkscape:groupmode="layer" inkscape:label="Ebene 1">
	<g id="text4136">
		<path id="path3336" fill="#58595B" d="M256.645,601.891c-53.233,0-98.739,18.889-136.517,56.667
			c-37.778,37.349-56.667,82.64-56.667,135.873c0,43.359,13.308,82.639,39.924,117.842l-36.061,27.689
			c-33.056-42.5-49.583-91.011-49.583-145.531c0-42.93,10.518-82.64,31.553-119.13c21.465-36.919,50.442-65.897,86.933-86.933
			c36.49-21.465,76.629-32.197,120.418-32.197c27.904,0,54.949,4.723,81.137,14.167l13.522-23.182l25.758,44.432l25.758,45.076
			H299.788l14.811-25.114C294.852,605.111,275.533,601.891,256.645,601.891L256.645,601.891z M445.319,649.543
			c32.627,42.5,48.94,90.152,48.94,142.956c0,44.217-10.519,84.786-31.554,121.706s-50.013,66.111-86.933,87.576
			c-36.49,21.036-76.2,31.554-119.129,31.554c-26.617,0-52.589-4.293-77.918-12.879l-14.811,25.113l-25.114-45.076l-25.758-45.075
			h102.387l-12.879,23.825c18.03,5.581,36.061,8.371,54.092,8.371c53.232-0.429,98.522-19.317,135.872-56.667
			c37.777-37.777,56.667-83.283,56.667-136.516c0-43.359-13.523-82.425-40.568-117.198L445.319,649.543L445.319,649.543z"/>
	</g>
</g>
</svg>
