<?xml version="1.0" encoding="utf-8"?>
<!-- Generator: Adobe Illustrator 16.0.0, SVG Export Plug-In . SVG Version: 6.00 Build 0)  -->
<!DOCTYPE svg PUBLIC "-//W3C//DTD SVG 1.1//EN" "http://www.w3.org/Graphics/SVG/1.1/DTD/svg11.dtd">
<svg version="1.1"
	 id="svg2" inkscape:export-ydpi="90" inkscape:export-xdpi="90" inkscape:export-filename="/home/daniel/cc/chaincoin/src/qt/res/icons/synced.png" sodipodi:docname="synced.svg" inkscape:version="0.91 r13725" xmlns:dc="http://purl.org/dc/elements/1.1/" xmlns:cc="http://creativecommons.org/ns#" xmlns:rdf="http://www.w3.org/1999/02/22-rdf-syntax-ns#" xmlns:svg="http://www.w3.org/2000/svg" xmlns:sodipodi="http://sodipodi.sourceforge.net/DTD/sodipodi-0.dtd" xmlns:inkscape="http://www.inkscape.org/namespaces/inkscape"
	 xmlns="http://www.w3.org/2000/svg" xmlns:xlink="http://www.w3.org/1999/xlink" x="0px" y="0px" width="128px" height="128px"
	 viewBox="0 0 128 128" enable-background="new 0 0 128 128" xml:space="preserve">
<sodipodi:namedview  units="px" inkscape:window-maximized="1" inkscape:window-y="25" inkscape:window-x="0" inkscape:window-height="718" inkscape:window-width="1366" inkscape:pageshadow="2" inkscape:current-layer="layer1" inkscape:document-units="px" inkscape:pageopacity="0.0" showgrid="false" inkscape:cy="59.741742" inkscape:cx="-156.99999" inkscape:zoom="1" borderopacity="1.0" bordercolor="#666666" pagecolor="#ffffff" id="base">
	</sodipodi:namedview>
<g id="layer1" transform="translate(0,-924.36216)" inkscape:groupmode="layer" inkscape:label="Ebene 1">
	<g id="text3649" transform="matrix(0.49792684,0,0,0.49792684,-1.1698003,526.99583)">
		<path id="path3336" inkscape:connector-curvature="0" fill="#58595B" d="M245.578,873c0-3.701-1.481-7.4-4.144-10.064
			l-20.126-20.127c-2.663-2.663-6.364-4.144-10.065-4.144c-3.699,0-7.398,1.481-10.063,4.144l-97.084,97.233l-43.51-43.66
			c-2.664-2.663-6.364-4.143-10.064-4.143s-7.4,1.48-10.063,4.143L20.33,916.511c-2.664,2.663-4.144,6.363-4.144,10.063
			c0,3.699,1.48,7.4,4.144,10.063l53.574,53.576l20.127,20.126c2.664,2.663,6.364,4.144,10.064,4.144c3.7,0,7.4-1.481,10.063-4.144
			l20.128-20.126l107.147-107.149C244.098,880.399,245.578,876.699,245.578,873z"/>
	</g>
</g>
</svg>
