<?xml version="1.0" encoding="utf-8"?>
<!-- Generator: Adobe Illustrator 16.0.0, SVG Export Plug-In . SVG Version: 6.00 Build 0)  -->
<!DOCTYPE svg PUBLIC "-//W3C//DTD SVG 1.1//EN" "http://www.w3.org/Graphics/SVG/1.1/DTD/svg11.dtd">
<svg version="1.1" id="Layer_1" xmlns="http://www.w3.org/2000/svg" xmlns:xlink="http://www.w3.org/1999/xlink" x="0px" y="0px"
	 width="256px" height="256px" viewBox="0 0 256 256" enable-background="new 0 0 256 256" xml:space="preserve">
<g>
	<path fill="#58595B" d="M148.438,90.799c0.065-0.065,0.141-0.11,0.209-0.172c-19.119-16.884-40.668-29.022-61.663-34.578
		c-0.131-0.033-0.262-0.052-0.386-0.049c-0.599-0.003-1.158,0.354-1.393,0.927c-0.293,0.702-0.024,1.501,0.629,1.887
		c16.587,9.714,35.247,24.186,53.37,41.292c0.112-0.138,0.211-0.285,0.339-0.412L148.438,90.799z"/>
	<path fill="#58595B" d="M199.951,169.021c-5.555-20.998-17.692-42.55-34.577-61.667c-0.063,0.069-0.11,0.148-0.177,0.215
		l-8.893,8.891c-0.125,0.128-0.275,0.226-0.41,0.338c17.11,18.126,31.578,36.786,41.295,53.37c0.281,0.477,0.783,0.746,1.306,0.746
		c0.194,0,0.387-0.038,0.58-0.114C199.768,170.509,200.145,169.75,199.951,169.021z"/>
	<path fill="#58595B" d="M139.543,107.568c-0.305-0.305-0.559-0.646-0.779-1.001L57.098,188.23c-1.466,1.463-1.464,3.836,0,5.295
		l5.378,5.38c1.461,1.46,3.829,1.46,5.293,0l81.667-81.666c-0.354-0.224-0.694-0.475-1-0.78L139.543,107.568z"/>
	<path fill="#58595B" d="M157.172,91.669l7.162,7.159c0.328-0.067,0.645-0.197,0.896-0.449l1.959-1.962
		c0.701-0.705,0.701-1.836,0.002-2.536l-5.069-5.073c-0.353-0.35-0.81-0.525-1.271-0.525c-0.459,0-0.92,0.176-1.27,0.525
		l-1.959,1.958C157.368,91.022,157.24,91.34,157.172,91.669z"/>
	<path fill="#58595B" d="M163.486,101.405l-8.896-8.893c-0.612-0.614-1.418-0.922-2.224-0.922c-0.805,0-1.605,0.305-2.219,0.919
		l-8.896,8.896c-1.229,1.227-1.229,3.222,0,4.449l8.894,8.893c0.612,0.614,1.418,0.921,2.225,0.921c0.805,0,1.607-0.307,2.225-0.921
		l8.889-8.891C164.715,104.627,164.715,102.632,163.486,101.405z"/>
</g>
</svg>
