<?xml version="1.0" encoding="utf-8"?>
<!-- Generator: Adobe Illustrator 16.0.0, SVG Export Plug-In . SVG Version: 6.00 Build 0)  -->
<!DOCTYPE svg PUBLIC "-//W3C//DTD SVG 1.1//EN" "http://www.w3.org/Graphics/SVG/1.1/DTD/svg11.dtd">
<svg version="1.1" id="Layer_1" xmlns="http://www.w3.org/2000/svg" xmlns:xlink="http://www.w3.org/1999/xlink" x="0px" y="0px"
	 width="256px" height="256px" viewBox="0 0 256 256" enable-background="new 0 0 256 256" xml:space="preserve">
<g>
	<g>
		<path fill="#58595B" d="M173.184,159.836v15.92c0,3.439-2.799,6.238-6.238,6.238h-22.928H80.776c-3.44,0-6.24-2.801-6.24-6.238
			v-5.494v-24.043V80.243c0-3.438,2.8-6.239,6.24-6.239h63.242V74h22.928c3.439,0,6.238,2.801,6.238,6.242v17.391l7.535,5.629
			l4.779,3.571v-26.59c0-10.245-8.309-18.551-18.553-18.551h-22.93h-6.605H80.776c-10.246,0-18.551,8.307-18.551,18.551v65.976
			v24.045v5.494c0,10.244,8.306,18.551,18.551,18.551h56.633h6.606h22.93c10.244,0,18.552-8.307,18.552-18.551v-25.123l-4.776,3.57
			L173.184,159.836z"/>
		<polygon fill="#58595B" points="173.184,144.119 185.498,134.921 193.775,128.736 193.775,128.732 185.498,122.548 
			173.184,113.349 160.747,104.059 160.747,116.425 110.38,116.425 110.38,128.736 110.38,141.046 160.747,141.046 160.747,153.41 
					"/>
	</g>
</g>
</svg>
