<?xml version="1.0" encoding="utf-8"?>
<!-- Generator: Adobe Illustrator 16.0.0, SVG Export Plug-In . SVG Version: 6.00 Build 0)  -->
<!DOCTYPE svg PUBLIC "-//W3C//DTD SVG 1.1//EN" "http://www.w3.org/Graphics/SVG/1.1/DTD/svg11.dtd">
<svg version="1.1"
	 id="svg2" inkscape:export-ydpi="90" inkscape:export-xdpi="90" inkscape:export-filename="/home/daniel/cc/chaincoin/src/qt/res/icons/verify.png" sodipodi:docname="verify.svg" inkscape:version="0.91 r13725" xmlns:dc="http://purl.org/dc/elements/1.1/" xmlns:cc="http://creativecommons.org/ns#" xmlns:rdf="http://www.w3.org/1999/02/22-rdf-syntax-ns#" xmlns:svg="http://www.w3.org/2000/svg" xmlns:sodipodi="http://sodipodi.sourceforge.net/DTD/sodipodi-0.dtd" xmlns:inkscape="http://www.inkscape.org/namespaces/inkscape"
	 xmlns="http://www.w3.org/2000/svg" xmlns:xlink="http://www.w3.org/1999/xlink" x="0px" y="0px" width="128px" height="128px"
	 viewBox="0 0 128 128" enable-background="new 0 0 128 128" xml:space="preserve">
<sodipodi:namedview  units="px" inkscape:window-maximized="1" inkscape:window-y="25" inkscape:window-x="0" inkscape:window-height="718" inkscape:window-width="1366" inkscape:pageshadow="2" inkscape:current-layer="layer1" inkscape:document-units="px" inkscape:pageopacity="0.0" showgrid="false" inkscape:cy="-2.2132798" inkscape:cx="-181.91483" inkscape:zoom="1.4142136" borderopacity="1.0" bordercolor="#666666" pagecolor="#ffffff" id="base">
	</sodipodi:namedview>
<g id="layer1" transform="translate(0,-924.36216)" inkscape:groupmode="layer" inkscape:label="Ebene 1">
	<g id="text3649" transform="matrix(0.46900136,0,0,0.46900136,3.967825,554.83504)">
		<path id="path3336" inkscape:connector-curvature="0" fill="#58595B" d="M127.821,853.785c10.007,0,21.085,2.502,33.234,7.504
			c12.15,4.765,23.348,10.602,33.592,17.51c10.245,6.909,19.654,13.818,28.231,20.726c8.814,6.671,15.841,12.508,21.085,17.511
			l7.504,7.146l-7.862,7.862c-3.573,3.096-10.363,8.695-20.368,16.795c-10.007,8.1-19.775,15.248-29.305,21.443
			c-9.291,6.193-20.131,11.91-32.52,17.153c-12.387,5.001-23.583,7.504-33.59,7.504c-12.627,0-25.61-2.382-38.951-7.148
			c-13.342-5.004-24.896-10.959-34.664-17.867c-9.529-6.909-18.226-13.818-26.087-20.726c-7.624-6.909-13.461-12.747-17.51-17.511
			l-6.075-7.504c1.429-1.905,3.454-4.407,6.075-7.504c2.859-3.096,8.695-8.695,17.51-16.795c8.815-8.1,17.749-15.247,26.801-21.442
			c9.053-6.195,20.251-11.793,33.591-16.796C102.092,856.406,115.195,853.785,127.821,853.785L127.821,853.785z M96.732,955.632
			c8.815,8.339,19.178,12.508,31.09,12.508c12.152,0,22.513-4.169,31.092-12.508c8.812-8.577,13.222-18.94,13.222-31.09
			c0-12.389-4.41-22.752-13.222-31.091c-8.579-8.576-18.94-12.865-31.092-12.865c-11.911,0-22.275,4.289-31.09,12.865
			c-8.577,8.338-12.865,18.701-12.865,31.091C83.867,936.692,88.155,947.055,96.732,955.632z M109.954,906.316
			c5.004-5.003,11.078-7.504,18.226-7.504c7.146,0,13.222,2.502,18.224,7.504c5.006,5.004,7.504,11.078,7.504,18.226
			c0,6.909-2.499,12.864-7.504,17.867c-5.001,5.004-11.077,7.504-18.224,7.504c-7.147,0-13.222-2.501-18.226-7.504
			c-5.003-5.004-7.504-10.959-7.504-17.867C102.449,917.395,104.951,911.32,109.954,906.316z"/>
	</g>
</g>
</svg>
