/* XPM */
static const char * bitcoin16_xpm[] = {
/* columns rows colors chars-per-pixel */
"16 16 181 2",
"   c #775605",
".  c #745507",
"X  c #785806",
"o  c #7D5A06",
"O  c #745508",
"+  c #755508",
"@  c #755608",
"#  c #775708",
"$  c #77580B",
"%  c #7A5A0B",
"&  c #7D5E14",
"*  c #86630D",
"=  c #8D6B16",
"-  c #886818",
";  c #927019",
":  c #91701E",
">  c #9A751E",
",  c #957627",
"<  c #9A7925",
"1  c #987827",
"2  c #98782B",
"3  c #9D7C2F",
"4  c #9E7E31",
"5  c #A57D22",
"6  c #A88227",
"7  c #B78D2E",
"8  c #B78F2E",
"9  c #A78430",
"0  c #A48733",
"q  c #A68536",
"w  c #A98937",
"e  c #B98F31",
"r  c #B49233",
"t  c #B39337",
"y  c #C09837",
"u  c #C39936",
"i  c #C49936",
"p  c #C69C39",
"a  c #C89C3A",
"s  c #CCA23A",
"d  c #AF9240",
"f  c #B99644",
"g  c #BE9C46",
"h  c #BF9D4A",
"j  c #BA9F58",
"k  c #BEA04B",
"l  c #BBA253",
"z  c #BAA057",
"x  c #C29E44",
"c  c #C2A144",
"v  c #CAA246",
"b  c #CCA344",
"n  c #CEA645",
"m  c #C2A04A",
"M  c #C7A349",
"N  c #C5A34A",
"B  c #C7A64D",
"V  c #CFA649",
"C  c #CEAA4C",
"Z  c #D1A84B",
"A  c #D4AC49",
"S  c #D5AC49",
"D  c #D7AD48",
"F  c #D5AF4D",
"G  c #C0A451",
"H  c #CAA550",
"J  c #CBAA58",
"K  c #CAAD5D",
"L  c #D9AD53",
"P  c #DFB757",
"I  c #D5B058",
"U  c #D7B75D",
"Y  c #DCB75A",
"T  c #DFBB5E",
"R  c #E1B957",
"E  c #E3B759",
"W  c #E6BC5B",
"Q  c #E7BE5D",
"!  c #E5BC5E",
"~  c #CAAE62",
"^  c #C8AF6A",
"/  c #CDB565",
"(  c #CDB46D",
")  c #D7B360",
"_  c #D5B862",
"`  c #D1B66C",
"'  c #D8BB68",
"]  c #DBBA6E",
"[  c #DFBE6D",
"{  c #D0B872",
"}  c #D2B974",
"|  c #DABF74",
" . c #D8BF77",
".. c #D6BD79",
"X. c #D5BE7B",
"o. c #D7BF7A",
"O. c #E8BC61",
"+. c #DDC075",
"@. c #DCC279",
"#. c #DCC47E",
"$. c #EDC661",
"%. c #EEC562",
"&. c #E0C16B",
"*. c #E0C36B",
"=. c #E3C26A",
"-. c #E7C26A",
";. c #E3C569",
":. c #E3C26C",
">. c #E4C16C",
",. c #EEC969",
"<. c #F4C664",
"1. c #F0CA68",
"2. c #F7CA68",
"3. c #F6CD69",
"4. c #F7CD69",
"5. c #F7CF68",
"6. c #E6C374",
"7. c #E1C47A",
"8. c #E1C77B",
"9. c #E5C578",
"0. c #E4C579",
"q. c #E4C67A",
"w. c #E5C67C",
"e. c #E8C57B",
"r. c #E8CB7B",
"t. c #EDCC78",
"y. c #EBCB7C",
"u. c #F0CF73",
"i. c #F6CF74",
"p. c #F4D173",
"a. c #F7D072",
"s. c #F5D376",
"d. c #FAD071",
"f. c #FBD470",
"g. c #FAD572",
"h. c #FDD671",
"j. c #FDD773",
"k. c #F3DB76",
"l. c #F8D578",
"z. c #FBDB79",
"x. c #FFE57E",
"c. c #DEC681",
"v. c #DFC782",
"b. c #E0C682",
"n. c #E1C984",
"m. c #E2C985",
"M. c #E3CB87",
"N. c #E9C980",
"B. c #EBCC82",
"V. c #E3CC88",
"C. c #E4CF8D",
"Z. c #EFD187",
"A. c #EFD488",
"S. c #EFD58D",
"D. c #F6D581",
"F. c #F1D687",
"G. c #F9D680",
"H. c #F7DA8B",
"J. c #F2DE93",
"K. c #FADF93",
"L. c #F3DB98",
"P. c #F0DB9B",
"I. c #FEE081",
"U. c #FEE18C",
"Y. c #FCE38F",
"T. c #F7E98E",
"R. c #FFE88C",
"E. c #F6E491",
"W. c #FBEA91",
"Q. c #FFE897",
"!. c #FFEE9A",
"~. c #FEE99D",
"^. c #FEEC9F",
"/. c #FEF092",
"(. c #FFF29A",
"). c #FBE7A9",
"_. c #F4EDA8",
"`. c #FAEBAA",
"'. c #FEEBAD",
"]. c #FEFABD",
"[. c None",
/* pixels */
"[.[.[.[.[.3 f M m q [.[.[.[.[.[.",
"[.[.[.4 A 5.j.f.3.3.! 6 [.[.[.[.",
"[.[.9 %.h.%.D s n -.z.l.c % [.[.",
"[.1 1.g.S p i i C 6.7.W./.t [.[.",
"[._ U.Z e 7 7 y B | #.*.T.k.* [.",
", E.F.c.).).C.g K `.`.C.' x.r + ",
"d !.y.M.).j '.( ).L.h M I z.F + ",
"G (.t.M.'.'.C.j ).b.T Q O.d.R X ",
"k T.O.M.`.^ `.X.).V.;.! L i.E   ",
"w I.6.c.'.).C.{ c.).).C.H d.v + ",
"[.,.u.~ } X.@.@.|  .#.` V 2.5   ",
"[.x p.U J ] B.Z.9.) v a <.E o [.",
"[.[.Y s.-.[ 0.0.N.e.w.H.D.> + [.",
"[.[.2 &.).Y.A.S.L.`.]._.0 . [.[.",
"[.[.[.[.l r.Y.Q.~.J./ = $ [.[.[.",
"[.[.[.[.[.[.: 1 ; - & [.[.[.[.[."
};
