/* XPM */
static const char * bitcoin32_xpm[] = {
/* columns rows colors chars-per-pixel */
"32 32 194 2",
"   c #745305",
".  c #785704",
"X  c #7C5903",
"o  c #75560B",
"O  c #77590F",
"+  c #7C5C0B",
"@  c #795B12",
"#  c #7F631D",
"$  c #825E07",
"%  c #825F0B",
"&  c #85610A",
"*  c #8C660C",
"=  c #8E680E",
"-  c #916B0F",
";  c #856515",
":  c #8B6714",
">  c #8F6A16",
",  c #816218",
"<  c #88691C",
"1  c #926D12",
"2  c #936F1C",
"3  c #997417",
"4  c #94721E",
"5  c #9B761C",
"6  c #9F781C",
"7  c #A17B1E",
"8  c #826622",
"9  c #916E20",
"0  c #967425",
"q  c #9D7420",
"w  c #9C7923",
"e  c #997728",
"r  c #99792C",
"t  c #A37D23",
"y  c #A37F2C",
"u  c #A68125",
"i  c #AB8225",
"p  c #A5832B",
"a  c #AA852C",
"s  c #B28A2C",
"d  c #A58233",
"f  c #AC8734",
"g  c #AE8C33",
"h  c #AC8C3C",
"j  c #B28C33",
"k  c #B98E34",
"l  c #B28D3D",
"z  c #B59136",
"x  c #BC9335",
"c  c #B3913E",
"v  c #BC933A",
"b  c #BF9A3D",
"n  c #C19235",
"m  c #C2953C",
"M  c #C39B3C",
"N  c #CA9C3D",
"B  c #B59343",
"V  c #BE9642",
"C  c #B69A44",
"Z  c #BD9A45",
"A  c #B49649",
"S  c #BB9A49",
"D  c #BB9F52",
"F  c #BFA256",
"G  c #C49C43",
"H  c #CA9D41",
"J  c #C59D4A",
"K  c #C99E4D",
"L  c #C3A144",
"P  c #CDA244",
"I  c #CFAA47",
"U  c #C3A14D",
"Y  c #CDA24A",
"T  c #CCAB49",
"R  c #D2A644",
"E  c #D2A54B",
"W  c #D6AA4C",
"Q  c #DAAE4E",
"!  c #DAB04F",
"~  c #C7A656",
"^  c #CDA452",
"/  c #CFAC52",
"(  c #C0A65E",
")  c #CEA75A",
"_  c #CCAC59",
"`  c #D2AB53",
"'  c #DCAF52",
"]  c #D6AD5A",
"[  c #D9AE5B",
"{  c #DCB556",
"}  c #DFB855",
"|  c #D6B25F",
" . c #DCB35C",
".. c #DEBE5E",
"X. c #E2B656",
"o. c #E1B55A",
"O. c #E6BC5D",
"+. c #E9BD5E",
"@. c #C3AA63",
"#. c #CCAD62",
"$. c #D4AF62",
"%. c #CDB565",
"&. c #CEB46D",
"*. c #D7B164",
"=. c #DBB362",
"-. c #D6BD64",
";. c #DDBA64",
":. c #D3B66C",
">. c #DFB86B",
",. c #CEB772",
"<. c #D0B771",
"1. c #D4BA73",
"2. c #D9BE77",
"3. c #D6BE79",
"4. c #D8BF7A",
"5. c #E4BB62",
"6. c #E9BF64",
"7. c #E4BC69",
"8. c #E9BF69",
"9. c #E0BB71",
"0. c #E9C05E",
"q. c #D2C279",
"w. c #DBC27C",
"e. c #E2C667",
"r. c #EDC364",
"t. c #E3C16E",
"y. c #ECC46C",
"u. c #EDCC6C",
"i. c #F1C764",
"p. c #F5CA66",
"a. c #F9CD67",
"s. c #F5CC6A",
"d. c #F9CD6B",
"f. c #FBD36F",
"g. c #EDC572",
"h. c #E5CF77",
"j. c #ECCA74",
"k. c #E0C67E",
"l. c #EFCE78",
"z. c #F6CE72",
"x. c #FBCF71",
"c. c #F4CE79",
"v. c #F4D273",
"b. c #FCD473",
"n. c #F4DC75",
"m. c #FEDA74",
"M. c #F6D77C",
"N. c #FBD47A",
"B. c #F1DA7B",
"V. c #FDDA7C",
"C. c #FEE27D",
"Z. c #DDC683",
"A. c #DFC884",
"S. c #E4CA84",
"D. c #E3CC89",
"F. c #E7D183",
"G. c #EFD280",
"H. c #EFDC82",
"J. c #ECD48D",
"K. c #EFDA8C",
"L. c #F9D783",
"P. c #F2DF83",
"I. c #FCDB83",
"U. c #F5DC8F",
"Y. c #FADD8B",
"T. c #EBD593",
"R. c #EFDA99",
"E. c #F3DD93",
"W. c #F3DF9F",
"Q. c #FFE385",
"!. c #FEE986",
"~. c #FDE48C",
"^. c #FEEC8E",
"/. c #ECE199",
"(. c #F6E591",
"). c #FEE494",
"_. c #FEEB93",
"`. c #FEE69A",
"'. c #FFEB9B",
"]. c #FFF197",
"[. c #FFF39B",
"{. c #FEF99B",
"}. c #F6E2A2",
"|. c #F9E5A5",
" X c #F7E9A5",
".X c #FEECA4",
"XX c #FBE7A8",
"oX c #FDEAAB",
"OX c #F7F2AA",
"+X c #FEF2AC",
"@X c #FDF4B4",
"#X c #FFFABA",
"$X c #FFFEC2",
"%X c None",
/* pixels */
"%X%X%X%X%X%X%X%X%X%X%X%Xp t 6 5 w t w %X%X%X%X%X%X%X%X%X%X%X%X%X",
"%X%X%X%X%X%X%X%X%Xu u x I X.0.s.u.0.W x 7 4 %X%X%X%X%X%X%X%X%X%X",
"%X%X%X%X%X%X%Xy i I i.a.f.m.m.b.f.s.a.s.i.W 7 > %X%X%X%X%X%X%X%X",
"%X%X%X%X%X%Xt M 0.a.m.m.m.m.f.d.p.p.p.f.d.f.i.b 1 < %X%X%X%X%X%X",
"%X%X%X%X%X7 ! d.f.f.m.f.+.W P R I Q 5.v.V.V.z.f.{ 5 + %X%X%X%X%X",
"%X%X%X%Xu X.f.m.m.f.' H s ~ V y _ Z J o.g.L.L.Q.!.e.5 X %X%X%X%X",
"%X%X%Xu X.b.C.m.+.N m n t }.3.> }.w.V 5.y.y.Y.[.^.^.-.1 + %X%X%X",
"%X%Xt P m.N.m.X.v v v k 6 }.1.: /.4.c 7.N.N.v.!.{.{.^.L & %X%X%X",
"%X%Xg Y.Y.V.+.m k a t t : }.1.% }.1.r | l.B.M.b.!.{.^.n.7 X %X%X",
"%Xp -._.'.Y.' Y n D.}.}.|.oXXX|.oX XT.w.F _ j.v.v._.^.C.T & @ %X",
"%Xa (.'.'.9.[ [ K S.}.oXoXoXoXXXoXoXoXoX XD / s.d.v.!.C.v.3 o %X",
"%XU '.'.Y.[ [ [ [ J f <.oXoX( 2 f S J.oXoXT.j r.s.i.C.C.C.z X %X",
"p e.'.'.F. .=.=.=.=.) 1.oXoX@.f  . .F oXoX}.a +.i.i.b.C.m.I X O ",
"u w.'.[.j.5.8.7.7.7.] 2.oXoX@.y W c &.oXoXZ.k r.s.i.s.V.m.} = o ",
"u H.[.{.y.8.y.g.8.g.7.2.oXoXA.@.&.D.oXoXT.e G +.O.O.5.V.m.0.- o ",
"u !.].[.r.8.y.g.g.g.7.4.oXoXoXoXoXoXoXoXoX<.y W X.o.o.m.m.0.- o ",
"u B._._.5.5.8.y.g.c.g.w.oXoX,.h A F <..XoXoX1.k ' ' ' V.N.r.-   ",
"u u.Q.~.r.6.z.N.V.I.v.k.oXoX@.B | _ c 1.oXoX}.a ' ' O.I.b.O.= o ",
"u ..Q.Q.v.i.s.c.N.L.l.Z.oXoX@.B t.=.S &.oXoXXXy Y R +.N.b.Q % o ",
"t T C.I.I.6.u.z.z.5.S 1.oXoX@.e B h D |.oXoXS.f Y Y 6.d.d.n X O ",
"%Xs m.V.Q.r.r.z.5.<.}.oXoXoXXXW.}.oXoXoXoXW.h G H R a.p.s.7   %X",
"%X7 O.V.V.v.+.r.` 4.oXoXoXoXoXoXoXoXXXR.<.h v N N o.a.p.Q =   %X",
"%Xw x v.v.v.r.+. .Z l d e }.Z.r }.3.d l V G n n R a.s.a.s X O %X",
"%X%X6 { v.l.v.+.O.5.=.^ d }.4.9 }.1.f J G m m G d.d.x.Q =   %X%X",
"%X%X%Xs u.v.v.v.r.6.o. .l }.4.9 W.4.l ^ ^ J ) c.N.N.y.7 X O %X%X",
"%X%X%X5 z v.v.M.I.g.;. .J 1.#.B 1.#.) 7.$.S..X'.W.Y.j $   %X%X%X",
"%X%X%X%X5 b N.Y.~.).Y.j.5.$.=.=.$.*.2.J.@X$X#X#XoXC $   %X%X%X%X",
"%X%X%X%X%X3 z U.@X+X`.`.`.(.E.E.E.|.@X@X#X#X#X/.j %   %X%X%X%X%X",
"%X%X%X%X%X%Xw a q.OX|.).`._.'.'.XX.X.X+X+X X%.w X o %X%X%X%X%X%X",
"%X%X%X%X%X%X%X%Xw a _ j.~.~.).).`.`.`.F._ t & . # %X%X%X%X%X%X%X",
"%X%X%X%X%X%X%X%X%X%X4 3 t z L U Z z t 1 $ . 8 %X%X%X%X%X%X%X%X%X",
"%X%X%X%X%X%X%X%X%X%X%X%X%X< ; & + + , 8 %X%X%X%X%X%X%X%X%X%X%X%X"
};
