/* XPM */
static const char * bitcoin48_xpm[] = {
/* columns rows colors chars-per-pixel */
"48 48 224 2",
"   c #715103",
".  c #735203",
"X  c #735204",
"o  c #745405",
"O  c #755506",
"+  c #775606",
"@  c #785707",
"#  c #7A5806",
"$  c #7C5905",
"%  c #7D5A05",
"&  c #7E5B05",
"*  c #7F5C07",
"=  c #7E5C0A",
"-  c #7B5C11",
";  c #7C5D13",
":  c #7D5E15",
">  c #805C05",
",  c #805C06",
"<  c #8B6813",
"1  c #8D6912",
"2  c #8F6A12",
"3  c #896816",
"4  c #806219",
"5  c #82631A",
"6  c #876719",
"7  c #84651B",
"8  c #906C13",
"9  c #916D15",
"0  c #936F18",
"q  c #94701B",
"w  c #95721B",
"e  c #98731A",
"r  c #99741B",
"t  c #99751E",
"y  c #9A761F",
"u  c #9B7822",
"i  c #9F7A21",
"p  c #9D7922",
"a  c #A27C20",
"s  c #A47E21",
"d  c #A67F22",
"f  c #9E8038",
"g  c #9E803B",
"h  c #9E813C",
"j  c #9F833D",
"k  c #A68023",
"l  c #A78124",
"z  c #A98326",
"x  c #AA8427",
"c  c #A7832B",
"v  c #A7832C",
"b  c #A6832D",
"n  c #A98429",
"m  c #A8842B",
"M  c #AD892F",
"N  c #AE8A2F",
"B  c #AF8A2F",
"V  c #B28B2E",
"C  c #B48C2E",
"Z  c #B68E2F",
"A  c #B78E2F",
"S  c #A38232",
"D  c #A08136",
"F  c #AC8931",
"G  c #AB8934",
"H  c #AA8836",
"J  c #AA8937",
"K  c #A1843F",
"L  c #A2853F",
"P  c #AB8A39",
"I  c #AB8B3A",
"U  c #AD8C3C",
"Y  c #AE8E3E",
"T  c #B89030",
"R  c #BA9131",
"E  c #BC9332",
"W  c #BE9533",
"Q  c #C09733",
"!  c #C29834",
"~  c #C39934",
"^  c #C39935",
"/  c #C39A37",
"(  c #C39A38",
")  c #C49A38",
"_  c #C49B38",
"`  c #C59C3A",
"'  c #C69E3C",
"]  c #C69E3E",
"[  c #C79F3F",
"{  c #A48640",
"}  c #A58741",
"|  c #A68842",
" . c #A78A43",
".. c #AA8D45",
"X. c #AD9046",
"o. c #B19040",
"O. c #B59443",
"+. c #B29447",
"@. c #B79745",
"#. c #B79847",
"$. c #B89846",
"%. c #B69748",
"&. c #C8A040",
"*. c #CAA241",
"=. c #CBA343",
"-. c #C9A346",
";. c #CBA445",
":. c #C7A44D",
">. c #C5A44F",
",. c #C9A448",
"<. c #C9A44A",
"1. c #C5A551",
"2. c #C4A554",
"3. c #CBAA57",
"4. c #CDAA57",
"5. c #C3A559",
"6. c #C4A65A",
"7. c #C7A85A",
"8. c #D0AB55",
"9. c #D2AD56",
"0. c #D4AE57",
"q. c #D4AF58",
"w. c #D5B05A",
"e. c #D5B15C",
"r. c #D5B25E",
"t. c #DFB65A",
"y. c #DEB75B",
"u. c #E1B759",
"i. c #E2B95B",
"p. c #E4BA5C",
"a. c #E4BC5F",
"s. c #D4B567",
"d. c #D8B764",
"f. c #D5B769",
"g. c #D4B76A",
"h. c #D4B86B",
"j. c #E5BD61",
"k. c #E6BE62",
"l. c #E6BF63",
"z. c #E0BF6F",
"x. c #E7C063",
"c. c #EAC263",
"v. c #EDC563",
"b. c #EBC364",
"n. c #EEC565",
"m. c #EEC767",
"M. c #E1C06F",
"N. c #EBC76D",
"B. c #EEC869",
"V. c #F7CD6A",
"C. c #F6CD6B",
"Z. c #F4CE6F",
"A. c #F8CD6A",
"S. c #F9CF6E",
"D. c #FAD16F",
"F. c #E1C071",
"G. c #E4C370",
"H. c #E1C174",
"J. c #E0C276",
"K. c #E1C377",
"L. c #E8C670",
"P. c #E2C479",
"I. c #E0C47A",
"U. c #E2C57C",
"Y. c #E3C77E",
"T. c #F3D073",
"R. c #FBD270",
"E. c #FCD572",
"W. c #FCD674",
"Q. c #FDD774",
"!. c #FED876",
"~. c #FED977",
"^. c #F2D278",
"/. c #F1D37B",
"(. c #FDDA78",
"). c #FDDB7A",
"_. c #FDDB7C",
"`. c #FDDD7D",
"'. c #FDDF7F",
"]. c #E4C880",
"[. c #E6CA83",
"{. c #E7CD86",
"}. c #E9CF89",
"|. c #EBD089",
" X c #EFD289",
".X c #F2D382",
"XX c #F0D387",
"oX c #FDDF80",
"OX c #FCDF84",
"+X c #FBDF89",
"@X c #F9DE8B",
"#X c #FBE08B",
"$X c #FBE28C",
"%X c #FCE48F",
"&X c #FDE592",
"*X c #FEE692",
"=X c #FEE693",
"-X c #FEE895",
";X c #FEEA96",
":X c #FEEC97",
">X c #FEEE98",
",X c #FEEE99",
"<X c #FEEE9A",
"1X c #FDEB9C",
"2X c #FCE99E",
"3X c #F7E4A4",
"4X c #FAE7A1",
"5X c #F8E5A3",
"6X c #F8E5A5",
"7X c #F8E5A6",
"8X c #F9E6A7",
"9X c #FCE8AA",
"0X c #FDEAAC",
"qX c #FDEBAC",
"wX c #FDECAC",
"eX c #FDEDAC",
"rX c #FDEEAD",
"tX c #FDF2B1",
"yX c #FDF4B3",
"uX c #FEF6B5",
"iX c #FEF8B7",
"pX c #FEF9B8",
"aX c #FEF8B9",
"sX c None",
/* pixels */
"sXsXsXsXsXsXsXsXsXsXsXsXsXsXsXsXsXsXsXsXsXsXsXsXsXsXsXsXsXsXsXsXsXsXsXsXsXsXsXsXsXsXsXsXsXsXsXsX",
"sXsXsXsXsXsXsXsXsXsXsXsXsXsXsXsXsXsXh ..X.........X...p sXsXsXsXsXsXsXsXsXsXsXsXsXsXsXsXsXsXsXsX",
"sXsXsXsXsXsXsXsXsXsXsXsXsXsXsX .P m l l l n V W R M z s p u K sXsXsXsXsXsXsXsXsXsXsXsXsXsXsXsXsX",
"sXsXsXsXsXsXsXsXsXsXsXsXsX .m l n _ q.l.C.A.E.(.`.!.m.u.-.B d q 1 3 sXsXsXsXsXsXsXsXsXsXsXsXsXsX",
"sXsXsXsXsXsXsXsXsXsXsX .n z W u.V.V.A.R.!.!.W.E.S.S.A.A.C.C.p.[ k e = 6 sXsXsXsXsXsXsXsXsXsXsXsX",
"sXsXsXsXsXsXsXsXsXsXG l R p.C.A.E.E.W.(.(.(.E.A.C.C.C.A.C.C.A.D.m.` s 1 * sXsXsXsXsXsXsXsXsXsXsX",
"sXsXsXsXsXsXsXsXg n n 9.C.V.A.E.!.(.(.!.!.R.A.V.C.C.C.A.C.S.D.R.D.V.i.M r & ; sXsXsXsXsXsXsXsXsX",
"sXsXsXsXsXsXsXL n C k.C.R.R.R.(.oXW.R.v.i.w.=.=.9.u.p.B.T.W._.(.W.Z.V.V./ p & # sXsXsXsXsXsXsXsX",
"sXsXsXsXsXsXL z R m.S.D.W.(.W.W.m.u.=._ ~ ~ ! ! ! ` ] <.y./.%X+X!.^.E.'.'.<.a * + sXsXsXsXsXsXsX",
"sXsXsXsXsXh n R m.R.!.!.!.(.A.0.*.=._ _ ~ Q / ! ! ] -.0.z.G.z.[.#X#X%X*X&X%X;.r * O sXsXsXsXsXsX",
"sXsXsXsXsXm Z C.R._.oX!.S.p.;.[ ] _ _ _ ~ ~ ^ _ ( -.w.a.N.U.z.s.M.*X>X>X:X:X%X' 0 O # sXsXsXsXsX",
"sXsXsXsXG n m.(.!.(.(.S.;.] [ _ ` _ ^ ^ ! Q ^ _ ` 9.k.M.U.K.U.H.U./.>X>X>X>X>X#XV < . - sXsXsXsX",
"sXsXsXh n w._._.(.W.S.;._ _ _ / _ _ _ _ Q Q / ` [ 9.d.G.H.|.XX@X#X#X).:X>X>X>X>Xm.a >   sXsXsXsX",
"sXsXsXG @.#X+XOX_.R.8._ _ _ _ ! ^ _ ) ! W W _ ] [ <.r.h.{.@X6X&X#X#X).).>X>X>X;X#X' 8 + + sXsXsX",
"sXsXL M H.;X=X&X#Xk.] E R T Z T A A A A R E _ ` &.<.4.F.Y.[.U.H.z.h.z.L.^.>X>X;X'.m.k >   : sXsX",
"sXsXP @.,X,X1X;X+X3.%.o.G H F m m b b a s z E _ [ 1.2.2.2.7.h.h.h.h.2.$.1.^.;X#X'.).` 2 . + sXsX",
"sXsXF f.<X1X1X;Xz.@.7X9XqXqXqXqX9X0X0X7XH.b F / -.$.+.U.3XqXqXqX0X0X0X3XH.1.%X#X`.'.c.y #   sXsX",
"sX .F $X<X1X1X$Xr.Y 7XqXqXqXqXqX0X0X0X0XwX Xc W O.1.3X0XqXqXqXqX0X0X0X0X}.o.N.).`.`.`.B *   - sX",
"sXP #.,X<X1X1X.Xr.P 7XqXqXqXqX6.{ 8X0X0X0X0X2.m @.6X0XwXqXqX X@.S Y s.6X{.Y y.#X'.`.`.*.2 . o sX",
"sXF q.,X<X1X,XL.r.U 7XqXqXqXqX5.6 |.0XwXwXwXh.u |.qXwX0XqX3Xf Y #.$.F P s.] w.(.'.`.~.y.w + X sX",
"sXM M.,X<X<X;XL.s.o.6X0XqXqXqX6.q U.0XwX0XwX7. .0X0XwX0XqX5.P 9.y.y.4.<.<.q.u.Z.'.).!.v.i $   - ",
"h M /.,X<X<X=XN.z.O.6X0XqXqXqX6.2 |.wX0X0X0X+.5.wXwX0XwXqXG :.k.k.p.a.a.k.k.k.B.`.~.E.V.k $   - ",
"| B OX,X<X<X$XT.z.O.6X0XqXqXqXh.X.0X0XwX0X].q h.0XwXwX0X6XS 4.b.l.c.c.m.m.c.k.c.`.E.E.E.k & . = ",
"| M $X:X<X,X+XT.z.O.6XwXqXqXqX0XwXwX0X9X5.q u U.wX0X0X0X6XS 0.b.k.p.i.k.k.p.p.k.).~.E.E.x * . + ",
"L M #X;X>X>X/.L.d.o.6X0X0XwXwX0X0XwXwX0X9XI.u I.0XwXqXqX3XG r.B.c.i.u.u.u.u.y.p.`.!.E.E.x *   X ",
" .n ^.&X;X;X.Xx.d.Y 6X0XwX0X0X5.u 3X0XwXwX9X5.h.wX0XqXqX6XP d.T.N.c.i.u.y.0.0.k.(.!.W.E.k *   X ",
"L x C.'.*X&X^.j.r.P 7XqX0XwX0X6.0 I.wX0XwX0XI.@.0XqXqXqX0X+.q.T.T.N.a.y.9.8.9.l._.!.!.D.s $   - ",
"sXx k.#X#X$X.Xy.8.G 3XqXwX0XwX7.u I.0XwX0XwX}.u qXqXqXqX0Xh.$.G.T.N.p.9.-.-.8.N._.!.E.b.i # X : ",
"sXc 9.'.'.#X'.y.4.H 7XqX0XwX0X6.q ].9XwX0XwXU.u {.0XwX0XwX8X%.#.w.4.$.#.f.W -.Z.W.R.R.y.r O   = ",
"sXN _ '.'.'.#Xx.3.P 7XqXwX0XwXh.+.8XwX0X0X0X7.X.#.8X0XwX0XwX6Xh.2.5.U.6X{.F *.R.R.R.S.*.1     ; ",
"sXX.x E.`.).`.T.1.G 8XwX0XwXwX0XwX0X0XwX0X}.%.h.7.5.3X0X0XwX0XwXwX0X0X0X[.z 9.A.V.V.V.n *   X sX",
"sXg x y.~.).).#X4.o.3X3X3X3X3X3X3X7X3X Xh.%.h. X|.3.#.h.3X0X0X0X0X0X8X}.2.V c.A.C.V.i.e # X X sX",
"sXsXn W E.E.).`.L.$.P g u p f D d  . .+.6.U. X@X@X}.f.1.U Y %.%.+.H y e l &.A.A.V.V.' 8 X   ; sX",
"sXsX..x k.T.T.T.W.9.#.#.#.#.1.7.4.s.h.z.}.}.@X@X X X].z.d.3.:.@.V V V C E c.A.A.A.c.s >     sXsX",
"sXsXsXb W T.T.T./.T.:.1.3.4.r.h.z.].[. X X X X X[.Y.H.z.z.d.0.;.` / Q Q u.A.A.A.D.*.9 O X # sXsX",
"sXsXsX| l y.T.T.T./.N.<.1.4.r.f.z.z.].[.{.{.[.].H.z.s.r.8.8.-.-.*.] ] u.D.E.D.D.k.a >     sXsXsX",
"sXsXsXsXn F B.T.T.T.^.N.1.4.w.s.z.z.U.[.{.].J.J.H.F.h.r.w.r.w.0.8.8.k.W.W.R.D.T.Z 1 O   @ sXsXsX",
"sXsXsXsXf x W T.T.T.^./.T.r.r.d.z.L.U.].U.z.z.P.Y.[.[.U.P.F.G.h.h..X@XOXOX.X.X<.9 #     sXsXsXsX",
"sXsXsXsXsXL x [ W.W.W.)._.OXN.d.z.z.I.U.I.z.U. X.X X XXXXX X XXXwXyX,X1X1X=Xs.p > X   ; sXsXsXsX",
"sXsXsXsXsXsX| x :._.oX_.OX$X=X+X/.G.h.z.I.].}.}.|.|. X X X3XtXpXpXpXpXpXaXP.a >   X - sXsXsXsXsX",
"sXsXsXsXsXsXsX{ c <.+X@X=X;X;X&X=X&XXX[.U.P.U.].[.}.XX3XyXpXpXpXpXpXpXpXh.a >     O sXsXsXsXsXsX",
"sXsXsXsXsXsXsXsXL c @.+XpXpXuX1X=X=X;X1X1X1X1XrXwXwXyXyXyXuXpXaXpXuX3X2.u > .   @ sXsXsXsXsXsXsX",
"sXsXsXsXsXsXsXsXsXj n Y I.aXaX0X=X=X&X;X=X1X1X1X<X0XwXwXwXyXyXyXwXU.F 9 $     - sXsXsXsXsXsXsXsX",
"sXsXsXsXsXsXsXsXsXsXsX| l o.h.@X&X&X&X&X=X-X-X-X<X2X2X<XwXwX4XH.O.y * @     5 sXsXsXsXsXsXsXsXsX",
"sXsXsXsXsXsXsXsXsXsXsXsXh p a F :.M..X%X&X&X&X=X=X=X=X@XI.3.F u < $     @ sXsXsXsXsXsXsXsXsXsXsX",
"sXsXsXsXsXsXsXsXsXsXsXsXsXsXy w w a z V ( -.:.:.1.@.V l p 9 * #     # sXsXsXsXsXsXsXsXsXsXsXsXsX",
"sXsXsXsXsXsXsXsXsXsXsXsXsXsXsXsXsXq : < 1 9 8 8 8 3 = * @ X X X 6 sXsXsXsXsXsXsXsXsXsXsXsXsXsXsX",
"sXsXsXsXsXsXsXsXsXsXsXsXsXsXsXsXsXsXsXsX5 5 6 : O O @ : 6 5 sXsXsXsXsXsXsXsXsXsXsXsXsXsXsXsXsXsX"
};
