/* XPM */
static char * bitcoin_xpm[] = {
/* columns rows colors chars-per-pixel */
"48 48 250 2",
"   c #725203",
".  c #795603",
"X  c #7D5903",
"o  c #76560B",
"O  c #77590E",
"+  c #795A0D",
"@  c #7B5D14",
"#  c #7C5F18",
"$  c #7D6019",
"%  c #825D05",
"&  c #856007",
"*  c #86620B",
"=  c #8B660B",
"-  c #8E690E",
";  c #906A0F",
":  c #8F6B17",
">  c #83641C",
",  c #8D6C1E",
"<  c #926C11",
"1  c #967014",
"2  c #997215",
"3  c #9C761B",
"4  c #9E791D",
"5  c #A37C1E",
"6  c #816520",
"7  c #876A25",
"8  c #8E6E22",
"9  c #866A29",
"0  c #896E2C",
"q  c #8E7020",
"w  c #937324",
"e  c #997722",
"r  c #9E7B25",
"t  c #94762B",
"y  c #967828",
"u  c #9A7B2D",
"i  c #8B7131",
"p  c #9E7E31",
"a  c #947839",
"s  c #A37D22",
"d  c #A68125",
"f  c #AA8325",
"g  c #AE8827",
"h  c #A6832D",
"j  c #AA852B",
"k  c #AD892B",
"l  c #B08727",
"z  c #B28827",
"x  c #B08729",
"c  c #B38B2C",
"v  c #B88E2F",
"b  c #B8902D",
"n  c #A38334",
"m  c #A98632",
"M  c #AB8A34",
"N  c #A4873C",
"B  c #A78A3D",
"V  c #AC8B3C",
"C  c #B38D32",
"Z  c #BA8F30",
"A  c #B28E3C",
"S  c #B69332",
"D  c #BC9433",
"F  c #BF9832",
"G  c #B4923C",
"H  c #BA963D",
"J  c #B7993E",
"K  c #BE9A3B",
"L  c #C1932F",
"P  c #C39732",
"I  c #C49935",
"U  c #C59C3A",
"Y  c #C99E3D",
"T  c #C2A13F",
"R  c #CDA23F",
"E  c #9D8342",
"W  c #AB8C43",
"Q  c #B28E40",
"!  c #AE9144",
"~  c #AE914A",
"^  c #B49445",
"/  c #BC9B44",
"(  c #B3964D",
")  c #B5994C",
"_  c #BD9B4A",
"`  c #A98F50",
"'  c #B19553",
"]  c #B59A54",
"[  c #BD9F51",
"{  c #B59B5C",
"}  c #B89D5C",
"|  c #BEA155",
" . c #BDA35D",
".. c #B59C61",
"X. c #B99F66",
"o. c #BCA363",
"O. c #BDA56C",
"+. c #BCA571",
"@. c #BDA873",
"#. c #BFAA78",
"$. c #C49D43",
"%. c #C99F45",
"&. c #C29E4B",
"*. c #C5A144",
"=. c #CCA244",
"-. c #C5A44B",
";. c #CAA54B",
":. c #C8A84C",
">. c #D0A644",
",. c #D3AA44",
"<. c #D3AC4C",
"1. c #D8AD4D",
"2. c #DAB046",
"3. c #DCB24E",
"4. c #C3A454",
"5. c #CBA751",
"6. c #CCAA53",
"7. c #C1A65B",
"8. c #C8A75A",
"9. c #CBAC5B",
"0. c #D0A650",
"q. c #D2AC53",
"w. c #DAAD54",
"e. c #D3AD5C",
"r. c #CFB259",
"t. c #D4B156",
"y. c #DDB454",
"u. c #D4B25C",
"i. c #DAB65A",
"p. c #D7B95F",
"a. c #DEBA5E",
"s. c #E2B555",
"d. c #E5BA53",
"f. c #E1B55A",
"g. c #E5BC5C",
"h. c #EABF5D",
"j. c #C1A761",
"k. c #C4AA63",
"l. c #CBAE63",
"z. c #CBB166",
"x. c #CBB26C",
"c. c #D4B263",
"v. c #DAB462",
"b. c #D6B864",
"n. c #DCB965",
"m. c #D3B669",
"M. c #DCB768",
"N. c #D4BA6E",
"B. c #DCBB6C",
"V. c #CDB672",
"C. c #D2B972",
"Z. c #DBBE72",
"A. c #E4BC62",
"S. c #E9BE62",
"D. c #E2BD6C",
"F. c #E0BF72",
"G. c #E6C05E",
"H. c #EFC05D",
"J. c #F0C15B",
"K. c #DFC167",
"L. c #D7C069",
"P. c #DDC36D",
"I. c #DBC376",
"U. c #D4C17B",
"Y. c #DAC17B",
"T. c #D8C878",
"R. c #E4C362",
"E. c #EBC364",
"W. c #E3C865",
"Q. c #EDC866",
"!. c #E4C36A",
"~. c #E9C66B",
"^. c #ECCA6B",
"/. c #F1C564",
"(. c #F8C765",
"). c #F5CB66",
"_. c #F8CC67",
"`. c #F6CC6A",
"'. c #F9CD6B",
"]. c #EED26A",
"[. c #F2D06F",
"{. c #FBD26D",
"}. c #E4C374",
"|. c #EBC474",
" X c #E1C972",
".X c #EDCD72",
"XX c #E4C57A",
"oX c #E9C67C",
"OX c #E5C87C",
"+X c #EACA7D",
"@X c #F2CC74",
"#X c #FBCF71",
"$X c #EED174",
"%X c #ECD37B",
"&X c #F4D274",
"*X c #FDD473",
"=X c #FFD975",
"-X c #F4D57C",
";X c #FCD57A",
":X c #F3DA7C",
">X c #FEDB7C",
",X c #FFE37D",
"<X c #DCC683",
"1X c #E4C681",
"2X c #E4CA84",
"3X c #EBCD83",
"4X c #E4CE8B",
"5X c #EDCE8A",
"6X c #EED186",
"7X c #E5D08E",
"8X c #EDD38B",
"9X c #FBD581",
"0X c #F5DB84",
"qX c #FCDC83",
"wX c #F2D38C",
"eX c #F5DA8D",
"rX c #FCDD8A",
"tX c #EAD493",
"yX c #EDDB94",
"uX c #EDD898",
"iX c #F1D594",
"pX c #F5DB93",
"aX c #F3DD9E",
"sX c #F5E184",
"dX c #FFE384",
"fX c #FFE883",
"gX c #F3E18D",
"hX c #FEE38B",
"jX c #FFEB8D",
"kX c #FEE594",
"lX c #FFEC93",
"zX c #FEE599",
"xX c #FFEB9B",
"cX c #FFF296",
"vX c #FFF39B",
"bX c #FFF99C",
"nX c #F3DFA0",
"mX c #F6E2A3",
"MX c #F8E5A5",
"NX c #F4EAA4",
"BX c #FEECA3",
"VX c #FAE7A9",
"CX c #FEEBAD",
"ZX c #FFF2AD",
"AX c #FEF4B4",
"SX c #FFFAB5",
"DX c #F9F7B9",
"FX c #FFFCBC",
"GX c #FFFDC2",
"HX c None",
/* pixels */
"HXHXHXHXHXHXHXHXHXHXHXHXHXHXHXHXHXHXHXHXHXHXHXHXHXHXHXHXHXHXHXHXHXHXHXHXHXHXHXHXHXHXHXHXHXHXHXHX",
"HXHXHXHXHXHXHXHXHXHXHXHXHXHXHXHXHXHX#.O.{ ~ W W ~ { o.O.HXHXHXHXHXHXHXHXHXHXHXHXHXHXHXHXHXHXHXHX",
"HXHXHXHXHXHXHXHXHXHXHXHXHXHXHXO.W h j s f g b b S k f d 4 e ` HXHXHXHXHXHXHXHXHXHXHXHXHXHXHXHXHX",
"HXHXHXHXHXHXHXHXHXHXHXHXHX' h f l U 1.H./.{.{.,X>X=XQ.s.=.v 5 1 < E HXHXHXHXHXHXHXHXHXHXHXHXHXHX",
"HXHXHXHXHXHXHXHXHXHXHX' g f F d.).).{.{.=X=X=X{.{.{.`.`.`.).g.U f 2 * a HXHXHXHXHXHXHXHXHXHXHXHX",
"HXHXHXHXHXHXHXHXHXHXV f b G.J.{.{.{.*X=X,X=X*X{.`.).`.).).{.`.{./.U 5 ; + HXHXHXHXHXHXHXHXHXHXHX",
"HXHXHXHXHXHXHXHX} h g 1.)._._.{.,X*X=X,X{.{.)._.).).`.`.`.{.*X*X*X`.y.g 2 & $ HXHXHXHXHXHXHXHXHX",
"HXHXHXHXHXHXHX{ j c G.).{.{.{.=X,X{.{.J.d.2.R 2.,.3.g.`.&X;X;X;X&X[.{.`.I 3 & + HXHXHXHXHXHXHXHX",
"HXHXHXHXHXHX{ d D /.{.{.*X=X=X*X).3.R I I I P F F U $.;.n.-XrXrX;X&X;X>XdX:.4 X o HXHXHXHXHXHXHX",
"HXHXHXHXHX..j v /.*X=X=X=X=X`.1.R R R R I I I P K U *.e.D.|.}.+XrXqXhXhXdXfX:.4 X o HXHXHXHXHXHX",
"HXHXHXHXHXh v `.{.>X,X*X{.g.>.Y R I I I I I I U U ;.t.D.|.oXB.z.F.kXvXcXjXjXjX/ 1 . + HXHXHXHXHX",
"HXHXHXHXV g Q.=X=X>X>X'.>.Y Y U R I I I P P I U U <.n.~.}.F.XXXX}.%XbXbXcXcXcXsXc =   # HXHXHXHX",
"HXHXHX} j t.>X>X>X*X'.>.U U I U P U U I P P I U T 6.M.D.oX5XwXeXeXqX0XvXbXbXcXjXW.5 %   HXHXHXHX",
"HXHXHXM G hXhXqX>X*X<.U U U I I I I I I D D U T T -.9.B.3XpXpXzXgXqX:X:XbXbXcXjXfXT <   o HXHXHX",
"HXHX} k  XlXkXkXrXA.$.D Z Z Z v v v b b v D U U *.-.9.B.OX2XOXI.P.L.K.W.$XbXcXjX,X].d %   9 HXHX",
"HXHXV J xXxXxXxXrX5.&.A M m m m h h n s 5 g S K *.:.8.4.| k.x.C.N.z.7.) :.$XjXfX,X,XT ;   o HXHX",
"HXHXM L.vXxXxXxXF._ MXCXCXCXCXCXCXCXCXmXY.h g K *./ ^ Y.mXCXCXCXCXCXCXVXZ.4.hXfX,X,XW.4 X   HXHX",
"HX] k gXxXxXxXgXe.V MXCXCXCXCXVXCXCXCXCXCXyXh D G [ mXCXCXCXCXCXCXCXCXCX4XG ~.fX,X,X,Xg &   $ HX",
"HXV J vXxXxXxX6Xe.V MXCXCXCXCXk.N VXCXCXCXVX| h ^ MXCXCXCXCXuX( n V l.mX4XA y.fX,X,X=XT ;     HX",
"HXk r.xXxXxXxX|.v.V MXCXCXCXCXo.> 4XCXCXCXCXx.w tXCXCXCXCXnXn V / / M V m.&.t.=X,X,X=Xy.2 o   HX",
"HXk P.xXvXxXxX|.M.Q nXCXCXCXCXj.w <XCXCXCXCXz.W CXCXCXCXCXk.V e.a.i.:.-.;.e.f.@X>X>X=XH.5 X   $ ",
"o.k %XvXbXBXkX|.D.Q nXCXCXCXCXj., 7XCXCXCXCX~ k.CXCXCXCXCXV &.n.R.g.G.g.S.S.S.(.qX*X=X`.5 X   $ ",
" .k 0XvXvXvXrX@XD.^ VXCXCXCXCXx.~ VXCXCXCX<Xe C.CXCXCXCXMXn q.R.R.h.S.E.E.E.S.S.>X=X*X*Xd X   $ ",
"{ k sXcXvXBXeX@XD.( nXCXCXCXCXCXCXCXCXVXo., u T.CXCXCXVXmXn t.E.g.g.h.S.g.S.f.A.>X;X*X*Xf &   o ",
"{ k sXjXlXcX0X~.n.^ MXCXCXCXCXCXCXCXCXCXCXU.t U.CXCXCXCXmXM p.~.W.g.s.s.s.s.f.A.>X*X*X*Xj %     ",
"o.k :XjXlXlX-XD.v.A MXCXCXCXCXj.t mXCXCXCXCX .x.CXCXCXCXVXV p.$X^.E.g.s.w.w.w.A.9X;X*X*Xf X     ",
"o.g ].dXjXhX-Xn.e.V MXCXCXCXCXj.8 <XCXCXCXCX<X] CXCXCXCXCX^ r.$X$X~.A.s.w.1.q.S.qX>X*X#X5 X   O ",
"HXj K.dXdXhX9Xv.9.M MXCXCXCXCXk.a Z.CXCXCXCX7Xu CXCXCXCXCXV./ !.$X~.f.5.%.0.q.S.>X*X*XE.5 X   # ",
"HXj t.dX,XdXdXi.6.N MXCXCXCXCXo.q <XCXCXCXCX<Xy 4XCXCXCXCXMX) / e.6./ _ C.U ;.`.;X*X#Xs.1 .   @ ",
"HXj K >XqXqXqX!.6.m MXCXCXCXCXV.' VXCXCXZXCXk.! ] VXCXCXCXCXVXC.[ 7.Z.VX2Xx %.#X#X'.'.%.- o   6 ",
"HX( g &X>X>XdX-X5.M MXCXCXCXCXCXCXCXCXCXCX7X) m.9. .MXCXCXCXCXCXCXCXCXCX2Xs 1.'.`.'.'.x %     HX",
"HXO.j y.>X>X>X>X6.! zXMXMXMXMXMXMXMXMXuXx.( N.8X6Xz.) C.uXCXCXCXCXCXVX7X4.c h.'.(.(.s.5 X     HX",
"HXHXj H &X=X:X>X~./ V h y u n n n N W ( 7.Z.8XpXpX+Xm.| V V ^ ) ( m e 3 s R (.(.'.'.Y ; .   > HX",
"HXHX} f G.&X&X&X:Xt._ / ) _ 4.8.l.m.B.Z.2XwXpXeXwX6X+XP.c.8.-./ C x x z P J.(.'.(./.5 %     HXHX",
"HXHXHXh D &X&X&X&X@X:.4.5.9.c.m.F.OX+XwXwXwXwX6X3XOX}.D.D.v.w.%.Y I P P d.(.(.'.'.=.< .   + HXHX",
"HXHXHX] d y.[.&X&X&X~.:.4.9.e.M.B.}.oX3X5X3X3X+X}.F.M.e.0.0.0.%.%.Y Y s.#X#X#X#XS.s %     HXHXHX",
"HXHXHXHXm g `.@X&X&X&X~.5.6.e.b.B.}.XX+X3XOX}.I.F.F.D.e.e.e.e.e.q.0.A.;X;X#X-X@XZ = o   + HXHXHX",
"HXHXHXHX..j D @X&X&X&X&X@Xp.u.M.D.}.XXOXOXZ.Z.XX1XOXoXoXF.F.F.M.D.6XrXqX9X9X9X%.1 .     HXHXHXHX",
"HXHXHXHXHX' f $.&X&X&X>XqXqX XB.D.!.XXXXZ.XXOX5XwXwXwXwXiXwXwXnXVXZXBXxXzXxXb.r X     $ HXHXHXHX",
"HXHXHXHXHXHX~ j ;.qXqXqXqXrXkXrX+XD.Z.Z.XX1X2X5X5X5XwXwXiXnXCXGXGXFXFXSXAXT.s %     @ HXHXHXHXHX",
"HXHXHXHXHXHXHX~ j -.0XrXzXxXzXzXzXzXwX3XXXXXOX1X2X5XpXmXAXFXGXGXGXFXFXSXL.r %     O HXHXHXHXHXHX",
"HXHXHXHXHXHXHXHX! j / gXSXSXZXxXzXzXkXxXzXBXBXBXZXCXAXAXAXAXSXSXSXSXNX| 3 &     O HXHXHXHXHXHXHX",
"HXHXHXHXHXHXHXHXHX} n V U.DXSXBXzXkXkXkXxXxXxXBXxXBXBXCXZXZXZXAXAXU.M < .     @ HXHXHXHXHXHXHXHX",
"HXHXHXHXHXHXHXHXHXHXHXV d G Z.pXzXkXzXjXkXkXxXzXxXxXxXBXBXZXNXT.G 3 * .     9 HXHXHXHXHXHXHXHXHX",
"HXHXHXHXHXHXHXHXHXHXHXHX@.u s k -.K.6XhXjXhXkXlXzXzXzXeXOX9.k 3 = X     O HXHXHXHXHXHXHXHXHXHXHX",
"HXHXHXHXHXHXHXHXHXHXHXHXHXHX..w < s j k K -.;.:.-./ C j 4 < & .     O HXHXHXHXHXHXHXHXHXHXHXHXHX",
"HXHXHXHXHXHXHXHXHXHXHXHXHXHXHXHXHXE * = - - < < - = & X .       0 HXHXHXHXHXHXHXHXHXHXHXHXHXHXHX",
"HXHXHXHXHXHXHXHXHXHXHXHXHXHXHXHXHXHXHXHXi 7 7 @ o o O > 0 i HXHXHXHXHXHXHXHXHXHXHXHXHXHXHXHXHXHX"
};
