/* XPM */
static const char * bitcoin20_xpm[] = {
/* columns rows colors chars-per-pixel */
"20 20 200 2",
"   c #7B5500",
".  c #7B5900",
"X  c #735508",
"o  c #7B5908",
"O  c #7B5D08",
"+  c #7B5910",
"@  c #7B6118",
"#  c #845D08",
"$  c #846108",
"%  c #8C6510",
"&  c #8C6910",
"*  c #8C6918",
"=  c #946D10",
"-  c #947118",
";  c #9C7518",
":  c #A57918",
">  c #846929",
",  c #846D29",
"<  c #947121",
"1  c #8C7539",
"2  c #947939",
"3  c #8C7542",
"4  c #AD8221",
"5  c #B58E29",
"6  c #B58E31",
"7  c #B59231",
"8  c #BD9231",
"9  c #BD9631",
"0  c #C69A31",
"q  c #C69A39",
"w  c #C69E39",
"e  c #CE9E39",
"r  c #CEA239",
"t  c #948652",
"y  c #A58A4A",
"u  c #BD9642",
"i  c #BD9A42",
"p  c #B5964A",
"a  c #B59A4A",
"s  c #BD9E4A",
"d  c #A58E5A",
"f  c #BD9A52",
"g  c #BD9E52",
"h  c #BDA252",
"j  c #BDA25A",
"k  c #BD9E63",
"l  c #A59673",
"z  c #AD9A73",
"x  c #AD9E7B",
"c  c #BDA263",
"v  c #BDA26B",
"b  c #BDA273",
"n  c #BDA673",
"m  c #B5A27B",
"M  c #BDAA7B",
"N  c #C69E42",
"B  c #CE9E42",
"V  c #C6A242",
"C  c #CEA242",
"Z  c #CEA642",
"A  c #C6A24A",
"S  c #C6A64A",
"D  c #CEA64A",
"F  c #CEAA4A",
"G  c #D6A642",
"H  c #DEAE4A",
"J  c #DEB24A",
"K  c #C6A252",
"L  c #C6A652",
"P  c #CEAA52",
"I  c #CEAE52",
"U  c #C6A65A",
"Y  c #C6AA5A",
"T  c #CEAA5A",
"R  c #CEAE5A",
"E  c #D6AE52",
"W  c #DEAE52",
"Q  c #D6AE5A",
"!  c #D6B252",
"~  c #DEB252",
"^  c #DEB652",
"/  c #D6B65A",
"(  c #DEB65A",
")  c #DEBA5A",
"_  c #EFBE52",
"`  c #E7BA5A",
"'  c #E7BE5A",
"]  c #EFBE5A",
"[  c #C6A663",
"{  c #C6AE63",
"}  c #CEAE63",
"|  c #D6AE63",
" . c #CEB26B",
".. c #CEB66B",
"X. c #DEB663",
"o. c #D6BE63",
"O. c #DEBA63",
"+. c #DEBE63",
"@. c #D6B66B",
"#. c #DEB66B",
"$. c #D6BA6B",
"%. c #D6BE6B",
"&. c #DEBA6B",
"*. c #DEBE6B",
"=. c #D6BA73",
"-. c #DEBE73",
";. c #EFBE63",
":. c #E7BE73",
">. c #DEC37B",
",. c #E7C363",
"<. c #EFC763",
"1. c #EFCF63",
"2. c #E7C36B",
"3. c #E7C76B",
"4. c #EFC36B",
"5. c #EFC76B",
"6. c #E7CB6B",
"7. c #EFCB6B",
"8. c #F7CB63",
"9. c #F7CB6B",
"0. c #F7CF6B",
"q. c #FFCB6B",
"w. c #F7D36B",
"e. c #FFD36B",
"r. c #E7C373",
"t. c #E7CB73",
"y. c #EFCF73",
"u. c #E7C37B",
"i. c #E7C77B",
"p. c #E7CB7B",
"a. c #EFCB7B",
"s. c #F7CF73",
"d. c #EFD373",
"f. c #EFD37B",
"g. c #F7D373",
"h. c #FFD373",
"j. c #FFD773",
"k. c #FFDB73",
"l. c #F7DB7B",
"z. c #FFDF7B",
"x. c #ADA284",
"c. c #BDAA84",
"v. c #BDAE84",
"b. c #B5A68C",
"n. c #B5AE9C",
"m. c #BDB6A5",
"M. c #C6BA9C",
"N. c #C6BAA5",
"B. c #C6BEA5",
"V. c #DEC784",
"C. c #E7CB84",
"Z. c #E7CF84",
"A. c #EFCF84",
"S. c #E7CF8C",
"D. c #EFCF8C",
"F. c #EFD384",
"G. c #E7D38C",
"H. c #EFD38C",
"J. c #EFD78C",
"K. c #F7D784",
"L. c #FFD784",
"P. c #F7DB84",
"I. c #F7DF84",
"U. c #FFDB84",
"Y. c #FFDF84",
"T. c #F7DB8C",
"R. c #EFD394",
"E. c #EFD794",
"W. c #EFDB94",
"Q. c #EFDB9C",
"!. c #F7DB9C",
"~. c #F7DF9C",
"^. c #FFE384",
"/. c #FFE784",
"(. c #FFE38C",
"). c #FFEB8C",
"_. c #EFE79C",
"`. c #FFE794",
"'. c #FFEB94",
"]. c #FFEF94",
"[. c #FFEB9C",
"{. c #FFEF9C",
"}. c #FFF394",
"|. c #FFF794",
" X c #C6C3B5",
".X c #CEC7BD",
"XX c #F7E3A5",
"oX c #FFE7A5",
"OX c #F7EBA5",
"+X c #FFEBA5",
"@X c #FFEFA5",
"#X c #FFE7AD",
"$X c #FFEBAD",
"%X c #FFEFAD",
"&X c #FFF3AD",
"*X c #FFF7B5",
"=X c #FFFBB5",
"-X c #FFFFBD",
";X c #CEC7C6",
":X c None",
/* pixels */
":X:X:X:X:X:XM.v f i g k c..X:X:X:X:X:X:X",
":X:X:X:XM.u H 8.j.j.e.0.^ 7 d  X:X:X:X:X",
":X:X:Xn Z 0.k.j.8._ ] 9.h.h.~ ; b.:X:X:X",
":X:Xn J j.j.' C 0 0 w E a.K.^.d.- x.:X:X",
":XN.F k.w.G w q 0 0 D 2.i.a.].|.6.$ m.:X",
":Xg (.U.C 9 8 8 8 q S *.H.f.y.].).9 , :X",
"B.o.{.p.-.>.>.>.R 7 N =.G.E.Z.&./.1.# n.",
"M I.[.| R.$X..~.#Xs V.$XG.h @.T l.z.; t ",
"c {.'.X.E.$Xj G.$XU #X$Xg ) ! ( 0.k.5 > ",
"j }.`.O.E.$XE.oXC.p $X$XA ,.' ;.5.j.9 o ",
"j ).I.Q E.$X .Q.#X .$X$XP 7.` W 4.j.8 X ",
"c z.Y.P R.$X[ S.$X{ XX$X$.) P D 5.h.4 @ ",
"v.<.Y.I R.$XW.oXXX} @.XX#XE.XXK 8.8.& 3 ",
".XC j.3.s a h Y  .J.A.T Y h 6 e 8.H . x ",
":Xk <.g./ P #.i.F.A.r.X.E B r 9.q.: + :X",
":X.Xi s.g.+.O.r.i.u.i.u.:.r.L.L.N   l :X",
":X:XN.V U.(.T.a.i.C.D.!.%X-X=X%.# 1 :X:X",
":X:X:XN.g _.+X`.[.+X@X&X*XOXh O 1 :X:X:X",
":X:X:X:X;Xb i +.f.P.K.t.L = o z :X:X:X:X",
":X:X:X:X:X:X.Xm y < % * 2 x :X:X:X:X:X:X"
};
