/* XPM */
static const char * bitcoin32_xpm[] = {
/* columns rows colors chars-per-pixel */
"32 32 185 2",
"   c #715103",
".  c #725203",
"X  c #725204",
"o  c #735304",
"O  c #745404",
"+  c #765504",
"@  c #775504",
"#  c #785604",
"$  c #795704",
"%  c #795705",
"&  c #77580A",
"*  c #77580B",
"=  c #77580C",
"-  c #785808",
";  c #785809",
":  c #78590D",
">  c #795A0D",
",  c #7F5E0D",
"<  c #7C5C0E",
"1  c #815F0E",
"2  c #89650F",
"3  c #8C670F",
"4  c #8D680F",
"5  c #836110",
"6  c #866410",
"7  c #8F6A11",
"8  c #926C12",
"9  c #946F14",
"0  c #967015",
"q  c #987217",
"w  c #997318",
"e  c #9A751C",
"r  c #9B761E",
"t  c #9C7720",
"y  c #9D7924",
"u  c #9D7B28",
"i  c #9E7C2C",
"p  c #A07F31",
"a  c #AA852D",
"s  c #A9852E",
"d  c #AC872D",
"f  c #AE892E",
"g  c #AF8A2E",
"h  c #B08B2F",
"j  c #A18133",
"k  c #A78533",
"l  c #A28235",
"z  c #A48435",
"x  c #A68535",
"c  c #A58536",
"v  c #A68536",
"b  c #A88530",
"n  c #B18C30",
"m  c #B18D33",
"M  c #B08D37",
"N  c #B08F3B",
"B  c #B08F3D",
"V  c #BC9537",
"C  c #BE9736",
"Z  c #BF9737",
"A  c #B6933B",
"S  c #B0903F",
"D  c #B2913E",
"F  c #B4923D",
"G  c #B99438",
"H  c #C09736",
"J  c #C19835",
"K  c #C29836",
"L  c #C39937",
"P  c #C39A37",
"I  c #C49B38",
"U  c #C59C3A",
"Y  c #C69D3B",
"T  c #C79E3C",
"R  c #C89F3D",
"E  c #CAA03F",
"W  c #C6A247",
"Q  c #CAA140",
"!  c #C9A242",
"~  c #C8A245",
"^  c #C2A14B",
"/  c #C3A24D",
"(  c #C3A24F",
")  c #C2A351",
"_  c #C1A352",
"`  c #C0A355",
"'  c #C1A457",
"]  c #C1A458",
"[  c #C1A55A",
"{  c #C2A65C",
"}  c #C3A75D",
"|  c #C3A85E",
" . c #C6AA5D",
".. c #C7AA5D",
"X. c #C5A95E",
"o. c #CFAE5A",
"O. c #C8AB5E",
"+. c #D4AF56",
"@. c #D1AE58",
"#. c #D6B056",
"$. c #D8B155",
"%. c #D9B256",
"&. c #DAB357",
"*. c #DBB457",
"=. c #DDB558",
"-. c #DFB759",
";. c #E2BB5B",
":. c #E3BC5D",
">. c #E4BD5E",
",. c #C9AC61",
"<. c #C9AD62",
"1. c #CAAE62",
"2. c #CCAF62",
"3. c #DDBC69",
"4. c #DFBD68",
"5. c #DCBB6E",
"6. c #DCBC6C",
"7. c #DBBC70",
"8. c #DABD72",
"9. c #DBBE74",
"0. c #E4BD61",
"q. c #E4BE60",
"w. c #E3BE65",
"e. c #E2BF66",
"r. c #DDC177",
"t. c #DFC279",
"y. c #EFCB6F",
"u. c #F1CA6B",
"i. c #F4CB6A",
"p. c #F5CC6A",
"a. c #F7CD6B",
"s. c #F0CA6D",
"d. c #F7CF6E",
"f. c #EFCD72",
"g. c #EFCE77",
"h. c #E0C47B",
"j. c #E3C77E",
"k. c #E4C87F",
"l. c #F7D070",
"z. c #F8D171",
"x. c #F8D272",
"c. c #FAD473",
"v. c #FBD676",
"b. c #FCD574",
"n. c #FCD674",
"m. c #FCD777",
"M. c #F0D17E",
"N. c #FCD778",
"B. c #FCDA7A",
"V. c #FDDC7C",
"C. c #FDDE7E",
"Z. c #E6CA80",
"A. c #E8CC83",
"S. c #EACD84",
"D. c #ECD086",
"F. c #EFD286",
"G. c #EED287",
"H. c #F0D283",
"J. c #FDDF80",
"K. c #F6DF91",
"L. c #F5DE92",
"P. c #F4DE95",
"I. c #F4DF98",
"U. c #FDE081",
"Y. c #FCE184",
"T. c #FBE188",
"R. c #FAE18B",
"E. c #F8E08D",
"W. c #F5E19B",
"Q. c #F5E29C",
"!. c #F7E49D",
"~. c #F9E69B",
"^. c #FBE89B",
"/. c #FDEB9B",
"(. c #FDEC9B",
"). c #FEEE9B",
"_. c #FEEF9C",
"`. c #FEEEA3",
"'. c #FDEBA9",
"]. c #FDEBAC",
"[. c #FDEBAD",
"{. c #FDECAD",
"}. c #FDF0B0",
"|. c #FDF2B1",
" X c None",
/* pixels */
" X X X X X X X X X X X X X X X X X X X X X X X X X X X X X X X X",
" X X X X X X X X X X X Xc F z z F z j  X X X X X X X X X X X X X",
" X X X X X X X X Xz b V ~ %.;.u.e.-.! f e i  X X X X X X X X X X",
" X X X X X X Xz d ! >.a.l.B.v.c.a.a.a.a.>.R w 6  X X X X X X X X",
" X X X X X Xb L q.a.n.c.n.n.c.a.i.i.a.a.z.z.>.m 3 5  X X X X X X",
" X X X X Xs +.a.c.n.B.c.>.#.E E ! +.>.n.J.v.z.z.~ 8 &  X X X X X",
" X X X Xs %.c.n.B.l.*.E Y L L L L W +.r.Z.H.Y.Y.R.+.7 ;  X X X X",
" X X Xk %.n.J.n.>.! Y Y I L L L T *.w.h.7.5.K.).).).W 6 =  X X X",
" X Xj T V.B.n.;.L L L I L L L Y ~ *.s.Z.G.D.B._._._.Y.h % >  X X",
" X Xm H.R.Y.0.L H H L L C V C Y ! ..8.G.E.H.M.g._._.Y.q.8 o  X X",
" Xj o.)./.K.@.^ A F M N M s n C W ) { <.9.9.2.X.#./.Y.C.m % >  X",
" XM D.)._.t.,.[.[.[.[.{.[.W.A G C O.I.[.[.[.[.{.5.y.Y.B.*.2 o  X",
" XA /.).~.%.{ [.[.[.| D.[.[.I.b ,.[.[.[.j.) ' D.5.@.Y.V.a.w .  X",
"i O.).).E.3.X.[.[.[.S X.[.[.'.i Q.[.{.D.z X.~ A ) %.B.V.n.s + = ",
"z 6._._.R.w.<.[.[.[.S <.[.[.I.F [.[.[.X.) 0.>.;.>.>.l.B.n.C % > ",
"z e._._.H.e.,.[.[.[.j.W.[.D.S { [.[.].' -.>.>.>.e.0.s.N.n.Y % & ",
"v s.)._.M.3.O.[.].].W.'.[.].{ { [.[.[.' 3.e.;.;.%.-.s.N.n.R # . ",
"z ;.T.E.g.-.{ [.].].S <.[.{.].` [.[.[.<.e.f.e.*.$.$.s.V.n.L $ O ",
"j o.Y.Y.g.+.] {.].]._ | [.[.[.F ].[.[.A.) y.e.@.W @.s.N.n.h $ = ",
" XZ J.Y.N.@.' [.[.].F 7.[.[.].z h.[.[.].7.^ ^ 5.2.U z.z.a.r X = ",
" Xs n.V.Y.+.` [.[.].].].{.{.9.2...A.{.[.[.[.].[.2.! a.u.;.3   = ",
" XF *.m.B.s.^ X.,.{ ,.<.1.] 2.G.D.O.` 2.9.7.2.^ d ;.u.a.K $ X  X",
" X Xm z.c.v.o.^ ^ ^ { <.7.Z.K.K.H.Z.6.o.^ A f h E a.i.0.w X =  X",
" X Xz #.l.z.f.X.O.<.5.t.Z.D.D.A.j.7.*.@.^ ! Y ! i.a.a.Y , X  X X",
" X X Xd u.l.z.y.o.o.3.r.j.Z.h.r.9.5.%.%.#.+.#.c.B.z.-.8 . &  X X",
" X X Xj m f.c.v.l.s.3.4.h.t.r.k.D.G.H.D.A.D./.!.E.M.y + X  X X X",
" X X X Xj Z v.J.T.R.E.Z.7.t.Z.A.S.H.D.Q.|.|.|.|.!.b % .  X X X X",
" X X X X Xj A D.|.`.~.~.!.E.I.I.Q.{.|.|.|.|.|.D.u % X <  X X X X",
" X X X X X Xj z 9.{.`.~.~.^././.`.`.`.}.|.Q.] 9 $ X  X X X X X X",
" X X X X X X X Xj s X.k.Y.R.~.~./.~.K.h.) e , . =  X X X X X X X",
" X X X X X X X X X X9 w t n A C A s r 3 $ X >  X X X X X X X X X",
" X X X X X X X X X X X X X5 2 1 $ ; 5 5 5  X X X X X X X X X X X"
};
