/* XPM */
static const char * bitcoin16_xpm[] = {
/* columns rows colors chars-per-pixel */
"16 16 197 2",
"   c #755507",
".  c #775606",
"X  c #795707",
"o  c #7D5A07",
"O  c #765608",
"+  c #74550A",
"@  c #75550A",
"#  c #75560A",
"$  c #785708",
"%  c #78580B",
"&  c #7D5C0B",
"*  c #78590E",
"=  c #7E5F14",
"-  c #8A6711",
";  c #8D6B15",
":  c #8A691A",
">  c #93711C",
",  c #9D7A23",
"<  c #9F7B22",
"1  c #9C7B2A",
"2  c #9E7C28",
"3  c #A37F26",
"4  c #B4831B",
"5  c #A68126",
"6  c #A5852E",
"7  c #A9872E",
"8  c #AC862D",
"9  c #AC872F",
"0  c #AF8B30",
"q  c #AC8932",
"w  c #AF8A34",
"e  c #B08E36",
"r  c #B98F33",
"t  c #B18E3A",
"y  c #B39036",
"u  c #B69237",
"i  c #B3913B",
"p  c #B6923C",
"a  c #BD9338",
"s  c #B9993F",
"d  c #BA993F",
"f  c #C2932D",
"g  c #C09437",
"h  c #C59832",
"j  c #C39836",
"k  c #C89835",
"l  c #C59C3D",
"z  c #CF9E3E",
"x  c #CFA23F",
"c  c #D0A13A",
"v  c #D3A23A",
"b  c #D4A338",
"n  c #D6A33F",
"m  c #B19345",
"M  c #BF9940",
"N  c #BF9D43",
"B  c #B3954B",
"V  c #BD9A48",
"C  c #BC9C4B",
"Z  c #BD9F51",
"A  c #CAA244",
"S  c #C2A14B",
"D  c #C4A44B",
"F  c #C1A24C",
"G  c #C7A64C",
"H  c #C5A64E",
"J  c #C9A94F",
"K  c #D1A343",
"L  c #D7A644",
"P  c #D5A547",
"I  c #D6A547",
"U  c #DCAD42",
"Y  c #DDAB45",
"T  c #C3A151",
"R  c #C9A551",
"E  c #CAAA50",
"W  c #CBAD53",
"Q  c #CDAC52",
"!  c #CEA855",
"~  c #CEB15A",
"^  c #DEB154",
"/  c #D1B35A",
"(  c #D7B35A",
")  c #D8B45D",
"_  c #E3B34A",
"`  c #E2B34E",
"'  c #E6B54F",
"]  c #E2B350",
"[  c #E3B352",
"{  c #E4B451",
"}  c #E2B355",
"|  c #E7B853",
" . c #E9BC51",
".. c #ECBC53",
"X. c #E7BE5A",
"o. c #E2BA5C",
"O. c #E2BC5C",
"+. c #E9BB59",
"@. c #EBBE59",
"#. c #EABD5B",
"$. c #E8BF5C",
"%. c #E9BE5E",
"&. c #C8AC63",
"*. c #D0B162",
"=. c #D5B567",
"-. c #DABC62",
";. c #D2B66B",
":. c #D0B56D",
">. c #DCBC6E",
",. c #D2B972",
"<. c #D7BE78",
"1. c #E9BE62",
"2. c #EEC05A",
"3. c #F0C25F",
"4. c #DEC26B",
"5. c #DDC27A",
"6. c #E0C167",
"7. c #E5C067",
"8. c #EBC463",
"9. c #EEC460",
"0. c #ECC364",
"q. c #E4C16B",
"w. c #E7C46B",
"e. c #E9C56C",
"r. c #E0C172",
"t. c #E5C575",
"y. c #E4C870",
"u. c #E6CA72",
"i. c #E6CA74",
"p. c #E8CB73",
"a. c #E9CE76",
"s. c #EBD07B",
"d. c #EED179",
"f. c #F5D478",
"g. c #F5D57C",
"h. c #F4D67C",
"j. c #F4D77E",
"k. c #DEC781",
"l. c #E0C883",
"z. c #E3CA89",
"x. c #E4CB8B",
"c. c #E3CD8A",
"v. c #E5CE8B",
"b. c #E3CC8E",
"n. c #E8D18D",
"m. c #F6D980",
"M. c #F7DB83",
"N. c #F3DA86",
"B. c #F7DA84",
"V. c #F6DB84",
"C. c #F7DB84",
"Z. c #F7DA86",
"A. c #F6DC85",
"S. c #F7DC85",
"D. c #F8DB85",
"F. c #FADD85",
"G. c #FBDE86",
"H. c #F5DE8B",
"J. c #FADD88",
"K. c #F9DF8B",
"L. c #E4CF93",
"P. c #E6CF92",
"I. c #E6D094",
"U. c #EAD597",
"Y. c #EBD698",
"T. c #EFDA99",
"R. c #F0DC9C",
"E. c #FCE089",
"W. c #FCE28B",
"Q. c #FDE28B",
"!. c #FCE38C",
"~. c #FCE28D",
"^. c #FCE38D",
"/. c #FDE38D",
"(. c #FEE38D",
"). c #FDE38E",
"_. c #FEE48D",
"`. c #FEE58F",
"'. c #FCE490",
"]. c #FDE490",
"[. c #FFE590",
"{. c #FFE690",
"}. c #FFE691",
"|. c #FEE791",
" X c #FFE692",
".X c #FFE792",
"XX c #FEE693",
"oX c #FFE693",
"OX c #FFE793",
"+X c #FEE897",
"@X c #F6E2A2",
"#X c #F7E3A2",
"$X c #FAE6A8",
"%X c #FBE7A9",
"&X c #FCE9AB",
"*X c #FDEAAC",
"=X c None",
/* pixels */
"=X=X=X=X=X0 S G D i =X=X=X=X=X=X",
"=X=X=X9 6.).).).).).d.e =X=X=X=X",
"=X=Xu C.J.O.( h ( o.D.).J & =X=X",
"=X0 S.j.f 4 b.e P.K @.j.'.d % =X",
"=X4.).k a T Y.&.Y.R 2.2.F.S.- =X",
"e '.e.z ! v.&X,.k.*X:. .%.`.d # ",
"H +X^ I P =.*X9 j T.k.U ' F.-.% ",
"W '.` { } >.*X<.n.*XC b Y g.u.X ",
"W |.` { 3.t.&Xm C c.%Xa n m.u.. ",
"N '.9...@.r.&Xi A 5.*XM L W.~ . ",
"5 m.f._ *.#X&XR.#X%X:.v 0.'.7 # ",
"=XQ `.@.l t P.B I.u v { G.a.o =X",
"=X3 u.W.0.A z.V b.+.1.J.E., # =X",
"=X=X3 u.oXF.e.7.q.C.+XH.6 # =X=X",
"=X=X=X=XS s.'.'.'.C.~ ; * =X=X=X",
"=X=X=X=X=X=X1 1 > : = =X=X=X=X=X"
};
