<?xml version="1.0" encoding="utf-8"?>
<!-- Copyright (c) 2013-2020 The Bitcoin Core developers -->
<!-- Distributed under the MIT software license -->
<!-- Reference http://www.opensource.org/licenses/mit-license.php -->
<svg version="1.1" id="Layer_1" xmlns="http://www.w3.org/2000/svg" xmlns:xlink="http://www.w3.org/1999/xlink" x="0px" y="0px"
	 viewBox="0 0 500 320" style="enable-background:new 0 0 500 320;" xml:space="preserve">
<style type="text/css">
	.st0{fill:url(#SVGID_1_);}
	.st1{fill:#808080;}
	.st2{font-family:'Tuffy-Bold';}
	.st3{font-size:10px;}
	.st4{font-size:40px;}
	.st5{font-size:10px;}
</style>
<linearGradient id="SVGID_1_" gradientUnits="userSpaceOnUse" x1="-1494.4189" y1="317.4891" x2="-1493.9189" y2="317.4891" gradientTransform="matrix(1000 0 0 -640 1494419 203353)">
	<stop  offset="0" style="stop-color:#EFEFEF"/>
	<stop  offset="0.5" style="stop-color:#EFEFEF"/>
	<stop  offset="1" style="stop-color:#CDCDCD"/>
	<stop  offset="1" style="stop-color:#CCCCCC"/>
</linearGradient>
<rect class="st0" width="500" height="320"/>
<path class="st1" d="M251.2,136.2c-1.2,1.1-1.2,1.4-1.2,8.2v7h-14.8h-14.9l-1.4,1.4c-1.4,1.4-1.4,1.6-1.4,7.1s0,5.6,1.4,7.1l1.4,1.4
	h14.8H250v7c0,6.8,0.1,7.1,1.2,8.2c0.8,0.9,1.7,1.2,2.8,1.2c1.4,0,3.5-1.6,14.9-11.3c8.7-7.4,13.3-11.6,13.5-12.5
	c0.6-2.6-0.1-3.5-13.5-14.9c-11.4-9.7-13.4-11.2-14.9-11.2C252.9,135,252,135.4,251.2,136.2z"/>
<g>
	<text transform="matrix(1 0 0 1 130 50)" class="st1 st2 st4">PACKAGE_NAME</text>
	<text transform="matrix(1 0 0 1 300 60)" class="st1 st2 st5">vPACKAGE_VERSION</text>
	<text transform="matrix(1 0 0 1 150 290)" class="st1 st2 st3">Copyright &#169; COPYRIGHT_YEAR COPYRIGHT_HOLDERS_FINAL</text>
</g>
</svg>
