<svg xmlns="http://www.w3.org/2000/svg" width="1000pt" height="640pt" preserveAspectRatio="xMidYMid meet" version="1.0" viewBox="0 0 1000 640"><style type="text/css">text{font-family:&quot;Tuffy&quot;;font-size:86px;fill:gray;text-anchor:middle}</style><defs><linearGradient id="gradient" x1="0%" x2="100%" y1="0%" y2="100%"><stop offset="0%" style="stop-color:#efefef;stop-opacity:1"/><stop offset="33%" style="stop-color:#efefef;stop-opacity:1"/><stop offset="80%" style="stop-color:#cdcdcd;stop-opacity:1"/><stop offset="100%" style="stop-color:#ccc;stop-opacity:1"/></linearGradient></defs><rect width="1000" height="640" style="fill:url(#gradient);stroke-width:0"/><g><text x="0" y="114" transform="translate(500,0) scale(0.9, 1)">PACKAGE_NAME</text></g><g fill="#000" stroke="none"><path d="M4995 3705 c-24 -23 -25 -29 -25 -165 l0 -140 -306 0 -306 0 -29 -29 c-29 -29 -29 -31 -29 -141 0 -110 0 -112 29 -141 l29 -29 306 0 306 0 0 -140 c0 -136 1 -142 25 -165 16 -17 35 -25 57 -25 29 0 72 32 306 226 180 149 274 233 278 250 13 53 -2 70 -278 299 -235 194 -277 225 -306 225 -22 0 -41 -8 -57 -25z" fixlter="url(#glow)" transform="translate(0.000000,640.000000) scale(0.100000,-0.100000)"/></g></svg>