<?xml version="1.0" encoding="UTF-8" standalone="no"?>
<!-- Generator: Adobe Illustrator 19.2.1, SVG Export Plug-In . SVG Version: 6.00 Build 0)  -->

<svg
   xmlns:dc="http://purl.org/dc/elements/1.1/"
   xmlns:cc="http://creativecommons.org/ns#"
   xmlns:rdf="http://www.w3.org/1999/02/22-rdf-syntax-ns#"
   xmlns:svg="http://www.w3.org/2000/svg"
   xmlns="http://www.w3.org/2000/svg"
   xmlns:sodipodi="http://sodipodi.sourceforge.net/DTD/sodipodi-0.dtd"
   xmlns:inkscape="http://www.inkscape.org/namespaces/inkscape"
   version="1.1"
   id="Layer_1"
   x="0px"
   y="0px"
   viewBox="0 0 175.20599 88.309158"
   xml:space="preserve"
   sodipodi:docname="patreon.svg"
   inkscape:version="0.92.2pre0 (973e216, 2017-07-25)"
   width="175.20599"
   height="88.309158"><metadata
     id="metadata53"><rdf:RDF><cc:Work
         rdf:about=""><dc:format>image/svg+xml</dc:format><dc:type
           rdf:resource="http://purl.org/dc/dcmitype/StillImage" /><dc:title>support</dc:title></cc:Work></rdf:RDF></metadata><defs
     id="defs51" /><sodipodi:namedview
     pagecolor="#ffffff"
     bordercolor="#666666"
     borderopacity="1"
     objecttolerance="10"
     gridtolerance="10"
     guidetolerance="10"
     inkscape:pageopacity="0"
     inkscape:pageshadow="2"
     inkscape:window-width="1267"
     inkscape:window-height="1054"
     id="namedview49"
     showgrid="false"
     inkscape:zoom="1.672"
     inkscape:cx="-2.5899259"
     inkscape:cy="100.34184"
     inkscape:window-x="0"
     inkscape:window-y="26"
     inkscape:window-maximized="0"
     inkscape:current-layer="Layer_1"
     fit-margin-left="16"
     fit-margin-right="16"
     fit-margin-bottom="16"
     fit-margin-top="16"
     showborder="true" /><style
     type="text/css"
     id="style2">
	.st0{fill:#E64825;}
	.st1{fill:#FFFFFF;}
	.st2{enable-background:new    ;}
</style><title
     id="title4">support</title><g
     id="g4591"
     transform="matrix(1.1623322,0,0,1.1623322,4.376678,-18.86997)"><rect
       ry="5.3968496"
       y="30.000004"
       x="10"
       height="48.444977"
       width="123.20574"
       id="rect4576"
       style="opacity:1;vector-effect:none;fill:#f96854;fill-opacity:1;stroke:none;stroke-width:1.95915079;stroke-linecap:butt;stroke-linejoin:miter;stroke-miterlimit:4;stroke-dasharray:none;stroke-dashoffset:0;stroke-opacity:1" /><g
       transform="translate(9.401915,29.145936)"
       id="g4574"><g
         id="g4557"
         transform="translate(-120.21531,7.9502949)"><path
           id="path8"
           d="m 143.8,12.9 h 0.7 c 6.4,0.2 11.5,5.6 11.3,12 -0.2,6.2 -5.1,11.1 -11.3,11.3 h -5.7 c 0,-3.9 0,-7.8 0,-11.7 0.1,-2.9 2.5,-5.3 5.4,-5.2 2.9,0.1 5.3,2.5 5.2,5.4 -0.1,2.9 -2.5,5.3 -5.4,5.2 -0.8,0 -1.7,-0.2 -2.4,-0.6 0,1.3 0,2.5 0,3.8 1.7,0.5 3.6,0.5 5.3,-0.1 4.7,-1.5 7.2,-6.6 5.6,-11.2 -1.5,-4.7 -6.6,-7.2 -11.2,-5.6 -3.6,1.2 -6,4.5 -6.1,8.3 0,3.9 0,7.8 0,11.7 h -2.8 v -12 c 0.1,-4 2.3,-7.6 5.6,-9.6 1.9,-1.1 3.8,-1.7 5.8,-1.7 z"
           class="st1"
           inkscape:connector-curvature="0"
           style="fill:#ffffff" /><path
           id="path10"
           d="m 186.5,13.9 h 1.9 c 0,1.4 0,2.9 0,4.3 h 2.8 c 0,0.6 0,1.3 0,1.9 h -2.8 c 0,3.1 0,6.2 0,9.3 h -1.9 c 0,-3.1 0,-6.2 0,-9.3 h -1.1 c 0,-0.6 0,-1.3 0,-1.9 h 1.1 c 0,-1.4 -0.1,-2.9 0,-4.3 z"
           class="st1"
           inkscape:connector-curvature="0"
           style="fill:#ffffff" /><path
           id="path12"
           d="m 177.5,17.8 c 3.3,-0.7 6.5,1.5 7.2,4.8 0,0.1 0,0.2 0,0.2 0.1,0.6 0.1,1.2 0.1,1.8 0,1.6 0,3.2 0,4.8 h -1.9 c 0,-0.4 0,-0.8 0,-1.2 -2.4,2.3 -6.3,2.2 -8.6,-0.2 -2.3,-2.4 -2.2,-6.3 0.2,-8.6 0.8,-0.9 1.9,-1.4 3,-1.6 z m 0.8,1.7 c -2.3,0.2 -4,2.3 -3.8,4.6 0,0.3 0.1,0.5 0.2,0.8 0.2,0.8 0.7,1.5 1.3,2 0.7,0.6 1.6,1 2.6,1 0.8,0 1.6,-0.1 2.3,-0.5 2,-1.2 2.7,-3.7 1.6,-5.8 -1,-1.4 -2.5,-2.2 -4.2,-2.1 z"
           class="st1"
           inkscape:connector-curvature="0"
           style="fill:#ffffff" /><path
           id="path14"
           d="m 203.3,17.7 c 2,-0.3 4,0.5 5.3,1.9 l -7.9,6.6 c 1.4,1.9 4,2.3 5.9,0.9 1.3,-0.9 1.9,-2.5 1.7,-4 h 1.9 c 0.1,1.3 -0.2,2.6 -0.9,3.8 -0.5,0.9 -1.2,1.6 -2.1,2.1 -2.9,1.7 -6.6,0.8 -8.4,-2.1 -0.7,-1.1 -1,-2.4 -0.9,-3.6 0.1,-1 0.4,-2 1,-2.8 1.1,-1.5 2.6,-2.5 4.4,-2.8 z m -2.8,3.8 c -0.6,0.9 -0.8,2 -0.6,3 l 5.6,-4.7 c -0.3,-0.1 -0.7,-0.2 -1,-0.2 -1.6,-0.2 -3.1,0.6 -4,1.9 z"
           class="st1"
           inkscape:connector-curvature="0"
           style="fill:#ffffff" /><path
           id="path16"
           d="m 216.6,17.7 c 1.3,-0.1 2.6,0.2 3.6,0.9 2.9,1.8 3.7,5.5 1.9,8.4 -1.8,2.9 -5.5,3.7 -8.4,1.9 -2.9,-1.8 -3.7,-5.5 -1.9,-8.4 0.5,-0.8 1.2,-1.5 2,-2 0.9,-0.5 1.8,-0.8 2.8,-0.8 z m 0.1,1.8 c -2.3,0.2 -4.1,2.2 -3.9,4.5 0.2,2.3 2.2,4.1 4.5,3.9 2.3,-0.2 4.1,-2.2 3.9,-4.5 -0.1,-1.2 -0.7,-2.4 -1.7,-3.1 -0.8,-0.6 -1.8,-0.8 -2.8,-0.8 z"
           class="st1"
           inkscape:connector-curvature="0"
           style="fill:#ffffff" /><path
           id="path18"
           d="m 226,18.9 c 1.2,-1.1 2.8,-1.5 4.3,-1.1 1.2,0.3 2.2,1 2.9,1.9 0.6,0.8 1,1.8 1,2.8 0,1.5 0,3 0,4.6 v 2.2 h -1.9 c 0,-2.2 0,-4.5 0,-6.7 0,-1.1 -0.6,-2.1 -1.5,-2.6 -0.8,-0.5 -1.8,-0.6 -2.7,-0.3 -1.1,0.4 -1.9,1.5 -2.1,2.7 0,0.5 0,1 0,1.6 0,1.8 0,3.6 0,5.4 h -1.9 c 0,-3.7 0,-7.4 0,-11.1 h 1.9 c 0,0.1 0,0.3 0,0.6 z"
           class="st1"
           inkscape:connector-curvature="0"
           style="fill:#ffffff" /><path
           id="path20"
           d="m 161.1,20 c 2.1,-2.6 5.9,-3.1 8.6,-1 2.6,2.1 3.1,5.9 1,8.6 -1.1,1.3 -2.6,2.2 -4.3,2.3 -1,0.1 -2,-0.1 -2.8,-0.6 -0.7,-0.3 -1.3,-0.8 -1.8,-1.3 0,1.9 0,3.8 0,5.7 h -1.9 c 0,-3.3 0,-6.6 0,-9.9 -0.1,-1.4 0.4,-2.7 1.2,-3.8 z m 4,-0.4 c -2.3,0.4 -3.8,2.6 -3.4,4.9 0.4,2.3 2.6,3.8 4.9,3.4 2.3,-0.4 3.8,-2.6 3.4,-4.9 -0.2,-1.2 -1,-2.3 -2,-2.9 -0.9,-0.5 -1.9,-0.7 -2.9,-0.5 z"
           class="st1"
           inkscape:connector-curvature="0"
           style="fill:#ffffff" /><path
           id="path22"
           d="m 192,18.2 h 1.8 c 0,0.6 0,1.1 0,1.7 1.2,-1.1 2.8,-1.8 4.4,-1.7 0,0.6 0,1.3 0,1.9 -2.3,-0.1 -4.3,1.7 -4.4,4.1 0,0 0,0.1 0,0.1 0,1.7 0,3.4 0,5.1 H 192 c 0.1,-3.8 0,-7.5 0,-11.2 z"
           class="st1"
           inkscape:connector-curvature="0"
           style="fill:#ffffff" /></g><text
         xml:space="preserve"
         style="font-style:normal;font-variant:normal;font-weight:normal;font-stretch:normal;font-size:10.8520174px;line-height:4.5em;font-family:'Source Sans Pro';-inkscape-font-specification:'Source Sans Pro';text-align:end;letter-spacing:0px;word-spacing:0px;text-anchor:end;fill:#000000;fill-opacity:1;stroke:none;stroke-width:0.73991024"
         x="114.89897"
         y="14.870183"
         id="text4561"><tspan
           sodipodi:role="line"
           id="tspan4559"
           x="114.89897"
           y="14.870183"
           style="font-style:normal;font-variant:normal;font-weight:normal;font-stretch:normal;font-family:'Source Sans Pro';-inkscape-font-specification:'Source Sans Pro';fill:#ffffff;stroke-width:0.73991024">support us on</tspan></text>
</g></g></svg>