<svg xmlns="http://www.w3.org/2000/svg" xmlns:xlink="http://www.w3.org/1999/xlink" width="2062" zoomAndPan="magnify" viewBox="0 0 1546.5 494.249999" height="659" preserveAspectRatio="xMidYMid meet" version="1.0"><defs><clipPath id="6d17aa5ee1"><path d="M 0.921875 0 L 1545.078125 0 L 1545.078125 493.5 L 0.921875 493.5 Z M 0.921875 0 " clip-rule="nonzero"/></clipPath><clipPath id="d3f355bef1"><path d="M 673 190 L 1142.082031 190 L 1142.082031 304 L 673 304 Z M 673 190 " clip-rule="nonzero"/></clipPath><clipPath id="95236c0f54"><path d="M 403.703125 126.46875 L 645 126.46875 L 645 366.855469 L 403.703125 366.855469 Z M 403.703125 126.46875 " clip-rule="nonzero"/></clipPath></defs><g clip-path="url(#6d17aa5ee1)"><path fill="#ffffff" d="M 0.921875 0 L 1545.078125 0 L 1545.078125 493.5 L 0.921875 493.5 Z M 0.921875 0 " fill-opacity="1" fill-rule="nonzero"/><path fill="#000000" d="M 0.921875 0 L 1545.078125 0 L 1545.078125 493.5 L 0.921875 493.5 Z M 0.921875 0 " fill-opacity="1" fill-rule="nonzero"/></g><g clip-path="url(#d3f355bef1)"><path fill="#ffffff" d="M 673.191406 302.851562 L 673.191406 192.964844 L 710.664062 192.964844 C 723.027344 192.964844 732.441406 195.457031 738.898438 200.4375 C 745.355469 205.417969 748.585938 212.839844 748.585938 222.699219 C 748.585938 227.730469 747.234375 232.261719 744.53125 236.285156 C 741.828125 240.3125 737.871094 243.429688 732.664062 245.644531 C 738.574219 247.253906 743.128906 250.296875 746.332031 254.777344 C 749.585938 259.203125 751.214844 264.535156 751.214844 270.777344 C 751.214844 281.089844 747.910156 289.015625 741.300781 294.550781 C 734.742188 300.082031 725.332031 302.851562 713.066406 302.851562 Z M 692.191406 253.265625 L 692.191406 287.605469 L 713.292969 287.605469 C 719.25 287.605469 723.90625 286.121094 727.257812 283.15625 C 730.613281 280.183594 732.292969 276.058594 732.292969 270.777344 C 732.292969 259.355469 726.484375 253.519531 714.871094 253.265625 Z M 692.191406 239.230469 L 710.8125 239.230469 C 716.722656 239.230469 721.324219 237.894531 724.628906 235.230469 C 727.984375 232.511719 729.660156 228.6875 729.660156 223.757812 C 729.660156 218.324219 728.109375 214.398438 725.007812 211.984375 C 721.953125 209.570312 717.171875 208.359375 710.664062 208.359375 L 692.191406 208.359375 Z M 787.859375 302.851562 L 769.609375 302.851562 L 769.609375 221.191406 L 787.859375 221.191406 Z M 768.484375 199.984375 C 768.484375 197.167969 769.359375 194.828125 771.113281 192.964844 C 772.914062 191.101562 775.46875 190.171875 778.773438 190.171875 C 782.074219 190.171875 784.628906 191.101562 786.433594 192.964844 C 788.234375 194.828125 789.136719 197.167969 789.136719 199.984375 C 789.136719 202.75 788.234375 205.066406 786.433594 206.925781 C 784.628906 208.738281 782.074219 209.644531 778.773438 209.644531 C 775.46875 209.644531 772.914062 208.738281 771.113281 206.925781 C 769.359375 205.066406 768.484375 202.75 768.484375 199.984375 Z M 830.660156 200.132812 L 830.660156 219.984375 L 845.003906 219.984375 L 845.003906 233.570312 L 830.660156 233.570312 L 830.660156 279.152344 C 830.660156 282.273438 831.261719 284.535156 832.460938 285.945312 C 833.714844 287.304688 835.917969 287.984375 839.070312 287.984375 C 841.171875 287.984375 843.300781 287.730469 845.453125 287.226562 L 845.453125 301.417969 C 841.300781 302.574219 837.292969 303.152344 833.4375 303.152344 C 819.421875 303.152344 812.414062 295.378906 812.414062 279.832031 L 812.414062 233.570312 L 799.046875 233.570312 L 799.046875 219.984375 L 812.414062 219.984375 L 812.414062 200.132812 Z M 892.386719 288.511719 C 896.941406 288.511719 900.71875 287.179688 903.722656 284.511719 C 906.726562 281.84375 908.328125 278.550781 908.53125 274.625 L 925.726562 274.625 C 925.527344 279.707031 923.949219 284.460938 920.996094 288.890625 C 918.042969 293.265625 914.035156 296.738281 908.980469 299.304688 C 903.925781 301.871094 898.46875 303.152344 892.609375 303.152344 C 881.246094 303.152344 872.234375 299.457031 865.578125 292.058594 C 858.917969 284.664062 855.589844 274.449219 855.589844 261.417969 L 855.589844 259.53125 C 855.589844 247.101562 858.894531 237.167969 865.5 229.71875 C 872.109375 222.222656 881.121094 218.472656 892.535156 218.472656 C 902.195312 218.472656 910.058594 221.316406 916.113281 227.003906 C 922.222656 232.636719 925.425781 240.058594 925.726562 249.265625 L 908.53125 249.265625 C 908.328125 244.585938 906.726562 240.738281 903.722656 237.71875 C 900.769531 234.699219 896.992188 233.191406 892.386719 233.191406 C 886.476562 233.191406 881.921875 235.355469 878.71875 239.683594 C 875.515625 243.957031 873.886719 250.472656 873.835938 259.230469 L 873.835938 262.171875 C 873.835938 271.027344 875.414062 277.644531 878.570312 282.019531 C 881.773438 286.347656 886.378906 288.511719 892.386719 288.511719 Z M 936.089844 260.058594 C 936.089844 252.058594 937.664062 244.863281 940.820312 238.472656 C 943.972656 232.035156 948.402344 227.101562 954.109375 223.683594 C 959.816406 220.210938 966.375 218.472656 973.785156 218.472656 C 984.746094 218.472656 993.632812 222.019531 1000.441406 229.117188 C 1007.300781 236.210938 1011.003906 245.617188 1011.554688 257.34375 L 1011.632812 261.644531 C 1011.632812 269.695312 1010.078125 276.890625 1006.972656 283.230469 C 1003.921875 289.566406 999.515625 294.472656 993.757812 297.945312 C 988.050781 301.417969 981.445312 303.152344 973.933594 303.152344 C 962.472656 303.152344 953.285156 299.328125 946.375 291.683594 C 939.519531 283.984375 936.089844 273.746094 936.089844 260.964844 Z M 954.335938 261.644531 C 954.335938 270.046875 956.0625 276.636719 959.515625 281.417969 C 962.972656 286.148438 967.777344 288.511719 973.933594 288.511719 C 980.09375 288.511719 984.875 286.097656 988.277344 281.265625 C 991.730469 276.4375 993.457031 269.367188 993.457031 260.058594 C 993.457031 251.808594 991.679688 245.265625 988.128906 240.4375 C 984.621094 235.605469 979.84375 233.191406 973.785156 233.191406 C 967.828125 233.191406 963.097656 235.582031 959.59375 240.359375 C 956.089844 245.089844 954.335938 252.1875 954.335938 261.644531 Z M 1046.472656 302.851562 L 1028.226562 302.851562 L 1028.226562 221.191406 L 1046.472656 221.191406 Z M 1027.097656 199.984375 C 1027.097656 197.167969 1027.976562 194.828125 1029.726562 192.964844 C 1031.53125 191.101562 1034.082031 190.171875 1037.386719 190.171875 C 1040.691406 190.171875 1043.246094 191.101562 1045.046875 192.964844 C 1046.847656 194.828125 1047.75 197.167969 1047.75 199.984375 C 1047.75 202.75 1046.847656 205.066406 1045.046875 206.925781 C 1043.246094 208.738281 1040.691406 209.644531 1037.386719 209.644531 C 1034.082031 209.644531 1031.53125 208.738281 1029.726562 206.925781 C 1027.976562 205.066406 1027.097656 202.75 1027.097656 199.984375 Z M 1083.34375 221.191406 L 1083.867188 230.625 C 1089.875 223.328125 1097.761719 219.683594 1107.523438 219.683594 C 1124.441406 219.683594 1133.054688 229.417969 1133.355469 248.890625 L 1133.355469 302.851562 L 1115.105469 302.851562 L 1115.105469 249.945312 C 1115.105469 244.761719 1113.980469 240.941406 1111.726562 238.472656 C 1109.527344 235.957031 1105.894531 234.699219 1100.839844 234.699219 C 1093.480469 234.699219 1088 238.046875 1084.394531 244.738281 L 1084.394531 302.851562 L 1066.148438 302.851562 L 1066.148438 221.191406 Z M 1233.902344 267.378906 C 1232.652344 278.953125 1228.519531 287.808594 1221.511719 293.945312 C 1214.550781 300.082031 1205.265625 303.152344 1193.652344 303.152344 C 1185.542969 303.152344 1178.359375 301.113281 1172.101562 297.039062 C 1165.894531 292.964844 1161.085938 287.203125 1157.683594 279.757812 C 1154.28125 272.261719 1152.550781 263.707031 1152.503906 254.097656 L 1152.503906 239.832031 C 1152.503906 230.070312 1154.203125 221.417969 1157.609375 213.871094 C 1161.015625 206.324219 1165.894531 200.511719 1172.253906 196.4375 C 1178.660156 192.3125 1186.019531 190.246094 1194.328125 190.246094 C 1206.042969 190.246094 1215.28125 193.441406 1222.035156 199.832031 C 1228.84375 206.171875 1232.800781 214.953125 1233.902344 226.171875 L 1224.589844 226.171875 C 1222.289062 207.503906 1212.199219 198.171875 1194.328125 198.171875 C 1184.417969 198.171875 1176.507812 201.894531 1170.597656 209.34375 C 1164.742188 216.789062 1161.816406 227.078125 1161.816406 240.210938 L 1161.816406 253.644531 C 1161.816406 266.324219 1164.667969 276.4375 1170.375 283.984375 C 1176.132812 291.53125 1183.890625 295.304688 1193.652344 295.304688 C 1203.3125 295.304688 1210.597656 292.988281 1215.503906 288.359375 C 1220.410156 283.683594 1223.4375 276.6875 1224.589844 267.378906 Z M 1244.488281 259.605469 C 1244.488281 251.757812 1245.992188 244.6875 1248.996094 238.398438 C 1252.050781 232.109375 1256.328125 227.230469 1261.835938 223.757812 C 1267.390625 220.234375 1273.675781 218.472656 1280.683594 218.472656 C 1291.496094 218.472656 1300.257812 222.296875 1306.964844 229.945312 C 1313.675781 237.542969 1317.027344 247.632812 1317.027344 260.210938 L 1317.027344 262.097656 C 1317.027344 269.996094 1315.5 277.117188 1312.445312 283.457031 C 1309.441406 289.746094 1305.1875 294.601562 1299.683594 298.019531 C 1294.175781 301.441406 1287.894531 303.152344 1280.832031 303.152344 C 1270.070312 303.152344 1261.308594 299.355469 1254.550781 291.757812 C 1247.84375 284.109375 1244.488281 273.996094 1244.488281 261.417969 Z M 1253.5 262.097656 C 1253.5 271.859375 1256.003906 279.882812 1261.007812 286.171875 C 1266.066406 292.410156 1272.675781 295.53125 1280.832031 295.53125 C 1288.945312 295.53125 1295.5 292.410156 1300.507812 286.171875 C 1305.5625 279.882812 1308.09375 271.605469 1308.09375 261.34375 L 1308.09375 259.605469 C 1308.09375 253.367188 1306.941406 247.65625 1304.636719 242.472656 C 1302.335938 237.292969 1299.105469 233.292969 1294.949219 230.472656 C 1290.796875 227.605469 1286.039062 226.171875 1280.683594 226.171875 C 1272.675781 226.171875 1266.140625 229.34375 1261.085938 235.683594 C 1256.027344 241.972656 1253.5 250.222656 1253.5 260.4375 Z M 1368.390625 228.890625 C 1366.488281 228.539062 1364.460938 228.359375 1362.308594 228.359375 C 1356.703125 228.359375 1351.945312 229.945312 1348.042969 233.117188 C 1344.1875 236.234375 1341.433594 240.789062 1339.78125 246.777344 L 1339.78125 302.851562 L 1330.84375 302.851562 L 1330.84375 221.191406 L 1339.632812 221.191406 L 1339.78125 234.171875 C 1344.535156 224.511719 1352.171875 219.683594 1362.683594 219.683594 C 1365.1875 219.683594 1367.164062 220.007812 1368.617188 220.664062 Z M 1412.621094 303.152344 C 1405.710938 303.152344 1399.453125 301.441406 1393.847656 298.019531 C 1388.289062 294.601562 1383.957031 289.84375 1380.855469 283.757812 C 1377.753906 277.617188 1376.199219 270.75 1376.199219 263.152344 L 1376.199219 259.910156 C 1376.199219 252.058594 1377.703125 244.988281 1380.707031 238.699219 C 1383.761719 232.410156 1387.988281 227.480469 1393.394531 223.90625 C 1398.804688 220.285156 1404.660156 218.472656 1410.96875 218.472656 C 1420.828125 218.472656 1428.640625 221.871094 1434.394531 228.664062 C 1440.203125 235.40625 1443.105469 244.636719 1443.105469 256.359375 L 1443.105469 261.417969 L 1385.136719 261.417969 L 1385.136719 263.152344 C 1385.136719 272.410156 1387.765625 280.136719 1393.019531 286.324219 C 1398.328125 292.460938 1404.984375 295.53125 1412.996094 295.53125 C 1417.800781 295.53125 1422.03125 294.648438 1425.683594 292.890625 C 1429.390625 291.128906 1432.746094 288.3125 1435.75 284.4375 L 1441.378906 288.738281 C 1434.773438 298.347656 1425.183594 303.152344 1412.621094 303.152344 Z M 1410.96875 226.171875 C 1404.210938 226.171875 1398.503906 228.664062 1393.847656 233.644531 C 1389.242188 238.625 1386.4375 245.316406 1385.4375 253.71875 L 1434.171875 253.71875 L 1434.171875 252.738281 C 1433.921875 244.890625 1431.691406 238.5 1427.488281 233.570312 C 1423.28125 228.636719 1417.777344 226.171875 1410.96875 226.171875 Z M 1410.96875 226.171875 " fill-opacity="1" fill-rule="nonzero"/></g><g clip-path="url(#95236c0f54)"><path fill="#ffb040" d="M 644.320312 246.664062 C 644.320312 248.628906 644.273438 250.597656 644.175781 252.558594 C 644.078125 254.523438 643.933594 256.484375 643.742188 258.445312 C 643.550781 260.402344 643.308594 262.351562 643.019531 264.296875 C 642.730469 266.246094 642.394531 268.183594 642.011719 270.109375 C 641.625 272.039062 641.195312 273.960938 640.714844 275.867188 C 640.238281 277.773438 639.714844 279.671875 639.140625 281.554688 C 638.570312 283.433594 637.953125 285.300781 637.289062 287.15625 C 636.625 289.007812 635.917969 290.839844 635.164062 292.660156 C 634.410156 294.476562 633.613281 296.273438 632.769531 298.050781 C 631.929688 299.828125 631.042969 301.585938 630.117188 303.320312 C 629.1875 305.054688 628.21875 306.765625 627.207031 308.453125 C 626.195312 310.140625 625.140625 311.804688 624.046875 313.4375 C 622.953125 315.074219 621.820312 316.679688 620.648438 318.261719 C 619.476562 319.839844 618.265625 321.390625 617.015625 322.914062 C 615.765625 324.433594 614.480469 325.921875 613.15625 327.378906 C 611.835938 328.835938 610.480469 330.261719 609.085938 331.652344 C 607.695312 333.042969 606.269531 334.398438 604.808594 335.71875 C 603.351562 337.039062 601.859375 338.324219 600.339844 339.574219 C 598.816406 340.820312 597.265625 342.03125 595.683594 343.203125 C 594.101562 344.375 592.492188 345.507812 590.855469 346.597656 C 589.21875 347.691406 587.558594 348.746094 585.867188 349.753906 C 584.179688 350.765625 582.46875 351.734375 580.730469 352.664062 C 578.996094 353.589844 577.238281 354.476562 575.457031 355.316406 C 573.675781 356.15625 571.878906 356.953125 570.058594 357.707031 C 568.238281 358.460938 566.402344 359.167969 564.550781 359.828125 C 562.695312 360.492188 560.828125 361.109375 558.945312 361.679688 C 557.058594 362.25 555.164062 362.777344 553.253906 363.253906 C 551.34375 363.730469 549.421875 364.164062 547.492188 364.546875 C 545.5625 364.929688 543.621094 365.265625 541.675781 365.554688 C 539.726562 365.84375 537.773438 366.082031 535.8125 366.277344 C 533.855469 366.46875 531.890625 366.613281 529.925781 366.710938 C 527.957031 366.808594 525.992188 366.855469 524.023438 366.855469 C 522.054688 366.855469 520.085938 366.808594 518.121094 366.710938 C 516.152344 366.613281 514.191406 366.46875 512.230469 366.277344 C 510.273438 366.082031 508.320312 365.84375 506.371094 365.554688 C 504.421875 365.265625 502.484375 364.929688 500.554688 364.546875 C 498.621094 364.164062 496.703125 363.730469 494.792969 363.253906 C 492.882812 362.777344 490.984375 362.25 489.101562 361.679688 C 487.21875 361.109375 485.347656 360.492188 483.496094 359.828125 C 481.640625 359.167969 479.804688 358.460938 477.984375 357.707031 C 476.167969 356.953125 474.367188 356.15625 472.589844 355.316406 C 470.808594 354.476562 469.050781 353.589844 467.3125 352.664062 C 465.578125 351.734375 463.863281 350.765625 462.175781 349.753906 C 460.488281 348.746094 458.824219 347.691406 457.1875 346.597656 C 455.550781 345.507812 453.941406 344.375 452.359375 343.203125 C 450.777344 342.03125 449.226562 340.820312 447.707031 339.574219 C 446.183594 338.324219 444.695312 337.039062 443.234375 335.71875 C 441.777344 334.398438 440.351562 333.042969 438.957031 331.652344 C 437.566406 330.261719 436.210938 328.835938 434.886719 327.378906 C 433.566406 325.921875 432.277344 324.433594 431.03125 322.914062 C 429.78125 321.390625 428.570312 319.839844 427.398438 318.261719 C 426.226562 316.679688 425.089844 315.074219 423.996094 313.4375 C 422.902344 311.804688 421.851562 310.140625 420.839844 308.453125 C 419.828125 306.765625 418.855469 305.054688 417.929688 303.320312 C 417 301.585938 416.117188 299.828125 415.273438 298.050781 C 414.433594 296.273438 413.632812 294.476562 412.878906 292.660156 C 412.128906 290.839844 411.417969 289.007812 410.753906 287.15625 C 410.09375 285.300781 409.476562 283.433594 408.902344 281.554688 C 408.332031 279.671875 407.808594 277.773438 407.328125 275.867188 C 406.851562 273.960938 406.417969 272.039062 406.035156 270.109375 C 405.652344 268.183594 405.316406 266.246094 405.027344 264.296875 C 404.738281 262.351562 404.496094 260.402344 404.304688 258.445312 C 404.109375 256.484375 403.964844 254.523438 403.867188 252.558594 C 403.773438 250.597656 403.722656 248.628906 403.722656 246.664062 C 403.722656 244.695312 403.773438 242.730469 403.867188 240.765625 C 403.964844 238.800781 404.109375 236.839844 404.304688 234.882812 C 404.496094 232.925781 404.738281 230.972656 405.027344 229.027344 C 405.316406 227.082031 405.652344 225.144531 406.035156 223.214844 C 406.417969 221.285156 406.851562 219.367188 407.328125 217.457031 C 407.808594 215.550781 408.332031 213.65625 408.902344 211.773438 C 409.476562 209.890625 410.09375 208.023438 410.753906 206.171875 C 411.417969 204.320312 412.128906 202.484375 412.878906 200.667969 C 413.632812 198.851562 414.433594 197.050781 415.273438 195.273438 C 416.117188 193.496094 417 191.738281 417.929688 190.003906 C 418.855469 188.269531 419.828125 186.558594 420.839844 184.871094 C 421.851562 183.183594 422.902344 181.523438 423.996094 179.886719 C 425.089844 178.25 426.226562 176.644531 427.398438 175.0625 C 428.570312 173.484375 429.78125 171.933594 431.03125 170.414062 C 432.277344 168.894531 433.566406 167.402344 434.886719 165.945312 C 436.210938 164.488281 437.566406 163.066406 438.957031 161.675781 C 440.351562 160.28125 441.777344 158.925781 443.234375 157.605469 C 444.695312 156.285156 446.183594 155 447.707031 153.753906 C 449.226562 152.503906 450.777344 151.296875 452.359375 150.125 C 453.941406 148.953125 455.550781 147.820312 457.1875 146.726562 C 458.824219 145.632812 460.488281 144.582031 462.175781 143.570312 C 463.863281 142.558594 465.578125 141.589844 467.3125 140.664062 C 469.050781 139.734375 470.808594 138.851562 472.589844 138.011719 C 474.367188 137.167969 476.167969 136.371094 477.984375 135.621094 C 479.804688 134.867188 481.640625 134.160156 483.496094 133.496094 C 485.347656 132.832031 487.21875 132.214844 489.101562 131.644531 C 490.984375 131.074219 492.882812 130.550781 494.792969 130.074219 C 496.703125 129.59375 498.621094 129.164062 500.554688 128.78125 C 502.484375 128.394531 504.421875 128.058594 506.371094 127.769531 C 508.320312 127.484375 510.273438 127.242188 512.230469 127.050781 C 514.191406 126.855469 516.152344 126.710938 518.121094 126.613281 C 520.085938 126.519531 522.054688 126.46875 524.023438 126.46875 C 525.992188 126.46875 527.957031 126.519531 529.925781 126.613281 C 531.890625 126.710938 533.855469 126.855469 535.8125 127.050781 C 537.773438 127.242188 539.726562 127.484375 541.675781 127.769531 C 543.621094 128.058594 545.5625 128.394531 547.492188 128.78125 C 549.421875 129.164062 551.34375 129.59375 553.253906 130.074219 C 555.164062 130.550781 557.058594 131.074219 558.945312 131.644531 C 560.828125 132.214844 562.695312 132.832031 564.550781 133.496094 C 566.402344 134.160156 568.238281 134.867188 570.058594 135.621094 C 571.878906 136.371094 573.675781 137.167969 575.457031 138.011719 C 577.238281 138.851562 578.996094 139.734375 580.730469 140.664062 C 582.46875 141.589844 584.179688 142.558594 585.867188 143.570312 C 587.558594 144.582031 589.21875 145.632812 590.855469 146.726562 C 592.492188 147.820312 594.101562 148.953125 595.683594 150.125 C 597.265625 151.296875 598.816406 152.503906 600.339844 153.753906 C 601.859375 155 603.351562 156.285156 604.808594 157.605469 C 606.269531 158.925781 607.695312 160.28125 609.085938 161.675781 C 610.480469 163.066406 611.835938 164.488281 613.15625 165.945312 C 614.480469 167.402344 615.765625 168.894531 617.015625 170.414062 C 618.265625 171.933594 619.476562 173.484375 620.648438 175.0625 C 621.820312 176.644531 622.953125 178.25 624.046875 179.886719 C 625.140625 181.523438 626.195312 183.183594 627.207031 184.871094 C 628.21875 186.558594 629.1875 188.269531 630.117188 190.003906 C 631.042969 191.738281 631.929688 193.496094 632.769531 195.273438 C 633.613281 197.050781 634.410156 198.851562 635.164062 200.667969 C 635.917969 202.484375 636.625 204.320312 637.289062 206.171875 C 637.953125 208.023438 638.570312 209.890625 639.140625 211.773438 C 639.710938 213.65625 640.238281 215.550781 640.714844 217.457031 C 641.195312 219.367188 641.625 221.285156 642.011719 223.214844 C 642.394531 225.144531 642.730469 227.082031 643.019531 229.027344 C 643.308594 230.972656 643.550781 232.925781 643.742188 234.882812 C 643.933594 236.839844 644.078125 238.800781 644.175781 240.765625 C 644.273438 242.730469 644.320312 244.695312 644.320312 246.664062 Z M 644.320312 246.664062 " fill-opacity="1" fill-rule="nonzero"/></g><path fill="#ffffff" d="M 549.851562 195.617188 C 566.535156 201.730469 578.554688 210.789062 575.796875 228.171875 C 573.714844 240.824219 567.074219 247.011719 558.105469 249.191406 C 570.042969 255.867188 575.789062 266 569.640625 283.769531 C 561.996094 306.054688 544.886719 308.078125 522.226562 303.761719 L 516.394531 327.28125 L 503.226562 324.023438 L 509.058594 300.5 C 507.625 300.121094 506.117188 299.769531 504.570312 299.410156 C 502.5 298.925781 500.359375 298.429688 498.246094 297.824219 L 492.410156 321.347656 L 479.269531 318.09375 L 485.101562 294.570312 L 458.921875 287.445312 L 465.425781 270.8125 C 465.425781 270.8125 475.308594 273.53125 475.15625 273.359375 C 478.820312 274.25 480.613281 271.691406 481.347656 269.902344 L 490.691406 232.191406 L 497.488281 205.390625 C 497.785156 202.492188 496.875 198.703125 491.519531 197.261719 C 491.886719 197.046875 481.878906 194.875 481.878906 194.875 L 485.777344 179.113281 L 512.761719 185.792969 L 518.476562 162.753906 L 532.070312 166.117188 L 526.355469 189.15625 C 529 189.730469 531.582031 190.398438 534.191406 191.074219 L 534.195312 191.074219 C 535.050781 191.296875 535.910156 191.519531 536.777344 191.738281 L 542.492188 168.695312 L 555.71875 171.972656 Z M 513.78125 232.664062 C 513.988281 232.726562 514.207031 232.792969 514.441406 232.863281 C 522.34375 235.234375 545.785156 242.273438 549.734375 226.605469 C 553.410156 211.714844 533.101562 207.164062 523.667969 205.050781 C 522.554688 204.800781 521.589844 204.585938 520.835938 204.390625 Z M 503.378906 279.113281 C 502.964844 278.992188 502.582031 278.878906 502.234375 278.777344 L 509.289062 250.503906 C 510.121094 250.71875 511.175781 250.96875 512.398438 251.253906 C 523.519531 253.863281 548.363281 259.695312 544.5 274.671875 C 540.753906 290.21875 513.117188 282.007812 503.378906 279.113281 Z M 503.378906 279.113281 " fill-opacity="1" fill-rule="evenodd"/></svg>