<?xml version="1.0" encoding="utf-8"?>
<!-- Generator: Adobe Illustrator 25.0.0, SVG Export Plug-In . SVG Version: 6.00 Build 0)  -->
<svg version="1.1" id="Layer_1" xmlns="http://www.w3.org/2000/svg" xmlns:xlink="http://www.w3.org/1999/xlink" x="0px" y="0px"
	 viewBox="0 0 595.3 409.4" style="enable-background:new 0 0 595.3 409.4;" xml:space="preserve">
<style type="text/css">
	.st0{clip-path:url(#SVGID_2_);}
	.st1{clip-path:url(#SVGID_4_);fill:url(#SVGID_5_);}
	.st2{clip-path:url(#SVGID_7_);fill:url(#SVGID_8_);}
	.st3{clip-path:url(#SVGID_10_);fill:url(#SVGID_11_);}
	.st4{clip-path:url(#SVGID_13_);fill:url(#SVGID_14_);}
	.st5{clip-path:url(#SVGID_16_);fill:url(#SVGID_17_);}
	.st6{clip-path:url(#SVGID_19_);fill:url(#SVGID_20_);}
	.st7{clip-path:url(#SVGID_22_);fill:url(#SVGID_23_);}
	.st8{clip-path:url(#SVGID_25_);fill:url(#SVGID_26_);}
	.st9{clip-path:url(#SVGID_28_);fill:url(#SVGID_29_);}
	.st10{clip-path:url(#SVGID_31_);fill:url(#SVGID_32_);}
	.st11{clip-path:url(#SVGID_34_);fill:url(#SVGID_35_);}
	.st12{clip-path:url(#SVGID_37_);fill:url(#SVGID_38_);}
	.st13{clip-path:url(#SVGID_40_);fill:url(#SVGID_41_);}
	.st14{clip-path:url(#SVGID_43_);fill:url(#SVGID_44_);}
	.st15{clip-path:url(#SVGID_46_);fill:url(#SVGID_47_);}
	.st16{clip-path:url(#SVGID_49_);fill:url(#SVGID_50_);}
	.st17{clip-path:url(#SVGID_52_);fill:url(#SVGID_53_);}
	.st18{clip-path:url(#SVGID_55_);fill:url(#SVGID_56_);}
	.st19{clip-path:url(#SVGID_58_);fill:url(#SVGID_59_);}
	.st20{clip-path:url(#SVGID_61_);fill:url(#SVGID_62_);}
	.st21{clip-path:url(#SVGID_64_);fill:url(#SVGID_65_);}
	.st22{clip-path:url(#SVGID_67_);fill:url(#SVGID_68_);}
	.st23{clip-path:url(#SVGID_70_);fill:url(#SVGID_71_);}
	.st24{clip-path:url(#SVGID_73_);fill:url(#SVGID_74_);}
	.st25{clip-path:url(#SVGID_76_);fill:url(#SVGID_77_);}
	.st26{clip-path:url(#SVGID_79_);fill:url(#SVGID_80_);}
	.st27{clip-path:url(#SVGID_82_);fill:url(#SVGID_83_);}
	.st28{clip-path:url(#SVGID_85_);fill:url(#SVGID_86_);}
	.st29{clip-path:url(#SVGID_88_);fill:url(#SVGID_89_);}
	.st30{clip-path:url(#SVGID_91_);fill:url(#SVGID_92_);}
	.st31{clip-path:url(#SVGID_94_);fill:url(#SVGID_95_);}
	.st32{clip-path:url(#SVGID_97_);fill:url(#SVGID_98_);}
	.st33{clip-path:url(#SVGID_100_);fill:url(#SVGID_101_);}
</style>
<g>
	<defs>
		<rect id="SVGID_1_" x="46.2" y="14.8" width="503.8" height="379.1"/>
	</defs>
	<clipPath id="SVGID_2_">
		<use xlink:href="#SVGID_1_"  style="overflow:visible;"/>
	</clipPath>
	<g class="st0">
		<defs>
			<path id="SVGID_3_" d="M409.8,67.5L423,80.4c3,3,8.6,7,12.4,9l53.7,28.5c3.8,2,4,1.7,0.4-0.7l-78-50.8c-1.5-1-2.6-1.5-3.1-1.5
				C407.7,64.9,408.1,65.8,409.8,67.5"/>
		</defs>
		<clipPath id="SVGID_4_">
			<use xlink:href="#SVGID_3_"  style="overflow:visible;"/>
		</clipPath>
		
			<radialGradient id="SVGID_5_" cx="-74.0365" cy="486.5293" r="0.6749" gradientTransform="matrix(257.9778 0 0 -257.9778 19413.9141 125633.0703)" gradientUnits="userSpaceOnUse">
			<stop  offset="0" style="stop-color:#FFFFFF"/>
			<stop  offset="1.090000e-02" style="stop-color:#FCFCFB"/>
			<stop  offset="0.1423" style="stop-color:#E0D7CA"/>
			<stop  offset="0.2772" style="stop-color:#C7B8A1"/>
			<stop  offset="0.4137" style="stop-color:#B39E7F"/>
			<stop  offset="0.5525" style="stop-color:#A38A65"/>
			<stop  offset="0.6942" style="stop-color:#987C52"/>
			<stop  offset="0.8409" style="stop-color:#917447"/>
			<stop  offset="1" style="stop-color:#8F7143"/>
		</radialGradient>
		<rect x="407.7" y="64.9" class="st1" width="85.3" height="55"/>
	</g>
	<g class="st0">
		<defs>
			<path id="SVGID_6_" d="M490,179.9L371.1,281.7c-3.2,2.8-8.2,7.6-11.1,10.7l-48.4,52.3c-1.2,1.3-1.8,2.4-1.5,2.5
				c0.3,0.1,1.6-0.7,2.8-1.9l84.8-79l92.5-86.2c1.6-1.5,2.4-2.3,2.3-2.3C492.4,177.9,491.6,178.5,490,179.9"/>
		</defs>
		<clipPath id="SVGID_7_">
			<use xlink:href="#SVGID_6_"  style="overflow:visible;"/>
		</clipPath>
		
			<radialGradient id="SVGID_8_" cx="-74.0366" cy="486.5299" r="0.6749" gradientTransform="matrix(257.9778 0 0 -257.9778 19413.9141 125633.0703)" gradientUnits="userSpaceOnUse">
			<stop  offset="0" style="stop-color:#FFFFFF"/>
			<stop  offset="1.090000e-02" style="stop-color:#FCFCFB"/>
			<stop  offset="0.1423" style="stop-color:#E0D7CA"/>
			<stop  offset="0.2772" style="stop-color:#C7B8A1"/>
			<stop  offset="0.4137" style="stop-color:#B39E7F"/>
			<stop  offset="0.5525" style="stop-color:#A38A65"/>
			<stop  offset="0.6942" style="stop-color:#987C52"/>
			<stop  offset="0.8409" style="stop-color:#917447"/>
			<stop  offset="1" style="stop-color:#8F7143"/>
		</radialGradient>
		<rect x="309.7" y="177.9" class="st2" width="182.8" height="169.4"/>
	</g>
	<g class="st0">
		<defs>
			<path id="SVGID_9_" d="M367.4,68.1l-6.1,7c-2.8,3.2-2.1,7.6,1.5,9.8l43.6,26.1c3.7,2.2,7.8,0.7,9.3-3.3l4.7-12.6
				c1.5-4-0.4-8.8-4.2-10.8l-36.8-18.6c-1.3-0.7-2.8-1-4.3-1C372.2,64.8,369.2,66,367.4,68.1"/>
		</defs>
		<clipPath id="SVGID_10_">
			<use xlink:href="#SVGID_9_"  style="overflow:visible;"/>
		</clipPath>
		
			<radialGradient id="SVGID_11_" cx="-74.0361" cy="486.5294" r="0.6745" gradientTransform="matrix(257.9778 0 0 -257.9778 19413.9141 125633.0703)" gradientUnits="userSpaceOnUse">
			<stop  offset="0" style="stop-color:#FFFFFF"/>
			<stop  offset="1.090000e-02" style="stop-color:#FCFCFB"/>
			<stop  offset="0.1423" style="stop-color:#E0D7CA"/>
			<stop  offset="0.2772" style="stop-color:#C7B8A1"/>
			<stop  offset="0.4137" style="stop-color:#B39E7F"/>
			<stop  offset="0.5525" style="stop-color:#A38A65"/>
			<stop  offset="0.6942" style="stop-color:#987C52"/>
			<stop  offset="0.8409" style="stop-color:#917447"/>
			<stop  offset="1" style="stop-color:#8F7143"/>
		</radialGradient>
		<rect x="358.5" y="64.8" class="st3" width="63.4" height="48.4"/>
	</g>
	<g class="st0">
		<defs>
			<path id="SVGID_12_" d="M396.7,64.7l1.6,0.8c3.8,1.9,5.1,1.7,2.9-0.4c-2.2-2.2-5.7-3.9-7.7-3.9C391.5,61.2,392.9,62.8,396.7,64.7
				"/>
		</defs>
		<clipPath id="SVGID_13_">
			<use xlink:href="#SVGID_12_"  style="overflow:visible;"/>
		</clipPath>
		
			<radialGradient id="SVGID_14_" cx="-74.0363" cy="486.5315" r="0.6731" gradientTransform="matrix(257.9778 0 0 -257.9778 19413.9141 125633.0703)" gradientUnits="userSpaceOnUse">
			<stop  offset="0" style="stop-color:#FFFFFF"/>
			<stop  offset="1.090000e-02" style="stop-color:#FCFCFB"/>
			<stop  offset="0.1423" style="stop-color:#E0D7CA"/>
			<stop  offset="0.2772" style="stop-color:#C7B8A1"/>
			<stop  offset="0.4137" style="stop-color:#B39E7F"/>
			<stop  offset="0.5525" style="stop-color:#A38A65"/>
			<stop  offset="0.6942" style="stop-color:#987C52"/>
			<stop  offset="0.8409" style="stop-color:#917447"/>
			<stop  offset="1" style="stop-color:#8F7143"/>
		</radialGradient>
		<rect x="391.5" y="61.2" class="st4" width="12" height="6.2"/>
	</g>
	<g class="st0">
		<defs>
			<path id="SVGID_15_" d="M392.9,209.3l-60.8,74.6c-2.7,3.3-6,9.3-7.4,13.3l-11.9,35c-1.4,4-0.1,4.8,2.8,1.6l40.7-44
				c2.9-3.1,6.7-8.8,8.4-12.7l29.9-66.8c1-2.2,1.2-3.3,0.7-3.3C394.9,207.1,394.1,207.9,392.9,209.3"/>
		</defs>
		<clipPath id="SVGID_16_">
			<use xlink:href="#SVGID_15_"  style="overflow:visible;"/>
		</clipPath>
		
			<radialGradient id="SVGID_17_" cx="-74.0364" cy="486.5295" r="0.6747" gradientTransform="matrix(257.9778 0 0 -257.9778 19413.9141 125633.0703)" gradientUnits="userSpaceOnUse">
			<stop  offset="0" style="stop-color:#FFFFFF"/>
			<stop  offset="1.090000e-02" style="stop-color:#FCFCFB"/>
			<stop  offset="0.1423" style="stop-color:#E0D7CA"/>
			<stop  offset="0.2772" style="stop-color:#C7B8A1"/>
			<stop  offset="0.4137" style="stop-color:#B39E7F"/>
			<stop  offset="0.5525" style="stop-color:#A38A65"/>
			<stop  offset="0.6942" style="stop-color:#987C52"/>
			<stop  offset="0.8409" style="stop-color:#917447"/>
			<stop  offset="1" style="stop-color:#8F7143"/>
		</radialGradient>
		<rect x="311.4" y="207.1" class="st5" width="84.3" height="129.9"/>
	</g>
	<g class="st0">
		<defs>
			<path id="SVGID_18_" d="M325.7,61.2c-4.3,0-4.6,1.6-0.8,3.5l16.6,8.4c3.8,1.9,9.2,0.9,12-2.3l3.2-3.7c2.8-3.2,1.6-5.8-2.6-5.8
				H325.7z"/>
		</defs>
		<clipPath id="SVGID_19_">
			<use xlink:href="#SVGID_18_"  style="overflow:visible;"/>
		</clipPath>
		
			<radialGradient id="SVGID_20_" cx="-74.0363" cy="486.5302" r="0.6737" gradientTransform="matrix(257.9778 0 0 -257.9778 19413.9141 125633.0703)" gradientUnits="userSpaceOnUse">
			<stop  offset="0" style="stop-color:#FFFFFF"/>
			<stop  offset="1.090000e-02" style="stop-color:#FCFCFB"/>
			<stop  offset="0.1423" style="stop-color:#E0D7CA"/>
			<stop  offset="0.2772" style="stop-color:#C7B8A1"/>
			<stop  offset="0.4137" style="stop-color:#B39E7F"/>
			<stop  offset="0.5525" style="stop-color:#A38A65"/>
			<stop  offset="0.6942" style="stop-color:#987C52"/>
			<stop  offset="0.8409" style="stop-color:#917447"/>
			<stop  offset="1" style="stop-color:#8F7143"/>
		</radialGradient>
		<rect x="321.1" y="61.2" class="st6" width="38.4" height="13.8"/>
	</g>
	<g class="st0">
		<defs>
			<path id="SVGID_21_" d="M292.6,65.2l-28.1,14.1c-3.8,1.9-4.2,5.6-0.8,8.3l29.8,23.5c3.4,2.6,8.8,2.6,12.1,0l29.7-23.5
				c3.3-2.7,3-6.4-0.8-8.3l-28-14.1c-1.9-1-4.4-1.4-6.9-1.4C297,63.8,294.5,64.3,292.6,65.2"/>
		</defs>
		<clipPath id="SVGID_22_">
			<use xlink:href="#SVGID_21_"  style="overflow:visible;"/>
		</clipPath>
		
			<radialGradient id="SVGID_23_" cx="-74.0364" cy="486.5296" r="0.6749" gradientTransform="matrix(257.9778 0 0 -257.9778 19413.9141 125633.0703)" gradientUnits="userSpaceOnUse">
			<stop  offset="0" style="stop-color:#FFFFFF"/>
			<stop  offset="1.090000e-02" style="stop-color:#FCFCFB"/>
			<stop  offset="0.1423" style="stop-color:#E0D7CA"/>
			<stop  offset="0.2772" style="stop-color:#C7B8A1"/>
			<stop  offset="0.4137" style="stop-color:#B39E7F"/>
			<stop  offset="0.5525" style="stop-color:#A38A65"/>
			<stop  offset="0.6942" style="stop-color:#987C52"/>
			<stop  offset="0.8409" style="stop-color:#917447"/>
			<stop  offset="1" style="stop-color:#8F7143"/>
		</radialGradient>
		<rect x="260.3" y="63.8" class="st7" width="78.3" height="50"/>
	</g>
	<g class="st0">
		<defs>
			<path id="SVGID_24_" d="M297.9,203.6l-16.2,76.3c-0.9,4.2-0.5,10.8,0.9,14.9l14.4,42c1.4,4,3.6,4,5,0l14.3-42
				c1.4-4,1.8-10.7,0.9-14.9l-16.1-76.3c-0.4-2.1-1-3.1-1.6-3.1C298.9,200.5,298.4,201.5,297.9,203.6"/>
		</defs>
		<clipPath id="SVGID_25_">
			<use xlink:href="#SVGID_24_"  style="overflow:visible;"/>
		</clipPath>
		
			<radialGradient id="SVGID_26_" cx="-74.0364" cy="486.5295" r="0.6745" gradientTransform="matrix(257.9778 0 0 -257.9778 19413.9141 125633.0703)" gradientUnits="userSpaceOnUse">
			<stop  offset="0" style="stop-color:#FFFFFF"/>
			<stop  offset="1.090000e-02" style="stop-color:#FCFCFB"/>
			<stop  offset="0.1423" style="stop-color:#E0D7CA"/>
			<stop  offset="0.2772" style="stop-color:#C7B8A1"/>
			<stop  offset="0.4137" style="stop-color:#B39E7F"/>
			<stop  offset="0.5525" style="stop-color:#A38A65"/>
			<stop  offset="0.6942" style="stop-color:#987C52"/>
			<stop  offset="0.8409" style="stop-color:#917447"/>
			<stop  offset="1" style="stop-color:#8F7143"/>
		</radialGradient>
		<rect x="280.9" y="200.5" class="st8" width="37.2" height="140.4"/>
	</g>
	<g class="st0">
		<defs>
			<path id="SVGID_27_" d="M204.4,210.5l30.1,67.1c1.8,3.9,5.5,9.6,8.4,12.7l40.4,43.6c2.9,3.1,4.1,2.4,2.8-1.6l-12-35
				c-1.4-4-4.7-10-7.4-13.3l-60.7-74.5c-1.2-1.5-2-2.2-2.4-2.2C203.3,207.3,203.5,208.4,204.4,210.5"/>
		</defs>
		<clipPath id="SVGID_28_">
			<use xlink:href="#SVGID_27_"  style="overflow:visible;"/>
		</clipPath>
		
			<radialGradient id="SVGID_29_" cx="-74.0364" cy="486.5294" r="0.6742" gradientTransform="matrix(257.9778 0 0 -257.9778 19413.9141 125633.0703)" gradientUnits="userSpaceOnUse">
			<stop  offset="0" style="stop-color:#FFFFFF"/>
			<stop  offset="1.090000e-02" style="stop-color:#FCFCFB"/>
			<stop  offset="0.1423" style="stop-color:#E0D7CA"/>
			<stop  offset="0.2772" style="stop-color:#C7B8A1"/>
			<stop  offset="0.4137" style="stop-color:#B39E7F"/>
			<stop  offset="0.5525" style="stop-color:#A38A65"/>
			<stop  offset="0.6942" style="stop-color:#987C52"/>
			<stop  offset="0.8409" style="stop-color:#917447"/>
			<stop  offset="1" style="stop-color:#8F7143"/>
		</radialGradient>
		<rect x="203.3" y="207.3" class="st9" width="84.3" height="129.8"/>
	</g>
	<g class="st0">
		<defs>
			<path id="SVGID_30_" d="M244.9,61.2c-4.3,0-5.5,2.6-2.6,5.8l3.2,3.7c2.8,3.2,8.2,4.3,12,2.4l16.7-8.4c3.8-1.9,3.4-3.5-0.8-3.5
				H244.9z"/>
		</defs>
		<clipPath id="SVGID_31_">
			<use xlink:href="#SVGID_30_"  style="overflow:visible;"/>
		</clipPath>
		
			<radialGradient id="SVGID_32_" cx="-74.036" cy="486.5302" r="0.6739" gradientTransform="matrix(257.9778 0 0 -257.9778 19413.9141 125633.0703)" gradientUnits="userSpaceOnUse">
			<stop  offset="0" style="stop-color:#FFFFFF"/>
			<stop  offset="1.090000e-02" style="stop-color:#FCFCFB"/>
			<stop  offset="0.1423" style="stop-color:#E0D7CA"/>
			<stop  offset="0.2772" style="stop-color:#C7B8A1"/>
			<stop  offset="0.4137" style="stop-color:#B39E7F"/>
			<stop  offset="0.5525" style="stop-color:#A38A65"/>
			<stop  offset="0.6942" style="stop-color:#987C52"/>
			<stop  offset="0.8409" style="stop-color:#917447"/>
			<stop  offset="1" style="stop-color:#8F7143"/>
		</radialGradient>
		<rect x="239.4" y="61.2" class="st10" width="38.5" height="13.8"/>
	</g>
	<g class="st0">
		<defs>
			<path id="SVGID_33_" d="M108.7,180.1l92.5,86.2l85.3,79.3c1.2,1.2,2.4,1.9,2.6,1.7c0.2-0.2-0.6-1.4-1.7-2.6l-48.2-51.9
				c-2.9-3.1-7.9-7.9-11.1-10.7L108.9,179.9c-1.6-1.3-2.4-2-2.5-2C106.4,177.9,107.1,178.6,108.7,180.1"/>
		</defs>
		<clipPath id="SVGID_34_">
			<use xlink:href="#SVGID_33_"  style="overflow:visible;"/>
		</clipPath>
		
			<radialGradient id="SVGID_35_" cx="-74.0362" cy="486.5292" r="0.6735" gradientTransform="matrix(257.9778 0 0 -257.9778 19413.9141 125633.0703)" gradientUnits="userSpaceOnUse">
			<stop  offset="0" style="stop-color:#FFFFFF"/>
			<stop  offset="1.090000e-02" style="stop-color:#FCFCFB"/>
			<stop  offset="0.1423" style="stop-color:#E0D7CA"/>
			<stop  offset="0.2772" style="stop-color:#C7B8A1"/>
			<stop  offset="0.4137" style="stop-color:#B39E7F"/>
			<stop  offset="0.5525" style="stop-color:#A38A65"/>
			<stop  offset="0.6942" style="stop-color:#987C52"/>
			<stop  offset="0.8409" style="stop-color:#917447"/>
			<stop  offset="1" style="stop-color:#8F7143"/>
		</radialGradient>
		<rect x="106.4" y="177.9" class="st11" width="183" height="169.7"/>
	</g>
	<g class="st0">
		<defs>
			<path id="SVGID_36_" d="M219.5,65.8l-36.8,18.6c-3.8,1.9-5.7,6.7-4.2,10.8l4.7,12.6c1.5,4,5.6,5.5,9.3,3.3l43.6-26.1
				c3.7-2.2,4.4-6.6,1.5-9.8l-6.1-7c-1.9-2.1-4.8-3.3-7.7-3.3C222.3,64.8,220.8,65.2,219.5,65.8"/>
		</defs>
		<clipPath id="SVGID_37_">
			<use xlink:href="#SVGID_36_"  style="overflow:visible;"/>
		</clipPath>
		
			<radialGradient id="SVGID_38_" cx="-74.0365" cy="486.5293" r="0.6747" gradientTransform="matrix(257.9778 0 0 -257.9778 19413.9141 125633.0703)" gradientUnits="userSpaceOnUse">
			<stop  offset="0" style="stop-color:#FFFFFF"/>
			<stop  offset="1.090000e-02" style="stop-color:#FCFCFB"/>
			<stop  offset="0.1423" style="stop-color:#E0D7CA"/>
			<stop  offset="0.2772" style="stop-color:#C7B8A1"/>
			<stop  offset="0.4137" style="stop-color:#B39E7F"/>
			<stop  offset="0.5525" style="stop-color:#A38A65"/>
			<stop  offset="0.6942" style="stop-color:#987C52"/>
			<stop  offset="0.8409" style="stop-color:#917447"/>
			<stop  offset="1" style="stop-color:#8F7143"/>
		</radialGradient>
		<rect x="177.1" y="64.8" class="st12" width="63.4" height="48.4"/>
	</g>
	<g class="st0">
		<defs>
			<path id="SVGID_39_" d="M197.7,65.1c-2.2,2.2-0.9,2.3,2.9,0.4l1.6-0.8c3.8-1.9,5.2-3.5,3.2-3.5C203.3,61.2,199.9,63,197.7,65.1"
				/>
		</defs>
		<clipPath id="SVGID_40_">
			<use xlink:href="#SVGID_39_"  style="overflow:visible;"/>
		</clipPath>
		
			<radialGradient id="SVGID_41_" cx="-74.0367" cy="486.5315" r="0.6729" gradientTransform="matrix(257.9778 0 0 -257.9778 19413.9141 125633.0703)" gradientUnits="userSpaceOnUse">
			<stop  offset="0" style="stop-color:#FFFFFF"/>
			<stop  offset="1.090000e-02" style="stop-color:#FCFCFB"/>
			<stop  offset="0.1423" style="stop-color:#E0D7CA"/>
			<stop  offset="0.2772" style="stop-color:#C7B8A1"/>
			<stop  offset="0.4137" style="stop-color:#B39E7F"/>
			<stop  offset="0.5525" style="stop-color:#A38A65"/>
			<stop  offset="0.6942" style="stop-color:#987C52"/>
			<stop  offset="0.8409" style="stop-color:#917447"/>
			<stop  offset="1" style="stop-color:#8F7143"/>
		</radialGradient>
		<rect x="195.5" y="61.2" class="st13" width="12" height="6.2"/>
	</g>
	<g class="st0">
		<defs>
			<path id="SVGID_42_" d="M187.3,66.6c0,0-81.1,53.3-77.4,51.3l53.7-28.5c3.8-2,9.3-6.1,12.4-9l13-12.6c1.7-1.7,2.1-2.6,1.4-2.6
				C189.9,65.1,188.8,65.6,187.3,66.6"/>
		</defs>
		<clipPath id="SVGID_43_">
			<use xlink:href="#SVGID_42_"  style="overflow:visible;"/>
		</clipPath>
		
			<radialGradient id="SVGID_44_" cx="-74.0359" cy="486.5296" r="0.675" gradientTransform="matrix(257.9778 0 0 -257.9778 19413.9141 125633.0703)" gradientUnits="userSpaceOnUse">
			<stop  offset="0" style="stop-color:#FFFFFF"/>
			<stop  offset="1.090000e-02" style="stop-color:#FCFCFB"/>
			<stop  offset="0.1423" style="stop-color:#E0D7CA"/>
			<stop  offset="0.2772" style="stop-color:#C7B8A1"/>
			<stop  offset="0.4137" style="stop-color:#B39E7F"/>
			<stop  offset="0.5525" style="stop-color:#A38A65"/>
			<stop  offset="0.6942" style="stop-color:#987C52"/>
			<stop  offset="0.8409" style="stop-color:#917447"/>
			<stop  offset="1" style="stop-color:#8F7143"/>
		</radialGradient>
		<rect x="106.1" y="65.1" class="st14" width="84.9" height="54.8"/>
	</g>
	<g class="st0">
		<defs>
			<path id="SVGID_45_" d="M462.9,110.5l1.9,1.7c3.2,2.8,8.1,5.4,11,5.8c2.9,0.4,2.2-1-1.6-3l-10.6-5.6c-0.1-0.1-0.2-0.1-0.3-0.1
				C462.8,109.3,462.4,110.1,462.9,110.5"/>
		</defs>
		<clipPath id="SVGID_46_">
			<use xlink:href="#SVGID_45_"  style="overflow:visible;"/>
		</clipPath>
		
			<radialGradient id="SVGID_47_" cx="-74.0363" cy="486.5293" r="0.6745" gradientTransform="matrix(257.9778 0 0 -257.9778 19413.9141 125633.0703)" gradientUnits="userSpaceOnUse">
			<stop  offset="0" style="stop-color:#FFFFFF"/>
			<stop  offset="1.090000e-02" style="stop-color:#FCFCFB"/>
			<stop  offset="0.1423" style="stop-color:#E0D7CA"/>
			<stop  offset="0.2772" style="stop-color:#C7B8A1"/>
			<stop  offset="0.4137" style="stop-color:#B39E7F"/>
			<stop  offset="0.5525" style="stop-color:#A38A65"/>
			<stop  offset="0.6942" style="stop-color:#987C52"/>
			<stop  offset="0.8409" style="stop-color:#917447"/>
			<stop  offset="1" style="stop-color:#8F7143"/>
		</radialGradient>
		<rect x="462.4" y="109.3" class="st15" width="16.3" height="9"/>
	</g>
	<g class="st0">
		<defs>
			<path id="SVGID_48_" d="M478.9,178l-0.4,0c-4.2,0.5-10,3.5-12.9,6.6L425,228.6c-2.9,3.1-2.6,3.4,0.6,0.6l55.1-47.2
				c2.9-2.5,2.6-4.2-0.5-4.2C479.8,177.9,479.4,177.9,478.9,178"/>
		</defs>
		<clipPath id="SVGID_49_">
			<use xlink:href="#SVGID_48_"  style="overflow:visible;"/>
		</clipPath>
		
			<radialGradient id="SVGID_50_" cx="-74.0371" cy="486.5289" r="0.6751" gradientTransform="matrix(257.9778 0 0 -257.9778 19413.9141 125633.0703)" gradientUnits="userSpaceOnUse">
			<stop  offset="0" style="stop-color:#FFFFFF"/>
			<stop  offset="1.090000e-02" style="stop-color:#FCFCFB"/>
			<stop  offset="0.1423" style="stop-color:#E0D7CA"/>
			<stop  offset="0.2772" style="stop-color:#C7B8A1"/>
			<stop  offset="0.4137" style="stop-color:#B39E7F"/>
			<stop  offset="0.5525" style="stop-color:#A38A65"/>
			<stop  offset="0.6942" style="stop-color:#987C52"/>
			<stop  offset="0.8409" style="stop-color:#917447"/>
			<stop  offset="1" style="stop-color:#8F7143"/>
		</radialGradient>
		<rect x="422.1" y="177.9" class="st16" width="61.5" height="54.1"/>
	</g>
	<g class="st0">
		<defs>
			<path id="SVGID_51_" d="M442.9,177l-16.9,1.4c-4.3,0.3-9.1,3.8-10.9,7.7l-31.8,71c-1.7,3.9-0.8,4.5,2.1,1.4l69.3-74.9
				c2.9-3.1,3.2-6,0.6-6.4c-1.4-0.2-3.8-0.4-6.4-0.4C446.9,176.7,444.8,176.8,442.9,177"/>
		</defs>
		<clipPath id="SVGID_52_">
			<use xlink:href="#SVGID_51_"  style="overflow:visible;"/>
		</clipPath>
		
			<radialGradient id="SVGID_53_" cx="-74.0362" cy="486.5297" r="0.6743" gradientTransform="matrix(257.9778 0 0 -257.9778 19413.9141 125633.0703)" gradientUnits="userSpaceOnUse">
			<stop  offset="0" style="stop-color:#FFFFFF"/>
			<stop  offset="1.090000e-02" style="stop-color:#FCFCFB"/>
			<stop  offset="0.1423" style="stop-color:#E0D7CA"/>
			<stop  offset="0.2772" style="stop-color:#C7B8A1"/>
			<stop  offset="0.4137" style="stop-color:#B39E7F"/>
			<stop  offset="0.5525" style="stop-color:#A38A65"/>
			<stop  offset="0.6942" style="stop-color:#987C52"/>
			<stop  offset="0.8409" style="stop-color:#917447"/>
			<stop  offset="1" style="stop-color:#8F7143"/>
		</radialGradient>
		<rect x="381.6" y="176.7" class="st17" width="76.3" height="84.8"/>
	</g>
	<g class="st0">
		<defs>
			<path id="SVGID_54_" d="M427.7,100.6l-3.6,9.8c-1.5,4,0.8,7.5,5,7.9l13.8,1.1c4.3,0.3,9.6,0.3,11.9,0c2.3-0.4,1.6-3-1.6-5.8
				l-17-15.1c-1.2-1.1-2.6-1.6-3.8-1.6C430.4,96.8,428.6,98.1,427.7,100.6"/>
		</defs>
		<clipPath id="SVGID_55_">
			<use xlink:href="#SVGID_54_"  style="overflow:visible;"/>
		</clipPath>
		
			<radialGradient id="SVGID_56_" cx="-74.0362" cy="486.5299" r="0.6744" gradientTransform="matrix(257.9778 0 0 -257.9778 19413.9141 125633.0703)" gradientUnits="userSpaceOnUse">
			<stop  offset="0" style="stop-color:#FFFFFF"/>
			<stop  offset="1.090000e-02" style="stop-color:#FCFCFB"/>
			<stop  offset="0.1423" style="stop-color:#E0D7CA"/>
			<stop  offset="0.2772" style="stop-color:#C7B8A1"/>
			<stop  offset="0.4137" style="stop-color:#B39E7F"/>
			<stop  offset="0.5525" style="stop-color:#A38A65"/>
			<stop  offset="0.6942" style="stop-color:#987C52"/>
			<stop  offset="0.8409" style="stop-color:#917447"/>
			<stop  offset="1" style="stop-color:#8F7143"/>
		</radialGradient>
		<rect x="422.6" y="96.8" class="st18" width="34.4" height="22.9"/>
	</g>
	<g class="st0">
		<defs>
			<path id="SVGID_57_" d="M359.5,99.1L363,110c1.3,4.1,5.8,7.7,10,8l14.7,1.3c4.3,0.4,9.3,0.4,11.2,0.1c2-0.3,0.6-2.3-3.1-4.5
				l-32.1-19.3c-1.1-0.7-2.1-1-2.9-1C359.3,94.7,358.6,96.3,359.5,99.1"/>
		</defs>
		<clipPath id="SVGID_58_">
			<use xlink:href="#SVGID_57_"  style="overflow:visible;"/>
		</clipPath>
		
			<radialGradient id="SVGID_59_" cx="-74.0365" cy="486.5298" r="0.675" gradientTransform="matrix(257.9778 0 0 -257.9778 19413.9141 125633.0703)" gradientUnits="userSpaceOnUse">
			<stop  offset="0" style="stop-color:#FFFFFF"/>
			<stop  offset="1.090000e-02" style="stop-color:#FCFCFB"/>
			<stop  offset="0.1423" style="stop-color:#E0D7CA"/>
			<stop  offset="0.2772" style="stop-color:#C7B8A1"/>
			<stop  offset="0.4137" style="stop-color:#B39E7F"/>
			<stop  offset="0.5525" style="stop-color:#A38A65"/>
			<stop  offset="0.6942" style="stop-color:#987C52"/>
			<stop  offset="0.8409" style="stop-color:#917447"/>
			<stop  offset="1" style="stop-color:#8F7143"/>
		</radialGradient>
		<rect x="358.6" y="94.7" class="st19" width="42.3" height="25.1"/>
	</g>
	<g class="st0">
		<defs>
			<path id="SVGID_60_" d="M387.8,177l-14.8,1.3c-4.3,0.4-8.8,3.9-10.2,8l-24.8,72.4c-1.4,4-0.3,4.6,2.4,1.3l61.8-75.9
				c2.7-3.3,2.3-6.4-0.9-6.9c-1.9-0.3-4.7-0.4-7.5-0.4C391.7,176.8,389.6,176.9,387.8,177"/>
		</defs>
		<clipPath id="SVGID_61_">
			<use xlink:href="#SVGID_60_"  style="overflow:visible;"/>
		</clipPath>
		
			<radialGradient id="SVGID_62_" cx="-74.0362" cy="486.5302" r="0.6747" gradientTransform="matrix(257.9778 0 0 -257.9778 19413.9141 125633.0703)" gradientUnits="userSpaceOnUse">
			<stop  offset="0" style="stop-color:#FFFFFF"/>
			<stop  offset="1.090000e-02" style="stop-color:#FCFCFB"/>
			<stop  offset="0.1423" style="stop-color:#E0D7CA"/>
			<stop  offset="0.2772" style="stop-color:#C7B8A1"/>
			<stop  offset="0.4137" style="stop-color:#B39E7F"/>
			<stop  offset="0.5525" style="stop-color:#A38A65"/>
			<stop  offset="0.6942" style="stop-color:#987C52"/>
			<stop  offset="0.8409" style="stop-color:#917447"/>
			<stop  offset="1" style="stop-color:#8F7143"/>
		</radialGradient>
		<rect x="336.6" y="176.8" class="st20" width="68.3" height="86.5"/>
	</g>
	<g class="st0">
		<defs>
			<path id="SVGID_63_" d="M341.1,94.2l-24.3,19.2c-3.3,2.6-2.6,5.1,1.6,5.5l4.6,0.4c4.3,0.4,11.1,0.4,15.4,0l10-0.9
				c4.3-0.4,6.7-4,5.4-8.1l-4.3-13.5c-0.8-2.6-2.6-4-4.7-4C343.6,92.8,342.4,93.2,341.1,94.2"/>
		</defs>
		<clipPath id="SVGID_64_">
			<use xlink:href="#SVGID_63_"  style="overflow:visible;"/>
		</clipPath>
		
			<radialGradient id="SVGID_65_" cx="-74.0362" cy="486.53" r="0.6734" gradientTransform="matrix(257.9778 0 0 -257.9778 19413.9141 125633.0703)" gradientUnits="userSpaceOnUse">
			<stop  offset="0" style="stop-color:#FFFFFF"/>
			<stop  offset="1.090000e-02" style="stop-color:#FCFCFB"/>
			<stop  offset="0.1423" style="stop-color:#E0D7CA"/>
			<stop  offset="0.2772" style="stop-color:#C7B8A1"/>
			<stop  offset="0.4137" style="stop-color:#B39E7F"/>
			<stop  offset="0.5525" style="stop-color:#A38A65"/>
			<stop  offset="0.6942" style="stop-color:#987C52"/>
			<stop  offset="0.8409" style="stop-color:#917447"/>
			<stop  offset="1" style="stop-color:#8F7143"/>
		</radialGradient>
		<rect x="313.5" y="92.8" class="st21" width="41.6" height="27"/>
	</g>
	<g class="st0">
		<defs>
			<path id="SVGID_66_" d="M323.1,177.1l-10.6,1c-4.3,0.4-7,4.1-6.1,8.3l16.3,77.4c0.9,4.2,2.7,4.3,4.1,0.3l26.7-78
				c1.4-4-0.9-7.6-5.2-8l-9.9-0.9c-2.1-0.2-4.9-0.3-7.7-0.3C328,176.8,325.2,176.9,323.1,177.1"/>
		</defs>
		<clipPath id="SVGID_67_">
			<use xlink:href="#SVGID_66_"  style="overflow:visible;"/>
		</clipPath>
		
			<radialGradient id="SVGID_68_" cx="-74.0363" cy="486.5303" r="0.6752" gradientTransform="matrix(257.9778 0 0 -257.9778 19413.9141 125633.0703)" gradientUnits="userSpaceOnUse">
			<stop  offset="0" style="stop-color:#FFFFFF"/>
			<stop  offset="1.090000e-02" style="stop-color:#FCFCFB"/>
			<stop  offset="0.1423" style="stop-color:#E0D7CA"/>
			<stop  offset="0.2772" style="stop-color:#C7B8A1"/>
			<stop  offset="0.4137" style="stop-color:#B39E7F"/>
			<stop  offset="0.5525" style="stop-color:#A38A65"/>
			<stop  offset="0.6942" style="stop-color:#987C52"/>
			<stop  offset="0.8409" style="stop-color:#917447"/>
			<stop  offset="1" style="stop-color:#8F7143"/>
		</radialGradient>
		<rect x="305.5" y="176.8" class="st22" width="49.4" height="91.3"/>
	</g>
	<g class="st0">
		<defs>
			<path id="SVGID_69_" d="M249.4,96.7l-4.3,13.6c-1.3,4.1,1.1,7.7,5.4,8.1l10.1,0.9c4.3,0.4,11.1,0.4,15.4,0l4.6-0.4
				c4.3-0.4,5-2.9,1.6-5.5l-24.4-19.2c-1.2-1-2.5-1.4-3.7-1.4C252,92.7,250.2,94.1,249.4,96.7"/>
		</defs>
		<clipPath id="SVGID_70_">
			<use xlink:href="#SVGID_69_"  style="overflow:visible;"/>
		</clipPath>
		
			<radialGradient id="SVGID_71_" cx="-74.0361" cy="486.53" r="0.6736" gradientTransform="matrix(257.9778 0 0 -257.9778 19413.9141 125633.0703)" gradientUnits="userSpaceOnUse">
			<stop  offset="0" style="stop-color:#FFFFFF"/>
			<stop  offset="1.090000e-02" style="stop-color:#FCFCFB"/>
			<stop  offset="0.1423" style="stop-color:#E0D7CA"/>
			<stop  offset="0.2772" style="stop-color:#C7B8A1"/>
			<stop  offset="0.4137" style="stop-color:#B39E7F"/>
			<stop  offset="0.5525" style="stop-color:#A38A65"/>
			<stop  offset="0.6942" style="stop-color:#987C52"/>
			<stop  offset="0.8409" style="stop-color:#917447"/>
			<stop  offset="1" style="stop-color:#8F7143"/>
		</radialGradient>
		<rect x="243.8" y="92.7" class="st23" width="41.7" height="27"/>
	</g>
	<g class="st0">
		<defs>
			<path id="SVGID_72_" d="M260.5,177l-10,0.9c-4.3,0.4-6.6,4-5.2,8l26.8,78c1.4,4,3.2,3.9,4.1-0.3l16.4-77.5
				c0.9-4.2-1.8-7.9-6.1-8.3l-10.6-1c-2.1-0.2-4.9-0.3-7.7-0.3C265.4,176.8,262.6,176.9,260.5,177"/>
		</defs>
		<clipPath id="SVGID_73_">
			<use xlink:href="#SVGID_72_"  style="overflow:visible;"/>
		</clipPath>
		
			<radialGradient id="SVGID_74_" cx="-74.036" cy="486.5304" r="0.6759" gradientTransform="matrix(257.9778 0 0 -257.9778 19413.9141 125633.0703)" gradientUnits="userSpaceOnUse">
			<stop  offset="0" style="stop-color:#FFFFFF"/>
			<stop  offset="1.090000e-02" style="stop-color:#FCFCFB"/>
			<stop  offset="0.1423" style="stop-color:#E0D7CA"/>
			<stop  offset="0.2772" style="stop-color:#C7B8A1"/>
			<stop  offset="0.4137" style="stop-color:#B39E7F"/>
			<stop  offset="0.5525" style="stop-color:#A38A65"/>
			<stop  offset="0.6942" style="stop-color:#987C52"/>
			<stop  offset="0.8409" style="stop-color:#917447"/>
			<stop  offset="1" style="stop-color:#8F7143"/>
		</radialGradient>
		<rect x="244" y="176.8" class="st24" width="49.5" height="91.3"/>
	</g>
	<g class="st0">
		<defs>
			<path id="SVGID_75_" d="M198.2,177.2c-3.5,0.5-4.1,3.6-1.4,6.9l61.8,75.9c2.7,3.3,3.8,2.7,2.4-1.3l-24.8-72.4
				c-1.4-4-6-7.6-10.2-8l-13.7-1.2c-1.8-0.2-3.9-0.2-6.1-0.2C203.2,176.8,200.2,176.9,198.2,177.2"/>
		</defs>
		<clipPath id="SVGID_76_">
			<use xlink:href="#SVGID_75_"  style="overflow:visible;"/>
		</clipPath>
		
			<radialGradient id="SVGID_77_" cx="-74.0361" cy="486.5301" r="0.6754" gradientTransform="matrix(257.9778 0 0 -257.9778 19413.9141 125633.0703)" gradientUnits="userSpaceOnUse">
			<stop  offset="0" style="stop-color:#FFFFFF"/>
			<stop  offset="1.090000e-02" style="stop-color:#FCFCFB"/>
			<stop  offset="0.1423" style="stop-color:#E0D7CA"/>
			<stop  offset="0.2772" style="stop-color:#C7B8A1"/>
			<stop  offset="0.4137" style="stop-color:#B39E7F"/>
			<stop  offset="0.5525" style="stop-color:#A38A65"/>
			<stop  offset="0.6942" style="stop-color:#987C52"/>
			<stop  offset="0.8409" style="stop-color:#917447"/>
			<stop  offset="1" style="stop-color:#8F7143"/>
		</radialGradient>
		<rect x="194.1" y="176.8" class="st25" width="68.3" height="86.5"/>
	</g>
	<g class="st0">
		<defs>
			<path id="SVGID_78_" d="M235.1,95.7l-32,19.2c-3.7,2.2-4.8,4.2-2.6,4.5c2.2,0.3,7.5,0.3,11.7-0.1l13.6-1.2
				c4.3-0.4,8.8-4,10.1-8.1l3.5-10.9c0.9-2.8,0.3-4.4-1.4-4.4C237.2,94.7,236.3,95,235.1,95.7"/>
		</defs>
		<clipPath id="SVGID_79_">
			<use xlink:href="#SVGID_78_"  style="overflow:visible;"/>
		</clipPath>
		
			<radialGradient id="SVGID_80_" cx="-74.0359" cy="486.5298" r="0.675" gradientTransform="matrix(257.9778 0 0 -257.9778 19413.9141 125633.0703)" gradientUnits="userSpaceOnUse">
			<stop  offset="0" style="stop-color:#FFFFFF"/>
			<stop  offset="1.090000e-02" style="stop-color:#FCFCFB"/>
			<stop  offset="0.1423" style="stop-color:#E0D7CA"/>
			<stop  offset="0.2772" style="stop-color:#C7B8A1"/>
			<stop  offset="0.4137" style="stop-color:#B39E7F"/>
			<stop  offset="0.5525" style="stop-color:#A38A65"/>
			<stop  offset="0.6942" style="stop-color:#987C52"/>
			<stop  offset="0.8409" style="stop-color:#917447"/>
			<stop  offset="1" style="stop-color:#8F7143"/>
		</radialGradient>
		<rect x="198.3" y="94.7" class="st26" width="42" height="25.1"/>
	</g>
	<g class="st0">
		<defs>
			<path id="SVGID_81_" d="M142.3,177c-1.9,0.4-1.1,3.2,1.8,6.3l69.6,75.4c2.9,3.1,3.8,2.5,2.1-1.4l-32-71.3
				c-1.7-3.9-6.6-7.3-10.9-7.6l-19.5-1.5c-2-0.2-4.1-0.2-6-0.2C145.2,176.7,143.3,176.8,142.3,177"/>
		</defs>
		<clipPath id="SVGID_82_">
			<use xlink:href="#SVGID_81_"  style="overflow:visible;"/>
		</clipPath>
		
			<radialGradient id="SVGID_83_" cx="-74.0361" cy="486.5291" r="0.6744" gradientTransform="matrix(257.9778 0 0 -257.9778 19413.9141 125633.0703)" gradientUnits="userSpaceOnUse">
			<stop  offset="0" style="stop-color:#FFFFFF"/>
			<stop  offset="1.090000e-02" style="stop-color:#FCFCFB"/>
			<stop  offset="0.1423" style="stop-color:#E0D7CA"/>
			<stop  offset="0.2772" style="stop-color:#C7B8A1"/>
			<stop  offset="0.4137" style="stop-color:#B39E7F"/>
			<stop  offset="0.5525" style="stop-color:#A38A65"/>
			<stop  offset="0.6942" style="stop-color:#987C52"/>
			<stop  offset="0.8409" style="stop-color:#917447"/>
			<stop  offset="1" style="stop-color:#8F7143"/>
		</radialGradient>
		<rect x="140.4" y="176.7" class="st27" width="77.2" height="85.1"/>
	</g>
	<g class="st0">
		<defs>
			<path id="SVGID_84_" d="M162.8,98.5l-17.1,15.3c-3.2,2.8-4.5,5.4-2.8,5.7c1.6,0.3,6.4,0.3,10.7,0l16.3-1.2c4.3-0.3,6.5-3.8,5-7.8
				l-3.6-9.8c-0.9-2.4-2.7-3.7-4.6-3.7C165.3,96.8,164,97.4,162.8,98.5"/>
		</defs>
		<clipPath id="SVGID_85_">
			<use xlink:href="#SVGID_84_"  style="overflow:visible;"/>
		</clipPath>
		
			<radialGradient id="SVGID_86_" cx="-74.0361" cy="486.5298" r="0.6747" gradientTransform="matrix(257.9778 0 0 -257.9778 19413.9141 125633.0703)" gradientUnits="userSpaceOnUse">
			<stop  offset="0" style="stop-color:#FFFFFF"/>
			<stop  offset="1.090000e-02" style="stop-color:#FCFCFB"/>
			<stop  offset="0.1423" style="stop-color:#E0D7CA"/>
			<stop  offset="0.2772" style="stop-color:#C7B8A1"/>
			<stop  offset="0.4137" style="stop-color:#B39E7F"/>
			<stop  offset="0.5525" style="stop-color:#A38A65"/>
			<stop  offset="0.6942" style="stop-color:#987C52"/>
			<stop  offset="0.8409" style="stop-color:#917447"/>
			<stop  offset="1" style="stop-color:#8F7143"/>
		</radialGradient>
		<rect x="141.2" y="96.8" class="st28" width="35.1" height="22.9"/>
	</g>
	<g class="st0">
		<defs>
			<path id="SVGID_87_" d="M118.1,181.9l55.8,47.8c3.2,2.8,3.5,2.5,0.6-0.6l-41-44.4c-2.9-3.1-8.7-6.1-12.9-6.7l-0.7-0.1
				c-0.5-0.1-1-0.1-1.4-0.1C115.5,177.8,115.2,179.5,118.1,181.9"/>
		</defs>
		<clipPath id="SVGID_88_">
			<use xlink:href="#SVGID_87_"  style="overflow:visible;"/>
		</clipPath>
		
			<radialGradient id="SVGID_89_" cx="-74.0368" cy="486.5299" r="0.6741" gradientTransform="matrix(257.9778 0 0 -257.9778 19413.9141 125633.0703)" gradientUnits="userSpaceOnUse">
			<stop  offset="0" style="stop-color:#FFFFFF"/>
			<stop  offset="1.090000e-02" style="stop-color:#FCFCFB"/>
			<stop  offset="0.1423" style="stop-color:#E0D7CA"/>
			<stop  offset="0.2772" style="stop-color:#C7B8A1"/>
			<stop  offset="0.4137" style="stop-color:#B39E7F"/>
			<stop  offset="0.5525" style="stop-color:#A38A65"/>
			<stop  offset="0.6942" style="stop-color:#987C52"/>
			<stop  offset="0.8409" style="stop-color:#917447"/>
			<stop  offset="1" style="stop-color:#8F7143"/>
		</radialGradient>
		<rect x="115.2" y="177.8" class="st29" width="62.2" height="54.7"/>
	</g>
	<g class="st0">
		<defs>
			<path id="SVGID_90_" d="M133.6,110.3l-9.1,4.8c-3.8,2-4.4,3.3-1.4,2.9c3-0.4,8-3,11.2-5.9l0.4-0.4c2-1.7,2.5-2.7,1.8-2.7
				C136,109.1,135,109.5,133.6,110.3"/>
		</defs>
		<clipPath id="SVGID_91_">
			<use xlink:href="#SVGID_90_"  style="overflow:visible;"/>
		</clipPath>
		
			<radialGradient id="SVGID_92_" cx="-74.0345" cy="486.5297" r="0.6762" gradientTransform="matrix(257.9778 0 0 -257.9778 19413.9141 125633.0703)" gradientUnits="userSpaceOnUse">
			<stop  offset="0" style="stop-color:#FFFFFF"/>
			<stop  offset="1.090000e-02" style="stop-color:#FCFCFB"/>
			<stop  offset="0.1423" style="stop-color:#E0D7CA"/>
			<stop  offset="0.2772" style="stop-color:#C7B8A1"/>
			<stop  offset="0.4137" style="stop-color:#B39E7F"/>
			<stop  offset="0.5525" style="stop-color:#A38A65"/>
			<stop  offset="0.6942" style="stop-color:#987C52"/>
			<stop  offset="0.8409" style="stop-color:#917447"/>
			<stop  offset="1" style="stop-color:#8F7143"/>
		</radialGradient>
		<rect x="120" y="109.1" class="st30" width="17.1" height="9.3"/>
	</g>
	<g class="st0">
		<defs>
			<path id="SVGID_93_" d="M275.4,151.6h-0.7c-1.1,0-2,1.2-2,2.6v1v2.7c0,0.9,0,1.8,0.1,2.7l0,1c0,1.4,1.5,2.6,3.3,2.6
				c0,0,2,0,4-0.1c2-0.1,3.8-0.4,5.4-0.9c1.6-0.6,2.7-1.4,3.5-2.3c0.7-1,1.1-2,1.1-3.3c0-1.4-0.5-2.6-1.4-3.4
				c-0.9-0.8-2-1.4-3.4-1.8c-1.4-0.4-2.8-0.6-4.4-0.7c-1.5-0.1-2.9-0.1-4.2-0.1H275.4z"/>
		</defs>
		<clipPath id="SVGID_94_">
			<use xlink:href="#SVGID_93_"  style="overflow:visible;"/>
		</clipPath>
		
			<radialGradient id="SVGID_95_" cx="-74.099" cy="486.5142" r="0.6734" gradientTransform="matrix(232.6154 1.0549 1.0549 -232.6154 17067.2988 113369.5234)" gradientUnits="userSpaceOnUse">
			<stop  offset="0" style="stop-color:#FFFFFF"/>
			<stop  offset="1.090000e-02" style="stop-color:#FCFCFB"/>
			<stop  offset="0.1423" style="stop-color:#E0D7CA"/>
			<stop  offset="0.2772" style="stop-color:#C7B8A1"/>
			<stop  offset="0.4137" style="stop-color:#B39E7F"/>
			<stop  offset="0.5525" style="stop-color:#A38A65"/>
			<stop  offset="0.6942" style="stop-color:#987C52"/>
			<stop  offset="0.8409" style="stop-color:#917447"/>
			<stop  offset="1" style="stop-color:#8F7143"/>
		</radialGradient>
		<polygon class="st31" points="272.8,151.5 290.1,151.6 290,164.3 272.7,164.2 		"/>
	</g>
	<g class="st0">
		<defs>
			<path id="SVGID_96_" d="M275.6,132.6h-0.9c-1,0-1.9,1.2-1.9,2.6l0,0.9c0,0.9-0.1,1.8-0.1,2.6c0,0.8,0,1.7,0.1,2.6l0,0.9
				c0,1.3,1.5,2.4,3.3,2.4c0,0,0.8,0,2.7-0.1c1.8-0.1,3.5-0.3,4.9-0.7c1.8-0.5,3.1-1.3,3.9-2.3c0.8-1,1.2-2.1,1.2-3.3
				c0-1.4-0.4-2.5-1.2-3.3c-0.8-0.8-1.8-1.3-2.9-1.7c-1.1-0.3-2.2-0.5-3.4-0.6c-1.2-0.1-2.1-0.1-2.8-0.1H275.6z"/>
		</defs>
		<clipPath id="SVGID_97_">
			<use xlink:href="#SVGID_96_"  style="overflow:visible;"/>
		</clipPath>
		
			<radialGradient id="SVGID_98_" cx="-74.0992" cy="486.5147" r="0.6734" gradientTransform="matrix(232.6154 1.0549 1.0549 -232.6154 17067.2988 113369.5234)" gradientUnits="userSpaceOnUse">
			<stop  offset="0" style="stop-color:#FFFFFF"/>
			<stop  offset="1.090000e-02" style="stop-color:#FCFCFB"/>
			<stop  offset="0.1423" style="stop-color:#E0D7CA"/>
			<stop  offset="0.2772" style="stop-color:#C7B8A1"/>
			<stop  offset="0.4137" style="stop-color:#B39E7F"/>
			<stop  offset="0.5525" style="stop-color:#A38A65"/>
			<stop  offset="0.6942" style="stop-color:#987C52"/>
			<stop  offset="0.8409" style="stop-color:#917447"/>
			<stop  offset="1" style="stop-color:#8F7143"/>
		</radialGradient>
		<polygon class="st32" points="272.8,132.5 288.8,132.6 288.8,144.7 272.7,144.6 		"/>
	</g>
	<g class="st0">
		<defs>
			<path id="SVGID_99_" d="M150.9,167.8l-37.3-0.2c-4.3,0-5.1-2.3-1.9-5.1l8.7-7.5c3.2-2.8,8.9-3.5,12.8-1.7l12.3,6
				c3.8,1.9,8.3,4.6,10.1,6c1.7,1.4-0.3,2.5-4.4,2.5C151,167.8,150.9,167.8,150.9,167.8 M459,159.3l12.3-6c3.8-1.9,9.6-1.1,12.8,1.7
				l8.7,7.5c3.2,2.8,2.4,5.1-1.9,5.1l-37.3,0.2c-0.1,0-0.1,0-0.1,0c-4.2,0-6.2-1.1-4.4-2.5 M411.4,164.9 M169.7,158.4 M494.7,156
				 M148.2,150.6l-15.5-9.4c-4.8-2.9-10.5-7.1-12.7-9.3c-2.2-2.2,0.4-4,5.8-3.9l47.1,0.3c5.4,0,6.5,3.6,2.4,8L164.3,148
				c-2.5,2.7-6.3,4.2-10,4.2C152.2,152.2,150,151.7,148.2,150.6 M434.7,148l-10.9-11.7c-4.1-4.4-3-7.9,2.4-8l47.1-0.3
				c5.4,0,8,1.7,5.8,3.9c-2.2,2.2-7.9,6.4-12.7,9.3l-15.5,9.4c-1.8,1.1-3.9,1.6-6.1,1.6C441.1,152.2,437.3,150.7,434.7,148
				 M334,126.2c1.4,0,2.8,0,4.4-0.1c1.5,0,2.4,0,2.4,0c1.8-0.1,3.9,1.5,3.9,2.9c0,0-0.1,3-0.2,5.8c-0.1,2.8-0.1,5.6-0.1,8.4
				c0,4.6,0,9.2,0.1,13.7c0.1,4.5,0.4,11,0.4,11c0.1,1.5-2,3.1-3.8,3.1h-2h-4.1c-1.3,0-2.8,0-4.3,0.1c-1.5,0-2.4,0.1-2.4,0.1
				c-1.8,0-4-1.5-3.9-3c0,0,0.3-13.9,0.3-22.2v-4.2c0-1.3,0-2.6-0.1-4.1c0-1.4-0.1-3-0.2-4.8c-0.1-1.8-0.2-3.6-0.2-3.6
				c-0.1-1.5,1.9-3.1,3.7-3c0,0,0.5,0,2,0c0.7,0,1.4,0,2.1,0C332.6,126.3,333.3,126.3,334,126.2 M360.6,132.2l0-0.5
				c0-0.5,0.1-1,0.1-1.5c0-0.5,0.1-1,0.1-1.5l0-0.5c0-0.8,2.2-1.9,4-1.9h25.9c0,0,3.1,0,5.6,0c2.5,0,4.9,0,7,0c2.1,0,4.1,0,5.9,0
				c1.8,0,2.4,0,2.4,0c1.8,0,3.7,1,3.6,1.8l-0.1,0.6c-0.1,0.6-0.1,1.1-0.2,1.6c0,0.5-0.1,1-0.1,1.6l0,0.5c-0.1,0.8-1.2,1.8-1.6,1.8
				l-0.7,0c-0.7,0-1.5,0-2.3,0c-0.8,0-1.6,0-2.4,0c-0.7,0-1.3,0-1.6,0c-1.5,0-3-0.1-4.4-0.1h-1.5c-1.6,0-3,0.6-3,1.4l0,0.6
				c0,0.6-0.1,1.2-0.1,1.8v4.2c0,4.9,0,9.7,0.1,14.4c0.1,4.8,0.4,11.7,0.4,11.7c0.1,1.5-2,3-3.8,3c0,0-0.9,0-2.4,0c-1.5,0-3,0-4.3,0
				c-1.3,0-2.7,0-4.1,0.1c-1.4,0-1.8,0-1.8,0c-1.8,0-3.8-1.4-3.7-2.7l0-0.8c0-0.8,0.1-1.8,0.1-2.7c0-1,0.1-2.1,0.1-3.5v-11
				c0-1.8,0-3.6,0.1-5.4c0-1.6,0-2.8,0.1-3.8c0-1,0.1-1.8,0.1-2.6v-2.2v-0.7c0-1-1.5-1.9-3.3-1.9c0,0-1.7,0-3.5,0
				c-1.8,0-3.3,0-4.6,0c-1.3,0-2.3,0-3.2,0l-0.9,0c0,0,0,0-0.1,0C361.8,133.9,360.5,132.9,360.6,132.2 M182.5,169.6
				c0.3-0.3,1.4-1.5,2.6-2.6c0,0,0.1-0.1,0.9-0.9c0.8-0.8,1.5-1.5,2.2-2.2c0.7-0.7,1.4-1.3,2.1-2.1l0.7-0.7c1-1.1,2.8-3,3.9-4.1
				l6.4-6.7c1.1-1.2,1.1-3.1,0-4.2l-4.8-5c-1.1-1.2-2.8-3-3.8-4l-0.9-0.9c-0.9-0.9-1.8-1.9-2.8-2.8c-0.9-0.9-1.9-2-3.2-3.3l-1.3-1.3
				c-1.1-1.1,0-2.4,1.8-2.4c0,0,0.9,0,2.5,0c1.6,0,3.1-0.1,4.6-0.1c1.5,0,2.9-0.1,4.5-0.1c1.5,0,2.3-0.1,2.3-0.1
				c1.8-0.1,3.5,0,3.7,0.1c0.2,0.1,0.9,0.9,1.6,1.8l0.5,0.7c0.5,0.7,0.9,1.3,1.4,1.8c0.4,0.5,0.8,1.1,1.2,1.6l0.4,0.5
				c0.5,0.6,1.7,2.1,2.7,3.4l1.2,1.4c1,1.2,2.5,1.3,3.4,0.2c0.9-1.1,2.3-2.9,3.2-4l0.5-0.7c0.5-0.7,1.1-1.3,1.5-2
				c0.5-0.6,0.9-1.2,1.4-1.9l0.5-0.7c0.6-0.9,1.4-1.7,1.6-1.8c0.3-0.1,1.9-0.2,3.8-0.2h1.4c1.3,0,2.5,0,3.6,0c1.2,0,2.4,0,3.7-0.1
				c1.3,0,1.6,0,1.6,0c1.8,0,3,0.9,2.3,1.6l-0.6,0.6c-0.6,0.6-1.3,1.3-2.1,2.1c-0.8,0.8-1.7,1.8-2.8,2.9c-1.1,1.1-2.1,2.2-2.1,2.2
				c-1.1,1.2-2.9,3.1-4,4.3l-5.1,5.6c-1.1,1.2-1.1,3.1,0,4.3l5.8,6.3c1.1,1.2,2.8,3.1,3.9,4.3c0,0,1.1,1.2,2.1,2.3
				c1,1.1,1.8,2,2.6,2.8c0.7,0.8,1.5,1.5,2.1,2.2l0.7,0.7c1.1,1.1,0.2,2.5-1.6,2.6c0,0-1.2,0-2.9,0s-3.2,0.1-4.6,0.1
				c-1.4,0-2.8,0.1-4.3,0.1c-1.4,0-1.8,0.1-1.8,0.1c-1.8,0-3.5,0-3.7-0.1c-0.2-0.1-0.7-0.6-1.1-1.1l-0.2-0.4
				c-0.2-0.4-0.6-0.8-1.1-1.4c-0.5-0.5-1.1-1.3-1.8-2.2c-0.7-0.9-1.2-1.5-1.2-1.5c-1-1.2-2.6-3.3-3.6-4.5l-0.8-1
				c-1-1.2-2.6-1.2-3.5,0.1l-0.1,0.1c-0.9,1.3-2.4,3.1-3.3,4.2c-0.8,1.1-2,2.5-2.5,3.2l-0.4,0.4c-0.4,0.4-0.7,0.8-0.9,1.1
				c-0.3,0.3-0.5,0.7-0.8,1l-0.3,0.4c-0.4,0.5-0.9,1-1.1,1.1c-0.2,0.1-1.9,0.2-3.7,0.2c0,0-0.3,0-1.7,0c-1.3,0-2.6,0-3.8,0
				c-1.2,0-2.5,0-3.9,0.1c-1.4,0-1.7,0-1.7,0c0,0,0,0-0.1,0C183.2,171,182.5,169.6,182.5,169.6 M253.8,170.9
				c-0.2-0.1-0.3-1.4-0.2-2.9c0,0,0.2-3.9,0.2-7.1c0.1-3.2,0.1-6.5,0.1-9.8c0-4.1,0-8.2-0.1-12.3c-0.1-4.1-0.5-9.6-0.5-9.6
				c-0.1-1.5,1.9-3.1,3.7-3.1c0,0,3.8,0,6.5,0c2.7,0,5.2-0.1,7.6-0.1c1.6,0,2.8,0,3.8,0c0.9,0,1.7,0,2.3,0h2.9
				c2.7,0,5.6,0.1,8.8,0.2c3.2,0.1,6.2,0.5,8.9,1.2c2.7,0.7,5,1.7,6.8,3.1c1.8,1.4,2.8,3.5,2.8,6.1c0,2.4-1,4.4-2.9,6.1
				c-2,1.7-5.3,2.7-5.3,2.7c-1.7,0.5-3.5,1-4,1.1l-0.5,0.1l-0.5,0.1c-0.5,0.1-0.6,0.2-0.1,0.2l0.5,0l0.5,0c0.5,0.1,1.8,0.3,3.1,0.5
				c1.2,0.2,5.5,1.6,7.1,2.3c0,0,2.3,1.1,3.6,2.7c1.2,1.6,1.8,3.3,1.8,5.2c0,1.3-0.2,2.5-0.8,3.6c-0.5,1.1-1.2,2-2,2.9
				c-0.8,0.8-1.7,1.6-2.7,2.2l-1,0.6c-1,0.5-3.3,1.4-4.9,1.9c0,0-1,0.4-3.3,0.8c-2.3,0.4-4.9,0.8-7.7,1c-2.8,0.2-5.9,0.3-9.2,0.4
				c-3.3,0-6.9,0.1-10.8,0.1h-2.7c-1.3,0-2.7,0-4.2,0c-1.5,0-2.9,0-4.2,0.1l-1.3,0c0,0-0.1,0-0.1,0C254.8,171.1,254,171,253.8,170.9
				 M106.8,123.6c-1,0-2,0.3-2.9,0.9L79.2,141c-2.7,1.8-3.1,5.7-0.7,8l23.3,22.9c1,1,2.3,1.5,3.6,1.5h384.4c2.8,0,5.5-1.1,7.5-3
				l19.4-18.9c3.7-3.6,3.3-9.8-1-12.8L498,126c-2.2-1.5-4.7-2.4-7.4-2.4H106.8z"/>
		</defs>
		<clipPath id="SVGID_100_">
			<use xlink:href="#SVGID_99_"  style="overflow:visible;"/>
		</clipPath>
		
			<radialGradient id="SVGID_101_" cx="-74.0413" cy="486.6179" r="0.6744" gradientTransform="matrix(270.458 0 0 -270.458 20343.9336 131773.5)" gradientUnits="userSpaceOnUse">
			<stop  offset="0" style="stop-color:#A38A65"/>
			<stop  offset="1.396650e-02" style="stop-color:#A38A65"/>
			<stop  offset="0.1423" style="stop-color:#A38A65"/>
			<stop  offset="0.2772" style="stop-color:#A38A65"/>
			<stop  offset="0.4137" style="stop-color:#A38A65"/>
			<stop  offset="0.5525" style="stop-color:#A38A65"/>
			<stop  offset="0.6942" style="stop-color:#987C52"/>
			<stop  offset="0.8409" style="stop-color:#917447"/>
			<stop  offset="1" style="stop-color:#8F7143"/>
		</radialGradient>
		<rect x="76.2" y="123.6" class="st33" width="444.3" height="49.8"/>
	</g>
</g>
</svg>
