<?xml version="1.0" encoding="utf-8"?>
<!-- Generator: Adobe Illustrator 21.0.0, SVG Export Plug-In . SVG Version: 6.00 Build 0)  -->
<svg version="1.1"
	 id="svg2" inkscape:version="0.48.2 r9819" sodipodi:docname="bitcoin-logo-noshadow.svg" xmlns:cc="http://creativecommons.org/ns#" xmlns:dc="http://purl.org/dc/elements/1.1/" xmlns:inkscape="http://www.inkscape.org/namespaces/inkscape" xmlns:rdf="http://www.w3.org/1999/02/22-rdf-syntax-ns#" xmlns:sodipodi="http://sodipodi.sourceforge.net/DTD/sodipodi-0.dtd" xmlns:svg="http://www.w3.org/2000/svg"
	 xmlns="http://www.w3.org/2000/svg" xmlns:xlink="http://www.w3.org/1999/xlink" x="0px" y="0px" viewBox="0 0 1024 1024"
	 style="enable-background:new 0 0 1024 1024;" xml:space="preserve">
<style type="text/css">
	.st0{display:none;}
	.st1{display:inline;fill:#FFFFFF;}
	.st2{display:inline;filter:url(#dropShadowAlpha);}
	.st3{fill:url(#SVGID_1_);}
	.st4{fill:url(#SVGID_2_);}
	.st5{display:inline;fill:url(#SVGID_3_);}
	.st6{fill:none;}
	.st7{fill:#3CB054;}
	.st8{fill:#FFFFFF;}
</style>
<filter  id="dropShadowAlpha">
	<feColorMatrix  in="SourceAlpha" result="matrixOut" type="saturate" values="0.1"></feColorMatrix>
	<feGaussianBlur  in="matrixOut" result="blur-out" stdDeviation="6"></feGaussianBlur>
	
		<feColorMatrix  in="blur-out" result="color-out" type="matrix" values="0 0 0 0   0                 0 0 0 0   0                  0 0 0 0   0                  0 0 0 0.35 0">
		</feColorMatrix>
	<feBlend  in="SourceGraphic" in2="color-out" mode="normal"></feBlend>
</filter>
<g class="st0">
	<circle class="st1" cx="510.2" cy="510.2" r="353.1"/>
	<g class="st2">
		
			<radialGradient id="SVGID_1_" cx="388.6192" cy="673.0198" r="34.4322" gradientTransform="matrix(1.7655 0 0 -1.7655 -136.2621 1595.0758)" gradientUnits="userSpaceOnUse">
			<stop  offset="0" style="stop-color:#F9AA4B"/>
			<stop  offset="1" style="stop-color:#F7931A"/>
		</radialGradient>
		<path class="st3" d="M509.6,368.3l-24.7,99c28,7,114.3,35.4,128.3-20.6C627.8,388.3,537.6,375.3,509.6,368.3z"/>
	</g>
	<g class="st2">
		
			<radialGradient id="SVGID_2_" cx="373.0433" cy="584.8939" r="39.8733" gradientTransform="matrix(1.7655 0 0 -1.7655 -136.2621 1595.0758)" gradientUnits="userSpaceOnUse">
			<stop  offset="0" style="stop-color:#F9AA4B"/>
			<stop  offset="1" style="stop-color:#F7931A"/>
		</radialGradient>
		<path class="st4" d="M472.5,517.3l-27.2,109.2c33.6,8.3,137.3,41.6,152.6-19.9C613.9,542.3,506.1,525.7,472.5,517.3z"/>
	</g>
	
		<radialGradient id="SVGID_3_" cx="367.1557" cy="613.4633" r="255.9876" gradientTransform="matrix(1.7655 0 0 -1.7655 -136.2621 1595.0758)" gradientUnits="userSpaceOnUse">
		<stop  offset="0" style="stop-color:#F9AA4B"/>
		<stop  offset="1" style="stop-color:#F7931A"/>
	</radialGradient>
	<path class="st5" d="M621.2,73.5c-242.1-60.4-487.3,87-547.7,329.2c-60.4,242.1,87,487.4,329,547.7
		c242.2,60.4,487.4-87,547.8-329.1C1010.7,379.2,863.4,133.9,621.2,73.5z M711.2,447.6c-6.5,44-30.9,65.3-63.3,72.8
		c44.5,23.2,67.1,58.7,45.6,120.3c-26.8,76.5-90.4,82.9-174.9,66.9L498,789.9l-49.6-12.4l20.3-81.1c-12.9-3.2-26-6.6-39.5-10.3
		l-20.3,81.5l-49.5-12.4l20.5-82.4c-11.6-3-23.3-6.1-35.4-9.1l-64.5-16.1l24.6-56.8c0,0,36.5,9.7,36,9c14,3.5,20.3-5.7,22.7-11.8
		l32.4-130l0.1-0.4l23.1-92.8c0.6-10.5-3-23.8-23.1-28.8c0.8-0.5-36-9-36-9l13.2-53l68.4,17.1l-0.1,0.3c10.3,2.6,20.9,5,31.7,7.4
		l20.3-81.4l49.6,12.4L523,309.7c13.3,3,26.7,6.1,39.7,9.4l19.8-79.3l49.6,12.4l-20.3,81.5C674.4,355.1,720.2,387.5,711.2,447.6z"/>
</g>
<g transform="matrix(1,0,0,1,0,-10850)">
	<g id="peercoin-icon-green-transparent" transform="matrix(1,0,0,1,0,10850)">
		<rect x="60.1" y="60.1" class="st6" width="903.8" height="903.8"/>
		<g transform="matrix(3.29432,0,0,3.29432,-1468.37,-1115.8)">
			<g transform="matrix(2.36264,-9.86076e-32,-9.86076e-32,2.36264,-224.625,-589.055)">
				<circle class="st7" cx="349.5" cy="458.5" r="58.1"/>
			</g>
			<g transform="matrix(0.85076,0,0,0.85076,116.902,-212.09)">
				<path class="st8" d="M591.1,915.7c-2.9,0.2-5.1,0.3-6.5,0.3c-45.4,0.1-82.3-36.9-82.3-82.3c0-0.4,0-0.7,0-1.1v-1.2h0v-87.3h0
					l0,0l0,0c27.6-0.4,95.6,5.6,133.1,57.8c9.7,13.5,15.4,30.1,15.4,48c0,10.7-2.1,21-5.8,30.4l0,0c-2.4,6.4-8.8,19.5-25.5,27.9
					c-2.7,1.3-5.4,2.5-8.1,3.4c12-45.9-3.7-112.3-73.3-144.2C580.3,793.5,613.7,859.5,591.1,915.7z"/>
			</g>
		</g>
	</g>
</g>
</svg>
