<?xml version="1.0" encoding="UTF-8"?>
<svg xmlns="http://www.w3.org/2000/svg" xmlns:xlink="http://www.w3.org/1999/xlink" width="4535pt" height="4535pt" viewBox="0 0 4535 4535" version="1.1">
<g>
<path style=" stroke:none;fill-rule:nonzero;fill:rgb(96.862745%,57.647061%,10.196079%);fill-opacity:1;" d="M 4209.359375 2751.753906 C 3941.96875 3824.136719 2855.703125 4476.765625 1783.070312 4209.34375 C 710.882812 3941.988281 58.167969 2855.78125 325.6875 1783.46875 C 592.953125 710.960938 1679.21875 58.265625 2751.53125 325.625 C 3824.101562 592.984375 4476.753906 1679.3125 4209.359375 2751.753906 Z M 4209.359375 2751.753906 "/>
<path style=" stroke:none;fill-rule:nonzero;fill:rgb(100%,100%,100%);fill-opacity:1;" d="M 3149.867188 1982.328125 C 3189.722656 1715.972656 2986.894531 1572.78125 2709.554688 1477.261719 L 2799.523438 1116.445312 L 2579.863281 1061.710938 L 2492.28125 1413.015625 C 2434.53125 1398.628906 2375.226562 1385.054688 2316.289062 1371.605469 L 2404.5 1017.984375 L 2184.96875 963.246094 L 2094.945312 1323.941406 C 2047.148438 1313.054688 2000.226562 1302.296875 1954.683594 1290.972656 L 1954.929688 1289.847656 L 1652.007812 1214.21875 L 1593.570312 1448.796875 C 1593.570312 1448.796875 1756.546875 1486.140625 1753.105469 1488.457031 C 1842.070312 1510.664062 1858.148438 1569.53125 1855.460938 1616.195312 C 1608.960938 2604.625 1855.460938 1616.195312 1608.960938 2604.625 C 1598.078125 2631.648438 1570.488281 2672.183594 1508.300781 2656.796875 C 1510.488281 2659.984375 1348.640625 2616.949219 1348.640625 2616.949219 L 1239.59375 2868.355469 L 1525.4375 2939.605469 C 1578.617188 2952.929688 1630.734375 2966.878906 1682.035156 2980.019531 L 1591.132812 3344.960938 L 1810.539062 3399.695312 L 1900.566406 3038.632812 C 1960.5 3054.898438 2018.679688 3069.90625 2075.617188 3084.046875 L 1985.898438 3443.421875 L 2205.554688 3498.160156 L 2296.460938 3133.902344 C 2671.019531 3204.773438 2952.671875 3176.191406 3071.230469 2837.457031 C 3166.761719 2564.71875 3066.476562 2407.386719 2869.40625 2304.800781 C 3012.921875 2271.710938 3121.03125 2177.3125 3149.867188 1982.328125 Z M 2647.992188 2686.011719 C 2580.117188 2958.75 2120.84375 2811.308594 1971.949219 2774.335938 L 2092.570312 2290.851562 C 2241.464844 2328.007812 2718.941406 2401.570312 2647.992188 2686.011719 Z M 2715.9375 1978.390625 C 2654 2226.480469 2271.75 2100.433594 2147.75 2069.53125 L 2257.105469 1631.019531 C 2381.101562 1661.921875 2780.4375 1719.601562 2715.9375 1978.390625 Z M 2715.9375 1978.390625 "/>
</g>
</svg>
