<svg id="Layer_1" data-name="Layer 1" xmlns="http://www.w3.org/2000/svg" viewBox="0 0 220.23 220.23"><defs><style>.cls-1{fill:#f18c21;}.cls-2{fill:#fff;}.cls-3{fill:#fffffd;}</style></defs><title>Logo Bitcoin</title><circle class="cls-1" cx="110.12" cy="110.12" r="110.12"/><path class="cls-2" d="M448.1,275.31c-2,21-17.72,26.69-40.14,27.92l0,22.16-13.35,0,.07-21.85c-3.47,0-7,0-10.68-.1l0,21.95-13.36-.05.07-22.18c-3.13,0-6.34-.07-9.54-.07L343.69,303l1.85-11,.81-4.74h37.93c.69,0,1.48,0,2.38,0,.73,0,1.52,0,2.37,0,11.62.12,32.69-.42,32.69-14.68,0-5.27-2.61-8.71-6.52-10.92a44.16,44.16,0,0,0,13.73-5.14,26,26,0,0,0,6.27-4.75c.47-.47.92-.95,1.35-1.45C444.73,254.48,449.36,262,448.1,275.31Z" transform="translate(-285.88 -142.87)"/><path class="cls-3" d="M440.46,225.23a22,22,0,0,0-.61-3.8c-3.18-12.91-16-17.46-31.75-18.88l0-21.93-13.33,0L394.77,202c-3.51,0-7.12.07-10.68.12l.08-21.47-13.36,0-.07,21.95c-2.07.05-4.13.09-6.15.09-.78,0-1.56,0-2.32,0v0l-18.41-.05,0,14.26s4.3-.07,7.17-.07a22.46,22.46,0,0,1,2.54.07c5.41,0,7.14,3.18,7.64,5.89l0,25,0,34.87h23.17l.05-24.6h.17c1,0,6.5.74,13.57.74,1.92,0,4-.05,6.05-.19,7.57-.48,15.94-2,22.49-6a21.25,21.25,0,0,0,5.24-3.93C437.29,243,441.32,234.1,440.46,225.23Zm-50.24,19.26c-2.38,0-4.44-.07-5.89-.07l.07-26.64c1.74,0,4.32-.12,7.29-.12,9.89,0,23.91,1.37,23.89,13.5S400.13,244.49,390.22,244.49Z" transform="translate(-285.88 -142.87)"/></svg>