<svg xmlns="http://www.w3.org/2000/svg" xmlns:svg="http://www.w3.org/2000/svg" xmlns:xlink="http://www.w3.org/1999/xlink" id="svg2" width="1024" height="1024" x="0" y="0" enable-background="new 0 0 1024 1024" version="1.1" viewBox="-34 -34 580 580" xml:space="preserve"><filter id="dropShadowAlpha"><feColorMatrix in="SourceAlpha" result="matrixOut" type="saturate" values=".1"/><feGaussianBlur in="matrixOut" result="blur-out" stdDeviation="6"/><feColorMatrix in="blur-out" result="color-out" type="matrix" values="0 0 0 0 0 0 0 0 0 0 0 0 0 0 0 0 0 0 0.35 0"/><feBlend in="SourceGraphic" in2="color-out" mode="normal"/></filter><g><circle cx="255" cy="255" r="200" fill="#fff" stroke-width="2"/><radialGradient id="innerBtop" cx="277.49" cy="196.441" r="34.397" gradientUnits="userSpaceOnUse"><stop offset="0" style="stop-color:#f9aa4b"/><stop offset="1" style="stop-color:#f7931a"/></radialGradient><path fill="url(#innerBtop)" d="M254.647,174.6l-13.983,56.08c15.855,3.951,64.735,20.071,72.656-11.656 C321.568,185.928,270.503,178.552,254.647,174.6z" filter="url(#dropShadowAlpha)"/><radialGradient id="innerBbottom" cx="261.915" cy="284.567" r="39.838" gradientUnits="userSpaceOnUse"><stop offset="0" style="stop-color:#f9aa4b"/><stop offset="1" style="stop-color:#f7931a"/></radialGradient><path fill="url(#innerBbottom)" d="M233.608,258.984l-15.425,61.832c19.04,4.729,77.769,23.584,86.448-11.296 C313.703,273.144,252.647,263.736,233.608,258.984z" filter="url(#dropShadowAlpha)"/><radialGradient id="coinShape" cx="256.028" cy="256.003" r="255.988" gradientUnits="userSpaceOnUse"><stop offset="0" style="stop-color:#f9aa4b"/><stop offset="1" style="stop-color:#f7931a"/></radialGradient><path fill="url(#coinShape)" d="M317.871,7.656c-137.12-34.192-276.024,49.28-310.2,186.44 c-34.208,137.136,49.256,276.048,186.36,310.24c137.16,34.199,276.063-49.265,310.256-186.408 C538.479,180.776,455.023,41.848,317.871,7.656z M368.807,219.528c-3.688,24.936-17.512,37.008-35.864,41.24 c25.2,13.12,38.024,33.239,25.809,68.12c-15.16,43.319-51.176,46.976-99.072,37.912l-11.624,46.584l-28.088-7l11.472-45.96 c-7.279-1.809-14.72-3.729-22.384-5.809l-11.512,46.177l-28.056-7l11.624-46.673c-6.561-1.68-13.225-3.464-20.024-5.168 l-36.552-9.111l13.943-32.152c0,0,20.696,5.504,20.416,5.096c7.952,1.969,11.48-3.216,12.872-6.672l18.368-73.64l0.048-0.2 l13.104-52.568c0.344-5.968-1.712-13.496-13.088-16.336c0.439-0.296-20.4-5.072-20.4-5.072l7.472-30l38.736,9.673l-0.032,0.144 c5.824,1.448,11.824,2.824,17.937,4.216L245.423,89.2l28.072,7l-11.28,45.224c7.536,1.721,15.12,3.456,22.504,5.297l11.2-44.929 l28.088,7l-11.504,46.145C347.967,167.152,373.904,185.464,368.807,219.528z" filter="url(#dropShadowAlpha)"/></g></svg>