<?xml version="1.0" encoding="utf-8"?>
<!DOCTYPE svg PUBLIC "-//W3C//DTD SVG 1.1//EN" "http://www.w3.org/Graphics/SVG/1.1/DTD/svg11.dtd" [
    <!ENTITY ns_svg "http://www.w3.org/2000/svg">
    <!ENTITY ns_xlink "http://www.w3.org/1999/xlink">
]>
<svg  version="1.1" id="svg2" xmlns="&ns_svg;" xmlns:xlink="&ns_xlink;" width="1024" height="1024"
     viewBox="0 0 1024 1024" overflow="visible" enable-background="new 0 0 1024 1024" xml:space="preserve">
<g>
    <path id="XMLID_3_" fill="#19749A" d="M214.086,538.159c-0.004,0.002-0.008,0.01-0.017,0.013"/>
    <g id="XMLID_5_">
        <path id="XMLID_138_" fill="#19749A" d="M289.642,934.236c-55.917,28.817-104.049,46.125-143.66,52.089
            c31.963,15.949,67.988,24.973,106.138,24.973c120.774-0.008,220.474-89.94,235.954-206.481
            C419.332,857.952,351.803,902.206,289.642,934.236z"/>
        <path id="XMLID_9_" fill="#19749A" d="M314.444,547.412c25.406,29.83,50.759,57.802,80.282,88.511
            c30.411,31.635,60.647,61.109,90.436,88.5l-0.366-2.214c-18.889-88.556-85.086-156.821-172.47-177.35L314.444,547.412z"/>
        <g id="XMLID_7_">
            <path id="XMLID_8_" fill="#19749A" d="M29.999,850.785c0.383-1.577,0.787-3.17,1.204-4.771c0.24-0.957,0.382-1.524,0.382-1.524
                h0.021c9.422-35.439,27.253-76.597,53.535-122.988c32.767-57.854,76.728-120.108,128.928-183.329
                C100.658,556.396,13.997,654.639,14,773.188c0.002,29.04,5.223,56.854,14.747,82.576
                C29.196,853.988,29.62,852.294,29.999,850.785z"/>
            <path id="XMLID_11_" fill="#19749A" d="M372.151,657.619c-37.993-39.521-74.961-76.696-107.97-116.659l-0.045-0.008l-2.048-2.36
                c-59.5,69.597-113.871,135.072-149.704,198.34c-36.793,64.955-56.335,120.394-57.1,159.112
                c-0.078,4.111,0.104,7.979,0.445,11.703c-0.086-0.127-0.165-0.251-0.251-0.376c0,0.017,0.003,0.032,0.004,0.051
                c12.361,18.058,27.132,34.329,43.869,48.345c69.297,11.208,216.36-54.536,386.162-188.688
                C447.473,733.085,409.443,696.42,372.151,657.619z"/>
        </g>
    </g>
    <g id="XMLID_12_">
        <path id="XMLID_17_" fill="#19749A" d="M933.853,736.129c28.817,55.917,46.116,104.048,52.088,143.667
            c15.949-31.973,24.965-67.993,24.965-106.146c0-120.771-89.939-220.473-206.478-235.951
            C857.568,606.442,901.817,673.968,933.853,736.129z"/>
        <path id="XMLID_16_" fill="#19749A" d="M547.026,711.328c29.824-25.404,57.802-50.76,88.511-80.277
            c31.632-30.411,61.109-60.65,88.5-90.442l-2.219,0.367C633.261,559.86,565,626.062,544.473,713.447L547.026,711.328z"/>
        <g id="XMLID_13_">
            <path id="XMLID_15_" fill="#19749A" d="M850.402,995.769c-1.585-0.375-3.179-0.784-4.78-1.202
                c-0.959-0.24-1.526-0.386-1.526-0.386l0.01-0.014c-35.441-9.425-76.604-27.25-122.996-53.533
                c-57.852-32.771-120.103-76.729-183.326-128.931c18.228,113.409,116.465,200.07,235.017,200.07
                c29.042,0,56.85-5.222,82.573-14.744C853.596,996.577,851.903,996.151,850.402,995.769z"/>
            <path id="XMLID_14_" fill="#19749A" d="M657.233,653.619c-39.526,37.994-76.702,74.961-116.662,107.974l-0.011,0.043
                l-2.359,2.048c69.597,59.497,135.074,113.869,198.34,149.702c64.96,36.8,120.391,56.332,159.117,57.099
                c4.106,0.087,7.977-0.098,11.705-0.441c-0.127,0.084-0.259,0.166-0.386,0.251c0.019,0,0.034,0,0.051-0.008
                c18.058-12.361,34.34-27.135,48.354-43.866c11.198-69.293-54.543-216.36-188.689-386.163
                C732.693,578.296,696.028,616.327,657.233,653.619z"/>
        </g>
    </g>
    <g id="XMLID_23_">
        <path id="XMLID_28_" fill="#19749A" d="M735.264,91.53c55.918-28.817,104.054-46.118,143.665-52.088
            c-31.965-15.948-67.988-24.969-106.141-24.966c-120.774,0.004-220.476,89.94-235.954,206.48
            C605.578,167.82,673.108,123.567,735.264,91.53z"/>
        <path id="XMLID_27_" fill="#19749A" d="M710.466,478.361c-25.406-29.833-50.763-57.803-80.28-88.514
            c-30.413-31.638-60.649-61.107-90.442-88.501l0.367,2.218c18.883,88.556,85.084,156.818,172.472,177.349L710.466,478.361z"/>
        <g id="XMLID_24_">
            <path id="XMLID_26_" fill="#19749A" d="M994.907,174.984c-0.383,1.582-0.782,3.173-1.199,4.774
                c-0.243,0.959-0.384,1.523-0.384,1.523h-0.019c-9.425,35.44-27.256,76.599-53.539,122.991
                c-32.765,57.853-76.729,120.105-128.928,183.326c113.412-18.222,200.076-116.464,200.067-235.014
                c0-29.04-5.221-56.853-14.746-82.576C995.718,171.787,995.285,173.479,994.907,174.984z"/>
            <path id="XMLID_25_" fill="#19749A" d="M652.754,368.151c37.994,39.524,74.961,76.699,107.975,116.661l0.042,0.009l2.051,2.359
                c59.495-69.597,113.869-135.073,149.702-198.34c36.794-64.954,56.335-120.392,57.093-159.114
                c0.085-4.109-0.098-7.979-0.441-11.701c0.085,0.125,0.167,0.252,0.251,0.377c0-0.016,0-0.033,0-0.052
                c-12.36-18.057-27.134-34.333-43.873-48.348c-69.299-11.203-216.355,54.539-386.161,188.69
                C577.437,292.687,615.462,329.354,652.754,368.151z"/>
        </g>
    </g>
    <g id="XMLID_10_">
        <path id="XMLID_22_" fill="#19749A" d="M91.054,289.643c-28.814-55.917-46.117-104.05-52.088-143.665
            C23.019,177.946,14,213.97,14,252.122c0.004,120.772,89.94,220.472,206.479,235.952
            C167.344,419.328,123.09,351.803,91.054,289.643z"/>
        <path id="XMLID_21_" fill="#19749A" d="M477.885,314.444c-29.832,25.402-57.802,50.759-88.513,80.278
            c-31.638,30.411-61.105,60.647-88.498,90.44l2.218-0.366c88.55-18.889,156.818-85.086,177.345-172.47L477.885,314.444z"/>
        <g id="XMLID_18_">
            <path id="XMLID_20_" fill="#19749A" d="M174.509,30c1.576,0.382,3.17,0.785,4.779,1.202c0.955,0.242,1.518,0.383,1.518,0.383
                v0.019c35.44,9.425,76.599,27.254,122.995,53.537c57.849,32.768,120.103,76.729,183.322,128.929
                C468.902,100.656,370.663,13.996,252.108,14c-29.04,0-56.848,5.223-82.571,14.744C171.314,29.193,173.003,29.62,174.509,30z"/>
            <path id="XMLID_19_" fill="#19749A" d="M367.675,372.152c39.524-37.993,76.701-74.961,116.665-107.974l0.004-0.041l2.365-2.048
                c-69.601-59.5-135.073-113.871-198.338-149.704c-64.959-36.793-120.394-56.333-159.121-57.1
                c-4.104-0.081-7.977,0.104-11.702,0.444c0.124-0.085,0.259-0.167,0.383-0.251c-0.02,0.001-0.033,0.002-0.054,0.002
                C99.823,67.843,83.542,82.615,69.53,99.352c-11.205,69.297,54.537,216.361,188.689,386.163
                C292.211,447.475,328.882,409.443,367.675,372.152z"/>
        </g>
    </g>
</g>
<rect fill="none" width="1024" height="1024"/>
</svg>
