<?xml version="1.0" encoding="utf-8"?>
<!DOCTYPE svg PUBLIC "-//W3C//DTD SVG 1.1//EN" "http://www.w3.org/Graphics/SVG/1.1/DTD/svg11.dtd">
<svg width="1in" height="1in" viewBox="0 0 1024 1024" fill="none" xmlns="http://www.w3.org/2000/svg" xmlns:xlink="http://www.w3.org/1999/xlink">
<!-- Designers: Kurtis Stirling, Blissmode, Skyler, Luke Dashjr, and Steven Hay
     License: MIT
-->
<g id="icon">
	<defs>
		<mask id="icon-mask">
			<g transform="scale(4) translate(0.000000,256.000000) scale(1.000000,-1.000000)" fill="white" stroke="white">
				<path d="
M132 231 c-35 0 -63 0 -64 -1 -2 0 -5 -1 -8 -1 -3 -1 -8 -3 -11 -4 -3 -2 -8 -6
-11 -9 -3 -3 -6 -8 -8 -11 -2 -4 -3 -10 -4 -15 -1 -5 -1 -29 -1 -67 1 -60 1 -61
3 -67 1 -3 3 -8 5 -10 1 -2 4 -6 7 -9 2 -2 6 -5 9 -6 3 -2 9 -4 13 -5 6 -1 17
-1 70 -1 62 0 63 1 69 3 3 1 8 4 11 6 3 2 7 6 10 9 2 4 5 9 6 13 2 7 3 8 3 72 0
60 -1 65 -2 70 -1 4 -3 8 -5 11 -1 2 -4 6 -6 8 -2 2 -6 5 -8 6 -2 2 -7 4 -10 5
-6 2 -7 2 -68 3z
				"/>
			</g>
		</mask>
		
		<linearGradient id="gradient" x1="0.5" y1="0" x2="0.5" y2="1">
			<stop offset="0" stop-color="#feaa35"/>
			<stop offset="1" stop-color="#de6e11"/>
		</linearGradient>
	</defs>
	<g mask="url(#icon-mask)">
		<rect width="830" height="830" x="97" y="97" fill="url(#gradient)"/>
		<g transform="translate(512, 512) scale(0.875) translate(-512, -512)">
			<use xlink:href="bitcoinknots-logo.svg#logo" />
		</g>
	</g>
</g>
</svg>
