<?xml version="1.0" encoding="utf-8"?>
<!-- Generator: Adobe Illustrator 18.1.1, SVG Export Plug-In . SVG Version: 6.00 Build 0)  -->
<svg version="1.1"
	 id="svg2" xmlns:dc="http://purl.org/dc/elements/1.1/" xmlns:cc="http://creativecommons.org/ns#" xmlns:rdf="http://www.w3.org/1999/02/22-rdf-syntax-ns#" xmlns:svg="http://www.w3.org/2000/svg" xmlns:sodipodi="http://sodipodi.sourceforge.net/DTD/sodipodi-0.dtd" xmlns:inkscape="http://www.inkscape.org/namespaces/inkscape" sodipodi:docname="bitcoin-logo-noshadow.svg" inkscape:version="0.48.2 r9819"
	 xmlns="http://www.w3.org/2000/svg" xmlns:xlink="http://www.w3.org/1999/xlink" x="0px" y="0px" viewBox="0 0 4096 4096"
	 enable-background="new 0 0 4096 4096" xml:space="preserve">
<circle fill="#FFFFFF" cx="2044" cy="2047.8" r="1586.8"/>
<radialGradient id="SVGID_1_" cx="-639.25" cy="2431.25" r="455.1113" gradientTransform="matrix(4 0 0 -4 4605 11773)" gradientUnits="userSpaceOnUse">
	<stop  offset="0" style="stop-color:#F9AA4B"/>
	<stop  offset="1" style="stop-color:#F7931A"/>
</radialGradient>
<path fill="url(#SVGID_1_)" d="M2044,3868.6c-1004.8-0.4-1844-827.6-1815.6-1874c26.4-978,838-1795.2,1874.8-1766.4
	c975.2,26.8,1793.2,836.8,1764.4,1874C3840.4,3082.6,3036,3870.6,2044,3868.6z M2594.4,2973.8c237.6-63.6,473.6-126.8,710.8-190.4
	c-64-238.4-127.2-474-190.4-710.8c-96.4,25.6-190.4,50.8-286,76.4c-10.8-40.8-21.2-79.2-31.6-119.2c45.6-12.4,89.6-24.4,134.8-36.8
	c-10-38-19.6-73.6-30-111.2c-45.6,12-89.6,23.6-135.2,35.6c-7.6-29.2-15.2-56.4-22.4-84.4c46-12.4,90-24.4,134.8-36.8
	c-10.4-38.4-20-74-30-111.6c-45.6,12-90,23.6-135.2,35.6c-12.4-46.8-24.4-92.4-36.8-138.8c96-25.6,189.6-50.8,285.6-76.8
	c-63.6-238-126.8-474-190.4-710.8c-238.4,64-473.6,126.8-710.8,190.4c25.6,96,50.8,190.4,76.4,286
	c-190.4,50.8-378.4,101.2-567.6,152c-26-96.8-51.2-190.8-76.8-285.6c-238.4,64-473.6,126.8-710.8,190.4
	c64,238.4,127.2,474,190.4,710.8c96.8-25.6,190.8-50.8,286-76.4c51.2,190.8,101.6,378.8,152,567.6c-96.8,26-190.4,51.2-285.6,76.8
	c63.6,238,126.8,473.6,190.4,710.8c237.6-63.6,473.2-126.8,710.8-190.4c-25.6-96-50.8-190.4-76.4-286
	c190.8-51.2,378.8-101.6,567.6-152C2543.6,2784.2,2568.8,2877.8,2594.4,2973.8z"/>
<radialGradient id="SVGID_2_" cx="-640.2546" cy="2429.5083" r="161.3999" gradientTransform="matrix(4 0 0 -4 4605 11773)" gradientUnits="userSpaceOnUse">
	<stop  offset="0" style="stop-color:#F9AA4B"/>
	<stop  offset="1" style="stop-color:#F7931A"/>
</radialGradient>
<path fill="url(#SVGID_2_)" d="M2488.8,1992.2c10,37.2,19.6,73.2,29.6,111.6c46-12,91.2-24,139.2-36.8c10.8,39.6,21.2,78.4,32,119.2
	c-95.6,25.6-190,51.2-285.6,76.8c25.6,96,50.8,190,76.4,285.6c-189.6,50.8-378,101.2-567.6,152c-25.6-95.6-51.2-190-76.8-285.6
	c-96,25.6-190,50.8-285.6,76.4c-50.8-189.6-101.2-377.6-152-567.6c96-26,190.4-51.2,285.6-76.8c-25.6-95.6-50.4-189.2-76.4-285.6
	c189.2-50.8,377.6-101.2,567.6-152c25.6,95.6,50.8,189.2,76.8,285.6c95.2-25.2,189.2-50.4,285.6-76.4
	c12.4,46.4,24.4,91.6,37.2,138.8c-46.8,12.8-91.6,24.8-138.8,37.6c10,37.2,19.6,73.2,29.6,111.6c46.8-12.4,92-24.4,139.2-36.4
	c7.6,29.2,15.2,56,22.8,84.4C2581.2,1967,2535.6,1979.4,2488.8,1992.2z"/>
<radialGradient id="SVGID_3_" cx="-843.0046" cy="2546.458" r="67.35" gradientTransform="matrix(4 0 0 -4 4605 11773)" gradientUnits="userSpaceOnUse">
	<stop  offset="0" style="stop-color:#F9AA4B"/>
	<stop  offset="1" style="stop-color:#F7931A"/>
</radialGradient>
<path fill="url(#SVGID_3_)" d="M1502.4,1742.6c-142.4,38-282.8,76-424.8,114c-38-142-75.6-282.4-114-424.8
	c141.6-38,282-75.6,424.8-114C1426.8,1460.2,1464.4,1600.6,1502.4,1742.6z"/>
<radialGradient id="SVGID_4_" cx="-437.6046" cy="2312.3584" r="67.35" gradientTransform="matrix(4 0 0 -4 4605 11773)" gradientUnits="userSpaceOnUse">
	<stop  offset="0" style="stop-color:#F9AA4B"/>
	<stop  offset="1" style="stop-color:#F7931A"/>
</radialGradient>
<path fill="url(#SVGID_4_)" d="M3124,2679c-142,38-282.4,75.6-424.8,114c-38-142-75.6-282.4-114-424.8c142-38,282.4-75.6,424.8-114
	C3048,2396.2,3086,2536.6,3124,2679z"/>
<radialGradient id="SVGID_5_" cx="-523.3047" cy="2632.0581" r="67.35" gradientTransform="matrix(4 0 0 -4 4605 11773)" gradientUnits="userSpaceOnUse">
	<stop  offset="0" style="stop-color:#F9AA4B"/>
	<stop  offset="1" style="stop-color:#F7931A"/>
</radialGradient>
<path fill="url(#SVGID_5_)" d="M2356.4,1514.2c-38.4-142.8-75.6-282.8-114-424.8c141.6-38,282-75.6,424.8-114
	c38,141.2,75.6,281.6,114,424.8C2640,1438.2,2499.6,1475.8,2356.4,1514.2z"/>
<radialGradient id="SVGID_6_" cx="-757.3047" cy="2226.7583" r="67.35" gradientTransform="matrix(4 0 0 -4 4605 11773)" gradientUnits="userSpaceOnUse">
	<stop  offset="0" style="stop-color:#F9AA4B"/>
	<stop  offset="1" style="stop-color:#F7931A"/>
</radialGradient>
<path fill="url(#SVGID_6_)" d="M1845.2,3021.4c-142.4,38-282.4,75.6-424.8,114c-38-141.2-75.6-281.6-114-424.8
	c142-38,282.4-75.6,424.8-114C1769.2,2737.8,1806.8,2878.2,1845.2,3021.4z"/>
</svg>
