<?xml version="1.0" encoding="UTF-8"?>
<svg width="1024px" height="1024px" version="1.1" viewBox="0 0 1024 1024" xmlns="http://www.w3.org/2000/svg">
 <g id="surface1">
  <path d="m1008.6 635.86c-68.383 274.29-346.19 441.22-620.51 372.82-274.21-68.383-441.14-346.21-372.72-620.48 68.352-274.32 346.16-441.26 620.4-372.88 274.3 68.383 441.21 346.24 372.83 620.54z" fill="#f6931a"/>
  <path d="m343.53 598.23c-2.7852 6.9102-9.8398 17.277-25.746 13.344 0.5625 0.81641-40.832-10.191-40.832-10.191l-27.887 64.301 73.105 18.227c13.598 3.4062 26.926 6.9766 40.047 10.336l-23.246 93.344 56.109 14 23.023-92.352c15.328 4.1602 30.211 8 44.77 11.613l-22.945 91.922 56.176 14 23.25-93.168c95.793 18.129 167.82 10.816 198.14-75.824 24.43-69.762-1.2188-110-51.617-136.24 36.703-8.4648 64.352-32.609 71.727-82.48 10.195-68.129-41.68-104.75-112.61-129.18l23.008-92.289-56.176-14-22.402 89.855c-14.766-3.6797-29.934-7.1523-45.008-10.594l22.562-90.445-56.145-14-23.023 92.254c-12.227-2.7812-24.227-5.5352-35.875-8.4297l0.066406-0.28906-77.473-19.344-14.945 60s41.68 9.5508 40.801 10.145c22.754 5.6797 26.863 20.734 26.176 32.672m202.69 273.63c-17.359 69.758-134.82 32.047-172.89 22.59l30.848-123.66c38.078 9.5039 160.19 28.32 142.05 101.07zm17.379-180.99c-15.844 63.453-113.6 31.215-145.31 23.309l27.965-112.16c31.715 7.9062 133.84 22.656 117.35 88.852z" fill="#fff"/>
 </g>
</svg>
