<?xml version="1.0" encoding="UTF-8" standalone="no"?>
<!-- Generator: Adobe Illustrator 16.0.0, SVG Export Plug-In . SVG Version: 6.00 Build 0)  -->

<svg
   xmlns:dc="http://purl.org/dc/elements/1.1/"
   xmlns:cc="http://creativecommons.org/ns#"
   xmlns:rdf="http://www.w3.org/1999/02/22-rdf-syntax-ns#"
   xmlns:svg="http://www.w3.org/2000/svg"
   xmlns="http://www.w3.org/2000/svg"
   xmlns:sodipodi="http://sodipodi.sourceforge.net/DTD/sodipodi-0.dtd"
   xmlns:inkscape="http://www.inkscape.org/namespaces/inkscape"
   version="1.1"
   id="Layer_1"
   x="0px"
   y="0px"
   width="256px"
   height="256px"
   viewBox="0 0 256 256"
   enable-background="new 0 0 256 256"
   xml:space="preserve"
   inkscape:version="0.91 r13725"
   sodipodi:docname="chaincoin.svg"
   inkscape:export-filename="/home/daniel/ccc/ChainCoin/src/qt/res/src/chaincoin.png"
   inkscape:export-xdpi="45"
   inkscape:export-ydpi="45"><metadata
     id="metadata89"><rdf:RDF><cc:Work
         rdf:about=""><dc:format>image/svg+xml</dc:format><dc:type
           rdf:resource="http://purl.org/dc/dcmitype/StillImage" /><dc:title></dc:title></cc:Work></rdf:RDF></metadata><defs
     id="defs87" /><sodipodi:namedview
     pagecolor="#ffffff"
     bordercolor="#666666"
     borderopacity="1"
     objecttolerance="10"
     gridtolerance="10"
     guidetolerance="10"
     inkscape:pageopacity="0"
     inkscape:pageshadow="2"
     inkscape:window-width="915"
     inkscape:window-height="480"
     id="namedview85"
     showgrid="false"
     inkscape:zoom="0.921875"
     inkscape:cx="128"
     inkscape:cy="128"
     inkscape:window-x="0"
     inkscape:window-y="25"
     inkscape:window-maximized="0"
     inkscape:current-layer="Layer_1" /><g
     id="g3"><path
       fill="#58595B"
       d="M128.001,249.402c-66.942,0-121.403-54.465-121.403-121.411c0-66.937,54.461-121.395,121.403-121.395   c66.94,0,121.401,54.458,121.401,121.395C249.402,194.938,194.941,249.402,128.001,249.402z"
       id="path5" /><path
       fill="#FFFFFF"
       d="M128.001,11.597c64.187,0,116.401,52.221,116.401,116.395c0,64.193-52.213,116.412-116.401,116.412   c-64.181,0-116.403-52.219-116.403-116.412C11.598,63.819,63.819,11.597,128.001,11.597 M128.001,1.597   c-69.699,0-126.403,56.7-126.403,126.395c0,69.703,56.704,126.412,126.403,126.412c69.698,0,126.401-56.709,126.401-126.412   C254.402,58.297,197.699,1.597,128.001,1.597L128.001,1.597z"
       id="path7" /></g><g
     id="g9"><g
       id="g11"><g
         id="g13"><g
           id="g15"><path
             fill="#44B549"
             d="M128.001,11.597c-64.182,0-116.404,52.223-116.404,116.395c0,64.193,52.223,116.412,116.404,116.412      c64.188,0,116.401-52.219,116.401-116.412C244.402,63.818,192.188,11.597,128.001,11.597z"
             id="path17" /></g></g></g><g
       id="g19"><g
         id="g21"><g
           id="g23"><g
             id="g25"><path
               fill="#FFFFFF"
               d="M100.119,180.891L74.43,165.824c-2.372-1.403-3.92-3.454-4.607-6.1       c-0.701-2.648-0.346-5.209,1.075-7.582c1.388-2.379,3.444-3.943,6.084-4.673c2.34-0.612,4.566-0.437,6.696,0.566l0.051-15.302       c-1.502-0.31-3.034-0.471-4.569-0.471c-2.074,0-4.228,0.282-6.375,0.854c-6.683,1.679-11.854,5.603-15.381,11.604       c-3.518,5.954-4.422,12.37-2.687,19.077c1.718,6.699,5.655,11.896,11.645,15.411l35.854,21.032       C99.369,194.104,98.633,187.6,100.119,180.891z"
               id="path27" /></g></g></g><g
         id="g29"><g
           id="g31"><g
             id="g33"><path
               fill="#FFFFFF"
               d="M110.359,92.29l-25.646,14.623c-2.39,1.372-4.963,1.678-7.628,0.921       c-0.579-0.162-1.153-0.363-1.711-0.671l-0.087,15.551c1.435,0.243,2.823,0.348,4.211,0.348c4.23,0,8.378-1.129,12.299-3.382       l32.822-18.705l-9.563-5.472C113.379,94.564,111.772,93.466,110.359,92.29z"
               id="path35" /></g></g></g><g
         id="g37"><g
           id="g39"><g
             id="g41"><path
               fill="#FFFFFF"
               d="M109.358,163.047l26.26,15.418c2.39,1.389,3.937,3.469,4.606,6.141c0.2,0.809,0.308,1.631,0.308,2.443       l13.327-7.615c-1.924-5.896-5.67-10.524-11.156-13.744l-32.795-19.267l-0.033,10.854       C109.875,159.241,109.698,161.186,109.358,163.047z"
               id="path43" /></g></g></g><g
         id="g45"><g
           id="g47"><g
             id="g49"><path
               fill="#FFFFFF"
               d="M89.57,127.104l-0.111,29.932c0,2.755-1.01,5.142-3.004,7.08c-0.411,0.42-0.895,0.812-1.453,1.168       l13.398,7.87c3.743-4.536,5.64-9.864,5.672-15.885l0.138-37.978l-9.531,5.438C93.001,125.686,91.299,126.468,89.57,127.104z"
               id="path51" /></g></g></g><g
         id="g53"><g
           id="g55"><g
             id="g57"><path
               fill="#FFFFFF"
               d="M183.588,136.497c-2.309-0.638-4.602-0.961-6.828-0.961c-4.229,0-8.361,1.146-12.281,3.383       l-28.334,16.195l9.521,5.579c1.881,1.11,3.688,2.437,5.35,3.942l21.519-12.309c2.387-1.347,4.952-1.687,7.603-0.97       c2.633,0.728,4.666,2.31,6.021,4.716c1.372,2.39,1.702,4.965,1.002,7.616c-0.711,2.666-2.285,4.699-4.683,6.069l-46.709,26.695       c-2.391,1.354-4.945,1.661-7.604,0.937c-2.647-0.76-4.697-2.356-6.037-4.744c-1.371-2.404-1.695-4.939-1.017-7.586       c0.71-2.502,2.171-4.475,4.375-5.828l-14.182-8.326c-2.459,2.775-4.187,6.095-5.204,9.867       c-1.808,6.684-0.992,13.115,2.438,19.119c3.455,6.051,8.571,10.021,15.235,11.799c2.292,0.613,4.553,0.931,6.753,0.931       c4.223,0,8.387-1.144,12.322-3.397l46.56-26.593c6.075-3.442,10.049-8.595,11.854-15.269       c1.807-6.668,0.981-13.059-2.391-19.036C195.402,142.292,190.271,138.289,183.588,136.497z"
               id="path59" /></g></g></g><g
         id="g61"><g
           id="g63"><g
             id="g65"><path
               fill="#FFFFFF"
               d="M161.08,74.019l21.395,12.218c2.396,1.374,3.971,3.407,4.68,6.071c0.703,2.654,0.371,5.229-1,7.633       c-1.354,2.396-3.391,3.987-6.021,4.68c-2.646,0.742-5.215,0.404-7.602-0.953L125.82,76.973       c-2.372-1.372-3.952-3.389-4.712-6.021c-0.063-0.354-0.161-0.726-0.194-1.089l-13.944,7.965       c2.034,5.416,5.73,9.686,10.959,12.646l46.549,26.604c3.92,2.245,8.054,3.374,12.279,3.374c2.229,0,4.521-0.313,6.828-0.927       c6.686-1.816,11.813-5.813,15.284-11.854c3.372-5.964,4.192-12.362,2.392-19.037c-1.81-6.681-5.779-11.814-11.855-15.261       l-30.545-17.464C161.508,61.67,162.234,67.748,161.08,74.019z"
               id="path67" /></g></g></g><g
         id="g69"><g
           id="g71"><g
             id="g73"><path
               fill="#FFFFFF"
               d="M126.176,60.17c2.391-1.372,4.965-1.687,7.568-0.968c2.648,0.727,4.675,2.299,6.054,4.706       c1.356,2.396,1.712,4.963,0.986,7.61c-0.567,2.192-1.769,3.97-3.536,5.302l13.074,7.482c2.123-2.624,3.656-5.683,4.561-9.104       c1.797-6.668,1.008-13.074-2.412-19.024c-3.425-6.06-8.557-10.046-15.246-11.845c-2.313-0.653-4.625-0.953-6.846-0.953       c-4.203,0-8.303,1.154-12.265,3.383L82.05,67.319c6.722,0.601,12.701,3.229,17.803,7.862L126.176,60.17z"
               id="path75" /></g></g></g><g
         id="g77"><g
           id="g79"><g
             id="g81"><path
               fill="#FFFFFF"
               d="M68.75,128.284l0.146-0.034l0.581-0.082l0.112-30.36c0.032-2.775,1.01-5.139,2.963-7.066       c1.911-1.921,4.301-2.889,7.044-2.889c2.776,0.013,5.165,1,7.118,2.954c1.856,1.808,2.84,4.034,2.937,6.616l13.269-7.585       c-1.195-3.48-3.213-6.661-5.997-9.428c-4.865-4.905-10.821-7.398-17.673-7.425h-0.121c-6.925,0-12.888,2.463-17.763,7.33       c-4.883,4.905-7.368,10.859-7.424,17.787l-0.139,41.479C57.549,134.184,62.601,130.393,68.75,128.284z"
               id="path83" /></g></g></g></g></g></svg>