<?xml version="1.0" encoding="utf-8"?>
<!-- Generator: Adobe Illustrator 16.0.0, SVG Export Plug-In . SVG Version: 6.00 Build 0)  -->
<!DOCTYPE svg PUBLIC "-//W3C//DTD SVG 1.1//EN" "http://www.w3.org/Graphics/SVG/1.1/DTD/svg11.dtd">
<svg version="1.1" id="Layer_1" xmlns="http://www.w3.org/2000/svg" xmlns:xlink="http://www.w3.org/1999/xlink" x="0px" y="0px"
	 width="256px" height="256px" viewBox="0 0 256 256" enable-background="new 0 0 256 256" xml:space="preserve">
<g>
	<path fill="#58595B" d="M128.001,249.401c-66.942,0-121.403-54.465-121.403-121.411c0-66.937,54.461-121.395,121.403-121.395
		c66.94,0,121.401,54.458,121.401,121.395C249.402,194.937,194.941,249.401,128.001,249.401z"/>
	<path fill="#58595B" d="M128.001,11.597c64.187,0,116.401,52.221,116.401,116.395c0,64.193-52.213,116.412-116.401,116.412
		c-64.182,0-116.403-52.219-116.403-116.412C11.598,63.818,63.818,11.597,128.001,11.597 M128.001,1.597
		C58.302,1.597,1.598,58.296,1.598,127.991c0,69.703,56.704,126.412,126.403,126.412c69.698,0,126.401-56.709,126.401-126.412
		C254.402,58.296,197.699,1.597,128.001,1.597L128.001,1.597z"/>
</g>
<g>
	<g>
		<g>
			<g>
				<path fill="#FFFFFF" d="M128.001,11.597c-64.182,0-116.403,52.223-116.403,116.395c0,64.193,52.223,116.412,116.403,116.412
					c64.188,0,116.401-52.219,116.401-116.412C244.402,63.817,192.188,11.597,128.001,11.597z"/>
			</g>
		</g>
	</g>
	<g>
		<g>
			<g>
				<g>
					<path fill="#58595B" d="M96.737,187.306l-28.805-16.895c-2.66-1.573-4.396-3.873-5.166-6.839
						c-0.787-2.97-0.388-5.841,1.206-8.502c1.556-2.668,3.861-4.422,6.822-5.241c2.624-0.685,5.119-0.489,7.509,0.636l0.057-17.159
						c-1.684-0.347-3.402-0.527-5.124-0.527c-2.326,0-4.74,0.316-7.148,0.958c-7.493,1.882-13.291,6.282-17.247,13.012
						c-3.944,6.676-4.958,13.869-3.013,21.391c1.927,7.512,6.341,13.339,13.058,17.28l40.203,23.583
						C95.896,202.121,95.071,194.828,96.737,187.306z"/>
				</g>
			</g>
		</g>
		<g>
			<g>
				<g>
					<path fill="#58595B" d="M108.22,87.958l-28.757,16.397c-2.68,1.539-5.565,1.881-8.553,1.033
						c-0.649-0.182-1.292-0.406-1.918-0.752l-0.098,17.437c1.61,0.273,3.166,0.391,4.722,0.391c4.744,0,9.394-1.266,13.791-3.792
						l36.804-20.974l-10.722-6.137C111.605,90.508,109.804,89.276,108.22,87.958z"/>
				</g>
			</g>
		</g>
		<g>
			<g>
				<g>
					<path fill="#58595B" d="M107.097,167.297l29.445,17.289c2.68,1.557,4.414,3.889,5.165,6.885
						c0.224,0.908,0.346,1.829,0.346,2.74l14.943-8.539c-2.157-6.61-6.357-11.8-12.51-15.411l-36.772-21.604l-0.038,12.171
						C107.676,163.03,107.479,165.21,107.097,167.297z"/>
				</g>
			</g>
		</g>
		<g>
			<g>
				<g>
					<path fill="#58595B" d="M84.909,126.995l-0.125,33.563c0,3.089-1.132,5.765-3.369,7.938c-0.461,0.471-1.003,0.91-1.629,1.31
						l15.024,8.825c4.197-5.087,6.324-11.061,6.36-17.812l0.154-42.585l-10.686,6.098C88.756,125.405,86.847,126.281,84.909,126.995
						z"/>
				</g>
			</g>
		</g>
		<g>
			<g>
				<g>
					<path fill="#58595B" d="M190.331,137.527c-2.589-0.716-5.16-1.078-7.656-1.078c-4.742,0-9.376,1.285-13.771,3.793
						l-31.771,18.159l10.676,6.257c2.109,1.244,4.135,2.732,5.999,4.42l24.13-13.802c2.676-1.512,5.552-1.893,8.525-1.089
						c2.952,0.817,5.232,2.591,6.751,5.289c1.539,2.68,1.909,5.567,1.124,8.539c-0.798,2.989-2.563,5.27-5.251,6.806l-52.375,29.934
						c-2.682,1.519-5.545,1.862-8.527,1.05c-2.967-0.852-5.267-2.641-6.77-5.319c-1.537-2.695-1.9-5.538-1.14-8.506
						c0.796-2.806,2.434-5.018,4.906-6.535l-15.902-9.337c-2.757,3.112-4.696,6.836-5.835,11.064
						c-2.028,7.495-1.113,14.706,2.733,21.438c3.875,6.784,9.611,11.237,17.083,13.229c2.57,0.688,5.105,1.045,7.571,1.045
						c4.735,0,9.405-1.283,13.816-3.809l52.209-29.819c6.811-3.858,11.268-9.638,13.291-17.122
						c2.025-7.477,1.101-14.643-2.681-21.344C203.578,144.024,197.825,139.536,190.331,137.527z"/>
				</g>
			</g>
		</g>
		<g>
			<g>
				<g>
					<path fill="#58595B" d="M165.093,67.471l23.989,13.7c2.688,1.541,4.453,3.82,5.248,6.808c0.788,2.975,0.416,5.863-1.121,8.559
						c-1.519,2.686-3.803,4.471-6.751,5.247c-2.967,0.833-5.848,0.454-8.524-1.068l-52.377-29.933
						c-2.66-1.539-4.432-3.801-5.284-6.752c-0.071-0.396-0.181-0.813-0.218-1.221l-15.635,8.931
						c2.28,6.073,6.424,10.862,12.288,14.181l52.195,29.831c4.396,2.518,9.03,3.783,13.768,3.783c2.5,0,5.069-0.35,7.656-1.039
						c7.498-2.037,13.247-6.519,17.139-13.292c3.781-6.687,4.699-13.861,2.683-21.346c-2.03-7.491-6.48-13.247-13.294-17.112
						l-34.25-19.583C165.572,53.623,166.387,60.438,165.093,67.471z"/>
				</g>
			</g>
		</g>
		<g>
			<g>
				<g>
					<path fill="#58595B" d="M125.955,51.941c2.68-1.539,5.567-1.891,8.487-1.085c2.97,0.816,5.241,2.578,6.787,5.277
						c1.521,2.688,1.92,5.565,1.106,8.534c-0.636,2.457-1.983,4.451-3.965,5.945L153.03,79c2.38-2.942,4.1-6.372,5.113-10.208
						c2.015-7.477,1.13-14.66-2.704-21.332c-3.841-6.794-9.595-11.265-17.096-13.281c-2.593-0.733-5.187-1.069-7.676-1.069
						c-4.713,0-9.311,1.294-13.753,3.793L76.476,59.958c7.538,0.673,14.242,3.62,19.963,8.816L125.955,51.941z"/>
				</g>
			</g>
		</g>
		<g>
			<g>
				<g>
					<path fill="#58595B" d="M61.563,128.318l0.164-0.039l0.652-0.092l0.125-34.042c0.036-3.112,1.133-5.763,3.324-7.923
						c2.142-2.154,4.822-3.239,7.898-3.239c3.112,0.014,5.792,1.121,7.98,3.313c2.082,2.027,3.185,4.522,3.293,7.417l14.878-8.505
						c-1.339-3.901-3.603-7.469-6.725-10.571c-5.455-5.5-12.133-8.296-19.817-8.326h-0.136c-7.765,0-14.451,2.762-19.917,8.219
						c-5.475,5.5-8.262,12.176-8.325,19.945l-0.155,46.51C49.003,134.933,54.669,130.682,61.563,128.318z"/>
				</g>
			</g>
		</g>
	</g>
</g>
</svg>
