<svg xmlns="http://www.w3.org/2000/svg" xmlns:xlink="http://www.w3.org/1999/xlink" id="Ebene_1" x="0" y="0" enable-background="new 0 0 841.9 841.9" version="1.1" viewBox="0 0 841.9 841.9" xml:space="preserve"><g><path d="M297.6,677.3c-68.5,0-132.9-26.7-181.3-75.1S41.3,489.4,41.3,420.9s26.7-132.9,75.1-181.3c48.4-48.4,112.8-75.1,181.3-75.1 s132.9,26.7,181.3,75.1c48.4,48.4,75.1,112.8,75.1,181.3s-26.7,132.9-75.1,181.3S366.1,677.3,297.6,677.3z M297.6,204.6 c-57.8,0-112.1,22.5-153,63.4c-40.9,40.9-63.4,95.2-63.4,153c0,57.8,22.5,112.1,63.4,153c40.9,40.9,95.2,63.4,153,63.4 c57.8,0,112.1-22.5,153-63.4c40.9-40.9,63.4-95.2,63.4-153c0-57.8-22.5-112.1-63.4-153C409.8,227.1,355.4,204.6,297.6,204.6z"/></g><polygon points="465.2 601.6 534 420.9 478.3 253.4 297.6 184.6 297.6 420.9 297.6 657.3"/></svg>