<?xml version="1.0" encoding="UTF-8" standalone="no"?>
<svg
   xmlns:dc="http://purl.org/dc/elements/1.1/"
   xmlns:cc="http://creativecommons.org/ns#"
   xmlns:rdf="http://www.w3.org/1999/02/22-rdf-syntax-ns#"
   xmlns:svg="http://www.w3.org/2000/svg"
   xmlns="http://www.w3.org/2000/svg"
   xml:space="preserve"
   enable-background="new 0 0 841.9 841.9"
   viewBox="0 0 841.9 841.9"
   y="0px"
   x="0px"
   id="Ebene_1"
   version="1.1"><metadata
     id="metadata15"><rdf:RDF><cc:Work
         rdf:about=""><dc:format>image/svg+xml</dc:format><dc:type
           rdf:resource="http://purl.org/dc/dcmitype/StillImage" /><dc:title></dc:title></cc:Work></rdf:RDF></metadata><defs
     id="defs13" /><g
     id="g3"><path
       id="path5"
       d="M297.6,677.3c-68.5,0-132.9-26.7-181.3-75.1S41.3,489.4,41.3,420.9s26.7-132.9,75.1-181.3c48.4-48.4,112.8-75.1,181.3-75.1   s132.9,26.7,181.3,75.1c48.4,48.4,75.1,112.8,75.1,181.3s-26.7,132.9-75.1,181.3S366.1,677.3,297.6,677.3z M297.6,204.6   c-57.8,0-112.1,22.5-153,63.4c-40.9,40.9-63.4,95.2-63.4,153c0,57.8,22.5,112.1,63.4,153c40.9,40.9,95.2,63.4,153,63.4   c57.8,0,112.1-22.5,153-63.4c40.9-40.9,63.4-95.2,63.4-153c0-57.8-22.5-112.1-63.4-153C409.8,227.1,355.4,204.6,297.6,204.6z" /></g><path
     id="polygon7"
     d="M 297.6 184.6 L 130.1 240.3 L 61.3 420.9 L 117 588.5 L 297.6 657.3 L 465.2 601.6 L 534 420.9 L 478.3 253.4 L 297.6 184.6 z M 293.5 253.4 C 308.4 253.4 318.3 263.3 318.3 278.2 L 318.3 403 L 393.1 403 C 408 403 417.9 412.9 417.9 427.8 C 417.9 442.7 408 452.6 393.1 452.6 L 293.5 452.6 C 278.7 452.6 268.7 440.2 268.7 427.8 L 268.7 278.2 C 268.7 263.3 278.6 253.4 293.5 253.4 z " /></svg>