<?xml version="1.0" encoding="utf-8"?>
<!-- Generator: Adobe Illustrator 17.1.0, SVG Export Plug-In . SVG Version: 6.00 Build 0)  -->
<!DOCTYPE svg PUBLIC "-//W3C//DTD SVG 1.1//EN" "http://www.w3.org/Graphics/SVG/1.1/DTD/svg11.dtd">
<svg version="1.1" id="Ebene_1" xmlns="http://www.w3.org/2000/svg" xmlns:xlink="http://www.w3.org/1999/xlink" x="0px" y="0px"
	 viewBox="0 0 24 24" enable-background="new 0 0 24 24" xml:space="preserve">
<path fill="none" stroke="#000000" stroke-miterlimit="10" d="M13.4,19.4c0.8-0.8,0.8-2,0-2.8c-0.8-0.8-2-0.8-2.8,0
	c-0.8,0.8-0.8,2.1,0,2.8C11.4,20.2,12.6,20.2,13.4,19.4z M7.8,15.8c-0.5,0-1-0.2-1.4-0.6c-0.8-0.8-0.8-2,0-2.8
	c3.1-3.1,8.2-3.1,11.3,0c0.8,0.8,0.8,2,0,2.8c-0.8,0.8-2,0.8-2.8,0c-1.6-1.6-4.1-1.6-5.7,0C8.8,15.6,8.3,15.8,7.8,15.8z"/>
<path fill="none" stroke="#000000" stroke-miterlimit="10" d="M20.5,11.5c-0.5,0-1-0.2-1.4-0.6C15.2,7,8.8,7,4.9,10.9
	c-0.8,0.8-2,0.8-2.8,0c-0.8-0.8-0.8-2,0-2.8c5.5-5.5,14.3-5.5,19.8,0c0.8,0.8,0.8,2,0,2.8C21.5,11.3,21,11.5,20.5,11.5z"/>
</svg>
