<?xml version="1.0" encoding="utf-8"?>
<!-- Generator: Adobe Illustrator 17.1.0, SVG Export Plug-In . SVG Version: 6.00 Build 0)  -->
<!DOCTYPE svg PUBLIC "-//W3C//DTD SVG 1.1//EN" "http://www.w3.org/Graphics/SVG/1.1/DTD/svg11.dtd">
<svg version="1.1" id="Ebene_1" xmlns="http://www.w3.org/2000/svg" xmlns:xlink="http://www.w3.org/1999/xlink" x="0px" y="0px"
	 viewBox="0 0 24 24" enable-background="new 0 0 24 24" xml:space="preserve">
<g>
	<path d="M12,11c1.9,0,3.6,0.7,4.9,2c0.4,0.4,0.4,1,0,1.4c-0.2,0.2-0.4,0.3-0.7,0.3c-0.3,0-0.5-0.1-0.7-0.3C14.6,13.5,13.3,13,12,13
		c-1.3,0-2.6,0.5-3.5,1.5c-0.2,0.2-0.4,0.3-0.7,0.3c-0.3,0-0.5-0.1-0.7-0.3c-0.4-0.4-0.4-1,0-1.4C8.4,11.7,10.1,11,12,11 M12,17
		c0.3,0,0.5,0.1,0.7,0.3c0.2,0.2,0.3,0.4,0.3,0.7s-0.1,0.5-0.3,0.7C12.5,18.9,12.3,19,12,19c-0.3,0-0.5-0.1-0.7-0.3
		C11.1,18.5,11,18.3,11,18c0-0.3,0.1-0.5,0.3-0.7C11.5,17.1,11.7,17,12,17 M12,10c-2,0-4.1,0.8-5.7,2.3c-0.8,0.8-0.8,2,0,2.8
		c0.4,0.4,0.9,0.6,1.4,0.6c0.5,0,1-0.2,1.4-0.6C10,14.4,11,14,12,14c1,0,2,0.4,2.8,1.2c0.4,0.4,0.9,0.6,1.4,0.6s1-0.2,1.4-0.6
		c0.8-0.8,0.8-2,0-2.8C16.1,10.8,14,10,12,10L12,10z M12,16c-0.5,0-1,0.2-1.4,0.6c-0.8,0.8-0.8,2.1,0,2.8C11,19.8,11.5,20,12,20
		c0.5,0,1-0.2,1.4-0.6c0.8-0.8,0.8-2,0-2.8C13,16.2,12.5,16,12,16L12,16z"/>
</g>
<g>
	<path d="M12,5c3.5,0,6.7,1.3,9.2,3.8c0.4,0.4,0.4,1,0,1.4c-0.2,0.2-0.4,0.3-0.7,0.3c-0.3,0-0.5-0.1-0.7-0.3C17.7,8.1,14.9,7,12,7
		c-2.9,0-5.7,1.1-7.8,3.2c-0.2,0.2-0.4,0.3-0.7,0.3c-0.3,0-0.5-0.1-0.7-0.3c-0.4-0.4-0.4-1,0-1.4C5.3,6.4,8.5,5,12,5 M12,4
		C8.4,4,4.8,5.4,2.1,8.1c-0.8,0.8-0.8,2,0,2.8c0.4,0.4,0.9,0.6,1.4,0.6c0.5,0,1-0.2,1.4-0.6C6.9,9,9.4,8,12,8c2.6,0,5.1,1,7.1,2.9
		c0.4,0.4,0.9,0.6,1.4,0.6c0.5,0,1-0.2,1.4-0.6c0.8-0.8,0.8-2,0-2.8C19.2,5.4,15.6,4,12,4L12,4z"/>
</g>
</svg>
