<?xml version="1.0" encoding="UTF-8" standalone="no"?>
<svg
   xmlns:dc="http://purl.org/dc/elements/1.1/"
   xmlns:cc="http://creativecommons.org/ns#"
   xmlns:rdf="http://www.w3.org/1999/02/22-rdf-syntax-ns#"
   xmlns:svg="http://www.w3.org/2000/svg"
   xmlns="http://www.w3.org/2000/svg"
   version="1.2"
   width="92"
   height="92"
   viewBox="0 0 24 24"
   id="svg2">
  <metadata
     id="metadata10">
    <rdf:RDF>
      <cc:Work
         rdf:about="">
        <dc:format>image/svg+xml</dc:format>
        <dc:type
           rdf:resource="http://purl.org/dc/dcmitype/StillImage" />
        <dc:title></dc:title>
      </cc:Work>
    </rdf:RDF>
  </metadata>
  <defs
     id="defs8" />
  <g
     id="g4142"
     transform="matrix(0,-1,-1,0,23.96,24)">
    <g
       transform="matrix(-1,0,0,1,59.86,-106.6)"
       id="g4210">
      <g
         transform="matrix(-1,0,0,1,-16.98,0.8136)"
         id="g4289">
        <g
           id="g4291">
          <path
             id="path4153"
             d="m -64.85,116.2 a 0.6001,0.6001 0 0 0 -0.6,0.6 l 0,2 a 0.6001,0.6001 0 0 0 0.6,0.6 c 0.48,0 0.9,0.4 0.9,0.9 l 0,2.4 c -1.18,0.6 -2,1.8 -2,3.2 0,2 1.64,3.6 3.6,3.6 1.97,0 3.6,-1.6 3.6,-3.6 0,-1.4 -0.83,-2.6 -2,-3.2 l 0,-2.4 c 0,-2.3 -1.86,-4.1 -4.1,-4.1 z"
             style="" />
          <g
             id="g4295">
            <path
               id="path4149"
               d="m -67.35,106 c -2,0 -3.6,1.7 -3.6,3.6 0,1.4 0.83,2.6 2,3.2 l 0,2.5 c 0,2.2 1.84,4.1 4.1,4.1 a 0.6001,0.6001 0 0 0 0.6,-0.6 l 0,-2 a 0.6001,0.6001 0 0 0 -0.6,-0.6 c -0.49,0 -0.9,-0.4 -0.9,-0.9 l 0,-2.5 c 1.17,-0.6 2,-1.8 2,-3.2 0,-1.9 -1.61,-3.6 -3.6,-3.6 z"
               style="" />
            <path
               id="path4147"
               d="m -57.35,106 c -1.99,0 -3.6,1.7 -3.6,3.6 0,1.4 0.83,2.6 2,3.2 l 0,2.5 c 0,0.5 -0.41,0.9 -0.9,0.9 l -4.35,0 a 0.6001,0.6001 0 0 0 -0.6,0.6 l 0,2 a 0.6001,0.6001 0 0 0 0.6,0.6 l 4.35,0 c 2.26,0 4.1,-1.9 4.1,-4.1 l 0,-2.5 c 1.17,-0.6 2,-1.8 2,-3.2 0,-1.9 -1.6,-3.6 -3.6,-3.6 z"
               style="" />
          </g>
          <path
             id="path4155"
             d="m -69.84,116.2 c -2.24,0 -4.1,1.8 -4.1,4.1 l 0,2.5 c -1.17,0.5 -1.99,1.7 -1.99,3.1 0,2 1.64,3.6 3.61,3.6 1.96,0 3.6,-1.6 3.6,-3.6 0,-1.4 -0.83,-2.6 -2,-3.2 l 0,-2.4 c 0,-0.5 0.41,-0.9 0.9,-0.9 l 4.51,0 a 0.6001,0.6001 0 0 0 0.6,-0.6 l 0,-2 a 0.6001,0.6001 0 0 0 -0.6,-0.6 l -4.53,0 z"
             style="" />
        </g>
      </g>
    </g>
  </g>
  <path
     id="path4170"
     d="m 15.2,12 c 0,-0.84 -0.4,-1.65 -1,-2.24 C 13.7,9.12 12.9,8.8 12,8.8 c -0.9,0 -1.7,0.32 -2.2,0.96 -0.6,0.59 -1,1.4 -1,2.24 0,0.84 0.4,1.65 1,2.24 0.5,0.64 1.3,0.96 2.2,0.96 0.9,0 1.7,-0.32 2.2,-0.96 0.6,-0.59 1,-1.4 1,-2.24 z"
     style="opacity:1;fill:#000000;fill-opacity:1;stroke:none;stroke-width:10;stroke-miterlimit:4;stroke-dasharray:none;stroke-opacity:1" />
</svg>
