<?xml version="1.0" encoding="UTF-8" standalone="no"?>
<svg
   xmlns:dc="http://purl.org/dc/elements/1.1/"
   xmlns:cc="http://creativecommons.org/ns#"
   xmlns:rdf="http://www.w3.org/1999/02/22-rdf-syntax-ns#"
   xmlns:svg="http://www.w3.org/2000/svg"
   xmlns="http://www.w3.org/2000/svg"
   id="svg2"
   viewBox="0 0 24 24"
   height="92"
   width="92"
   version="1.2">
  <metadata
     id="metadata10">
    <rdf:RDF>
      <cc:Work
         rdf:about="">
        <dc:format>image/svg+xml</dc:format>
        <dc:type
           rdf:resource="http://purl.org/dc/dcmitype/StillImage" />
        <dc:title></dc:title>
      </cc:Work>
    </rdf:RDF>
  </metadata>
  <defs
     id="defs8" />
  <g
     id="g4142"
     transform="matrix(0,-1,-1,0,23.96,24)">
    <g
       id="g4210"
       transform="matrix(-1,0,0,1,59.86,-106.6)">
      <g
         id="g4289"
         transform="matrix(-1,0,0,1,-16.98,0.8136)">
        <g
           id="g4291">
          <path
             id="path4293"
             d="m -65.35,116.3 0,3 0.5,0 c 0.54,0 1,0.5 1,1 l 0,2.6 c -1.15,0.5 -2,1.6 -2,3 0,2 1.59,3.5 3.5,3.5 1.91,0 3.5,-1.5 3.5,-3.5 0,-1.4 -0.85,-2.5 -2,-3 l 0,-2.6 c 0,-2.3 -1.81,-4 -4,-4 z m 1,1.2 c 1.39,0.3 2.5,1.3 2.5,2.8 l 0,3.2 0.34,0.1 c 0.96,0.3 1.66,1.2 1.66,2.3 0,1.4 -1.11,2.5 -2.5,2.5 -1.39,0 -2.5,-1.1 -2.5,-2.5 0,-1.1 0.69,-2 1.66,-2.3 l 0.34,-0.1 0,-3.2 c 0,-0.9 -0.67,-1.5 -1.5,-1.8 z"
             style="color:#000000;font-style:normal;font-variant:normal;font-weight:normal;font-stretch:normal;font-size:medium;line-height:normal;font-family:sans-serif;text-indent:0;text-align:start;text-decoration:none;text-decoration-line:none;text-decoration-style:solid;text-decoration-color:#000000;letter-spacing:normal;word-spacing:normal;text-transform:none;direction:ltr;block-progression:tb;writing-mode:lr-tb;baseline-shift:baseline;text-anchor:start;white-space:normal;clip-rule:nonzero;display:inline;overflow:visible;visibility:visible;opacity:1;isolation:auto;mix-blend-mode:normal;color-interpolation:sRGB;color-interpolation-filters:linearRGB;solid-color:#000000;solid-opacity:1;fill:#000000;fill-opacity:1;fill-rule:nonzero;stroke:none;stroke-width:1;stroke-linecap:butt;stroke-linejoin:miter;stroke-miterlimit:4;stroke-dasharray:none;stroke-dashoffset:0;stroke-opacity:1;color-rendering:auto;image-rendering:auto;shape-rendering:auto;text-rendering:auto;enable-background:accumulate" />
          <g
             style="fill:#969696;fill-opacity:1"
             id="g4295">
            <path
               id="path4297"
               d="m -67.35,106.1 c -1.94,0 -3.5,1.6 -3.5,3.5 0,1.4 0.85,2.5 2,3 l 0,2.7 c 0,2.2 1.79,4 4,4 l 0.5,0 0,-0.5 0,-2.5 -0.5,0 c -0.55,0 -1,-0.5 -1,-1 l 0,-2.7 c 1.15,-0.5 2,-1.6 2,-3 0,-1.9 -1.57,-3.5 -3.5,-3.5 z m 0,1 c 1.37,0 2.5,1.2 2.5,2.5 0,1.1 -0.7,2 -1.66,2.3 l -0.34,0.1 0,3.3 c 0,0.9 0.67,1.5 1.5,1.8 l 0,1 c -1.38,-0.3 -2.5,-1.4 -2.5,-2.8 l 0,-3.3 -0.34,-0.1 c -0.96,-0.3 -1.66,-1.2 -1.66,-2.3 0,-1.3 1.12,-2.5 2.5,-2.5 z"
               style="color:#000000;font-style:normal;font-variant:normal;font-weight:normal;font-stretch:normal;font-size:medium;line-height:normal;font-family:sans-serif;text-indent:0;text-align:start;text-decoration:none;text-decoration-line:none;text-decoration-style:solid;text-decoration-color:#000000;letter-spacing:normal;word-spacing:normal;text-transform:none;direction:ltr;block-progression:tb;writing-mode:lr-tb;baseline-shift:baseline;text-anchor:start;white-space:normal;clip-rule:nonzero;display:inline;overflow:visible;visibility:visible;opacity:1;isolation:auto;mix-blend-mode:normal;color-interpolation:sRGB;color-interpolation-filters:linearRGB;solid-color:#000000;solid-opacity:1;fill:#000000;fill-opacity:1;fill-rule:nonzero;stroke:none;stroke-width:1;stroke-linecap:butt;stroke-linejoin:miter;stroke-miterlimit:4;stroke-dasharray:none;stroke-dashoffset:0;stroke-opacity:1;color-rendering:auto;image-rendering:auto;shape-rendering:auto;text-rendering:auto;enable-background:accumulate" />
            <path
               id="path4299"
               d="m -57.35,106.1 c -1.93,0 -3.5,1.6 -3.5,3.5 0,1.4 0.85,2.5 2,3 l 0,2.7 c 0,0.5 -0.45,1 -1,1 l -4.85,0 3.17,3 1.68,0 c 2.21,0 4,-1.8 4,-4 l 0,-2.7 c 1.15,-0.5 2,-1.6 2,-3 0,-1.9 -1.56,-3.5 -3.5,-3.5 z m 0,1 c 1.38,0 2.5,1.2 2.5,2.5 0,1.1 -0.7,2 -1.66,2.3 l -0.34,0.1 0,3.3 c 0,1.6 -1.35,3 -3,3 l -1.81,0 -2.04,-1 3.85,0 c 1.11,0 2,-0.9 2,-2 l 0,-3.3 -0.34,-0.1 c -0.96,-0.3 -1.66,-1.2 -1.66,-2.3 0,-1.3 1.13,-2.5 2.5,-2.5 z"
               style="color:#000000;font-style:normal;font-variant:normal;font-weight:normal;font-stretch:normal;font-size:medium;line-height:normal;font-family:sans-serif;text-indent:0;text-align:start;text-decoration:none;text-decoration-line:none;text-decoration-style:solid;text-decoration-color:#000000;letter-spacing:normal;word-spacing:normal;text-transform:none;direction:ltr;block-progression:tb;writing-mode:lr-tb;baseline-shift:baseline;text-anchor:start;white-space:normal;clip-rule:nonzero;display:inline;overflow:visible;visibility:visible;opacity:1;isolation:auto;mix-blend-mode:normal;color-interpolation:sRGB;color-interpolation-filters:linearRGB;solid-color:#000000;solid-opacity:1;fill:#000000;fill-opacity:1;fill-rule:nonzero;stroke:none;stroke-width:1;stroke-linecap:butt;stroke-linejoin:miter;stroke-miterlimit:4;stroke-dasharray:none;stroke-dashoffset:0;stroke-opacity:1;color-rendering:auto;image-rendering:auto;shape-rendering:auto;text-rendering:auto;enable-background:accumulate" />
          </g>
          <path
             id="path4301"
             d="m -69.84,116.3 c -2.19,0 -4,1.7 -4,4 l 0,2.6 c -1.14,0.6 -1.99,1.6 -1.99,3 0,2 1.6,3.5 3.51,3.5 1.91,0 3.5,-1.5 3.5,-3.5 0,-1.4 -0.85,-2.5 -2,-3 l 0,-2.6 c 0,-0.5 0.45,-1 1,-1 l 5.01,0 -3.36,-3 z m 0,1 1.84,0 2.19,1 -4.01,0 c -1.11,0 -2,0.9 -2,2 l 0,3.2 0.34,0.1 c 0.96,0.3 1.66,1.2 1.66,2.3 0,1.4 -1.11,2.5 -2.5,2.5 -1.39,0 -2.51,-1.1 -2.51,-2.5 0,-1.1 0.7,-2 1.66,-2.3 l 0.33,-0.1 0,-0.4 0,-2.8 c 0,-1.7 1.33,-3 3,-3 z"
             style="color:#000000;font-style:normal;font-variant:normal;font-weight:normal;font-stretch:normal;font-size:medium;line-height:normal;font-family:sans-serif;text-indent:0;text-align:start;text-decoration:none;text-decoration-line:none;text-decoration-style:solid;text-decoration-color:#000000;letter-spacing:normal;word-spacing:normal;text-transform:none;direction:ltr;block-progression:tb;writing-mode:lr-tb;baseline-shift:baseline;text-anchor:start;white-space:normal;clip-rule:nonzero;display:inline;overflow:visible;visibility:visible;opacity:1;isolation:auto;mix-blend-mode:normal;color-interpolation:sRGB;color-interpolation-filters:linearRGB;solid-color:#000000;solid-opacity:1;fill:#000000;fill-opacity:1;fill-rule:nonzero;stroke:none;stroke-width:1;stroke-linecap:butt;stroke-linejoin:miter;stroke-miterlimit:4;stroke-dasharray:none;stroke-dashoffset:0;stroke-opacity:1;color-rendering:auto;image-rendering:auto;shape-rendering:auto;text-rendering:auto;enable-background:accumulate" />
        </g>
      </g>
    </g>
    <path
       id="path4165"
       d="m 12,8.77 c -0.84,0 -1.66,0.341 -2.254,0.937 -0.599,0.593 -0.942,1.403 -0.945,2.253 0,0.85 0.337,1.67 0.933,2.26 a 0.6001,0.6001 0 0 0 0,0 c 0.594,0.6 1.424,0.94 2.264,0.94 0.84,0 1.67,-0.34 2.26,-0.94 0.6,-0.59 0.94,-1.41 0.94,-2.26 0,-0.84 -0.34,-1.66 -0.95,-2.253 C 13.66,9.111 12.84,8.77 12,8.77 Z"
       style="opacity:1;fill:#000000;fill-opacity:1;stroke:none;stroke-width:10;stroke-miterlimit:4;stroke-dasharray:none;stroke-opacity:1" />
  </g>
</svg>
