<svg xmlns="http://www.w3.org/2000/svg" xmlns:svg="http://www.w3.org/2000/svg" id="svg2" width="92" height="92" version="1.2" viewBox="0 0 24 24"><metadata id="metadata10"/><g id="g4210" transform="translate(0,0.25)"><g id="g4142" transform="matrix(0,-1,-1,0,23.96,23.75)"><g id="g4213" transform="matrix(-1,0,0,1,59.86,-106.6)"><g id="g4289" transform="matrix(-1,0,0,1,-16.98,0.8136)"><g id="g4291"><path id="path4293" fill-opacity="1" fill-rule="nonzero" stroke="none" stroke-dasharray="none" stroke-dashoffset="0" stroke-linecap="butt" stroke-linejoin="miter" stroke-miterlimit="4" stroke-opacity="1" stroke-width="1" d="m -65.35,116.3 0,3 0.5,0 c 0.54,0 1,0.5 1,1 l 0,2.6 c -1.15,0.5 -2,1.6 -2,3 0,2 1.59,3.5 3.5,3.5 1.91,0 3.5,-1.5 3.5,-3.5 0,-1.4 -0.85,-2.5 -2,-3 l 0,-2.6 c 0,-2.3 -1.81,-4 -4,-4 z m 1,1.2 c 1.39,0.3 2.5,1.3 2.5,2.8 l 0,3.2 0.34,0.1 c 0.96,0.3 1.66,1.2 1.66,2.3 0,1.4 -1.11,2.5 -2.5,2.5 -1.39,0 -2.5,-1.1 -2.5,-2.5 0,-1.1 0.69,-2 1.66,-2.3 l 0.34,-0.1 0,-3.2 c 0,-0.9 -0.67,-1.5 -1.5,-1.8 z" baseline-shift="baseline" clip-rule="nonzero" color="#000" color-interpolation="sRGB" color-interpolation-filters="linearRGB" color-rendering="auto" direction="ltr" display="inline" enable-background="accumulate" font-family="sans-serif" font-size="medium" font-stretch="normal" font-style="normal" font-variant="normal" font-weight="normal" image-rendering="auto" letter-spacing="normal" opacity="1" overflow="visible" shape-rendering="auto" text-anchor="start" text-decoration="none" text-rendering="auto" visibility="visible" word-spacing="normal" writing-mode="lr-tb" style="line-height:normal;text-indent:0;text-align:start;text-decoration-line:none;text-decoration-style:solid;text-decoration-color:#000;text-transform:none;block-progression:tb;white-space:normal;isolation:auto;mix-blend-mode:normal;solid-color:#000;solid-opacity:1"/><g id="g4295"><path id="path4297" fill-opacity="1" fill-rule="nonzero" stroke="none" stroke-dasharray="none" stroke-dashoffset="0" stroke-linecap="butt" stroke-linejoin="miter" stroke-miterlimit="4" stroke-opacity="1" stroke-width="1" d="m -67.35,106.1 c -1.94,0 -3.5,1.6 -3.5,3.5 0,1.4 0.85,2.5 2,3 l 0,2.7 c 0,2.2 1.79,4 4,4 l 0.5,0 0,-0.5 0,-2.5 -0.5,0 c -0.55,0 -1,-0.5 -1,-1 l 0,-2.7 c 1.15,-0.5 2,-1.6 2,-3 0,-1.9 -1.57,-3.5 -3.5,-3.5 z m 0,1 c 1.37,0 2.5,1.2 2.5,2.5 0,1.1 -0.7,2 -1.66,2.3 l -0.34,0.1 0,3.3 c 0,0.9 0.67,1.5 1.5,1.8 l 0,1 c -1.38,-0.3 -2.5,-1.4 -2.5,-2.8 l 0,-3.3 -0.34,-0.1 c -0.96,-0.3 -1.66,-1.2 -1.66,-2.3 0,-1.3 1.12,-2.5 2.5,-2.5 z" baseline-shift="baseline" clip-rule="nonzero" color="#000" color-interpolation="sRGB" color-interpolation-filters="linearRGB" color-rendering="auto" direction="ltr" display="inline" enable-background="accumulate" font-family="sans-serif" font-size="medium" font-stretch="normal" font-style="normal" font-variant="normal" font-weight="normal" image-rendering="auto" letter-spacing="normal" opacity="1" overflow="visible" shape-rendering="auto" text-anchor="start" text-decoration="none" text-rendering="auto" visibility="visible" word-spacing="normal" writing-mode="lr-tb" style="line-height:normal;text-indent:0;text-align:start;text-decoration-line:none;text-decoration-style:solid;text-decoration-color:#000;text-transform:none;block-progression:tb;white-space:normal;isolation:auto;mix-blend-mode:normal;solid-color:#000;solid-opacity:1"/><path id="path4145" d="m -57.35,106 c -1.99,0 -3.6,1.7 -3.6,3.6 0,1.4 0.83,2.6 2,3.2 l 0,2.5 c 0,0.5 -0.41,0.9 -0.9,0.9 l -4.35,0 a 0.6001,0.6001 0 0 0 -0.6,0.6 l 0,2 a 0.6001,0.6001 0 0 0 0.6,0.6 l 4.35,0 c 2.26,0 4.1,-1.9 4.1,-4.1 l 0,-2.5 c 1.17,-0.6 2,-1.8 2,-3.2 0,-1.9 -1.6,-3.6 -3.6,-3.6 z"/></g><path id="path4301" fill-opacity="1" fill-rule="nonzero" stroke="none" stroke-dasharray="none" stroke-dashoffset="0" stroke-linecap="butt" stroke-linejoin="miter" stroke-miterlimit="4" stroke-opacity="1" stroke-width="1" d="m -69.84,116.3 c -2.19,0 -4,1.7 -4,4 l 0,2.6 c -1.14,0.6 -1.99,1.6 -1.99,3 0,2 1.6,3.5 3.51,3.5 1.91,0 3.5,-1.5 3.5,-3.5 0,-1.4 -0.85,-2.5 -2,-3 l 0,-2.6 c 0,-0.5 0.45,-1 1,-1 l 5.01,0 -3.34,-3 z m 0,1 2.02,0 2.01,1 -4.01,0 c -1.11,0 -2,0.9 -2,2 l 0,3.2 0.34,0.1 c 0.96,0.3 1.66,1.2 1.66,2.3 0,1.4 -1.11,2.5 -2.5,2.5 -1.39,0 -2.51,-1.1 -2.51,-2.5 0,-1.1 0.7,-2 1.66,-2.3 l 0.33,-0.1 0,-0.4 0,-2.8 c 0,-1.7 1.33,-3 3,-3 z" baseline-shift="baseline" clip-rule="nonzero" color="#000" color-interpolation="sRGB" color-interpolation-filters="linearRGB" color-rendering="auto" direction="ltr" display="inline" enable-background="accumulate" font-family="sans-serif" font-size="medium" font-stretch="normal" font-style="normal" font-variant="normal" font-weight="normal" image-rendering="auto" letter-spacing="normal" opacity="1" overflow="visible" shape-rendering="auto" text-anchor="start" text-decoration="none" text-rendering="auto" visibility="visible" word-spacing="normal" writing-mode="lr-tb" style="line-height:normal;text-indent:0;text-align:start;text-decoration-line:none;text-decoration-style:solid;text-decoration-color:#000;text-transform:none;block-progression:tb;white-space:normal;isolation:auto;mix-blend-mode:normal;solid-color:#000;solid-opacity:1"/></g></g></g><path id="path4173" fill="#000" fill-opacity="1" stroke="none" stroke-dasharray="none" stroke-miterlimit="4" stroke-opacity="1" stroke-width="10" d="m 12,8.764 c -0.84,0 -1.67,0.336 -2.264,0.931 a 0.6001,0.6001 0 0 0 -0,0 C 9.138,10.29 8.802,11.11 8.801,11.96 c 0,0.85 0.337,1.67 0.933,2.26 a 0.6001,0.6001 0 0 0 0,0 c 0.594,0.6 1.424,0.94 2.264,0.94 0.84,0 1.67,-0.34 2.26,-0.94 0.6,-0.59 0.94,-1.41 0.94,-2.26 0,-0.84 -0.34,-1.67 -0.94,-2.265 C 13.67,9.1 12.84,8.764 12,8.764 Z" opacity="1"/></g></g></svg>