<svg xmlns="http://www.w3.org/2000/svg" xmlns:svg="http://www.w3.org/2000/svg" id="svg2" width="92" height="92" version="1.2" viewBox="0 0 24 24"><metadata id="metadata10"/><g id="g4142" transform="matrix(0,-1,-1,0,23.96,24)"><g id="g4210" transform="matrix(-1,0,0,1,59.86,-106.6)"><g id="g4289" transform="matrix(-1,0,0,1,-16.98,0.8136)"><g id="g4291"><path id="path4293" d="M 20.146484 1.0097656 C 18.746484 1.0097656 17.646484 1.8597656 17.146484 3.0097656 L 14.447266 3.0097656 C 12.247266 3.0097656 10.447266 4.7997656 10.447266 7.0097656 L 10.447266 8.1425781 C 10.128283 8.0634395 9.7980674 8.0097656 9.4472656 8.0097656 L 6.8457031 8.0097656 C 6.3457031 6.8597656 5.2457031 6.0097656 3.8457031 6.0097656 C 1.8457031 6.0097656 0.34570312 7.5997656 0.34570312 9.5097656 C 0.34570312 11.419766 1.8457031 13.009766 3.8457031 13.009766 C 5.2457031 13.009766 6.3457031 12.159766 6.8457031 11.009766 L 8.9746094 11.009766 C 8.8693536 11.330059 8.8007812 11.663345 8.8007812 12.001953 C 8.8007813 12.841953 9.1402344 13.671625 9.7402344 14.265625 C 9.9479364 14.475439 10.191281 14.640988 10.447266 14.783203 L 10.447266 16.980469 C 10.447266 17.530469 9.9472656 17.980469 9.4472656 17.980469 L 6.8457031 17.980469 C 6.3457031 16.830469 5.2457031 15.980469 3.8457031 15.980469 C 1.8457031 15.980469 0.34570312 17.570469 0.34570312 19.480469 C 0.34570312 21.390469 1.8457031 22.990234 3.8457031 22.990234 C 5.2457031 22.990234 6.2457031 22.14 6.8457031 21 L 9.4472656 21 C 11.747266 21 13.447266 19.19 13.447266 17 L 13.447266 15.869141 C 13.768504 15.952624 14.100702 16.009766 14.447266 16.009766 L 17.146484 16.009766 C 17.646484 17.159766 18.746484 18.009766 20.146484 18.009766 C 22.046484 18.009766 23.646484 16.449766 23.646484 14.509766 C 23.646484 12.579766 22.046484 11.009766 20.146484 11.009766 C 18.746484 11.009766 17.646484 11.859766 17.146484 13.009766 L 15.009766 13.009766 C 15.119625 12.684735 15.189453 12.346256 15.189453 12 C 15.189453 11.16 14.849906 10.339953 14.253906 9.7519531 C 14.0189 9.51021 13.74069 9.3244522 13.447266 9.171875 L 13.447266 7.0097656 C 13.447266 6.4597656 13.947266 6.0097656 14.447266 6.0097656 L 17.146484 6.0097656 C 17.646484 7.1597656 18.746484 8.0097656 20.146484 8.0097656 C 22.046484 8.0097656 23.646484 6.4397656 23.646484 4.5097656 C 23.646484 2.5697656 22.046484 1.0097656 20.146484 1.0097656 z M 20.146484 2.0097656 C 21.446484 2.0097656 22.646484 3.1297656 22.646484 4.5097656 C 22.646484 5.8797656 21.446484 7.0097656 20.146484 7.0097656 C 19.046484 7.0097656 18.145703 6.3096094 17.845703 5.3496094 L 17.746094 5.0097656 L 14.447266 5.0097656 C 13.347266 5.0097656 12.447266 5.8997656 12.447266 7.0097656 L 12.447266 8.8476562 C 12.298996 8.8261586 12.150754 8.8027344 12 8.8027344 C 11.954455 8.8027344 11.910576 8.8144662 11.865234 8.8164062 C 11.733157 8.716719 11.592447 8.6297054 11.447266 8.546875 L 11.447266 7.0097656 C 11.447266 5.3597656 12.847266 4.0097656 14.447266 4.0097656 L 17.746094 4.0097656 L 17.845703 3.6699219 C 18.145703 2.7099219 19.046484 2.0097656 20.146484 2.0097656 z M 3.8457031 7.0097656 C 4.9457031 7.0097656 5.8464844 7.7099219 6.1464844 8.6699219 L 6.2460938 9.0097656 L 9.4472656 9.0097656 C 9.8222656 9.0097656 10.165234 9.0792969 10.474609 9.2050781 C 10.207952 9.3508551 9.9554097 9.5233651 9.7402344 9.7421875 C 9.6554755 9.8255337 9.5878282 9.9233484 9.5136719 10.015625 C 9.4909069 10.014746 9.470428 10.009766 9.4472656 10.009766 L 6.2460938 10.009766 L 6.1464844 10.349609 C 5.8464844 11.319609 4.9457031 12.009766 3.8457031 12.009766 C 2.4457031 12.009766 1.3457031 10.899766 1.3457031 9.5097656 C 1.3457031 8.1197656 2.4457031 7.0097656 3.8457031 7.0097656 z M 20.146484 12.009766 C 21.446484 12.009766 22.646484 13.139766 22.646484 14.509766 C 22.646484 15.889766 21.446484 17.009766 20.146484 17.009766 C 19.046484 17.009766 18.145703 16.309609 17.845703 15.349609 L 17.746094 15.009766 L 14.447266 15.009766 C 14.100959 15.009766 13.772729 14.94045 13.470703 14.816406 C 13.754756 14.666178 14.02454 14.485593 14.253906 14.253906 C 14.328913 14.179151 14.386367 14.091269 14.453125 14.009766 L 17.746094 14.009766 L 17.845703 13.669922 C 18.145703 12.709922 19.046484 12.009766 20.146484 12.009766 z M 11.447266 15.144531 C 11.629002 15.17624 11.813246 15.199219 12 15.199219 C 12.018544 15.199153 12.036184 15.193748 12.054688 15.193359 C 12.180437 15.288088 12.3107 15.373496 12.447266 15.453125 L 12.447266 17 C 12.447266 18.67 11.147266 20 9.4472656 20 L 6.6464844 20 L 6.2460938 20 L 6.1464844 20.330078 C 5.8464844 21.290078 4.9457031 21.990234 3.8457031 21.990234 C 2.4457031 21.990234 1.3457031 20.870469 1.3457031 19.480469 C 1.3457031 18.090469 2.4457031 16.980469 3.8457031 16.980469 C 4.9457031 16.980469 5.8464844 17.680625 6.1464844 18.640625 L 6.2460938 18.980469 L 9.4472656 18.980469 C 10.547266 18.980469 11.447266 18.090469 11.447266 16.980469 L 11.447266 15.144531 z" transform="matrix(0,-1,-1,0,-52.84,129.7464)" style="color:#000;font-style:normal;font-variant:normal;font-weight:400;font-stretch:normal;font-size:medium;line-height:normal;font-family:sans-serif;text-indent:0;text-align:start;text-decoration:none;text-decoration-line:none;text-decoration-style:solid;text-decoration-color:#000;letter-spacing:normal;word-spacing:normal;text-transform:none;direction:ltr;block-progression:tb;writing-mode:lr-tb;baseline-shift:baseline;text-anchor:start;white-space:normal;clip-rule:nonzero;display:inline;overflow:visible;visibility:visible;opacity:1;isolation:auto;mix-blend-mode:normal;color-interpolation:sRGB;color-interpolation-filters:linearRGB;solid-color:#000;solid-opacity:1;fill:#000;fill-opacity:.5;fill-rule:nonzero;stroke:none;stroke-width:1;stroke-linecap:butt;stroke-linejoin:miter;stroke-miterlimit:4;stroke-dasharray:none;stroke-dashoffset:0;stroke-opacity:1;color-rendering:auto;image-rendering:auto;shape-rendering:auto;text-rendering:auto;enable-background:accumulate"/></g></g></g></g><path d="M 3,3 l 18,18" style="stroke-width:3;stroke:#000;stroke-linecap:round"/><path d="M 21,3 l -18,18" style="stroke-width:3;stroke:#000;stroke-linecap:round"/></svg>