<svg xmlns="http://www.w3.org/2000/svg" xmlns:svg="http://www.w3.org/2000/svg" id="Ebene_1" width="609.4" height="609.4" x="0" y="0" enable-background="new 0 0 841.9 595.3" version="1.1" viewBox="0 0 609.4 609.4" xml:space="preserve"><metadata id="metadata13"/><g id="g4151" transform="matrix(2.553,0,0,2.553,-2149,281.5)"><path id="path26" fill="#000" fill-opacity="1" fill-rule="nonzero" stroke="none" d="M 153.7 16.9 C 115 16.44 69.7 31.67 67.96 86.81 L 67.96 550.7 L 105 592.4 L 495.9 526.7 C 521.4 522.1 541.9 490.2 541.9 455.9 L 541.9 77.77 L 183.4 18.97 C 179.4 18.3 161.4 17 157.5 16.99 C 156.2 16.94 155 16.91 153.7 16.9 z M 273.5 124.1 C 278.1 124.1 282.7 124.3 287.3 124.9 L 287.3 125 C 320 128.8 343.7 144.2 359.3 170.9 C 374.6 197.1 382 234.6 382 284 C 382 329.2 376.4 364.7 365.4 390.7 C 354.2 417.2 337.1 434.6 313.4 442.8 C 315.9 455 319.5 463.2 324.1 467.5 C 326.9 469.8 330.7 471.4 335.3 471.9 L 335.6 471.9 L 336.3 471.9 L 341.5 471.9 C 343.5 471.9 344.5 472.4 348.3 471.9 L 348.3 507.9 L 332 510.2 C 327.2 510.7 322.6 510.9 318.2 510.9 C 303.9 510.9 292.4 507.6 283.5 500.5 C 272 491.3 263.6 473.4 258.2 447.1 C 233.2 441.8 213.5 425.9 200 399.1 C 186.5 372.1 179.3 332.2 179.3 280.4 C 179.3 224.5 189 183.2 207.7 157 C 223.8 134.9 245.7 124.1 273.5 124.1 z M 424.4 143.5 L 455.1 146.9 L 455.1 202.2 L 488.2 204.8 L 488.2 239.5 L 455.1 237.8 L 455.1 364.7 C 455.1 375.6 457.6 382.8 460.2 386.1 C 460.2 388.9 465.3 390.4 467.8 390.4 L 470.4 390.4 C 478 389.9 485.7 387.9 493.4 384.1 L 493.4 415.7 C 478 422.1 465.3 425.7 450 426.9 C 450 427.2 447.4 427.2 444.8 427.2 C 432.1 427.2 424.4 423.6 416.8 416.5 C 409.1 408.1 404 394.5 404 376.1 L 404 235.6 L 390.2 234.8 L 390.2 197.6 L 411.7 199.1 L 424.4 143.5 z M 284.5 166.4 C 272.5 166.4 263.3 173.3 256.9 187.3 C 250.1 202.5 246.7 233.9 246.7 281.7 C 246.7 327.6 250.1 360.3 256.9 379.5 C 263.3 397.8 273 406.8 285.8 406.8 L 287.3 406.8 C 300.1 406 309.5 397.1 316.2 380.5 C 322.6 363.9 325.6 331.5 325.6 283 C 325.6 239.4 322.6 209.5 316.2 193 C 309.8 176.4 300.1 167.5 287.3 166.4 L 284.5 166.4 z" transform="matrix(0.3917,0,0,0.3917,841.8,-110.3)"/></g></svg>