<?xml version="1.0" encoding="utf-8"?>
<!-- Generator: Adobe Illustrator 17.1.0, SVG Export Plug-In . SVG Version: 6.00 Build 0)  -->
<!DOCTYPE svg PUBLIC "-//W3C//DTD SVG 1.1//EN" "http://www.w3.org/Graphics/SVG/1.1/DTD/svg11.dtd">
<svg version="1.1" id="Ebene_1" xmlns="http://www.w3.org/2000/svg" xmlns:xlink="http://www.w3.org/1999/xlink" x="0px" y="0px"
	 viewBox="0 0 841.9 595.3" enable-background="new 0 0 841.9 595.3" xml:space="preserve">
<g>
	<path d="M182.8,310c0-74.4,0-148.8,0-220.7c0-19.8,5-39.7,19.8-54.6c12.4-12.4,27.3-17.4,44.6-19.8c37.2-5,74.4,2.5,109.1,7.4
		C428.4,34.7,497.8,44.6,569.8,57c27.3,5,57,9.9,84.3,12.4c7.4,0,5,5,5,9.9c0,91.8,0,181.1,0,272.8c0,32.2,0,64.5,0,99.2
		c0,14.9-5,29.8-12.4,44.6c-9.9,14.9-22.3,22.3-39.7,27.3c-69.4,12.4-138.9,22.3-208.3,34.7c-57,9.9-114.1,19.8-171.1,29.8
		c-2.5,0-5,0-7.4-2.5c-12.4-14.9-22.3-24.8-32.2-34.7c-2.5-2.5-2.5-7.4-2.5-9.9c0-71.9,0-143.9,0-215.8
		C182.8,320,182.8,315,182.8,310z M430.9,436.5c9.9-7.4,19.8-12.4,29.8-19.8c14.9-14.9,24.8-32.2,29.8-54.6
		c12.4-54.6,14.9-111.6,0-166.2c-12.4-47.1-42.2-74.4-84.3-79.4c-37.2-2.5-67,7.4-86.8,39.7c-7.4,14.9-12.4,29.8-14.9,44.6
		c-9.9,39.7-9.9,81.9-5,121.5c2.5,22.3,7.4,44.6,17.4,67c12.4,24.8,29.8,42.2,54.6,49.6c2.5,0,5,2.5,5,5c5,12.4,7.4,22.3,12.4,34.7
		s17.4,19.8,32.2,22.3c14.9,2.5,27.3,2.5,42.2,0c2.5,0,2.5-2.5,2.5-2.5c0-9.9,0-22.3,0-32.2C438.3,461.3,433.3,456.4,430.9,436.5z
		 M505.3,191c0,12.4,0,22.3,0,34.7c0,2.5,2.5,2.5,5,2.5c5,0,7.4,0,12.4,0c0,2.5,0,5,0,9.9c0,44.6,0,86.8,0,131.5
		c0,7.4,0,17.4,2.5,24.8c2.5,12.4,12.4,22.3,24.8,24.8c19.8,5,37.2-2.5,54.6-9.9l2.5-2.5c0-9.9,0-19.8,0-29.8
		c-7.4,2.5-14.9,5-22.3,5s-12.4-2.5-14.9-9.9c0-5-2.5-9.9-2.5-14.9c0-39.7,0-79.4,0-119.1c0-2.5,0-5,0-7.4c9.9,0,19.8,0,29.8,2.5
		c5,0,7.4-2.5,7.4-7.4c0-7.4,0-14.9,0-22.3c0-5-2.5-7.4-7.4-7.4c-7.4,0-14.9-2.5-22.3-2.5c-5,0-7.4-2.5-7.4-7.4
		c0-14.9,0-29.8,0-42.2c0-5-2.5-5-5-7.4c-5,0-12.4,0-17.4-2.5s-7.4,0-9.9,7.4c-2.5,17.4-7.4,32.2-12.4,49.6
		C520.2,191,512.7,191,505.3,191z"/>
	<path d="M443.3,277.8c-2.5,27.3-5,57-9.9,84.3c0,7.4-5,17.4-9.9,24.8c-12.4,17.4-32.2,14.9-44.6-2.5c-9.9-14.9-12.4-32.2-14.9-49.6
		c-5-42.2-5-81.9,0-124c5-12.4,7.4-24.8,14.9-37.2c12.4-17.4,34.7-17.4,47.1-2.5c2.5,5,7.4,9.9,7.4,14.9c2.5,9.9,5,19.8,7.4,32.2
		c2.5,9.9,2.5,22.3,2.5,34.7C440.8,260.4,440.8,270.4,443.3,277.8L443.3,277.8z"/>
</g>
</svg>
