<?xml version="1.0" encoding="utf-8"?>
<!-- Generator: Adobe Illustrator 21.0.0, SVG Export Plug-In . SVG Version: 6.00 Build 0)  -->
<svg version="1.1" id="Ebene_1" xmlns="http://www.w3.org/2000/svg" xmlns:xlink="http://www.w3.org/1999/xlink" x="0px" y="0px"
	 viewBox="0 0 595.3 841.9" style="enable-background:new 0 0 595.3 841.9;" xml:space="preserve">
<g>
	<path d="M96,386.7c0-4.8-1-8.9-2.9-12.2c-1.9-3.4-4.9-5.1-9-5.1c-4.5,0-7.8,1.5-9.9,4.4c-2.1,2.9-3.1,6.2-3.1,9.8
		c0,5.2,1.7,9.4,5.1,12.5c3.4,3.1,7.6,5.7,12.7,8c5.1,2.2,10.6,4.5,16.4,6.9c5.8,2.3,11.3,5.4,16.4,9.1c5.1,3.7,9.3,8.7,12.7,14.7
		c3.4,6.1,5.1,14,5.1,23.7c0,17.1-4.9,29.5-14.6,37.2c-9.7,7.7-23.8,11.6-42.2,11.6c-8.7,0-16.4-0.7-23-2.1
		c-6.7-1.4-12.3-3.9-16.9-7.4c-4.6-3.5-8.1-8.1-10.4-13.8c-2.4-5.7-3.6-12.7-3.6-21.1V457H69v3.8c0,6.9,1.3,11.7,3.8,14.5
		c2.5,2.8,5.8,4.2,9.9,4.2c4.3,0,7.7-1.5,10-4.5c2.3-3,3.5-6.7,3.5-11c0-5.2-1.6-9.4-4.8-12.5c-3.2-3.1-7.3-5.7-12.1-7.9
		c-4.9-2.2-10.1-4.4-15.8-6.6c-5.7-2.2-11-5.2-15.8-8.8c-4.9-3.6-8.9-8.3-12.1-14.2c-3.2-5.8-4.8-13.5-4.8-22.9
		c0-16.3,4.3-28.8,13-37.3c8.7-8.5,21.9-12.8,39.5-12.8c18.3,0,31.5,3.9,39.7,11.8c8.2,7.9,12.2,20.4,12.2,37.6H96V386.7z"/>
	<path d="M215.3,344.3c7.9,0,14.8,1.3,20.7,3.8c5.8,2.5,10.7,6,14.5,10.4c3.8,4.4,6.6,9.6,8.4,15.6c1.8,6,2.7,12.5,2.7,19.5
		c0,16.6-4.5,29.1-13.4,37.4c-8.9,8.3-22,12.5-39.2,12.5h-14.6v61.1h-41.8V344.3H215.3z M202.3,413.5c5.2,0,9.2-1.6,12-4.7
		c2.8-3.1,4.2-8.1,4.2-14.8c0-13-5.4-19.5-16.2-19.5h-7.9v39.1H202.3z"/>
	<path d="M306.3,344.3l16.8,120.9h0.4l16.9-120.9h44.5l-34.6,160.4h-53.9l-33.9-160.4H306.3z"/>
</g>
</svg>
