<?xml version="1.0" encoding="utf-8"?>
<!-- Generator: Adobe Illustrator 23.0.3, SVG Export Plug-In . SVG Version: 6.00 Build 0)  -->
<svg version="1.1"
	 id="svg2" inkscape:version="0.48.2 r9819" sodipodi:docname="bitcoin-logo-noshadow.svg" xmlns:cc="http://creativecommons.org/ns#" xmlns:dc="http://purl.org/dc/elements/1.1/" xmlns:inkscape="http://www.inkscape.org/namespaces/inkscape" xmlns:rdf="http://www.w3.org/1999/02/22-rdf-syntax-ns#" xmlns:sodipodi="http://sodipodi.sourceforge.net/DTD/sodipodi-0.dtd" xmlns:svg="http://www.w3.org/2000/svg"
	 xmlns="http://www.w3.org/2000/svg" xmlns:xlink="http://www.w3.org/1999/xlink" x="0px" y="0px" viewBox="0 0 1024 1024"
	 style="enable-background:new 0 0 1024 1024;" xml:space="preserve">
<style type="text/css">
	.st0{fill-rule:evenodd;clip-rule:evenodd;fill:#21255F;}
</style>
<g id="Layer_x0020_1">
	<path class="st0" d="M512.5,58.2C762.4,58.2,965,260.8,965,510.7c0,229.9-171.4,419.7-393.4,448.7c-26.1,3.4-52.5,4.5-78.8,3.4
		C252.1,952.5,60,754,60,510.7C60,260.8,262.6,58.2,512.5,58.2z M415.7,675.3c-12.2-1.6-25.3-4.2-39.2-8
		c-233.8-63.9-268.1-262.5-122.9-388.8c55.2-48,127.8-78.7,199.6-91.3c35.7-6.1,71.9-8.2,108.1-5.9c82.2,5.3,167.1,33.5,243.6,92.6
		c-148.2-47.1-265.2-46.2-345.4-19.2c-9.1,3.1-18.1,6.6-26.9,10.6c-101,46.4-127.6,139.6-64,217.5c23.5,28.8,55.8,51.4,89.9,68.4
		C568.6,606.3,534.8,690.7,415.7,675.3L415.7,675.3z M794,430.7c-42.2-39.9-101.6-66.8-158.1-79.8c-140-32.3-187.2,60.3-69.4,119.2
		c152.7,76.4,159.3,206.9,49.4,273.5c-28.5,17.2-61.3,28.2-94.6,34.4c-76.8,14.5-178.4,8.5-301.3-30.6
		c49.1,37.8,101.7,63.1,154.7,77.6c49.6,13.6,99.6,18,147.7,14.9c37.4-2.4,74.5-9.4,110.2-20.9c50.4-16.2,98.7-41.4,138.7-76.2
		C877.7,650.4,887.8,519.4,794,430.7L794,430.7z"/>
</g>
</svg>
