<svg xmlns="http://www.w3.org/2000/svg" xmlns:svg="http://www.w3.org/2000/svg" id="svg4142" width="36.12mm" height="36.12mm" version="1.1" viewBox="0 0 128 127.9"><metadata id="metadata4147"/><g id="layer1" transform="translate(-284.4,-501.6)"><path id="path4792" d="m 348.8,513.8 c -12.7,-0.7 -24.9,9.1 -27,21.7 -3.8,8.8 7.2,13.7 13.7,9.2 3.1,-7.5 9.4,-17.9 18.9,-11.6 9.7,6.1 2.1,17.6 -3,24.1 -6.1,7.8 -11.4,14.8 -8.9,23 5.4,17.7 10.8,3.7 12.8,-0.1 4.3,-8.2 6,-8.8 11.5,-16.1 6.4,-8.6 11.6,-19.9 7.7,-30.8 -2.8,-11.5 -13.9,-19.9 -25.7,-19.4 z m -0.7,84.7 c -11.4,2.4 -9.1,19.5 2.7,17.1 11.8,-2.4 8.7,-19.5 -2.7,-17.1 z" style="fill:#000"/></g></svg>