<?xml version="1.0" encoding="UTF-8"?>
<svg width="55.453835" height="44.847477" viewBox="0 0 55.453835 44.847477" fill="none" xmlns="http://www.w3.org/2000/svg">
  <path d="m 15.9667,0.01374038 16.1578,0.0068 c 5.9772,-5e-4 14.0709,-0.5518 18.7611,4.09100002 3.5012,3.5707 4.5613,6.7656996 4.5682,11.7327996 0.0111,7.9367 -2.7923,17.168 -8.2826,23.0461 -5.2287,5.5977 -12.9334,5.9531 -20.1549,5.9553 l -9.0486,-0.0044 c -3.2611,0.0119 -6.5223,0.0065 -9.7835,-0.0163 0.5885,-2.2806 1.2605,-6.9133 1.6568,-9.3796 4.3888,-0.1653 8.8063,-0.0638 13.2024,-0.067 5.2333,-0.0038 12.4025,0.2793 16.4955,-3.6148 3.2341,-3.3457 4.2722,-9.5736 4.6076,-14.03 0.3083,-4.094 -2.283,-7.1132 -6.1952,-7.8372996 -3.6933,-0.6834 -7.1269,-0.5247 -10.8465,-0.5241 l -12.7034,0.0046 c 0.4259,-2.4006 1.3921,-7.1142 1.5653,-9.36310002 z" fill="#ffffff"/>
  <path d="m 6.7789,17.66794 c 0.8594,-0.139 5.2562,-0.0608 6.4089,-0.0597 l 14.8546,0.0092 c -1.1994,4.5826 -0.2524,8.4784 -6.3672,9.4601 -6.9894,0.1905 -14.6343,0.0397 -21.6752,0.0482 0.273,-2.0576 1.0913,-6.0284 2.3826,-7.6119 1.1742,-1.4399 2.6899,-1.6889 4.3963,-1.8459 z" fill="#ffffff"/>
</svg>
