<?xml version="1.0" encoding="utf-8"?>
<!-- Generator: Adobe Illustrator 17.1.0, SVG Export Plug-In . SVG Version: 6.00 Build 0)  -->
<!DOCTYPE svg PUBLIC "-//W3C//DTD SVG 1.1//EN" "http://www.w3.org/Graphics/SVG/1.1/DTD/svg11.dtd">
<svg version="1.1" id="Ebene_1" xmlns="http://www.w3.org/2000/svg" xmlns:xlink="http://www.w3.org/1999/xlink" x="0px" y="0px"
	 viewBox="0 0 24 24" enable-background="new 0 0 24 24" xml:space="preserve">
<path d="M13,17.5c-2.5,0-4.5-2-4.5-4.5c0-0.6-0.4-1-1-1s-1,0.4-1,1c0,3.6,2.9,6.5,6.5,6.5s6.5-2.9,6.5-6.5S16.6,6.5,13,6.5
	c-0.6,0-1,0.4-1,1s0.4,1,1,1c2.5,0,4.5,2,4.5,4.5S15.5,17.5,13,17.5z M3.7,10.3c-0.6,0-1-0.4-1-1s0.4-1,1-1H7L5.3,6.6L1.2,2.5
	c-0.4-0.4-0.4-1,0-1.4c0.2-0.2,0.4-0.3,0.7-0.3s0.5,0.1,0.7,0.3l4.1,4.1l1.7,1.7V3.6c0-0.6,0.4-1,1-1s1,0.4,1,1v6.7L3.7,10.3"/>
</svg>
