<?xml version="1.0" encoding="UTF-8" standalone="no"?>
<!-- Created with Inkscape (http://www.inkscape.org/) -->

<svg
   xmlns:dc="http://purl.org/dc/elements/1.1/"
   xmlns:cc="http://creativecommons.org/ns#"
   xmlns:rdf="http://www.w3.org/1999/02/22-rdf-syntax-ns#"
   xmlns:svg="http://www.w3.org/2000/svg"
   xmlns="http://www.w3.org/2000/svg"
   xmlns:sodipodi="http://sodipodi.sourceforge.net/DTD/sodipodi-0.dtd"
   xmlns:inkscape="http://www.inkscape.org/namespaces/inkscape"
   id="svg2"
   version="1.1"
   inkscape:version="0.48.0 r9654"
   width="256"
   height="256"
   sodipodi:docname="BC_Logo_bigb.svg"
   inkscape:export-filename="/store/orion/projects/bitcoin/BC_Logo_icon32.png"
   inkscape:export-xdpi="11.24"
   inkscape:export-ydpi="11.24">
  <metadata
     id="metadata8">
    <rdf:RDF>
      <cc:Work
         rdf:about="">
        <dc:format>image/svg+xml</dc:format>
        <dc:type
           rdf:resource="http://purl.org/dc/dcmitype/StillImage" />
        <dc:title></dc:title>
      </cc:Work>
    </rdf:RDF>
  </metadata>
  <defs
     id="defs6" />
  <sodipodi:namedview
     pagecolor="#ffffff"
     bordercolor="#666666"
     borderopacity="1"
     objecttolerance="10"
     gridtolerance="10"
     guidetolerance="10"
     inkscape:pageopacity="0"
     inkscape:pageshadow="2"
     inkscape:window-width="1204"
     inkscape:window-height="972"
     id="namedview4"
     showgrid="false"
     inkscape:zoom="1.0195312"
     inkscape:cx="128"
     inkscape:cy="128"
     inkscape:window-x="0"
     inkscape:window-y="0"
     inkscape:window-maximized="0"
     inkscape:current-layer="svg2" />
  <path
     style="fill:#f7931a;fill-opacity:1"
     d="M 106.43717,255.44411 C 58.885667,247.0934 20.148047,213.12246 5.5760967,166.99406 -5.0888833,133.23345 -0.4989633,93.902057 17.638567,63.629636 35.544697,33.743451 63.151827,13.31939 97.914907,4.2403281 110.87593,0.85530581 133.07858,-0.01732619 147.62485,2.2865772 c 48.58208,7.6946497 87.96206,41.6369818 102.79907,88.6044198 10.66497,33.760613 6.07505,73.092003 -12.06248,103.364423 -17.90168,29.87877 -45.43081,50.25014 -80.27634,59.40395 -8.02083,2.10705 -12.35943,2.57368 -26.58509,2.85933 -11.62319,0.23339 -19.55014,-0.10648 -25.06284,-1.07459 z m 21.49607,-33.40537 c 0.67201,-2.55537 2.28487,-8.82764 3.58414,-13.93838 1.66717,-6.55787 2.87117,-9.16859 4.09153,-8.87196 0.95107,0.23115 7.87415,0.72588 15.38462,1.09939 17.37904,0.86431 25.56406,-1.22 33.49346,-8.52906 8.13848,-7.50179 12.04281,-16.65533 12.6,-29.54016 0.40052,-9.26197 0.10816,-11.12853 -2.42582,-15.4871 -1.58468,-2.72572 -5.51817,-6.90724 -8.74109,-9.29225 l -5.85986,-4.33639 4.65727,-2.00126 c 10.48033,-4.50349 15.42181,-12.62004 16.13053,-26.49498 0.44308,-8.674348 0.13396,-10.607778 -2.47609,-15.487096 -3.63573,-6.796764 -12.47913,-13.717575 -23.2453,-18.191685 -4.42931,-1.840692 -8.16319,-3.395981 -8.2975,-3.456197 -0.13432,-0.06021 1.36942,-6.487192 3.34163,-14.28217 1.97221,-7.794977 3.47595,-14.246789 3.34163,-14.33736 -0.13432,-0.09057 -3.03189,-0.829674 -6.43905,-1.642452 -3.40716,-0.812778 -7.10271,-1.747384 -8.21235,-2.076903 -1.65,-0.489991 -2.63501,1.889946 -5.40744,13.06518 -2.3599,9.512402 -3.93306,13.664306 -5.1774,13.664306 -2.4551,0 -12.79648,-2.6525 -12.79648,-3.282217 0,-0.280563 1.46749,-6.366543 3.26108,-13.5244 1.79358,-7.157856 2.96278,-13.312565 2.59821,-13.677131 -1.13622,-1.13622 -14.55864,-4.337145 -15.56886,-3.712797 -0.5271,0.32576 -2.27892,6.186339 -3.89296,13.02351 -1.61404,6.83717 -3.27009,12.974043 -3.68013,13.637495 -0.45319,0.733284 -7.29075,-0.444263 -17.43785,-3.003102 -9.180784,-2.315158 -17.035651,-3.818134 -17.455252,-3.339946 -0.419613,0.478187 -1.421479,3.657108 -2.226375,7.064268 -0.804895,3.40716 -1.729548,7.091678 -2.054777,8.187816 -0.467264,1.574786 1.034463,2.337999 7.156733,3.637232 7.891702,1.674736 13.370134,5.448552 13.370134,9.210032 0,3.792872 -19.998745,81.756487 -21.406906,83.453217 -1.073602,1.29362 -2.990966,1.50178 -7.667634,0.83246 -12.307467,-1.76144 -11.610152,-2.08482 -15.607172,7.23813 -2.000907,4.66711 -3.638029,8.87314 -3.638029,9.34676 0,0.47361 6.551052,2.44816 14.557878,4.3879 8.006826,1.93976 15.760349,3.97242 17.230058,4.51707 l 2.67218,0.99025 -3.535876,13.97525 c -1.944732,7.68638 -3.425993,14.08191 -3.291676,14.21231 0.585846,0.56874 16.043375,4.27566 16.388787,3.93024 0.21086,-0.21086 1.861155,-6.21314 3.667322,-13.33842 1.806165,-7.12528 3.524815,-13.34482 3.819225,-13.82119 0.47198,-0.76365 12.50291,1.79626 13.60053,2.89389 0.23419,0.23419 -1.15563,6.67621 -3.08848,14.31563 l -3.51427,13.88981 5.1285,1.31655 c 2.82069,0.72411 5.68606,1.52127 6.36749,1.77148 3.87088,1.42133 5.53863,0.42701 6.70169,-3.99557 z m 0.73211,-46.75718 c -0.68143,-0.2255 -5.55986,-1.37984 -10.84096,-2.56518 -5.2811,-1.18533 -9.602,-2.37902 -9.602,-2.65262 0,-0.69777 8.6443,-35.35611 9.26802,-37.15906 0.37244,-1.07656 3.53951,-0.66662 11.67946,1.51178 13.6897,3.6636 19.1783,5.90575 24.62336,10.0589 8.90171,6.78966 11.18424,15.30187 6.13136,22.86558 -4.20751,6.29825 -9.75723,8.55971 -20.72801,8.44651 -5.11074,-0.0528 -9.84979,-0.28039 -10.53123,-0.50591 z m 2.6741,-58.28708 c -3.98069,-0.99595 -7.68302,-2.08609 -8.22738,-2.42251 -0.7677,-0.47447 6.73004,-33.81654 7.8581,-34.944594 0.68481,-0.684825 20.33955,5.01689 24.35417,7.064994 2.5024,1.276626 6.309,4.324758 8.45915,6.77363 3.14212,3.578679 3.90933,5.541774 3.90933,10.00292 0,4.59233 -0.73209,6.3493 -4.24114,10.17838 -4.19334,4.57575 -4.35746,4.63091 -14.55787,4.89295 -5.8546,0.1504 -13.44709,-0.51817 -17.55436,-1.54577 z"
     id="path2987"
     inkscape:connector-curvature="0"
     sodipodi:nodetypes="sssssssssssscssssscsssscscssssssssssscscsssssssscscssssscssscssssssscsssssssss" />
</svg>
