<?xml version="1.0" encoding="utf-8"?>
<!-- Generator: Adobe Illustrator 16.0.0, SVG Export Plug-In . SVG Version: 6.00 Build 0)  -->
<!DOCTYPE svg PUBLIC "-//W3C//DTD SVG 1.1//EN" "http://www.w3.org/Graphics/SVG/1.1/DTD/svg11.dtd">
<svg version="1.1"
	 id="svg2" inkscape:export-ydpi="90" inkscape:export-xdpi="90" inkscape:export-filename="/home/daniel/cc/chaincoin/src/qt/res/icons/add.png" sodipodi:docname="add.svg" inkscape:version="0.91 r13725" xmlns:dc="http://purl.org/dc/elements/1.1/" xmlns:cc="http://creativecommons.org/ns#" xmlns:rdf="http://www.w3.org/1999/02/22-rdf-syntax-ns#" xmlns:svg="http://www.w3.org/2000/svg" xmlns:sodipodi="http://sodipodi.sourceforge.net/DTD/sodipodi-0.dtd" xmlns:inkscape="http://www.inkscape.org/namespaces/inkscape"
	 xmlns="http://www.w3.org/2000/svg" xmlns:xlink="http://www.w3.org/1999/xlink" x="0px" y="0px" width="128px" height="128px"
	 viewBox="0 0 128 128" enable-background="new 0 0 128 128" xml:space="preserve">
<sodipodi:namedview  units="px" inkscape:window-maximized="1" inkscape:window-y="25" inkscape:window-x="0" inkscape:window-height="718" inkscape:window-width="1366" inkscape:pageshadow="2" inkscape:current-layer="layer1" inkscape:document-units="px" inkscape:pageopacity="0.0" showgrid="false" inkscape:cy="77.718325" inkscape:cx="-102.98088" inkscape:zoom="1" borderopacity="1.0" bordercolor="#666666" pagecolor="#ffffff" id="base">
	</sodipodi:namedview>
<g id="layer1" transform="translate(0,-924.36216)" inkscape:groupmode="layer" inkscape:label="Ebene 1">
	<g id="text3649" transform="matrix(0.48685934,0,0,0.48685934,1.6820043,538.3278)">
		<path id="path3336" inkscape:connector-curvature="0" fill="#58595B" d="M249.265,907.827c0-9.129-7.408-16.536-16.536-16.536
			h-71.657v-71.656c0-9.13-7.408-16.536-16.536-16.536h-33.072c-9.129,0-16.536,7.407-16.536,16.536v71.656H23.272
			c-9.13,0-16.536,7.408-16.536,16.536v33.072c0,9.129,7.407,16.536,16.536,16.536h71.656v71.657
			c0,9.126,7.408,16.534,16.536,16.534h33.072c9.129,0,16.536-7.408,16.536-16.534v-71.657h71.657
			c9.129,0,16.536-7.408,16.536-16.536V907.827z"/>
	</g>
</g>
</svg>
