<?xml version="1.0" encoding="utf-8"?>
<!-- Generator: Adobe Illustrator 16.0.0, SVG Export Plug-In . SVG Version: 6.00 Build 0)  -->
<!DOCTYPE svg PUBLIC "-//W3C//DTD SVG 1.1//EN" "http://www.w3.org/Graphics/SVG/1.1/DTD/svg11.dtd">
<svg version="1.1"
	 id="svg2" inkscape:export-ydpi="90" inkscape:export-xdpi="90" inkscape:export-filename="/home/daniel/cc/chaincoin/src/qt/res/icons/address-book.png" sodipodi:docname="address-book.svg" inkscape:version="0.91 r13725" xmlns:dc="http://purl.org/dc/elements/1.1/" xmlns:cc="http://creativecommons.org/ns#" xmlns:rdf="http://www.w3.org/1999/02/22-rdf-syntax-ns#" xmlns:svg="http://www.w3.org/2000/svg" xmlns:sodipodi="http://sodipodi.sourceforge.net/DTD/sodipodi-0.dtd" xmlns:inkscape="http://www.inkscape.org/namespaces/inkscape"
	 xmlns="http://www.w3.org/2000/svg" xmlns:xlink="http://www.w3.org/1999/xlink" x="0px" y="0px" width="128px" height="128px"
	 viewBox="0 0 128 128" enable-background="new 0 0 128 128" xml:space="preserve">
<sodipodi:namedview  units="px" inkscape:window-maximized="1" inkscape:window-y="25" inkscape:window-x="0" inkscape:window-height="718" inkscape:window-width="1366" inkscape:pageshadow="2" inkscape:current-layer="layer1" inkscape:document-units="px" inkscape:pageopacity="0.0" showgrid="false" inkscape:cy="20.638944" inkscape:cx="-9.5006102" inkscape:zoom="2" borderopacity="1.0" bordercolor="#666666" pagecolor="#ffffff" id="base">
	</sodipodi:namedview>
<g id="layer1" transform="translate(0,-924.36216)" inkscape:groupmode="layer" inkscape:label="Ebene 1">
	<g id="text3649" transform="matrix(0.46784975,0,0,0.4672192,4.1152329,556.4824)">
		<path id="path3336" inkscape:connector-curvature="0" fill="#58595B" d="M178.242,970.929c0,13.479-8.85,23.146-19.742,23.146
			H80.072c-10.893,0-19.743-9.667-19.743-23.146c0-24.102,5.854-50.924,30.091-50.924c7.488,4.357,17.701,11.846,28.865,11.846
			c11.165,0,21.376-7.489,28.866-11.846C172.387,920.006,178.242,946.828,178.242,970.929z M154.687,890.051
			c0,19.471-15.931,35.265-35.401,35.265s-35.401-15.794-35.401-35.265c0-19.607,15.931-35.401,35.401-35.401
			S154.687,870.444,154.687,890.051z M241.284,963.576c0-2.452-1.906-4.358-4.358-4.358h-13.071V941.79h13.071
			c2.453,0,4.358-1.906,4.358-4.356v-26.143c0-2.451-1.906-4.357-4.358-4.357h-13.071v-17.429h13.071
			c2.453,0,4.358-1.906,4.358-4.357v-26.143c0-2.451-1.906-4.357-4.358-4.357h-13.071v-30.5c0-11.983-9.802-21.786-21.784-21.786
			H36.501c-11.982,0-21.786,9.804-21.786,21.786v200.425c0,11.983,9.803,21.786,21.786,21.786h165.57
			c11.981,0,21.784-9.803,21.784-21.786v-30.5h13.071c2.453,0,4.358-1.906,4.358-4.358V963.576z"/>
	</g>
</g>
</svg>
