<?xml version="1.0" encoding="utf-8"?>
<!-- Generator: Adobe Illustrator 16.0.0, SVG Export Plug-In . SVG Version: 6.00 Build 0)  -->
<!DOCTYPE svg PUBLIC "-//W3C//DTD SVG 1.1//EN" "http://www.w3.org/Graphics/SVG/1.1/DTD/svg11.dtd">
<svg version="1.1"
	 id="Ebene_1" sodipodi:docname="clock_4.svg" inkscape:version="0.91 r13725" xmlns:dc="http://purl.org/dc/elements/1.1/" xmlns:cc="http://creativecommons.org/ns#" xmlns:rdf="http://www.w3.org/1999/02/22-rdf-syntax-ns#" xmlns:svg="http://www.w3.org/2000/svg" xmlns:sodipodi="http://sodipodi.sourceforge.net/DTD/sodipodi-0.dtd" xmlns:inkscape="http://www.inkscape.org/namespaces/inkscape"
	 xmlns="http://www.w3.org/2000/svg" xmlns:xlink="http://www.w3.org/1999/xlink" x="0px" y="0px" width="128px" height="128px"
	 viewBox="0 0 128 128" enable-background="new 0 0 128 128" xml:space="preserve">
<sodipodi:namedview  inkscape:window-maximized="1" inkscape:window-y="25" inkscape:window-x="0" inkscape:window-height="718" inkscape:window-width="1366" inkscape:pageshadow="2" inkscape:current-layer="Ebene_1" inkscape:pageopacity="0" objecttolerance="10" gridtolerance="10" guidetolerance="10" showgrid="false" inkscape:cy="74.612348" inkscape:cx="105.77421" inkscape:zoom="1.1212733" borderopacity="1" bordercolor="#666666" pagecolor="#ffffff" id="namedview8">
	</sodipodi:namedview>
<g id="g3" transform="matrix(0.23400936,0,0,0.23400936,-5.8645866,-34.294537)">
	<path id="path5" inkscape:connector-curvature="0" fill="#58595B" d="M297.599,677.302c-68.499,0-132.899-26.7-181.3-75.101
		c-48.401-48.401-75-112.801-75-181.3c0-68.501,26.7-132.901,75.101-181.302c48.401-48.398,112.801-75.099,181.3-75.099
		c68.503,0,132.903,26.7,181.304,75.099C527.4,288,554.1,352.401,554.1,420.901c0,68.499-26.7,132.899-75.096,181.3
		C430.603,650.602,366.102,677.302,297.599,677.302z M297.599,204.601c-57.799,0-112.1,22.5-152.999,63.399
		s-63.399,95.201-63.399,153.001c0,57.799,22.5,112.1,63.399,153.001c40.899,40.897,95.201,63.399,152.999,63.399
		c57.803,0,112.104-22.502,153.001-63.399C491.498,533.102,514,478.8,514,421.002c0-57.801-22.502-112.1-63.399-153.001
		C409.8,227.101,355.402,204.601,297.599,204.601z"/>
</g>
<path id="polygon7" inkscape:connector-curvature="0" fill="#58595B" d="M63.776,8.903L24.58,21.938L8.48,64.2l13.035,39.22
	l42.262,16.1l39.22-13.034l16.1-42.285l-13.033-39.197L63.776,8.903z M62.817,25.003c3.486,0,5.804,2.317,5.804,5.803v29.205h17.504
	c3.486,0,5.803,2.317,5.803,5.803s-2.316,5.804-5.803,5.804H62.817c-3.463,0-5.804-2.901-5.804-5.804V30.807
	C57.014,27.32,59.331,25.003,62.817,25.003z"/>
</svg>
