<?xml version="1.0" encoding="utf-8"?>
<!-- Generator: Adobe Illustrator 16.0.0, SVG Export Plug-In . SVG Version: 6.00 Build 0)  -->
<!DOCTYPE svg PUBLIC "-//W3C//DTD SVG 1.1//EN" "http://www.w3.org/Graphics/SVG/1.1/DTD/svg11.dtd">
<svg version="1.1"
	 id="svg2" inkscape:export-ydpi="90" inkscape:export-xdpi="90" inkscape:export-filename="/home/daniel/cc/chaincoin/src/qt/res/icons/configure.png" sodipodi:docname="configure.svg" inkscape:version="0.91 r13725" xmlns:dc="http://purl.org/dc/elements/1.1/" xmlns:cc="http://creativecommons.org/ns#" xmlns:rdf="http://www.w3.org/1999/02/22-rdf-syntax-ns#" xmlns:svg="http://www.w3.org/2000/svg" xmlns:sodipodi="http://sodipodi.sourceforge.net/DTD/sodipodi-0.dtd" xmlns:inkscape="http://www.inkscape.org/namespaces/inkscape"
	 xmlns="http://www.w3.org/2000/svg" xmlns:xlink="http://www.w3.org/1999/xlink" x="0px" y="0px" width="128px" height="128px"
	 viewBox="0 0 128 128" enable-background="new 0 0 128 128" xml:space="preserve">
<sodipodi:namedview  units="px" inkscape:window-maximized="1" inkscape:window-y="25" inkscape:window-x="0" inkscape:window-height="718" inkscape:window-width="1366" inkscape:pageshadow="2" inkscape:current-layer="layer1" inkscape:document-units="px" inkscape:pageopacity="0.0" showgrid="false" inkscape:cy="54.022547" inkscape:cx="-52.043396" inkscape:zoom="2" borderopacity="1.0" bordercolor="#666666" pagecolor="#ffffff" id="base">
	</sodipodi:namedview>
<g id="layer1" transform="translate(0,-924.36216)" inkscape:groupmode="layer" inkscape:label="Ebene 1">
	<g id="text3649" transform="matrix(0.47193959,0,0,0.47193959,3.5917328,552.11911)">
		<path id="path3336" inkscape:connector-curvature="0" fill="#58595B" d="M60.138,1001.865c0,5.192-4.301,9.492-9.493,9.492
			c-5.192,0-9.494-4.3-9.494-9.492c0-5.192,4.302-9.494,9.494-9.494C55.837,992.371,60.138,996.673,60.138,1001.865z
			 M155.664,939.566c-19.432-7.714-35.007-23.289-42.72-42.721L11.93,997.859c-3.56,3.561-5.637,8.455-5.637,13.498
			c0,5.045,2.076,9.939,5.637,13.351l15.723,16.02c3.559,3.41,8.455,5.488,13.498,5.488c5.044,0,9.939-2.077,13.35-5.488
			L155.664,939.566z M249.705,875.041c0-2.966-1.78-5.192-4.745-5.192c-2.967,0-37.381,21.657-42.275,24.475l-28.628-15.871v-33.227
			l43.461-25.068c1.335-0.89,2.373-2.521,2.373-4.153c0-1.781-0.89-3.115-2.373-4.154c-9.049-6.082-23.14-9.345-33.967-9.345
			c-36.638,0-66.454,29.815-66.454,66.453c0,36.638,29.816,66.452,66.454,66.452c28.034,0,53.399-18.245,62.744-44.647
			C247.925,886.017,249.705,879.936,249.705,875.041L249.705,875.041z"/>
	</g>
</g>
</svg>
