<?xml version="1.0" encoding="utf-8"?>
<!-- Generator: Adobe Illustrator 16.0.0, SVG Export Plug-In . SVG Version: 6.00 Build 0)  -->
<!DOCTYPE svg PUBLIC "-//W3C//DTD SVG 1.1//EN" "http://www.w3.org/Graphics/SVG/1.1/DTD/svg11.dtd">
<svg version="1.1"
	 id="svg2" inkscape:export-ydpi="90" inkscape:export-xdpi="90" inkscape:export-filename="/home/daniel/cc/chaincoin/src/qt/res/icons/configfile.png" sodipodi:docname="configfile.svg" inkscape:version="0.91 r13725" xmlns:dc="http://purl.org/dc/elements/1.1/" xmlns:cc="http://creativecommons.org/ns#" xmlns:rdf="http://www.w3.org/1999/02/22-rdf-syntax-ns#" xmlns:svg="http://www.w3.org/2000/svg" xmlns:sodipodi="http://sodipodi.sourceforge.net/DTD/sodipodi-0.dtd" xmlns:inkscape="http://www.inkscape.org/namespaces/inkscape"
	 xmlns="http://www.w3.org/2000/svg" xmlns:xlink="http://www.w3.org/1999/xlink" x="0px" y="0px" width="128px" height="128px"
	 viewBox="0 0 128 128" enable-background="new 0 0 128 128" xml:space="preserve">
<sodipodi:namedview  units="px" inkscape:window-maximized="1" inkscape:window-y="25" inkscape:window-x="0" inkscape:window-height="718" inkscape:window-width="1366" inkscape:pageshadow="2" inkscape:current-layer="layer1" inkscape:document-units="px" inkscape:pageopacity="0.0" showgrid="false" inkscape:cy="35.202466" inkscape:cx="-168.95203" inkscape:zoom="1.4142136" borderopacity="1.0" bordercolor="#666666" pagecolor="#ffffff" id="base">
	</sodipodi:namedview>
<g id="layer1" transform="translate(0,-924.36216)" inkscape:groupmode="layer" inkscape:label="Ebene 1">
	<g id="text3649" transform="matrix(0.46493127,0,0,0.46493127,4.4887977,558.59728)">
		<path id="path3336" inkscape:connector-curvature="0" fill="#58595B" d="M224.016,853.584l-42.794-42.796
			c-5.075-5.076-15.226-9.328-22.496-9.328H35.824c-7.271,0-13.169,5.899-13.169,13.169v219.467c0,7.27,5.898,13.168,13.169,13.168
			h184.352c7.272,0,13.17-5.898,13.17-13.168V876.08C233.346,868.81,229.092,858.66,224.016,853.584L224.016,853.584z
			 M163.115,820.115c2.332,0.823,4.663,2.057,5.625,3.018l42.933,42.933c0.958,0.96,2.193,3.291,3.016,5.623h-51.574V820.115z
			 M215.786,1029.708H40.213V819.018h105.345v57.062c0,7.27,5.898,13.168,13.168,13.168h57.061V1029.708z M88.496,906.805
			l-30.999,41.288c-1.098,1.508-1.098,3.703,0,5.211l30.999,41.288c1.509,1.92,4.252,2.331,6.172,0.823l6.996-5.213
			c1.921-1.508,2.333-4.251,0.823-6.173l-24.965-33.332l24.965-33.331c1.509-1.921,1.097-4.664-0.823-6.172l-6.996-5.213
			C92.748,904.474,90.005,904.885,88.496,906.805z M198.504,948.094l-30.998-41.288c-1.51-1.92-4.253-2.331-6.173-0.823
			l-6.997,5.213c-1.92,1.508-2.331,4.251-0.823,6.172l24.966,33.331l-24.966,33.332c-1.508,1.922-1.096,4.665,0.823,6.173
			l6.997,5.213c1.92,1.508,4.663,1.096,6.173-0.823l30.998-41.288C199.6,951.797,199.6,949.602,198.504,948.094z M113.461,1011.325
			l8.641,1.374c2.332,0.412,4.664-1.099,5.075-3.567l18.929-113.987c0.412-2.331-1.096-4.663-3.567-5.075l-8.641-1.372
			c-2.332-0.412-4.663,1.097-5.075,3.567l-18.929,113.985C109.483,1008.582,110.992,1010.916,113.461,1011.325L113.461,1011.325z"/>
	</g>
</g>
</svg>
