<?xml version="1.0" encoding="utf-8"?>
<!-- Generator: Adobe Illustrator 16.0.0, SVG Export Plug-In . SVG Version: 6.00 Build 0)  -->
<!DOCTYPE svg PUBLIC "-//W3C//DTD SVG 1.1//EN" "http://www.w3.org/Graphics/SVG/1.1/DTD/svg11.dtd">
<svg version="1.1"
	 id="svg2" inkscape:export-ydpi="90" inkscape:export-xdpi="90" inkscape:export-filename="/home/daniel/cc/chaincoin/src/qt/res/icons/debugwindow.png" sodipodi:docname="debugwindow.svg" inkscape:version="0.91 r13725" xmlns:dc="http://purl.org/dc/elements/1.1/" xmlns:cc="http://creativecommons.org/ns#" xmlns:rdf="http://www.w3.org/1999/02/22-rdf-syntax-ns#" xmlns:svg="http://www.w3.org/2000/svg" xmlns:sodipodi="http://sodipodi.sourceforge.net/DTD/sodipodi-0.dtd" xmlns:inkscape="http://www.inkscape.org/namespaces/inkscape"
	 xmlns="http://www.w3.org/2000/svg" xmlns:xlink="http://www.w3.org/1999/xlink" x="0px" y="0px" width="128px" height="128px"
	 viewBox="0 0 128 128" enable-background="new 0 0 128 128" xml:space="preserve">
<sodipodi:namedview  units="px" inkscape:window-maximized="1" inkscape:window-y="25" inkscape:window-x="0" inkscape:window-height="718" inkscape:window-width="1366" inkscape:pageshadow="2" inkscape:current-layer="layer1" inkscape:document-units="px" inkscape:pageopacity="0.0" showgrid="false" inkscape:cy="76.657824" inkscape:cx="8.5883401" inkscape:zoom="1.4142136" borderopacity="1.0" bordercolor="#666666" pagecolor="#ffffff" id="base">
	</sodipodi:namedview>
<g id="layer1" transform="translate(0,-924.36216)" inkscape:groupmode="layer" inkscape:label="Ebene 1">
	<g id="text3649" transform="matrix(0.50051999,0,0,0.50051999,-0.06655805,525.70039)">
		<path id="path3336" inkscape:connector-curvature="0" fill="#58595B" d="M90.995,922.082c1.896-1.896,1.896-4.814,0-6.712
			l-67.99-67.99c-1.896-1.896-4.815-1.896-6.712,0l-7.295,7.295c-1.896,1.896-1.896,4.814,0,6.712l57.34,57.339l-57.34,57.34
			c-1.896,1.896-1.896,4.815,0,6.712l7.295,7.295c1.896,1.896,4.815,1.896,6.712,0L90.995,922.082z M248.424,988.76
			c0-2.626-2.043-4.669-4.669-4.669H103.689c-2.626,0-4.669,2.043-4.669,4.669v9.338c0,2.626,2.043,4.667,4.669,4.667h140.065
			c2.626,0,4.669-2.041,4.669-4.667V988.76z"/>
	</g>
</g>
</svg>
