<?xml version="1.0" encoding="utf-8"?>
<!-- Generator: Adobe Illustrator 16.0.0, SVG Export Plug-In . SVG Version: 6.00 Build 0)  -->
<!DOCTYPE svg PUBLIC "-//W3C//DTD SVG 1.1//EN" "http://www.w3.org/Graphics/SVG/1.1/DTD/svg11.dtd">
<svg version="1.1"
	 id="svg2" inkscape:export-ydpi="90" inkscape:export-xdpi="90" inkscape:export-filename="/home/daniel/cc/chaincoin/src/qt/res/icons/editpaste.png" sodipodi:docname="editpaste.svg" inkscape:version="0.91 r13725" xmlns:dc="http://purl.org/dc/elements/1.1/" xmlns:cc="http://creativecommons.org/ns#" xmlns:rdf="http://www.w3.org/1999/02/22-rdf-syntax-ns#" xmlns:svg="http://www.w3.org/2000/svg" xmlns:sodipodi="http://sodipodi.sourceforge.net/DTD/sodipodi-0.dtd" xmlns:inkscape="http://www.inkscape.org/namespaces/inkscape"
	 xmlns="http://www.w3.org/2000/svg" xmlns:xlink="http://www.w3.org/1999/xlink" x="0px" y="0px" width="128px" height="128px"
	 viewBox="0 0 128 128" enable-background="new 0 0 128 128" xml:space="preserve">
<sodipodi:namedview  units="px" inkscape:window-maximized="1" inkscape:window-y="25" inkscape:window-x="0" inkscape:window-height="718" inkscape:window-width="1366" inkscape:pageshadow="2" inkscape:current-layer="layer1" inkscape:document-units="px" inkscape:pageopacity="0.0" showgrid="false" inkscape:cy="45.916811" inkscape:cx="-14.898383" inkscape:zoom="2" borderopacity="1.0" bordercolor="#666666" pagecolor="#ffffff" id="base">
	</sodipodi:namedview>
<g id="layer1" transform="translate(0,-924.36216)" inkscape:groupmode="layer" inkscape:label="Ebene 1">
	<g id="text3649" transform="matrix(0.47581215,0,0,0.47581215,3.096044,548.5394)">
		<path id="path3336" inkscape:connector-curvature="0" fill="#58595B" d="M110.43,1029.778V871.654h52.709v57.1
			c0,7.274,5.901,13.176,13.176,13.176h57.1v87.847H110.43z M145.569,832.123c0,2.334-2.059,4.392-4.392,4.392H44.545
			c-2.334,0-4.392-2.059-4.392-4.392v-8.785c0-2.334,2.059-4.392,4.392-4.392h96.632c2.334,0,4.392,2.059,4.392,4.392V832.123z
			 M180.708,924.362v-41.041l41.042,41.041H180.708z M250.987,941.931c0-7.274-4.119-17.294-9.334-22.51l-56.002-56.003
			c-1.511-1.51-3.159-2.745-4.942-3.843v-45.022c0-7.275-5.901-13.177-13.177-13.177H18.191c-7.275,0-13.178,5.903-13.178,13.177
			v184.48c0,7.274,5.903,13.177,13.178,13.177h74.67v21.961c0,7.276,5.903,13.178,13.178,13.178h131.77
			c7.276,0,13.179-5.903,13.179-13.178V941.931L250.987,941.931z"/>
	</g>
</g>
</svg>
