<?xml version="1.0" encoding="utf-8"?>
<!-- Generator: Adobe Illustrator 16.0.0, SVG Export Plug-In . SVG Version: 6.00 Build 0)  -->
<!DOCTYPE svg PUBLIC "-//W3C//DTD SVG 1.1//EN" "http://www.w3.org/Graphics/SVG/1.1/DTD/svg11.dtd">
<svg version="1.1"
	 id="svg2" inkscape:export-ydpi="90" inkscape:export-xdpi="90" inkscape:export-filename="/home/daniel/cc/chaincoin/src/qt/res/icons/edit.png" sodipodi:docname="edit.svg" inkscape:version="0.91 r13725" xmlns:dc="http://purl.org/dc/elements/1.1/" xmlns:cc="http://creativecommons.org/ns#" xmlns:rdf="http://www.w3.org/1999/02/22-rdf-syntax-ns#" xmlns:svg="http://www.w3.org/2000/svg" xmlns:sodipodi="http://sodipodi.sourceforge.net/DTD/sodipodi-0.dtd" xmlns:inkscape="http://www.inkscape.org/namespaces/inkscape"
	 xmlns="http://www.w3.org/2000/svg" xmlns:xlink="http://www.w3.org/1999/xlink" x="0px" y="0px" width="128px" height="128px"
	 viewBox="0 0 128 128" enable-background="new 0 0 128 128" xml:space="preserve">
<sodipodi:namedview  units="px" inkscape:window-maximized="1" inkscape:window-y="25" inkscape:window-x="0" inkscape:window-height="718" inkscape:window-width="1366" inkscape:pageshadow="2" inkscape:current-layer="layer1" inkscape:document-units="px" inkscape:pageopacity="0.0" showgrid="false" inkscape:cy="104.52729" inkscape:cx="0.69509285" inkscape:zoom="2" borderopacity="1.0" bordercolor="#666666" pagecolor="#ffffff" id="base">
	</sodipodi:namedview>
<g id="layer1" transform="translate(0,-924.36216)" inkscape:groupmode="layer" inkscape:label="Ebene 1">
	<g id="text3649" transform="matrix(0.48129936,0,0,0.48129936,2.3936816,543.46725)">
		<path id="path3336" inkscape:connector-curvature="0" fill="#58595B" d="M127.468,972.68h-7.687v-13.178h-13.177v-7.686
			l15.923-15.924l20.865,20.866L127.468,972.68z M187.864,873.85c1.234,1.236,1.098,3.294-0.138,4.53l-48.043,48.041
			c-1.234,1.238-3.293,1.374-4.529,0.138c-1.234-1.235-1.098-3.294,0.138-4.529l48.043-48.042
			C184.569,872.752,186.628,872.615,187.864,873.85z M198.845,955.384c0-1.784-1.1-3.295-2.745-3.981
			c-1.648-0.688-3.431-0.412-4.805,0.96l-8.784,8.786c-0.824,0.824-1.238,1.921-1.238,3.019v17.295
			c0,12.081-9.881,21.962-21.962,21.962H45.111c-12.08,0-21.962-9.881-21.962-21.962V867.261c0-12.08,9.882-21.962,21.962-21.962
			h114.201c2.062,0,4.119,0.275,6.178,0.824c1.51,0.549,3.157,0.137,4.393-1.099l6.724-6.726c1.1-1.098,1.51-2.47,1.238-3.98
			c-0.276-1.373-1.238-2.608-2.471-3.157c-5.081-2.333-10.571-3.432-16.062-3.432H45.111c-21.825,0-39.532,17.707-39.532,39.532
			v114.202c0,21.824,17.707,39.533,39.532,39.533h114.201c21.826,0,39.533-17.709,39.533-39.533V955.384L198.845,955.384z
			 M185.669,854.084l-92.242,92.241v39.531h39.532l92.239-92.241L185.669,854.084z M246.612,872.203
			c5.079-5.079,5.079-13.589,0-18.668l-20.862-20.864c-5.081-5.079-13.59-5.079-18.669,0l-12.629,12.629l39.531,39.531
			L246.612,872.203z"/>
	</g>
</g>
</svg>
