<?xml version="1.0" encoding="utf-8"?>
<!-- Generator: Adobe Illustrator 16.0.0, SVG Export Plug-In . SVG Version: 6.00 Build 0)  -->
<!DOCTYPE svg PUBLIC "-//W3C//DTD SVG 1.1//EN" "http://www.w3.org/Graphics/SVG/1.1/DTD/svg11.dtd">
<svg version="1.1"
	 id="Layer_2" sodipodi:docname="eye.svg" inkscape:version="0.91 r13725" xmlns:dc="http://purl.org/dc/elements/1.1/" xmlns:cc="http://creativecommons.org/ns#" xmlns:rdf="http://www.w3.org/1999/02/22-rdf-syntax-ns#" xmlns:svg="http://www.w3.org/2000/svg" xmlns:sodipodi="http://sodipodi.sourceforge.net/DTD/sodipodi-0.dtd" xmlns:inkscape="http://www.inkscape.org/namespaces/inkscape"
	 xmlns="http://www.w3.org/2000/svg" xmlns:xlink="http://www.w3.org/1999/xlink" x="0px" y="0px" width="128px" height="128px"
	 viewBox="0 0 128 128" enable-background="new 0 0 128 128" xml:space="preserve">
<sodipodi:namedview  inkscape:window-maximized="1" inkscape:window-y="25" inkscape:window-x="0" inkscape:window-height="718" inkscape:window-width="1366" inkscape:pageshadow="2" inkscape:current-layer="Layer_2" inkscape:pageopacity="0" objecttolerance="10" gridtolerance="10" guidetolerance="10" showgrid="false" inkscape:cy="64" inkscape:cx="64" inkscape:zoom="1.84375" borderopacity="1" bordercolor="#666666" pagecolor="#ffffff" id="namedview15">
	</sodipodi:namedview>
<g id="g3371" transform="translate(10.792,18.887)">
	<g id="g7">
		<path id="path9" inkscape:connector-curvature="0" fill="#58595B" d="M100.042,42.567c-0.193-0.299-4.895-7.426-12.952-14.58
			c-10.769-9.56-22.483-14.614-33.881-14.614c-11.398,0-23.114,5.054-33.883,14.614C11.271,35.141,6.57,42.268,6.373,42.567
			l-1.665,2.546l1.665,2.546c0.197,0.3,4.897,7.427,12.955,14.58c10.767,9.56,22.482,14.614,33.881,14.614
			c11.396,0,23.112-5.055,33.881-14.614c8.058-7.153,12.759-14.28,12.953-14.58l1.665-2.546L100.042,42.567z M85.285,46.754
			c-0.134,0.191-3.353,4.78-8.872,9.387c-7.374,6.156-15.398,9.41-23.204,9.41c-7.807,0-15.832-3.254-23.205-9.41
			c-5.52-4.606-8.738-9.195-8.873-9.387l-1.141-1.641l1.141-1.64c0.135-0.193,3.354-4.782,8.872-9.388
			c7.374-6.155,15.398-9.41,23.206-9.41c7.806,0,15.83,3.255,23.204,9.41c5.52,4.606,8.738,9.195,8.872,9.388l1.141,1.64
			L85.285,46.754z"/>
	</g>
	<path id="path11" inkscape:connector-curvature="0" fill="#58595B" d="M70.026,45.681c0,9.289-7.53,16.818-16.818,16.818
		S36.39,54.97,36.39,45.681c0-9.287,7.53-16.817,16.818-16.817S70.026,36.393,70.026,45.681z M53.208,35.134
		c-5.825,0-10.548,4.723-10.548,10.547c0,5.826,4.723,10.549,10.548,10.549s10.548-4.723,10.548-10.549
		C63.756,39.857,59.033,35.134,53.208,35.134z"/>
	<circle id="circle13" fill="#58595B" cx="53.208" cy="45.682" r="6.017"/>
</g>
</svg>
