<?xml version="1.0" encoding="utf-8"?>
<!-- Generator: Adobe Illustrator 16.0.0, SVG Export Plug-In . SVG Version: 6.00 Build 0)  -->
<!DOCTYPE svg PUBLIC "-//W3C//DTD SVG 1.1//EN" "http://www.w3.org/Graphics/SVG/1.1/DTD/svg11.dtd">
<svg version="1.1" id="Layer_2" xmlns="http://www.w3.org/2000/svg" xmlns:xlink="http://www.w3.org/1999/xlink" x="0px" y="0px"
	 width="128px" height="128px" viewBox="0 0 128 128" enable-background="new 0 0 128 128" xml:space="preserve">
<g>
	<path fill="#58595B" d="M36.768,31.523L11.662,96.477h13.806l5.319-14.754h25.765l5.628,14.754h14.157L50.528,31.523H36.768z
		 M34.789,70.779l8.705-24.104l8.881,24.104H34.789z"/>
	<path fill="#58595B" d="M111.9,64.059h-10.438V53.621c0-2.451-1.985-4.438-4.438-4.438c-2.451,0-4.438,1.986-4.438,4.438v10.438
		H82.15c-2.451,0-4.438,1.986-4.438,4.438s1.986,4.438,4.438,4.438h10.438v10.438c0,2.451,1.986,4.438,4.438,4.438
		c2.453,0,4.438-1.985,4.438-4.438V72.934H111.9c2.451,0,4.438-1.985,4.438-4.438S114.352,64.059,111.9,64.059z"/>
</g>
</svg>
