<?xml version="1.0" encoding="utf-8"?>
<!-- Generator: Adobe Illustrator 16.0.0, SVG Export Plug-In . SVG Version: 6.00 Build 0)  -->
<!DOCTYPE svg PUBLIC "-//W3C//DTD SVG 1.1//EN" "http://www.w3.org/Graphics/SVG/1.1/DTD/svg11.dtd">
<svg version="1.1" id="Layer_1" xmlns="http://www.w3.org/2000/svg" xmlns:xlink="http://www.w3.org/1999/xlink" x="0px" y="0px"
	 width="256px" height="256px" viewBox="0 0 256 256" enable-background="new 0 0 256 256" xml:space="preserve">
<g>
	<path fill="#58595B" d="M56.022,242.482c-15.044,0-27.284-12.238-27.284-27.281V40.8c0-15.043,12.24-27.282,27.284-27.282H199.98
		c15.043,0,27.281,12.239,27.281,27.282v174.401c0,15.043-12.238,27.281-27.281,27.281H56.022z"/>
	<g>
		<path fill="#FFFFFF" d="M199.98,18.518c12.306,0,22.281,9.977,22.281,22.282v174.401c0,12.304-9.976,22.281-22.281,22.281H56.022
			c-12.308,0-22.284-9.978-22.284-22.281V40.8c0-12.306,9.976-22.282,22.284-22.282H199.98 M199.98,8.518H56.022
			C38.221,8.518,23.738,23,23.738,40.8v174.401c0,17.8,14.482,32.281,32.284,32.281H199.98c17.799,0,32.28-14.481,32.28-32.281V40.8
			C232.262,23,217.779,8.518,199.98,8.518L199.98,8.518z"/>
	</g>
</g>
<g>
	<g>
		<g>
			<path fill="#58595B" d="M33.738,218.615c0,12.305,9.977,22.281,22.284,22.281H199.98c12.307,0,22.281-9.979,22.281-22.281V44.214
				c0-12.306-9.977-22.282-22.281-22.282H56.022c-12.308,0-22.284,9.976-22.284,22.282V218.615z"/>
		</g>
	</g>
	<g>
		<g>
			<g>
				<rect x="110.713" y="54.252" fill="#FFFFFF" width="85.326" height="24.804"/>
			</g>
		</g>
		<g>
			<g>
				<rect x="110.713" y="97.426" fill="#FFFFFF" width="85.326" height="24.803"/>
			</g>
		</g>
		<g>
			<g>
				<rect x="110.713" y="140.602" fill="#FFFFFF" width="85.326" height="24.804"/>
			</g>
		</g>
		<g>
			<g>
				<rect x="110.713" y="183.773" fill="#FFFFFF" width="85.326" height="24.805"/>
			</g>
		</g>
		<g>
			<g>
				<rect x="59.964" y="54.252" fill="#FFFFFF" width="24.805" height="24.804"/>
			</g>
		</g>
		<g>
			<g>
				<rect x="59.964" y="97.426" fill="#FFFFFF" width="24.805" height="24.803"/>
			</g>
		</g>
		<g>
			<g>
				<rect x="59.964" y="140.602" fill="#FFFFFF" width="24.805" height="24.804"/>
			</g>
		</g>
		<g>
			<g>
				<rect x="59.964" y="183.773" fill="#FFFFFF" width="24.805" height="24.805"/>
			</g>
		</g>
	</g>
</g>
</svg>
