<?xml version="1.0" encoding="utf-8"?>
<!-- Generator: Adobe Illustrator 16.0.0, SVG Export Plug-In . SVG Version: 6.00 Build 0)  -->
<!DOCTYPE svg PUBLIC "-//W3C//DTD SVG 1.1//EN" "http://www.w3.org/Graphics/SVG/1.1/DTD/svg11.dtd">
<svg version="1.1"
	 id="svg2" inkscape:export-ydpi="90" inkscape:export-xdpi="90" inkscape:export-filename="/home/daniel/cc/chaincoin/src/qt/res/icons/key.png" sodipodi:docname="key.svg" inkscape:version="0.91 r13725" xmlns:dc="http://purl.org/dc/elements/1.1/" xmlns:cc="http://creativecommons.org/ns#" xmlns:rdf="http://www.w3.org/1999/02/22-rdf-syntax-ns#" xmlns:svg="http://www.w3.org/2000/svg" xmlns:sodipodi="http://sodipodi.sourceforge.net/DTD/sodipodi-0.dtd" xmlns:inkscape="http://www.inkscape.org/namespaces/inkscape"
	 xmlns="http://www.w3.org/2000/svg" xmlns:xlink="http://www.w3.org/1999/xlink" x="0px" y="0px" width="128px" height="128px"
	 viewBox="0 0 128 128" enable-background="new 0 0 128 128" xml:space="preserve">
<sodipodi:namedview  units="px" inkscape:window-maximized="1" inkscape:window-y="25" inkscape:window-x="0" inkscape:window-height="718" inkscape:window-width="1366" inkscape:pageshadow="2" inkscape:current-layer="layer1" inkscape:document-units="px" inkscape:pageopacity="0.0" showgrid="false" inkscape:cy="94.808643" inkscape:cx="22.974938" inkscape:zoom="1.979899" borderopacity="1.0" bordercolor="#666666" pagecolor="#ffffff" id="base">
	</sodipodi:namedview>
<g id="layer1" transform="translate(0,-924.36216)" inkscape:groupmode="layer" inkscape:label="Ebene 1">
	<g id="text3419" transform="matrix(0.49360413,0,0,0.49360413,0.81867185,532.09321)">
		<path id="path3336" inkscape:connector-curvature="0" fill="#58595B" d="M167.414,924.161l55.784,88.933l-7.68,34.765
			l-42.849-9.702l4.448-19.402l-14.553-3.235l6.871-31.934l-19.403-4.044l2.829-13.744l-25.467-6.064l3.234-14.148l-8.488,4.851
			l-2.022-0.406l-4.042-7.277c-4.043,0.54-7.95,0.811-11.723,0.811c-9.971,0-19.673-1.887-29.106-5.66
			c-13.205-5.66-23.58-14.688-31.127-27.085c-7.546-11.588-11.319-23.985-11.319-37.191c0-5.389,0.674-10.914,2.022-16.573
			c4.311-19.134,14.687-33.956,31.126-44.467c11.589-7.815,23.986-11.722,37.191-11.722c5.39,0,10.915,0.674,16.574,2.021
			c19.404,4.312,34.36,14.688,44.872,31.127c7.275,11.858,10.913,24.389,10.913,37.594c0,1.348,0,2.696,0,4.043
			c-0.807,14.552-5.524,27.623-14.148,39.212L167.414,924.161z M90.608,851.397c3.773-2.426,6.064-5.659,6.872-9.702
			c0.269-1.077,0.405-2.156,0.405-3.234c0-2.965-0.809-5.659-2.426-8.085c-2.156-3.503-5.39-5.794-9.702-6.872
			c-1.077-0.269-2.29-0.405-3.638-0.405c-2.695,0-5.255,0.809-7.68,2.426c-3.504,2.426-5.659,5.659-6.468,9.702
			c-0.539,1.347-0.809,2.56-0.809,3.638c0,2.695,0.809,5.255,2.426,7.68c2.156,3.504,5.39,5.659,9.702,6.468
			c1.078,0.539,2.155,0.809,3.234,0.809C85.487,853.822,88.182,853.013,90.608,851.397z"/>
	</g>
</g>
</svg>
