<?xml version="1.0" encoding="utf-8"?>
<!-- Generator: Adobe Illustrator 16.0.0, SVG Export Plug-In . SVG Version: 6.00 Build 0)  -->
<!DOCTYPE svg PUBLIC "-//W3C//DTD SVG 1.1//EN" "http://www.w3.org/Graphics/SVG/1.1/DTD/svg11.dtd">
<svg version="1.1"
	 id="svg2" inkscape:export-ydpi="90" inkscape:export-xdpi="90" inkscape:export-filename="/home/daniel/cc/chaincoin/src/qt/res/icons/lock_closed.png" sodipodi:docname="lock_closed.svg" inkscape:version="0.91 r13725" xmlns:dc="http://purl.org/dc/elements/1.1/" xmlns:cc="http://creativecommons.org/ns#" xmlns:rdf="http://www.w3.org/1999/02/22-rdf-syntax-ns#" xmlns:svg="http://www.w3.org/2000/svg" xmlns:sodipodi="http://sodipodi.sourceforge.net/DTD/sodipodi-0.dtd" xmlns:inkscape="http://www.inkscape.org/namespaces/inkscape"
	 xmlns="http://www.w3.org/2000/svg" xmlns:xlink="http://www.w3.org/1999/xlink" x="0px" y="0px" width="128px" height="128px"
	 viewBox="0 0 128 128" enable-background="new 0 0 128 128" xml:space="preserve">
<sodipodi:namedview  units="px" inkscape:window-maximized="1" inkscape:window-y="25" inkscape:window-x="0" inkscape:window-height="718" inkscape:window-width="1366" inkscape:pageshadow="2" inkscape:current-layer="layer1" inkscape:document-units="px" inkscape:pageopacity="0.0" showgrid="false" inkscape:cy="84.591935" inkscape:cx="24.581819" inkscape:zoom="2.8284271" borderopacity="1.0" bordercolor="#666666" pagecolor="#ffffff" id="base">
	</sodipodi:namedview>
<g id="layer1" transform="translate(0,-924.36216)" inkscape:groupmode="layer" inkscape:label="Ebene 1">
	<g id="text3649" transform="matrix(0.48162121,0,0,0.48162121,2.3524839,543.16975)">
		<path id="path3336" inkscape:connector-curvature="0" fill="#58595B" d="M199.193,907.715h25.409v136.252H31.397V907.715h25.41
			v-31.982c0-19.861,7.011-36.655,21.03-50.382s30.813-20.591,50.382-20.591s36.218,6.864,49.945,20.591
			c14.019,13.727,21.029,30.521,21.029,50.382V907.715z M79.589,875.732v31.982h97.262v-31.982c0-13.435-4.822-24.826-14.459-34.172
			c-9.637-9.638-21.175-14.458-34.61-14.458c-13.143,0-24.535,4.82-34.172,14.458C84.262,850.907,79.589,862.297,79.589,875.732z"/>
	</g>
</g>
</svg>
