<?xml version="1.0" encoding="utf-8"?>
<!-- Generator: Adobe Illustrator 16.0.0, SVG Export Plug-In . SVG Version: 6.00 Build 0)  -->
<!DOCTYPE svg PUBLIC "-//W3C//DTD SVG 1.1//EN" "http://www.w3.org/Graphics/SVG/1.1/DTD/svg11.dtd">
<svg version="1.1"
	 id="svg2" inkscape:export-ydpi="90" inkscape:export-xdpi="90" inkscape:export-filename="/home/daniel/cc/chaincoin/src/qt/res/icons/new.png" sodipodi:docname="new.svg" inkscape:version="0.91 r13725" xmlns:dc="http://purl.org/dc/elements/1.1/" xmlns:cc="http://creativecommons.org/ns#" xmlns:rdf="http://www.w3.org/1999/02/22-rdf-syntax-ns#" xmlns:svg="http://www.w3.org/2000/svg" xmlns:sodipodi="http://sodipodi.sourceforge.net/DTD/sodipodi-0.dtd" xmlns:inkscape="http://www.inkscape.org/namespaces/inkscape"
	 xmlns="http://www.w3.org/2000/svg" xmlns:xlink="http://www.w3.org/1999/xlink" x="0px" y="0px" width="128px" height="128px"
	 viewBox="0 0 128 128" enable-background="new 0 0 128 128" xml:space="preserve">
<sodipodi:namedview  units="px" inkscape:window-maximized="1" inkscape:window-y="25" inkscape:window-x="0" inkscape:window-height="718" inkscape:window-width="1366" inkscape:pageshadow="2" inkscape:current-layer="layer1" inkscape:document-units="px" inkscape:pageopacity="0.0" showgrid="false" inkscape:cy="95.679123" inkscape:cx="-117.68339" inkscape:zoom="1.4142136" borderopacity="1.0" bordercolor="#666666" pagecolor="#ffffff" id="base">
	</sodipodi:namedview>
<g id="layer1" transform="translate(0,-924.36216)" inkscape:groupmode="layer" inkscape:label="Ebene 1">
	<g id="text3649" transform="matrix(0.48279397,0,0,0.48279397,2.2023721,542.08568)">
		<path id="path3336" inkscape:connector-curvature="0" fill="#58595B" d="M224.017,853.584l-42.795-42.796
			c-5.077-5.075-15.227-9.328-22.497-9.328H35.824c-7.271,0-13.169,5.898-13.169,13.168v219.467c0,7.27,5.898,13.168,13.169,13.168
			h184.352c7.27,0,13.168-5.898,13.168-13.168V876.08C233.344,868.81,229.092,858.659,224.017,853.584z M163.115,820.115
			c2.332,0.823,4.664,2.058,5.623,3.018l42.935,42.933c0.959,0.96,2.195,3.292,3.018,5.624h-51.576V820.115z M215.787,1029.706
			H40.213V819.017h105.344v57.062c0,7.27,5.898,13.168,13.168,13.168h57.061V1029.706z"/>
	</g>
</g>
</svg>
