<?xml version="1.0" encoding="utf-8"?>
<!-- Generator: Adobe Illustrator 16.0.0, SVG Export Plug-In . SVG Version: 6.00 Build 0)  -->
<!DOCTYPE svg PUBLIC "-//W3C//DTD SVG 1.1//EN" "http://www.w3.org/Graphics/SVG/1.1/DTD/svg11.dtd">
<svg version="1.1"
	 id="svg2" inkscape:export-ydpi="90" inkscape:export-xdpi="90" inkscape:export-filename="/home/daniel/cc/chaincoin/src/qt/res/icons/notsynced.png" sodipodi:docname="notsynced.svg" inkscape:version="0.91 r13725" xmlns:dc="http://purl.org/dc/elements/1.1/" xmlns:cc="http://creativecommons.org/ns#" xmlns:rdf="http://www.w3.org/1999/02/22-rdf-syntax-ns#" xmlns:svg="http://www.w3.org/2000/svg" xmlns:sodipodi="http://sodipodi.sourceforge.net/DTD/sodipodi-0.dtd" xmlns:inkscape="http://www.inkscape.org/namespaces/inkscape"
	 xmlns="http://www.w3.org/2000/svg" xmlns:xlink="http://www.w3.org/1999/xlink" x="0px" y="0px" width="128px" height="128px"
	 viewBox="0 0 128 128" enable-background="new 0 0 128 128" xml:space="preserve">
<sodipodi:namedview  units="px" inkscape:window-maximized="1" inkscape:window-y="25" inkscape:window-x="0" inkscape:window-height="718" inkscape:window-width="1366" inkscape:pageshadow="2" inkscape:current-layer="layer1" inkscape:document-units="px" inkscape:pageopacity="0.0" showgrid="false" inkscape:cy="101.94714" inkscape:cx="-68.937379" inkscape:zoom="1.4142136" borderopacity="1.0" bordercolor="#666666" pagecolor="#ffffff" id="base">
	</sodipodi:namedview>
<g id="layer1" transform="translate(0,-924.36216)" inkscape:groupmode="layer" inkscape:label="Ebene 1">
	<g id="text3649" transform="matrix(0.47831052,0,0,0.47831052,2.7762522,546.22999)">
		<path id="path3336" inkscape:connector-curvature="0" fill="#58595B" d="M245.036,949.564c0-2.679-2.205-5.041-5.041-5.041
			h-30.241c-2.364,0-3.94,1.419-4.727,3.624c-2.679,6.301-4.567,12.287-8.349,18.428c-14.649,23.945-40.64,38.435-68.678,38.435
			c-20.32,0-40.01-7.875-54.816-21.738l21.58-21.579c1.891-1.891,2.993-4.412,2.993-7.089c0-5.515-4.568-10.082-10.081-10.082
			H17.108c-5.514,0-10.082,4.567-10.082,10.082v70.567c0,5.515,4.568,10.082,10.082,10.082c2.678,0,5.197-1.103,7.088-2.993
			l20.32-20.319c22.368,21.264,52.139,33.394,82.855,33.394c58.124,0,104.119-38.906,117.508-94.669
			C245.036,950.352,245.036,949.878,245.036,949.564L245.036,949.564z M248.974,823.55c0-5.514-4.569-10.081-10.082-10.081
			c-2.679,0-5.198,1.102-7.089,2.992l-20.476,20.32c-22.367-21.107-52.453-33.394-83.327-33.394
			c-58.124,0-104.592,38.749-118.138,94.669c0,0.314,0,0.787,0,1.103c0,2.678,2.205,5.04,5.04,5.04h31.346
			c2.363,0,3.938-1.418,4.726-3.623c2.679-6.301,4.568-12.286,8.348-18.429c14.649-23.943,40.64-38.434,68.678-38.434
			c20.319,0,40.009,7.718,54.975,21.58l-21.738,21.737c-1.891,1.891-2.993,4.411-2.993,7.089c0,5.513,4.567,10.081,10.08,10.081
			h70.569c5.513,0,10.082-4.568,10.082-10.081V823.55z"/>
	</g>
</g>
</svg>
