<?xml version="1.0" encoding="utf-8"?>
<!-- Generator: Adobe Illustrator 16.0.0, SVG Export Plug-In . SVG Version: 6.00 Build 0)  -->
<!DOCTYPE svg PUBLIC "-//W3C//DTD SVG 1.1//EN" "http://www.w3.org/Graphics/SVG/1.1/DTD/svg11.dtd">
<svg version="1.1"
	 id="svg2" inkscape:export-ydpi="90" inkscape:export-xdpi="90" inkscape:export-filename="/home/daniel/cc/chaincoin/src/qt/res/icons/open.png" sodipodi:docname="open.svg" inkscape:version="0.91 r13725" xmlns:dc="http://purl.org/dc/elements/1.1/" xmlns:cc="http://creativecommons.org/ns#" xmlns:rdf="http://www.w3.org/1999/02/22-rdf-syntax-ns#" xmlns:svg="http://www.w3.org/2000/svg" xmlns:sodipodi="http://sodipodi.sourceforge.net/DTD/sodipodi-0.dtd" xmlns:inkscape="http://www.inkscape.org/namespaces/inkscape"
	 xmlns="http://www.w3.org/2000/svg" xmlns:xlink="http://www.w3.org/1999/xlink" x="0px" y="0px" width="128px" height="128px"
	 viewBox="0 0 128 128" enable-background="new 0 0 128 128" xml:space="preserve">
<sodipodi:namedview  units="px" inkscape:window-maximized="1" inkscape:window-y="25" inkscape:window-x="0" inkscape:window-height="718" inkscape:window-width="1366" inkscape:pageshadow="2" inkscape:current-layer="layer1" inkscape:document-units="px" inkscape:pageopacity="0.0" showgrid="false" inkscape:cy="68.862889" inkscape:cx="48.179916" inkscape:zoom="1.4142136" borderopacity="1.0" bordercolor="#666666" pagecolor="#ffffff" id="base">
	</sodipodi:namedview>
<g id="layer1" transform="translate(0,-924.36216)" inkscape:groupmode="layer" inkscape:label="Ebene 1">
	<g id="text3354" transform="matrix(0.48593827,0,0,0.48593827,1.799902,539.17924)">
		<path id="path3378" inkscape:connector-curvature="0" fill="#58595B" d="M234.005,937.059c0,1.925-1.154,3.593-2.307,5.004
			l-37.709,46.555c-4.361,5.388-13.34,9.62-20.137,9.62H34.307c-2.822,0-6.798-0.898-6.798-4.488c0-1.925,1.155-3.593,2.309-5.133
			l37.708-46.555c4.36-5.259,13.338-9.494,20.136-9.494h139.546C230.03,932.57,234.005,933.47,234.005,937.059z M87.663,916.154
			c-11.671,0-25.395,6.541-32.834,15.648l-32.834,40.402V862.799c0-6.798,5.514-12.313,12.312-12.313H75.35
			c6.798,0,12.312,5.515,12.312,12.313v8.208c0,6.798,5.515,12.312,12.313,12.312h73.877c6.797,0,12.313,5.516,12.313,12.313v20.521
			H87.663z M250.424,937.059c0-3.079-0.643-6.027-1.925-8.722c-3.846-8.207-12.568-12.183-21.29-12.183h-24.626v-20.521
			c0-15.776-12.954-28.73-28.73-28.73H104.08v-4.104c0-15.776-12.954-28.73-28.73-28.73H34.307c-15.776,0-28.73,12.954-28.73,28.73
			v123.127c0,15.776,12.954,28.73,28.73,28.73h139.545c11.543,0,25.523-6.668,32.834-15.647l37.838-46.557
			C247.984,948.09,250.424,942.703,250.424,937.059L250.424,937.059z"/>
	</g>
</g>
</svg>
