<?xml version="1.0" encoding="utf-8"?>
<!-- Generator: Adobe Illustrator 16.0.0, SVG Export Plug-In . SVG Version: 6.00 Build 0)  -->
<!DOCTYPE svg PUBLIC "-//W3C//DTD SVG 1.1//EN" "http://www.w3.org/Graphics/SVG/1.1/DTD/svg11.dtd">
<svg version="1.1"
	 id="svg2" inkscape:export-ydpi="90" inkscape:export-xdpi="90" inkscape:export-filename="/home/daniel/cc/chaincoin/src/qt/res/icons/qrcode.png" sodipodi:docname="qrcode.svg" inkscape:version="0.91 r13725" xmlns:dc="http://purl.org/dc/elements/1.1/" xmlns:cc="http://creativecommons.org/ns#" xmlns:rdf="http://www.w3.org/1999/02/22-rdf-syntax-ns#" xmlns:svg="http://www.w3.org/2000/svg" xmlns:sodipodi="http://sodipodi.sourceforge.net/DTD/sodipodi-0.dtd" xmlns:inkscape="http://www.inkscape.org/namespaces/inkscape"
	 xmlns="http://www.w3.org/2000/svg" xmlns:xlink="http://www.w3.org/1999/xlink" x="0px" y="0px" width="128px" height="128px"
	 viewBox="0 0 128 128" enable-background="new 0 0 128 128" xml:space="preserve">
<sodipodi:namedview  units="px" inkscape:window-maximized="1" inkscape:window-y="25" inkscape:window-x="0" inkscape:window-height="718" inkscape:window-width="1366" inkscape:pageshadow="2" inkscape:current-layer="layer1" inkscape:document-units="px" inkscape:pageopacity="0.0" showgrid="false" inkscape:cy="154.33315" inkscape:cx="-102.95606" inkscape:zoom="1.4142136" borderopacity="1.0" bordercolor="#666666" pagecolor="#ffffff" id="base">
	</sodipodi:namedview>
<g id="layer1" transform="translate(0,-924.36216)" inkscape:groupmode="layer" inkscape:label="Ebene 1">
	<g id="text3649" transform="matrix(0.47382707,0,0,0.47382707,3.3501359,550.37433)">
		<path id="path3336" inkscape:connector-curvature="0" fill="#58595B" d="M72.712,979.651H50.597v22.115h22.116V979.651z
			 M72.712,846.959H50.597v22.116h22.116V846.959z M205.403,846.959h-22.115v22.116h22.115V846.959z M28.482,1023.707v-66.171
			h66.345v66.171H28.482z M28.482,891.19v-66.346h66.345v66.346H28.482z M161.174,891.19v-66.346h66.344v66.346H161.174z
			 M116.943,935.42H6.367v110.575h110.575V935.42z M205.403,1023.88h-22.115v22.115h22.115V1023.88z M249.633,1023.88h-22.115
			v22.115h22.115V1023.88z M249.633,935.42h-22.115v22.117h-22.115V935.42h-66.346v110.575h22.117v-66.344h22.115v22.115h66.344
			V935.42z M116.943,802.73H6.367v110.575h110.575V802.73z M249.633,802.73H139.057v110.575h110.575V802.73z"/>
	</g>
</g>
</svg>
