<?xml version="1.0" encoding="utf-8"?>
<!-- Generator: Adobe Illustrator 16.0.0, SVG Export Plug-In . SVG Version: 6.00 Build 0)  -->
<!DOCTYPE svg PUBLIC "-//W3C//DTD SVG 1.1//EN" "http://www.w3.org/Graphics/SVG/1.1/DTD/svg11.dtd">
<svg version="1.1"
	 id="svg2993" inkscape:export-ydpi="90" inkscape:export-xdpi="90" inkscape:export-filename="/store/orion/projects/bitcoin/questionmark.png" sodipodi:docname="questionmark.svg" inkscape:version="0.48.0 r9654" xmlns:dc="http://purl.org/dc/elements/1.1/" xmlns:cc="http://creativecommons.org/ns#" xmlns:rdf="http://www.w3.org/1999/02/22-rdf-syntax-ns#" xmlns:svg="http://www.w3.org/2000/svg" xmlns:sodipodi="http://sodipodi.sourceforge.net/DTD/sodipodi-0.dtd" xmlns:inkscape="http://www.inkscape.org/namespaces/inkscape"
	 xmlns="http://www.w3.org/2000/svg" xmlns:xlink="http://www.w3.org/1999/xlink" x="0px" y="0px" width="16px" height="16px"
	 viewBox="0 0 16 16" enable-background="new 0 0 16 16" xml:space="preserve">
<sodipodi:namedview  inkscape:window-maximized="1" inkscape:window-y="25" inkscape:window-x="0" inkscape:window-height="1127" inkscape:window-width="1920" inkscape:pageshadow="2" inkscape:current-layer="layer2" inkscape:document-units="px" inkscape:pageopacity="0.0" showgrid="true" inkscape:cy="7.6382159" inkscape:cx="10.789648" inkscape:zoom="1" borderopacity="1.0" bordercolor="#666666" pagecolor="#ffffff" id="base" inkscape:grid-bbox="true">
	</sodipodi:namedview>
<g>
	<path fill="#58595B" d="M3.838,5.174c0.1-1.143,0.529-2.05,1.289-2.721S6.85,1.448,8.018,1.448c1.236,0,2.238,0.329,3,0.988
		s1.145,1.499,1.145,2.519c0,0.574-0.131,1.107-0.393,1.6c-0.26,0.492-0.752,1.037-1.473,1.635c-0.723,0.598-1.166,1.075-1.33,1.428
		c-0.164,0.355-0.246,0.945-0.246,1.771H7.173c0-1.09,0.126-1.889,0.379-2.395c0.252-0.508,0.717-1.048,1.394-1.623
		c0.678-0.574,1.098-1.016,1.264-1.323c0.164-0.308,0.246-0.634,0.246-0.979c0-0.674-0.223-1.229-0.67-1.666
		C9.34,2.966,8.756,2.749,8.035,2.749c-1.408,0-2.235,0.809-2.481,2.426H3.838z M8.906,14.553H7.103V12.75h1.804V14.553z"/>
</g>
</svg>
