<?xml version="1.0" encoding="utf-8"?>
<!-- Generator: Adobe Illustrator 16.0.0, SVG Export Plug-In . SVG Version: 6.00 Build 0)  -->
<!DOCTYPE svg PUBLIC "-//W3C//DTD SVG 1.1//EN" "http://www.w3.org/Graphics/SVG/1.1/DTD/svg11.dtd">
<svg version="1.1"
	 id="svg2" inkscape:export-ydpi="90" inkscape:export-xdpi="90" inkscape:export-filename="/home/daniel/cc/chaincoin/src/qt/res/icons/quit.png" sodipodi:docname="quit.svg" inkscape:version="0.91 r13725" xmlns:dc="http://purl.org/dc/elements/1.1/" xmlns:cc="http://creativecommons.org/ns#" xmlns:rdf="http://www.w3.org/1999/02/22-rdf-syntax-ns#" xmlns:svg="http://www.w3.org/2000/svg" xmlns:sodipodi="http://sodipodi.sourceforge.net/DTD/sodipodi-0.dtd" xmlns:inkscape="http://www.inkscape.org/namespaces/inkscape"
	 xmlns="http://www.w3.org/2000/svg" xmlns:xlink="http://www.w3.org/1999/xlink" x="0px" y="0px" width="128px" height="128px"
	 viewBox="0 0 128 128" enable-background="new 0 0 128 128" xml:space="preserve">
<sodipodi:namedview  units="px" inkscape:window-maximized="1" inkscape:window-y="25" inkscape:window-x="0" inkscape:window-height="718" inkscape:window-width="1366" inkscape:pageshadow="2" inkscape:current-layer="layer1" inkscape:document-units="px" inkscape:pageopacity="0.0" showgrid="false" inkscape:cy="24.246104" inkscape:cx="-179.17244" inkscape:zoom="1" borderopacity="1.0" bordercolor="#666666" pagecolor="#ffffff" id="base">
	</sodipodi:namedview>
<g id="layer1" transform="translate(0,-924.36216)" inkscape:groupmode="layer" inkscape:label="Ebene 1">
	<g id="text3649" transform="matrix(0.46528943,0,0,0.46528943,4.4429519,558.26622)">
		<path id="path3336" inkscape:connector-curvature="0" fill="#58595B" d="M249.661,998.506c0-5.119-2.048-10.24-5.734-13.928
			l-60.215-60.215l60.215-60.216c3.686-3.687,5.734-8.808,5.734-13.928s-2.048-10.241-5.734-13.928l-27.856-27.855
			c-3.686-3.687-8.807-5.735-13.928-5.735s-10.24,2.048-13.928,5.735L128,868.653l-60.216-60.216
			c-3.687-3.687-8.807-5.735-13.928-5.735c-5.12,0-10.24,2.048-13.928,5.735l-27.855,27.856c-3.687,3.685-5.735,8.807-5.735,13.927
			s2.048,10.241,5.735,13.928l60.216,60.216l-60.216,60.215c-3.687,3.688-5.735,8.809-5.735,13.928
			c0,5.121,2.048,10.242,5.735,13.928l27.855,27.856c3.688,3.686,8.808,5.734,13.928,5.734c5.121,0,10.241-2.049,13.928-5.734
			L128,980.074l60.215,60.215c3.688,3.686,8.807,5.734,13.928,5.734s10.242-2.049,13.928-5.734l27.856-27.856
			C247.612,1008.749,249.661,1003.628,249.661,998.506L249.661,998.506z"/>
	</g>
</g>
</svg>
