<?xml version="1.0" encoding="utf-8"?>
<!-- Generator: Adobe Illustrator 16.0.0, SVG Export Plug-In . SVG Version: 6.00 Build 0)  -->
<!DOCTYPE svg PUBLIC "-//W3C//DTD SVG 1.1//EN" "http://www.w3.org/Graphics/SVG/1.1/DTD/svg11.dtd">
<svg version="1.1"
	 id="svg2" inkscape:export-ydpi="90" inkscape:export-xdpi="90" inkscape:export-filename="/home/daniel/cc/chaincoin/src/qt/res/icons/transaction_conflicted.png" sodipodi:docname="transaction_conflicted.svg" inkscape:version="0.91 r13725" xmlns:dc="http://purl.org/dc/elements/1.1/" xmlns:cc="http://creativecommons.org/ns#" xmlns:rdf="http://www.w3.org/1999/02/22-rdf-syntax-ns#" xmlns:svg="http://www.w3.org/2000/svg" xmlns:sodipodi="http://sodipodi.sourceforge.net/DTD/sodipodi-0.dtd" xmlns:inkscape="http://www.inkscape.org/namespaces/inkscape"
	 xmlns="http://www.w3.org/2000/svg" xmlns:xlink="http://www.w3.org/1999/xlink" x="0px" y="0px" width="128px" height="128px"
	 viewBox="0 0 128 128" enable-background="new 0 0 128 128" xml:space="preserve">
<sodipodi:namedview  units="px" inkscape:window-maximized="1" inkscape:window-y="25" inkscape:window-x="0" inkscape:window-height="718" inkscape:window-width="1366" inkscape:pageshadow="2" inkscape:current-layer="layer1" inkscape:document-units="px" inkscape:pageopacity="0.0" showgrid="false" inkscape:cy="-38.412482" inkscape:cx="-199.05079" inkscape:zoom="1" borderopacity="1.0" bordercolor="#666666" pagecolor="#ffffff" id="base">
	</sodipodi:namedview>
<g id="layer1" transform="translate(0,-924.36216)" inkscape:groupmode="layer" inkscape:label="Ebene 1">
	<g id="text3649" transform="matrix(0.47956207,0,0,0.47956207,2.6160551,545.07313)">
		<path id="path3336" inkscape:connector-curvature="0" fill="#58595B" d="M145.631,999.152c0,2.478-1.93,4.545-4.409,4.545h-26.444
			c-2.479,0-4.408-2.067-4.408-4.545v-26.169c0-2.48,1.928-4.545,4.408-4.545h26.444c2.478,0,4.409,2.065,4.409,4.545V999.152z
			 M145.354,947.64c-0.138,1.79-2.203,3.167-4.684,3.167h-25.48c-2.617,0-4.683-1.377-4.683-3.167l-2.342-62.945
			c0-0.827,0.413-2.204,1.378-2.893c0.827-0.688,2.066-1.515,3.306-1.515h30.301c1.24,0,2.48,0.827,3.307,1.515
			c0.963,0.688,1.377,1.79,1.377,2.617l-2.48,63.219V947.64z M143.428,818.996c-3.03-5.648-8.954-9.229-15.427-9.229
			c-6.474,0-12.396,3.581-15.426,9.229l-105.78,193.93c-3.03,5.372-2.893,11.984,0.276,17.354c3.168,5.372,8.952,8.677,15.151,8.677
			h211.561c6.199,0,11.982-3.305,15.151-8.677c3.169-5.37,3.305-11.982,0.275-17.354L143.428,818.996z"/>
	</g>
</g>
</svg>
