<?xml version="1.0" encoding="utf-8"?>
<!-- Generator: Adobe Illustrator 16.0.0, SVG Export Plug-In . SVG Version: 6.00 Build 0)  -->
<!DOCTYPE svg PUBLIC "-//W3C//DTD SVG 1.1//EN" "http://www.w3.org/Graphics/SVG/1.1/DTD/svg11.dtd">
<svg version="1.1" id="Layer_2" xmlns="http://www.w3.org/2000/svg" xmlns:xlink="http://www.w3.org/1999/xlink" x="0px" y="0px"
	 width="128px" height="128px" viewBox="0 0 128 128" enable-background="new 0 0 128 128" xml:space="preserve">
<g>
	<path fill="#58595B" d="M114.37,34.236c0,1.291-1.002,2.291-2.29,2.291h-6.868v67.831c0,7.865-5.147,14.592-11.448,14.592H34.236
		c-6.3,0-11.448-6.441-11.448-14.307V36.527H15.92c-1.287,0-2.29-1-2.29-2.291v-4.58c0-1.293,1.002-2.289,2.29-2.289h22.106
		l5.012-11.945c1.43-3.512,5.725-6.371,9.514-6.371h22.896c3.79,0,8.084,2.859,9.514,6.371l5.013,11.945h22.105
		c1.287,0,2.29,0.996,2.29,2.289V34.236z M50.262,47.973c0-1.293-1.001-2.289-2.289-2.289h-4.579c-1.287,0-2.29,0.996-2.29,2.289
		v50.371c0,1.293,1.003,2.289,2.29,2.289h4.579c1.288,0,2.289-0.996,2.289-2.289V47.973z M80.027,27.367l-3.436-8.375
		c-0.213-0.283-0.859-0.713-1.215-0.783H52.694c-0.427,0.07-1.002,0.5-1.215,0.783l-3.506,8.375H80.027z M68.579,47.973
		c0-1.293-1.003-2.289-2.29-2.289H61.71c-1.287,0-2.29,0.996-2.29,2.289v50.371c0,1.293,1.003,2.289,2.29,2.289h4.579
		c1.287,0,2.29-0.996,2.29-2.289V47.973z M86.896,47.973c0-1.293-1.004-2.289-2.291-2.289h-4.578c-1.289,0-2.289,0.996-2.289,2.289
		v50.371c0,1.293,1,2.289,2.289,2.289h4.578c1.287,0,2.291-0.996,2.291-2.289V47.973z"/>
</g>
</svg>
