<?xml version="1.0" encoding="utf-8"?>
<!-- Generator: Adobe Illustrator 16.0.0, SVG Export Plug-In . SVG Version: 6.00 Build 0)  -->
<!DOCTYPE svg PUBLIC "-//W3C//DTD SVG 1.1//EN" "http://www.w3.org/Graphics/SVG/1.1/DTD/svg11.dtd">
<svg version="1.1" id="Layer_1" xmlns="http://www.w3.org/2000/svg" xmlns:xlink="http://www.w3.org/1999/xlink" x="0px" y="0px"
	 width="256px" height="256px" viewBox="0 0 256 256" enable-background="new 0 0 256 256" xml:space="preserve">
<g>
	<path fill="#58595B" d="M173.184,175.758c0,3.439-2.799,6.238-6.24,6.238h-22.928h-63.24c-3.441,0-6.24-2.803-6.24-6.238v-5.494
		v-24.043V80.243c0-3.438,2.798-6.239,6.24-6.239h63.24v-0.002h22.928c3.441,0,6.24,2.801,6.24,6.241v23.593h12.313V80.243
		c0-10.245-8.308-18.551-18.554-18.551h-22.928h-6.607H80.775c-10.246,0-18.551,8.307-18.551,18.551v65.978v24.043v5.494
		c0,10.244,8.305,18.551,18.551,18.551h56.633h6.605h22.93c10.246,0,18.554-8.307,18.554-18.551v-22.119h-12.315v22.119H173.184z"/>
	<polygon fill="#58595B" points="143.408,116.426 143.408,104.059 130.971,113.35 118.657,122.549 110.38,128.734 110.38,128.736 
		118.657,134.921 130.971,144.121 143.408,153.41 143.408,141.047 193.775,141.047 193.775,128.736 193.775,116.426 	"/>
</g>
</svg>
