/* XPM */
static const char * addressbook16_xpm[] = {
/* columns rows colors chars-per-pixel */
"16 16 256 2",
"   c #FFFFFF",
".  c #F7FFFF",
"X  c #F7F7FF",
"o  c #EFF7FF",
"O  c #E6EFF7",
"+  c #E6E6F7",
"@  c #CEE6F7",
"#  c #DEDEEF",
"$  c #D6DEEF",
"%  c #D6DEE6",
"&  c #CEDEF7",
"*  c #CEDEEF",
"=  c #EFF708",
"-  c #C5DEF7",
";  c #CED6EF",
":  c None",
">  c #C5D6E6",
",  c #BDD6F7",
"<  c #BDD6EF",
"1  c #D6CECE",
"2  c #BDCEE6",
"3  c #BDC5E6",
"4  c #B5C5DE",
"5  c #BDD631",
"6  c #ADBDDE",
"7  c #B5B5BD",
"8  c #A5B5D6",
"9  c #00FFFF",
"0  c #9CB5CE",
"q  c #9CADD6",
"w  c #94A5D6",
"e  c #8CA5D6",
"r  c #8CA5CE",
"t  c #8CA5C5",
"y  c #849CC5",
"u  c #7B9CD6",
"i  c #7B9CCE",
"p  c #31BDCE",
"a  c #6B9CD6",
"s  c #00F708",
"d  c #8494AD",
"f  c #7B94B5",
"g  c #6B94D6",
"h  c #6B9C84",
"j  c #7B8CAD",
"k  c #738CAD",
"l  c #638CC5",
"z  c #10CE42",
"x  c #638CBD",
"c  c #7B849C",
"v  c #73849C",
"b  c #6B84A5",
"n  c #7B7BA5",
"m  c #6B849C",
"M  c #7B8C42",
"N  c #5A84C5",
"B  c #29AD6B",
"V  c #F74A4A",
"C  c #6384A5",
"Z  c #5284C5",
"A  c #637BA5",
"S  c #637B9C",
"D  c #9C637B",
"F  c #6B7B5A",
"G  c #637394",
"H  c #52739C",
"J  c #5A7384",
"K  c #526B94",
"L  c #426B94",
"P  c #52638C",
"I  c #426B7B",
"U  c #5A5A8C",
"Y  c #524A7B",
"T  c #425273",
"R  c #21636B",
"E  c #106394",
"W  c #106B52",
"Q  c #3A4273",
"!  c #31426B",
"~  c #523163",
"^  c #29426B",
"/  c #293A63",
"(  c #213A63",
")  c #193A63",
"_  c #193163",
"`  c #19315A",
"'  c #212963",
"]  c #10315A",
"[  c #082952",
"{  c #FFCC33",
"}  c #33FF33",
"|  c #66FF33",
" . c #99FF33",
".. c #CCFF33",
"X. c #FFFF33",
"o. c #000066",
"O. c #330066",
"+. c #660066",
"@. c #990066",
"#. c #CC0066",
"$. c #FF0066",
"%. c #003366",
"&. c #333366",
"*. c #663366",
"=. c #993366",
"-. c #CC3366",
";. c #FF3366",
":. c #006666",
">. c #336666",
",. c #666666",
"<. c #996666",
"1. c #CC6666",
"2. c #009966",
"3. c #339966",
"4. c #669966",
"5. c #999966",
"6. c #CC9966",
"7. c #FF9966",
"8. c #00CC66",
"9. c #33CC66",
"0. c #99CC66",
"q. c #CCCC66",
"w. c #FFCC66",
"e. c #00FF66",
"r. c #33FF66",
"t. c #99FF66",
"y. c #CCFF66",
"u. c #FF00CC",
"i. c #CC00FF",
"p. c #009999",
"a. c #993399",
"s. c #990099",
"d. c #CC0099",
"f. c #000099",
"g. c #333399",
"h. c #660099",
"j. c #CC3399",
"k. c #FF0099",
"l. c #006699",
"z. c #336699",
"x. c #663399",
"c. c #996699",
"v. c #CC6699",
"b. c #FF3399",
"n. c #339999",
"m. c #669999",
"M. c #999999",
"N. c #CC9999",
"B. c #FF9999",
"V. c #00CC99",
"C. c #33CC99",
"Z. c #66CC66",
"A. c #99CC99",
"S. c #CCCC99",
"D. c #FFCC99",
"F. c #00FF99",
"G. c #33FF99",
"H. c #66CC99",
"J. c #99FF99",
"K. c #CCFF99",
"L. c #FFFF99",
"P. c #0000CC",
"I. c #330099",
"U. c #6600CC",
"Y. c #9900CC",
"T. c #CC00CC",
"R. c #003399",
"E. c #3333CC",
"W. c #6633CC",
"Q. c #9933CC",
"!. c #CC33CC",
"~. c #FF33CC",
"^. c #0066CC",
"/. c #3366CC",
"(. c #666699",
"). c #9966CC",
"_. c #CC66CC",
"`. c #FF6699",
"'. c #0099CC",
"]. c #3399CC",
"[. c #6699CC",
"{. c #9999CC",
"}. c #CC99CC",
"|. c #FF99CC",
" X c #00CCCC",
".X c #33CCCC",
"XX c #66CCCC",
"oX c #99CCCC",
"OX c #CCCCCC",
"+X c #FFCCCC",
"@X c #00FFCC",
"#X c #33FFCC",
"$X c #66FF99",
"%X c #99FFCC",
"&X c #CCFFCC",
"*X c #FFFFCC",
"=X c #3300CC",
"-X c #6600FF",
";X c #9900FF",
":X c #0033CC",
">X c #3333FF",
",X c #6633FF",
"<X c #9933FF",
"1X c #CC33FF",
"2X c #FF33FF",
"3X c #0066FF",
"4X c #3366FF",
"5X c #6666CC",
"6X c #9966FF",
"7X c #CC66FF",
"8X c #FF66CC",
"9X c #0099FF",
"0X c #3399FF",
"qX c #6699FF",
"wX c #9999FF",
"eX c #CC99FF",
"rX c #FF99FF",
"tX c #00CCFF",
"yX c #33CCFF",
"uX c #66CCFF",
"iX c #99CCFF",
"pX c #CCCCFF",
"aX c #FFCCFF",
"sX c #33FFFF",
"dX c #66FFCC",
"fX c #99FFFF",
"gX c #CCFFFF",
"hX c #FF6666",
"jX c #66FF66",
"kX c #FFFF66",
"lX c #6666FF",
"zX c #FF66FF",
"xX c #66FFFF",
"cX c #A50021",
"vX c #5F5F5F",
"bX c #777777",
"nX c #868686",
"mX c #969696",
"MX c #CBCBCB",
"NX c #B2B2B2",
"BX c #D7D7D7",
"VX c #DDDDDD",
"CX c #E3E3E3",
"ZX c #EAEAEA",
"AX c #F1F1F1",
"SX c #F8F8F8",
"DX c #FFFBF0",
"FX c #A0A0A4",
"GX c #808080",
"HX c #FF0000",
"JX c #00FF00",
"KX c #FFFF00",
"LX c #0000FF",
"PX c #FF00FF",
"IX c #00FFFF",
"UX c #FFFFFF",
/* pixels */
": : : : : : : : : : : : : : : : ",
": : H H H A d : 7 G K H H : : : ",
"n n c     X 4 k j X     b n n : ",
"n 2 c $ 8 6 4 x < + 4 4 C V ~ : ",
"n * c X o $ y N u 6 $ + b D Y : ",
"n * c     X > g ,       S z R : ",
"n * c * r r y g , 6 r q S s W : ",
"n * c     X 4 N u +     m B I : ",
"n * c     X ; a -       S 5 F : ",
"n * c * r r r g -       S = M : ",
"n * c     X 4 N -       m h J : ",
"n * c     X ; a -       A 9 E : ",
"n * ( ] ` ^ P l y T / / ( p L : ",
"n O     > 0 f ) ! t 8     % n : ",
"U U U U U U U ' Q U U U U U U : ",
": : : : : : : : : : : : : : : : "
};
