/* XPM */
static const char * addressbook20_xpm[] = {
/* columns rows colors chars-per-pixel */
"20 20 256 2",
"   c #FFFFFF",
".  c #F7FFFF",
"X  c #F7F7FF",
"o  c #EFF7FF",
"O  c #EFF7F7",
"+  c #E6EFFF",
"@  c #E6EFF7",
"#  c #DEEFFF",
"$  c #DEE6F7",
"%  c #DEE6EF",
"&  c #D6E6F7",
"*  c #FFFF00",
"=  c #DEDEE6",
"-  c #D6DEE6",
";  c #D6D6DE",
":  c #CED6E6",
">  c None",
",  c #C5D6E6",
"<  c #C5CEE6",
"1  c #B5CEEF",
"2  c #C5C5C5",
"3  c #C5DE31",
"4  c #B5C5DE",
"5  c #BDC5C5",
"6  c #ADC5EF",
"7  c #B5C5CE",
"8  c #BDBDBD",
"9  c #B5BDCE",
"0  c #ADBDDE",
"q  c #ADBDD6",
"w  c #B5CE52",
"e  c #ADB5C5",
"r  c #00FFFF",
"t  c #A5B5C5",
"y  c #9CB5CE",
"u  c #94B5DE",
"i  c #9CADD6",
"p  c #A5ADB5",
"a  c #94ADDE",
"s  c #94ADD6",
"d  c #9CADBD",
"f  c #8CADDE",
"g  c #BD9CA5",
"h  c #9CA5BD",
"j  c #9CA5B5",
"k  c #29D6E6",
"l  c #8CA5CE",
"z  c #849CCE",
"x  c #6BA5C5",
"c  c #739CDE",
"v  c #00FF00",
"b  c #739CD6",
"n  c #7B94CE",
"m  c #8494AD",
"M  c #7394CE",
"N  c #7B94B5",
"B  c #4AB584",
"V  c #848CB5",
"C  c #6B94CE",
"Z  c #6394D6",
"A  c #6394CE",
"S  c #7B8CAD",
"D  c #6B8CC5",
"F  c #738CAD",
"G  c #5294B5",
"H  c #6B84C5",
"J  c #7384A5",
"K  c #73849C",
"L  c #738494",
"P  c #FF4A4A",
"I  c #FF4A42",
"U  c #737B8C",
"Y  c #637BAD",
"T  c #527BBD",
"R  c #637394",
"E  c #637352",
"W  c #5A6B8C",
"Q  c #526B9C",
"!  c #63638C",
"~  c #5A734A",
"^  c #4A6B9C",
"/  c #526B63",
"(  c #0884A5",
")  c #526384",
"_  c #52637B",
"`  c #4A6B5A",
"'  c #52636B",
"]  c #525A8C",
"[  c #525A7B",
"{  c #426363",
"}  c #4A5A7B",
"|  c #425A8C",
" . c #196B94",
".. c #3A5A8C",
"X. c #3A5A84",
"o. c #087B4A",
"O. c #21636B",
"+. c #634263",
"@. c #3A527B",
"#. c #424A84",
"$. c #315284",
"%. c #295284",
"&. c #3A4A6B",
"*. c #42427B",
"=. c #424273",
"-. c #294A84",
";. c #3A3A73",
":. c #194284",
">. c #104A63",
",. c #213A6B",
"<. c #31316B",
"1. c #21315A",
"2. c #212163",
"3. c #08295A",
"4. c #082152",
"5. c #101952",
"6. c #CC9966",
"7. c #FF9966",
"8. c #00CC66",
"9. c #33CC66",
"0. c #99CC66",
"q. c #CCCC66",
"w. c #FFCC66",
"e. c #00FF66",
"r. c #33FF66",
"t. c #99FF66",
"y. c #CCFF66",
"u. c #FF00CC",
"i. c #CC00FF",
"p. c #009999",
"a. c #993399",
"s. c #990099",
"d. c #CC0099",
"f. c #000099",
"g. c #333399",
"h. c #660099",
"j. c #CC3399",
"k. c #FF0099",
"l. c #006699",
"z. c #336699",
"x. c #663399",
"c. c #996699",
"v. c #CC6699",
"b. c #FF3399",
"n. c #339999",
"m. c #669999",
"M. c #999999",
"N. c #CC9999",
"B. c #FF9999",
"V. c #00CC99",
"C. c #33CC99",
"Z. c #66CC66",
"A. c #99CC99",
"S. c #CCCC99",
"D. c #FFCC99",
"F. c #00FF99",
"G. c #33FF99",
"H. c #66CC99",
"J. c #99FF99",
"K. c #CCFF99",
"L. c #FFFF99",
"P. c #0000CC",
"I. c #330099",
"U. c #6600CC",
"Y. c #9900CC",
"T. c #CC00CC",
"R. c #003399",
"E. c #3333CC",
"W. c #6633CC",
"Q. c #9933CC",
"!. c #CC33CC",
"~. c #FF33CC",
"^. c #0066CC",
"/. c #3366CC",
"(. c #666699",
"). c #9966CC",
"_. c #CC66CC",
"`. c #FF6699",
"'. c #0099CC",
"]. c #3399CC",
"[. c #6699CC",
"{. c #9999CC",
"}. c #CC99CC",
"|. c #FF99CC",
" X c #00CCCC",
".X c #33CCCC",
"XX c #66CCCC",
"oX c #99CCCC",
"OX c #CCCCCC",
"+X c #FFCCCC",
"@X c #00FFCC",
"#X c #33FFCC",
"$X c #66FF99",
"%X c #99FFCC",
"&X c #CCFFCC",
"*X c #FFFFCC",
"=X c #3300CC",
"-X c #6600FF",
";X c #9900FF",
":X c #0033CC",
">X c #3333FF",
",X c #6633FF",
"<X c #9933FF",
"1X c #CC33FF",
"2X c #FF33FF",
"3X c #0066FF",
"4X c #3366FF",
"5X c #6666CC",
"6X c #9966FF",
"7X c #CC66FF",
"8X c #FF66CC",
"9X c #0099FF",
"0X c #3399FF",
"qX c #6699FF",
"wX c #9999FF",
"eX c #CC99FF",
"rX c #FF99FF",
"tX c #00CCFF",
"yX c #33CCFF",
"uX c #66CCFF",
"iX c #99CCFF",
"pX c #CCCCFF",
"aX c #FFCCFF",
"sX c #33FFFF",
"dX c #66FFCC",
"fX c #99FFFF",
"gX c #CCFFFF",
"hX c #FF6666",
"jX c #66FF66",
"kX c #FFFF66",
"lX c #6666FF",
"zX c #FF66FF",
"xX c #66FFFF",
"cX c #A50021",
"vX c #5F5F5F",
"bX c #777777",
"nX c #868686",
"mX c #969696",
"MX c #CBCBCB",
"NX c #B2B2B2",
"BX c #D7D7D7",
"VX c #DDDDDD",
"CX c #E3E3E3",
"ZX c #EAEAEA",
"AX c #F1F1F1",
"SX c #F8F8F8",
"DX c #FFFBF0",
"FX c #A0A0A4",
"GX c #808080",
"HX c #FF0000",
"JX c #00FF00",
"KX c #FFFF00",
"LX c #0000FF",
"PX c #FF00FF",
"IX c #00FFFF",
"UX c #FFFFFF",
/* pixels */
"> > > > > > > > > > > > > > > > > > > > ",
"> > > > > > > > > > > > > > > > > > > > ",
"> > U $.| | ^ S 2 > p W | | @.L > > > > ",
"8 5 R -       < Y j S O     - ) g e > > ",
"! V K -       % a Q #       - +.P <.> > ",
"! & K - 0 z n D C b f n n z q +.P <.> > ",
"! & K -       % M A 1       - %.G #.> > ",
"! & K -       % u b #       - o.v >.> > ",
"! & K - 0 z n H M b 6 z n z q o.v >.> > ",
"! & K -     X - M A a       - O.B @.> > ",
"! & K -     X % u b #       - ` 3 / > > ",
"! & K - 0 l i 4 u b #       - ~ * E > > ",
"! & K - X o $ s T b #       - { w ' > > ",
"! & K -       % f b #       -  .k -.> > ",
"! & K m d t 7 , u b # ; 9 9 h ( r :.> > ",
"! & h _ _ [ &.4.$.A ,.1.} _ _ F x ] > > ",
"! @       , y N _ 3._ N y ,     @ ! > > ",
"*.*.*.*.*.*.*.*.;.5.*.*.*.*.*.*.*.2.> > ",
"> > > > > > > > > > > > > > > > > > > > ",
"> > > > > > > > > > > > > > > > > > > > "
};
