/* XPM */
static const char * bitcoin48_xpm[] = {
/* columns rows colors chars-per-pixel */
"48 48 223 2",
"   c #765404",
".  c #795704",
"X  c #7C5904",
"o  c #7C5A0A",
"O  c #825E05",
"+  c #815F0E",
"@  c #815F11",
"#  c #866107",
"$  c #866208",
"%  c #8A650A",
"&  c #8E680D",
"*  c #916B0E",
"=  c #866414",
"-  c #8C6715",
";  c #8F6A10",
":  c #8A691B",
">  c #956E12",
",  c #906D1D",
"<  c #967013",
"1  c #997215",
"2  c #94711F",
"3  c #9C751A",
"4  c #9E781C",
"5  c #A27B1D",
"6  c #947324",
"7  c #997625",
"8  c #9D7926",
"9  c #97792B",
"0  c #9D7B28",
"q  c #9C7F34",
"w  c #A47E22",
"e  c #A87F21",
"r  c #A37E2A",
"t  c #A8801F",
"y  c #A58025",
"u  c #AB8425",
"i  c #A5812C",
"p  c #AB842A",
"a  c #AB892D",
"s  c #B0862C",
"d  c #B48C2D",
"f  c #B88F2F",
"g  c #B9912E",
"h  c #A68432",
"j  c #AB8531",
"k  c #AD8A33",
"l  c #A68638",
"z  c #AD8B3B",
"x  c #B38C32",
"c  c #BA8E35",
"v  c #B28D3B",
"b  c #B59234",
"n  c #BD9235",
"m  c #B5903E",
"M  c #BC943B",
"N  c #BA9A3B",
"B  c #C29536",
"V  c #C59937",
"C  c #C2953B",
"Z  c #C49C3C",
"A  c #CA9E3D",
"S  c #AC8E43",
"D  c #AD9045",
"F  c #AE9248",
"G  c #B49444",
"H  c #B99542",
"J  c #B49842",
"K  c #BD9C44",
"L  c #B3954A",
"P  c #B7994D",
"I  c #BD9A4A",
"U  c #B69A52",
"Y  c #BB9E54",
"T  c #BEA04A",
"R  c #BFA354",
"E  c #BEA35A",
"W  c #C19742",
"Q  c #C49B43",
"!  c #CA9D41",
"~  c #C39C4B",
"^  c #C99E4A",
"/  c #C7A444",
"(  c #CDA244",
")  c #CAA945",
"_  c #C5A44C",
"`  c #CCA44B",
"'  c #C6A94C",
"]  c #CFAC4D",
"[  c #D2A647",
"{  c #D2A54B",
"}  c #D4AA4C",
"|  c #D9AC4D",
" . c #D4B04E",
".. c #DCB14D",
"X. c #C4A151",
"o. c #CAA454",
"O. c #C6AB56",
"+. c #CCA955",
"@. c #C1A45A",
"#. c #C6AA5A",
"$. c #CDAB5D",
"%. c #D1A652",
"&. c #D4AB53",
"*. c #DDAF52",
"=. c #D3AC5B",
"-. c #D9AF5C",
";. c #D5B154",
":. c #DDB253",
">. c #D5B25B",
",. c #DCB45D",
"<. c #DDBB5E",
"1. c #E1B354",
"2. c #E4B955",
"3. c #E3B65B",
"4. c #E5BA5C",
"5. c #EABE5E",
"6. c #C6AB63",
"7. c #CCAD63",
"8. c #C6AE68",
"9. c #C9AF69",
"0. c #D4AC60",
"q. c #CDB067",
"w. c #CDB36C",
"e. c #D6B162",
"r. c #DDB463",
"t. c #D7B964",
"y. c #DBB965",
"u. c #D1B66F",
"i. c #DDB66A",
"p. c #D0BC6C",
"a. c #DFBE6B",
"s. c #CEB772",
"d. c #D1B771",
"f. c #D4BC74",
"g. c #DBBD75",
"h. c #DABF78",
"j. c #E2B764",
"k. c #E4BA64",
"l. c #E9BD62",
"z. c #E2BB6A",
"x. c #E8BF69",
"c. c #EBC15F",
"v. c #F1C25E",
"b. c #DFC266",
"n. c #DBC26C",
"m. c #DCC676",
"M. c #DEC973",
"N. c #D7C07A",
"B. c #D9C27E",
"V. c #E4C162",
"C. c #EDC363",
"Z. c #E3C36F",
"A. c #EBC26C",
"S. c #E5CA6B",
"D. c #EECA6D",
"F. c #F1C565",
"G. c #F5CB66",
"H. c #F9CA66",
"J. c #F2C76A",
"K. c #F5CC6A",
"L. c #F9CD6C",
"P. c #EDD26C",
"I. c #FBD26E",
"U. c #E5C374",
"Y. c #EDC573",
"T. c #E6CB74",
"R. c #EECC73",
"E. c #EBCA78",
"W. c #F5CD74",
"Q. c #F9CE72",
"!. c #EED77F",
"~. c #F4D274",
"^. c #FDD473",
"/. c #F2D870",
"(. c #FED975",
"). c #F5D37C",
"_. c #FCD57A",
"`. c #F7D87A",
"'. c #FEDC7C",
"]. c #FFE37D",
"[. c #DCC682",
"{. c #E1C984",
"}. c #E4CD8A",
"|. c #EFD182",
" X c #E5D48D",
".X c #EAD28D",
"XX c #E8DB8D",
"oX c #F1D581",
"OX c #FDD581",
"+X c #F5DB84",
"@X c #FDDC84",
"#X c #FEDE89",
"$X c #EAD594",
"%X c #E1D894",
"&X c #ECDA94",
"*X c #EFDA99",
"=X c #F2DD9C",
"-X c #F6E284",
";X c #FEE385",
":X c #FFE883",
">X c #FEE38C",
",X c #FEEA8C",
"<X c #F6E196",
"1X c #FEE594",
"2X c #FEEC93",
"3X c #F6E39C",
"4X c #FEE599",
"5X c #FFEB9B",
"6X c #FFF195",
"7X c #FEF39B",
"8X c #FEF99C",
"9X c #F5E2A2",
"0X c #F9E5A5",
"qX c #F6EAA6",
"wX c #FFECA3",
"eX c #FDEAAB",
"rX c #FFF5A0",
"tX c #FFF2AB",
"yX c #FEF5B3",
"uX c #FFF9B3",
"iX c #FFFBBB",
"pX c #FFFDC1",
"aX c None",
/* pixels */
"aXaXaXaXaXaXaXaXaXaXaXaXaXaXaXaXaXaXaX* < * < < < < * * & aXaXaXaXaXaXaXaXaXaXaXaXaXaXaXaXaXaXaX",
"aXaXaXaXaXaXaXaXaXaXaXaXaXaXaX* 1 3 5 u u d g Z Z N d u 5 3 * % aXaXaXaXaXaXaXaXaXaXaXaXaXaXaXaX",
"aXaXaXaXaXaXaXaXaXaXaXaXaX< 3 t u A ..c.K.I.I.(.(.'.(.G.2.( d 5 1 & aXaXaXaXaXaXaXaXaXaXaXaXaXaX",
"aXaXaXaXaXaXaXaXaXaXaX< 5 t g 1.G.H.H.I.(.'.(.I.I.I.K.K.G.I.K.2.V u 1 % aXaXaXaXaXaXaXaXaXaXaXaX",
"aXaXaXaXaXaXaXaXaXaX4 t g c.G.H.I.I.I.].(.(.(.I.G.H.K.G.K.I.G.K.Q.C.C 5 & % aXaXaXaXaXaXaXaXaXaX",
"aXaXaXaXaXaXaXaXaX4 u } v.G.G.I.(.].(.(.(.I.G.G.G.G.G.L.G.K.I.^.^.L.L.:.u < # aXaXaXaXaXaXaXaXaX",
"aXaXaXaXaXaXaXaXt d c.G.I.I.I.I.].(.I.G.c.........:.4.C.W.~.`.'._.^.K.K.J.N 4 # aXaXaXaXaXaXaXaX",
"aXaXaXaXaXaXaX5 g v.H.I.I.(.(.(.H.c.[ V V V V A A A ! ( } l.).>X@X_.`._.'.'./ 4 O aXaXaXaXaXaXaX",
"aXaXaXaXaXaXt g C.I.(.(.^.(.^.1.( ! C d p u s d d d x M &.3.3.A.).+XOX>X;X;X;X) 3 O aXaXaXaXaXaX",
"aXaXaXaXaX5 d G.I.'.].(.^.l.( C A C s H =X=XI 7 N.*X$Xk o.j.z.J.l.W.1X7X6X,X,X,XK 1 X aXaXaXaXaX",
"aXaXaXaX3 p C.(.(.'.'.^.*.C C C C B r G eXeXL - [.eX3Xr ~ r.W._.W.J.D.6X8X6X6X6X-Xd & X aXaXaXaX",
"aXaXaXaXu ;.'.'.(.^.^.| C c B B B c w z eXeXF = [.eX*X8 K r.@X#X;X`.~.D.7X8X8X6X,XS.y O aXaXaXaX",
"aXaXaXw N #X#X'.'.^.*.C c c s r e r 2 r eXeXD $ B.eX=X: z z.oX>X,X,X;X~.D.8X8X6X,X:X) < X aXaXaX",
"aXaX3 a T.1X1X>X#XA.! C B s $.6.6.@.@.w.eXeXd.U $XeX9XF z G O.n.!.-X;X'.D./.8X6X,X:X/.u # aXaXaX",
"aXaXy K 5X5X5X2X>X-.} ^ C r 0XeXeXeXeXeXeXeXeXeXeXeXeXeXeX9XN.L O.T.`.]./.F.-X6X:X].].) < . aXaX",
"aXaXa M.7X5X5X5XU.&.-.&.^ j 0XeXeXeXeXeXeXeXeXeXeXeXeXeXeXeXeX9XL X.~.'.'.K.c.6X:X].].P.t O aXaX",
"aX5 k 2X5X5X5X<X-.-.-.-.=.W q.6.9.=XeXeXeXeXs.9.d.B.*XeXeXeXeXeX&Xh <.(.(.Q.F.~.;X].].].b & . aX",
"aXy O.5X5X5X5XE.-.-.-.-.-.%.Q z 6 6.eXeXeXeX: , w r 7 R eXeXeXeX0XG ' ~.^.^.F.l.;X].].]. .1 . aX",
"aXp n.2X5X5X5Xj.-.-.-.r.r.r.-.=.G 9.eXeXeXeX6 j ( &.} i [.eXeXeXeXY Q J.I.I.L.5.(.;X].(.c.5 X aX",
"3 a !.7X5X7X<X-.r.r.r.r.j.r.r.r.W w.eXeXeXeX6 v ,.Q.k.m s.eXeXeXeXL K C.L.L.L.F.D.'.'.(.I.u #   ",
"5 a ,X5XrXwX+X3.j.j.j.z.z.z.z.r.~ w.eXeXeXeX6 l ;.<._ 0 *XeXeXeX0X0 ( G.L.Q.L.5.C.].'.^.^.g $   ",
"4 b 2X7X7XrX!.l.x.x.x.x.U.x.z.z.~ w.eXeXeXeX: , k z Y  XeXeXeXeXY r } C.5.5.5.3.4.'.(.^.^.V % . ",
"4 N 6X7X7XrXOXx.x.x.W.x.Y.Y.Y.Y.o.d.eXeXeXeX=X=X9XeXeXeXeXeXeX8.+ r [ 3.5.5.3.3.1.'._.(.^.A & . ",
"5 N 2X6X5X5XW.x.x.x.x.W.Y.Y.Y.Y.o.d.eXeXeXeXeXeXeXeXeXeXeXeXeXeX[.r C | 1.3.3.3.:._._.^.I./ %   ",
"5 N ,X2X2X6XD.l.l.x.x.x.Y.Y.Y.R.=.f.eXeXeXeX[.[.[.[.*XeXeXeXeXeXeX*Xj ! *.1.1.1.1._._.^.^./ %   ",
"5 b ;X,X,X2XU.3.j.x.Y.W.).OX#X@Xt.f.eXeXeXeX: : 7 7 : 6 6.eXeXeXeXeXd.k { *.*.*.1.OX_.(.^.V %   ",
"4 a ].;X;X>X`.C.L.^._._.OX@X#X#Xt.f.eXeXeXeX6 z #.o.I z 6 w.eXeXeXeX*Xr ! { %.%.,.OX_.(.^.n %   ",
"4 u /.;X;X;X@XF.Q.Q._._._.@X#X#Xa.f.eXeXeXeX9 I a.Z.y.+.k F eXeXeXeX0Xr Q { { { 4.'.(.^.^.u O   ",
"aXu V.;X;X;X>XF.K.Q.Q._._.OX#X@Xt.f.eXeXeXeX9 I Z.U.z.=.z 8.eXeXeXeX=X7 Q { { ( A._.^.^.F.5 O   ",
"aXu ] '.'.;X>XK.J.Q.Q.^._._.~.Z.R w.eXeXeXeX6 S =.>.+.G S 9XeXeXeXeXh.r ! ( ( [ L.L.L.L.:.1 . aX",
"aX5 b '.'.'.@X`.F.K.Q.Q.~.A.e.$.P }.eXeXeXeXF L E #.9.[.eXeXeXeXeXeXS k ! ( ! *.H.K.H.L.Z %   aX",
"aX1 u J.(.'.'.;XC.F.W.Q.K.&.h.eXeXeXeXeXeXeXeXeXeXeXeXeXeXeXeXeXeX@.2 c ! ! ! F.H.L.H.F.w O   aX",
"aXaXw ( (.(.`.`.`.C.F.K.A.~ [.eXeXeXeXeXeXeXeXeXeXeXeXeXeXeXeX*XF 7 r C B A | H.H.H.H.| 1 X aXaX",
"aXaX3 u D.~.~.~.`.D.C.J.V.` .X=X=X3X9X9XeXeX9X=XeXeXeX$X{.9.S 2 r r B B B V 5.H.H.H.H.s + . aXaX",
"aXaXaXt / ~.W.~.`.`.5.V.C.>.M i 6 - = q eXeXS o B.eX*Xo 7 r r r B C B r B 1.H.H.L.L.*.5 X . aXaX",
"aXaXaX1 u 4.~.~.~.~.~.c.V.l.4.,.~ H i S eXeXF : [.eX=X, r W ^ W W C C W *.Q.Q.Q.Q.J.e %   aXaXaX",
"aXaXaXaX5 b K.~.~.R.~.`.l.C.J.A.,.=.H P eXeXU , [.eX=X7 v ^ %.^ W ^ ^ -.^.^.W._.W.Z > .   aXaXaX",
"aXaXaXaX1 5 / ~.~.~.~.~.`.F.F.<.r.,.~ R eXeXY 7 [.eX=Xq ~ 0.r.0.%.o.g.#XOXOXOXOX,.4 O   aXaXaXaX",
"aXaXaXaXaX1 y } ~.`.`.`.'.#XR.,.r.,.+.X.9.7.I G 9.7.7.X.0.i.i.j.i.9XeX0X=X4X1XT.r #   aXaXaXaXaX",
"aXaXaXaXaXaX1 u :.'.'.OX#X#X1X+XA.3.r.-.=.=.>.e.i.$.0.0.i.j.g.0XpXpXpXyXuXyXXXk %   aXaXaXaXaXaX",
"aXaXaXaXaXaXaX1 p >.>X#X>X1X1X1X1X1X|.U.z.3.j.z.y.i.i.U..XqXpXiXpXpXpXiXiX Xh % . . aXaXaXaXaXaX",
"aXaXaXaXaXaXaXaX< y _ 3XtXuXtXwX=X4X4X4X5X<X>X=X3X0XeXtXyXuXiXiXiXiXiXuXp.y # . . aXaXaXaXaXaXaX",
"aXaXaXaXaXaXaXaXaX* y J %XpXiXwX4X4X4X5X4X5X5XwXwXwXeXtXeXtXtXyXyXyX&XJ 3 #   aXaXaXaXaXaXaXaXaX",
"aXaXaXaXaXaXaXaXaXaX* 3 k R  XwX4X1X1X1X1X5X4X5X5XwX5XwXwXtXtXtX&X@.y & X   aXaXaXaXaXaXaXaXaXaX",
"aXaXaXaXaXaXaXaXaXaXaXaX& 3 a J t.|.>X,X>X>X2X1X1X1X5X4X0X<Xm.T i > O   o aXaXaXaXaXaXaXaXaXaXaX",
"aXaXaXaXaXaXaXaXaXaXaXaXaXaX% > w p b _ >.b.S.T.T.U.t.O.N p 4 & O . o aXaXaXaXaXaXaXaXaXaXaXaXaX",
"aXaXaXaXaXaXaXaXaXaXaXaXaXaXaXaX$ $ ; 1 4 5 5 w w 5 3 > % O . . o aXaXaXaXaXaXaXaXaXaXaXaXaXaXaX",
"aXaXaXaXaXaXaXaXaXaXaXaXaXaXaXaXaXaXaXaXO X X X o X X X o aXaXaXaXaXaXaXaXaXaXaXaXaXaXaXaXaXaXaX"
};
