/* XPM */
static const char * bitcoin80_xpm[] = {
/* columns rows colors chars-per-pixel */
"80 80 206 2",
"   c #725203",
".  c #785706",
"X  c #7B5907",
"o  c #7C5A09",
"O  c #7F5F10",
"+  c #815E0B",
"@  c #85620C",
"#  c #89650F",
"$  c #856313",
"%  c #896614",
"&  c #8D6913",
"*  c #886718",
"=  c #8D6B1B",
"-  c #926D14",
";  c #926E1B",
":  c #967116",
">  c #997317",
",  c #95711E",
"<  c #9B7419",
"1  c #9F781B",
"2  c #A27B1D",
"3  c #8F6F22",
"4  c #926F21",
"5  c #947323",
"6  c #9A7623",
"7  c #9D7925",
"8  c #957628",
"9  c #9A7729",
"0  c #9D7B2B",
"q  c #9D7F33",
"w  c #A47D23",
"e  c #A97F27",
"r  c #A37E2B",
"t  c #9F8030",
"y  c #A78021",
"u  c #AC8425",
"i  c #A5802D",
"p  c #AC842B",
"a  c #AF8829",
"s  c #B2872C",
"d  c #B28B2D",
"f  c #A68333",
"g  c #AA8633",
"h  c #AD8A36",
"j  c #A4863A",
"k  c #A88638",
"l  c #A7893B",
"z  c #AC8B3B",
"x  c #B28732",
"c  c #B48C32",
"v  c #B98E34",
"b  c #B28D3B",
"n  c #B88F3C",
"m  c #B69033",
"M  c #BD9235",
"N  c #B4913D",
"B  c #BC943A",
"V  c #BE993C",
"C  c #C19336",
"Z  c #C1953B",
"A  c #C49A3C",
"S  c #C99C3D",
"D  c #CDA13F",
"F  c #D0A33F",
"G  c #A88B40",
"H  c #B08F40",
"J  c #AE9142",
"K  c #AE944C",
"L  c #B49443",
"P  c #BB9542",
"I  c #B49946",
"U  c #BD9846",
"Y  c #B3964C",
"T  c #BB974A",
"R  c #B6994A",
"E  c #BF9C4A",
"W  c #B69B53",
"Q  c #B99D53",
"!  c #BCA055",
"~  c #BDA25A",
"^  c #C49742",
"/  c #C49C43",
"(  c #CB9E42",
")  c #C49D4B",
"_  c #C99E4C",
"`  c #C29F52",
"'  c #C5A244",
"]  c #CDA245",
"[  c #C5A34C",
"{  c #CCA34B",
"}  c #CCA94D",
"|  c #D2A445",
" . c #D1A54B",
".. c #D5AA4E",
"X. c #DBAF4F",
"o. c #C6A352",
"O. c #CBA554",
"+. c #C5AA57",
"@. c #CEAC54",
"#. c #C4A65A",
"$. c #CDA458",
"%. c #C2A85F",
"&. c #CEAA5B",
"*. c #D0A550",
"=. c #D4AB53",
"-. c #DBAE53",
";. c #D0A75B",
":. c #D4AC5A",
">. c #D9AE5C",
",. c #CEB25E",
"<. c #D4B156",
"1. c #DDB156",
"2. c #D4B25C",
"3. c #DCB35D",
"4. c #D7B85C",
"5. c #DCBA5E",
"6. c #E2B355",
"7. c #E2B65B",
"8. c #E4BA5D",
"9. c #EABD5E",
"0. c #C5AA62",
"q. c #CCAE63",
"w. c #C6AE69",
"e. c #D5AF62",
"r. c #CEB167",
"t. c #CCB36C",
"y. c #D5B162",
"u. c #DCB462",
"i. c #D7B964",
"p. c #DCBC64",
"a. c #D2B66B",
"s. c #DCB669",
"d. c #D7BE69",
"f. c #DFB86A",
"g. c #D0B771",
"h. c #D2BA74",
"j. c #D5BE78",
"k. c #E1B766",
"l. c #E4BB63",
"z. c #E9BE63",
"x. c #E3BB6A",
"c. c #E9BF6A",
"v. c #E1BE72",
"b. c #DDC16B",
"n. c #DAC27E",
"m. c #E4C164",
"M. c #ECC264",
"N. c #E4C36B",
"B. c #EBC36C",
"V. c #E7C96F",
"C. c #EECA6E",
"Z. c #F1C564",
"A. c #F1C76A",
"S. c #F5CB6C",
"D. c #FACE6D",
"F. c #F4D06F",
"G. c #FCD06E",
"H. c #E5C371",
"J. c #EDC573",
"K. c #E4CA73",
"L. c #ECCC74",
"P. c #E7CF7A",
"I. c #EBCD7A",
"U. c #F3CD73",
"Y. c #F8CE71",
"T. c #F3CD7A",
"R. c #EDD076",
"E. c #EDD17B",
"W. c #F4D274",
"Q. c #FBD274",
"!. c #FED977",
"~. c #F3D47B",
"^. c #FDD47A",
"/. c #F5DA7C",
"(. c #FDDA7C",
"). c #FFE07F",
"_. c #DBC481",
"`. c #DFC885",
"'. c #E1CA86",
"]. c #EACC80",
"[. c #E4CD8A",
"{. c #EED383",
"}. c #E7D18F",
"|. c #EAD38C",
" X c #F4D680",
".X c #FDD780",
"XX c #F5DA83",
"oX c #FCDC84",
"OX c #F5DB8A",
"+X c #FADE89",
"@X c #EAD492",
"#X c #EED896",
"$X c #EFDA9A",
"%X c #F1DD9D",
"&X c #FDE283",
"*X c #F6E18D",
"=X c #FEE48D",
"-X c #FFE692",
";X c #FFE894",
":X c #FBE799",
">X c #FFEA98",
",X c #F6E2A3",
"<X c #FAE6A6",
"1X c #FAE7A8",
"2X c #FDEAAB",
"3X c None",
/* pixels */
"3X3X3X3X3X3X3X3X3X3X3X3X3X3X3X3X3X3X3X3X3X3X3X3X3X3X3X3X3X3X3X3X3X3X3X3X3X3X3X3X3X3X3X3X3X3X3X3X3X3X3X3X3X3X3X3X3X3X3X3X3X3X3X3X3X3X3X3X3X3X3X3X3X3X3X3X3X3X3X3X",
"3X3X3X3X3X3X3X3X3X3X3X3X3X3X3X3X3X3X3X3X3X3X3X3X3X3X3X3X3X3X3X3X3X3X3X3X3X3X3X3X3X3X3X3X3X3X3X3X3X3X3X3X3X3X3X3X3X3X3X3X3X3X3X3X3X3X3X3X3X3X3X3X3X3X3X3X3X3X3X3X",
"3X3X3X3X3X3X3X3X3X3X3X3X3X3X3X3X3X3X3X3X3X3X3X3X3X3X3X3X3X3X3X3X3X3X3X3X3X3X3X3X3X3X3X3X3X3X3X3X3X3X3X3X3X3X3X3X3X3X3X3X3X3X3X3X3X3X3X3X3X3X3X3X3X3X3X3X3X3X3X3X",
"3X3X3X3X3X3X3X3X3X3X3X3X3X3X3X3X3X3X3X3X3X3X3X3X3X3X3X3X3X3X3X3X3X3X3X3X3X3X3X3X3X3X3X3X3X3X3X3X3X3X3X3X3X3X3X3X3X3X3X3X3X3X3X3X3X3X3X3X3X3X3X3X3X3X3X3X3X3X3X3X",
"3X3X3X3X3X3X3X3X3X3X3X3X3X3X3X3X3X3X3X3X3X3X3X3X3X3X3X3X3X3X3X3X3X3X3X3X3X3X3X3X3X3X3X3X3X3X3X3X3X3X3X3X3X3X3X3X3X3X3X3X3X3X3X3X3X3X3X3X3X3X3X3X3X3X3X3X3X3X3X3X",
"3X3X3X3X3X3X3X3X3X3X3X3X3X3X3X3X3X3X3X3X3X3X3X3X3X3X3X3X3X3X3X3X3Xu u u u u u u y y u y 3X3X3X3X3X3X3X3X3X3X3X3X3X3X3X3X3X3X3X3X3X3X3X3X3X3X3X3X3X3X3X3X3X3X3X3X",
"3X3X3X3X3X3X3X3X3X3X3X3X3X3X3X3X3X3X3X3X3X3X3X3X3X3X3X3Xu u u u u u u u u a u u u u u u a u u 2 3X3X3X3X3X3X3X3X3X3X3X3X3X3X3X3X3X3X3X3X3X3X3X3X3X3X3X3X3X3X3X3X",
"3X3X3X3X3X3X3X3X3X3X3X3X3X3X3X3X3X3X3X3X3X3X3X3X3Xu u u u u u u u s m V D ' { ' D M d u u a u u u u 2 3X3X3X3X3X3X3X3X3X3X3X3X3X3X3X3X3X3X3X3X3X3X3X3X3X3X3X3X3X",
"3X3X3X3X3X3X3X3X3X3X3X3X3X3X3X3X3X3X3X3X3X3X3Xu u u u u u M } m.~.oX=X=X=X=X=X-X-X=X&X/.m.=.V u u a u u w 3X3X3X3X3X3X3X3X3X3X3X3X3X3X3X3X3X3X3X3X3X3X3X3X3X3X3X",
"3X3X3X3X3X3X3X3X3X3X3X3X3X3X3X3X3X3X3X3X3Xu u u u u M 4.~.=X=X=X=X=X=X=X=X=X=X=X=X=X=X=X=X=X=X/.5.Z u u u u u 3X3X3X3X3X3X3X3X3X3X3X3X3X3X3X3X3X3X3X3X3X3X3X3X3X",
"3X3X3X3X3X3X3X3X3X3X3X3X3X3X3X3X3X3X3X3Xu u u u ] V.&X=X=X&X=X=X=X=X=X=X=X=X=X&X=X=X=X=X=X=X=X=X=X=XW.} a u u u 2 3X3X3X3X3X3X3X3X3X3X3X3X3X3X3X3X3X3X3X3X3X3X3X",
"3X3X3X3X3X3X3X3X3X3X3X3X3X3X3X3X3X3Xu a u u ' W.=X=X=X=X=X=X=X=X=X=X=X=X=X=X=X=X=X=X=X=X+X=X=X=X&X=X=X=X~.} a u u u < 3X3X3X3X3X3X3X3X3X3X3X3X3X3X3X3X3X3X3X3X3X",
"3X3X3X3X3X3X3X3X3X3X3X3X3X3X3X3X3Xu u u M N.=X&X=X=X=X=X=X=X=X-X=X=X=X=X&X=X=X=XoX=X=X=X=X&X+X=X=X=X=X=X=X=XL.M u u u < 3X3X3X3X3X3X3X3X3X3X3X3X3X3X3X3X3X3X3X3X",
"3X3X3X3X3X3X3X3X3X3X3X3X3X3X3Xu u u u } XX=X=X=X&X=X=X=X=X=X=X=X=X=X=X=X=X=X=X=X*X=X=X=X=X=X=X=X=X=X=X=X=X=X=XoX<.a u u 2 3X3X3X3X3X3X3X3X3X3X3X3X3X3X3X3X3X3X3X",
"3X3X3X3X3X3X3X3X3X3X3X3X3X3Xu u u s m.&X=X=X=X=X=X=X=X=X=X=X=X=X=X/.L.M.m.9.m.9.m.C.~.&X*X=X=X=X=X=X=X=X=X=X=X=X=XV.m u u 2 o 3X3X3X3X3X3X3X3X3X3X3X3X3X3X3X3X3X",
"3X3X3X3X3X3X3X3X3X3X3X3X3Xu u u c R.=X=X=X=X=X=X=X=X=X=X=XoXC.1.| S S A S D D D D ] ] ..<.N./.=X-X=X-X=X=X=X=X=X=X=XXXZ u a 2 o 3X3X3X3X3X3X3X3X3X3X3X3X3X3X3X3X",
"3X3X3X3X3X3X3X3X3X3X3X3Xu u u m XX=X=X=X=X=X=X=X=X=X=XW.3.| ^ A C M M M C S S A A A / ( { =.<.l.I.=X-X-X=X=X=X=X=X=X=X=XV a u 2 . 3X3X3X3X3X3X3X3X3X3X3X3X3X3X3X",
"3X3X3X3X3X3X3X3X3X3X3X3Xu u m /.=X=X=X-X=X=X=X=X=X~.1.D ] S Z v x p s u s d d v c c v V { =.7.8.7.l.T.=X-X=X-X-X-X-X-X=X=XV u a 1   3X3X3X3X3X3X3X3X3X3X3X3X3X3X",
"3X3X3X3X3X3X3X3X3X3X3Xu u d /.=X=X=X=X=X=X=X=X&X8.^ A ( S M v e $.r.e.r.u w i a.a.a.&.b ^ =.l.l.l.c.z.z.XX-X-X-X-X=X-X-X;X&XV u u :   3X3X3X3X3X3X3X3X3X3X3X3X3X",
"3X3X3X3X3X3X3X3X3X3Xu u s R.=X=X=X=X=X=X=X=XU.{ ^ Z C ( A M u w [.2X2X2X0 - 7 2X2X1X@Xi P *.l.x.B.U.C.z.z.W.-X-X-X-X-X-X=X-X*Xd a u # . 3X3X3X3X3X3X3X3X3X3X3X3X",
"3X3X3X3X3X3X3X3X3Xu u u l.=X=X=X=X-X=X=X=Xm.Z Z Z Z n Z Z v e , '.2X2X2X5 & ; 2X2X2X}.7 b { 3.x.^.^.^.Y.A.z.R.-X;X;X;X;X-X;X-XP.a u y . 3X3X3X3X3X3X3X3X3X3X3X3X",
"3X3X3X3X3X3X3X3X3Xu u } -X-X=X-X=X=X=X=Xl.M M Z C C C C C x e ; '.2X2X2X, $ = 2X2X2X}.6 h ) >.J..X.X.X.X(.W.Z.C.&X;X;X;X;X-X-X-X<.u u <   3X3X3X3X3X3X3X3X3X3X3X",
"3X3X3X3X3X3X3X3Xu u c oX=X=X=X=X=X=X=Xl.Z C M M C C v v v s w = '.2X2X2X5 $ = 2X2X2X}.5 g ) u./.+X+X=X=X=X&XW.Z.F.=X;X;X;X;X-X-X*XV u y @ X 3X3X3X3X3X3X3X3X3X3X",
"3X3X3X3X3X3X3Xu u u N.-X-X-X-X=X=X=XB.Z M C v v s e e e e w > % `.2X2X2X= + % 2X2X2X}.= r L 4.E.OX+X-X=X=X&X).W.M.R.;X;X;X-X-X-X;XR.u u y   3X3X3X3X3X3X3X3X3X3X",
"3X3X3X3X3X3X3Xu u U -X-X-X-X-X-X=XW.^ C C C x e e r 6 5 4 ; = $ `.2X2X2X= O = 2X2X2X}.O = t Q ,.b.P./.*X=X&X&X).F.M.W.;X;X;X;X&X-X&X} u u O   3X3X3X3X3X3X3X3X3X",
"3X3X3X3X3X3Xu u u R.-X-X-X-X-X-X=X=.{ ^ Z C x n 2X2X<X<X1X2X<X<X2X2X2X2X1X1X<X2X2X2X<X$X[.b.~ J I ~ b.P.&X&X&X).!.F.m.).;X;X;X;X;X&X).u y y   3X3X3X3X3X3X3X3X3X",
"3X3X3X3X3X3Xu u U -X-X-X-X-X-X-Xc.=.=. ._ ^ x z 2X2X1X2X2X2X2X2X2X2X2X2X2X2X2X2X2X2X2X2X2X2X2X<Xn.l I ,.K./.).).).F.Z.Z.&X;X;X=X-X-X&X} u u O   3X3X3X3X3X3X3X3X",
"3X3X3X3X3X3Xu u V.-X;X-X-X-X-XOX>.>.>.=.=._ n b 2X2X2X2X2X2X2X2X2X2X2X2X2X2X2X2X2X2X2X2X2X2X2X2X2X:XI N +.V./.).).F.F.9.W.;X=X;X-X-X-XR.u u >   3X3X3X3X3X3X3X3X",
"3X3X3X3X3Xu u d =X;X-X-X-X-X-Xx.>.>.>.>.>...^ P 2X2X2X2X2X2X2X2X2X2X2X2X2X2X2X2X2X2X2X2X2X2X2X2X2X2X,Xl N 4.R.!.!.!.G.Z.M.&X;X=X=X-X-X-XB a u     3X3X3X3X3X3X3X",
"3X3X3X3X3Xu u @.;X;X-X;X;X;XXX>.:.>.>.>.>.>._ P ` Y Y W _.2X2X2X2X2X2X@XW W ~ 0.t.'.<X2X2X2X2X2X2X2X2X'.0 ' m./.!.!.Q.S.9.F.=X;X-X=X-X&X4.u u @   3X3X3X3X3X3X3X",
"3X3X3X3X3Xu u P.;X;X;X;X-X:XN.>.>.>.>.>.>.>.=._ P z r 4 8 2X2X2X2X2X2X_.. $ , 6 1 3 t ~ 1X2X2X2X2X2X2X2Xt B 5.G.!.!.G.G.M.9.&X;X=X-X-X=X/.u u >   3X3X3X3X3X3X3X",
"3X3X3X3Xu u d =X;X;X=X;X;X=X3.>.>.>.e.>.3.3.>.:.*._ P r 9 2X2X2X2X2X1Xn.@ , c B N m h 8 ~ 2X2X2X2X2X2X2XI h <.F.!.G.G.F.M.9.W.;X=X-X-X=X=Xm u y   . 3X3X3X3X3X3X",
"3X3X3X3Xu u ' -X-X>X-X-X-X X>.>.>.>.>.>.>.u.u.u.u.3.$.P f 2X2X2X2X2X2X_.$ i / -.<.8.} h 8 1X2X2X2X2X2X2X! i <.S.G.G.G.G.Z.9.Z.=X-X=X-X&X-X} u u X   3X3X3X3X3X3X",
"3X3X3X3Xu u 4.-X-X-X-X-X-XJ.3.>.>.k.k.k.k.k.u.k.u.u.:.U k 2X2X2X2X2X1X_.% f } 8.Z.F.8.U 8 ,X2X2X2X2X2X2XI g } Z.D.G.D.G.D.Z.9.&X-X=X=X=X-Xm.u u @   3X3X3X3X3X3X",
"3X3X3X3Xu u K.;X-X;X-X>X-Xk.3.k.k.k.k.k.k.k.k.k.k.u.e.U k 2X2X2X2X2X2X_.% f [ 8.F.M.<.b i 2X2X2X2X2X2X2Xt a X.Z.D.D.D.G.G.Z.9./.=X-X=X=X=XR.u u &   3X3X3X3X3X3X",
"3X3X3X3Xu u E.;X-X;X-X-X=Xl.l.x.c.k.x.k.k.x.x.v.x.x.u.) z 2X2X2X2X2X2X_.$ 7 L <.<.} N 6 h.2X2X2X2X2X2X_.: V 1.S.D.D.G.D.S.M.6.W.-X=X-X=X=X&Xu u >   X 3X3X3X3X3X",
"3X3X3Xu a u =X;X;X;X;X;XoX7.z.c.c.c.c.c.c.c.c.c.x.k.u.) z 2X2X2X2X2X2Xn.o = i N h i l n.2X2X2X2X2X2X<Xt t D 7.M.Z.z.z.9.9.9.6.M.-X=X=X=X;X=Xm u 1     3X3X3X3X3X",
"3X3X3Xy u a =X;X;X;X;X;XXXl.z.c.c.c.c.T.J.J.T.v.J.J.s.` z 2X2X2X2X2X2X#XW ~ ~ t.n.$X2X2X2X2X2X2X2X,Xt % t V X.8.9.8.9.9.9.6.6.M.-X=X=X=X=X&XM u 2     3X3X3X3X3X",
"3X3X3Xu u m -X-X-X;X;X;X~.z.z.c.c.c.c..XJ.J.J.J.J.J.x.O.b 2X2X2X2X2X2X2X2X2X2X2X2X2X2X2X2X2X2X2X2Xw.$ * y V X.7.8.8.9.7.8.7.6.8.=X=X-X-X=X-XV a y     3X3X3X3X3X",
"3X3X3Xu a m -X-X-X;X;X;X~.7.z.c.c.c.c.c.c.J.T.J.T.J.B.O.b 2X2X2X2X2X2X2X2X2X2X2X2X2X2X2X2X2X2X2X2X2X,X~ , c ' X.6.6.7.6.6.6.6.8.=X=X=X-X&X-XV u y     3X3X3X3X3X",
"3X3X3Xu u m -X-X-X-X-X-X/.8.l.z.c.T.c.J.c.J.T.v.J.J.x.O.G 2X2X2X2X2X2X2X2X2X2X2X2X2X2X2X2X2X2X2X2X2X2X2Xn.r v { 6.6.6.6.6.6.-.7.&X-X=X=X=X-XD u y     3X3X3X3X3X",
"3X3X3Xu u d =X-X-X-X-X-X~.7.z.z.c.c.c.c.c.J.c.T.T.^.T.y.R 2X2X2X2X2X2X@XK K W W W ~ h.#X1X2X2X2X2X2X2X2X2Xa.i Z ..X.6.6.-.-.6.7.-X-X-X-X-X-XD u 2     3X3X3X3X3X",
"3X3X3Xw u a =X-X-X-X-X-X~.7.7.8.c.c.c.c.T..X.X+X+X+XXXi.R 2X2X2X2X2X2Xn.. * 5 8 5 3 = * q `.2X2X2X2X2X2X2X<Xk c | X.6.-.-.-.-.z.&X;X=X;X-X;XV u w     3X3X3X3X3X",
"3X3X3Xu u u =X-X=X-X-X-X/.8.M.B.Y.T.^.^.^..X.XoXoX+XXXi.R 2X2X2X2X2X2X_.$ 0 b U U N l t 5 $ `.2X2X2X2X2X2X2X0.e Z  .....-.-.6.c.;X=X;X=X;X-Xd u 1     3X3X3X3X3X",
"3X3X3X3Xu a E.-X-X-X-X-X=Xz.S.D.Y.^.Q.^.^.^..XoX+X+XXXi.R 2X2X2X2X2X2X_.= l +.u.i.,.O.E h 5 G 2X2X2X2X2X2X2X_.0 n |  . .*. .*.T.-X;X;X;X-X=Xa u :     3X3X3X3X3X",
"3X3X3X3Xu u N.-X-X-X=X-X-XA.Z.S.Y.Q.Q.^.^..X.XoXoX&X.Xi.R 2X2X2X2X2X2X_.= N y.H.H.m.i.y.E f 8 2X2X2X2X2X2X2X'.6 n |  . . . . ..X;X;X;X;X-X~.u u &     3X3X3X3X3X",
"3X3X3X3Xu u <.-X-X=X=X-X-XW.Z.S.Y.Y.Q.^.^.^.(..XoX=XXXi.R 2X2X2X2X2X2X_.= L 4.H.J.H.x.i.o.k j 2X2X2X2X2X2X2X_.6 B  . . . .{ =.-X;X-X;X-X-Xb.a u @     3X3X3X3X3X",
"3X3X3X3Xy a V =X=X-X-X=X-XXXZ.S.Y.Y.Y.Q.!.^..X.XoXoXE.y.I 2X2X2X2X2X2X_.= J y.b.H.N.p.&.P 0 g.2X2X2X2X2X2X2Xr.r B _ {  .| ] l.-X;X;X-X-X;X..u u .   . 3X3X3X3X3X",
"3X3X3X3Xy u a =X=X=X=X-X=X-XM.Z.S.Y.Y.Q.Q.^.^.^.U.J.u.E l 2X2X2X2X2X2X_.* k o.e.e.$.` P q W 1X2X2X2X2X2X2X2XG i B ] | ] ] ( ~.=X;X;X;X;X;XM u y     3X3X3X3X3X3X",
"3X3X3X3X3Xu u V.-X=X-X=X-X-XF.M.A.D.Y.Q.Y.Q.Y.B.2.[ N 0 j 2X2X2X2X2X2X_.O 5 l G z H H Q _.2X2X2X2X2X2X2X2X#X, g ^ ] ] | ] ..-X-X-X-X&X;X).u u :     3X3X3X3X3X3X",
"3X3X3X3X3Xu u } =X=X=X=X-X=X&XM.Z.S.D.W.Q.Y.B.*.a.#X@X|.,X2X2X2X2X2X2X,X[.[.}.}.%X<X2X2X2X2X2X2X2X2X2X2X<Xj 6 b / ] ] ] ] M.-X-X-X-X-X-X4.u u O     3X3X3X3X3X3X",
"3X3X3X3X3Xy u d =X=X=X=X=X=X-XS.M.A.S.S.U.A.u.) n.2X2X2X2X2X2X2X2X2X2X2X2X1X2X2X2X2X2X2X2X2X2X2X2X2X2X2XW ; i M ( S S S ] &X-X-X-X-X=X-Xm u y .   X 3X3X3X3X3X3X",
"3X3X3X3X3X3Xu u p.=X=X=X=X=X-X&X9.Z.C.S.S.M.:.b [.2X2X2X2X2X2X2X2X2X2X2X2X2X2X2X2X2X2X2X2X2X2X2X2X2X%XG = r x v C D D D m.-X-X-X-X-X-XR.u u :     3X3X3X3X3X3X3X",
"3X3X3X3X3X3Xy u B =X=X=X=X=X=X=XF.9.M.A.C.M.=.h %X2X2X2X2X2X2X2X2X2X2X2X2X2X2X2X2X2X2X2X2X2X2X1X#X~ 4 ; r p v v M C A | &X-X-X-X-X-X-X] u u X     3X3X3X3X3X3X3X",
"3X3X3X3X3X3Xy u u N.=X=X-X=X-X=X=XM.z.M.M.M.1.V #X%X%X%X%X$X%X%X<X2X2X2X%X$X%X2X2X2X<X[.n.t.W q = , r i x v C C C M C W.-X-X-X-X-X-X/.u u 1     X 3X3X3X3X3X3X3X",
"3X3X3X3X3X3X3Xu u V *X=X=X*X=X=X=XoX8.M.M.M.5.{ m r , ; $ $ o o `.2X2X2X3 o $ 2X2X2X[.o $ 4 9 0 r g x v m C M C C C 8.&X-X-X-X-X-X-X[ u u @     3X3X3X3X3X3X3X3X",
"3X3X3X3X3X3X3X2 u u 5.=X=X=X=X=X=X=XI.8.M.M.z.3.O.) P b r 0 4 % `.2X2X2X3 $ * 2X2X2X[.$ 4 r e ^ n n Z Z Z C C C M | =X=X-X-X-X-X-XR.u u <       3X3X3X3X3X3X3X3X",
"3X3X3X3X3X3X3X3Xy u d XX=X=X=X=X-X=X=XS.8.8.M.M.z.z.7.{ _ U g 5 `.2X2X2X8 = 3 2X2X2X}.3 0 x ^ _ ^ ^ ^ Z ^ B ^ C  .&X-X-X-X-X-X-X=XB u u o     3X3X3X3X3X3X3X3X3X",
"3X3X3X3X3X3X3X3X1 u u ' =X=X*X=X=X*X=X=XW.8.M.M.A.S.l.u.>.o.L r [.2X2X2X9 = 8 2X2X2X}.4 r ^ _ *.*._ ) ) ^ ^ ^ O.oX=X-X-X-X-X-X-X<.u u :     . 3X3X3X3X3X3X3X3X3X",
"3X3X3X3X3X3X3X3X3Xy u u i.=X=X=X=X=X-X*X=XW.9.M.A.B.3.5.5.;.U f [.2X2X2Xq 4 8 2X2X2X}.r q _ _ ;.;.*._ _ ` _ e.+X-X-X-X-X-X-X-XR.a u 2       3X3X3X3X3X3X3X3X3X3X",
"3X3X3X3X3X3X3X3X3X3Xu u u K.=X=X=X-X=X=X=X=XXXz.M.8.5.8.u.:.) h }.2X2X2Xj r f 2X2X2X@Xq T _ e.e.u.e.;.$.$.b.-X-X-X=X;X=X;X-X&Xa a u +     3X3X3X3X3X3X3X3X3X3X3X",
"3X3X3X3X3X3X3X3X3X3X3Xu u d ~.=X=X=X=X=X-X=X-X+XC.3.5.7.7.2.@.) q.r.q.q.H H L g.r.w.q.T ` e.k.v.k.k.s.s.{.-X-X;X-X;X;X;X;X*XV u u &     . 3X3X3X3X3X3X3X3X3X3X3X",
"3X3X3X3X3X3X3X3X3X3X3X2 u u c XX-X=X=X=X=X-X=X-X-X Xl.7.7.u.2.$.o.[ [ o.O.$.&.&.` ` ` q.s.k.v.k.k.x.{.%X>X>X>X;X>X;X>X>X*XV u u >       3X3X3X3X3X3X3X3X3X3X3X3X",
"3X3X3X3X3X3X3X3X3X3X3X3X2 u u m ~.=X-X-X-X=X-X-X-X-X-X Xc.7.5.u.3.e.y.u.s.f.k.s.e.e.s.s.k.k.k.v. X:X>X>X>X>X>X>X;X>X>X*XV u u <       3X3X3X3X3X3X3X3X3X3X3X3X3X",
"3X3X3X3X3X3X3X3X3X3X3X3X3X2 u u d R.-X=X-X=X-X-X-X-X-X-X-X+XI.v.u.s.l.k.k.x.x.x.s.s.s.s.j.].+X>X>X>X>X>X:X>X>X>X>X>XOXV u u 1       3X3X3X3X3X3X3X3X3X3X3X3X3X3X",
"3X3X3X3X3X3X3X3X3X3X3X3X3X3X2 u u a p.-X-X-X;X;X;X-X-X-X:X-X-X-X-XOX XL.J.J.J.L.I.].OX:X>X-X>X>X-X>X>X>X>X>X>X>X>XK.a a u <       3X3X3X3X3X3X3X3X3X3X3X3X3X3X3X",
"3X3X3X3X3X3X3X3X3X3X3X3X3X3X3X2 u u u @.=X;X;X>X;X-X-X>X-X-X-X-X;X-X-X-X-X-X>X>X-X>X-X>X>X>X>X;X>X>X>X-X>X-X-X:X<.u u u >       3X3X3X3X3X3X3X3X3X3X3X3X3X3X3X3X",
"3X3X3X3X3X3X3X3X3X3X3X3X3X3X3X3X1 u u u m n.>X;X>X>X-X-X-X-X>X-X-X-X;X;X;X-X-X-X-X-X>X-X-X>X-X>X>X-X>X>X>X>XK.B u u u &       3X3X3X3X3X3X3X3X3X3X3X3X3X3X3X3X3X",
"3X3X3X3X3X3X3X3X3X3X3X3X3X3X3X3X3X3Xw u u u / {.>X>X-X-X-X-X-X-X-X-X-X-X;X-X-X;X:X-X-X>X-X:X>X;X;X>X;X;X{.[ u u u w +       3X3X3X3X3X3X3X3X3X3X3X3X3X3X3X3X3X3X",
"3X3X3X3X3X3X3X3X3X3X3X3X3X3X3X3X3X3X3X2 u u u u ) K.-X-X-X-X:X-X-X-X-X-X-X-X-X-X-X-X-X>X-X-X-X-X-X-XE.[ u u u u -       . 3X3X3X3X3X3X3X3X3X3X3X3X3X3X3X3X3X3X3X",
"3X3X3X3X3X3X3X3X3X3X3X3X3X3X3X3X3X3X3X3X3X1 u u u u m 2.E.-X+X:X-X-X-X-X-X-X-X-X-X:X-X-X-X;X-XOXi.B u u u u 1 o       3X3X3X3X3X3X3X3X3X3X3X3X3X3X3X3X3X3X3X3X3X",
"3X3X3X3X3X3X3X3X3X3X3X3X3X3X3X3X3X3X3X3X3X3X3X> u u u u u v [ l.I.OX-X-X-X-X-X-X-X-X+XI.f.@.m u u u u u 1 +       o 3X3X3X3X3X3X3X3X3X3X3X3X3X3X3X3X3X3X3X3X3X3X",
"3X3X3X3X3X3X3X3X3X3X3X3X3X3X3X3X3X3X3X3X3X3X3X3X3X& 2 u u u u u u u d B V V V V B d u u u u u u u y - .       o 3X3X3X3X3X3X3X3X3X3X3X3X3X3X3X3X3X3X3X3X3X3X3X3X",
"3X3X3X3X3X3X3X3X3X3X3X3X3X3X3X3X3X3X3X3X3X3X3X3X3X3X3X+ - 1 u u u u u u u a u u u u u u u u 2 - o         o 3X3X3X3X3X3X3X3X3X3X3X3X3X3X3X3X3X3X3X3X3X3X3X3X3X3X",
"3X3X3X3X3X3X3X3X3X3X3X3X3X3X3X3X3X3X3X3X3X3X3X3X3X3X3X3X3Xo . X # - > 1 2 2 2 1 2 > - # o .         o 3X3X3X3X3X3X3X3X3X3X3X3X3X3X3X3X3X3X3X3X3X3X3X3X3X3X3X3X3X",
"3X3X3X3X3X3X3X3X3X3X3X3X3X3X3X3X3X3X3X3X3X3X3X3X3X3X3X3X3X3X3X3X3Xo o                     . o 3X3X3X3X3X3X3X3X3X3X3X3X3X3X3X3X3X3X3X3X3X3X3X3X3X3X3X3X3X3X3X3X3X",
"3X3X3X3X3X3X3X3X3X3X3X3X3X3X3X3X3X3X3X3X3X3X3X3X3X3X3X3X3X3X3X3X3X3X3X3X3X3X3X3X3X3X3X3X3X3X3X3X3X3X3X3X3X3X3X3X3X3X3X3X3X3X3X3X3X3X3X3X3X3X3X3X3X3X3X3X3X3X3X3X",
"3X3X3X3X3X3X3X3X3X3X3X3X3X3X3X3X3X3X3X3X3X3X3X3X3X3X3X3X3X3X3X3X3X3X3X3X3X3X3X3X3X3X3X3X3X3X3X3X3X3X3X3X3X3X3X3X3X3X3X3X3X3X3X3X3X3X3X3X3X3X3X3X3X3X3X3X3X3X3X3X",
"3X3X3X3X3X3X3X3X3X3X3X3X3X3X3X3X3X3X3X3X3X3X3X3X3X3X3X3X3X3X3X3X3X3X3X3X3X3X3X3X3X3X3X3X3X3X3X3X3X3X3X3X3X3X3X3X3X3X3X3X3X3X3X3X3X3X3X3X3X3X3X3X3X3X3X3X3X3X3X3X",
"3X3X3X3X3X3X3X3X3X3X3X3X3X3X3X3X3X3X3X3X3X3X3X3X3X3X3X3X3X3X3X3X3X3X3X3X3X3X3X3X3X3X3X3X3X3X3X3X3X3X3X3X3X3X3X3X3X3X3X3X3X3X3X3X3X3X3X3X3X3X3X3X3X3X3X3X3X3X3X3X"
};
