/* XPM */
static const char * send20_xpm[] = {
/* columns rows colors chars-per-pixel */
"20 20 256 2",
"   c #CEFFCE",
".  c #BDFFBD",
"X  c #C5F7C5",
"o  c #B5FFB5",
"O  c #ADFFAD",
"+  c #A5FFA5",
"@  c #9CFF9C",
"#  c None",
"$  c #94FF94",
"%  c #D6CECE",
"&  c #8CFF8C",
"*  c #CECEC5",
"=  c #84FF84",
"-  c #94EF94",
";  c #7BFF7B",
":  c #CEC5C5",
">  c #73FF73",
",  c #C5C5C5",
"<  c #C5C5BD",
"1  c #6BFF6B",
"2  c #BDC5B5",
"3  c #63FF63",
"4  c #6BF76B",
"5  c #BDBDBD",
"6  c #BDBDB5",
"7  c #5AFF5A",
"8  c #63F763",
"9  c #B5BDB5",
"0  c #B5BDAD",
"q  c #52FF52",
"w  c #BDB5B5",
"e  c #5AF75A",
"r  c #B5B5B5",
"t  c #B5B5AD",
"y  c #52F752",
"u  c #42FF42",
"i  c #52EF52",
"p  c #ADADAD",
"a  c #ADADA5",
"s  c #4AEF4A",
"d  c #31FF31",
"f  c #29FF29",
"g  c #A5A5A5",
"h  c #21FF21",
"j  c #5AD65A",
"k  c #42E642",
"l  c #94AD94",
"z  c #4ADE4A",
"x  c #3AE63A",
"c  c #5ACE5A",
"v  c #10FF10",
"b  c #9C9C9C",
"n  c #31E631",
"m  c #08FF08",
"M  c #949C94",
"N  c #84A584",
"B  c #00FF00",
"V  c #3AD63A",
"C  c #52C552",
"Z  c #00F700",
"A  c #8C948C",
"S  c #849484",
"D  c #00EF00",
"F  c #739C73",
"G  c #08E608",
"H  c #4AB54A",
"J  c #31C531",
"K  c #00E600",
"L  c #739473",
"P  c #00DE00",
"I  c #63945A",
"U  c #6B8C6B",
"Y  c #00D600",
"T  c #42A542",
"R  c #638C63",
"E  c #00CE00",
"W  c #21B521",
"Q  c #5A8C5A",
"!  c #00C500",
"~  c #528C52",
"^  c #3A9C3A",
"/  c #4A8C4A",
"(  c #00BD00",
")  c #319431",
"_  c #219C21",
"`  c #318C31",
"'  c #3A843A",
"]  c #219421",
"[  c #298C29",
"{  c #318431",
"}  c #218C21",
"|  c #218C19",
" . c #198C19",
".. c #218421",
"X. c #297B29",
"o. c #198419",
"O. c #217B21",
"+. c #108410",
"@. c #197B19",
"#. c #CC0066",
"$. c #FF0066",
"%. c #003366",
"&. c #333366",
"*. c #663366",
"=. c #993366",
"-. c #CC3366",
";. c #FF3366",
":. c #006666",
">. c #336666",
",. c #666666",
"<. c #996666",
"1. c #CC6666",
"2. c #009966",
"3. c #339966",
"4. c #669966",
"5. c #999966",
"6. c #CC9966",
"7. c #FF9966",
"8. c #00CC66",
"9. c #33CC66",
"0. c #99CC66",
"q. c #CCCC66",
"w. c #FFCC66",
"e. c #00FF66",
"r. c #33FF66",
"t. c #99FF66",
"y. c #CCFF66",
"u. c #FF00CC",
"i. c #CC00FF",
"p. c #009999",
"a. c #993399",
"s. c #990099",
"d. c #CC0099",
"f. c #000099",
"g. c #333399",
"h. c #660099",
"j. c #CC3399",
"k. c #FF0099",
"l. c #006699",
"z. c #336699",
"x. c #663399",
"c. c #996699",
"v. c #CC6699",
"b. c #FF3399",
"n. c #339999",
"m. c #669999",
"M. c #999999",
"N. c #CC9999",
"B. c #FF9999",
"V. c #00CC99",
"C. c #33CC99",
"Z. c #66CC66",
"A. c #99CC99",
"S. c #CCCC99",
"D. c #FFCC99",
"F. c #00FF99",
"G. c #33FF99",
"H. c #66CC99",
"J. c #99FF99",
"K. c #CCFF99",
"L. c #FFFF99",
"P. c #0000CC",
"I. c #330099",
"U. c #6600CC",
"Y. c #9900CC",
"T. c #CC00CC",
"R. c #003399",
"E. c #3333CC",
"W. c #6633CC",
"Q. c #9933CC",
"!. c #CC33CC",
"~. c #FF33CC",
"^. c #0066CC",
"/. c #3366CC",
"(. c #666699",
"). c #9966CC",
"_. c #CC66CC",
"`. c #FF6699",
"'. c #0099CC",
"]. c #3399CC",
"[. c #6699CC",
"{. c #9999CC",
"}. c #CC99CC",
"|. c #FF99CC",
" X c #00CCCC",
".X c #33CCCC",
"XX c #66CCCC",
"oX c #99CCCC",
"OX c #CCCCCC",
"+X c #FFCCCC",
"@X c #00FFCC",
"#X c #33FFCC",
"$X c #66FF99",
"%X c #99FFCC",
"&X c #CCFFCC",
"*X c #FFFFCC",
"=X c #3300CC",
"-X c #6600FF",
";X c #9900FF",
":X c #0033CC",
">X c #3333FF",
",X c #6633FF",
"<X c #9933FF",
"1X c #CC33FF",
"2X c #FF33FF",
"3X c #0066FF",
"4X c #3366FF",
"5X c #6666CC",
"6X c #9966FF",
"7X c #CC66FF",
"8X c #FF66CC",
"9X c #0099FF",
"0X c #3399FF",
"qX c #6699FF",
"wX c #9999FF",
"eX c #CC99FF",
"rX c #FF99FF",
"tX c #00CCFF",
"yX c #33CCFF",
"uX c #66CCFF",
"iX c #99CCFF",
"pX c #CCCCFF",
"aX c #FFCCFF",
"sX c #33FFFF",
"dX c #66FFCC",
"fX c #99FFFF",
"gX c #CCFFFF",
"hX c #FF6666",
"jX c #66FF66",
"kX c #FFFF66",
"lX c #6666FF",
"zX c #FF66FF",
"xX c #66FFFF",
"cX c #A50021",
"vX c #5F5F5F",
"bX c #777777",
"nX c #868686",
"mX c #969696",
"MX c #CBCBCB",
"NX c #B2B2B2",
"BX c #D7D7D7",
"VX c #DDDDDD",
"CX c #E3E3E3",
"ZX c #EAEAEA",
"AX c #F1F1F1",
"SX c #F8F8F8",
"DX c #FFFBF0",
"FX c #A0A0A4",
"GX c #808080",
"HX c #FF0000",
"JX c #00FF00",
"KX c #FFFF00",
"LX c #0000FF",
"PX c #FF00FF",
"IX c #00FFFF",
"UX c #FFFFFF",
/* pixels */
"# # # # # # # # # # # # # # # # # # # # ",
"# # # # # # # ` 0 # # # # # # # # # # # ",
"# # # # # # # ..` l # # # # # # # # # # ",
"# # # # # # # [ X ) N # # # # # # # # # ",
"# # # # # # # [ &X. ^ F # # # # # # # # ",
"# # # # # # # } o & o T I : # # # # # # ",
"` ` ` ` ` ` ` ` + 7 ; + H ~ < # # # # # ",
"` = = = = = = - @ d v h $ C ' 5 # # # # ",
"` = = 3 u h v v v m m m v ; c { 6 # # # ",
"` = f v v m m m m m m Z G G 4 j ..t # # ",
"` = v m m m Z Z D D G G G P n ; _ R 5 # ",
"` = m Z G G G G G G G P Y x 4 _ Q g # # ",
"` = $ $ $ $ $ & e P P E k 8  .U g # # # ",
"..[ ......[ [ ] e Y ! s i o.L p # # # # ",
"# # 5 6 6 6 9 ..i ( i z o.S t # # # # # ",
"# # # # # # # } i i V O.A r # # # # # # ",
"# # # # # # # } 7 J X.M 6 # # # # # # # ",
"# # # # # # # | W ' b < # # # # # # # # ",
"# # # # # # # @.~ g , # # # # # # # # # ",
"# # # # # # # 6 < , # # # # # # # # # # "
};
